%TF.GenerationSoftware,KiCad,Pcbnew,(6.0.1)*%
%TF.CreationDate,2023-01-09T23:16:33+09:00*%
%TF.ProjectId,yuiopPD,7975696f-7050-4442-9e6b-696361645f70,1*%
%TF.SameCoordinates,Original*%
%TF.FileFunction,Legend,Bot*%
%TF.FilePolarity,Positive*%
%FSLAX46Y46*%
G04 Gerber Fmt 4.6, Leading zero omitted, Abs format (unit mm)*
G04 Created by KiCad (PCBNEW (6.0.1)) date 2023-01-09 23:16:33*
%MOMM*%
%LPD*%
G01*
G04 APERTURE LIST*
%ADD10C,0.150000*%
G04 APERTURE END LIST*
D10*
X227561904Y-96304761D02*
X228133333Y-96304761D01*
X228247619Y-96266666D01*
X228323809Y-96190476D01*
X228361904Y-96076190D01*
X228361904Y-96000000D01*
X228361904Y-97066666D02*
X228361904Y-96685714D01*
X227561904Y-96685714D01*
X228285714Y-97790476D02*
X228323809Y-97752380D01*
X228361904Y-97638095D01*
X228361904Y-97561904D01*
X228323809Y-97447619D01*
X228247619Y-97371428D01*
X228171428Y-97333333D01*
X228019047Y-97295238D01*
X227904761Y-97295238D01*
X227752380Y-97333333D01*
X227676190Y-97371428D01*
X227600000Y-97447619D01*
X227561904Y-97561904D01*
X227561904Y-97638095D01*
X227600000Y-97752380D01*
X227638095Y-97790476D01*
X227561904Y-98361904D02*
X228133333Y-98361904D01*
X228247619Y-98323809D01*
X228323809Y-98247619D01*
X228361904Y-98133333D01*
X228361904Y-98057142D01*
X228361904Y-99123809D02*
X228361904Y-98742857D01*
X227561904Y-98742857D01*
X228285714Y-99847619D02*
X228323809Y-99809523D01*
X228361904Y-99695238D01*
X228361904Y-99619047D01*
X228323809Y-99504761D01*
X228247619Y-99428571D01*
X228171428Y-99390476D01*
X228019047Y-99352380D01*
X227904761Y-99352380D01*
X227752380Y-99390476D01*
X227676190Y-99428571D01*
X227600000Y-99504761D01*
X227561904Y-99619047D01*
X227561904Y-99695238D01*
X227600000Y-99809523D01*
X227638095Y-99847619D01*
X227561904Y-100419047D02*
X228133333Y-100419047D01*
X228247619Y-100380952D01*
X228323809Y-100304761D01*
X228361904Y-100190476D01*
X228361904Y-100114285D01*
X228361904Y-101180952D02*
X228361904Y-100800000D01*
X227561904Y-100800000D01*
X228285714Y-101904761D02*
X228323809Y-101866666D01*
X228361904Y-101752380D01*
X228361904Y-101676190D01*
X228323809Y-101561904D01*
X228247619Y-101485714D01*
X228171428Y-101447619D01*
X228019047Y-101409523D01*
X227904761Y-101409523D01*
X227752380Y-101447619D01*
X227676190Y-101485714D01*
X227600000Y-101561904D01*
X227561904Y-101676190D01*
X227561904Y-101752380D01*
X227600000Y-101866666D01*
X227638095Y-101904761D01*
X227561904Y-102476190D02*
X228133333Y-102476190D01*
X228247619Y-102438095D01*
X228323809Y-102361904D01*
X228361904Y-102247619D01*
X228361904Y-102171428D01*
X228361904Y-103238095D02*
X228361904Y-102857142D01*
X227561904Y-102857142D01*
X228285714Y-103961904D02*
X228323809Y-103923809D01*
X228361904Y-103809523D01*
X228361904Y-103733333D01*
X228323809Y-103619047D01*
X228247619Y-103542857D01*
X228171428Y-103504761D01*
X228019047Y-103466666D01*
X227904761Y-103466666D01*
X227752380Y-103504761D01*
X227676190Y-103542857D01*
X227600000Y-103619047D01*
X227561904Y-103733333D01*
X227561904Y-103809523D01*
X227600000Y-103923809D01*
X227638095Y-103961904D01*
M02*
