%TF.GenerationSoftware,KiCad,Pcbnew,(6.0.1)*%
%TF.CreationDate,2023-01-09T23:16:33+09:00*%
%TF.ProjectId,yuiopPD,7975696f-7050-4442-9e6b-696361645f70,1*%
%TF.SameCoordinates,Original*%
%TF.FileFunction,Legend,Top*%
%TF.FilePolarity,Positive*%
%FSLAX46Y46*%
G04 Gerber Fmt 4.6, Leading zero omitted, Abs format (unit mm)*
G04 Created by KiCad (PCBNEW (6.0.1)) date 2023-01-09 23:16:33*
%MOMM*%
%LPD*%
G01*
G04 APERTURE LIST*
%ADD10C,0.150000*%
%ADD11C,0.400000*%
%ADD12C,0.120000*%
%ADD13C,0.254000*%
%ADD14C,0.100000*%
G04 APERTURE END LIST*
D10*
X176452380Y-110023809D02*
X175452380Y-110023809D01*
X176404761Y-110023809D02*
X176452380Y-110119047D01*
X176452380Y-110309523D01*
X176404761Y-110404761D01*
X176357142Y-110452380D01*
X176261904Y-110500000D01*
X175976190Y-110500000D01*
X175880952Y-110452380D01*
X175833333Y-110404761D01*
X175785714Y-110309523D01*
X175785714Y-110119047D01*
X175833333Y-110023809D01*
X176404761Y-109166666D02*
X176452380Y-109261904D01*
X176452380Y-109452380D01*
X176404761Y-109547619D01*
X176309523Y-109595238D01*
X175928571Y-109595238D01*
X175833333Y-109547619D01*
X175785714Y-109452380D01*
X175785714Y-109261904D01*
X175833333Y-109166666D01*
X175928571Y-109119047D01*
X176023809Y-109119047D01*
X176119047Y-109595238D01*
X176404761Y-108738095D02*
X176452380Y-108642857D01*
X176452380Y-108452380D01*
X176404761Y-108357142D01*
X176309523Y-108309523D01*
X176261904Y-108309523D01*
X176166666Y-108357142D01*
X176119047Y-108452380D01*
X176119047Y-108595238D01*
X176071428Y-108690476D01*
X175976190Y-108738095D01*
X175928571Y-108738095D01*
X175833333Y-108690476D01*
X175785714Y-108595238D01*
X175785714Y-108452380D01*
X175833333Y-108357142D01*
X176452380Y-107880952D02*
X175785714Y-107880952D01*
X175452380Y-107880952D02*
X175500000Y-107928571D01*
X175547619Y-107880952D01*
X175500000Y-107833333D01*
X175452380Y-107880952D01*
X175547619Y-107880952D01*
X175785714Y-106976190D02*
X176595238Y-106976190D01*
X176690476Y-107023809D01*
X176738095Y-107071428D01*
X176785714Y-107166666D01*
X176785714Y-107309523D01*
X176738095Y-107404761D01*
X176404761Y-106976190D02*
X176452380Y-107071428D01*
X176452380Y-107261904D01*
X176404761Y-107357142D01*
X176357142Y-107404761D01*
X176261904Y-107452380D01*
X175976190Y-107452380D01*
X175880952Y-107404761D01*
X175833333Y-107357142D01*
X175785714Y-107261904D01*
X175785714Y-107071428D01*
X175833333Y-106976190D01*
X175785714Y-106500000D02*
X176452380Y-106500000D01*
X175880952Y-106500000D02*
X175833333Y-106452380D01*
X175785714Y-106357142D01*
X175785714Y-106214285D01*
X175833333Y-106119047D01*
X175928571Y-106071428D01*
X176452380Y-106071428D01*
X176404761Y-105214285D02*
X176452380Y-105309523D01*
X176452380Y-105500000D01*
X176404761Y-105595238D01*
X176309523Y-105642857D01*
X175928571Y-105642857D01*
X175833333Y-105595238D01*
X175785714Y-105500000D01*
X175785714Y-105309523D01*
X175833333Y-105214285D01*
X175928571Y-105166666D01*
X176023809Y-105166666D01*
X176119047Y-105642857D01*
X176452380Y-104309523D02*
X175452380Y-104309523D01*
X176404761Y-104309523D02*
X176452380Y-104404761D01*
X176452380Y-104595238D01*
X176404761Y-104690476D01*
X176357142Y-104738095D01*
X176261904Y-104785714D01*
X175976190Y-104785714D01*
X175880952Y-104738095D01*
X175833333Y-104690476D01*
X175785714Y-104595238D01*
X175785714Y-104404761D01*
X175833333Y-104309523D01*
X176452380Y-103071428D02*
X175452380Y-103071428D01*
X175833333Y-103071428D02*
X175785714Y-102976190D01*
X175785714Y-102785714D01*
X175833333Y-102690476D01*
X175880952Y-102642857D01*
X175976190Y-102595238D01*
X176261904Y-102595238D01*
X176357142Y-102642857D01*
X176404761Y-102690476D01*
X176452380Y-102785714D01*
X176452380Y-102976190D01*
X176404761Y-103071428D01*
X175785714Y-102261904D02*
X176452380Y-102023809D01*
X175785714Y-101785714D02*
X176452380Y-102023809D01*
X176690476Y-102119047D01*
X176738095Y-102166666D01*
X176785714Y-102261904D01*
X176452380Y-100642857D02*
X175452380Y-100642857D01*
X176452380Y-100071428D02*
X175880952Y-100500000D01*
X175452380Y-100071428D02*
X176023809Y-100642857D01*
X176452380Y-99500000D02*
X176404761Y-99595238D01*
X176357142Y-99642857D01*
X176261904Y-99690476D01*
X175976190Y-99690476D01*
X175880952Y-99642857D01*
X175833333Y-99595238D01*
X175785714Y-99500000D01*
X175785714Y-99357142D01*
X175833333Y-99261904D01*
X175880952Y-99214285D01*
X175976190Y-99166666D01*
X176261904Y-99166666D01*
X176357142Y-99214285D01*
X176404761Y-99261904D01*
X176452380Y-99357142D01*
X176452380Y-99500000D01*
X176452380Y-98166666D02*
X175976190Y-98500000D01*
X176452380Y-98738095D02*
X175452380Y-98738095D01*
X175452380Y-98357142D01*
X175500000Y-98261904D01*
X175547619Y-98214285D01*
X175642857Y-98166666D01*
X175785714Y-98166666D01*
X175880952Y-98214285D01*
X175928571Y-98261904D01*
X175976190Y-98357142D01*
X175976190Y-98738095D01*
X176452380Y-97595238D02*
X176404761Y-97690476D01*
X176357142Y-97738095D01*
X176261904Y-97785714D01*
X175976190Y-97785714D01*
X175880952Y-97738095D01*
X175833333Y-97690476D01*
X175785714Y-97595238D01*
X175785714Y-97452380D01*
X175833333Y-97357142D01*
X175880952Y-97309523D01*
X175976190Y-97261904D01*
X176261904Y-97261904D01*
X176357142Y-97309523D01*
X176404761Y-97357142D01*
X176452380Y-97452380D01*
X176452380Y-97595238D01*
X176452380Y-96833333D02*
X175452380Y-96833333D01*
X176452380Y-96261904D01*
X175452380Y-96261904D01*
X175404761Y-95071428D02*
X176690476Y-95928571D01*
X176452380Y-94738095D02*
X175452380Y-94738095D01*
X176452380Y-94166666D02*
X175880952Y-94595238D01*
X175452380Y-94166666D02*
X176023809Y-94738095D01*
X176452380Y-93309523D02*
X175928571Y-93309523D01*
X175833333Y-93357142D01*
X175785714Y-93452380D01*
X175785714Y-93642857D01*
X175833333Y-93738095D01*
X176404761Y-93309523D02*
X176452380Y-93404761D01*
X176452380Y-93642857D01*
X176404761Y-93738095D01*
X176309523Y-93785714D01*
X176214285Y-93785714D01*
X176119047Y-93738095D01*
X176071428Y-93642857D01*
X176071428Y-93404761D01*
X176023809Y-93309523D01*
X176452380Y-92690476D02*
X176404761Y-92785714D01*
X176357142Y-92833333D01*
X176261904Y-92880952D01*
X175976190Y-92880952D01*
X175880952Y-92833333D01*
X175833333Y-92785714D01*
X175785714Y-92690476D01*
X175785714Y-92547619D01*
X175833333Y-92452380D01*
X175880952Y-92404761D01*
X175976190Y-92357142D01*
X176261904Y-92357142D01*
X176357142Y-92404761D01*
X176404761Y-92452380D01*
X176452380Y-92547619D01*
X176452380Y-92690476D01*
X176452380Y-91928571D02*
X175785714Y-91928571D01*
X175976190Y-91928571D02*
X175880952Y-91880952D01*
X175833333Y-91833333D01*
X175785714Y-91738095D01*
X175785714Y-91642857D01*
X176452380Y-91309523D02*
X175785714Y-91309523D01*
X175452380Y-91309523D02*
X175500000Y-91357142D01*
X175547619Y-91309523D01*
X175500000Y-91261904D01*
X175452380Y-91309523D01*
X175547619Y-91309523D01*
X175976190Y-90642857D02*
X176452380Y-90642857D01*
X175452380Y-90976190D02*
X175976190Y-90642857D01*
X175452380Y-90309523D01*
X176452380Y-89547619D02*
X175928571Y-89547619D01*
X175833333Y-89595238D01*
X175785714Y-89690476D01*
X175785714Y-89880952D01*
X175833333Y-89976190D01*
X176404761Y-89547619D02*
X176452380Y-89642857D01*
X176452380Y-89880952D01*
X176404761Y-89976190D01*
X176309523Y-90023809D01*
X176214285Y-90023809D01*
X176119047Y-89976190D01*
X176071428Y-89880952D01*
X176071428Y-89642857D01*
X176023809Y-89547619D01*
D11*
X170616666Y-108273809D02*
X172283333Y-108273809D01*
X168783333Y-109107142D02*
X170616666Y-108273809D01*
X168783333Y-107440476D01*
X168783333Y-106607142D02*
X171616666Y-106607142D01*
X171950000Y-106488095D01*
X172116666Y-106369047D01*
X172283333Y-106130952D01*
X172283333Y-105654761D01*
X172116666Y-105416666D01*
X171950000Y-105297619D01*
X171616666Y-105178571D01*
X168783333Y-105178571D01*
X172283333Y-103988095D02*
X168783333Y-103988095D01*
X168783333Y-102321428D02*
X168783333Y-101845238D01*
X168950000Y-101607142D01*
X169283333Y-101369047D01*
X169950000Y-101250000D01*
X171116666Y-101250000D01*
X171783333Y-101369047D01*
X172116666Y-101607142D01*
X172283333Y-101845238D01*
X172283333Y-102321428D01*
X172116666Y-102559523D01*
X171783333Y-102797619D01*
X171116666Y-102916666D01*
X169950000Y-102916666D01*
X169283333Y-102797619D01*
X168950000Y-102559523D01*
X168783333Y-102321428D01*
X172283333Y-100178571D02*
X168783333Y-100178571D01*
X168783333Y-99226190D01*
X168950000Y-98988095D01*
X169116666Y-98869047D01*
X169450000Y-98750000D01*
X169950000Y-98750000D01*
X170283333Y-98869047D01*
X170450000Y-98988095D01*
X170616666Y-99226190D01*
X170616666Y-100178571D01*
X168616666Y-95892857D02*
X173116666Y-98035714D01*
X172283333Y-95059523D02*
X168783333Y-95059523D01*
X168783333Y-94107142D01*
X168950000Y-93869047D01*
X169116666Y-93750000D01*
X169450000Y-93630952D01*
X169950000Y-93630952D01*
X170283333Y-93750000D01*
X170450000Y-93869047D01*
X170616666Y-94107142D01*
X170616666Y-95059523D01*
X172283333Y-92559523D02*
X168783333Y-92559523D01*
X168783333Y-91964285D01*
X168950000Y-91607142D01*
X169283333Y-91369047D01*
X169616666Y-91250000D01*
X170283333Y-91130952D01*
X170783333Y-91130952D01*
X171450000Y-91250000D01*
X171783333Y-91369047D01*
X172116666Y-91607142D01*
X172283333Y-91964285D01*
X172283333Y-92559523D01*
D10*
X174702380Y-98023809D02*
X174035714Y-98023809D01*
X174226190Y-98023809D02*
X174130952Y-97976190D01*
X174083333Y-97928571D01*
X174035714Y-97833333D01*
X174035714Y-97738095D01*
X174654761Y-97023809D02*
X174702380Y-97119047D01*
X174702380Y-97309523D01*
X174654761Y-97404761D01*
X174559523Y-97452380D01*
X174178571Y-97452380D01*
X174083333Y-97404761D01*
X174035714Y-97309523D01*
X174035714Y-97119047D01*
X174083333Y-97023809D01*
X174178571Y-96976190D01*
X174273809Y-96976190D01*
X174369047Y-97452380D01*
X174035714Y-96642857D02*
X174702380Y-96404761D01*
X174035714Y-96166666D01*
X174702380Y-95785714D02*
X174035714Y-95785714D01*
X173702380Y-95785714D02*
X173750000Y-95833333D01*
X173797619Y-95785714D01*
X173750000Y-95738095D01*
X173702380Y-95785714D01*
X173797619Y-95785714D01*
X174654761Y-95357142D02*
X174702380Y-95261904D01*
X174702380Y-95071428D01*
X174654761Y-94976190D01*
X174559523Y-94928571D01*
X174511904Y-94928571D01*
X174416666Y-94976190D01*
X174369047Y-95071428D01*
X174369047Y-95214285D01*
X174321428Y-95309523D01*
X174226190Y-95357142D01*
X174178571Y-95357142D01*
X174083333Y-95309523D01*
X174035714Y-95214285D01*
X174035714Y-95071428D01*
X174083333Y-94976190D01*
X174702380Y-94500000D02*
X174035714Y-94500000D01*
X173702380Y-94500000D02*
X173750000Y-94547619D01*
X173797619Y-94500000D01*
X173750000Y-94452380D01*
X173702380Y-94500000D01*
X173797619Y-94500000D01*
X174702380Y-93880952D02*
X174654761Y-93976190D01*
X174607142Y-94023809D01*
X174511904Y-94071428D01*
X174226190Y-94071428D01*
X174130952Y-94023809D01*
X174083333Y-93976190D01*
X174035714Y-93880952D01*
X174035714Y-93738095D01*
X174083333Y-93642857D01*
X174130952Y-93595238D01*
X174226190Y-93547619D01*
X174511904Y-93547619D01*
X174607142Y-93595238D01*
X174654761Y-93642857D01*
X174702380Y-93738095D01*
X174702380Y-93880952D01*
X174035714Y-93119047D02*
X174702380Y-93119047D01*
X174130952Y-93119047D02*
X174083333Y-93071428D01*
X174035714Y-92976190D01*
X174035714Y-92833333D01*
X174083333Y-92738095D01*
X174178571Y-92690476D01*
X174702380Y-92690476D01*
X174702380Y-90928571D02*
X174702380Y-91500000D01*
X174702380Y-91214285D02*
X173702380Y-91214285D01*
X173845238Y-91309523D01*
X173940476Y-91404761D01*
X173988095Y-91500000D01*
%TO.C,SW5*%
X137564761Y-111163333D02*
X137612380Y-111020476D01*
X137612380Y-110782380D01*
X137564761Y-110687142D01*
X137517142Y-110639523D01*
X137421904Y-110591904D01*
X137326666Y-110591904D01*
X137231428Y-110639523D01*
X137183809Y-110687142D01*
X137136190Y-110782380D01*
X137088571Y-110972857D01*
X137040952Y-111068095D01*
X136993333Y-111115714D01*
X136898095Y-111163333D01*
X136802857Y-111163333D01*
X136707619Y-111115714D01*
X136660000Y-111068095D01*
X136612380Y-110972857D01*
X136612380Y-110734761D01*
X136660000Y-110591904D01*
X136612380Y-110258571D02*
X137612380Y-110020476D01*
X136898095Y-109830000D01*
X137612380Y-109639523D01*
X136612380Y-109401428D01*
X136612380Y-108544285D02*
X136612380Y-109020476D01*
X137088571Y-109068095D01*
X137040952Y-109020476D01*
X136993333Y-108925238D01*
X136993333Y-108687142D01*
X137040952Y-108591904D01*
X137088571Y-108544285D01*
X137183809Y-108496666D01*
X137421904Y-108496666D01*
X137517142Y-108544285D01*
X137564761Y-108591904D01*
X137612380Y-108687142D01*
X137612380Y-108925238D01*
X137564761Y-109020476D01*
X137517142Y-109068095D01*
%TO.C,J2*%
X86172380Y-119345238D02*
X86981904Y-119345238D01*
X87077142Y-119297619D01*
X87124761Y-119250000D01*
X87172380Y-119154761D01*
X87172380Y-118964285D01*
X87124761Y-118869047D01*
X87077142Y-118821428D01*
X86981904Y-118773809D01*
X86172380Y-118773809D01*
X86886666Y-118345238D02*
X86886666Y-117869047D01*
X87172380Y-118440476D02*
X86172380Y-118107142D01*
X87172380Y-117773809D01*
X87172380Y-116869047D02*
X86696190Y-117202380D01*
X87172380Y-117440476D02*
X86172380Y-117440476D01*
X86172380Y-117059523D01*
X86220000Y-116964285D01*
X86267619Y-116916666D01*
X86362857Y-116869047D01*
X86505714Y-116869047D01*
X86600952Y-116916666D01*
X86648571Y-116964285D01*
X86696190Y-117059523D01*
X86696190Y-117440476D01*
X86172380Y-116583333D02*
X86172380Y-116011904D01*
X87172380Y-116297619D02*
X86172380Y-116297619D01*
%TO.C,SW3*%
X157564761Y-91163333D02*
X157612380Y-91020476D01*
X157612380Y-90782380D01*
X157564761Y-90687142D01*
X157517142Y-90639523D01*
X157421904Y-90591904D01*
X157326666Y-90591904D01*
X157231428Y-90639523D01*
X157183809Y-90687142D01*
X157136190Y-90782380D01*
X157088571Y-90972857D01*
X157040952Y-91068095D01*
X156993333Y-91115714D01*
X156898095Y-91163333D01*
X156802857Y-91163333D01*
X156707619Y-91115714D01*
X156660000Y-91068095D01*
X156612380Y-90972857D01*
X156612380Y-90734761D01*
X156660000Y-90591904D01*
X156612380Y-90258571D02*
X157612380Y-90020476D01*
X156898095Y-89830000D01*
X157612380Y-89639523D01*
X156612380Y-89401428D01*
X156612380Y-89115714D02*
X156612380Y-88496666D01*
X156993333Y-88830000D01*
X156993333Y-88687142D01*
X157040952Y-88591904D01*
X157088571Y-88544285D01*
X157183809Y-88496666D01*
X157421904Y-88496666D01*
X157517142Y-88544285D01*
X157564761Y-88591904D01*
X157612380Y-88687142D01*
X157612380Y-88972857D01*
X157564761Y-89068095D01*
X157517142Y-89115714D01*
%TO.C,J4*%
X76152380Y-84052380D02*
X76152380Y-83861904D01*
X76200000Y-83766666D01*
X76295238Y-83671428D01*
X76485714Y-83623809D01*
X76819047Y-83623809D01*
X77009523Y-83671428D01*
X77104761Y-83766666D01*
X77152380Y-83861904D01*
X77152380Y-84052380D01*
X77104761Y-84147619D01*
X77009523Y-84242857D01*
X76819047Y-84290476D01*
X76485714Y-84290476D01*
X76295238Y-84242857D01*
X76200000Y-84147619D01*
X76152380Y-84052380D01*
X77152380Y-82719047D02*
X77152380Y-83195238D01*
X76152380Y-83195238D01*
X76628571Y-82385714D02*
X76628571Y-82052380D01*
X77152380Y-81909523D02*
X77152380Y-82385714D01*
X76152380Y-82385714D01*
X76152380Y-81909523D01*
X77152380Y-81480952D02*
X76152380Y-81480952D01*
X76152380Y-81242857D01*
X76200000Y-81100000D01*
X76295238Y-81004761D01*
X76390476Y-80957142D01*
X76580952Y-80909523D01*
X76723809Y-80909523D01*
X76914285Y-80957142D01*
X77009523Y-81004761D01*
X77104761Y-81100000D01*
X77152380Y-81242857D01*
X77152380Y-81480952D01*
%TO.C,SW4*%
X157564761Y-111163333D02*
X157612380Y-111020476D01*
X157612380Y-110782380D01*
X157564761Y-110687142D01*
X157517142Y-110639523D01*
X157421904Y-110591904D01*
X157326666Y-110591904D01*
X157231428Y-110639523D01*
X157183809Y-110687142D01*
X157136190Y-110782380D01*
X157088571Y-110972857D01*
X157040952Y-111068095D01*
X156993333Y-111115714D01*
X156898095Y-111163333D01*
X156802857Y-111163333D01*
X156707619Y-111115714D01*
X156660000Y-111068095D01*
X156612380Y-110972857D01*
X156612380Y-110734761D01*
X156660000Y-110591904D01*
X156612380Y-110258571D02*
X157612380Y-110020476D01*
X156898095Y-109830000D01*
X157612380Y-109639523D01*
X156612380Y-109401428D01*
X156945714Y-108591904D02*
X157612380Y-108591904D01*
X156564761Y-108830000D02*
X157279047Y-109068095D01*
X157279047Y-108449047D01*
D12*
%TO.C,U1*%
X80923809Y-105163139D02*
X80961904Y-105048853D01*
X80961904Y-104858377D01*
X80923809Y-104782186D01*
X80885714Y-104744091D01*
X80809523Y-104705996D01*
X80733333Y-104705996D01*
X80657142Y-104744091D01*
X80619047Y-104782186D01*
X80580952Y-104858377D01*
X80542857Y-105010758D01*
X80504761Y-105086948D01*
X80466666Y-105125043D01*
X80390476Y-105163139D01*
X80314285Y-105163139D01*
X80238095Y-105125043D01*
X80200000Y-105086948D01*
X80161904Y-105010758D01*
X80161904Y-104820281D01*
X80200000Y-104705996D01*
X80923809Y-104058377D02*
X80961904Y-104134567D01*
X80961904Y-104286948D01*
X80923809Y-104363139D01*
X80847619Y-104401234D01*
X80542857Y-104401234D01*
X80466666Y-104363139D01*
X80428571Y-104286948D01*
X80428571Y-104134567D01*
X80466666Y-104058377D01*
X80542857Y-104020281D01*
X80619047Y-104020281D01*
X80695238Y-104401234D01*
X80923809Y-103372662D02*
X80961904Y-103448853D01*
X80961904Y-103601234D01*
X80923809Y-103677424D01*
X80847619Y-103715520D01*
X80542857Y-103715520D01*
X80466666Y-103677424D01*
X80428571Y-103601234D01*
X80428571Y-103448853D01*
X80466666Y-103372662D01*
X80542857Y-103334567D01*
X80619047Y-103334567D01*
X80695238Y-103715520D01*
X80923809Y-102686948D02*
X80961904Y-102763139D01*
X80961904Y-102915520D01*
X80923809Y-102991710D01*
X80847619Y-103029805D01*
X80542857Y-103029805D01*
X80466666Y-102991710D01*
X80428571Y-102915520D01*
X80428571Y-102763139D01*
X80466666Y-102686948D01*
X80542857Y-102648853D01*
X80619047Y-102648853D01*
X80695238Y-103029805D01*
X80961904Y-101963139D02*
X80161904Y-101963139D01*
X80923809Y-101963139D02*
X80961904Y-102039329D01*
X80961904Y-102191710D01*
X80923809Y-102267900D01*
X80885714Y-102305996D01*
X80809523Y-102344091D01*
X80580952Y-102344091D01*
X80504761Y-102305996D01*
X80466666Y-102267900D01*
X80428571Y-102191710D01*
X80428571Y-102039329D01*
X80466666Y-101963139D01*
X80923809Y-101010758D02*
X80961904Y-100896472D01*
X80961904Y-100705996D01*
X80923809Y-100629805D01*
X80885714Y-100591710D01*
X80809523Y-100553615D01*
X80733333Y-100553615D01*
X80657142Y-100591710D01*
X80619047Y-100629805D01*
X80580952Y-100705996D01*
X80542857Y-100858377D01*
X80504761Y-100934567D01*
X80466666Y-100972662D01*
X80390476Y-101010758D01*
X80314285Y-101010758D01*
X80238095Y-100972662D01*
X80200000Y-100934567D01*
X80161904Y-100858377D01*
X80161904Y-100667900D01*
X80200000Y-100553615D01*
X80428571Y-100325043D02*
X80428571Y-100020281D01*
X80161904Y-100210758D02*
X80847619Y-100210758D01*
X80923809Y-100172662D01*
X80961904Y-100096472D01*
X80961904Y-100020281D01*
X80428571Y-99410758D02*
X80961904Y-99410758D01*
X80428571Y-99753615D02*
X80847619Y-99753615D01*
X80923809Y-99715520D01*
X80961904Y-99639329D01*
X80961904Y-99525043D01*
X80923809Y-99448853D01*
X80885714Y-99410758D01*
X80961904Y-98686948D02*
X80161904Y-98686948D01*
X80923809Y-98686948D02*
X80961904Y-98763139D01*
X80961904Y-98915520D01*
X80923809Y-98991710D01*
X80885714Y-99029805D01*
X80809523Y-99067900D01*
X80580952Y-99067900D01*
X80504761Y-99029805D01*
X80466666Y-98991710D01*
X80428571Y-98915520D01*
X80428571Y-98763139D01*
X80466666Y-98686948D01*
X80961904Y-98305996D02*
X80428571Y-98305996D01*
X80161904Y-98305996D02*
X80200000Y-98344091D01*
X80238095Y-98305996D01*
X80200000Y-98267900D01*
X80161904Y-98305996D01*
X80238095Y-98305996D01*
X80961904Y-97810758D02*
X80923809Y-97886948D01*
X80885714Y-97925043D01*
X80809523Y-97963139D01*
X80580952Y-97963139D01*
X80504761Y-97925043D01*
X80466666Y-97886948D01*
X80428571Y-97810758D01*
X80428571Y-97696472D01*
X80466666Y-97620281D01*
X80504761Y-97582186D01*
X80580952Y-97544091D01*
X80809523Y-97544091D01*
X80885714Y-97582186D01*
X80923809Y-97620281D01*
X80961904Y-97696472D01*
X80961904Y-97810758D01*
X80161904Y-96667900D02*
X80961904Y-96134567D01*
X80161904Y-96134567D02*
X80961904Y-96667900D01*
X80961904Y-95829805D02*
X80161904Y-95829805D01*
X80733333Y-95486948D02*
X80733333Y-95105996D01*
X80961904Y-95563139D02*
X80161904Y-95296472D01*
X80961904Y-95029805D01*
X80161904Y-94610758D02*
X80161904Y-94458377D01*
X80200000Y-94382186D01*
X80276190Y-94305996D01*
X80428571Y-94267900D01*
X80695238Y-94267900D01*
X80847619Y-94305996D01*
X80923809Y-94382186D01*
X80961904Y-94458377D01*
X80961904Y-94610758D01*
X80923809Y-94686948D01*
X80847619Y-94763139D01*
X80695238Y-94801234D01*
X80428571Y-94801234D01*
X80276190Y-94763139D01*
X80200000Y-94686948D01*
X80161904Y-94610758D01*
D10*
%TO.C,SW2*%
X137564761Y-91163333D02*
X137612380Y-91020476D01*
X137612380Y-90782380D01*
X137564761Y-90687142D01*
X137517142Y-90639523D01*
X137421904Y-90591904D01*
X137326666Y-90591904D01*
X137231428Y-90639523D01*
X137183809Y-90687142D01*
X137136190Y-90782380D01*
X137088571Y-90972857D01*
X137040952Y-91068095D01*
X136993333Y-91115714D01*
X136898095Y-91163333D01*
X136802857Y-91163333D01*
X136707619Y-91115714D01*
X136660000Y-91068095D01*
X136612380Y-90972857D01*
X136612380Y-90734761D01*
X136660000Y-90591904D01*
X136612380Y-90258571D02*
X137612380Y-90020476D01*
X136898095Y-89830000D01*
X137612380Y-89639523D01*
X136612380Y-89401428D01*
X136707619Y-89068095D02*
X136660000Y-89020476D01*
X136612380Y-88925238D01*
X136612380Y-88687142D01*
X136660000Y-88591904D01*
X136707619Y-88544285D01*
X136802857Y-88496666D01*
X136898095Y-88496666D01*
X137040952Y-88544285D01*
X137612380Y-89115714D01*
X137612380Y-88496666D01*
%TO.C,SW1*%
X117564761Y-91163333D02*
X117612380Y-91020476D01*
X117612380Y-90782380D01*
X117564761Y-90687142D01*
X117517142Y-90639523D01*
X117421904Y-90591904D01*
X117326666Y-90591904D01*
X117231428Y-90639523D01*
X117183809Y-90687142D01*
X117136190Y-90782380D01*
X117088571Y-90972857D01*
X117040952Y-91068095D01*
X116993333Y-91115714D01*
X116898095Y-91163333D01*
X116802857Y-91163333D01*
X116707619Y-91115714D01*
X116660000Y-91068095D01*
X116612380Y-90972857D01*
X116612380Y-90734761D01*
X116660000Y-90591904D01*
X116612380Y-90258571D02*
X117612380Y-90020476D01*
X116898095Y-89830000D01*
X117612380Y-89639523D01*
X116612380Y-89401428D01*
X117612380Y-88496666D02*
X117612380Y-89068095D01*
X117612380Y-88782380D02*
X116612380Y-88782380D01*
X116755238Y-88877619D01*
X116850476Y-88972857D01*
X116898095Y-89068095D01*
%TO.C,J3*%
X76852380Y-119288095D02*
X75852380Y-119288095D01*
X75852380Y-119050000D01*
X75900000Y-118907142D01*
X75995238Y-118811904D01*
X76090476Y-118764285D01*
X76280952Y-118716666D01*
X76423809Y-118716666D01*
X76614285Y-118764285D01*
X76709523Y-118811904D01*
X76804761Y-118907142D01*
X76852380Y-119050000D01*
X76852380Y-119288095D01*
X76328571Y-118288095D02*
X76328571Y-117954761D01*
X76852380Y-117811904D02*
X76852380Y-118288095D01*
X75852380Y-118288095D01*
X75852380Y-117811904D01*
X76328571Y-117050000D02*
X76376190Y-116907142D01*
X76423809Y-116859523D01*
X76519047Y-116811904D01*
X76661904Y-116811904D01*
X76757142Y-116859523D01*
X76804761Y-116907142D01*
X76852380Y-117002380D01*
X76852380Y-117383333D01*
X75852380Y-117383333D01*
X75852380Y-117050000D01*
X75900000Y-116954761D01*
X75947619Y-116907142D01*
X76042857Y-116859523D01*
X76138095Y-116859523D01*
X76233333Y-116907142D01*
X76280952Y-116954761D01*
X76328571Y-117050000D01*
X76328571Y-117383333D01*
X75852380Y-116383333D02*
X76661904Y-116383333D01*
X76757142Y-116335714D01*
X76804761Y-116288095D01*
X76852380Y-116192857D01*
X76852380Y-116002380D01*
X76804761Y-115907142D01*
X76757142Y-115859523D01*
X76661904Y-115811904D01*
X75852380Y-115811904D01*
X75900000Y-114811904D02*
X75852380Y-114907142D01*
X75852380Y-115050000D01*
X75900000Y-115192857D01*
X75995238Y-115288095D01*
X76090476Y-115335714D01*
X76280952Y-115383333D01*
X76423809Y-115383333D01*
X76614285Y-115335714D01*
X76709523Y-115288095D01*
X76804761Y-115192857D01*
X76852380Y-115050000D01*
X76852380Y-114954761D01*
X76804761Y-114811904D01*
X76757142Y-114764285D01*
X76423809Y-114764285D01*
X76423809Y-114954761D01*
%TO.C,J1*%
X220452380Y-100333333D02*
X221166666Y-100333333D01*
X221309523Y-100380952D01*
X221404761Y-100476190D01*
X221452380Y-100619047D01*
X221452380Y-100714285D01*
X221452380Y-99333333D02*
X221452380Y-99904761D01*
X221452380Y-99619047D02*
X220452380Y-99619047D01*
X220595238Y-99714285D01*
X220690476Y-99809523D01*
X220738095Y-99904761D01*
X209452380Y-102500000D02*
X208452380Y-102500000D01*
X209452380Y-101928571D02*
X208880952Y-102357142D01*
X208452380Y-101928571D02*
X209023809Y-102500000D01*
X209404761Y-101119047D02*
X209452380Y-101214285D01*
X209452380Y-101404761D01*
X209404761Y-101500000D01*
X209309523Y-101547619D01*
X208928571Y-101547619D01*
X208833333Y-101500000D01*
X208785714Y-101404761D01*
X208785714Y-101214285D01*
X208833333Y-101119047D01*
X208928571Y-101071428D01*
X209023809Y-101071428D01*
X209119047Y-101547619D01*
X208785714Y-100738095D02*
X209452380Y-100500000D01*
X208785714Y-100261904D02*
X209452380Y-100500000D01*
X209690476Y-100595238D01*
X209738095Y-100642857D01*
X209785714Y-100738095D01*
X209452380Y-99880952D02*
X208452380Y-99880952D01*
X208833333Y-99880952D02*
X208785714Y-99785714D01*
X208785714Y-99595238D01*
X208833333Y-99500000D01*
X208880952Y-99452380D01*
X208976190Y-99404761D01*
X209261904Y-99404761D01*
X209357142Y-99452380D01*
X209404761Y-99500000D01*
X209452380Y-99595238D01*
X209452380Y-99785714D01*
X209404761Y-99880952D01*
X209452380Y-98547619D02*
X208928571Y-98547619D01*
X208833333Y-98595238D01*
X208785714Y-98690476D01*
X208785714Y-98880952D01*
X208833333Y-98976190D01*
X209404761Y-98547619D02*
X209452380Y-98642857D01*
X209452380Y-98880952D01*
X209404761Y-98976190D01*
X209309523Y-99023809D01*
X209214285Y-99023809D01*
X209119047Y-98976190D01*
X209071428Y-98880952D01*
X209071428Y-98642857D01*
X209023809Y-98547619D01*
X209452380Y-97928571D02*
X209404761Y-98023809D01*
X209309523Y-98071428D01*
X208452380Y-98071428D01*
X209452380Y-97404761D02*
X209404761Y-97500000D01*
X209309523Y-97547619D01*
X208452380Y-97547619D01*
%TO.C,RST1*%
X89252380Y-82847619D02*
X88776190Y-83180952D01*
X89252380Y-83419047D02*
X88252380Y-83419047D01*
X88252380Y-83038095D01*
X88300000Y-82942857D01*
X88347619Y-82895238D01*
X88442857Y-82847619D01*
X88585714Y-82847619D01*
X88680952Y-82895238D01*
X88728571Y-82942857D01*
X88776190Y-83038095D01*
X88776190Y-83419047D01*
X89204761Y-82466666D02*
X89252380Y-82323809D01*
X89252380Y-82085714D01*
X89204761Y-81990476D01*
X89157142Y-81942857D01*
X89061904Y-81895238D01*
X88966666Y-81895238D01*
X88871428Y-81942857D01*
X88823809Y-81990476D01*
X88776190Y-82085714D01*
X88728571Y-82276190D01*
X88680952Y-82371428D01*
X88633333Y-82419047D01*
X88538095Y-82466666D01*
X88442857Y-82466666D01*
X88347619Y-82419047D01*
X88300000Y-82371428D01*
X88252380Y-82276190D01*
X88252380Y-82038095D01*
X88300000Y-81895238D01*
X88252380Y-81609523D02*
X88252380Y-81038095D01*
X89252380Y-81323809D02*
X88252380Y-81323809D01*
%TO.C,SW6*%
X117564761Y-111163333D02*
X117612380Y-111020476D01*
X117612380Y-110782380D01*
X117564761Y-110687142D01*
X117517142Y-110639523D01*
X117421904Y-110591904D01*
X117326666Y-110591904D01*
X117231428Y-110639523D01*
X117183809Y-110687142D01*
X117136190Y-110782380D01*
X117088571Y-110972857D01*
X117040952Y-111068095D01*
X116993333Y-111115714D01*
X116898095Y-111163333D01*
X116802857Y-111163333D01*
X116707619Y-111115714D01*
X116660000Y-111068095D01*
X116612380Y-110972857D01*
X116612380Y-110734761D01*
X116660000Y-110591904D01*
X116612380Y-110258571D02*
X117612380Y-110020476D01*
X116898095Y-109830000D01*
X117612380Y-109639523D01*
X116612380Y-109401428D01*
X116612380Y-108591904D02*
X116612380Y-108782380D01*
X116660000Y-108877619D01*
X116707619Y-108925238D01*
X116850476Y-109020476D01*
X117040952Y-109068095D01*
X117421904Y-109068095D01*
X117517142Y-109020476D01*
X117564761Y-108972857D01*
X117612380Y-108877619D01*
X117612380Y-108687142D01*
X117564761Y-108591904D01*
X117517142Y-108544285D01*
X117421904Y-108496666D01*
X117183809Y-108496666D01*
X117088571Y-108544285D01*
X117040952Y-108591904D01*
X116993333Y-108687142D01*
X116993333Y-108877619D01*
X117040952Y-108972857D01*
X117088571Y-109020476D01*
X117183809Y-109068095D01*
D12*
%TO.C,SW5*%
X128500000Y-103850000D02*
X131500000Y-103850000D01*
X136150000Y-116150000D02*
X133500000Y-116150000D01*
X133500000Y-103850000D02*
X136150000Y-103850000D01*
X123850000Y-103850000D02*
X126500000Y-103850000D01*
X136150000Y-103850000D02*
X136150000Y-116150000D01*
X131500000Y-116150000D02*
X128500000Y-116150000D01*
X123850000Y-116150000D02*
X123850000Y-103850000D01*
X126500000Y-116150000D02*
X123850000Y-116150000D01*
%TO.C,J2*%
X97870000Y-119080000D02*
X97870000Y-116420000D01*
X90190000Y-119080000D02*
X97870000Y-119080000D01*
X87590000Y-119080000D02*
X87590000Y-117750000D01*
X88920000Y-119080000D02*
X87590000Y-119080000D01*
X90190000Y-119080000D02*
X90190000Y-116420000D01*
X90190000Y-116420000D02*
X97870000Y-116420000D01*
%TO.C,SW3*%
X153500000Y-83850000D02*
X156150000Y-83850000D01*
X146500000Y-96150000D02*
X143850000Y-96150000D01*
X156150000Y-96150000D02*
X153500000Y-96150000D01*
X151500000Y-96150000D02*
X148500000Y-96150000D01*
X143850000Y-83850000D02*
X146500000Y-83850000D01*
X156150000Y-83850000D02*
X156150000Y-96150000D01*
X143850000Y-96150000D02*
X143850000Y-83850000D01*
X148500000Y-83850000D02*
X151500000Y-83850000D01*
D10*
%TO.C,J4*%
X87450000Y-80950000D02*
X87450000Y-83250000D01*
X77550000Y-83250000D02*
X77550000Y-80950000D01*
X87450000Y-83250000D02*
X77550000Y-83250000D01*
X87450000Y-80950000D02*
X77550000Y-80950000D01*
D12*
%TO.C,SW4*%
X148500000Y-103850000D02*
X151500000Y-103850000D01*
X151500000Y-116150000D02*
X148500000Y-116150000D01*
X146500000Y-116150000D02*
X143850000Y-116150000D01*
X143850000Y-103850000D02*
X146500000Y-103850000D01*
X156150000Y-116150000D02*
X153500000Y-116150000D01*
X143850000Y-116150000D02*
X143850000Y-103850000D01*
X153500000Y-103850000D02*
X156150000Y-103850000D01*
X156150000Y-103850000D02*
X156150000Y-116150000D01*
%TO.C,U1*%
X76048490Y-95220990D02*
X76048490Y-104220210D01*
X91218310Y-106664409D02*
X91218310Y-92864409D01*
X70218310Y-95220990D02*
X76048490Y-95220990D01*
X70218310Y-92864409D02*
X70218310Y-106664409D01*
X76048490Y-104220210D02*
X70218310Y-104220210D01*
X91218310Y-92864409D02*
G75*
G03*
X89278310Y-90864409I-2000427J486D01*
G01*
X70218310Y-106664409D02*
G75*
G03*
X71988310Y-108644410I2013447J18762D01*
G01*
X89218310Y-108664409D02*
G75*
G03*
X91218310Y-106664409I1J1999999D01*
G01*
X71928310Y-90884411D02*
G75*
G03*
X70218310Y-92864409I291315J-1979999D01*
G01*
D13*
X73084310Y-109503410D02*
G75*
G03*
X73084310Y-109503410I-127000J0D01*
G01*
D12*
%TO.C,SW2*%
X123850000Y-83850000D02*
X126500000Y-83850000D01*
X128500000Y-83850000D02*
X131500000Y-83850000D01*
X131500000Y-96150000D02*
X128500000Y-96150000D01*
X136150000Y-96150000D02*
X133500000Y-96150000D01*
X126500000Y-96150000D02*
X123850000Y-96150000D01*
X136150000Y-83850000D02*
X136150000Y-96150000D01*
X123850000Y-96150000D02*
X123850000Y-83850000D01*
X133500000Y-83850000D02*
X136150000Y-83850000D01*
%TO.C,SW1*%
X116150000Y-83850000D02*
X116150000Y-96150000D01*
X106500000Y-96150000D02*
X103850000Y-96150000D01*
X113500000Y-83850000D02*
X116150000Y-83850000D01*
X116150000Y-96150000D02*
X113500000Y-96150000D01*
X103850000Y-96150000D02*
X103850000Y-83850000D01*
X111500000Y-96150000D02*
X108500000Y-96150000D01*
X103850000Y-83850000D02*
X106500000Y-83850000D01*
X108500000Y-83850000D02*
X111500000Y-83850000D01*
%TO.C,J3*%
X79745000Y-119080000D02*
X84885000Y-119080000D01*
X78475000Y-119080000D02*
X77145000Y-119080000D01*
X84885000Y-119080000D02*
X84885000Y-116420000D01*
X77145000Y-119080000D02*
X77145000Y-117750000D01*
X79745000Y-119080000D02*
X79745000Y-116420000D01*
X79745000Y-116420000D02*
X84885000Y-116420000D01*
D14*
%TO.C,J1*%
X223750000Y-89000000D02*
X222150000Y-89000000D01*
X222150000Y-89000000D02*
X222150000Y-111000000D01*
X222150000Y-111000000D02*
X223750000Y-111000000D01*
X223750000Y-111000000D02*
X223750000Y-89000000D01*
X223750000Y-108750000D02*
X226250000Y-108750000D01*
X226250000Y-108750000D02*
X226250000Y-91250000D01*
X226250000Y-91250000D02*
X223750000Y-91250000D01*
X223750000Y-91250000D02*
X223750000Y-108750000D01*
D10*
%TO.C,RST1*%
X96850000Y-83900000D02*
X96850000Y-83650000D01*
X96850000Y-83900000D02*
X91150000Y-83900000D01*
X96850000Y-80700000D02*
X91150000Y-80700000D01*
X91150000Y-80700000D02*
X91150000Y-80950000D01*
X91150000Y-83900000D02*
X91150000Y-83650000D01*
X96850000Y-80700000D02*
X96850000Y-80950000D01*
D12*
%TO.C,SW6*%
X106500000Y-116150000D02*
X103850000Y-116150000D01*
X111500000Y-116150000D02*
X108500000Y-116150000D01*
X116150000Y-116150000D02*
X113500000Y-116150000D01*
X113500000Y-103850000D02*
X116150000Y-103850000D01*
X116150000Y-103850000D02*
X116150000Y-116150000D01*
X103850000Y-103850000D02*
X106500000Y-103850000D01*
X103850000Y-116150000D02*
X103850000Y-103850000D01*
X108500000Y-103850000D02*
X111500000Y-103850000D01*
%TD*%
M02*
