M48
; DRILL file {KiCad (6.0.1)} date Tue Jan 10 11:44:14 2023
; FORMAT={-:-/ absolute / metric / decimal}
; #@! TF.CreationDate,2023-01-10T11:44:14+09:00
; #@! TF.GenerationSoftware,Kicad,Pcbnew,(6.0.1)
; #@! TF.FileFunction,MixedPlating,1,2
FMAT,2
METRIC
; #@! TA.AperFunction,Plated,PTH,ViaDrill
T1C0.400
; #@! TA.AperFunction,Plated,PTH,ComponentDrill
T2C0.850
; #@! TA.AperFunction,Plated,PTH,ComponentDrill
T3C1.000
; #@! TA.AperFunction,Plated,PTH,ComponentDrill
T4C1.300
; #@! TA.AperFunction,NonPlated,NPTH,ComponentDrill
T5C1.800
; #@! TA.AperFunction,NonPlated,NPTH,ComponentDrill
T6C2.000
; #@! TA.AperFunction,NonPlated,NPTH,ComponentDrill
T7C2.100
; #@! TA.AperFunction,NonPlated,NPTH,ComponentDrill
T8C14.000
%
G90
G05
T1
X74.3Y-85.876
X76.1Y-86.6
X77.891Y-84.6
X99.1Y-101.2
X101.1Y-101.2
X103.1Y-101.2
X105.1Y-101.2
X218.0Y-92.0
X218.0Y-108.0
T2
X73.0Y-91.617
X73.0Y-107.781
X75.54Y-91.617
X75.54Y-107.781
X78.08Y-91.617
X78.08Y-107.781
X78.69Y-82.1
X80.62Y-91.617
X80.62Y-107.781
X81.23Y-82.1
X83.16Y-91.617
X83.16Y-107.781
X83.77Y-82.1
X85.7Y-91.617
X85.7Y-107.781
X86.31Y-82.1
X88.24Y-91.617
X88.24Y-107.781
X225.0Y-92.38
X225.0Y-94.92
X225.0Y-97.46
X225.0Y-100.0
X225.0Y-102.54
X225.0Y-105.08
X225.0Y-107.62
T3
X78.475Y-117.75
X81.015Y-117.75
X83.555Y-117.75
X88.92Y-117.75
X91.46Y-117.75
X94.0Y-117.75
X96.54Y-117.75
T4
X90.75Y-82.3
X97.25Y-82.3
X107.5Y-83.75
X107.5Y-96.25
X107.5Y-103.75
X107.5Y-116.25
X112.5Y-83.75
X112.5Y-96.25
X112.5Y-103.75
X112.5Y-116.25
X127.5Y-83.75
X127.5Y-96.25
X127.5Y-103.75
X127.5Y-116.25
X132.5Y-83.75
X132.5Y-96.25
X132.5Y-103.75
X132.5Y-116.25
X147.5Y-83.75
X147.5Y-96.25
X147.5Y-103.75
X147.5Y-116.25
X152.5Y-83.75
X152.5Y-96.25
X152.5Y-103.75
X152.5Y-116.25
T5
X105.5Y-90.0
X105.5Y-110.0
X114.5Y-90.0
X114.5Y-110.0
X125.5Y-90.0
X125.5Y-110.0
X134.5Y-90.0
X134.5Y-110.0
X145.5Y-90.0
X145.5Y-110.0
X154.5Y-90.0
X154.5Y-110.0
T6
X209.0Y-91.75
X209.0Y-108.25
T7
X73.0Y-83.0
X73.0Y-117.0
X101.0Y-83.0
X101.0Y-117.0
X150.0Y-100.0
X159.0Y-83.0
X159.0Y-117.0
X227.0Y-83.0
X227.0Y-117.0
T8
X199.0Y-100.0
T0
M30
