%TF.GenerationSoftware,KiCad,Pcbnew,(6.0.1)*%
%TF.CreationDate,2023-01-09T23:16:33+09:00*%
%TF.ProjectId,yuiopPD,7975696f-7050-4442-9e6b-696361645f70,1*%
%TF.SameCoordinates,Original*%
%TF.FileFunction,Soldermask,Bot*%
%TF.FilePolarity,Negative*%
%FSLAX46Y46*%
G04 Gerber Fmt 4.6, Leading zero omitted, Abs format (unit mm)*
G04 Created by KiCad (PCBNEW (6.0.1)) date 2023-01-09 23:16:33*
%MOMM*%
%LPD*%
G01*
G04 APERTURE LIST*
%ADD10C,2.100000*%
%ADD11C,1.524000*%
%ADD12O,1.850000X3.048000*%
%ADD13R,1.700000X1.700000*%
%ADD14O,1.700000X1.700000*%
%ADD15C,1.550000*%
%ADD16O,1.998980X2.748280*%
%ADD17C,14.000000*%
%ADD18C,4.200000*%
%ADD19C,2.000000*%
G04 APERTURE END LIST*
D10*
%TO.C,H2*%
X101000000Y-83000000D03*
%TD*%
%TO.C,H7*%
X101000000Y-117000000D03*
%TD*%
D11*
%TO.C,SW5*%
X134500000Y-110000000D03*
X125500000Y-110000000D03*
D12*
X132500000Y-103750000D03*
X132500000Y-116250000D03*
X127500000Y-116250000D03*
X127500000Y-103750000D03*
%TD*%
D13*
%TO.C,J2*%
X88920000Y-117750000D03*
D14*
X91460000Y-117750000D03*
X94000000Y-117750000D03*
X96540000Y-117750000D03*
%TD*%
D11*
%TO.C,SW3*%
X145500000Y-90000000D03*
X154500000Y-90000000D03*
D12*
X152500000Y-96250000D03*
X152500000Y-83750000D03*
X147500000Y-83750000D03*
X147500000Y-96250000D03*
%TD*%
D15*
%TO.C,J4*%
X86310000Y-82100000D03*
X83770000Y-82100000D03*
X81230000Y-82100000D03*
X78690000Y-82100000D03*
%TD*%
D10*
%TO.C,H5*%
X150000000Y-100000000D03*
%TD*%
%TO.C,H4*%
X227000000Y-83000000D03*
%TD*%
D11*
%TO.C,SW4*%
X154500000Y-110000000D03*
X145500000Y-110000000D03*
D12*
X152500000Y-103750000D03*
X152500000Y-116250000D03*
X147500000Y-116250000D03*
X147500000Y-103750000D03*
%TD*%
D10*
%TO.C,H9*%
X227000000Y-117000000D03*
%TD*%
D16*
%TO.C,U1*%
X73000490Y-107781290D03*
X75540490Y-107781290D03*
X78080490Y-107781290D03*
X80620490Y-107781290D03*
X83160490Y-107781290D03*
X85700490Y-107781290D03*
X88240490Y-107781290D03*
X88240490Y-91616730D03*
X85700490Y-91616730D03*
X83160490Y-91616730D03*
X80620490Y-91616730D03*
X78080490Y-91616730D03*
X75540490Y-91616730D03*
X73000490Y-91616730D03*
%TD*%
D10*
%TO.C,H3*%
X159000000Y-83000000D03*
%TD*%
D11*
%TO.C,SW2*%
X134500000Y-90000000D03*
X125500000Y-90000000D03*
D12*
X132500000Y-83750000D03*
X132500000Y-96250000D03*
X127500000Y-96250000D03*
X127500000Y-83750000D03*
%TD*%
D10*
%TO.C,H6*%
X73000000Y-117000000D03*
%TD*%
D11*
%TO.C,SW1*%
X114500000Y-90000000D03*
X105500000Y-90000000D03*
D12*
X112500000Y-83750000D03*
X112500000Y-96250000D03*
X107500000Y-83750000D03*
X107500000Y-96250000D03*
%TD*%
D13*
%TO.C,J3*%
X78475000Y-117750000D03*
D14*
X81015000Y-117750000D03*
X83555000Y-117750000D03*
%TD*%
D17*
%TO.C,J1*%
X199000000Y-100000000D03*
D18*
X209000000Y-108250000D03*
X209000000Y-91750000D03*
D13*
X225000000Y-107620000D03*
D14*
X225000000Y-105080000D03*
X225000000Y-102540000D03*
X225000000Y-100000000D03*
X225000000Y-97460000D03*
X225000000Y-94920000D03*
X225000000Y-92380000D03*
%TD*%
D10*
%TO.C,H8*%
X159000000Y-117000000D03*
%TD*%
D19*
%TO.C,RST1*%
X90750000Y-82300000D03*
X97250000Y-82300000D03*
%TD*%
D11*
%TO.C,SW6*%
X105500000Y-110000000D03*
X114500000Y-110000000D03*
D12*
X112500000Y-116250000D03*
X112500000Y-103750000D03*
X107500000Y-103750000D03*
X107500000Y-116250000D03*
%TD*%
D10*
%TO.C,H1*%
X73000000Y-83000000D03*
%TD*%
M02*
