%FSLAX45Y45*%
G04 Gerber Fmt 4.5, Leading zero omitted, Abs format (unit mm)*
G04 Created by KiCad (PCBNEW (6.0.1)) date 2023-01-09 23:16:56*
%MOMM*%
%LPD*%
G01*
G04 APERTURE LIST*
%TA.AperFunction,Profile*%
%ADD10C,0.100000*%
%TD*%
%ADD11C,0.200000*%
%ADD12C,0.040000*%
%ADD13C,0.085000*%
%ADD14C,0.100000*%
%ADD15C,0.130000*%
%ADD16C,0.180000*%
%ADD17C,0.210000*%
%ADD18C,1.400000*%
G04 APERTURE END LIST*
D10*
X22700000Y-12000000D02*
X7300000Y-12000000D01*
X23000000Y-8300000D02*
X23000000Y-11700000D01*
X7000000Y-11700000D02*
X7000000Y-8300000D01*
X7000000Y-11700000D02*
G75*
G03*
X7300000Y-12000000I300000J0D01*
G01*
X22700000Y-12000000D02*
G75*
G03*
X23000000Y-11700000I0J300000D01*
G01*
X23000000Y-8300000D02*
G75*
G03*
X22700000Y-8000000I-300000J0D01*
G01*
X7300000Y-8000000D02*
X22700000Y-8000000D01*
X7300000Y-8000000D02*
G75*
G03*
X7000000Y-8300000I0J-300000D01*
G01*
D11*
D12*
X7410000Y-8567550D02*
X7450000Y-8607550D01*
X7450000Y-8567550D02*
X7410000Y-8607550D01*
X7590000Y-8640000D02*
X7630000Y-8680000D01*
X7630000Y-8640000D02*
X7590000Y-8680000D01*
X7769050Y-8440000D02*
X7809050Y-8480000D01*
X7809050Y-8440000D02*
X7769050Y-8480000D01*
X9890000Y-10100000D02*
X9930000Y-10140000D01*
X9930000Y-10100000D02*
X9890000Y-10140000D01*
X10090000Y-10100000D02*
X10130000Y-10140000D01*
X10130000Y-10100000D02*
X10090000Y-10140000D01*
X10290000Y-10100000D02*
X10330000Y-10140000D01*
X10330000Y-10100000D02*
X10290000Y-10140000D01*
X10490000Y-10100000D02*
X10530000Y-10140000D01*
X10530000Y-10100000D02*
X10490000Y-10140000D01*
X21780000Y-9180000D02*
X21820000Y-9220000D01*
X21820000Y-9180000D02*
X21780000Y-9220000D01*
X21780000Y-10780000D02*
X21820000Y-10820000D01*
X21820000Y-10780000D02*
X21780000Y-10820000D01*
D13*
X7342549Y-9161673D02*
G75*
G03*
X7342549Y-9161673I-42500J0D01*
G01*
X7342549Y-10778129D02*
G75*
G03*
X7342549Y-10778129I-42500J0D01*
G01*
X7596549Y-9161673D02*
G75*
G03*
X7596549Y-9161673I-42500J0D01*
G01*
X7596549Y-10778129D02*
G75*
G03*
X7596549Y-10778129I-42500J0D01*
G01*
X7850549Y-9161673D02*
G75*
G03*
X7850549Y-9161673I-42500J0D01*
G01*
X7850549Y-10778129D02*
G75*
G03*
X7850549Y-10778129I-42500J0D01*
G01*
X7911500Y-8210000D02*
G75*
G03*
X7911500Y-8210000I-42500J0D01*
G01*
X8104549Y-9161673D02*
G75*
G03*
X8104549Y-9161673I-42500J0D01*
G01*
X8104549Y-10778129D02*
G75*
G03*
X8104549Y-10778129I-42500J0D01*
G01*
X8165500Y-8210000D02*
G75*
G03*
X8165500Y-8210000I-42500J0D01*
G01*
X8358549Y-9161673D02*
G75*
G03*
X8358549Y-9161673I-42500J0D01*
G01*
X8358549Y-10778129D02*
G75*
G03*
X8358549Y-10778129I-42500J0D01*
G01*
X8419500Y-8210000D02*
G75*
G03*
X8419500Y-8210000I-42500J0D01*
G01*
X8612549Y-9161673D02*
G75*
G03*
X8612549Y-9161673I-42500J0D01*
G01*
X8612549Y-10778129D02*
G75*
G03*
X8612549Y-10778129I-42500J0D01*
G01*
X8673500Y-8210000D02*
G75*
G03*
X8673500Y-8210000I-42500J0D01*
G01*
X8866549Y-9161673D02*
G75*
G03*
X8866549Y-9161673I-42500J0D01*
G01*
X8866549Y-10778129D02*
G75*
G03*
X8866549Y-10778129I-42500J0D01*
G01*
X22542500Y-9238000D02*
G75*
G03*
X22542500Y-9238000I-42500J0D01*
G01*
X22542500Y-9492000D02*
G75*
G03*
X22542500Y-9492000I-42500J0D01*
G01*
X22542500Y-9746000D02*
G75*
G03*
X22542500Y-9746000I-42500J0D01*
G01*
X22542500Y-10000000D02*
G75*
G03*
X22542500Y-10000000I-42500J0D01*
G01*
X22542500Y-10254000D02*
G75*
G03*
X22542500Y-10254000I-42500J0D01*
G01*
X22542500Y-10508000D02*
G75*
G03*
X22542500Y-10508000I-42500J0D01*
G01*
X22542500Y-10762000D02*
G75*
G03*
X22542500Y-10762000I-42500J0D01*
G01*
D14*
X7847500Y-11725000D02*
X7847500Y-11825000D01*
X7797500Y-11775000D02*
X7897500Y-11775000D01*
X8101500Y-11725000D02*
X8101500Y-11825000D01*
X8051500Y-11775000D02*
X8151500Y-11775000D01*
X8355500Y-11725000D02*
X8355500Y-11825000D01*
X8305500Y-11775000D02*
X8405500Y-11775000D01*
X8892000Y-11725000D02*
X8892000Y-11825000D01*
X8842000Y-11775000D02*
X8942000Y-11775000D01*
X9146000Y-11725000D02*
X9146000Y-11825000D01*
X9096000Y-11775000D02*
X9196000Y-11775000D01*
X9400000Y-11725000D02*
X9400000Y-11825000D01*
X9350000Y-11775000D02*
X9450000Y-11775000D01*
X9654000Y-11725000D02*
X9654000Y-11825000D01*
X9604000Y-11775000D02*
X9704000Y-11775000D01*
D15*
X9120962Y-8275962D02*
X9120962Y-8184038D01*
X9029038Y-8184038D01*
X9029038Y-8275962D01*
X9120962Y-8275962D01*
X9770962Y-8275962D02*
X9770962Y-8184038D01*
X9679038Y-8184038D01*
X9679038Y-8275962D01*
X9770962Y-8275962D01*
X10795962Y-8420962D02*
X10795962Y-8329038D01*
X10704038Y-8329038D01*
X10704038Y-8420962D01*
X10795962Y-8420962D01*
X10795962Y-9670962D02*
X10795962Y-9579038D01*
X10704038Y-9579038D01*
X10704038Y-9670962D01*
X10795962Y-9670962D01*
X10795962Y-10420962D02*
X10795962Y-10329038D01*
X10704038Y-10329038D01*
X10704038Y-10420962D01*
X10795962Y-10420962D01*
X10795962Y-11670962D02*
X10795962Y-11579038D01*
X10704038Y-11579038D01*
X10704038Y-11670962D01*
X10795962Y-11670962D01*
X11295962Y-8420962D02*
X11295962Y-8329038D01*
X11204038Y-8329038D01*
X11204038Y-8420962D01*
X11295962Y-8420962D01*
X11295962Y-9670962D02*
X11295962Y-9579038D01*
X11204038Y-9579038D01*
X11204038Y-9670962D01*
X11295962Y-9670962D01*
X11295962Y-10420962D02*
X11295962Y-10329038D01*
X11204038Y-10329038D01*
X11204038Y-10420962D01*
X11295962Y-10420962D01*
X11295962Y-11670962D02*
X11295962Y-11579038D01*
X11204038Y-11579038D01*
X11204038Y-11670962D01*
X11295962Y-11670962D01*
X12795962Y-8420962D02*
X12795962Y-8329038D01*
X12704038Y-8329038D01*
X12704038Y-8420962D01*
X12795962Y-8420962D01*
X12795962Y-9670962D02*
X12795962Y-9579038D01*
X12704038Y-9579038D01*
X12704038Y-9670962D01*
X12795962Y-9670962D01*
X12795962Y-10420962D02*
X12795962Y-10329038D01*
X12704038Y-10329038D01*
X12704038Y-10420962D01*
X12795962Y-10420962D01*
X12795962Y-11670962D02*
X12795962Y-11579038D01*
X12704038Y-11579038D01*
X12704038Y-11670962D01*
X12795962Y-11670962D01*
X13295962Y-8420962D02*
X13295962Y-8329038D01*
X13204038Y-8329038D01*
X13204038Y-8420962D01*
X13295962Y-8420962D01*
X13295962Y-9670962D02*
X13295962Y-9579038D01*
X13204038Y-9579038D01*
X13204038Y-9670962D01*
X13295962Y-9670962D01*
X13295962Y-10420962D02*
X13295962Y-10329038D01*
X13204038Y-10329038D01*
X13204038Y-10420962D01*
X13295962Y-10420962D01*
X13295962Y-11670962D02*
X13295962Y-11579038D01*
X13204038Y-11579038D01*
X13204038Y-11670962D01*
X13295962Y-11670962D01*
X14795962Y-8420962D02*
X14795962Y-8329038D01*
X14704038Y-8329038D01*
X14704038Y-8420962D01*
X14795962Y-8420962D01*
X14795962Y-9670962D02*
X14795962Y-9579038D01*
X14704038Y-9579038D01*
X14704038Y-9670962D01*
X14795962Y-9670962D01*
X14795962Y-10420962D02*
X14795962Y-10329038D01*
X14704038Y-10329038D01*
X14704038Y-10420962D01*
X14795962Y-10420962D01*
X14795962Y-11670962D02*
X14795962Y-11579038D01*
X14704038Y-11579038D01*
X14704038Y-11670962D01*
X14795962Y-11670962D01*
X15295962Y-8420962D02*
X15295962Y-8329038D01*
X15204038Y-8329038D01*
X15204038Y-8420962D01*
X15295962Y-8420962D01*
X15295962Y-9670962D02*
X15295962Y-9579038D01*
X15204038Y-9579038D01*
X15204038Y-9670962D01*
X15295962Y-9670962D01*
X15295962Y-10420962D02*
X15295962Y-10329038D01*
X15204038Y-10329038D01*
X15204038Y-10420962D01*
X15295962Y-10420962D01*
X15295962Y-11670962D02*
X15295962Y-11579038D01*
X15204038Y-11579038D01*
X15204038Y-11670962D01*
X15295962Y-11670962D01*
D16*
X10550000Y-9090000D02*
X10640000Y-9000000D01*
X10550000Y-8910000D01*
X10460000Y-9000000D01*
X10550000Y-9090000D01*
X10550000Y-11090000D02*
X10640000Y-11000000D01*
X10550000Y-10910000D01*
X10460000Y-11000000D01*
X10550000Y-11090000D01*
X11450000Y-9090000D02*
X11540000Y-9000000D01*
X11450000Y-8910000D01*
X11360000Y-9000000D01*
X11450000Y-9090000D01*
X11450000Y-11090000D02*
X11540000Y-11000000D01*
X11450000Y-10910000D01*
X11360000Y-11000000D01*
X11450000Y-11090000D01*
X12550000Y-9090000D02*
X12640000Y-9000000D01*
X12550000Y-8910000D01*
X12460000Y-9000000D01*
X12550000Y-9090000D01*
X12550000Y-11090000D02*
X12640000Y-11000000D01*
X12550000Y-10910000D01*
X12460000Y-11000000D01*
X12550000Y-11090000D01*
X13450000Y-9090000D02*
X13540000Y-9000000D01*
X13450000Y-8910000D01*
X13360000Y-9000000D01*
X13450000Y-9090000D01*
X13450000Y-11090000D02*
X13540000Y-11000000D01*
X13450000Y-10910000D01*
X13360000Y-11000000D01*
X13450000Y-11090000D01*
X14550000Y-9090000D02*
X14640000Y-9000000D01*
X14550000Y-8910000D01*
X14460000Y-9000000D01*
X14550000Y-9090000D01*
X14550000Y-11090000D02*
X14640000Y-11000000D01*
X14550000Y-10910000D01*
X14460000Y-11000000D01*
X14550000Y-11090000D01*
X15450000Y-9090000D02*
X15540000Y-9000000D01*
X15450000Y-8910000D01*
X15360000Y-9000000D01*
X15450000Y-9090000D01*
X15450000Y-11090000D02*
X15540000Y-11000000D01*
X15450000Y-10910000D01*
X15360000Y-11000000D01*
X15450000Y-11090000D01*
D11*
X20800000Y-9075000D02*
X21000000Y-9275000D01*
X21000000Y-9075000D02*
X20800000Y-9275000D01*
X21000000Y-9175000D02*
G75*
G03*
X21000000Y-9175000I-100000J0D01*
G01*
X20800000Y-10725000D02*
X21000000Y-10925000D01*
X21000000Y-10725000D02*
X20800000Y-10925000D01*
X21000000Y-10825000D02*
G75*
G03*
X21000000Y-10825000I-100000J0D01*
G01*
D17*
X7195000Y-8195000D02*
X7405000Y-8405000D01*
X7405000Y-8195000D02*
X7195000Y-8405000D01*
X7300000Y-8195000D02*
X7300000Y-8405000D01*
X7195000Y-8300000D02*
X7405000Y-8300000D01*
X7195000Y-11595000D02*
X7405000Y-11805000D01*
X7405000Y-11595000D02*
X7195000Y-11805000D01*
X7300000Y-11595000D02*
X7300000Y-11805000D01*
X7195000Y-11700000D02*
X7405000Y-11700000D01*
X9995000Y-8195000D02*
X10205000Y-8405000D01*
X10205000Y-8195000D02*
X9995000Y-8405000D01*
X10100000Y-8195000D02*
X10100000Y-8405000D01*
X9995000Y-8300000D02*
X10205000Y-8300000D01*
X9995000Y-11595000D02*
X10205000Y-11805000D01*
X10205000Y-11595000D02*
X9995000Y-11805000D01*
X10100000Y-11595000D02*
X10100000Y-11805000D01*
X9995000Y-11700000D02*
X10205000Y-11700000D01*
X14895000Y-9895000D02*
X15105000Y-10105000D01*
X15105000Y-9895000D02*
X14895000Y-10105000D01*
X15000000Y-9895000D02*
X15000000Y-10105000D01*
X14895000Y-10000000D02*
X15105000Y-10000000D01*
X15795000Y-8195000D02*
X16005000Y-8405000D01*
X16005000Y-8195000D02*
X15795000Y-8405000D01*
X15900000Y-8195000D02*
X15900000Y-8405000D01*
X15795000Y-8300000D02*
X16005000Y-8300000D01*
X15795000Y-11595000D02*
X16005000Y-11805000D01*
X16005000Y-11595000D02*
X15795000Y-11805000D01*
X15900000Y-11595000D02*
X15900000Y-11805000D01*
X15795000Y-11700000D02*
X16005000Y-11700000D01*
X22595000Y-8195000D02*
X22805000Y-8405000D01*
X22805000Y-8195000D02*
X22595000Y-8405000D01*
X22700000Y-8195000D02*
X22700000Y-8405000D01*
X22595000Y-8300000D02*
X22805000Y-8300000D01*
X22595000Y-11595000D02*
X22805000Y-11805000D01*
X22805000Y-11595000D02*
X22595000Y-11805000D01*
X22700000Y-11595000D02*
X22700000Y-11805000D01*
X22595000Y-11700000D02*
X22805000Y-11700000D01*
D18*
X19200000Y-9300000D02*
X20600000Y-10700000D01*
X20600000Y-9300000D02*
X19200000Y-10700000D01*
X20394980Y-10494980D02*
X20394980Y-9505021D01*
X19405021Y-9505021D01*
X19405021Y-10494980D01*
X20394980Y-10494980D01*
D11*
X7252619Y-12315476D02*
X7252619Y-12115476D01*
X7300238Y-12115476D01*
X7328809Y-12125000D01*
X7347857Y-12144048D01*
X7357381Y-12163095D01*
X7366905Y-12201190D01*
X7366905Y-12229762D01*
X7357381Y-12267857D01*
X7347857Y-12286905D01*
X7328809Y-12305952D01*
X7300238Y-12315476D01*
X7252619Y-12315476D01*
X7452619Y-12315476D02*
X7452619Y-12182143D01*
X7452619Y-12220238D02*
X7462143Y-12201190D01*
X7471667Y-12191667D01*
X7490714Y-12182143D01*
X7509762Y-12182143D01*
X7576428Y-12315476D02*
X7576428Y-12182143D01*
X7576428Y-12115476D02*
X7566905Y-12125000D01*
X7576428Y-12134524D01*
X7585952Y-12125000D01*
X7576428Y-12115476D01*
X7576428Y-12134524D01*
X7700238Y-12315476D02*
X7681190Y-12305952D01*
X7671667Y-12286905D01*
X7671667Y-12115476D01*
X7805000Y-12315476D02*
X7785952Y-12305952D01*
X7776428Y-12286905D01*
X7776428Y-12115476D01*
X8033571Y-12315476D02*
X8033571Y-12115476D01*
X8100238Y-12258333D01*
X8166905Y-12115476D01*
X8166905Y-12315476D01*
X8347857Y-12315476D02*
X8347857Y-12210714D01*
X8338333Y-12191667D01*
X8319286Y-12182143D01*
X8281190Y-12182143D01*
X8262143Y-12191667D01*
X8347857Y-12305952D02*
X8328809Y-12315476D01*
X8281190Y-12315476D01*
X8262143Y-12305952D01*
X8252619Y-12286905D01*
X8252619Y-12267857D01*
X8262143Y-12248809D01*
X8281190Y-12239286D01*
X8328809Y-12239286D01*
X8347857Y-12229762D01*
X8443095Y-12182143D02*
X8443095Y-12382143D01*
X8443095Y-12191667D02*
X8462143Y-12182143D01*
X8500238Y-12182143D01*
X8519286Y-12191667D01*
X8528810Y-12201190D01*
X8538333Y-12220238D01*
X8538333Y-12277381D01*
X8528810Y-12296428D01*
X8519286Y-12305952D01*
X8500238Y-12315476D01*
X8462143Y-12315476D01*
X8443095Y-12305952D01*
X8624048Y-12296428D02*
X8633571Y-12305952D01*
X8624048Y-12315476D01*
X8614524Y-12305952D01*
X8624048Y-12296428D01*
X8624048Y-12315476D01*
X8624048Y-12191667D02*
X8633571Y-12201190D01*
X8624048Y-12210714D01*
X8614524Y-12201190D01*
X8624048Y-12191667D01*
X8624048Y-12210714D01*
D12*
X6955000Y-12625000D02*
X6995000Y-12665000D01*
X6995000Y-12625000D02*
X6955000Y-12665000D01*
D11*
X7290714Y-12535476D02*
X7309762Y-12535476D01*
X7328809Y-12545000D01*
X7338333Y-12554524D01*
X7347857Y-12573571D01*
X7357381Y-12611667D01*
X7357381Y-12659286D01*
X7347857Y-12697381D01*
X7338333Y-12716428D01*
X7328809Y-12725952D01*
X7309762Y-12735476D01*
X7290714Y-12735476D01*
X7271667Y-12725952D01*
X7262143Y-12716428D01*
X7252619Y-12697381D01*
X7243095Y-12659286D01*
X7243095Y-12611667D01*
X7252619Y-12573571D01*
X7262143Y-12554524D01*
X7271667Y-12545000D01*
X7290714Y-12535476D01*
X7443095Y-12716428D02*
X7452619Y-12725952D01*
X7443095Y-12735476D01*
X7433571Y-12725952D01*
X7443095Y-12716428D01*
X7443095Y-12735476D01*
X7624048Y-12602143D02*
X7624048Y-12735476D01*
X7576428Y-12525952D02*
X7528809Y-12668809D01*
X7652619Y-12668809D01*
X7766905Y-12535476D02*
X7785952Y-12535476D01*
X7805000Y-12545000D01*
X7814524Y-12554524D01*
X7824048Y-12573571D01*
X7833571Y-12611667D01*
X7833571Y-12659286D01*
X7824048Y-12697381D01*
X7814524Y-12716428D01*
X7805000Y-12725952D01*
X7785952Y-12735476D01*
X7766905Y-12735476D01*
X7747857Y-12725952D01*
X7738333Y-12716428D01*
X7728809Y-12697381D01*
X7719286Y-12659286D01*
X7719286Y-12611667D01*
X7728809Y-12573571D01*
X7738333Y-12554524D01*
X7747857Y-12545000D01*
X7766905Y-12535476D01*
X7957381Y-12535476D02*
X7976428Y-12535476D01*
X7995476Y-12545000D01*
X8005000Y-12554524D01*
X8014524Y-12573571D01*
X8024048Y-12611667D01*
X8024048Y-12659286D01*
X8014524Y-12697381D01*
X8005000Y-12716428D01*
X7995476Y-12725952D01*
X7976428Y-12735476D01*
X7957381Y-12735476D01*
X7938333Y-12725952D01*
X7928809Y-12716428D01*
X7919286Y-12697381D01*
X7909762Y-12659286D01*
X7909762Y-12611667D01*
X7919286Y-12573571D01*
X7928809Y-12554524D01*
X7938333Y-12545000D01*
X7957381Y-12535476D01*
X8109762Y-12735476D02*
X8109762Y-12602143D01*
X8109762Y-12621190D02*
X8119286Y-12611667D01*
X8138333Y-12602143D01*
X8166905Y-12602143D01*
X8185952Y-12611667D01*
X8195476Y-12630714D01*
X8195476Y-12735476D01*
X8195476Y-12630714D02*
X8205000Y-12611667D01*
X8224048Y-12602143D01*
X8252619Y-12602143D01*
X8271667Y-12611667D01*
X8281190Y-12630714D01*
X8281190Y-12735476D01*
X8376428Y-12735476D02*
X8376428Y-12602143D01*
X8376428Y-12621190D02*
X8385952Y-12611667D01*
X8405000Y-12602143D01*
X8433571Y-12602143D01*
X8452619Y-12611667D01*
X8462143Y-12630714D01*
X8462143Y-12735476D01*
X8462143Y-12630714D02*
X8471667Y-12611667D01*
X8490714Y-12602143D01*
X8519286Y-12602143D01*
X8538333Y-12611667D01*
X8547857Y-12630714D01*
X8547857Y-12735476D01*
X8938333Y-12525952D02*
X8766905Y-12783095D01*
X9195476Y-12535476D02*
X9214524Y-12535476D01*
X9233571Y-12545000D01*
X9243095Y-12554524D01*
X9252619Y-12573571D01*
X9262143Y-12611667D01*
X9262143Y-12659286D01*
X9252619Y-12697381D01*
X9243095Y-12716428D01*
X9233571Y-12725952D01*
X9214524Y-12735476D01*
X9195476Y-12735476D01*
X9176429Y-12725952D01*
X9166905Y-12716428D01*
X9157381Y-12697381D01*
X9147857Y-12659286D01*
X9147857Y-12611667D01*
X9157381Y-12573571D01*
X9166905Y-12554524D01*
X9176429Y-12545000D01*
X9195476Y-12535476D01*
X9347857Y-12716428D02*
X9357381Y-12725952D01*
X9347857Y-12735476D01*
X9338333Y-12725952D01*
X9347857Y-12716428D01*
X9347857Y-12735476D01*
X9481190Y-12535476D02*
X9500238Y-12535476D01*
X9519286Y-12545000D01*
X9528810Y-12554524D01*
X9538333Y-12573571D01*
X9547857Y-12611667D01*
X9547857Y-12659286D01*
X9538333Y-12697381D01*
X9528810Y-12716428D01*
X9519286Y-12725952D01*
X9500238Y-12735476D01*
X9481190Y-12735476D01*
X9462143Y-12725952D01*
X9452619Y-12716428D01*
X9443095Y-12697381D01*
X9433571Y-12659286D01*
X9433571Y-12611667D01*
X9443095Y-12573571D01*
X9452619Y-12554524D01*
X9462143Y-12545000D01*
X9481190Y-12535476D01*
X9738333Y-12735476D02*
X9624048Y-12735476D01*
X9681190Y-12735476D02*
X9681190Y-12535476D01*
X9662143Y-12564048D01*
X9643095Y-12583095D01*
X9624048Y-12592619D01*
X9919286Y-12535476D02*
X9824048Y-12535476D01*
X9814524Y-12630714D01*
X9824048Y-12621190D01*
X9843095Y-12611667D01*
X9890714Y-12611667D01*
X9909762Y-12621190D01*
X9919286Y-12630714D01*
X9928810Y-12649762D01*
X9928810Y-12697381D01*
X9919286Y-12716428D01*
X9909762Y-12725952D01*
X9890714Y-12735476D01*
X9843095Y-12735476D01*
X9824048Y-12725952D01*
X9814524Y-12716428D01*
X9995476Y-12535476D02*
X10128810Y-12535476D01*
X10043095Y-12735476D01*
X10195476Y-12535476D02*
X10195476Y-12573571D01*
X10271667Y-12535476D02*
X10271667Y-12573571D01*
X10566905Y-12811667D02*
X10557381Y-12802143D01*
X10538333Y-12773571D01*
X10528810Y-12754524D01*
X10519286Y-12725952D01*
X10509762Y-12678333D01*
X10509762Y-12640238D01*
X10519286Y-12592619D01*
X10528810Y-12564048D01*
X10538333Y-12545000D01*
X10557381Y-12516428D01*
X10566905Y-12506905D01*
X10652619Y-12735476D02*
X10690714Y-12735476D01*
X10709762Y-12725952D01*
X10719286Y-12716428D01*
X10738333Y-12687857D01*
X10747857Y-12649762D01*
X10747857Y-12573571D01*
X10738333Y-12554524D01*
X10728810Y-12545000D01*
X10709762Y-12535476D01*
X10671667Y-12535476D01*
X10652619Y-12545000D01*
X10643095Y-12554524D01*
X10633571Y-12573571D01*
X10633571Y-12621190D01*
X10643095Y-12640238D01*
X10652619Y-12649762D01*
X10671667Y-12659286D01*
X10709762Y-12659286D01*
X10728810Y-12649762D01*
X10738333Y-12640238D01*
X10747857Y-12621190D01*
X10985952Y-12735476D02*
X10985952Y-12535476D01*
X11071667Y-12735476D02*
X11071667Y-12630714D01*
X11062143Y-12611667D01*
X11043095Y-12602143D01*
X11014524Y-12602143D01*
X10995476Y-12611667D01*
X10985952Y-12621190D01*
X11195476Y-12735476D02*
X11176429Y-12725952D01*
X11166905Y-12716428D01*
X11157381Y-12697381D01*
X11157381Y-12640238D01*
X11166905Y-12621190D01*
X11176429Y-12611667D01*
X11195476Y-12602143D01*
X11224048Y-12602143D01*
X11243095Y-12611667D01*
X11252619Y-12621190D01*
X11262143Y-12640238D01*
X11262143Y-12697381D01*
X11252619Y-12716428D01*
X11243095Y-12725952D01*
X11224048Y-12735476D01*
X11195476Y-12735476D01*
X11376428Y-12735476D02*
X11357381Y-12725952D01*
X11347857Y-12706905D01*
X11347857Y-12535476D01*
X11528809Y-12725952D02*
X11509762Y-12735476D01*
X11471667Y-12735476D01*
X11452619Y-12725952D01*
X11443095Y-12706905D01*
X11443095Y-12630714D01*
X11452619Y-12611667D01*
X11471667Y-12602143D01*
X11509762Y-12602143D01*
X11528809Y-12611667D01*
X11538333Y-12630714D01*
X11538333Y-12649762D01*
X11443095Y-12668809D01*
X11614524Y-12725952D02*
X11633571Y-12735476D01*
X11671667Y-12735476D01*
X11690714Y-12725952D01*
X11700238Y-12706905D01*
X11700238Y-12697381D01*
X11690714Y-12678333D01*
X11671667Y-12668809D01*
X11643095Y-12668809D01*
X11624048Y-12659286D01*
X11614524Y-12640238D01*
X11614524Y-12630714D01*
X11624048Y-12611667D01*
X11643095Y-12602143D01*
X11671667Y-12602143D01*
X11690714Y-12611667D01*
X11766905Y-12811667D02*
X11776428Y-12802143D01*
X11795476Y-12773571D01*
X11805000Y-12754524D01*
X11814524Y-12725952D01*
X11824048Y-12678333D01*
X11824048Y-12640238D01*
X11814524Y-12592619D01*
X11805000Y-12564048D01*
X11795476Y-12545000D01*
X11776428Y-12516428D01*
X11766905Y-12506905D01*
D13*
X6995000Y-12909000D02*
G75*
G03*
X6995000Y-12909000I-42500J0D01*
G01*
D11*
X7290714Y-12799476D02*
X7309762Y-12799476D01*
X7328809Y-12809000D01*
X7338333Y-12818524D01*
X7347857Y-12837571D01*
X7357381Y-12875667D01*
X7357381Y-12923286D01*
X7347857Y-12961381D01*
X7338333Y-12980428D01*
X7328809Y-12989952D01*
X7309762Y-12999476D01*
X7290714Y-12999476D01*
X7271667Y-12989952D01*
X7262143Y-12980428D01*
X7252619Y-12961381D01*
X7243095Y-12923286D01*
X7243095Y-12875667D01*
X7252619Y-12837571D01*
X7262143Y-12818524D01*
X7271667Y-12809000D01*
X7290714Y-12799476D01*
X7443095Y-12980428D02*
X7452619Y-12989952D01*
X7443095Y-12999476D01*
X7433571Y-12989952D01*
X7443095Y-12980428D01*
X7443095Y-12999476D01*
X7566905Y-12885190D02*
X7547857Y-12875667D01*
X7538333Y-12866143D01*
X7528809Y-12847095D01*
X7528809Y-12837571D01*
X7538333Y-12818524D01*
X7547857Y-12809000D01*
X7566905Y-12799476D01*
X7605000Y-12799476D01*
X7624048Y-12809000D01*
X7633571Y-12818524D01*
X7643095Y-12837571D01*
X7643095Y-12847095D01*
X7633571Y-12866143D01*
X7624048Y-12875667D01*
X7605000Y-12885190D01*
X7566905Y-12885190D01*
X7547857Y-12894714D01*
X7538333Y-12904238D01*
X7528809Y-12923286D01*
X7528809Y-12961381D01*
X7538333Y-12980428D01*
X7547857Y-12989952D01*
X7566905Y-12999476D01*
X7605000Y-12999476D01*
X7624048Y-12989952D01*
X7633571Y-12980428D01*
X7643095Y-12961381D01*
X7643095Y-12923286D01*
X7633571Y-12904238D01*
X7624048Y-12894714D01*
X7605000Y-12885190D01*
X7824048Y-12799476D02*
X7728809Y-12799476D01*
X7719286Y-12894714D01*
X7728809Y-12885190D01*
X7747857Y-12875667D01*
X7795476Y-12875667D01*
X7814524Y-12885190D01*
X7824048Y-12894714D01*
X7833571Y-12913762D01*
X7833571Y-12961381D01*
X7824048Y-12980428D01*
X7814524Y-12989952D01*
X7795476Y-12999476D01*
X7747857Y-12999476D01*
X7728809Y-12989952D01*
X7719286Y-12980428D01*
X7957381Y-12799476D02*
X7976428Y-12799476D01*
X7995476Y-12809000D01*
X8005000Y-12818524D01*
X8014524Y-12837571D01*
X8024048Y-12875667D01*
X8024048Y-12923286D01*
X8014524Y-12961381D01*
X8005000Y-12980428D01*
X7995476Y-12989952D01*
X7976428Y-12999476D01*
X7957381Y-12999476D01*
X7938333Y-12989952D01*
X7928809Y-12980428D01*
X7919286Y-12961381D01*
X7909762Y-12923286D01*
X7909762Y-12875667D01*
X7919286Y-12837571D01*
X7928809Y-12818524D01*
X7938333Y-12809000D01*
X7957381Y-12799476D01*
X8109762Y-12999476D02*
X8109762Y-12866143D01*
X8109762Y-12885190D02*
X8119286Y-12875667D01*
X8138333Y-12866143D01*
X8166905Y-12866143D01*
X8185952Y-12875667D01*
X8195476Y-12894714D01*
X8195476Y-12999476D01*
X8195476Y-12894714D02*
X8205000Y-12875667D01*
X8224048Y-12866143D01*
X8252619Y-12866143D01*
X8271667Y-12875667D01*
X8281190Y-12894714D01*
X8281190Y-12999476D01*
X8376428Y-12999476D02*
X8376428Y-12866143D01*
X8376428Y-12885190D02*
X8385952Y-12875667D01*
X8405000Y-12866143D01*
X8433571Y-12866143D01*
X8452619Y-12875667D01*
X8462143Y-12894714D01*
X8462143Y-12999476D01*
X8462143Y-12894714D02*
X8471667Y-12875667D01*
X8490714Y-12866143D01*
X8519286Y-12866143D01*
X8538333Y-12875667D01*
X8547857Y-12894714D01*
X8547857Y-12999476D01*
X8938333Y-12789952D02*
X8766905Y-13047095D01*
X9195476Y-12799476D02*
X9214524Y-12799476D01*
X9233571Y-12809000D01*
X9243095Y-12818524D01*
X9252619Y-12837571D01*
X9262143Y-12875667D01*
X9262143Y-12923286D01*
X9252619Y-12961381D01*
X9243095Y-12980428D01*
X9233571Y-12989952D01*
X9214524Y-12999476D01*
X9195476Y-12999476D01*
X9176429Y-12989952D01*
X9166905Y-12980428D01*
X9157381Y-12961381D01*
X9147857Y-12923286D01*
X9147857Y-12875667D01*
X9157381Y-12837571D01*
X9166905Y-12818524D01*
X9176429Y-12809000D01*
X9195476Y-12799476D01*
X9347857Y-12980428D02*
X9357381Y-12989952D01*
X9347857Y-12999476D01*
X9338333Y-12989952D01*
X9347857Y-12980428D01*
X9347857Y-12999476D01*
X9481190Y-12799476D02*
X9500238Y-12799476D01*
X9519286Y-12809000D01*
X9528810Y-12818524D01*
X9538333Y-12837571D01*
X9547857Y-12875667D01*
X9547857Y-12923286D01*
X9538333Y-12961381D01*
X9528810Y-12980428D01*
X9519286Y-12989952D01*
X9500238Y-12999476D01*
X9481190Y-12999476D01*
X9462143Y-12989952D01*
X9452619Y-12980428D01*
X9443095Y-12961381D01*
X9433571Y-12923286D01*
X9433571Y-12875667D01*
X9443095Y-12837571D01*
X9452619Y-12818524D01*
X9462143Y-12809000D01*
X9481190Y-12799476D01*
X9614524Y-12799476D02*
X9738333Y-12799476D01*
X9671667Y-12875667D01*
X9700238Y-12875667D01*
X9719286Y-12885190D01*
X9728810Y-12894714D01*
X9738333Y-12913762D01*
X9738333Y-12961381D01*
X9728810Y-12980428D01*
X9719286Y-12989952D01*
X9700238Y-12999476D01*
X9643095Y-12999476D01*
X9624048Y-12989952D01*
X9614524Y-12980428D01*
X9805000Y-12799476D02*
X9928810Y-12799476D01*
X9862143Y-12875667D01*
X9890714Y-12875667D01*
X9909762Y-12885190D01*
X9919286Y-12894714D01*
X9928810Y-12913762D01*
X9928810Y-12961381D01*
X9919286Y-12980428D01*
X9909762Y-12989952D01*
X9890714Y-12999476D01*
X9833571Y-12999476D01*
X9814524Y-12989952D01*
X9805000Y-12980428D01*
X10109762Y-12799476D02*
X10014524Y-12799476D01*
X10005000Y-12894714D01*
X10014524Y-12885190D01*
X10033571Y-12875667D01*
X10081190Y-12875667D01*
X10100238Y-12885190D01*
X10109762Y-12894714D01*
X10119286Y-12913762D01*
X10119286Y-12961381D01*
X10109762Y-12980428D01*
X10100238Y-12989952D01*
X10081190Y-12999476D01*
X10033571Y-12999476D01*
X10014524Y-12989952D01*
X10005000Y-12980428D01*
X10195476Y-12799476D02*
X10195476Y-12837571D01*
X10271667Y-12799476D02*
X10271667Y-12837571D01*
X10566905Y-13075667D02*
X10557381Y-13066143D01*
X10538333Y-13037571D01*
X10528810Y-13018524D01*
X10519286Y-12989952D01*
X10509762Y-12942333D01*
X10509762Y-12904238D01*
X10519286Y-12856619D01*
X10528810Y-12828048D01*
X10538333Y-12809000D01*
X10557381Y-12780428D01*
X10566905Y-12770905D01*
X10633571Y-12818524D02*
X10643095Y-12809000D01*
X10662143Y-12799476D01*
X10709762Y-12799476D01*
X10728810Y-12809000D01*
X10738333Y-12818524D01*
X10747857Y-12837571D01*
X10747857Y-12856619D01*
X10738333Y-12885190D01*
X10624048Y-12999476D01*
X10747857Y-12999476D01*
X10928810Y-12799476D02*
X10833571Y-12799476D01*
X10824048Y-12894714D01*
X10833571Y-12885190D01*
X10852619Y-12875667D01*
X10900238Y-12875667D01*
X10919286Y-12885190D01*
X10928810Y-12894714D01*
X10938333Y-12913762D01*
X10938333Y-12961381D01*
X10928810Y-12980428D01*
X10919286Y-12989952D01*
X10900238Y-12999476D01*
X10852619Y-12999476D01*
X10833571Y-12989952D01*
X10824048Y-12980428D01*
X11176429Y-12999476D02*
X11176429Y-12799476D01*
X11262143Y-12999476D02*
X11262143Y-12894714D01*
X11252619Y-12875667D01*
X11233571Y-12866143D01*
X11205000Y-12866143D01*
X11185952Y-12875667D01*
X11176429Y-12885190D01*
X11385952Y-12999476D02*
X11366905Y-12989952D01*
X11357381Y-12980428D01*
X11347857Y-12961381D01*
X11347857Y-12904238D01*
X11357381Y-12885190D01*
X11366905Y-12875667D01*
X11385952Y-12866143D01*
X11414524Y-12866143D01*
X11433571Y-12875667D01*
X11443095Y-12885190D01*
X11452619Y-12904238D01*
X11452619Y-12961381D01*
X11443095Y-12980428D01*
X11433571Y-12989952D01*
X11414524Y-12999476D01*
X11385952Y-12999476D01*
X11566905Y-12999476D02*
X11547857Y-12989952D01*
X11538333Y-12970905D01*
X11538333Y-12799476D01*
X11719286Y-12989952D02*
X11700238Y-12999476D01*
X11662143Y-12999476D01*
X11643095Y-12989952D01*
X11633571Y-12970905D01*
X11633571Y-12894714D01*
X11643095Y-12875667D01*
X11662143Y-12866143D01*
X11700238Y-12866143D01*
X11719286Y-12875667D01*
X11728809Y-12894714D01*
X11728809Y-12913762D01*
X11633571Y-12932809D01*
X11805000Y-12989952D02*
X11824048Y-12999476D01*
X11862143Y-12999476D01*
X11881190Y-12989952D01*
X11890714Y-12970905D01*
X11890714Y-12961381D01*
X11881190Y-12942333D01*
X11862143Y-12932809D01*
X11833571Y-12932809D01*
X11814524Y-12923286D01*
X11805000Y-12904238D01*
X11805000Y-12894714D01*
X11814524Y-12875667D01*
X11833571Y-12866143D01*
X11862143Y-12866143D01*
X11881190Y-12875667D01*
X11957381Y-13075667D02*
X11966905Y-13066143D01*
X11985952Y-13037571D01*
X11995476Y-13018524D01*
X12005000Y-12989952D01*
X12014524Y-12942333D01*
X12014524Y-12904238D01*
X12005000Y-12856619D01*
X11995476Y-12828048D01*
X11985952Y-12809000D01*
X11966905Y-12780428D01*
X11957381Y-12770905D01*
D14*
X6945000Y-13123000D02*
X6945000Y-13223000D01*
X6895000Y-13173000D02*
X6995000Y-13173000D01*
D11*
X7357381Y-13263476D02*
X7243095Y-13263476D01*
X7300238Y-13263476D02*
X7300238Y-13063476D01*
X7281190Y-13092048D01*
X7262143Y-13111095D01*
X7243095Y-13120619D01*
X7443095Y-13244428D02*
X7452619Y-13253952D01*
X7443095Y-13263476D01*
X7433571Y-13253952D01*
X7443095Y-13244428D01*
X7443095Y-13263476D01*
X7576428Y-13063476D02*
X7595476Y-13063476D01*
X7614524Y-13073000D01*
X7624048Y-13082524D01*
X7633571Y-13101571D01*
X7643095Y-13139667D01*
X7643095Y-13187286D01*
X7633571Y-13225381D01*
X7624048Y-13244428D01*
X7614524Y-13253952D01*
X7595476Y-13263476D01*
X7576428Y-13263476D01*
X7557381Y-13253952D01*
X7547857Y-13244428D01*
X7538333Y-13225381D01*
X7528809Y-13187286D01*
X7528809Y-13139667D01*
X7538333Y-13101571D01*
X7547857Y-13082524D01*
X7557381Y-13073000D01*
X7576428Y-13063476D01*
X7766905Y-13063476D02*
X7785952Y-13063476D01*
X7805000Y-13073000D01*
X7814524Y-13082524D01*
X7824048Y-13101571D01*
X7833571Y-13139667D01*
X7833571Y-13187286D01*
X7824048Y-13225381D01*
X7814524Y-13244428D01*
X7805000Y-13253952D01*
X7785952Y-13263476D01*
X7766905Y-13263476D01*
X7747857Y-13253952D01*
X7738333Y-13244428D01*
X7728809Y-13225381D01*
X7719286Y-13187286D01*
X7719286Y-13139667D01*
X7728809Y-13101571D01*
X7738333Y-13082524D01*
X7747857Y-13073000D01*
X7766905Y-13063476D01*
X7957381Y-13063476D02*
X7976428Y-13063476D01*
X7995476Y-13073000D01*
X8005000Y-13082524D01*
X8014524Y-13101571D01*
X8024048Y-13139667D01*
X8024048Y-13187286D01*
X8014524Y-13225381D01*
X8005000Y-13244428D01*
X7995476Y-13253952D01*
X7976428Y-13263476D01*
X7957381Y-13263476D01*
X7938333Y-13253952D01*
X7928809Y-13244428D01*
X7919286Y-13225381D01*
X7909762Y-13187286D01*
X7909762Y-13139667D01*
X7919286Y-13101571D01*
X7928809Y-13082524D01*
X7938333Y-13073000D01*
X7957381Y-13063476D01*
X8109762Y-13263476D02*
X8109762Y-13130143D01*
X8109762Y-13149190D02*
X8119286Y-13139667D01*
X8138333Y-13130143D01*
X8166905Y-13130143D01*
X8185952Y-13139667D01*
X8195476Y-13158714D01*
X8195476Y-13263476D01*
X8195476Y-13158714D02*
X8205000Y-13139667D01*
X8224048Y-13130143D01*
X8252619Y-13130143D01*
X8271667Y-13139667D01*
X8281190Y-13158714D01*
X8281190Y-13263476D01*
X8376428Y-13263476D02*
X8376428Y-13130143D01*
X8376428Y-13149190D02*
X8385952Y-13139667D01*
X8405000Y-13130143D01*
X8433571Y-13130143D01*
X8452619Y-13139667D01*
X8462143Y-13158714D01*
X8462143Y-13263476D01*
X8462143Y-13158714D02*
X8471667Y-13139667D01*
X8490714Y-13130143D01*
X8519286Y-13130143D01*
X8538333Y-13139667D01*
X8547857Y-13158714D01*
X8547857Y-13263476D01*
X8938333Y-13053952D02*
X8766905Y-13311095D01*
X9195476Y-13063476D02*
X9214524Y-13063476D01*
X9233571Y-13073000D01*
X9243095Y-13082524D01*
X9252619Y-13101571D01*
X9262143Y-13139667D01*
X9262143Y-13187286D01*
X9252619Y-13225381D01*
X9243095Y-13244428D01*
X9233571Y-13253952D01*
X9214524Y-13263476D01*
X9195476Y-13263476D01*
X9176429Y-13253952D01*
X9166905Y-13244428D01*
X9157381Y-13225381D01*
X9147857Y-13187286D01*
X9147857Y-13139667D01*
X9157381Y-13101571D01*
X9166905Y-13082524D01*
X9176429Y-13073000D01*
X9195476Y-13063476D01*
X9347857Y-13244428D02*
X9357381Y-13253952D01*
X9347857Y-13263476D01*
X9338333Y-13253952D01*
X9347857Y-13244428D01*
X9347857Y-13263476D01*
X9481190Y-13063476D02*
X9500238Y-13063476D01*
X9519286Y-13073000D01*
X9528810Y-13082524D01*
X9538333Y-13101571D01*
X9547857Y-13139667D01*
X9547857Y-13187286D01*
X9538333Y-13225381D01*
X9528810Y-13244428D01*
X9519286Y-13253952D01*
X9500238Y-13263476D01*
X9481190Y-13263476D01*
X9462143Y-13253952D01*
X9452619Y-13244428D01*
X9443095Y-13225381D01*
X9433571Y-13187286D01*
X9433571Y-13139667D01*
X9443095Y-13101571D01*
X9452619Y-13082524D01*
X9462143Y-13073000D01*
X9481190Y-13063476D01*
X9614524Y-13063476D02*
X9738333Y-13063476D01*
X9671667Y-13139667D01*
X9700238Y-13139667D01*
X9719286Y-13149190D01*
X9728810Y-13158714D01*
X9738333Y-13177762D01*
X9738333Y-13225381D01*
X9728810Y-13244428D01*
X9719286Y-13253952D01*
X9700238Y-13263476D01*
X9643095Y-13263476D01*
X9624048Y-13253952D01*
X9614524Y-13244428D01*
X9833571Y-13263476D02*
X9871667Y-13263476D01*
X9890714Y-13253952D01*
X9900238Y-13244428D01*
X9919286Y-13215857D01*
X9928810Y-13177762D01*
X9928810Y-13101571D01*
X9919286Y-13082524D01*
X9909762Y-13073000D01*
X9890714Y-13063476D01*
X9852619Y-13063476D01*
X9833571Y-13073000D01*
X9824048Y-13082524D01*
X9814524Y-13101571D01*
X9814524Y-13149190D01*
X9824048Y-13168238D01*
X9833571Y-13177762D01*
X9852619Y-13187286D01*
X9890714Y-13187286D01*
X9909762Y-13177762D01*
X9919286Y-13168238D01*
X9928810Y-13149190D01*
X10100238Y-13130143D02*
X10100238Y-13263476D01*
X10052619Y-13053952D02*
X10005000Y-13196809D01*
X10128810Y-13196809D01*
X10195476Y-13063476D02*
X10195476Y-13101571D01*
X10271667Y-13063476D02*
X10271667Y-13101571D01*
X10566905Y-13339667D02*
X10557381Y-13330143D01*
X10538333Y-13301571D01*
X10528810Y-13282524D01*
X10519286Y-13253952D01*
X10509762Y-13206333D01*
X10509762Y-13168238D01*
X10519286Y-13120619D01*
X10528810Y-13092048D01*
X10538333Y-13073000D01*
X10557381Y-13044428D01*
X10566905Y-13034905D01*
X10624048Y-13063476D02*
X10757381Y-13063476D01*
X10671667Y-13263476D01*
X10985952Y-13263476D02*
X10985952Y-13063476D01*
X11071667Y-13263476D02*
X11071667Y-13158714D01*
X11062143Y-13139667D01*
X11043095Y-13130143D01*
X11014524Y-13130143D01*
X10995476Y-13139667D01*
X10985952Y-13149190D01*
X11195476Y-13263476D02*
X11176429Y-13253952D01*
X11166905Y-13244428D01*
X11157381Y-13225381D01*
X11157381Y-13168238D01*
X11166905Y-13149190D01*
X11176429Y-13139667D01*
X11195476Y-13130143D01*
X11224048Y-13130143D01*
X11243095Y-13139667D01*
X11252619Y-13149190D01*
X11262143Y-13168238D01*
X11262143Y-13225381D01*
X11252619Y-13244428D01*
X11243095Y-13253952D01*
X11224048Y-13263476D01*
X11195476Y-13263476D01*
X11376428Y-13263476D02*
X11357381Y-13253952D01*
X11347857Y-13234905D01*
X11347857Y-13063476D01*
X11528809Y-13253952D02*
X11509762Y-13263476D01*
X11471667Y-13263476D01*
X11452619Y-13253952D01*
X11443095Y-13234905D01*
X11443095Y-13158714D01*
X11452619Y-13139667D01*
X11471667Y-13130143D01*
X11509762Y-13130143D01*
X11528809Y-13139667D01*
X11538333Y-13158714D01*
X11538333Y-13177762D01*
X11443095Y-13196809D01*
X11614524Y-13253952D02*
X11633571Y-13263476D01*
X11671667Y-13263476D01*
X11690714Y-13253952D01*
X11700238Y-13234905D01*
X11700238Y-13225381D01*
X11690714Y-13206333D01*
X11671667Y-13196809D01*
X11643095Y-13196809D01*
X11624048Y-13187286D01*
X11614524Y-13168238D01*
X11614524Y-13158714D01*
X11624048Y-13139667D01*
X11643095Y-13130143D01*
X11671667Y-13130143D01*
X11690714Y-13139667D01*
X11766905Y-13339667D02*
X11776428Y-13330143D01*
X11795476Y-13301571D01*
X11805000Y-13282524D01*
X11814524Y-13253952D01*
X11824048Y-13206333D01*
X11824048Y-13168238D01*
X11814524Y-13120619D01*
X11805000Y-13092048D01*
X11795476Y-13073000D01*
X11776428Y-13044428D01*
X11766905Y-13034905D01*
D15*
X6975962Y-13482962D02*
X6975962Y-13391038D01*
X6884038Y-13391038D01*
X6884038Y-13482962D01*
X6975962Y-13482962D01*
D11*
X7357381Y-13527476D02*
X7243095Y-13527476D01*
X7300238Y-13527476D02*
X7300238Y-13327476D01*
X7281190Y-13356048D01*
X7262143Y-13375095D01*
X7243095Y-13384619D01*
X7443095Y-13508428D02*
X7452619Y-13517952D01*
X7443095Y-13527476D01*
X7433571Y-13517952D01*
X7443095Y-13508428D01*
X7443095Y-13527476D01*
X7519286Y-13327476D02*
X7643095Y-13327476D01*
X7576428Y-13403667D01*
X7605000Y-13403667D01*
X7624048Y-13413190D01*
X7633571Y-13422714D01*
X7643095Y-13441762D01*
X7643095Y-13489381D01*
X7633571Y-13508428D01*
X7624048Y-13517952D01*
X7605000Y-13527476D01*
X7547857Y-13527476D01*
X7528809Y-13517952D01*
X7519286Y-13508428D01*
X7766905Y-13327476D02*
X7785952Y-13327476D01*
X7805000Y-13337000D01*
X7814524Y-13346524D01*
X7824048Y-13365571D01*
X7833571Y-13403667D01*
X7833571Y-13451286D01*
X7824048Y-13489381D01*
X7814524Y-13508428D01*
X7805000Y-13517952D01*
X7785952Y-13527476D01*
X7766905Y-13527476D01*
X7747857Y-13517952D01*
X7738333Y-13508428D01*
X7728809Y-13489381D01*
X7719286Y-13451286D01*
X7719286Y-13403667D01*
X7728809Y-13365571D01*
X7738333Y-13346524D01*
X7747857Y-13337000D01*
X7766905Y-13327476D01*
X7957381Y-13327476D02*
X7976428Y-13327476D01*
X7995476Y-13337000D01*
X8005000Y-13346524D01*
X8014524Y-13365571D01*
X8024048Y-13403667D01*
X8024048Y-13451286D01*
X8014524Y-13489381D01*
X8005000Y-13508428D01*
X7995476Y-13517952D01*
X7976428Y-13527476D01*
X7957381Y-13527476D01*
X7938333Y-13517952D01*
X7928809Y-13508428D01*
X7919286Y-13489381D01*
X7909762Y-13451286D01*
X7909762Y-13403667D01*
X7919286Y-13365571D01*
X7928809Y-13346524D01*
X7938333Y-13337000D01*
X7957381Y-13327476D01*
X8109762Y-13527476D02*
X8109762Y-13394143D01*
X8109762Y-13413190D02*
X8119286Y-13403667D01*
X8138333Y-13394143D01*
X8166905Y-13394143D01*
X8185952Y-13403667D01*
X8195476Y-13422714D01*
X8195476Y-13527476D01*
X8195476Y-13422714D02*
X8205000Y-13403667D01*
X8224048Y-13394143D01*
X8252619Y-13394143D01*
X8271667Y-13403667D01*
X8281190Y-13422714D01*
X8281190Y-13527476D01*
X8376428Y-13527476D02*
X8376428Y-13394143D01*
X8376428Y-13413190D02*
X8385952Y-13403667D01*
X8405000Y-13394143D01*
X8433571Y-13394143D01*
X8452619Y-13403667D01*
X8462143Y-13422714D01*
X8462143Y-13527476D01*
X8462143Y-13422714D02*
X8471667Y-13403667D01*
X8490714Y-13394143D01*
X8519286Y-13394143D01*
X8538333Y-13403667D01*
X8547857Y-13422714D01*
X8547857Y-13527476D01*
X8938333Y-13317952D02*
X8766905Y-13575095D01*
X9195476Y-13327476D02*
X9214524Y-13327476D01*
X9233571Y-13337000D01*
X9243095Y-13346524D01*
X9252619Y-13365571D01*
X9262143Y-13403667D01*
X9262143Y-13451286D01*
X9252619Y-13489381D01*
X9243095Y-13508428D01*
X9233571Y-13517952D01*
X9214524Y-13527476D01*
X9195476Y-13527476D01*
X9176429Y-13517952D01*
X9166905Y-13508428D01*
X9157381Y-13489381D01*
X9147857Y-13451286D01*
X9147857Y-13403667D01*
X9157381Y-13365571D01*
X9166905Y-13346524D01*
X9176429Y-13337000D01*
X9195476Y-13327476D01*
X9347857Y-13508428D02*
X9357381Y-13517952D01*
X9347857Y-13527476D01*
X9338333Y-13517952D01*
X9347857Y-13508428D01*
X9347857Y-13527476D01*
X9481190Y-13327476D02*
X9500238Y-13327476D01*
X9519286Y-13337000D01*
X9528810Y-13346524D01*
X9538333Y-13365571D01*
X9547857Y-13403667D01*
X9547857Y-13451286D01*
X9538333Y-13489381D01*
X9528810Y-13508428D01*
X9519286Y-13517952D01*
X9500238Y-13527476D01*
X9481190Y-13527476D01*
X9462143Y-13517952D01*
X9452619Y-13508428D01*
X9443095Y-13489381D01*
X9433571Y-13451286D01*
X9433571Y-13403667D01*
X9443095Y-13365571D01*
X9452619Y-13346524D01*
X9462143Y-13337000D01*
X9481190Y-13327476D01*
X9728810Y-13327476D02*
X9633571Y-13327476D01*
X9624048Y-13422714D01*
X9633571Y-13413190D01*
X9652619Y-13403667D01*
X9700238Y-13403667D01*
X9719286Y-13413190D01*
X9728810Y-13422714D01*
X9738333Y-13441762D01*
X9738333Y-13489381D01*
X9728810Y-13508428D01*
X9719286Y-13517952D01*
X9700238Y-13527476D01*
X9652619Y-13527476D01*
X9633571Y-13517952D01*
X9624048Y-13508428D01*
X9928810Y-13527476D02*
X9814524Y-13527476D01*
X9871667Y-13527476D02*
X9871667Y-13327476D01*
X9852619Y-13356048D01*
X9833571Y-13375095D01*
X9814524Y-13384619D01*
X10005000Y-13346524D02*
X10014524Y-13337000D01*
X10033571Y-13327476D01*
X10081190Y-13327476D01*
X10100238Y-13337000D01*
X10109762Y-13346524D01*
X10119286Y-13365571D01*
X10119286Y-13384619D01*
X10109762Y-13413190D01*
X9995476Y-13527476D01*
X10119286Y-13527476D01*
X10195476Y-13327476D02*
X10195476Y-13365571D01*
X10271667Y-13327476D02*
X10271667Y-13365571D01*
X10566905Y-13603667D02*
X10557381Y-13594143D01*
X10538333Y-13565571D01*
X10528810Y-13546524D01*
X10519286Y-13517952D01*
X10509762Y-13470333D01*
X10509762Y-13432238D01*
X10519286Y-13384619D01*
X10528810Y-13356048D01*
X10538333Y-13337000D01*
X10557381Y-13308428D01*
X10566905Y-13298905D01*
X10633571Y-13346524D02*
X10643095Y-13337000D01*
X10662143Y-13327476D01*
X10709762Y-13327476D01*
X10728810Y-13337000D01*
X10738333Y-13346524D01*
X10747857Y-13365571D01*
X10747857Y-13384619D01*
X10738333Y-13413190D01*
X10624048Y-13527476D01*
X10747857Y-13527476D01*
X10919286Y-13327476D02*
X10881190Y-13327476D01*
X10862143Y-13337000D01*
X10852619Y-13346524D01*
X10833571Y-13375095D01*
X10824048Y-13413190D01*
X10824048Y-13489381D01*
X10833571Y-13508428D01*
X10843095Y-13517952D01*
X10862143Y-13527476D01*
X10900238Y-13527476D01*
X10919286Y-13517952D01*
X10928810Y-13508428D01*
X10938333Y-13489381D01*
X10938333Y-13441762D01*
X10928810Y-13422714D01*
X10919286Y-13413190D01*
X10900238Y-13403667D01*
X10862143Y-13403667D01*
X10843095Y-13413190D01*
X10833571Y-13422714D01*
X10824048Y-13441762D01*
X11176429Y-13527476D02*
X11176429Y-13327476D01*
X11262143Y-13527476D02*
X11262143Y-13422714D01*
X11252619Y-13403667D01*
X11233571Y-13394143D01*
X11205000Y-13394143D01*
X11185952Y-13403667D01*
X11176429Y-13413190D01*
X11385952Y-13527476D02*
X11366905Y-13517952D01*
X11357381Y-13508428D01*
X11347857Y-13489381D01*
X11347857Y-13432238D01*
X11357381Y-13413190D01*
X11366905Y-13403667D01*
X11385952Y-13394143D01*
X11414524Y-13394143D01*
X11433571Y-13403667D01*
X11443095Y-13413190D01*
X11452619Y-13432238D01*
X11452619Y-13489381D01*
X11443095Y-13508428D01*
X11433571Y-13517952D01*
X11414524Y-13527476D01*
X11385952Y-13527476D01*
X11566905Y-13527476D02*
X11547857Y-13517952D01*
X11538333Y-13498905D01*
X11538333Y-13327476D01*
X11719286Y-13517952D02*
X11700238Y-13527476D01*
X11662143Y-13527476D01*
X11643095Y-13517952D01*
X11633571Y-13498905D01*
X11633571Y-13422714D01*
X11643095Y-13403667D01*
X11662143Y-13394143D01*
X11700238Y-13394143D01*
X11719286Y-13403667D01*
X11728809Y-13422714D01*
X11728809Y-13441762D01*
X11633571Y-13460809D01*
X11805000Y-13517952D02*
X11824048Y-13527476D01*
X11862143Y-13527476D01*
X11881190Y-13517952D01*
X11890714Y-13498905D01*
X11890714Y-13489381D01*
X11881190Y-13470333D01*
X11862143Y-13460809D01*
X11833571Y-13460809D01*
X11814524Y-13451286D01*
X11805000Y-13432238D01*
X11805000Y-13422714D01*
X11814524Y-13403667D01*
X11833571Y-13394143D01*
X11862143Y-13394143D01*
X11881190Y-13403667D01*
X11957381Y-13603667D02*
X11966905Y-13594143D01*
X11985952Y-13565571D01*
X11995476Y-13546524D01*
X12005000Y-13517952D01*
X12014524Y-13470333D01*
X12014524Y-13432238D01*
X12005000Y-13384619D01*
X11995476Y-13356048D01*
X11985952Y-13337000D01*
X11966905Y-13308428D01*
X11957381Y-13298905D01*
D16*
X6905000Y-13791000D02*
X6995000Y-13701000D01*
X6905000Y-13611000D01*
X6815000Y-13701000D01*
X6905000Y-13791000D01*
D11*
X7357381Y-13791476D02*
X7243095Y-13791476D01*
X7300238Y-13791476D02*
X7300238Y-13591476D01*
X7281190Y-13620048D01*
X7262143Y-13639095D01*
X7243095Y-13648619D01*
X7443095Y-13772428D02*
X7452619Y-13781952D01*
X7443095Y-13791476D01*
X7433571Y-13781952D01*
X7443095Y-13772428D01*
X7443095Y-13791476D01*
X7566905Y-13677190D02*
X7547857Y-13667667D01*
X7538333Y-13658143D01*
X7528809Y-13639095D01*
X7528809Y-13629571D01*
X7538333Y-13610524D01*
X7547857Y-13601000D01*
X7566905Y-13591476D01*
X7605000Y-13591476D01*
X7624048Y-13601000D01*
X7633571Y-13610524D01*
X7643095Y-13629571D01*
X7643095Y-13639095D01*
X7633571Y-13658143D01*
X7624048Y-13667667D01*
X7605000Y-13677190D01*
X7566905Y-13677190D01*
X7547857Y-13686714D01*
X7538333Y-13696238D01*
X7528809Y-13715286D01*
X7528809Y-13753381D01*
X7538333Y-13772428D01*
X7547857Y-13781952D01*
X7566905Y-13791476D01*
X7605000Y-13791476D01*
X7624048Y-13781952D01*
X7633571Y-13772428D01*
X7643095Y-13753381D01*
X7643095Y-13715286D01*
X7633571Y-13696238D01*
X7624048Y-13686714D01*
X7605000Y-13677190D01*
X7766905Y-13591476D02*
X7785952Y-13591476D01*
X7805000Y-13601000D01*
X7814524Y-13610524D01*
X7824048Y-13629571D01*
X7833571Y-13667667D01*
X7833571Y-13715286D01*
X7824048Y-13753381D01*
X7814524Y-13772428D01*
X7805000Y-13781952D01*
X7785952Y-13791476D01*
X7766905Y-13791476D01*
X7747857Y-13781952D01*
X7738333Y-13772428D01*
X7728809Y-13753381D01*
X7719286Y-13715286D01*
X7719286Y-13667667D01*
X7728809Y-13629571D01*
X7738333Y-13610524D01*
X7747857Y-13601000D01*
X7766905Y-13591476D01*
X7957381Y-13591476D02*
X7976428Y-13591476D01*
X7995476Y-13601000D01*
X8005000Y-13610524D01*
X8014524Y-13629571D01*
X8024048Y-13667667D01*
X8024048Y-13715286D01*
X8014524Y-13753381D01*
X8005000Y-13772428D01*
X7995476Y-13781952D01*
X7976428Y-13791476D01*
X7957381Y-13791476D01*
X7938333Y-13781952D01*
X7928809Y-13772428D01*
X7919286Y-13753381D01*
X7909762Y-13715286D01*
X7909762Y-13667667D01*
X7919286Y-13629571D01*
X7928809Y-13610524D01*
X7938333Y-13601000D01*
X7957381Y-13591476D01*
X8109762Y-13791476D02*
X8109762Y-13658143D01*
X8109762Y-13677190D02*
X8119286Y-13667667D01*
X8138333Y-13658143D01*
X8166905Y-13658143D01*
X8185952Y-13667667D01*
X8195476Y-13686714D01*
X8195476Y-13791476D01*
X8195476Y-13686714D02*
X8205000Y-13667667D01*
X8224048Y-13658143D01*
X8252619Y-13658143D01*
X8271667Y-13667667D01*
X8281190Y-13686714D01*
X8281190Y-13791476D01*
X8376428Y-13791476D02*
X8376428Y-13658143D01*
X8376428Y-13677190D02*
X8385952Y-13667667D01*
X8405000Y-13658143D01*
X8433571Y-13658143D01*
X8452619Y-13667667D01*
X8462143Y-13686714D01*
X8462143Y-13791476D01*
X8462143Y-13686714D02*
X8471667Y-13667667D01*
X8490714Y-13658143D01*
X8519286Y-13658143D01*
X8538333Y-13667667D01*
X8547857Y-13686714D01*
X8547857Y-13791476D01*
X8938333Y-13581952D02*
X8766905Y-13839095D01*
X9195476Y-13591476D02*
X9214524Y-13591476D01*
X9233571Y-13601000D01*
X9243095Y-13610524D01*
X9252619Y-13629571D01*
X9262143Y-13667667D01*
X9262143Y-13715286D01*
X9252619Y-13753381D01*
X9243095Y-13772428D01*
X9233571Y-13781952D01*
X9214524Y-13791476D01*
X9195476Y-13791476D01*
X9176429Y-13781952D01*
X9166905Y-13772428D01*
X9157381Y-13753381D01*
X9147857Y-13715286D01*
X9147857Y-13667667D01*
X9157381Y-13629571D01*
X9166905Y-13610524D01*
X9176429Y-13601000D01*
X9195476Y-13591476D01*
X9347857Y-13772428D02*
X9357381Y-13781952D01*
X9347857Y-13791476D01*
X9338333Y-13781952D01*
X9347857Y-13772428D01*
X9347857Y-13791476D01*
X9481190Y-13591476D02*
X9500238Y-13591476D01*
X9519286Y-13601000D01*
X9528810Y-13610524D01*
X9538333Y-13629571D01*
X9547857Y-13667667D01*
X9547857Y-13715286D01*
X9538333Y-13753381D01*
X9528810Y-13772428D01*
X9519286Y-13781952D01*
X9500238Y-13791476D01*
X9481190Y-13791476D01*
X9462143Y-13781952D01*
X9452619Y-13772428D01*
X9443095Y-13753381D01*
X9433571Y-13715286D01*
X9433571Y-13667667D01*
X9443095Y-13629571D01*
X9452619Y-13610524D01*
X9462143Y-13601000D01*
X9481190Y-13591476D01*
X9614524Y-13591476D02*
X9747857Y-13591476D01*
X9662143Y-13791476D01*
X9862143Y-13591476D02*
X9881190Y-13591476D01*
X9900238Y-13601000D01*
X9909762Y-13610524D01*
X9919286Y-13629571D01*
X9928810Y-13667667D01*
X9928810Y-13715286D01*
X9919286Y-13753381D01*
X9909762Y-13772428D01*
X9900238Y-13781952D01*
X9881190Y-13791476D01*
X9862143Y-13791476D01*
X9843095Y-13781952D01*
X9833571Y-13772428D01*
X9824048Y-13753381D01*
X9814524Y-13715286D01*
X9814524Y-13667667D01*
X9824048Y-13629571D01*
X9833571Y-13610524D01*
X9843095Y-13601000D01*
X9862143Y-13591476D01*
X10024048Y-13791476D02*
X10062143Y-13791476D01*
X10081190Y-13781952D01*
X10090714Y-13772428D01*
X10109762Y-13743857D01*
X10119286Y-13705762D01*
X10119286Y-13629571D01*
X10109762Y-13610524D01*
X10100238Y-13601000D01*
X10081190Y-13591476D01*
X10043095Y-13591476D01*
X10024048Y-13601000D01*
X10014524Y-13610524D01*
X10005000Y-13629571D01*
X10005000Y-13677190D01*
X10014524Y-13696238D01*
X10024048Y-13705762D01*
X10043095Y-13715286D01*
X10081190Y-13715286D01*
X10100238Y-13705762D01*
X10109762Y-13696238D01*
X10119286Y-13677190D01*
X10195476Y-13591476D02*
X10195476Y-13629571D01*
X10271667Y-13591476D02*
X10271667Y-13629571D01*
X10566905Y-13867667D02*
X10557381Y-13858143D01*
X10538333Y-13829571D01*
X10528810Y-13810524D01*
X10519286Y-13781952D01*
X10509762Y-13734333D01*
X10509762Y-13696238D01*
X10519286Y-13648619D01*
X10528810Y-13620048D01*
X10538333Y-13601000D01*
X10557381Y-13572428D01*
X10566905Y-13562905D01*
X10747857Y-13791476D02*
X10633571Y-13791476D01*
X10690714Y-13791476D02*
X10690714Y-13591476D01*
X10671667Y-13620048D01*
X10652619Y-13639095D01*
X10633571Y-13648619D01*
X10824048Y-13610524D02*
X10833571Y-13601000D01*
X10852619Y-13591476D01*
X10900238Y-13591476D01*
X10919286Y-13601000D01*
X10928810Y-13610524D01*
X10938333Y-13629571D01*
X10938333Y-13648619D01*
X10928810Y-13677190D01*
X10814524Y-13791476D01*
X10938333Y-13791476D01*
X11176429Y-13791476D02*
X11176429Y-13591476D01*
X11262143Y-13791476D02*
X11262143Y-13686714D01*
X11252619Y-13667667D01*
X11233571Y-13658143D01*
X11205000Y-13658143D01*
X11185952Y-13667667D01*
X11176429Y-13677190D01*
X11385952Y-13791476D02*
X11366905Y-13781952D01*
X11357381Y-13772428D01*
X11347857Y-13753381D01*
X11347857Y-13696238D01*
X11357381Y-13677190D01*
X11366905Y-13667667D01*
X11385952Y-13658143D01*
X11414524Y-13658143D01*
X11433571Y-13667667D01*
X11443095Y-13677190D01*
X11452619Y-13696238D01*
X11452619Y-13753381D01*
X11443095Y-13772428D01*
X11433571Y-13781952D01*
X11414524Y-13791476D01*
X11385952Y-13791476D01*
X11566905Y-13791476D02*
X11547857Y-13781952D01*
X11538333Y-13762905D01*
X11538333Y-13591476D01*
X11719286Y-13781952D02*
X11700238Y-13791476D01*
X11662143Y-13791476D01*
X11643095Y-13781952D01*
X11633571Y-13762905D01*
X11633571Y-13686714D01*
X11643095Y-13667667D01*
X11662143Y-13658143D01*
X11700238Y-13658143D01*
X11719286Y-13667667D01*
X11728809Y-13686714D01*
X11728809Y-13705762D01*
X11633571Y-13724809D01*
X11805000Y-13781952D02*
X11824048Y-13791476D01*
X11862143Y-13791476D01*
X11881190Y-13781952D01*
X11890714Y-13762905D01*
X11890714Y-13753381D01*
X11881190Y-13734333D01*
X11862143Y-13724809D01*
X11833571Y-13724809D01*
X11814524Y-13715286D01*
X11805000Y-13696238D01*
X11805000Y-13686714D01*
X11814524Y-13667667D01*
X11833571Y-13658143D01*
X11862143Y-13658143D01*
X11881190Y-13667667D01*
X11957381Y-13867667D02*
X11966905Y-13858143D01*
X11985952Y-13829571D01*
X11995476Y-13810524D01*
X12005000Y-13781952D01*
X12014524Y-13734333D01*
X12014524Y-13696238D01*
X12005000Y-13648619D01*
X11995476Y-13620048D01*
X11985952Y-13601000D01*
X11966905Y-13572428D01*
X11957381Y-13562905D01*
X12319286Y-13867667D02*
X12309762Y-13858143D01*
X12290714Y-13829571D01*
X12281190Y-13810524D01*
X12271667Y-13781952D01*
X12262143Y-13734333D01*
X12262143Y-13696238D01*
X12271667Y-13648619D01*
X12281190Y-13620048D01*
X12290714Y-13601000D01*
X12309762Y-13572428D01*
X12319286Y-13562905D01*
X12395476Y-13658143D02*
X12395476Y-13791476D01*
X12395476Y-13677190D02*
X12405000Y-13667667D01*
X12424048Y-13658143D01*
X12452619Y-13658143D01*
X12471667Y-13667667D01*
X12481190Y-13686714D01*
X12481190Y-13791476D01*
X12605000Y-13791476D02*
X12585952Y-13781952D01*
X12576428Y-13772428D01*
X12566905Y-13753381D01*
X12566905Y-13696238D01*
X12576428Y-13677190D01*
X12585952Y-13667667D01*
X12605000Y-13658143D01*
X12633571Y-13658143D01*
X12652619Y-13667667D01*
X12662143Y-13677190D01*
X12671667Y-13696238D01*
X12671667Y-13753381D01*
X12662143Y-13772428D01*
X12652619Y-13781952D01*
X12633571Y-13791476D01*
X12605000Y-13791476D01*
X12728809Y-13658143D02*
X12805000Y-13658143D01*
X12757381Y-13591476D02*
X12757381Y-13762905D01*
X12766905Y-13781952D01*
X12785952Y-13791476D01*
X12805000Y-13791476D01*
X13024048Y-13658143D02*
X13024048Y-13858143D01*
X13024048Y-13667667D02*
X13043095Y-13658143D01*
X13081190Y-13658143D01*
X13100238Y-13667667D01*
X13109762Y-13677190D01*
X13119286Y-13696238D01*
X13119286Y-13753381D01*
X13109762Y-13772428D01*
X13100238Y-13781952D01*
X13081190Y-13791476D01*
X13043095Y-13791476D01*
X13024048Y-13781952D01*
X13233571Y-13791476D02*
X13214524Y-13781952D01*
X13205000Y-13762905D01*
X13205000Y-13591476D01*
X13395476Y-13791476D02*
X13395476Y-13686714D01*
X13385952Y-13667667D01*
X13366905Y-13658143D01*
X13328809Y-13658143D01*
X13309762Y-13667667D01*
X13395476Y-13781952D02*
X13376428Y-13791476D01*
X13328809Y-13791476D01*
X13309762Y-13781952D01*
X13300238Y-13762905D01*
X13300238Y-13743857D01*
X13309762Y-13724809D01*
X13328809Y-13715286D01*
X13376428Y-13715286D01*
X13395476Y-13705762D01*
X13462143Y-13658143D02*
X13538333Y-13658143D01*
X13490714Y-13591476D02*
X13490714Y-13762905D01*
X13500238Y-13781952D01*
X13519286Y-13791476D01*
X13538333Y-13791476D01*
X13681190Y-13781952D02*
X13662143Y-13791476D01*
X13624048Y-13791476D01*
X13605000Y-13781952D01*
X13595476Y-13762905D01*
X13595476Y-13686714D01*
X13605000Y-13667667D01*
X13624048Y-13658143D01*
X13662143Y-13658143D01*
X13681190Y-13667667D01*
X13690714Y-13686714D01*
X13690714Y-13705762D01*
X13595476Y-13724809D01*
X13862143Y-13791476D02*
X13862143Y-13591476D01*
X13862143Y-13781952D02*
X13843095Y-13791476D01*
X13805000Y-13791476D01*
X13785952Y-13781952D01*
X13776428Y-13772428D01*
X13766905Y-13753381D01*
X13766905Y-13696238D01*
X13776428Y-13677190D01*
X13785952Y-13667667D01*
X13805000Y-13658143D01*
X13843095Y-13658143D01*
X13862143Y-13667667D01*
X13938333Y-13867667D02*
X13947857Y-13858143D01*
X13966905Y-13829571D01*
X13976428Y-13810524D01*
X13985952Y-13781952D01*
X13995476Y-13734333D01*
X13995476Y-13696238D01*
X13985952Y-13648619D01*
X13976428Y-13620048D01*
X13966905Y-13601000D01*
X13947857Y-13572428D01*
X13938333Y-13562905D01*
X6795000Y-13901000D02*
X6995000Y-14101000D01*
X6995000Y-13901000D02*
X6795000Y-14101000D01*
X6995000Y-14001000D02*
G75*
G03*
X6995000Y-14001000I-100000J0D01*
G01*
X7243095Y-13910524D02*
X7252619Y-13901000D01*
X7271667Y-13891476D01*
X7319286Y-13891476D01*
X7338333Y-13901000D01*
X7347857Y-13910524D01*
X7357381Y-13929571D01*
X7357381Y-13948619D01*
X7347857Y-13977190D01*
X7233571Y-14091476D01*
X7357381Y-14091476D01*
X7443095Y-14072428D02*
X7452619Y-14081952D01*
X7443095Y-14091476D01*
X7433571Y-14081952D01*
X7443095Y-14072428D01*
X7443095Y-14091476D01*
X7576428Y-13891476D02*
X7595476Y-13891476D01*
X7614524Y-13901000D01*
X7624048Y-13910524D01*
X7633571Y-13929571D01*
X7643095Y-13967667D01*
X7643095Y-14015286D01*
X7633571Y-14053381D01*
X7624048Y-14072428D01*
X7614524Y-14081952D01*
X7595476Y-14091476D01*
X7576428Y-14091476D01*
X7557381Y-14081952D01*
X7547857Y-14072428D01*
X7538333Y-14053381D01*
X7528809Y-14015286D01*
X7528809Y-13967667D01*
X7538333Y-13929571D01*
X7547857Y-13910524D01*
X7557381Y-13901000D01*
X7576428Y-13891476D01*
X7766905Y-13891476D02*
X7785952Y-13891476D01*
X7805000Y-13901000D01*
X7814524Y-13910524D01*
X7824048Y-13929571D01*
X7833571Y-13967667D01*
X7833571Y-14015286D01*
X7824048Y-14053381D01*
X7814524Y-14072428D01*
X7805000Y-14081952D01*
X7785952Y-14091476D01*
X7766905Y-14091476D01*
X7747857Y-14081952D01*
X7738333Y-14072428D01*
X7728809Y-14053381D01*
X7719286Y-14015286D01*
X7719286Y-13967667D01*
X7728809Y-13929571D01*
X7738333Y-13910524D01*
X7747857Y-13901000D01*
X7766905Y-13891476D01*
X7957381Y-13891476D02*
X7976428Y-13891476D01*
X7995476Y-13901000D01*
X8005000Y-13910524D01*
X8014524Y-13929571D01*
X8024048Y-13967667D01*
X8024048Y-14015286D01*
X8014524Y-14053381D01*
X8005000Y-14072428D01*
X7995476Y-14081952D01*
X7976428Y-14091476D01*
X7957381Y-14091476D01*
X7938333Y-14081952D01*
X7928809Y-14072428D01*
X7919286Y-14053381D01*
X7909762Y-14015286D01*
X7909762Y-13967667D01*
X7919286Y-13929571D01*
X7928809Y-13910524D01*
X7938333Y-13901000D01*
X7957381Y-13891476D01*
X8109762Y-14091476D02*
X8109762Y-13958143D01*
X8109762Y-13977190D02*
X8119286Y-13967667D01*
X8138333Y-13958143D01*
X8166905Y-13958143D01*
X8185952Y-13967667D01*
X8195476Y-13986714D01*
X8195476Y-14091476D01*
X8195476Y-13986714D02*
X8205000Y-13967667D01*
X8224048Y-13958143D01*
X8252619Y-13958143D01*
X8271667Y-13967667D01*
X8281190Y-13986714D01*
X8281190Y-14091476D01*
X8376428Y-14091476D02*
X8376428Y-13958143D01*
X8376428Y-13977190D02*
X8385952Y-13967667D01*
X8405000Y-13958143D01*
X8433571Y-13958143D01*
X8452619Y-13967667D01*
X8462143Y-13986714D01*
X8462143Y-14091476D01*
X8462143Y-13986714D02*
X8471667Y-13967667D01*
X8490714Y-13958143D01*
X8519286Y-13958143D01*
X8538333Y-13967667D01*
X8547857Y-13986714D01*
X8547857Y-14091476D01*
X8938333Y-13881952D02*
X8766905Y-14139095D01*
X9195476Y-13891476D02*
X9214524Y-13891476D01*
X9233571Y-13901000D01*
X9243095Y-13910524D01*
X9252619Y-13929571D01*
X9262143Y-13967667D01*
X9262143Y-14015286D01*
X9252619Y-14053381D01*
X9243095Y-14072428D01*
X9233571Y-14081952D01*
X9214524Y-14091476D01*
X9195476Y-14091476D01*
X9176429Y-14081952D01*
X9166905Y-14072428D01*
X9157381Y-14053381D01*
X9147857Y-14015286D01*
X9147857Y-13967667D01*
X9157381Y-13929571D01*
X9166905Y-13910524D01*
X9176429Y-13901000D01*
X9195476Y-13891476D01*
X9347857Y-14072428D02*
X9357381Y-14081952D01*
X9347857Y-14091476D01*
X9338333Y-14081952D01*
X9347857Y-14072428D01*
X9347857Y-14091476D01*
X9481190Y-13891476D02*
X9500238Y-13891476D01*
X9519286Y-13901000D01*
X9528810Y-13910524D01*
X9538333Y-13929571D01*
X9547857Y-13967667D01*
X9547857Y-14015286D01*
X9538333Y-14053381D01*
X9528810Y-14072428D01*
X9519286Y-14081952D01*
X9500238Y-14091476D01*
X9481190Y-14091476D01*
X9462143Y-14081952D01*
X9452619Y-14072428D01*
X9443095Y-14053381D01*
X9433571Y-14015286D01*
X9433571Y-13967667D01*
X9443095Y-13929571D01*
X9452619Y-13910524D01*
X9462143Y-13901000D01*
X9481190Y-13891476D01*
X9614524Y-13891476D02*
X9747857Y-13891476D01*
X9662143Y-14091476D01*
X9852619Y-13977190D02*
X9833571Y-13967667D01*
X9824048Y-13958143D01*
X9814524Y-13939095D01*
X9814524Y-13929571D01*
X9824048Y-13910524D01*
X9833571Y-13901000D01*
X9852619Y-13891476D01*
X9890714Y-13891476D01*
X9909762Y-13901000D01*
X9919286Y-13910524D01*
X9928810Y-13929571D01*
X9928810Y-13939095D01*
X9919286Y-13958143D01*
X9909762Y-13967667D01*
X9890714Y-13977190D01*
X9852619Y-13977190D01*
X9833571Y-13986714D01*
X9824048Y-13996238D01*
X9814524Y-14015286D01*
X9814524Y-14053381D01*
X9824048Y-14072428D01*
X9833571Y-14081952D01*
X9852619Y-14091476D01*
X9890714Y-14091476D01*
X9909762Y-14081952D01*
X9919286Y-14072428D01*
X9928810Y-14053381D01*
X9928810Y-14015286D01*
X9919286Y-13996238D01*
X9909762Y-13986714D01*
X9890714Y-13977190D01*
X9995476Y-13891476D02*
X10128810Y-13891476D01*
X10043095Y-14091476D01*
X10195476Y-13891476D02*
X10195476Y-13929571D01*
X10271667Y-13891476D02*
X10271667Y-13929571D01*
X10566905Y-14167667D02*
X10557381Y-14158143D01*
X10538333Y-14129571D01*
X10528810Y-14110524D01*
X10519286Y-14081952D01*
X10509762Y-14034333D01*
X10509762Y-13996238D01*
X10519286Y-13948619D01*
X10528810Y-13920048D01*
X10538333Y-13901000D01*
X10557381Y-13872428D01*
X10566905Y-13862905D01*
X10633571Y-13910524D02*
X10643095Y-13901000D01*
X10662143Y-13891476D01*
X10709762Y-13891476D01*
X10728810Y-13901000D01*
X10738333Y-13910524D01*
X10747857Y-13929571D01*
X10747857Y-13948619D01*
X10738333Y-13977190D01*
X10624048Y-14091476D01*
X10747857Y-14091476D01*
X10985952Y-14091476D02*
X10985952Y-13891476D01*
X11071667Y-14091476D02*
X11071667Y-13986714D01*
X11062143Y-13967667D01*
X11043095Y-13958143D01*
X11014524Y-13958143D01*
X10995476Y-13967667D01*
X10985952Y-13977190D01*
X11195476Y-14091476D02*
X11176429Y-14081952D01*
X11166905Y-14072428D01*
X11157381Y-14053381D01*
X11157381Y-13996238D01*
X11166905Y-13977190D01*
X11176429Y-13967667D01*
X11195476Y-13958143D01*
X11224048Y-13958143D01*
X11243095Y-13967667D01*
X11252619Y-13977190D01*
X11262143Y-13996238D01*
X11262143Y-14053381D01*
X11252619Y-14072428D01*
X11243095Y-14081952D01*
X11224048Y-14091476D01*
X11195476Y-14091476D01*
X11376428Y-14091476D02*
X11357381Y-14081952D01*
X11347857Y-14062905D01*
X11347857Y-13891476D01*
X11528809Y-14081952D02*
X11509762Y-14091476D01*
X11471667Y-14091476D01*
X11452619Y-14081952D01*
X11443095Y-14062905D01*
X11443095Y-13986714D01*
X11452619Y-13967667D01*
X11471667Y-13958143D01*
X11509762Y-13958143D01*
X11528809Y-13967667D01*
X11538333Y-13986714D01*
X11538333Y-14005762D01*
X11443095Y-14024809D01*
X11614524Y-14081952D02*
X11633571Y-14091476D01*
X11671667Y-14091476D01*
X11690714Y-14081952D01*
X11700238Y-14062905D01*
X11700238Y-14053381D01*
X11690714Y-14034333D01*
X11671667Y-14024809D01*
X11643095Y-14024809D01*
X11624048Y-14015286D01*
X11614524Y-13996238D01*
X11614524Y-13986714D01*
X11624048Y-13967667D01*
X11643095Y-13958143D01*
X11671667Y-13958143D01*
X11690714Y-13967667D01*
X11766905Y-14167667D02*
X11776428Y-14158143D01*
X11795476Y-14129571D01*
X11805000Y-14110524D01*
X11814524Y-14081952D01*
X11824048Y-14034333D01*
X11824048Y-13996238D01*
X11814524Y-13948619D01*
X11805000Y-13920048D01*
X11795476Y-13901000D01*
X11776428Y-13872428D01*
X11766905Y-13862905D01*
X12128809Y-14167667D02*
X12119286Y-14158143D01*
X12100238Y-14129571D01*
X12090714Y-14110524D01*
X12081190Y-14081952D01*
X12071667Y-14034333D01*
X12071667Y-13996238D01*
X12081190Y-13948619D01*
X12090714Y-13920048D01*
X12100238Y-13901000D01*
X12119286Y-13872428D01*
X12128809Y-13862905D01*
X12205000Y-13958143D02*
X12205000Y-14091476D01*
X12205000Y-13977190D02*
X12214524Y-13967667D01*
X12233571Y-13958143D01*
X12262143Y-13958143D01*
X12281190Y-13967667D01*
X12290714Y-13986714D01*
X12290714Y-14091476D01*
X12414524Y-14091476D02*
X12395476Y-14081952D01*
X12385952Y-14072428D01*
X12376428Y-14053381D01*
X12376428Y-13996238D01*
X12385952Y-13977190D01*
X12395476Y-13967667D01*
X12414524Y-13958143D01*
X12443095Y-13958143D01*
X12462143Y-13967667D01*
X12471667Y-13977190D01*
X12481190Y-13996238D01*
X12481190Y-14053381D01*
X12471667Y-14072428D01*
X12462143Y-14081952D01*
X12443095Y-14091476D01*
X12414524Y-14091476D01*
X12538333Y-13958143D02*
X12614524Y-13958143D01*
X12566905Y-13891476D02*
X12566905Y-14062905D01*
X12576428Y-14081952D01*
X12595476Y-14091476D01*
X12614524Y-14091476D01*
X12833571Y-13958143D02*
X12833571Y-14158143D01*
X12833571Y-13967667D02*
X12852619Y-13958143D01*
X12890714Y-13958143D01*
X12909762Y-13967667D01*
X12919286Y-13977190D01*
X12928809Y-13996238D01*
X12928809Y-14053381D01*
X12919286Y-14072428D01*
X12909762Y-14081952D01*
X12890714Y-14091476D01*
X12852619Y-14091476D01*
X12833571Y-14081952D01*
X13043095Y-14091476D02*
X13024048Y-14081952D01*
X13014524Y-14062905D01*
X13014524Y-13891476D01*
X13205000Y-14091476D02*
X13205000Y-13986714D01*
X13195476Y-13967667D01*
X13176428Y-13958143D01*
X13138333Y-13958143D01*
X13119286Y-13967667D01*
X13205000Y-14081952D02*
X13185952Y-14091476D01*
X13138333Y-14091476D01*
X13119286Y-14081952D01*
X13109762Y-14062905D01*
X13109762Y-14043857D01*
X13119286Y-14024809D01*
X13138333Y-14015286D01*
X13185952Y-14015286D01*
X13205000Y-14005762D01*
X13271667Y-13958143D02*
X13347857Y-13958143D01*
X13300238Y-13891476D02*
X13300238Y-14062905D01*
X13309762Y-14081952D01*
X13328809Y-14091476D01*
X13347857Y-14091476D01*
X13490714Y-14081952D02*
X13471667Y-14091476D01*
X13433571Y-14091476D01*
X13414524Y-14081952D01*
X13405000Y-14062905D01*
X13405000Y-13986714D01*
X13414524Y-13967667D01*
X13433571Y-13958143D01*
X13471667Y-13958143D01*
X13490714Y-13967667D01*
X13500238Y-13986714D01*
X13500238Y-14005762D01*
X13405000Y-14024809D01*
X13671667Y-14091476D02*
X13671667Y-13891476D01*
X13671667Y-14081952D02*
X13652619Y-14091476D01*
X13614524Y-14091476D01*
X13595476Y-14081952D01*
X13585952Y-14072428D01*
X13576428Y-14053381D01*
X13576428Y-13996238D01*
X13585952Y-13977190D01*
X13595476Y-13967667D01*
X13614524Y-13958143D01*
X13652619Y-13958143D01*
X13671667Y-13967667D01*
X13747857Y-14167667D02*
X13757381Y-14158143D01*
X13776428Y-14129571D01*
X13785952Y-14110524D01*
X13795476Y-14081952D01*
X13805000Y-14034333D01*
X13805000Y-13996238D01*
X13795476Y-13948619D01*
X13785952Y-13920048D01*
X13776428Y-13901000D01*
X13757381Y-13872428D01*
X13747857Y-13862905D01*
X6795000Y-14221000D02*
X6995000Y-14421000D01*
X6995000Y-14221000D02*
X6795000Y-14421000D01*
X6895000Y-14221000D02*
X6895000Y-14421000D01*
X6795000Y-14321000D02*
X6995000Y-14321000D01*
X7243095Y-14230524D02*
X7252619Y-14221000D01*
X7271667Y-14211476D01*
X7319286Y-14211476D01*
X7338333Y-14221000D01*
X7347857Y-14230524D01*
X7357381Y-14249571D01*
X7357381Y-14268619D01*
X7347857Y-14297190D01*
X7233571Y-14411476D01*
X7357381Y-14411476D01*
X7443095Y-14392428D02*
X7452619Y-14401952D01*
X7443095Y-14411476D01*
X7433571Y-14401952D01*
X7443095Y-14392428D01*
X7443095Y-14411476D01*
X7643095Y-14411476D02*
X7528809Y-14411476D01*
X7585952Y-14411476D02*
X7585952Y-14211476D01*
X7566905Y-14240048D01*
X7547857Y-14259095D01*
X7528809Y-14268619D01*
X7766905Y-14211476D02*
X7785952Y-14211476D01*
X7805000Y-14221000D01*
X7814524Y-14230524D01*
X7824048Y-14249571D01*
X7833571Y-14287667D01*
X7833571Y-14335286D01*
X7824048Y-14373381D01*
X7814524Y-14392428D01*
X7805000Y-14401952D01*
X7785952Y-14411476D01*
X7766905Y-14411476D01*
X7747857Y-14401952D01*
X7738333Y-14392428D01*
X7728809Y-14373381D01*
X7719286Y-14335286D01*
X7719286Y-14287667D01*
X7728809Y-14249571D01*
X7738333Y-14230524D01*
X7747857Y-14221000D01*
X7766905Y-14211476D01*
X7957381Y-14211476D02*
X7976428Y-14211476D01*
X7995476Y-14221000D01*
X8005000Y-14230524D01*
X8014524Y-14249571D01*
X8024048Y-14287667D01*
X8024048Y-14335286D01*
X8014524Y-14373381D01*
X8005000Y-14392428D01*
X7995476Y-14401952D01*
X7976428Y-14411476D01*
X7957381Y-14411476D01*
X7938333Y-14401952D01*
X7928809Y-14392428D01*
X7919286Y-14373381D01*
X7909762Y-14335286D01*
X7909762Y-14287667D01*
X7919286Y-14249571D01*
X7928809Y-14230524D01*
X7938333Y-14221000D01*
X7957381Y-14211476D01*
X8109762Y-14411476D02*
X8109762Y-14278143D01*
X8109762Y-14297190D02*
X8119286Y-14287667D01*
X8138333Y-14278143D01*
X8166905Y-14278143D01*
X8185952Y-14287667D01*
X8195476Y-14306714D01*
X8195476Y-14411476D01*
X8195476Y-14306714D02*
X8205000Y-14287667D01*
X8224048Y-14278143D01*
X8252619Y-14278143D01*
X8271667Y-14287667D01*
X8281190Y-14306714D01*
X8281190Y-14411476D01*
X8376428Y-14411476D02*
X8376428Y-14278143D01*
X8376428Y-14297190D02*
X8385952Y-14287667D01*
X8405000Y-14278143D01*
X8433571Y-14278143D01*
X8452619Y-14287667D01*
X8462143Y-14306714D01*
X8462143Y-14411476D01*
X8462143Y-14306714D02*
X8471667Y-14287667D01*
X8490714Y-14278143D01*
X8519286Y-14278143D01*
X8538333Y-14287667D01*
X8547857Y-14306714D01*
X8547857Y-14411476D01*
X8938333Y-14201952D02*
X8766905Y-14459095D01*
X9195476Y-14211476D02*
X9214524Y-14211476D01*
X9233571Y-14221000D01*
X9243095Y-14230524D01*
X9252619Y-14249571D01*
X9262143Y-14287667D01*
X9262143Y-14335286D01*
X9252619Y-14373381D01*
X9243095Y-14392428D01*
X9233571Y-14401952D01*
X9214524Y-14411476D01*
X9195476Y-14411476D01*
X9176429Y-14401952D01*
X9166905Y-14392428D01*
X9157381Y-14373381D01*
X9147857Y-14335286D01*
X9147857Y-14287667D01*
X9157381Y-14249571D01*
X9166905Y-14230524D01*
X9176429Y-14221000D01*
X9195476Y-14211476D01*
X9347857Y-14392428D02*
X9357381Y-14401952D01*
X9347857Y-14411476D01*
X9338333Y-14401952D01*
X9347857Y-14392428D01*
X9347857Y-14411476D01*
X9481190Y-14211476D02*
X9500238Y-14211476D01*
X9519286Y-14221000D01*
X9528810Y-14230524D01*
X9538333Y-14249571D01*
X9547857Y-14287667D01*
X9547857Y-14335286D01*
X9538333Y-14373381D01*
X9528810Y-14392428D01*
X9519286Y-14401952D01*
X9500238Y-14411476D01*
X9481190Y-14411476D01*
X9462143Y-14401952D01*
X9452619Y-14392428D01*
X9443095Y-14373381D01*
X9433571Y-14335286D01*
X9433571Y-14287667D01*
X9443095Y-14249571D01*
X9452619Y-14230524D01*
X9462143Y-14221000D01*
X9481190Y-14211476D01*
X9662143Y-14297190D02*
X9643095Y-14287667D01*
X9633571Y-14278143D01*
X9624048Y-14259095D01*
X9624048Y-14249571D01*
X9633571Y-14230524D01*
X9643095Y-14221000D01*
X9662143Y-14211476D01*
X9700238Y-14211476D01*
X9719286Y-14221000D01*
X9728810Y-14230524D01*
X9738333Y-14249571D01*
X9738333Y-14259095D01*
X9728810Y-14278143D01*
X9719286Y-14287667D01*
X9700238Y-14297190D01*
X9662143Y-14297190D01*
X9643095Y-14306714D01*
X9633571Y-14316238D01*
X9624048Y-14335286D01*
X9624048Y-14373381D01*
X9633571Y-14392428D01*
X9643095Y-14401952D01*
X9662143Y-14411476D01*
X9700238Y-14411476D01*
X9719286Y-14401952D01*
X9728810Y-14392428D01*
X9738333Y-14373381D01*
X9738333Y-14335286D01*
X9728810Y-14316238D01*
X9719286Y-14306714D01*
X9700238Y-14297190D01*
X9814524Y-14230524D02*
X9824048Y-14221000D01*
X9843095Y-14211476D01*
X9890714Y-14211476D01*
X9909762Y-14221000D01*
X9919286Y-14230524D01*
X9928810Y-14249571D01*
X9928810Y-14268619D01*
X9919286Y-14297190D01*
X9805000Y-14411476D01*
X9928810Y-14411476D01*
X9995476Y-14211476D02*
X10128810Y-14211476D01*
X10043095Y-14411476D01*
X10195476Y-14211476D02*
X10195476Y-14249571D01*
X10271667Y-14211476D02*
X10271667Y-14249571D01*
X10566905Y-14487667D02*
X10557381Y-14478143D01*
X10538333Y-14449571D01*
X10528810Y-14430524D01*
X10519286Y-14401952D01*
X10509762Y-14354333D01*
X10509762Y-14316238D01*
X10519286Y-14268619D01*
X10528810Y-14240048D01*
X10538333Y-14221000D01*
X10557381Y-14192428D01*
X10566905Y-14182905D01*
X10652619Y-14411476D02*
X10690714Y-14411476D01*
X10709762Y-14401952D01*
X10719286Y-14392428D01*
X10738333Y-14363857D01*
X10747857Y-14325762D01*
X10747857Y-14249571D01*
X10738333Y-14230524D01*
X10728810Y-14221000D01*
X10709762Y-14211476D01*
X10671667Y-14211476D01*
X10652619Y-14221000D01*
X10643095Y-14230524D01*
X10633571Y-14249571D01*
X10633571Y-14297190D01*
X10643095Y-14316238D01*
X10652619Y-14325762D01*
X10671667Y-14335286D01*
X10709762Y-14335286D01*
X10728810Y-14325762D01*
X10738333Y-14316238D01*
X10747857Y-14297190D01*
X10985952Y-14411476D02*
X10985952Y-14211476D01*
X11071667Y-14411476D02*
X11071667Y-14306714D01*
X11062143Y-14287667D01*
X11043095Y-14278143D01*
X11014524Y-14278143D01*
X10995476Y-14287667D01*
X10985952Y-14297190D01*
X11195476Y-14411476D02*
X11176429Y-14401952D01*
X11166905Y-14392428D01*
X11157381Y-14373381D01*
X11157381Y-14316238D01*
X11166905Y-14297190D01*
X11176429Y-14287667D01*
X11195476Y-14278143D01*
X11224048Y-14278143D01*
X11243095Y-14287667D01*
X11252619Y-14297190D01*
X11262143Y-14316238D01*
X11262143Y-14373381D01*
X11252619Y-14392428D01*
X11243095Y-14401952D01*
X11224048Y-14411476D01*
X11195476Y-14411476D01*
X11376428Y-14411476D02*
X11357381Y-14401952D01*
X11347857Y-14382905D01*
X11347857Y-14211476D01*
X11528809Y-14401952D02*
X11509762Y-14411476D01*
X11471667Y-14411476D01*
X11452619Y-14401952D01*
X11443095Y-14382905D01*
X11443095Y-14306714D01*
X11452619Y-14287667D01*
X11471667Y-14278143D01*
X11509762Y-14278143D01*
X11528809Y-14287667D01*
X11538333Y-14306714D01*
X11538333Y-14325762D01*
X11443095Y-14344809D01*
X11614524Y-14401952D02*
X11633571Y-14411476D01*
X11671667Y-14411476D01*
X11690714Y-14401952D01*
X11700238Y-14382905D01*
X11700238Y-14373381D01*
X11690714Y-14354333D01*
X11671667Y-14344809D01*
X11643095Y-14344809D01*
X11624048Y-14335286D01*
X11614524Y-14316238D01*
X11614524Y-14306714D01*
X11624048Y-14287667D01*
X11643095Y-14278143D01*
X11671667Y-14278143D01*
X11690714Y-14287667D01*
X11766905Y-14487667D02*
X11776428Y-14478143D01*
X11795476Y-14449571D01*
X11805000Y-14430524D01*
X11814524Y-14401952D01*
X11824048Y-14354333D01*
X11824048Y-14316238D01*
X11814524Y-14268619D01*
X11805000Y-14240048D01*
X11795476Y-14221000D01*
X11776428Y-14192428D01*
X11766905Y-14182905D01*
X12128809Y-14487667D02*
X12119286Y-14478143D01*
X12100238Y-14449571D01*
X12090714Y-14430524D01*
X12081190Y-14401952D01*
X12071667Y-14354333D01*
X12071667Y-14316238D01*
X12081190Y-14268619D01*
X12090714Y-14240048D01*
X12100238Y-14221000D01*
X12119286Y-14192428D01*
X12128809Y-14182905D01*
X12205000Y-14278143D02*
X12205000Y-14411476D01*
X12205000Y-14297190D02*
X12214524Y-14287667D01*
X12233571Y-14278143D01*
X12262143Y-14278143D01*
X12281190Y-14287667D01*
X12290714Y-14306714D01*
X12290714Y-14411476D01*
X12414524Y-14411476D02*
X12395476Y-14401952D01*
X12385952Y-14392428D01*
X12376428Y-14373381D01*
X12376428Y-14316238D01*
X12385952Y-14297190D01*
X12395476Y-14287667D01*
X12414524Y-14278143D01*
X12443095Y-14278143D01*
X12462143Y-14287667D01*
X12471667Y-14297190D01*
X12481190Y-14316238D01*
X12481190Y-14373381D01*
X12471667Y-14392428D01*
X12462143Y-14401952D01*
X12443095Y-14411476D01*
X12414524Y-14411476D01*
X12538333Y-14278143D02*
X12614524Y-14278143D01*
X12566905Y-14211476D02*
X12566905Y-14382905D01*
X12576428Y-14401952D01*
X12595476Y-14411476D01*
X12614524Y-14411476D01*
X12833571Y-14278143D02*
X12833571Y-14478143D01*
X12833571Y-14287667D02*
X12852619Y-14278143D01*
X12890714Y-14278143D01*
X12909762Y-14287667D01*
X12919286Y-14297190D01*
X12928809Y-14316238D01*
X12928809Y-14373381D01*
X12919286Y-14392428D01*
X12909762Y-14401952D01*
X12890714Y-14411476D01*
X12852619Y-14411476D01*
X12833571Y-14401952D01*
X13043095Y-14411476D02*
X13024048Y-14401952D01*
X13014524Y-14382905D01*
X13014524Y-14211476D01*
X13205000Y-14411476D02*
X13205000Y-14306714D01*
X13195476Y-14287667D01*
X13176428Y-14278143D01*
X13138333Y-14278143D01*
X13119286Y-14287667D01*
X13205000Y-14401952D02*
X13185952Y-14411476D01*
X13138333Y-14411476D01*
X13119286Y-14401952D01*
X13109762Y-14382905D01*
X13109762Y-14363857D01*
X13119286Y-14344809D01*
X13138333Y-14335286D01*
X13185952Y-14335286D01*
X13205000Y-14325762D01*
X13271667Y-14278143D02*
X13347857Y-14278143D01*
X13300238Y-14211476D02*
X13300238Y-14382905D01*
X13309762Y-14401952D01*
X13328809Y-14411476D01*
X13347857Y-14411476D01*
X13490714Y-14401952D02*
X13471667Y-14411476D01*
X13433571Y-14411476D01*
X13414524Y-14401952D01*
X13405000Y-14382905D01*
X13405000Y-14306714D01*
X13414524Y-14287667D01*
X13433571Y-14278143D01*
X13471667Y-14278143D01*
X13490714Y-14287667D01*
X13500238Y-14306714D01*
X13500238Y-14325762D01*
X13405000Y-14344809D01*
X13671667Y-14411476D02*
X13671667Y-14211476D01*
X13671667Y-14401952D02*
X13652619Y-14411476D01*
X13614524Y-14411476D01*
X13595476Y-14401952D01*
X13585952Y-14392428D01*
X13576428Y-14373381D01*
X13576428Y-14316238D01*
X13585952Y-14297190D01*
X13595476Y-14287667D01*
X13614524Y-14278143D01*
X13652619Y-14278143D01*
X13671667Y-14287667D01*
X13747857Y-14487667D02*
X13757381Y-14478143D01*
X13776428Y-14449571D01*
X13785952Y-14430524D01*
X13795476Y-14401952D01*
X13805000Y-14354333D01*
X13805000Y-14316238D01*
X13795476Y-14268619D01*
X13785952Y-14240048D01*
X13776428Y-14221000D01*
X13757381Y-14192428D01*
X13747857Y-14182905D01*
X6795000Y-14541000D02*
X6995000Y-14741000D01*
X6995000Y-14541000D02*
X6795000Y-14741000D01*
X6965711Y-14711711D02*
X6965711Y-14570289D01*
X6824289Y-14570289D01*
X6824289Y-14711711D01*
X6965711Y-14711711D01*
X7357381Y-14731476D02*
X7243095Y-14731476D01*
X7300238Y-14731476D02*
X7300238Y-14531476D01*
X7281190Y-14560048D01*
X7262143Y-14579095D01*
X7243095Y-14588619D01*
X7528809Y-14598143D02*
X7528809Y-14731476D01*
X7481190Y-14521952D02*
X7433571Y-14664809D01*
X7557381Y-14664809D01*
X7633571Y-14712428D02*
X7643095Y-14721952D01*
X7633571Y-14731476D01*
X7624048Y-14721952D01*
X7633571Y-14712428D01*
X7633571Y-14731476D01*
X7766905Y-14531476D02*
X7785952Y-14531476D01*
X7805000Y-14541000D01*
X7814524Y-14550524D01*
X7824048Y-14569571D01*
X7833571Y-14607667D01*
X7833571Y-14655286D01*
X7824048Y-14693381D01*
X7814524Y-14712428D01*
X7805000Y-14721952D01*
X7785952Y-14731476D01*
X7766905Y-14731476D01*
X7747857Y-14721952D01*
X7738333Y-14712428D01*
X7728809Y-14693381D01*
X7719286Y-14655286D01*
X7719286Y-14607667D01*
X7728809Y-14569571D01*
X7738333Y-14550524D01*
X7747857Y-14541000D01*
X7766905Y-14531476D01*
X7957381Y-14531476D02*
X7976428Y-14531476D01*
X7995476Y-14541000D01*
X8005000Y-14550524D01*
X8014524Y-14569571D01*
X8024048Y-14607667D01*
X8024048Y-14655286D01*
X8014524Y-14693381D01*
X8005000Y-14712428D01*
X7995476Y-14721952D01*
X7976428Y-14731476D01*
X7957381Y-14731476D01*
X7938333Y-14721952D01*
X7928809Y-14712428D01*
X7919286Y-14693381D01*
X7909762Y-14655286D01*
X7909762Y-14607667D01*
X7919286Y-14569571D01*
X7928809Y-14550524D01*
X7938333Y-14541000D01*
X7957381Y-14531476D01*
X8147857Y-14531476D02*
X8166905Y-14531476D01*
X8185952Y-14541000D01*
X8195476Y-14550524D01*
X8205000Y-14569571D01*
X8214524Y-14607667D01*
X8214524Y-14655286D01*
X8205000Y-14693381D01*
X8195476Y-14712428D01*
X8185952Y-14721952D01*
X8166905Y-14731476D01*
X8147857Y-14731476D01*
X8128809Y-14721952D01*
X8119286Y-14712428D01*
X8109762Y-14693381D01*
X8100238Y-14655286D01*
X8100238Y-14607667D01*
X8109762Y-14569571D01*
X8119286Y-14550524D01*
X8128809Y-14541000D01*
X8147857Y-14531476D01*
X8300238Y-14731476D02*
X8300238Y-14598143D01*
X8300238Y-14617190D02*
X8309762Y-14607667D01*
X8328809Y-14598143D01*
X8357381Y-14598143D01*
X8376428Y-14607667D01*
X8385952Y-14626714D01*
X8385952Y-14731476D01*
X8385952Y-14626714D02*
X8395476Y-14607667D01*
X8414524Y-14598143D01*
X8443095Y-14598143D01*
X8462143Y-14607667D01*
X8471667Y-14626714D01*
X8471667Y-14731476D01*
X8566905Y-14731476D02*
X8566905Y-14598143D01*
X8566905Y-14617190D02*
X8576429Y-14607667D01*
X8595476Y-14598143D01*
X8624048Y-14598143D01*
X8643095Y-14607667D01*
X8652619Y-14626714D01*
X8652619Y-14731476D01*
X8652619Y-14626714D02*
X8662143Y-14607667D01*
X8681190Y-14598143D01*
X8709762Y-14598143D01*
X8728810Y-14607667D01*
X8738333Y-14626714D01*
X8738333Y-14731476D01*
X9128810Y-14521952D02*
X8957381Y-14779095D01*
X9385952Y-14531476D02*
X9405000Y-14531476D01*
X9424048Y-14541000D01*
X9433571Y-14550524D01*
X9443095Y-14569571D01*
X9452619Y-14607667D01*
X9452619Y-14655286D01*
X9443095Y-14693381D01*
X9433571Y-14712428D01*
X9424048Y-14721952D01*
X9405000Y-14731476D01*
X9385952Y-14731476D01*
X9366905Y-14721952D01*
X9357381Y-14712428D01*
X9347857Y-14693381D01*
X9338333Y-14655286D01*
X9338333Y-14607667D01*
X9347857Y-14569571D01*
X9357381Y-14550524D01*
X9366905Y-14541000D01*
X9385952Y-14531476D01*
X9538333Y-14712428D02*
X9547857Y-14721952D01*
X9538333Y-14731476D01*
X9528810Y-14721952D01*
X9538333Y-14712428D01*
X9538333Y-14731476D01*
X9728810Y-14531476D02*
X9633571Y-14531476D01*
X9624048Y-14626714D01*
X9633571Y-14617190D01*
X9652619Y-14607667D01*
X9700238Y-14607667D01*
X9719286Y-14617190D01*
X9728810Y-14626714D01*
X9738333Y-14645762D01*
X9738333Y-14693381D01*
X9728810Y-14712428D01*
X9719286Y-14721952D01*
X9700238Y-14731476D01*
X9652619Y-14731476D01*
X9633571Y-14721952D01*
X9624048Y-14712428D01*
X9919286Y-14531476D02*
X9824048Y-14531476D01*
X9814524Y-14626714D01*
X9824048Y-14617190D01*
X9843095Y-14607667D01*
X9890714Y-14607667D01*
X9909762Y-14617190D01*
X9919286Y-14626714D01*
X9928810Y-14645762D01*
X9928810Y-14693381D01*
X9919286Y-14712428D01*
X9909762Y-14721952D01*
X9890714Y-14731476D01*
X9843095Y-14731476D01*
X9824048Y-14721952D01*
X9814524Y-14712428D01*
X10119286Y-14731476D02*
X10005000Y-14731476D01*
X10062143Y-14731476D02*
X10062143Y-14531476D01*
X10043095Y-14560048D01*
X10024048Y-14579095D01*
X10005000Y-14588619D01*
X10195476Y-14550524D02*
X10205000Y-14541000D01*
X10224048Y-14531476D01*
X10271667Y-14531476D01*
X10290714Y-14541000D01*
X10300238Y-14550524D01*
X10309762Y-14569571D01*
X10309762Y-14588619D01*
X10300238Y-14617190D01*
X10185952Y-14731476D01*
X10309762Y-14731476D01*
X10385952Y-14531476D02*
X10385952Y-14569571D01*
X10462143Y-14531476D02*
X10462143Y-14569571D01*
X10757381Y-14807667D02*
X10747857Y-14798143D01*
X10728810Y-14769571D01*
X10719286Y-14750524D01*
X10709762Y-14721952D01*
X10700238Y-14674333D01*
X10700238Y-14636238D01*
X10709762Y-14588619D01*
X10719286Y-14560048D01*
X10728810Y-14541000D01*
X10747857Y-14512428D01*
X10757381Y-14502905D01*
X10938333Y-14731476D02*
X10824048Y-14731476D01*
X10881190Y-14731476D02*
X10881190Y-14531476D01*
X10862143Y-14560048D01*
X10843095Y-14579095D01*
X10824048Y-14588619D01*
X11176429Y-14731476D02*
X11176429Y-14531476D01*
X11262143Y-14731476D02*
X11262143Y-14626714D01*
X11252619Y-14607667D01*
X11233571Y-14598143D01*
X11205000Y-14598143D01*
X11185952Y-14607667D01*
X11176429Y-14617190D01*
X11385952Y-14731476D02*
X11366905Y-14721952D01*
X11357381Y-14712428D01*
X11347857Y-14693381D01*
X11347857Y-14636238D01*
X11357381Y-14617190D01*
X11366905Y-14607667D01*
X11385952Y-14598143D01*
X11414524Y-14598143D01*
X11433571Y-14607667D01*
X11443095Y-14617190D01*
X11452619Y-14636238D01*
X11452619Y-14693381D01*
X11443095Y-14712428D01*
X11433571Y-14721952D01*
X11414524Y-14731476D01*
X11385952Y-14731476D01*
X11566905Y-14731476D02*
X11547857Y-14721952D01*
X11538333Y-14702905D01*
X11538333Y-14531476D01*
X11719286Y-14721952D02*
X11700238Y-14731476D01*
X11662143Y-14731476D01*
X11643095Y-14721952D01*
X11633571Y-14702905D01*
X11633571Y-14626714D01*
X11643095Y-14607667D01*
X11662143Y-14598143D01*
X11700238Y-14598143D01*
X11719286Y-14607667D01*
X11728809Y-14626714D01*
X11728809Y-14645762D01*
X11633571Y-14664809D01*
X11795476Y-14807667D02*
X11805000Y-14798143D01*
X11824048Y-14769571D01*
X11833571Y-14750524D01*
X11843095Y-14721952D01*
X11852619Y-14674333D01*
X11852619Y-14636238D01*
X11843095Y-14588619D01*
X11833571Y-14560048D01*
X11824048Y-14541000D01*
X11805000Y-14512428D01*
X11795476Y-14502905D01*
X12157381Y-14807667D02*
X12147857Y-14798143D01*
X12128809Y-14769571D01*
X12119286Y-14750524D01*
X12109762Y-14721952D01*
X12100238Y-14674333D01*
X12100238Y-14636238D01*
X12109762Y-14588619D01*
X12119286Y-14560048D01*
X12128809Y-14541000D01*
X12147857Y-14512428D01*
X12157381Y-14502905D01*
X12233571Y-14598143D02*
X12233571Y-14731476D01*
X12233571Y-14617190D02*
X12243095Y-14607667D01*
X12262143Y-14598143D01*
X12290714Y-14598143D01*
X12309762Y-14607667D01*
X12319286Y-14626714D01*
X12319286Y-14731476D01*
X12443095Y-14731476D02*
X12424048Y-14721952D01*
X12414524Y-14712428D01*
X12405000Y-14693381D01*
X12405000Y-14636238D01*
X12414524Y-14617190D01*
X12424048Y-14607667D01*
X12443095Y-14598143D01*
X12471667Y-14598143D01*
X12490714Y-14607667D01*
X12500238Y-14617190D01*
X12509762Y-14636238D01*
X12509762Y-14693381D01*
X12500238Y-14712428D01*
X12490714Y-14721952D01*
X12471667Y-14731476D01*
X12443095Y-14731476D01*
X12566905Y-14598143D02*
X12643095Y-14598143D01*
X12595476Y-14531476D02*
X12595476Y-14702905D01*
X12605000Y-14721952D01*
X12624048Y-14731476D01*
X12643095Y-14731476D01*
X12862143Y-14598143D02*
X12862143Y-14798143D01*
X12862143Y-14607667D02*
X12881190Y-14598143D01*
X12919286Y-14598143D01*
X12938333Y-14607667D01*
X12947857Y-14617190D01*
X12957381Y-14636238D01*
X12957381Y-14693381D01*
X12947857Y-14712428D01*
X12938333Y-14721952D01*
X12919286Y-14731476D01*
X12881190Y-14731476D01*
X12862143Y-14721952D01*
X13071667Y-14731476D02*
X13052619Y-14721952D01*
X13043095Y-14702905D01*
X13043095Y-14531476D01*
X13233571Y-14731476D02*
X13233571Y-14626714D01*
X13224048Y-14607667D01*
X13205000Y-14598143D01*
X13166905Y-14598143D01*
X13147857Y-14607667D01*
X13233571Y-14721952D02*
X13214524Y-14731476D01*
X13166905Y-14731476D01*
X13147857Y-14721952D01*
X13138333Y-14702905D01*
X13138333Y-14683857D01*
X13147857Y-14664809D01*
X13166905Y-14655286D01*
X13214524Y-14655286D01*
X13233571Y-14645762D01*
X13300238Y-14598143D02*
X13376428Y-14598143D01*
X13328809Y-14531476D02*
X13328809Y-14702905D01*
X13338333Y-14721952D01*
X13357381Y-14731476D01*
X13376428Y-14731476D01*
X13519286Y-14721952D02*
X13500238Y-14731476D01*
X13462143Y-14731476D01*
X13443095Y-14721952D01*
X13433571Y-14702905D01*
X13433571Y-14626714D01*
X13443095Y-14607667D01*
X13462143Y-14598143D01*
X13500238Y-14598143D01*
X13519286Y-14607667D01*
X13528809Y-14626714D01*
X13528809Y-14645762D01*
X13433571Y-14664809D01*
X13700238Y-14731476D02*
X13700238Y-14531476D01*
X13700238Y-14721952D02*
X13681190Y-14731476D01*
X13643095Y-14731476D01*
X13624048Y-14721952D01*
X13614524Y-14712428D01*
X13605000Y-14693381D01*
X13605000Y-14636238D01*
X13614524Y-14617190D01*
X13624048Y-14607667D01*
X13643095Y-14598143D01*
X13681190Y-14598143D01*
X13700238Y-14607667D01*
X13776428Y-14807667D02*
X13785952Y-14798143D01*
X13805000Y-14769571D01*
X13814524Y-14750524D01*
X13824048Y-14721952D01*
X13833571Y-14674333D01*
X13833571Y-14636238D01*
X13824048Y-14588619D01*
X13814524Y-14560048D01*
X13805000Y-14541000D01*
X13785952Y-14512428D01*
X13776428Y-14502905D01*
M02*
