%TF.GenerationSoftware,KiCad,Pcbnew,(6.0.1)*%
%TF.CreationDate,2022-06-19T08:49:54+09:00*%
%TF.ProjectId,yuiop32dm-main,7975696f-7033-4326-946d-2d6d61696e2e,1*%
%TF.SameCoordinates,Original*%
%TF.FileFunction,Soldermask,Bot*%
%TF.FilePolarity,Negative*%
%FSLAX46Y46*%
G04 Gerber Fmt 4.6, Leading zero omitted, Abs format (unit mm)*
G04 Created by KiCad (PCBNEW (6.0.1)) date 2022-06-19 08:49:54*
%MOMM*%
%LPD*%
G01*
G04 APERTURE LIST*
G04 Aperture macros list*
%AMRoundRect*
0 Rectangle with rounded corners*
0 $1 Rounding radius*
0 $2 $3 $4 $5 $6 $7 $8 $9 X,Y pos of 4 corners*
0 Add a 4 corners polygon primitive as box body*
4,1,4,$2,$3,$4,$5,$6,$7,$8,$9,$2,$3,0*
0 Add four circle primitives for the rounded corners*
1,1,$1+$1,$2,$3*
1,1,$1+$1,$4,$5*
1,1,$1+$1,$6,$7*
1,1,$1+$1,$8,$9*
0 Add four rect primitives between the rounded corners*
20,1,$1+$1,$2,$3,$4,$5,0*
20,1,$1+$1,$4,$5,$6,$7,0*
20,1,$1+$1,$6,$7,$8,$9,0*
20,1,$1+$1,$8,$9,$2,$3,0*%
%AMFreePoly0*
4,1,22,0.500000,-0.750000,0.000000,-0.750000,0.000000,-0.745033,-0.079941,-0.743568,-0.215256,-0.701293,-0.333266,-0.622738,-0.424486,-0.514219,-0.481581,-0.384460,-0.499164,-0.250000,-0.500000,-0.250000,-0.500000,0.250000,-0.499164,0.250000,-0.499963,0.256109,-0.478152,0.396186,-0.417904,0.524511,-0.324060,0.630769,-0.204165,0.706417,-0.067858,0.745374,0.000000,0.744959,0.000000,0.750000,
0.500000,0.750000,0.500000,-0.750000,0.500000,-0.750000,$1*%
%AMFreePoly1*
4,1,20,0.000000,0.744959,0.073905,0.744508,0.209726,0.703889,0.328688,0.626782,0.421226,0.519385,0.479903,0.390333,0.500000,0.250000,0.500000,-0.250000,0.499851,-0.262216,0.476331,-0.402017,0.414519,-0.529596,0.319384,-0.634700,0.198574,-0.708877,0.061801,-0.746166,0.000000,-0.745033,0.000000,-0.750000,-0.500000,-0.750000,-0.500000,0.750000,0.000000,0.750000,0.000000,0.744959,
0.000000,0.744959,$1*%
G04 Aperture macros list end*
%ADD10C,1.900000*%
%ADD11C,3.050000*%
%ADD12C,4.100000*%
%ADD13C,1.000000*%
%ADD14RoundRect,0.250000X-1.025000X-1.000000X1.025000X-1.000000X1.025000X1.000000X-1.025000X1.000000X0*%
%ADD15R,1.200000X0.900000*%
%ADD16O,1.500000X3.150000*%
%ADD17R,0.600000X0.700000*%
%ADD18C,4.000000*%
%ADD19C,2.000000*%
%ADD20FreePoly0,90.000000*%
%ADD21FreePoly1,90.000000*%
%ADD22FreePoly0,270.000000*%
%ADD23FreePoly1,270.000000*%
%ADD24RoundRect,0.237500X0.300000X0.237500X-0.300000X0.237500X-0.300000X-0.237500X0.300000X-0.237500X0*%
G04 APERTURE END LIST*
D10*
%TO.C,KSW14*%
X199688750Y-128100000D03*
D11*
X200958750Y-125560000D03*
D10*
X209848750Y-128100000D03*
D11*
X207308750Y-123020000D03*
D12*
X204768750Y-128100000D03*
D13*
X197683750Y-125560000D03*
D14*
X197683750Y-125560000D03*
D13*
X210610750Y-123020000D03*
D14*
X210610750Y-123020000D03*
%TD*%
D15*
%TO.C,D30*%
X97000000Y-59650000D03*
X97000000Y-56350000D03*
%TD*%
%TO.C,D7*%
X202000000Y-45650000D03*
X202000000Y-42350000D03*
%TD*%
D16*
%TO.C,LED20*%
X166668750Y-113812500D03*
D17*
X165418750Y-113262500D03*
X165418750Y-114362500D03*
X167918750Y-114362500D03*
X167918750Y-113262500D03*
%TD*%
D15*
%TO.C,D39*%
X122000000Y-59650000D03*
X122000000Y-56350000D03*
%TD*%
D16*
%TO.C,LED15*%
X204768750Y-94762500D03*
D17*
X206018750Y-95312500D03*
X206018750Y-94212500D03*
X203518750Y-94212500D03*
X203518750Y-95312500D03*
%TD*%
D11*
%TO.C,KSW8*%
X162858750Y-87460000D03*
D12*
X166668750Y-90000000D03*
D11*
X169208750Y-84920000D03*
D10*
X171748750Y-90000000D03*
X161588750Y-90000000D03*
D13*
X159583750Y-87460000D03*
D14*
X159583750Y-87460000D03*
X172510750Y-84920000D03*
D13*
X172510750Y-84920000D03*
%TD*%
D16*
%TO.C,LED19*%
X185718750Y-113812500D03*
D17*
X184468750Y-113262500D03*
X184468750Y-114362500D03*
X186968750Y-114362500D03*
X186968750Y-113262500D03*
%TD*%
D15*
%TO.C,D25*%
X101000000Y-52650000D03*
X101000000Y-49350000D03*
%TD*%
%TO.C,D17*%
X101000000Y-38650000D03*
X101000000Y-35350000D03*
%TD*%
%TO.C,D23*%
X93000000Y-45650000D03*
X93000000Y-42350000D03*
%TD*%
D16*
%TO.C,LED1*%
X223818750Y-75712500D03*
D17*
X222568750Y-75162500D03*
X222568750Y-76262500D03*
X225068750Y-76262500D03*
X225068750Y-75162500D03*
%TD*%
D15*
%TO.C,D19*%
X93000000Y-38650000D03*
X93000000Y-35350000D03*
%TD*%
%TO.C,D1*%
X210000000Y-38650000D03*
X210000000Y-35350000D03*
%TD*%
%TO.C,D14*%
X206000000Y-59650000D03*
X206000000Y-56350000D03*
%TD*%
D18*
%TO.C,H4*%
X213500000Y-141500000D03*
%TD*%
D15*
%TO.C,D40*%
X118000000Y-59650000D03*
X118000000Y-56350000D03*
%TD*%
%TO.C,D16*%
X198000000Y-59650000D03*
X198000000Y-56350000D03*
%TD*%
%TO.C,D38*%
X126000000Y-59650000D03*
X126000000Y-56350000D03*
%TD*%
D16*
%TO.C,LED9*%
X76181250Y-94762500D03*
D17*
X77431250Y-95312500D03*
X77431250Y-94212500D03*
X74931250Y-94212500D03*
X74931250Y-95312500D03*
%TD*%
D15*
%TO.C,D33*%
X178000000Y-38650000D03*
X178000000Y-35350000D03*
%TD*%
D11*
%TO.C,KSW9*%
X226358750Y-103970000D03*
D12*
X223818750Y-109050000D03*
D10*
X228898750Y-109050000D03*
D11*
X220008750Y-106510000D03*
D10*
X218738750Y-109050000D03*
D13*
X216733750Y-106510000D03*
D14*
X216733750Y-106510000D03*
D13*
X229660750Y-103970000D03*
D14*
X229660750Y-103970000D03*
%TD*%
D12*
%TO.C,KSW5*%
X223818750Y-90000000D03*
D11*
X220008750Y-87460000D03*
D10*
X218738750Y-90000000D03*
X228898750Y-90000000D03*
D11*
X226358750Y-84920000D03*
D14*
X216733750Y-87460000D03*
D13*
X216733750Y-87460000D03*
X229660750Y-84920000D03*
D14*
X229660750Y-84920000D03*
%TD*%
D15*
%TO.C,D28*%
X89000000Y-52650000D03*
X89000000Y-49350000D03*
%TD*%
D19*
%TO.C,RSW1*%
X127250000Y-35000000D03*
X120750000Y-35000000D03*
%TD*%
D16*
%TO.C,LED13*%
X166668750Y-94762500D03*
D17*
X167918750Y-95312500D03*
X167918750Y-94212500D03*
X165418750Y-94212500D03*
X165418750Y-95312500D03*
%TD*%
D10*
%TO.C,KSW3*%
X180638750Y-70950000D03*
D12*
X185718750Y-70950000D03*
D10*
X190798750Y-70950000D03*
D11*
X188258750Y-65870000D03*
X181908750Y-68410000D03*
D13*
X178633750Y-68410000D03*
D14*
X178633750Y-68410000D03*
X191560750Y-65870000D03*
D13*
X191560750Y-65870000D03*
%TD*%
D10*
%TO.C,KSW26*%
X109201250Y-109050000D03*
D11*
X110471250Y-106510000D03*
X116821250Y-103970000D03*
D10*
X119361250Y-109050000D03*
D12*
X114281250Y-109050000D03*
D14*
X107196250Y-106510000D03*
D13*
X107196250Y-106510000D03*
X120123250Y-103970000D03*
D14*
X120123250Y-103970000D03*
%TD*%
D15*
%TO.C,D9*%
X210000000Y-52650000D03*
X210000000Y-49350000D03*
%TD*%
D11*
%TO.C,KSW24*%
X72371250Y-87460000D03*
D12*
X76181250Y-90000000D03*
D10*
X81261250Y-90000000D03*
D11*
X78721250Y-84920000D03*
D10*
X71101250Y-90000000D03*
D13*
X69096250Y-87460000D03*
D14*
X69096250Y-87460000D03*
D13*
X82023250Y-84920000D03*
D14*
X82023250Y-84920000D03*
%TD*%
D16*
%TO.C,LED6*%
X114281250Y-75712500D03*
D17*
X113031250Y-75162500D03*
X113031250Y-76262500D03*
X115531250Y-76262500D03*
X115531250Y-75162500D03*
%TD*%
D11*
%TO.C,KSW15*%
X188258750Y-123020000D03*
X181908750Y-125560000D03*
D10*
X190798750Y-128100000D03*
X180638750Y-128100000D03*
D12*
X185718750Y-128100000D03*
D14*
X178633750Y-125560000D03*
D13*
X178633750Y-125560000D03*
X191560750Y-123020000D03*
D14*
X191560750Y-123020000D03*
%TD*%
D10*
%TO.C,KSW29*%
X138411250Y-128100000D03*
D12*
X133331250Y-128100000D03*
D10*
X128251250Y-128100000D03*
D11*
X129521250Y-125560000D03*
X135871250Y-123020000D03*
D14*
X126246250Y-125560000D03*
D13*
X126246250Y-125560000D03*
X139173250Y-123020000D03*
D14*
X139173250Y-123020000D03*
%TD*%
D10*
%TO.C,KSW23*%
X100311250Y-90000000D03*
D11*
X91421250Y-87460000D03*
D10*
X90151250Y-90000000D03*
D12*
X95231250Y-90000000D03*
D11*
X97771250Y-84920000D03*
D13*
X88146250Y-87460000D03*
D14*
X88146250Y-87460000D03*
X101073250Y-84920000D03*
D13*
X101073250Y-84920000D03*
%TD*%
D16*
%TO.C,LED12*%
X133331250Y-94762500D03*
D17*
X134581250Y-95312500D03*
X134581250Y-94212500D03*
X132081250Y-94212500D03*
X132081250Y-95312500D03*
%TD*%
D12*
%TO.C,KSW21*%
X133331250Y-90000000D03*
D11*
X129521250Y-87460000D03*
X135871250Y-84920000D03*
D10*
X128251250Y-90000000D03*
X138411250Y-90000000D03*
D13*
X126246250Y-87460000D03*
D14*
X126246250Y-87460000D03*
D13*
X139173250Y-84920000D03*
D14*
X139173250Y-84920000D03*
%TD*%
D16*
%TO.C,LED26*%
X95231250Y-132862500D03*
D17*
X96481250Y-133412500D03*
X96481250Y-132312500D03*
X93981250Y-132312500D03*
X93981250Y-133412500D03*
%TD*%
D10*
%TO.C,KSW19*%
X100311250Y-70950000D03*
D11*
X91421250Y-68410000D03*
X97771250Y-65870000D03*
D12*
X95231250Y-70950000D03*
D10*
X90151250Y-70950000D03*
D14*
X88146250Y-68410000D03*
D13*
X88146250Y-68410000D03*
D14*
X101073250Y-65870000D03*
D13*
X101073250Y-65870000D03*
%TD*%
D16*
%TO.C,LED25*%
X76181250Y-132862500D03*
D17*
X77431250Y-133412500D03*
X77431250Y-132312500D03*
X74931250Y-132312500D03*
X74931250Y-133412500D03*
%TD*%
D12*
%TO.C,KSW30*%
X114281250Y-128100000D03*
D10*
X119361250Y-128100000D03*
D11*
X116821250Y-123020000D03*
X110471250Y-125560000D03*
D10*
X109201250Y-128100000D03*
D13*
X107196250Y-125560000D03*
D14*
X107196250Y-125560000D03*
D13*
X120123250Y-123020000D03*
D14*
X120123250Y-123020000D03*
%TD*%
D15*
%TO.C,D32*%
X89000000Y-59650000D03*
X89000000Y-56350000D03*
%TD*%
D11*
%TO.C,KSW20*%
X72371250Y-68410000D03*
D12*
X76181250Y-70950000D03*
D11*
X78721250Y-65870000D03*
D10*
X81261250Y-70950000D03*
X71101250Y-70950000D03*
D13*
X69096250Y-68410000D03*
D14*
X69096250Y-68410000D03*
X82023250Y-65870000D03*
D13*
X82023250Y-65870000D03*
%TD*%
D15*
%TO.C,D12*%
X198000000Y-52650000D03*
X198000000Y-49350000D03*
%TD*%
%TO.C,D22*%
X97000000Y-45650000D03*
X97000000Y-42350000D03*
%TD*%
D10*
%TO.C,KSW10*%
X199688750Y-109050000D03*
D11*
X207308750Y-103970000D03*
D10*
X209848750Y-109050000D03*
D11*
X200958750Y-106510000D03*
D12*
X204768750Y-109050000D03*
D14*
X197683750Y-106510000D03*
D13*
X197683750Y-106510000D03*
X210610750Y-103970000D03*
D14*
X210610750Y-103970000D03*
%TD*%
D12*
%TO.C,KSW7*%
X185718750Y-90000000D03*
D10*
X190798750Y-90000000D03*
D11*
X181908750Y-87460000D03*
X188258750Y-84920000D03*
D10*
X180638750Y-90000000D03*
D14*
X178633750Y-87460000D03*
D13*
X178633750Y-87460000D03*
D14*
X191560750Y-84920000D03*
D13*
X191560750Y-84920000D03*
%TD*%
D11*
%TO.C,KSW13*%
X220008750Y-125560000D03*
D10*
X218738750Y-128100000D03*
D11*
X226358750Y-123020000D03*
D12*
X223818750Y-128100000D03*
D10*
X228898750Y-128100000D03*
D14*
X216733750Y-125560000D03*
D13*
X216733750Y-125560000D03*
D14*
X229660750Y-123020000D03*
D13*
X229660750Y-123020000D03*
%TD*%
D12*
%TO.C,KSW18*%
X114281250Y-70950000D03*
D11*
X116821250Y-65870000D03*
D10*
X109201250Y-70950000D03*
X119361250Y-70950000D03*
D11*
X110471250Y-68410000D03*
D14*
X107196250Y-68410000D03*
D13*
X107196250Y-68410000D03*
X120123250Y-65870000D03*
D14*
X120123250Y-65870000D03*
%TD*%
D10*
%TO.C,KSW1*%
X228898750Y-70950000D03*
X218738750Y-70950000D03*
D11*
X220008750Y-68410000D03*
X226358750Y-65870000D03*
D12*
X223818750Y-70950000D03*
D14*
X216733750Y-68410000D03*
D13*
X216733750Y-68410000D03*
X229660750Y-65870000D03*
D14*
X229660750Y-65870000D03*
%TD*%
D18*
%TO.C,H1*%
X75000000Y-51000000D03*
%TD*%
D16*
%TO.C,LED17*%
X223818750Y-113812500D03*
D17*
X222568750Y-113262500D03*
X222568750Y-114362500D03*
X225068750Y-114362500D03*
X225068750Y-113262500D03*
%TD*%
D11*
%TO.C,KSW4*%
X169208750Y-65870000D03*
D10*
X161588750Y-70950000D03*
D12*
X166668750Y-70950000D03*
D11*
X162858750Y-68410000D03*
D10*
X171748750Y-70950000D03*
D13*
X159583750Y-68410000D03*
D14*
X159583750Y-68410000D03*
X172510750Y-65870000D03*
D13*
X172510750Y-65870000D03*
%TD*%
D15*
%TO.C,D4*%
X198000000Y-38650000D03*
X198000000Y-35350000D03*
%TD*%
D12*
%TO.C,KSW32*%
X76181250Y-128100000D03*
D11*
X72371250Y-125560000D03*
D10*
X71101250Y-128100000D03*
X81261250Y-128100000D03*
D11*
X78721250Y-123020000D03*
D13*
X69096250Y-125560000D03*
D14*
X69096250Y-125560000D03*
X82023250Y-123020000D03*
D13*
X82023250Y-123020000D03*
%TD*%
D15*
%TO.C,D27*%
X93000000Y-52650000D03*
X93000000Y-49350000D03*
%TD*%
%TO.C,D36*%
X178000000Y-59650000D03*
X178000000Y-56350000D03*
%TD*%
D16*
%TO.C,LED8*%
X76181250Y-75712500D03*
D17*
X74931250Y-75162500D03*
X74931250Y-76262500D03*
X77431250Y-76262500D03*
X77431250Y-75162500D03*
%TD*%
D16*
%TO.C,LED4*%
X166668750Y-75712500D03*
D17*
X165418750Y-75162500D03*
X165418750Y-76262500D03*
X167918750Y-76262500D03*
X167918750Y-75162500D03*
%TD*%
D16*
%TO.C,LED3*%
X185718750Y-75712500D03*
D17*
X184468750Y-75162500D03*
X184468750Y-76262500D03*
X186968750Y-76262500D03*
X186968750Y-75162500D03*
%TD*%
D16*
%TO.C,LED23*%
X95231250Y-113812500D03*
D17*
X93981250Y-113262500D03*
X93981250Y-114362500D03*
X96481250Y-114362500D03*
X96481250Y-113262500D03*
%TD*%
D16*
%TO.C,LED10*%
X95231250Y-94762500D03*
D17*
X96481250Y-95312500D03*
X96481250Y-94212500D03*
X93981250Y-94212500D03*
X93981250Y-95312500D03*
%TD*%
D16*
%TO.C,LED28*%
X133331250Y-132862500D03*
D17*
X134581250Y-133412500D03*
X134581250Y-132312500D03*
X132081250Y-132312500D03*
X132081250Y-133412500D03*
%TD*%
D11*
%TO.C,KSW31*%
X91421250Y-125560000D03*
X97771250Y-123020000D03*
D10*
X90151250Y-128100000D03*
X100311250Y-128100000D03*
D12*
X95231250Y-128100000D03*
D13*
X88146250Y-125560000D03*
D14*
X88146250Y-125560000D03*
D13*
X101073250Y-123020000D03*
D14*
X101073250Y-123020000D03*
%TD*%
D16*
%TO.C,LED24*%
X76181250Y-113812500D03*
D17*
X74931250Y-113262500D03*
X74931250Y-114362500D03*
X77431250Y-114362500D03*
X77431250Y-113262500D03*
%TD*%
D11*
%TO.C,KSW11*%
X188258750Y-103970000D03*
D12*
X185718750Y-109050000D03*
D10*
X180638750Y-109050000D03*
X190798750Y-109050000D03*
D11*
X181908750Y-106510000D03*
D13*
X178633750Y-106510000D03*
D14*
X178633750Y-106510000D03*
D13*
X191560750Y-103970000D03*
D14*
X191560750Y-103970000D03*
%TD*%
D15*
%TO.C,D21*%
X101000000Y-45650000D03*
X101000000Y-42350000D03*
%TD*%
%TO.C,D34*%
X178000000Y-45650000D03*
X178000000Y-42350000D03*
%TD*%
D18*
%TO.C,H3*%
X86500000Y-141500000D03*
%TD*%
D15*
%TO.C,D31*%
X93000000Y-59650000D03*
X93000000Y-56350000D03*
%TD*%
%TO.C,D15*%
X202000000Y-59650000D03*
X202000000Y-56350000D03*
%TD*%
%TO.C,D29*%
X101000000Y-59650000D03*
X101000000Y-56350000D03*
%TD*%
D16*
%TO.C,LED7*%
X95231250Y-75712500D03*
D17*
X93981250Y-75162500D03*
X93981250Y-76262500D03*
X96481250Y-76262500D03*
X96481250Y-75162500D03*
%TD*%
D15*
%TO.C,D35*%
X178000000Y-52650000D03*
X178000000Y-49350000D03*
%TD*%
%TO.C,D13*%
X210000000Y-59650000D03*
X210000000Y-56350000D03*
%TD*%
D10*
%TO.C,KSW2*%
X209848750Y-70950000D03*
D11*
X200958750Y-68410000D03*
D12*
X204768750Y-70950000D03*
D11*
X207308750Y-65870000D03*
D10*
X199688750Y-70950000D03*
D14*
X197683750Y-68410000D03*
D13*
X197683750Y-68410000D03*
D14*
X210610750Y-65870000D03*
D13*
X210610750Y-65870000D03*
%TD*%
D16*
%TO.C,LED5*%
X133331250Y-75712500D03*
D17*
X132081250Y-75162500D03*
X132081250Y-76262500D03*
X134581250Y-76262500D03*
X134581250Y-75162500D03*
%TD*%
D11*
%TO.C,KSW25*%
X129521250Y-106510000D03*
D10*
X138411250Y-109050000D03*
D11*
X135871250Y-103970000D03*
D10*
X128251250Y-109050000D03*
D12*
X133331250Y-109050000D03*
D14*
X126246250Y-106510000D03*
D13*
X126246250Y-106510000D03*
D14*
X139173250Y-103970000D03*
D13*
X139173250Y-103970000D03*
%TD*%
D11*
%TO.C,KSW27*%
X91421250Y-106510000D03*
D10*
X100311250Y-109050000D03*
D11*
X97771250Y-103970000D03*
D10*
X90151250Y-109050000D03*
D12*
X95231250Y-109050000D03*
D14*
X88146250Y-106510000D03*
D13*
X88146250Y-106510000D03*
D14*
X101073250Y-103970000D03*
D13*
X101073250Y-103970000D03*
%TD*%
D16*
%TO.C,LED29*%
X166668750Y-132862500D03*
D17*
X167918750Y-133412500D03*
X167918750Y-132312500D03*
X165418750Y-132312500D03*
X165418750Y-133412500D03*
%TD*%
D16*
%TO.C,LED30*%
X185718750Y-132862500D03*
D17*
X186968750Y-133412500D03*
X186968750Y-132312500D03*
X184468750Y-132312500D03*
X184468750Y-133412500D03*
%TD*%
D18*
%TO.C,H5*%
X150000000Y-100000000D03*
%TD*%
D10*
%TO.C,KSW28*%
X81261250Y-109050000D03*
D11*
X72371250Y-106510000D03*
X78721250Y-103970000D03*
D12*
X76181250Y-109050000D03*
D10*
X71101250Y-109050000D03*
D13*
X69096250Y-106510000D03*
D14*
X69096250Y-106510000D03*
X82023250Y-103970000D03*
D13*
X82023250Y-103970000D03*
%TD*%
D16*
%TO.C,LED2*%
X204768750Y-75712500D03*
D17*
X203518750Y-75162500D03*
X203518750Y-76262500D03*
X206018750Y-76262500D03*
X206018750Y-75162500D03*
%TD*%
D15*
%TO.C,D37*%
X130000000Y-59650000D03*
X130000000Y-56350000D03*
%TD*%
D16*
%TO.C,LED11*%
X114281250Y-94762500D03*
D17*
X115531250Y-95312500D03*
X115531250Y-94212500D03*
X113031250Y-94212500D03*
X113031250Y-95312500D03*
%TD*%
D15*
%TO.C,D11*%
X202000000Y-52650000D03*
X202000000Y-49350000D03*
%TD*%
%TO.C,D5*%
X210000000Y-45650000D03*
X210000000Y-42350000D03*
%TD*%
%TO.C,D8*%
X198000000Y-45650000D03*
X198000000Y-42350000D03*
%TD*%
%TO.C,D2*%
X206000000Y-38650000D03*
X206000000Y-35350000D03*
%TD*%
D16*
%TO.C,LED27*%
X114281250Y-132862500D03*
D17*
X115531250Y-133412500D03*
X115531250Y-132312500D03*
X113031250Y-132312500D03*
X113031250Y-133412500D03*
%TD*%
D16*
%TO.C,LED18*%
X204768750Y-113812500D03*
D17*
X203518750Y-113262500D03*
X203518750Y-114362500D03*
X206018750Y-114362500D03*
X206018750Y-113262500D03*
%TD*%
D15*
%TO.C,D26*%
X97000000Y-52650000D03*
X97000000Y-49350000D03*
%TD*%
%TO.C,D24*%
X89000000Y-45650000D03*
X89000000Y-42350000D03*
%TD*%
D16*
%TO.C,LED16*%
X223818750Y-94762500D03*
D17*
X225068750Y-95312500D03*
X225068750Y-94212500D03*
X222568750Y-94212500D03*
X222568750Y-95312500D03*
%TD*%
D11*
%TO.C,KSW12*%
X162858750Y-106510000D03*
D10*
X171748750Y-109050000D03*
D12*
X166668750Y-109050000D03*
D10*
X161588750Y-109050000D03*
D11*
X169208750Y-103970000D03*
D13*
X159583750Y-106510000D03*
D14*
X159583750Y-106510000D03*
X172510750Y-103970000D03*
D13*
X172510750Y-103970000D03*
%TD*%
D18*
%TO.C,H2*%
X225000000Y-51000000D03*
%TD*%
D15*
%TO.C,D3*%
X202000000Y-38650000D03*
X202000000Y-35350000D03*
%TD*%
D12*
%TO.C,KSW22*%
X114281250Y-90000000D03*
D11*
X110471250Y-87460000D03*
X116821250Y-84920000D03*
D10*
X109201250Y-90000000D03*
X119361250Y-90000000D03*
D13*
X107196250Y-87460000D03*
D14*
X107196250Y-87460000D03*
X120123250Y-84920000D03*
D13*
X120123250Y-84920000D03*
%TD*%
D11*
%TO.C,KSW16*%
X162858750Y-125560000D03*
D10*
X161588750Y-128100000D03*
D12*
X166668750Y-128100000D03*
D10*
X171748750Y-128100000D03*
D11*
X169208750Y-123020000D03*
D14*
X159583750Y-125560000D03*
D13*
X159583750Y-125560000D03*
D14*
X172510750Y-123020000D03*
D13*
X172510750Y-123020000D03*
%TD*%
D15*
%TO.C,D20*%
X89000000Y-38650000D03*
X89000000Y-35350000D03*
%TD*%
D11*
%TO.C,KSW17*%
X129521250Y-68410000D03*
D12*
X133331250Y-70950000D03*
D11*
X135871250Y-65870000D03*
D10*
X138411250Y-70950000D03*
X128251250Y-70950000D03*
D13*
X126246250Y-68410000D03*
D14*
X126246250Y-68410000D03*
D13*
X139173250Y-65870000D03*
D14*
X139173250Y-65870000D03*
%TD*%
D16*
%TO.C,LED31*%
X204768750Y-132862500D03*
D17*
X206018750Y-133412500D03*
X206018750Y-132312500D03*
X203518750Y-132312500D03*
X203518750Y-133412500D03*
%TD*%
D16*
%TO.C,LED21*%
X133331250Y-113812500D03*
D17*
X132081250Y-113262500D03*
X132081250Y-114362500D03*
X134581250Y-114362500D03*
X134581250Y-113262500D03*
%TD*%
D11*
%TO.C,KSW6*%
X207308750Y-84920000D03*
D10*
X199688750Y-90000000D03*
D11*
X200958750Y-87460000D03*
D12*
X204768750Y-90000000D03*
D10*
X209848750Y-90000000D03*
D13*
X197683750Y-87460000D03*
D14*
X197683750Y-87460000D03*
D13*
X210610750Y-84920000D03*
D14*
X210610750Y-84920000D03*
%TD*%
D15*
%TO.C,D10*%
X206000000Y-52650000D03*
X206000000Y-49350000D03*
%TD*%
D16*
%TO.C,LED32*%
X223818750Y-132862500D03*
D17*
X225068750Y-133412500D03*
X225068750Y-132312500D03*
X222568750Y-132312500D03*
X222568750Y-133412500D03*
%TD*%
D16*
%TO.C,LED22*%
X114281250Y-113812500D03*
D17*
X113031250Y-113262500D03*
X113031250Y-114362500D03*
X115531250Y-114362500D03*
X115531250Y-113262500D03*
%TD*%
D16*
%TO.C,LED14*%
X185718750Y-94762500D03*
D17*
X186968750Y-95312500D03*
X186968750Y-94212500D03*
X184468750Y-94212500D03*
X184468750Y-95312500D03*
%TD*%
D15*
%TO.C,D6*%
X206000000Y-45650000D03*
X206000000Y-42350000D03*
%TD*%
%TO.C,D18*%
X97000000Y-38650000D03*
X97000000Y-35350000D03*
%TD*%
D20*
%TO.C,JP2*%
X174000000Y-45650000D03*
D21*
X174000000Y-44350000D03*
%TD*%
D22*
%TO.C,JP8*%
X118000000Y-52350000D03*
D23*
X118000000Y-53650000D03*
%TD*%
D20*
%TO.C,JP1*%
X174000000Y-38650000D03*
D21*
X174000000Y-37350000D03*
%TD*%
D22*
%TO.C,JP5*%
X130000000Y-52350000D03*
D23*
X130000000Y-53650000D03*
%TD*%
D22*
%TO.C,JP7*%
X122000000Y-52350000D03*
D23*
X122000000Y-53650000D03*
%TD*%
D24*
%TO.C,C2*%
X145362500Y-98000000D03*
X143637500Y-98000000D03*
%TD*%
D22*
%TO.C,JP6*%
X126000000Y-52350000D03*
D23*
X126000000Y-53650000D03*
%TD*%
D20*
%TO.C,JP3*%
X174000000Y-52650000D03*
D21*
X174000000Y-51350000D03*
%TD*%
D20*
%TO.C,JP4*%
X174000000Y-59650000D03*
D21*
X174000000Y-58350000D03*
%TD*%
D24*
%TO.C,C1*%
X145362500Y-136500000D03*
X143637500Y-136500000D03*
%TD*%
M02*
