%TF.GenerationSoftware,KiCad,Pcbnew,(6.0.1)*%
%TF.CreationDate,2022-06-19T08:49:54+09:00*%
%TF.ProjectId,yuiop32dm-main,7975696f-7033-4326-946d-2d6d61696e2e,1*%
%TF.SameCoordinates,Original*%
%TF.FileFunction,Soldermask,Top*%
%TF.FilePolarity,Negative*%
%FSLAX46Y46*%
G04 Gerber Fmt 4.6, Leading zero omitted, Abs format (unit mm)*
G04 Created by KiCad (PCBNEW (6.0.1)) date 2022-06-19 08:49:54*
%MOMM*%
%LPD*%
G01*
G04 APERTURE LIST*
%ADD10C,0.150000*%
%ADD11C,0.400000*%
%ADD12C,1.900000*%
%ADD13C,3.050000*%
%ADD14C,4.100000*%
%ADD15C,1.000000*%
%ADD16O,1.500000X3.150000*%
%ADD17C,4.000000*%
%ADD18C,1.524000*%
G04 APERTURE END LIST*
D10*
X153476190Y-142702380D02*
X153476190Y-142035714D01*
X153476190Y-142226190D02*
X153523809Y-142130952D01*
X153571428Y-142083333D01*
X153666666Y-142035714D01*
X153761904Y-142035714D01*
X154476190Y-142654761D02*
X154380952Y-142702380D01*
X154190476Y-142702380D01*
X154095238Y-142654761D01*
X154047619Y-142559523D01*
X154047619Y-142178571D01*
X154095238Y-142083333D01*
X154190476Y-142035714D01*
X154380952Y-142035714D01*
X154476190Y-142083333D01*
X154523809Y-142178571D01*
X154523809Y-142273809D01*
X154047619Y-142369047D01*
X154857142Y-142035714D02*
X155095238Y-142702380D01*
X155333333Y-142035714D01*
X155714285Y-142702380D02*
X155714285Y-142035714D01*
X155714285Y-141702380D02*
X155666666Y-141750000D01*
X155714285Y-141797619D01*
X155761904Y-141750000D01*
X155714285Y-141702380D01*
X155714285Y-141797619D01*
X156142857Y-142654761D02*
X156238095Y-142702380D01*
X156428571Y-142702380D01*
X156523809Y-142654761D01*
X156571428Y-142559523D01*
X156571428Y-142511904D01*
X156523809Y-142416666D01*
X156428571Y-142369047D01*
X156285714Y-142369047D01*
X156190476Y-142321428D01*
X156142857Y-142226190D01*
X156142857Y-142178571D01*
X156190476Y-142083333D01*
X156285714Y-142035714D01*
X156428571Y-142035714D01*
X156523809Y-142083333D01*
X157000000Y-142702380D02*
X157000000Y-142035714D01*
X157000000Y-141702380D02*
X156952380Y-141750000D01*
X157000000Y-141797619D01*
X157047619Y-141750000D01*
X157000000Y-141702380D01*
X157000000Y-141797619D01*
X157619047Y-142702380D02*
X157523809Y-142654761D01*
X157476190Y-142607142D01*
X157428571Y-142511904D01*
X157428571Y-142226190D01*
X157476190Y-142130952D01*
X157523809Y-142083333D01*
X157619047Y-142035714D01*
X157761904Y-142035714D01*
X157857142Y-142083333D01*
X157904761Y-142130952D01*
X157952380Y-142226190D01*
X157952380Y-142511904D01*
X157904761Y-142607142D01*
X157857142Y-142654761D01*
X157761904Y-142702380D01*
X157619047Y-142702380D01*
X158380952Y-142035714D02*
X158380952Y-142702380D01*
X158380952Y-142130952D02*
X158428571Y-142083333D01*
X158523809Y-142035714D01*
X158666666Y-142035714D01*
X158761904Y-142083333D01*
X158809523Y-142178571D01*
X158809523Y-142702380D01*
X160571428Y-142702380D02*
X160000000Y-142702380D01*
X160285714Y-142702380D02*
X160285714Y-141702380D01*
X160190476Y-141845238D01*
X160095238Y-141940476D01*
X160000000Y-141988095D01*
X139976190Y-144452380D02*
X139976190Y-143452380D01*
X139976190Y-144404761D02*
X139880952Y-144452380D01*
X139690476Y-144452380D01*
X139595238Y-144404761D01*
X139547619Y-144357142D01*
X139500000Y-144261904D01*
X139500000Y-143976190D01*
X139547619Y-143880952D01*
X139595238Y-143833333D01*
X139690476Y-143785714D01*
X139880952Y-143785714D01*
X139976190Y-143833333D01*
X140833333Y-144404761D02*
X140738095Y-144452380D01*
X140547619Y-144452380D01*
X140452380Y-144404761D01*
X140404761Y-144309523D01*
X140404761Y-143928571D01*
X140452380Y-143833333D01*
X140547619Y-143785714D01*
X140738095Y-143785714D01*
X140833333Y-143833333D01*
X140880952Y-143928571D01*
X140880952Y-144023809D01*
X140404761Y-144119047D01*
X141261904Y-144404761D02*
X141357142Y-144452380D01*
X141547619Y-144452380D01*
X141642857Y-144404761D01*
X141690476Y-144309523D01*
X141690476Y-144261904D01*
X141642857Y-144166666D01*
X141547619Y-144119047D01*
X141404761Y-144119047D01*
X141309523Y-144071428D01*
X141261904Y-143976190D01*
X141261904Y-143928571D01*
X141309523Y-143833333D01*
X141404761Y-143785714D01*
X141547619Y-143785714D01*
X141642857Y-143833333D01*
X142119047Y-144452380D02*
X142119047Y-143785714D01*
X142119047Y-143452380D02*
X142071428Y-143500000D01*
X142119047Y-143547619D01*
X142166666Y-143500000D01*
X142119047Y-143452380D01*
X142119047Y-143547619D01*
X143023809Y-143785714D02*
X143023809Y-144595238D01*
X142976190Y-144690476D01*
X142928571Y-144738095D01*
X142833333Y-144785714D01*
X142690476Y-144785714D01*
X142595238Y-144738095D01*
X143023809Y-144404761D02*
X142928571Y-144452380D01*
X142738095Y-144452380D01*
X142642857Y-144404761D01*
X142595238Y-144357142D01*
X142547619Y-144261904D01*
X142547619Y-143976190D01*
X142595238Y-143880952D01*
X142642857Y-143833333D01*
X142738095Y-143785714D01*
X142928571Y-143785714D01*
X143023809Y-143833333D01*
X143500000Y-143785714D02*
X143500000Y-144452380D01*
X143500000Y-143880952D02*
X143547619Y-143833333D01*
X143642857Y-143785714D01*
X143785714Y-143785714D01*
X143880952Y-143833333D01*
X143928571Y-143928571D01*
X143928571Y-144452380D01*
X144785714Y-144404761D02*
X144690476Y-144452380D01*
X144500000Y-144452380D01*
X144404761Y-144404761D01*
X144357142Y-144309523D01*
X144357142Y-143928571D01*
X144404761Y-143833333D01*
X144500000Y-143785714D01*
X144690476Y-143785714D01*
X144785714Y-143833333D01*
X144833333Y-143928571D01*
X144833333Y-144023809D01*
X144357142Y-144119047D01*
X145690476Y-144452380D02*
X145690476Y-143452380D01*
X145690476Y-144404761D02*
X145595238Y-144452380D01*
X145404761Y-144452380D01*
X145309523Y-144404761D01*
X145261904Y-144357142D01*
X145214285Y-144261904D01*
X145214285Y-143976190D01*
X145261904Y-143880952D01*
X145309523Y-143833333D01*
X145404761Y-143785714D01*
X145595238Y-143785714D01*
X145690476Y-143833333D01*
X146928571Y-144452380D02*
X146928571Y-143452380D01*
X146928571Y-143833333D02*
X147023809Y-143785714D01*
X147214285Y-143785714D01*
X147309523Y-143833333D01*
X147357142Y-143880952D01*
X147404761Y-143976190D01*
X147404761Y-144261904D01*
X147357142Y-144357142D01*
X147309523Y-144404761D01*
X147214285Y-144452380D01*
X147023809Y-144452380D01*
X146928571Y-144404761D01*
X147738095Y-143785714D02*
X147976190Y-144452380D01*
X148214285Y-143785714D02*
X147976190Y-144452380D01*
X147880952Y-144690476D01*
X147833333Y-144738095D01*
X147738095Y-144785714D01*
X149357142Y-144452380D02*
X149357142Y-143452380D01*
X149928571Y-144452380D02*
X149500000Y-143880952D01*
X149928571Y-143452380D02*
X149357142Y-144023809D01*
X150500000Y-144452380D02*
X150404761Y-144404761D01*
X150357142Y-144357142D01*
X150309523Y-144261904D01*
X150309523Y-143976190D01*
X150357142Y-143880952D01*
X150404761Y-143833333D01*
X150500000Y-143785714D01*
X150642857Y-143785714D01*
X150738095Y-143833333D01*
X150785714Y-143880952D01*
X150833333Y-143976190D01*
X150833333Y-144261904D01*
X150785714Y-144357142D01*
X150738095Y-144404761D01*
X150642857Y-144452380D01*
X150500000Y-144452380D01*
X151833333Y-144452380D02*
X151500000Y-143976190D01*
X151261904Y-144452380D02*
X151261904Y-143452380D01*
X151642857Y-143452380D01*
X151738095Y-143500000D01*
X151785714Y-143547619D01*
X151833333Y-143642857D01*
X151833333Y-143785714D01*
X151785714Y-143880952D01*
X151738095Y-143928571D01*
X151642857Y-143976190D01*
X151261904Y-143976190D01*
X152404761Y-144452380D02*
X152309523Y-144404761D01*
X152261904Y-144357142D01*
X152214285Y-144261904D01*
X152214285Y-143976190D01*
X152261904Y-143880952D01*
X152309523Y-143833333D01*
X152404761Y-143785714D01*
X152547619Y-143785714D01*
X152642857Y-143833333D01*
X152690476Y-143880952D01*
X152738095Y-143976190D01*
X152738095Y-144261904D01*
X152690476Y-144357142D01*
X152642857Y-144404761D01*
X152547619Y-144452380D01*
X152404761Y-144452380D01*
X153166666Y-144452380D02*
X153166666Y-143452380D01*
X153738095Y-144452380D01*
X153738095Y-143452380D01*
X154928571Y-143404761D02*
X154071428Y-144690476D01*
X155261904Y-144452380D02*
X155261904Y-143452380D01*
X155833333Y-144452380D02*
X155404761Y-143880952D01*
X155833333Y-143452380D02*
X155261904Y-144023809D01*
X156690476Y-144452380D02*
X156690476Y-143928571D01*
X156642857Y-143833333D01*
X156547619Y-143785714D01*
X156357142Y-143785714D01*
X156261904Y-143833333D01*
X156690476Y-144404761D02*
X156595238Y-144452380D01*
X156357142Y-144452380D01*
X156261904Y-144404761D01*
X156214285Y-144309523D01*
X156214285Y-144214285D01*
X156261904Y-144119047D01*
X156357142Y-144071428D01*
X156595238Y-144071428D01*
X156690476Y-144023809D01*
X157309523Y-144452380D02*
X157214285Y-144404761D01*
X157166666Y-144357142D01*
X157119047Y-144261904D01*
X157119047Y-143976190D01*
X157166666Y-143880952D01*
X157214285Y-143833333D01*
X157309523Y-143785714D01*
X157452380Y-143785714D01*
X157547619Y-143833333D01*
X157595238Y-143880952D01*
X157642857Y-143976190D01*
X157642857Y-144261904D01*
X157595238Y-144357142D01*
X157547619Y-144404761D01*
X157452380Y-144452380D01*
X157309523Y-144452380D01*
X158071428Y-144452380D02*
X158071428Y-143785714D01*
X158071428Y-143976190D02*
X158119047Y-143880952D01*
X158166666Y-143833333D01*
X158261904Y-143785714D01*
X158357142Y-143785714D01*
X158690476Y-144452380D02*
X158690476Y-143785714D01*
X158690476Y-143452380D02*
X158642857Y-143500000D01*
X158690476Y-143547619D01*
X158738095Y-143500000D01*
X158690476Y-143452380D01*
X158690476Y-143547619D01*
X159357142Y-143976190D02*
X159357142Y-144452380D01*
X159023809Y-143452380D02*
X159357142Y-143976190D01*
X159690476Y-143452380D01*
X160452380Y-144452380D02*
X160452380Y-143928571D01*
X160404761Y-143833333D01*
X160309523Y-143785714D01*
X160119047Y-143785714D01*
X160023809Y-143833333D01*
X160452380Y-144404761D02*
X160357142Y-144452380D01*
X160119047Y-144452380D01*
X160023809Y-144404761D01*
X159976190Y-144309523D01*
X159976190Y-144214285D01*
X160023809Y-144119047D01*
X160119047Y-144071428D01*
X160357142Y-144071428D01*
X160452380Y-144023809D01*
D11*
X140876190Y-139416666D02*
X140876190Y-141083333D01*
X140042857Y-137583333D02*
X140876190Y-139416666D01*
X141709523Y-137583333D01*
X142542857Y-137583333D02*
X142542857Y-140416666D01*
X142661904Y-140750000D01*
X142780952Y-140916666D01*
X143019047Y-141083333D01*
X143495238Y-141083333D01*
X143733333Y-140916666D01*
X143852380Y-140750000D01*
X143971428Y-140416666D01*
X143971428Y-137583333D01*
X145161904Y-141083333D02*
X145161904Y-137583333D01*
X146828571Y-137583333D02*
X147304761Y-137583333D01*
X147542857Y-137750000D01*
X147780952Y-138083333D01*
X147900000Y-138750000D01*
X147900000Y-139916666D01*
X147780952Y-140583333D01*
X147542857Y-140916666D01*
X147304761Y-141083333D01*
X146828571Y-141083333D01*
X146590476Y-140916666D01*
X146352380Y-140583333D01*
X146233333Y-139916666D01*
X146233333Y-138750000D01*
X146352380Y-138083333D01*
X146590476Y-137750000D01*
X146828571Y-137583333D01*
X148971428Y-141083333D02*
X148971428Y-137583333D01*
X149923809Y-137583333D01*
X150161904Y-137750000D01*
X150280952Y-137916666D01*
X150400000Y-138250000D01*
X150400000Y-138750000D01*
X150280952Y-139083333D01*
X150161904Y-139250000D01*
X149923809Y-139416666D01*
X148971428Y-139416666D01*
X151233333Y-137583333D02*
X152780952Y-137583333D01*
X151947619Y-138916666D01*
X152304761Y-138916666D01*
X152542857Y-139083333D01*
X152661904Y-139250000D01*
X152780952Y-139583333D01*
X152780952Y-140416666D01*
X152661904Y-140750000D01*
X152542857Y-140916666D01*
X152304761Y-141083333D01*
X151590476Y-141083333D01*
X151352380Y-140916666D01*
X151233333Y-140750000D01*
X153733333Y-137916666D02*
X153852380Y-137750000D01*
X154090476Y-137583333D01*
X154685714Y-137583333D01*
X154923809Y-137750000D01*
X155042857Y-137916666D01*
X155161904Y-138250000D01*
X155161904Y-138583333D01*
X155042857Y-139083333D01*
X153614285Y-141083333D01*
X155161904Y-141083333D01*
X156233333Y-141083333D02*
X156233333Y-137583333D01*
X156828571Y-137583333D01*
X157185714Y-137750000D01*
X157423809Y-138083333D01*
X157542857Y-138416666D01*
X157661904Y-139083333D01*
X157661904Y-139583333D01*
X157542857Y-140250000D01*
X157423809Y-140583333D01*
X157185714Y-140916666D01*
X156828571Y-141083333D01*
X156233333Y-141083333D01*
X158733333Y-141083333D02*
X158733333Y-137583333D01*
X159566666Y-140083333D01*
X160400000Y-137583333D01*
X160400000Y-141083333D01*
D12*
%TO.C,KSW14*%
X199688750Y-128100000D03*
D13*
X200958750Y-125560000D03*
D12*
X209848750Y-128100000D03*
D13*
X207308750Y-123020000D03*
D14*
X204768750Y-128100000D03*
D15*
X197683750Y-125560000D03*
X210610750Y-123020000D03*
%TD*%
D16*
%TO.C,LED20*%
X166668750Y-113812500D03*
%TD*%
%TO.C,LED15*%
X204768750Y-94762500D03*
%TD*%
D13*
%TO.C,KSW8*%
X162858750Y-87460000D03*
D14*
X166668750Y-90000000D03*
D13*
X169208750Y-84920000D03*
D12*
X171748750Y-90000000D03*
X161588750Y-90000000D03*
D15*
X159583750Y-87460000D03*
X172510750Y-84920000D03*
%TD*%
D16*
%TO.C,LED19*%
X185718750Y-113812500D03*
%TD*%
%TO.C,LED1*%
X223818750Y-75712500D03*
%TD*%
D17*
%TO.C,H4*%
X213500000Y-141500000D03*
%TD*%
D16*
%TO.C,LED9*%
X76181250Y-94762500D03*
%TD*%
D13*
%TO.C,KSW9*%
X226358750Y-103970000D03*
D14*
X223818750Y-109050000D03*
D12*
X228898750Y-109050000D03*
D13*
X220008750Y-106510000D03*
D12*
X218738750Y-109050000D03*
D15*
X216733750Y-106510000D03*
X229660750Y-103970000D03*
%TD*%
D14*
%TO.C,KSW5*%
X223818750Y-90000000D03*
D13*
X220008750Y-87460000D03*
D12*
X218738750Y-90000000D03*
X228898750Y-90000000D03*
D13*
X226358750Y-84920000D03*
D15*
X216733750Y-87460000D03*
X229660750Y-84920000D03*
%TD*%
D16*
%TO.C,LED13*%
X166668750Y-94762500D03*
%TD*%
D12*
%TO.C,KSW3*%
X180638750Y-70950000D03*
D14*
X185718750Y-70950000D03*
D12*
X190798750Y-70950000D03*
D13*
X188258750Y-65870000D03*
X181908750Y-68410000D03*
D15*
X178633750Y-68410000D03*
X191560750Y-65870000D03*
%TD*%
D12*
%TO.C,KSW26*%
X109201250Y-109050000D03*
D13*
X110471250Y-106510000D03*
X116821250Y-103970000D03*
D12*
X119361250Y-109050000D03*
D14*
X114281250Y-109050000D03*
D15*
X107196250Y-106510000D03*
X120123250Y-103970000D03*
%TD*%
D13*
%TO.C,KSW24*%
X72371250Y-87460000D03*
D14*
X76181250Y-90000000D03*
D12*
X81261250Y-90000000D03*
D13*
X78721250Y-84920000D03*
D12*
X71101250Y-90000000D03*
D15*
X69096250Y-87460000D03*
X82023250Y-84920000D03*
%TD*%
D16*
%TO.C,LED6*%
X114281250Y-75712500D03*
%TD*%
D13*
%TO.C,KSW15*%
X188258750Y-123020000D03*
X181908750Y-125560000D03*
D12*
X190798750Y-128100000D03*
X180638750Y-128100000D03*
D14*
X185718750Y-128100000D03*
D15*
X178633750Y-125560000D03*
X191560750Y-123020000D03*
%TD*%
D12*
%TO.C,KSW29*%
X138411250Y-128100000D03*
D14*
X133331250Y-128100000D03*
D12*
X128251250Y-128100000D03*
D13*
X129521250Y-125560000D03*
X135871250Y-123020000D03*
D15*
X126246250Y-125560000D03*
X139173250Y-123020000D03*
%TD*%
D12*
%TO.C,KSW23*%
X100311250Y-90000000D03*
D13*
X91421250Y-87460000D03*
D12*
X90151250Y-90000000D03*
D14*
X95231250Y-90000000D03*
D13*
X97771250Y-84920000D03*
D15*
X88146250Y-87460000D03*
X101073250Y-84920000D03*
%TD*%
D16*
%TO.C,LED12*%
X133331250Y-94762500D03*
%TD*%
D14*
%TO.C,KSW21*%
X133331250Y-90000000D03*
D13*
X129521250Y-87460000D03*
X135871250Y-84920000D03*
D12*
X128251250Y-90000000D03*
X138411250Y-90000000D03*
D15*
X126246250Y-87460000D03*
X139173250Y-84920000D03*
%TD*%
D16*
%TO.C,LED26*%
X95231250Y-132862500D03*
%TD*%
D12*
%TO.C,KSW19*%
X100311250Y-70950000D03*
D13*
X91421250Y-68410000D03*
X97771250Y-65870000D03*
D14*
X95231250Y-70950000D03*
D12*
X90151250Y-70950000D03*
D15*
X88146250Y-68410000D03*
X101073250Y-65870000D03*
%TD*%
D16*
%TO.C,LED25*%
X76181250Y-132862500D03*
%TD*%
D14*
%TO.C,KSW30*%
X114281250Y-128100000D03*
D12*
X119361250Y-128100000D03*
D13*
X116821250Y-123020000D03*
X110471250Y-125560000D03*
D12*
X109201250Y-128100000D03*
D15*
X107196250Y-125560000D03*
X120123250Y-123020000D03*
%TD*%
D13*
%TO.C,KSW20*%
X72371250Y-68410000D03*
D14*
X76181250Y-70950000D03*
D13*
X78721250Y-65870000D03*
D12*
X81261250Y-70950000D03*
X71101250Y-70950000D03*
D15*
X69096250Y-68410000D03*
X82023250Y-65870000D03*
%TD*%
D12*
%TO.C,KSW10*%
X199688750Y-109050000D03*
D13*
X207308750Y-103970000D03*
D12*
X209848750Y-109050000D03*
D13*
X200958750Y-106510000D03*
D14*
X204768750Y-109050000D03*
D15*
X197683750Y-106510000D03*
X210610750Y-103970000D03*
%TD*%
D14*
%TO.C,KSW7*%
X185718750Y-90000000D03*
D12*
X190798750Y-90000000D03*
D13*
X181908750Y-87460000D03*
X188258750Y-84920000D03*
D12*
X180638750Y-90000000D03*
D15*
X178633750Y-87460000D03*
X191560750Y-84920000D03*
%TD*%
D13*
%TO.C,KSW13*%
X220008750Y-125560000D03*
D12*
X218738750Y-128100000D03*
D13*
X226358750Y-123020000D03*
D14*
X223818750Y-128100000D03*
D12*
X228898750Y-128100000D03*
D15*
X216733750Y-125560000D03*
X229660750Y-123020000D03*
%TD*%
D14*
%TO.C,KSW18*%
X114281250Y-70950000D03*
D13*
X116821250Y-65870000D03*
D12*
X109201250Y-70950000D03*
X119361250Y-70950000D03*
D13*
X110471250Y-68410000D03*
D15*
X107196250Y-68410000D03*
X120123250Y-65870000D03*
%TD*%
D12*
%TO.C,KSW1*%
X228898750Y-70950000D03*
X218738750Y-70950000D03*
D13*
X220008750Y-68410000D03*
X226358750Y-65870000D03*
D14*
X223818750Y-70950000D03*
D15*
X216733750Y-68410000D03*
X229660750Y-65870000D03*
%TD*%
D17*
%TO.C,H1*%
X75000000Y-51000000D03*
%TD*%
D16*
%TO.C,LED17*%
X223818750Y-113812500D03*
%TD*%
D13*
%TO.C,KSW4*%
X169208750Y-65870000D03*
D12*
X161588750Y-70950000D03*
D14*
X166668750Y-70950000D03*
D13*
X162858750Y-68410000D03*
D12*
X171748750Y-70950000D03*
D15*
X159583750Y-68410000D03*
X172510750Y-65870000D03*
%TD*%
D14*
%TO.C,KSW32*%
X76181250Y-128100000D03*
D13*
X72371250Y-125560000D03*
D12*
X71101250Y-128100000D03*
X81261250Y-128100000D03*
D13*
X78721250Y-123020000D03*
D15*
X69096250Y-125560000D03*
X82023250Y-123020000D03*
%TD*%
D16*
%TO.C,LED8*%
X76181250Y-75712500D03*
%TD*%
%TO.C,LED4*%
X166668750Y-75712500D03*
%TD*%
%TO.C,LED3*%
X185718750Y-75712500D03*
%TD*%
%TO.C,LED23*%
X95231250Y-113812500D03*
%TD*%
%TO.C,LED10*%
X95231250Y-94762500D03*
%TD*%
%TO.C,LED28*%
X133331250Y-132862500D03*
%TD*%
D13*
%TO.C,KSW31*%
X91421250Y-125560000D03*
X97771250Y-123020000D03*
D12*
X90151250Y-128100000D03*
X100311250Y-128100000D03*
D14*
X95231250Y-128100000D03*
D15*
X88146250Y-125560000D03*
X101073250Y-123020000D03*
%TD*%
D16*
%TO.C,LED24*%
X76181250Y-113812500D03*
%TD*%
D13*
%TO.C,KSW11*%
X188258750Y-103970000D03*
D14*
X185718750Y-109050000D03*
D12*
X180638750Y-109050000D03*
X190798750Y-109050000D03*
D13*
X181908750Y-106510000D03*
D15*
X178633750Y-106510000D03*
X191560750Y-103970000D03*
%TD*%
D17*
%TO.C,H3*%
X86500000Y-141500000D03*
%TD*%
D16*
%TO.C,LED7*%
X95231250Y-75712500D03*
%TD*%
D12*
%TO.C,KSW2*%
X209848750Y-70950000D03*
D13*
X200958750Y-68410000D03*
D14*
X204768750Y-70950000D03*
D13*
X207308750Y-65870000D03*
D12*
X199688750Y-70950000D03*
D15*
X197683750Y-68410000D03*
X210610750Y-65870000D03*
%TD*%
D16*
%TO.C,LED5*%
X133331250Y-75712500D03*
%TD*%
D13*
%TO.C,KSW25*%
X129521250Y-106510000D03*
D12*
X138411250Y-109050000D03*
D13*
X135871250Y-103970000D03*
D12*
X128251250Y-109050000D03*
D14*
X133331250Y-109050000D03*
D15*
X126246250Y-106510000D03*
X139173250Y-103970000D03*
%TD*%
D13*
%TO.C,KSW27*%
X91421250Y-106510000D03*
D12*
X100311250Y-109050000D03*
D13*
X97771250Y-103970000D03*
D12*
X90151250Y-109050000D03*
D14*
X95231250Y-109050000D03*
D15*
X88146250Y-106510000D03*
X101073250Y-103970000D03*
%TD*%
D16*
%TO.C,LED29*%
X166668750Y-132862500D03*
%TD*%
%TO.C,LED30*%
X185718750Y-132862500D03*
%TD*%
D17*
%TO.C,H5*%
X150000000Y-100000000D03*
%TD*%
D12*
%TO.C,KSW28*%
X81261250Y-109050000D03*
D13*
X72371250Y-106510000D03*
X78721250Y-103970000D03*
D14*
X76181250Y-109050000D03*
D12*
X71101250Y-109050000D03*
D15*
X69096250Y-106510000D03*
X82023250Y-103970000D03*
%TD*%
D16*
%TO.C,LED2*%
X204768750Y-75712500D03*
%TD*%
%TO.C,LED11*%
X114281250Y-94762500D03*
%TD*%
%TO.C,LED27*%
X114281250Y-132862500D03*
%TD*%
%TO.C,LED18*%
X204768750Y-113812500D03*
%TD*%
%TO.C,LED16*%
X223818750Y-94762500D03*
%TD*%
D13*
%TO.C,KSW12*%
X162858750Y-106510000D03*
D12*
X171748750Y-109050000D03*
D14*
X166668750Y-109050000D03*
D12*
X161588750Y-109050000D03*
D13*
X169208750Y-103970000D03*
D15*
X159583750Y-106510000D03*
X172510750Y-103970000D03*
%TD*%
D17*
%TO.C,H2*%
X225000000Y-51000000D03*
%TD*%
D14*
%TO.C,KSW22*%
X114281250Y-90000000D03*
D13*
X110471250Y-87460000D03*
X116821250Y-84920000D03*
D12*
X109201250Y-90000000D03*
X119361250Y-90000000D03*
D15*
X107196250Y-87460000D03*
X120123250Y-84920000D03*
%TD*%
D13*
%TO.C,KSW16*%
X162858750Y-125560000D03*
D12*
X161588750Y-128100000D03*
D14*
X166668750Y-128100000D03*
D12*
X171748750Y-128100000D03*
D13*
X169208750Y-123020000D03*
D15*
X159583750Y-125560000D03*
X172510750Y-123020000D03*
%TD*%
D13*
%TO.C,KSW17*%
X129521250Y-68410000D03*
D14*
X133331250Y-70950000D03*
D13*
X135871250Y-65870000D03*
D12*
X138411250Y-70950000D03*
X128251250Y-70950000D03*
D15*
X126246250Y-68410000D03*
X139173250Y-65870000D03*
%TD*%
D16*
%TO.C,LED31*%
X204768750Y-132862500D03*
%TD*%
%TO.C,LED21*%
X133331250Y-113812500D03*
%TD*%
D13*
%TO.C,KSW6*%
X207308750Y-84920000D03*
D12*
X199688750Y-90000000D03*
D13*
X200958750Y-87460000D03*
D14*
X204768750Y-90000000D03*
D12*
X209848750Y-90000000D03*
D15*
X197683750Y-87460000D03*
X210610750Y-84920000D03*
%TD*%
D16*
%TO.C,LED32*%
X223818750Y-132862500D03*
%TD*%
%TO.C,LED22*%
X114281250Y-113812500D03*
%TD*%
%TO.C,LED14*%
X185718750Y-94762500D03*
%TD*%
D18*
%TO.C,U1*%
X142388600Y-35847000D03*
X142388600Y-38387000D03*
X142388600Y-40927000D03*
X142388600Y-43467000D03*
X142388600Y-46007000D03*
X142388600Y-48547000D03*
X142388600Y-51087000D03*
X142388600Y-53627000D03*
X142388600Y-56167000D03*
X142388600Y-58707000D03*
X142388600Y-61247000D03*
X142388600Y-63787000D03*
X157608600Y-63787000D03*
X157608600Y-61247000D03*
X157608600Y-58707000D03*
X157608600Y-56167000D03*
X157608600Y-53627000D03*
X157608600Y-51087000D03*
X157608600Y-48547000D03*
X157608600Y-46007000D03*
X157608600Y-43467000D03*
X157608600Y-40927000D03*
X157608600Y-38387000D03*
X157608600Y-35847000D03*
%TD*%
M02*
