M48
; DRILL file {KiCad (6.0.1)} date Sun Jun 19 08:50:25 2022
; FORMAT={-:-/ absolute / metric / decimal}
; #@! TF.CreationDate,2022-06-19T08:50:25+09:00
; #@! TF.GenerationSoftware,Kicad,Pcbnew,(6.0.1)
; #@! TF.FileFunction,MixedPlating,1,2
FMAT,2
METRIC
; #@! TA.AperFunction,Plated,PTH,ViaDrill
T1C0.400
; #@! TA.AperFunction,Plated,PTH,ComponentDrill
T2C0.400
; #@! TA.AperFunction,Plated,PTH,ComponentDrill
T3C0.813
; #@! TA.AperFunction,Plated,PTH,ComponentDrill
T4C1.300
; #@! TA.AperFunction,Plated,PTH,ComponentDrill
T5C2.200
; #@! TA.AperFunction,NonPlated,NPTH,ComponentDrill
T6C1.500
; #@! TA.AperFunction,NonPlated,NPTH,ComponentDrill
T7C1.900
; #@! TA.AperFunction,NonPlated,NPTH,ComponentDrill
T8C3.050
; #@! TA.AperFunction,NonPlated,NPTH,ComponentDrill
T9C4.100
%
G90
G05
T1
X89.0Y-39.5
X89.0Y-46.5
X89.0Y-53.5
X89.0Y-60.5
X93.0Y-39.5
X93.0Y-46.5
X93.0Y-53.5
X93.0Y-60.5
X97.0Y-39.5
X97.0Y-46.5
X97.0Y-53.5
X97.0Y-58.5
X101.0Y-38.0
X101.0Y-44.5
X101.0Y-58.5
X102.913Y-53.413
X120.0Y-54.0
X124.0Y-53.941
X128.0Y-54.0
X132.0Y-54.0
X154.762Y-73.688
X154.762Y-96.8
X154.762Y-111.8
X154.762Y-134.9
X198.0Y-36.5
X198.0Y-43.5
X198.0Y-50.5
X198.0Y-55.5
X202.0Y-36.5
X202.0Y-43.5
X202.0Y-50.5
X202.0Y-57.5
X206.0Y-36.5
X206.0Y-43.5
X206.0Y-50.5
X206.0Y-57.5
X210.0Y-36.5
X210.0Y-43.5
X210.0Y-50.5
X210.0Y-57.5
T2
X69.096Y-68.41
X69.096Y-87.46
X69.096Y-106.51
X69.096Y-125.56
X82.023Y-65.87
X82.023Y-84.92
X82.023Y-103.97
X82.023Y-123.02
X88.146Y-68.41
X88.146Y-87.46
X88.146Y-106.51
X88.146Y-125.56
X101.073Y-65.87
X101.073Y-84.92
X101.073Y-103.97
X101.073Y-123.02
X107.196Y-68.41
X107.196Y-87.46
X107.196Y-106.51
X107.196Y-125.56
X120.123Y-65.87
X120.123Y-84.92
X120.123Y-103.97
X120.123Y-123.02
X126.246Y-68.41
X126.246Y-87.46
X126.246Y-106.51
X126.246Y-125.56
X139.173Y-65.87
X139.173Y-84.92
X139.173Y-103.97
X139.173Y-123.02
X159.584Y-68.41
X159.584Y-87.46
X159.584Y-106.51
X159.584Y-125.56
X172.511Y-65.87
X172.511Y-84.92
X172.511Y-103.97
X172.511Y-123.02
X178.634Y-68.41
X178.634Y-87.46
X178.634Y-106.51
X178.634Y-125.56
X191.561Y-65.87
X191.561Y-84.92
X191.561Y-103.97
X191.561Y-123.02
X197.684Y-68.41
X197.684Y-87.46
X197.684Y-106.51
X197.684Y-125.56
X210.611Y-65.87
X210.611Y-84.92
X210.611Y-103.97
X210.611Y-123.02
X216.734Y-68.41
X216.734Y-87.46
X216.734Y-106.51
X216.734Y-125.56
X229.661Y-65.87
X229.661Y-84.92
X229.661Y-103.97
X229.661Y-123.02
T3
X142.389Y-35.847
X142.389Y-38.387
X142.389Y-40.927
X142.389Y-43.467
X142.389Y-46.007
X142.389Y-48.547
X142.389Y-51.087
X142.389Y-53.627
X142.389Y-56.167
X142.389Y-58.707
X142.389Y-61.247
X142.389Y-63.787
X157.609Y-35.847
X157.609Y-38.387
X157.609Y-40.927
X157.609Y-43.467
X157.609Y-46.007
X157.609Y-48.547
X157.609Y-51.087
X157.609Y-53.627
X157.609Y-56.167
X157.609Y-58.707
X157.609Y-61.247
X157.609Y-63.787
T4
X120.75Y-35.0
X127.25Y-35.0
T5
X75.0Y-51.0
X86.5Y-141.5
X150.0Y-100.0
X213.5Y-141.5
X225.0Y-51.0
T7
X71.101Y-70.95
X71.101Y-90.0
X71.101Y-109.05
X71.101Y-128.1
X81.261Y-70.95
X81.261Y-90.0
X81.261Y-109.05
X81.261Y-128.1
X90.151Y-70.95
X90.151Y-90.0
X90.151Y-109.05
X90.151Y-128.1
X100.311Y-70.95
X100.311Y-90.0
X100.311Y-109.05
X100.311Y-128.1
X109.201Y-70.95
X109.201Y-90.0
X109.201Y-109.05
X109.201Y-128.1
X119.361Y-70.95
X119.361Y-90.0
X119.361Y-109.05
X119.361Y-128.1
X128.251Y-70.95
X128.251Y-90.0
X128.251Y-109.05
X128.251Y-128.1
X138.411Y-70.95
X138.411Y-90.0
X138.411Y-109.05
X138.411Y-128.1
X161.589Y-70.95
X161.589Y-90.0
X161.589Y-109.05
X161.589Y-128.1
X171.749Y-70.95
X171.749Y-90.0
X171.749Y-109.05
X171.749Y-128.1
X180.639Y-70.95
X180.639Y-90.0
X180.639Y-109.05
X180.639Y-128.1
X190.799Y-70.95
X190.799Y-90.0
X190.799Y-109.05
X190.799Y-128.1
X199.689Y-70.95
X199.689Y-90.0
X199.689Y-109.05
X199.689Y-128.1
X209.849Y-70.95
X209.849Y-90.0
X209.849Y-109.05
X209.849Y-128.1
X218.739Y-70.95
X218.739Y-90.0
X218.739Y-109.05
X218.739Y-128.1
X228.899Y-70.95
X228.899Y-90.0
X228.899Y-109.05
X228.899Y-128.1
T8
X72.371Y-68.41
X72.371Y-87.46
X72.371Y-106.51
X72.371Y-125.56
X78.721Y-65.87
X78.721Y-84.92
X78.721Y-103.97
X78.721Y-123.02
X91.421Y-68.41
X91.421Y-87.46
X91.421Y-106.51
X91.421Y-125.56
X97.771Y-65.87
X97.771Y-84.92
X97.771Y-103.97
X97.771Y-123.02
X110.471Y-68.41
X110.471Y-87.46
X110.471Y-106.51
X110.471Y-125.56
X116.821Y-65.87
X116.821Y-84.92
X116.821Y-103.97
X116.821Y-123.02
X129.521Y-68.41
X129.521Y-87.46
X129.521Y-106.51
X129.521Y-125.56
X135.871Y-65.87
X135.871Y-84.92
X135.871Y-103.97
X135.871Y-123.02
X162.859Y-68.41
X162.859Y-87.46
X162.859Y-106.51
X162.859Y-125.56
X169.209Y-65.87
X169.209Y-84.92
X169.209Y-103.97
X169.209Y-123.02
X181.909Y-68.41
X181.909Y-87.46
X181.909Y-106.51
X181.909Y-125.56
X188.259Y-65.87
X188.259Y-84.92
X188.259Y-103.97
X188.259Y-123.02
X200.959Y-68.41
X200.959Y-87.46
X200.959Y-106.51
X200.959Y-125.56
X207.309Y-65.87
X207.309Y-84.92
X207.309Y-103.97
X207.309Y-123.02
X220.009Y-68.41
X220.009Y-87.46
X220.009Y-106.51
X220.009Y-125.56
X226.359Y-65.87
X226.359Y-84.92
X226.359Y-103.97
X226.359Y-123.02
T9
X76.181Y-70.95
X76.181Y-90.0
X76.181Y-109.05
X76.181Y-128.1
X95.231Y-70.95
X95.231Y-90.0
X95.231Y-109.05
X95.231Y-128.1
X114.281Y-70.95
X114.281Y-90.0
X114.281Y-109.05
X114.281Y-128.1
X133.331Y-70.95
X133.331Y-90.0
X133.331Y-109.05
X133.331Y-128.1
X166.669Y-70.95
X166.669Y-90.0
X166.669Y-109.05
X166.669Y-128.1
X185.719Y-70.95
X185.719Y-90.0
X185.719Y-109.05
X185.719Y-128.1
X204.769Y-70.95
X204.769Y-90.0
X204.769Y-109.05
X204.769Y-128.1
X223.819Y-70.95
X223.819Y-90.0
X223.819Y-109.05
X223.819Y-128.1
T6
G00X76.181Y-74.888
M15
G01X76.181Y-76.537
M16
G05
G00X76.181Y-95.587
M15
G01X76.181Y-93.938
M16
G05
G00X76.181Y-112.987
M15
G01X76.181Y-114.637
M16
G05
G00X76.181Y-133.688
M15
G01X76.181Y-132.037
M16
G05
G00X95.231Y-74.888
M15
G01X95.231Y-76.537
M16
G05
G00X95.231Y-95.587
M15
G01X95.231Y-93.938
M16
G05
G00X95.231Y-112.987
M15
G01X95.231Y-114.637
M16
G05
G00X95.231Y-133.688
M15
G01X95.231Y-132.037
M16
G05
G00X114.281Y-74.888
M15
G01X114.281Y-76.537
M16
G05
G00X114.281Y-95.587
M15
G01X114.281Y-93.938
M16
G05
G00X114.281Y-112.987
M15
G01X114.281Y-114.637
M16
G05
G00X114.281Y-133.688
M15
G01X114.281Y-132.037
M16
G05
G00X133.331Y-74.888
M15
G01X133.331Y-76.537
M16
G05
G00X133.331Y-95.587
M15
G01X133.331Y-93.938
M16
G05
G00X133.331Y-112.987
M15
G01X133.331Y-114.637
M16
G05
G00X133.331Y-133.688
M15
G01X133.331Y-132.037
M16
G05
G00X166.669Y-74.888
M15
G01X166.669Y-76.537
M16
G05
G00X166.669Y-95.587
M15
G01X166.669Y-93.938
M16
G05
G00X166.669Y-112.987
M15
G01X166.669Y-114.637
M16
G05
G00X166.669Y-133.688
M15
G01X166.669Y-132.037
M16
G05
G00X185.719Y-74.888
M15
G01X185.719Y-76.537
M16
G05
G00X185.719Y-95.587
M15
G01X185.719Y-93.938
M16
G05
G00X185.719Y-112.987
M15
G01X185.719Y-114.637
M16
G05
G00X185.719Y-133.688
M15
G01X185.719Y-132.037
M16
G05
G00X204.769Y-74.888
M15
G01X204.769Y-76.537
M16
G05
G00X204.769Y-95.587
M15
G01X204.769Y-93.938
M16
G05
G00X204.769Y-112.987
M15
G01X204.769Y-114.637
M16
G05
G00X204.769Y-133.688
M15
G01X204.769Y-132.037
M16
G05
G00X223.819Y-74.888
M15
G01X223.819Y-76.537
M16
G05
G00X223.819Y-95.587
M15
G01X223.819Y-93.938
M16
G05
G00X223.819Y-112.987
M15
G01X223.819Y-114.637
M16
G05
G00X223.819Y-133.688
M15
G01X223.819Y-132.037
M16
G05
T0
M30
