%TF.GenerationSoftware,KiCad,Pcbnew,(6.0.1)*%
%TF.CreationDate,2022-06-19T08:49:54+09:00*%
%TF.ProjectId,yuiop32dm-main,7975696f-7033-4326-946d-2d6d61696e2e,1*%
%TF.SameCoordinates,Original*%
%TF.FileFunction,Legend,Bot*%
%TF.FilePolarity,Positive*%
%FSLAX46Y46*%
G04 Gerber Fmt 4.6, Leading zero omitted, Abs format (unit mm)*
G04 Created by KiCad (PCBNEW (6.0.1)) date 2022-06-19 08:49:54*
%MOMM*%
%LPD*%
G01*
G04 APERTURE LIST*
%ADD10C,0.150000*%
%ADD11C,0.100000*%
%ADD12C,0.120000*%
%ADD13C,0.125000*%
%ADD14C,1.524000*%
G04 APERTURE END LIST*
D10*
X86195238Y-145311904D02*
X86195238Y-145883333D01*
X86233333Y-145997619D01*
X86309523Y-146073809D01*
X86423809Y-146111904D01*
X86500000Y-146111904D01*
X85433333Y-146111904D02*
X85814285Y-146111904D01*
X85814285Y-145311904D01*
X84709523Y-146035714D02*
X84747619Y-146073809D01*
X84861904Y-146111904D01*
X84938095Y-146111904D01*
X85052380Y-146073809D01*
X85128571Y-145997619D01*
X85166666Y-145921428D01*
X85204761Y-145769047D01*
X85204761Y-145654761D01*
X85166666Y-145502380D01*
X85128571Y-145426190D01*
X85052380Y-145350000D01*
X84938095Y-145311904D01*
X84861904Y-145311904D01*
X84747619Y-145350000D01*
X84709523Y-145388095D01*
X84138095Y-145311904D02*
X84138095Y-145883333D01*
X84176190Y-145997619D01*
X84252380Y-146073809D01*
X84366666Y-146111904D01*
X84442857Y-146111904D01*
X83376190Y-146111904D02*
X83757142Y-146111904D01*
X83757142Y-145311904D01*
X82652380Y-146035714D02*
X82690476Y-146073809D01*
X82804761Y-146111904D01*
X82880952Y-146111904D01*
X82995238Y-146073809D01*
X83071428Y-145997619D01*
X83109523Y-145921428D01*
X83147619Y-145769047D01*
X83147619Y-145654761D01*
X83109523Y-145502380D01*
X83071428Y-145426190D01*
X82995238Y-145350000D01*
X82880952Y-145311904D01*
X82804761Y-145311904D01*
X82690476Y-145350000D01*
X82652380Y-145388095D01*
X82080952Y-145311904D02*
X82080952Y-145883333D01*
X82119047Y-145997619D01*
X82195238Y-146073809D01*
X82309523Y-146111904D01*
X82385714Y-146111904D01*
X81319047Y-146111904D02*
X81700000Y-146111904D01*
X81700000Y-145311904D01*
X80595238Y-146035714D02*
X80633333Y-146073809D01*
X80747619Y-146111904D01*
X80823809Y-146111904D01*
X80938095Y-146073809D01*
X81014285Y-145997619D01*
X81052380Y-145921428D01*
X81090476Y-145769047D01*
X81090476Y-145654761D01*
X81052380Y-145502380D01*
X81014285Y-145426190D01*
X80938095Y-145350000D01*
X80823809Y-145311904D01*
X80747619Y-145311904D01*
X80633333Y-145350000D01*
X80595238Y-145388095D01*
X80023809Y-145311904D02*
X80023809Y-145883333D01*
X80061904Y-145997619D01*
X80138095Y-146073809D01*
X80252380Y-146111904D01*
X80328571Y-146111904D01*
X79261904Y-146111904D02*
X79642857Y-146111904D01*
X79642857Y-145311904D01*
X78538095Y-146035714D02*
X78576190Y-146073809D01*
X78690476Y-146111904D01*
X78766666Y-146111904D01*
X78880952Y-146073809D01*
X78957142Y-145997619D01*
X78995238Y-145921428D01*
X79033333Y-145769047D01*
X79033333Y-145654761D01*
X78995238Y-145502380D01*
X78957142Y-145426190D01*
X78880952Y-145350000D01*
X78766666Y-145311904D01*
X78690476Y-145311904D01*
X78576190Y-145350000D01*
X78538095Y-145388095D01*
D11*
%TO.C,LED20*%
X167721607Y-116411071D02*
X168035892Y-116411071D01*
X168035892Y-115751071D01*
X167501607Y-116065357D02*
X167281607Y-116065357D01*
X167187321Y-116411071D02*
X167501607Y-116411071D01*
X167501607Y-115751071D01*
X167187321Y-115751071D01*
X166904464Y-116411071D02*
X166904464Y-115751071D01*
X166747321Y-115751071D01*
X166653035Y-115782500D01*
X166590178Y-115845357D01*
X166558750Y-115908214D01*
X166527321Y-116033928D01*
X166527321Y-116128214D01*
X166558750Y-116253928D01*
X166590178Y-116316785D01*
X166653035Y-116379642D01*
X166747321Y-116411071D01*
X166904464Y-116411071D01*
X166275892Y-115813928D02*
X166244464Y-115782500D01*
X166181607Y-115751071D01*
X166024464Y-115751071D01*
X165961607Y-115782500D01*
X165930178Y-115813928D01*
X165898750Y-115876785D01*
X165898750Y-115939642D01*
X165930178Y-116033928D01*
X166307321Y-116411071D01*
X165898750Y-116411071D01*
X165490178Y-115751071D02*
X165427321Y-115751071D01*
X165364464Y-115782500D01*
X165333035Y-115813928D01*
X165301607Y-115876785D01*
X165270178Y-116002500D01*
X165270178Y-116159642D01*
X165301607Y-116285357D01*
X165333035Y-116348214D01*
X165364464Y-116379642D01*
X165427321Y-116411071D01*
X165490178Y-116411071D01*
X165553035Y-116379642D01*
X165584464Y-116348214D01*
X165615892Y-116285357D01*
X165647321Y-116159642D01*
X165647321Y-116002500D01*
X165615892Y-115876785D01*
X165584464Y-115813928D01*
X165553035Y-115782500D01*
X165490178Y-115751071D01*
%TO.C,LED15*%
X205821607Y-97442321D02*
X206135892Y-97442321D01*
X206135892Y-96782321D01*
X205601607Y-97096607D02*
X205381607Y-97096607D01*
X205287321Y-97442321D02*
X205601607Y-97442321D01*
X205601607Y-96782321D01*
X205287321Y-96782321D01*
X205004464Y-97442321D02*
X205004464Y-96782321D01*
X204847321Y-96782321D01*
X204753035Y-96813750D01*
X204690178Y-96876607D01*
X204658750Y-96939464D01*
X204627321Y-97065178D01*
X204627321Y-97159464D01*
X204658750Y-97285178D01*
X204690178Y-97348035D01*
X204753035Y-97410892D01*
X204847321Y-97442321D01*
X205004464Y-97442321D01*
X203998750Y-97442321D02*
X204375892Y-97442321D01*
X204187321Y-97442321D02*
X204187321Y-96782321D01*
X204250178Y-96876607D01*
X204313035Y-96939464D01*
X204375892Y-96970892D01*
X203401607Y-96782321D02*
X203715892Y-96782321D01*
X203747321Y-97096607D01*
X203715892Y-97065178D01*
X203653035Y-97033750D01*
X203495892Y-97033750D01*
X203433035Y-97065178D01*
X203401607Y-97096607D01*
X203370178Y-97159464D01*
X203370178Y-97316607D01*
X203401607Y-97379464D01*
X203433035Y-97410892D01*
X203495892Y-97442321D01*
X203653035Y-97442321D01*
X203715892Y-97410892D01*
X203747321Y-97379464D01*
%TO.C,LED19*%
X186771607Y-116411071D02*
X187085892Y-116411071D01*
X187085892Y-115751071D01*
X186551607Y-116065357D02*
X186331607Y-116065357D01*
X186237321Y-116411071D02*
X186551607Y-116411071D01*
X186551607Y-115751071D01*
X186237321Y-115751071D01*
X185954464Y-116411071D02*
X185954464Y-115751071D01*
X185797321Y-115751071D01*
X185703035Y-115782500D01*
X185640178Y-115845357D01*
X185608750Y-115908214D01*
X185577321Y-116033928D01*
X185577321Y-116128214D01*
X185608750Y-116253928D01*
X185640178Y-116316785D01*
X185703035Y-116379642D01*
X185797321Y-116411071D01*
X185954464Y-116411071D01*
X184948750Y-116411071D02*
X185325892Y-116411071D01*
X185137321Y-116411071D02*
X185137321Y-115751071D01*
X185200178Y-115845357D01*
X185263035Y-115908214D01*
X185325892Y-115939642D01*
X184634464Y-116411071D02*
X184508750Y-116411071D01*
X184445892Y-116379642D01*
X184414464Y-116348214D01*
X184351607Y-116253928D01*
X184320178Y-116128214D01*
X184320178Y-115876785D01*
X184351607Y-115813928D01*
X184383035Y-115782500D01*
X184445892Y-115751071D01*
X184571607Y-115751071D01*
X184634464Y-115782500D01*
X184665892Y-115813928D01*
X184697321Y-115876785D01*
X184697321Y-116033928D01*
X184665892Y-116096785D01*
X184634464Y-116128214D01*
X184571607Y-116159642D01*
X184445892Y-116159642D01*
X184383035Y-116128214D01*
X184351607Y-116096785D01*
X184320178Y-116033928D01*
%TO.C,LED1*%
X224557321Y-78311071D02*
X224871607Y-78311071D01*
X224871607Y-77651071D01*
X224337321Y-77965357D02*
X224117321Y-77965357D01*
X224023035Y-78311071D02*
X224337321Y-78311071D01*
X224337321Y-77651071D01*
X224023035Y-77651071D01*
X223740178Y-78311071D02*
X223740178Y-77651071D01*
X223583035Y-77651071D01*
X223488750Y-77682500D01*
X223425892Y-77745357D01*
X223394464Y-77808214D01*
X223363035Y-77933928D01*
X223363035Y-78028214D01*
X223394464Y-78153928D01*
X223425892Y-78216785D01*
X223488750Y-78279642D01*
X223583035Y-78311071D01*
X223740178Y-78311071D01*
X222734464Y-78311071D02*
X223111607Y-78311071D01*
X222923035Y-78311071D02*
X222923035Y-77651071D01*
X222985892Y-77745357D01*
X223048750Y-77808214D01*
X223111607Y-77839642D01*
%TO.C,LED9*%
X76919821Y-97442321D02*
X77234107Y-97442321D01*
X77234107Y-96782321D01*
X76699821Y-97096607D02*
X76479821Y-97096607D01*
X76385535Y-97442321D02*
X76699821Y-97442321D01*
X76699821Y-96782321D01*
X76385535Y-96782321D01*
X76102678Y-97442321D02*
X76102678Y-96782321D01*
X75945535Y-96782321D01*
X75851250Y-96813750D01*
X75788392Y-96876607D01*
X75756964Y-96939464D01*
X75725535Y-97065178D01*
X75725535Y-97159464D01*
X75756964Y-97285178D01*
X75788392Y-97348035D01*
X75851250Y-97410892D01*
X75945535Y-97442321D01*
X76102678Y-97442321D01*
X75411250Y-97442321D02*
X75285535Y-97442321D01*
X75222678Y-97410892D01*
X75191250Y-97379464D01*
X75128392Y-97285178D01*
X75096964Y-97159464D01*
X75096964Y-96908035D01*
X75128392Y-96845178D01*
X75159821Y-96813750D01*
X75222678Y-96782321D01*
X75348392Y-96782321D01*
X75411250Y-96813750D01*
X75442678Y-96845178D01*
X75474107Y-96908035D01*
X75474107Y-97065178D01*
X75442678Y-97128035D01*
X75411250Y-97159464D01*
X75348392Y-97190892D01*
X75222678Y-97190892D01*
X75159821Y-97159464D01*
X75128392Y-97128035D01*
X75096964Y-97065178D01*
%TO.C,LED13*%
X167721607Y-97442321D02*
X168035892Y-97442321D01*
X168035892Y-96782321D01*
X167501607Y-97096607D02*
X167281607Y-97096607D01*
X167187321Y-97442321D02*
X167501607Y-97442321D01*
X167501607Y-96782321D01*
X167187321Y-96782321D01*
X166904464Y-97442321D02*
X166904464Y-96782321D01*
X166747321Y-96782321D01*
X166653035Y-96813750D01*
X166590178Y-96876607D01*
X166558750Y-96939464D01*
X166527321Y-97065178D01*
X166527321Y-97159464D01*
X166558750Y-97285178D01*
X166590178Y-97348035D01*
X166653035Y-97410892D01*
X166747321Y-97442321D01*
X166904464Y-97442321D01*
X165898750Y-97442321D02*
X166275892Y-97442321D01*
X166087321Y-97442321D02*
X166087321Y-96782321D01*
X166150178Y-96876607D01*
X166213035Y-96939464D01*
X166275892Y-96970892D01*
X165678750Y-96782321D02*
X165270178Y-96782321D01*
X165490178Y-97033750D01*
X165395892Y-97033750D01*
X165333035Y-97065178D01*
X165301607Y-97096607D01*
X165270178Y-97159464D01*
X165270178Y-97316607D01*
X165301607Y-97379464D01*
X165333035Y-97410892D01*
X165395892Y-97442321D01*
X165584464Y-97442321D01*
X165647321Y-97410892D01*
X165678750Y-97379464D01*
%TO.C,LED6*%
X115019821Y-78311071D02*
X115334107Y-78311071D01*
X115334107Y-77651071D01*
X114799821Y-77965357D02*
X114579821Y-77965357D01*
X114485535Y-78311071D02*
X114799821Y-78311071D01*
X114799821Y-77651071D01*
X114485535Y-77651071D01*
X114202678Y-78311071D02*
X114202678Y-77651071D01*
X114045535Y-77651071D01*
X113951250Y-77682500D01*
X113888392Y-77745357D01*
X113856964Y-77808214D01*
X113825535Y-77933928D01*
X113825535Y-78028214D01*
X113856964Y-78153928D01*
X113888392Y-78216785D01*
X113951250Y-78279642D01*
X114045535Y-78311071D01*
X114202678Y-78311071D01*
X113259821Y-77651071D02*
X113385535Y-77651071D01*
X113448392Y-77682500D01*
X113479821Y-77713928D01*
X113542678Y-77808214D01*
X113574107Y-77933928D01*
X113574107Y-78185357D01*
X113542678Y-78248214D01*
X113511250Y-78279642D01*
X113448392Y-78311071D01*
X113322678Y-78311071D01*
X113259821Y-78279642D01*
X113228392Y-78248214D01*
X113196964Y-78185357D01*
X113196964Y-78028214D01*
X113228392Y-77965357D01*
X113259821Y-77933928D01*
X113322678Y-77902500D01*
X113448392Y-77902500D01*
X113511250Y-77933928D01*
X113542678Y-77965357D01*
X113574107Y-78028214D01*
%TO.C,LED12*%
X134384107Y-97442321D02*
X134698392Y-97442321D01*
X134698392Y-96782321D01*
X134164107Y-97096607D02*
X133944107Y-97096607D01*
X133849821Y-97442321D02*
X134164107Y-97442321D01*
X134164107Y-96782321D01*
X133849821Y-96782321D01*
X133566964Y-97442321D02*
X133566964Y-96782321D01*
X133409821Y-96782321D01*
X133315535Y-96813750D01*
X133252678Y-96876607D01*
X133221250Y-96939464D01*
X133189821Y-97065178D01*
X133189821Y-97159464D01*
X133221250Y-97285178D01*
X133252678Y-97348035D01*
X133315535Y-97410892D01*
X133409821Y-97442321D01*
X133566964Y-97442321D01*
X132561250Y-97442321D02*
X132938392Y-97442321D01*
X132749821Y-97442321D02*
X132749821Y-96782321D01*
X132812678Y-96876607D01*
X132875535Y-96939464D01*
X132938392Y-96970892D01*
X132309821Y-96845178D02*
X132278392Y-96813750D01*
X132215535Y-96782321D01*
X132058392Y-96782321D01*
X131995535Y-96813750D01*
X131964107Y-96845178D01*
X131932678Y-96908035D01*
X131932678Y-96970892D01*
X131964107Y-97065178D01*
X132341250Y-97442321D01*
X131932678Y-97442321D01*
%TO.C,LED26*%
X96284107Y-135542321D02*
X96598392Y-135542321D01*
X96598392Y-134882321D01*
X96064107Y-135196607D02*
X95844107Y-135196607D01*
X95749821Y-135542321D02*
X96064107Y-135542321D01*
X96064107Y-134882321D01*
X95749821Y-134882321D01*
X95466964Y-135542321D02*
X95466964Y-134882321D01*
X95309821Y-134882321D01*
X95215535Y-134913750D01*
X95152678Y-134976607D01*
X95121250Y-135039464D01*
X95089821Y-135165178D01*
X95089821Y-135259464D01*
X95121250Y-135385178D01*
X95152678Y-135448035D01*
X95215535Y-135510892D01*
X95309821Y-135542321D01*
X95466964Y-135542321D01*
X94838392Y-134945178D02*
X94806964Y-134913750D01*
X94744107Y-134882321D01*
X94586964Y-134882321D01*
X94524107Y-134913750D01*
X94492678Y-134945178D01*
X94461250Y-135008035D01*
X94461250Y-135070892D01*
X94492678Y-135165178D01*
X94869821Y-135542321D01*
X94461250Y-135542321D01*
X93895535Y-134882321D02*
X94021250Y-134882321D01*
X94084107Y-134913750D01*
X94115535Y-134945178D01*
X94178392Y-135039464D01*
X94209821Y-135165178D01*
X94209821Y-135416607D01*
X94178392Y-135479464D01*
X94146964Y-135510892D01*
X94084107Y-135542321D01*
X93958392Y-135542321D01*
X93895535Y-135510892D01*
X93864107Y-135479464D01*
X93832678Y-135416607D01*
X93832678Y-135259464D01*
X93864107Y-135196607D01*
X93895535Y-135165178D01*
X93958392Y-135133750D01*
X94084107Y-135133750D01*
X94146964Y-135165178D01*
X94178392Y-135196607D01*
X94209821Y-135259464D01*
%TO.C,LED25*%
X77234107Y-135542321D02*
X77548392Y-135542321D01*
X77548392Y-134882321D01*
X77014107Y-135196607D02*
X76794107Y-135196607D01*
X76699821Y-135542321D02*
X77014107Y-135542321D01*
X77014107Y-134882321D01*
X76699821Y-134882321D01*
X76416964Y-135542321D02*
X76416964Y-134882321D01*
X76259821Y-134882321D01*
X76165535Y-134913750D01*
X76102678Y-134976607D01*
X76071250Y-135039464D01*
X76039821Y-135165178D01*
X76039821Y-135259464D01*
X76071250Y-135385178D01*
X76102678Y-135448035D01*
X76165535Y-135510892D01*
X76259821Y-135542321D01*
X76416964Y-135542321D01*
X75788392Y-134945178D02*
X75756964Y-134913750D01*
X75694107Y-134882321D01*
X75536964Y-134882321D01*
X75474107Y-134913750D01*
X75442678Y-134945178D01*
X75411250Y-135008035D01*
X75411250Y-135070892D01*
X75442678Y-135165178D01*
X75819821Y-135542321D01*
X75411250Y-135542321D01*
X74814107Y-134882321D02*
X75128392Y-134882321D01*
X75159821Y-135196607D01*
X75128392Y-135165178D01*
X75065535Y-135133750D01*
X74908392Y-135133750D01*
X74845535Y-135165178D01*
X74814107Y-135196607D01*
X74782678Y-135259464D01*
X74782678Y-135416607D01*
X74814107Y-135479464D01*
X74845535Y-135510892D01*
X74908392Y-135542321D01*
X75065535Y-135542321D01*
X75128392Y-135510892D01*
X75159821Y-135479464D01*
%TO.C,LED17*%
X224871607Y-116411071D02*
X225185892Y-116411071D01*
X225185892Y-115751071D01*
X224651607Y-116065357D02*
X224431607Y-116065357D01*
X224337321Y-116411071D02*
X224651607Y-116411071D01*
X224651607Y-115751071D01*
X224337321Y-115751071D01*
X224054464Y-116411071D02*
X224054464Y-115751071D01*
X223897321Y-115751071D01*
X223803035Y-115782500D01*
X223740178Y-115845357D01*
X223708750Y-115908214D01*
X223677321Y-116033928D01*
X223677321Y-116128214D01*
X223708750Y-116253928D01*
X223740178Y-116316785D01*
X223803035Y-116379642D01*
X223897321Y-116411071D01*
X224054464Y-116411071D01*
X223048750Y-116411071D02*
X223425892Y-116411071D01*
X223237321Y-116411071D02*
X223237321Y-115751071D01*
X223300178Y-115845357D01*
X223363035Y-115908214D01*
X223425892Y-115939642D01*
X222828750Y-115751071D02*
X222388750Y-115751071D01*
X222671607Y-116411071D01*
%TO.C,LED8*%
X76919821Y-78311071D02*
X77234107Y-78311071D01*
X77234107Y-77651071D01*
X76699821Y-77965357D02*
X76479821Y-77965357D01*
X76385535Y-78311071D02*
X76699821Y-78311071D01*
X76699821Y-77651071D01*
X76385535Y-77651071D01*
X76102678Y-78311071D02*
X76102678Y-77651071D01*
X75945535Y-77651071D01*
X75851250Y-77682500D01*
X75788392Y-77745357D01*
X75756964Y-77808214D01*
X75725535Y-77933928D01*
X75725535Y-78028214D01*
X75756964Y-78153928D01*
X75788392Y-78216785D01*
X75851250Y-78279642D01*
X75945535Y-78311071D01*
X76102678Y-78311071D01*
X75348392Y-77933928D02*
X75411250Y-77902500D01*
X75442678Y-77871071D01*
X75474107Y-77808214D01*
X75474107Y-77776785D01*
X75442678Y-77713928D01*
X75411250Y-77682500D01*
X75348392Y-77651071D01*
X75222678Y-77651071D01*
X75159821Y-77682500D01*
X75128392Y-77713928D01*
X75096964Y-77776785D01*
X75096964Y-77808214D01*
X75128392Y-77871071D01*
X75159821Y-77902500D01*
X75222678Y-77933928D01*
X75348392Y-77933928D01*
X75411250Y-77965357D01*
X75442678Y-77996785D01*
X75474107Y-78059642D01*
X75474107Y-78185357D01*
X75442678Y-78248214D01*
X75411250Y-78279642D01*
X75348392Y-78311071D01*
X75222678Y-78311071D01*
X75159821Y-78279642D01*
X75128392Y-78248214D01*
X75096964Y-78185357D01*
X75096964Y-78059642D01*
X75128392Y-77996785D01*
X75159821Y-77965357D01*
X75222678Y-77933928D01*
%TO.C,LED4*%
X167407321Y-78311071D02*
X167721607Y-78311071D01*
X167721607Y-77651071D01*
X167187321Y-77965357D02*
X166967321Y-77965357D01*
X166873035Y-78311071D02*
X167187321Y-78311071D01*
X167187321Y-77651071D01*
X166873035Y-77651071D01*
X166590178Y-78311071D02*
X166590178Y-77651071D01*
X166433035Y-77651071D01*
X166338750Y-77682500D01*
X166275892Y-77745357D01*
X166244464Y-77808214D01*
X166213035Y-77933928D01*
X166213035Y-78028214D01*
X166244464Y-78153928D01*
X166275892Y-78216785D01*
X166338750Y-78279642D01*
X166433035Y-78311071D01*
X166590178Y-78311071D01*
X165647321Y-77871071D02*
X165647321Y-78311071D01*
X165804464Y-77619642D02*
X165961607Y-78091071D01*
X165553035Y-78091071D01*
%TO.C,LED3*%
X186457321Y-78311071D02*
X186771607Y-78311071D01*
X186771607Y-77651071D01*
X186237321Y-77965357D02*
X186017321Y-77965357D01*
X185923035Y-78311071D02*
X186237321Y-78311071D01*
X186237321Y-77651071D01*
X185923035Y-77651071D01*
X185640178Y-78311071D02*
X185640178Y-77651071D01*
X185483035Y-77651071D01*
X185388750Y-77682500D01*
X185325892Y-77745357D01*
X185294464Y-77808214D01*
X185263035Y-77933928D01*
X185263035Y-78028214D01*
X185294464Y-78153928D01*
X185325892Y-78216785D01*
X185388750Y-78279642D01*
X185483035Y-78311071D01*
X185640178Y-78311071D01*
X185043035Y-77651071D02*
X184634464Y-77651071D01*
X184854464Y-77902500D01*
X184760178Y-77902500D01*
X184697321Y-77933928D01*
X184665892Y-77965357D01*
X184634464Y-78028214D01*
X184634464Y-78185357D01*
X184665892Y-78248214D01*
X184697321Y-78279642D01*
X184760178Y-78311071D01*
X184948750Y-78311071D01*
X185011607Y-78279642D01*
X185043035Y-78248214D01*
%TO.C,LED23*%
X96284107Y-116411071D02*
X96598392Y-116411071D01*
X96598392Y-115751071D01*
X96064107Y-116065357D02*
X95844107Y-116065357D01*
X95749821Y-116411071D02*
X96064107Y-116411071D01*
X96064107Y-115751071D01*
X95749821Y-115751071D01*
X95466964Y-116411071D02*
X95466964Y-115751071D01*
X95309821Y-115751071D01*
X95215535Y-115782500D01*
X95152678Y-115845357D01*
X95121250Y-115908214D01*
X95089821Y-116033928D01*
X95089821Y-116128214D01*
X95121250Y-116253928D01*
X95152678Y-116316785D01*
X95215535Y-116379642D01*
X95309821Y-116411071D01*
X95466964Y-116411071D01*
X94838392Y-115813928D02*
X94806964Y-115782500D01*
X94744107Y-115751071D01*
X94586964Y-115751071D01*
X94524107Y-115782500D01*
X94492678Y-115813928D01*
X94461250Y-115876785D01*
X94461250Y-115939642D01*
X94492678Y-116033928D01*
X94869821Y-116411071D01*
X94461250Y-116411071D01*
X94241250Y-115751071D02*
X93832678Y-115751071D01*
X94052678Y-116002500D01*
X93958392Y-116002500D01*
X93895535Y-116033928D01*
X93864107Y-116065357D01*
X93832678Y-116128214D01*
X93832678Y-116285357D01*
X93864107Y-116348214D01*
X93895535Y-116379642D01*
X93958392Y-116411071D01*
X94146964Y-116411071D01*
X94209821Y-116379642D01*
X94241250Y-116348214D01*
%TO.C,LED10*%
X96284107Y-97442321D02*
X96598392Y-97442321D01*
X96598392Y-96782321D01*
X96064107Y-97096607D02*
X95844107Y-97096607D01*
X95749821Y-97442321D02*
X96064107Y-97442321D01*
X96064107Y-96782321D01*
X95749821Y-96782321D01*
X95466964Y-97442321D02*
X95466964Y-96782321D01*
X95309821Y-96782321D01*
X95215535Y-96813750D01*
X95152678Y-96876607D01*
X95121250Y-96939464D01*
X95089821Y-97065178D01*
X95089821Y-97159464D01*
X95121250Y-97285178D01*
X95152678Y-97348035D01*
X95215535Y-97410892D01*
X95309821Y-97442321D01*
X95466964Y-97442321D01*
X94461250Y-97442321D02*
X94838392Y-97442321D01*
X94649821Y-97442321D02*
X94649821Y-96782321D01*
X94712678Y-96876607D01*
X94775535Y-96939464D01*
X94838392Y-96970892D01*
X94052678Y-96782321D02*
X93989821Y-96782321D01*
X93926964Y-96813750D01*
X93895535Y-96845178D01*
X93864107Y-96908035D01*
X93832678Y-97033750D01*
X93832678Y-97190892D01*
X93864107Y-97316607D01*
X93895535Y-97379464D01*
X93926964Y-97410892D01*
X93989821Y-97442321D01*
X94052678Y-97442321D01*
X94115535Y-97410892D01*
X94146964Y-97379464D01*
X94178392Y-97316607D01*
X94209821Y-97190892D01*
X94209821Y-97033750D01*
X94178392Y-96908035D01*
X94146964Y-96845178D01*
X94115535Y-96813750D01*
X94052678Y-96782321D01*
%TO.C,LED28*%
X134384107Y-135542321D02*
X134698392Y-135542321D01*
X134698392Y-134882321D01*
X134164107Y-135196607D02*
X133944107Y-135196607D01*
X133849821Y-135542321D02*
X134164107Y-135542321D01*
X134164107Y-134882321D01*
X133849821Y-134882321D01*
X133566964Y-135542321D02*
X133566964Y-134882321D01*
X133409821Y-134882321D01*
X133315535Y-134913750D01*
X133252678Y-134976607D01*
X133221250Y-135039464D01*
X133189821Y-135165178D01*
X133189821Y-135259464D01*
X133221250Y-135385178D01*
X133252678Y-135448035D01*
X133315535Y-135510892D01*
X133409821Y-135542321D01*
X133566964Y-135542321D01*
X132938392Y-134945178D02*
X132906964Y-134913750D01*
X132844107Y-134882321D01*
X132686964Y-134882321D01*
X132624107Y-134913750D01*
X132592678Y-134945178D01*
X132561250Y-135008035D01*
X132561250Y-135070892D01*
X132592678Y-135165178D01*
X132969821Y-135542321D01*
X132561250Y-135542321D01*
X132184107Y-135165178D02*
X132246964Y-135133750D01*
X132278392Y-135102321D01*
X132309821Y-135039464D01*
X132309821Y-135008035D01*
X132278392Y-134945178D01*
X132246964Y-134913750D01*
X132184107Y-134882321D01*
X132058392Y-134882321D01*
X131995535Y-134913750D01*
X131964107Y-134945178D01*
X131932678Y-135008035D01*
X131932678Y-135039464D01*
X131964107Y-135102321D01*
X131995535Y-135133750D01*
X132058392Y-135165178D01*
X132184107Y-135165178D01*
X132246964Y-135196607D01*
X132278392Y-135228035D01*
X132309821Y-135290892D01*
X132309821Y-135416607D01*
X132278392Y-135479464D01*
X132246964Y-135510892D01*
X132184107Y-135542321D01*
X132058392Y-135542321D01*
X131995535Y-135510892D01*
X131964107Y-135479464D01*
X131932678Y-135416607D01*
X131932678Y-135290892D01*
X131964107Y-135228035D01*
X131995535Y-135196607D01*
X132058392Y-135165178D01*
%TO.C,LED24*%
X77234107Y-116411071D02*
X77548392Y-116411071D01*
X77548392Y-115751071D01*
X77014107Y-116065357D02*
X76794107Y-116065357D01*
X76699821Y-116411071D02*
X77014107Y-116411071D01*
X77014107Y-115751071D01*
X76699821Y-115751071D01*
X76416964Y-116411071D02*
X76416964Y-115751071D01*
X76259821Y-115751071D01*
X76165535Y-115782500D01*
X76102678Y-115845357D01*
X76071250Y-115908214D01*
X76039821Y-116033928D01*
X76039821Y-116128214D01*
X76071250Y-116253928D01*
X76102678Y-116316785D01*
X76165535Y-116379642D01*
X76259821Y-116411071D01*
X76416964Y-116411071D01*
X75788392Y-115813928D02*
X75756964Y-115782500D01*
X75694107Y-115751071D01*
X75536964Y-115751071D01*
X75474107Y-115782500D01*
X75442678Y-115813928D01*
X75411250Y-115876785D01*
X75411250Y-115939642D01*
X75442678Y-116033928D01*
X75819821Y-116411071D01*
X75411250Y-116411071D01*
X74845535Y-115971071D02*
X74845535Y-116411071D01*
X75002678Y-115719642D02*
X75159821Y-116191071D01*
X74751250Y-116191071D01*
%TO.C,LED7*%
X95969821Y-78311071D02*
X96284107Y-78311071D01*
X96284107Y-77651071D01*
X95749821Y-77965357D02*
X95529821Y-77965357D01*
X95435535Y-78311071D02*
X95749821Y-78311071D01*
X95749821Y-77651071D01*
X95435535Y-77651071D01*
X95152678Y-78311071D02*
X95152678Y-77651071D01*
X94995535Y-77651071D01*
X94901250Y-77682500D01*
X94838392Y-77745357D01*
X94806964Y-77808214D01*
X94775535Y-77933928D01*
X94775535Y-78028214D01*
X94806964Y-78153928D01*
X94838392Y-78216785D01*
X94901250Y-78279642D01*
X94995535Y-78311071D01*
X95152678Y-78311071D01*
X94555535Y-77651071D02*
X94115535Y-77651071D01*
X94398392Y-78311071D01*
%TO.C,LED5*%
X134069821Y-78311071D02*
X134384107Y-78311071D01*
X134384107Y-77651071D01*
X133849821Y-77965357D02*
X133629821Y-77965357D01*
X133535535Y-78311071D02*
X133849821Y-78311071D01*
X133849821Y-77651071D01*
X133535535Y-77651071D01*
X133252678Y-78311071D02*
X133252678Y-77651071D01*
X133095535Y-77651071D01*
X133001250Y-77682500D01*
X132938392Y-77745357D01*
X132906964Y-77808214D01*
X132875535Y-77933928D01*
X132875535Y-78028214D01*
X132906964Y-78153928D01*
X132938392Y-78216785D01*
X133001250Y-78279642D01*
X133095535Y-78311071D01*
X133252678Y-78311071D01*
X132278392Y-77651071D02*
X132592678Y-77651071D01*
X132624107Y-77965357D01*
X132592678Y-77933928D01*
X132529821Y-77902500D01*
X132372678Y-77902500D01*
X132309821Y-77933928D01*
X132278392Y-77965357D01*
X132246964Y-78028214D01*
X132246964Y-78185357D01*
X132278392Y-78248214D01*
X132309821Y-78279642D01*
X132372678Y-78311071D01*
X132529821Y-78311071D01*
X132592678Y-78279642D01*
X132624107Y-78248214D01*
%TO.C,LED29*%
X167721607Y-135542321D02*
X168035892Y-135542321D01*
X168035892Y-134882321D01*
X167501607Y-135196607D02*
X167281607Y-135196607D01*
X167187321Y-135542321D02*
X167501607Y-135542321D01*
X167501607Y-134882321D01*
X167187321Y-134882321D01*
X166904464Y-135542321D02*
X166904464Y-134882321D01*
X166747321Y-134882321D01*
X166653035Y-134913750D01*
X166590178Y-134976607D01*
X166558750Y-135039464D01*
X166527321Y-135165178D01*
X166527321Y-135259464D01*
X166558750Y-135385178D01*
X166590178Y-135448035D01*
X166653035Y-135510892D01*
X166747321Y-135542321D01*
X166904464Y-135542321D01*
X166275892Y-134945178D02*
X166244464Y-134913750D01*
X166181607Y-134882321D01*
X166024464Y-134882321D01*
X165961607Y-134913750D01*
X165930178Y-134945178D01*
X165898750Y-135008035D01*
X165898750Y-135070892D01*
X165930178Y-135165178D01*
X166307321Y-135542321D01*
X165898750Y-135542321D01*
X165584464Y-135542321D02*
X165458750Y-135542321D01*
X165395892Y-135510892D01*
X165364464Y-135479464D01*
X165301607Y-135385178D01*
X165270178Y-135259464D01*
X165270178Y-135008035D01*
X165301607Y-134945178D01*
X165333035Y-134913750D01*
X165395892Y-134882321D01*
X165521607Y-134882321D01*
X165584464Y-134913750D01*
X165615892Y-134945178D01*
X165647321Y-135008035D01*
X165647321Y-135165178D01*
X165615892Y-135228035D01*
X165584464Y-135259464D01*
X165521607Y-135290892D01*
X165395892Y-135290892D01*
X165333035Y-135259464D01*
X165301607Y-135228035D01*
X165270178Y-135165178D01*
%TO.C,LED30*%
X186771607Y-135542321D02*
X187085892Y-135542321D01*
X187085892Y-134882321D01*
X186551607Y-135196607D02*
X186331607Y-135196607D01*
X186237321Y-135542321D02*
X186551607Y-135542321D01*
X186551607Y-134882321D01*
X186237321Y-134882321D01*
X185954464Y-135542321D02*
X185954464Y-134882321D01*
X185797321Y-134882321D01*
X185703035Y-134913750D01*
X185640178Y-134976607D01*
X185608750Y-135039464D01*
X185577321Y-135165178D01*
X185577321Y-135259464D01*
X185608750Y-135385178D01*
X185640178Y-135448035D01*
X185703035Y-135510892D01*
X185797321Y-135542321D01*
X185954464Y-135542321D01*
X185357321Y-134882321D02*
X184948750Y-134882321D01*
X185168750Y-135133750D01*
X185074464Y-135133750D01*
X185011607Y-135165178D01*
X184980178Y-135196607D01*
X184948750Y-135259464D01*
X184948750Y-135416607D01*
X184980178Y-135479464D01*
X185011607Y-135510892D01*
X185074464Y-135542321D01*
X185263035Y-135542321D01*
X185325892Y-135510892D01*
X185357321Y-135479464D01*
X184540178Y-134882321D02*
X184477321Y-134882321D01*
X184414464Y-134913750D01*
X184383035Y-134945178D01*
X184351607Y-135008035D01*
X184320178Y-135133750D01*
X184320178Y-135290892D01*
X184351607Y-135416607D01*
X184383035Y-135479464D01*
X184414464Y-135510892D01*
X184477321Y-135542321D01*
X184540178Y-135542321D01*
X184603035Y-135510892D01*
X184634464Y-135479464D01*
X184665892Y-135416607D01*
X184697321Y-135290892D01*
X184697321Y-135133750D01*
X184665892Y-135008035D01*
X184634464Y-134945178D01*
X184603035Y-134913750D01*
X184540178Y-134882321D01*
%TO.C,LED2*%
X205507321Y-78311071D02*
X205821607Y-78311071D01*
X205821607Y-77651071D01*
X205287321Y-77965357D02*
X205067321Y-77965357D01*
X204973035Y-78311071D02*
X205287321Y-78311071D01*
X205287321Y-77651071D01*
X204973035Y-77651071D01*
X204690178Y-78311071D02*
X204690178Y-77651071D01*
X204533035Y-77651071D01*
X204438750Y-77682500D01*
X204375892Y-77745357D01*
X204344464Y-77808214D01*
X204313035Y-77933928D01*
X204313035Y-78028214D01*
X204344464Y-78153928D01*
X204375892Y-78216785D01*
X204438750Y-78279642D01*
X204533035Y-78311071D01*
X204690178Y-78311071D01*
X204061607Y-77713928D02*
X204030178Y-77682500D01*
X203967321Y-77651071D01*
X203810178Y-77651071D01*
X203747321Y-77682500D01*
X203715892Y-77713928D01*
X203684464Y-77776785D01*
X203684464Y-77839642D01*
X203715892Y-77933928D01*
X204093035Y-78311071D01*
X203684464Y-78311071D01*
%TO.C,LED11*%
X115334107Y-97442321D02*
X115648392Y-97442321D01*
X115648392Y-96782321D01*
X115114107Y-97096607D02*
X114894107Y-97096607D01*
X114799821Y-97442321D02*
X115114107Y-97442321D01*
X115114107Y-96782321D01*
X114799821Y-96782321D01*
X114516964Y-97442321D02*
X114516964Y-96782321D01*
X114359821Y-96782321D01*
X114265535Y-96813750D01*
X114202678Y-96876607D01*
X114171250Y-96939464D01*
X114139821Y-97065178D01*
X114139821Y-97159464D01*
X114171250Y-97285178D01*
X114202678Y-97348035D01*
X114265535Y-97410892D01*
X114359821Y-97442321D01*
X114516964Y-97442321D01*
X113511250Y-97442321D02*
X113888392Y-97442321D01*
X113699821Y-97442321D02*
X113699821Y-96782321D01*
X113762678Y-96876607D01*
X113825535Y-96939464D01*
X113888392Y-96970892D01*
X112882678Y-97442321D02*
X113259821Y-97442321D01*
X113071250Y-97442321D02*
X113071250Y-96782321D01*
X113134107Y-96876607D01*
X113196964Y-96939464D01*
X113259821Y-96970892D01*
%TO.C,LED27*%
X115334107Y-135542321D02*
X115648392Y-135542321D01*
X115648392Y-134882321D01*
X115114107Y-135196607D02*
X114894107Y-135196607D01*
X114799821Y-135542321D02*
X115114107Y-135542321D01*
X115114107Y-134882321D01*
X114799821Y-134882321D01*
X114516964Y-135542321D02*
X114516964Y-134882321D01*
X114359821Y-134882321D01*
X114265535Y-134913750D01*
X114202678Y-134976607D01*
X114171250Y-135039464D01*
X114139821Y-135165178D01*
X114139821Y-135259464D01*
X114171250Y-135385178D01*
X114202678Y-135448035D01*
X114265535Y-135510892D01*
X114359821Y-135542321D01*
X114516964Y-135542321D01*
X113888392Y-134945178D02*
X113856964Y-134913750D01*
X113794107Y-134882321D01*
X113636964Y-134882321D01*
X113574107Y-134913750D01*
X113542678Y-134945178D01*
X113511250Y-135008035D01*
X113511250Y-135070892D01*
X113542678Y-135165178D01*
X113919821Y-135542321D01*
X113511250Y-135542321D01*
X113291250Y-134882321D02*
X112851250Y-134882321D01*
X113134107Y-135542321D01*
%TO.C,LED18*%
X205821607Y-116411071D02*
X206135892Y-116411071D01*
X206135892Y-115751071D01*
X205601607Y-116065357D02*
X205381607Y-116065357D01*
X205287321Y-116411071D02*
X205601607Y-116411071D01*
X205601607Y-115751071D01*
X205287321Y-115751071D01*
X205004464Y-116411071D02*
X205004464Y-115751071D01*
X204847321Y-115751071D01*
X204753035Y-115782500D01*
X204690178Y-115845357D01*
X204658750Y-115908214D01*
X204627321Y-116033928D01*
X204627321Y-116128214D01*
X204658750Y-116253928D01*
X204690178Y-116316785D01*
X204753035Y-116379642D01*
X204847321Y-116411071D01*
X205004464Y-116411071D01*
X203998750Y-116411071D02*
X204375892Y-116411071D01*
X204187321Y-116411071D02*
X204187321Y-115751071D01*
X204250178Y-115845357D01*
X204313035Y-115908214D01*
X204375892Y-115939642D01*
X203621607Y-116033928D02*
X203684464Y-116002500D01*
X203715892Y-115971071D01*
X203747321Y-115908214D01*
X203747321Y-115876785D01*
X203715892Y-115813928D01*
X203684464Y-115782500D01*
X203621607Y-115751071D01*
X203495892Y-115751071D01*
X203433035Y-115782500D01*
X203401607Y-115813928D01*
X203370178Y-115876785D01*
X203370178Y-115908214D01*
X203401607Y-115971071D01*
X203433035Y-116002500D01*
X203495892Y-116033928D01*
X203621607Y-116033928D01*
X203684464Y-116065357D01*
X203715892Y-116096785D01*
X203747321Y-116159642D01*
X203747321Y-116285357D01*
X203715892Y-116348214D01*
X203684464Y-116379642D01*
X203621607Y-116411071D01*
X203495892Y-116411071D01*
X203433035Y-116379642D01*
X203401607Y-116348214D01*
X203370178Y-116285357D01*
X203370178Y-116159642D01*
X203401607Y-116096785D01*
X203433035Y-116065357D01*
X203495892Y-116033928D01*
%TO.C,LED16*%
X224871607Y-97442321D02*
X225185892Y-97442321D01*
X225185892Y-96782321D01*
X224651607Y-97096607D02*
X224431607Y-97096607D01*
X224337321Y-97442321D02*
X224651607Y-97442321D01*
X224651607Y-96782321D01*
X224337321Y-96782321D01*
X224054464Y-97442321D02*
X224054464Y-96782321D01*
X223897321Y-96782321D01*
X223803035Y-96813750D01*
X223740178Y-96876607D01*
X223708750Y-96939464D01*
X223677321Y-97065178D01*
X223677321Y-97159464D01*
X223708750Y-97285178D01*
X223740178Y-97348035D01*
X223803035Y-97410892D01*
X223897321Y-97442321D01*
X224054464Y-97442321D01*
X223048750Y-97442321D02*
X223425892Y-97442321D01*
X223237321Y-97442321D02*
X223237321Y-96782321D01*
X223300178Y-96876607D01*
X223363035Y-96939464D01*
X223425892Y-96970892D01*
X222483035Y-96782321D02*
X222608750Y-96782321D01*
X222671607Y-96813750D01*
X222703035Y-96845178D01*
X222765892Y-96939464D01*
X222797321Y-97065178D01*
X222797321Y-97316607D01*
X222765892Y-97379464D01*
X222734464Y-97410892D01*
X222671607Y-97442321D01*
X222545892Y-97442321D01*
X222483035Y-97410892D01*
X222451607Y-97379464D01*
X222420178Y-97316607D01*
X222420178Y-97159464D01*
X222451607Y-97096607D01*
X222483035Y-97065178D01*
X222545892Y-97033750D01*
X222671607Y-97033750D01*
X222734464Y-97065178D01*
X222765892Y-97096607D01*
X222797321Y-97159464D01*
%TO.C,LED31*%
X205821607Y-135542321D02*
X206135892Y-135542321D01*
X206135892Y-134882321D01*
X205601607Y-135196607D02*
X205381607Y-135196607D01*
X205287321Y-135542321D02*
X205601607Y-135542321D01*
X205601607Y-134882321D01*
X205287321Y-134882321D01*
X205004464Y-135542321D02*
X205004464Y-134882321D01*
X204847321Y-134882321D01*
X204753035Y-134913750D01*
X204690178Y-134976607D01*
X204658750Y-135039464D01*
X204627321Y-135165178D01*
X204627321Y-135259464D01*
X204658750Y-135385178D01*
X204690178Y-135448035D01*
X204753035Y-135510892D01*
X204847321Y-135542321D01*
X205004464Y-135542321D01*
X204407321Y-134882321D02*
X203998750Y-134882321D01*
X204218750Y-135133750D01*
X204124464Y-135133750D01*
X204061607Y-135165178D01*
X204030178Y-135196607D01*
X203998750Y-135259464D01*
X203998750Y-135416607D01*
X204030178Y-135479464D01*
X204061607Y-135510892D01*
X204124464Y-135542321D01*
X204313035Y-135542321D01*
X204375892Y-135510892D01*
X204407321Y-135479464D01*
X203370178Y-135542321D02*
X203747321Y-135542321D01*
X203558750Y-135542321D02*
X203558750Y-134882321D01*
X203621607Y-134976607D01*
X203684464Y-135039464D01*
X203747321Y-135070892D01*
%TO.C,LED21*%
X134384107Y-116411071D02*
X134698392Y-116411071D01*
X134698392Y-115751071D01*
X134164107Y-116065357D02*
X133944107Y-116065357D01*
X133849821Y-116411071D02*
X134164107Y-116411071D01*
X134164107Y-115751071D01*
X133849821Y-115751071D01*
X133566964Y-116411071D02*
X133566964Y-115751071D01*
X133409821Y-115751071D01*
X133315535Y-115782500D01*
X133252678Y-115845357D01*
X133221250Y-115908214D01*
X133189821Y-116033928D01*
X133189821Y-116128214D01*
X133221250Y-116253928D01*
X133252678Y-116316785D01*
X133315535Y-116379642D01*
X133409821Y-116411071D01*
X133566964Y-116411071D01*
X132938392Y-115813928D02*
X132906964Y-115782500D01*
X132844107Y-115751071D01*
X132686964Y-115751071D01*
X132624107Y-115782500D01*
X132592678Y-115813928D01*
X132561250Y-115876785D01*
X132561250Y-115939642D01*
X132592678Y-116033928D01*
X132969821Y-116411071D01*
X132561250Y-116411071D01*
X131932678Y-116411071D02*
X132309821Y-116411071D01*
X132121250Y-116411071D02*
X132121250Y-115751071D01*
X132184107Y-115845357D01*
X132246964Y-115908214D01*
X132309821Y-115939642D01*
%TO.C,LED32*%
X224871607Y-135542321D02*
X225185892Y-135542321D01*
X225185892Y-134882321D01*
X224651607Y-135196607D02*
X224431607Y-135196607D01*
X224337321Y-135542321D02*
X224651607Y-135542321D01*
X224651607Y-134882321D01*
X224337321Y-134882321D01*
X224054464Y-135542321D02*
X224054464Y-134882321D01*
X223897321Y-134882321D01*
X223803035Y-134913750D01*
X223740178Y-134976607D01*
X223708750Y-135039464D01*
X223677321Y-135165178D01*
X223677321Y-135259464D01*
X223708750Y-135385178D01*
X223740178Y-135448035D01*
X223803035Y-135510892D01*
X223897321Y-135542321D01*
X224054464Y-135542321D01*
X223457321Y-134882321D02*
X223048750Y-134882321D01*
X223268750Y-135133750D01*
X223174464Y-135133750D01*
X223111607Y-135165178D01*
X223080178Y-135196607D01*
X223048750Y-135259464D01*
X223048750Y-135416607D01*
X223080178Y-135479464D01*
X223111607Y-135510892D01*
X223174464Y-135542321D01*
X223363035Y-135542321D01*
X223425892Y-135510892D01*
X223457321Y-135479464D01*
X222797321Y-134945178D02*
X222765892Y-134913750D01*
X222703035Y-134882321D01*
X222545892Y-134882321D01*
X222483035Y-134913750D01*
X222451607Y-134945178D01*
X222420178Y-135008035D01*
X222420178Y-135070892D01*
X222451607Y-135165178D01*
X222828750Y-135542321D01*
X222420178Y-135542321D01*
%TO.C,LED22*%
X115334107Y-116411071D02*
X115648392Y-116411071D01*
X115648392Y-115751071D01*
X115114107Y-116065357D02*
X114894107Y-116065357D01*
X114799821Y-116411071D02*
X115114107Y-116411071D01*
X115114107Y-115751071D01*
X114799821Y-115751071D01*
X114516964Y-116411071D02*
X114516964Y-115751071D01*
X114359821Y-115751071D01*
X114265535Y-115782500D01*
X114202678Y-115845357D01*
X114171250Y-115908214D01*
X114139821Y-116033928D01*
X114139821Y-116128214D01*
X114171250Y-116253928D01*
X114202678Y-116316785D01*
X114265535Y-116379642D01*
X114359821Y-116411071D01*
X114516964Y-116411071D01*
X113888392Y-115813928D02*
X113856964Y-115782500D01*
X113794107Y-115751071D01*
X113636964Y-115751071D01*
X113574107Y-115782500D01*
X113542678Y-115813928D01*
X113511250Y-115876785D01*
X113511250Y-115939642D01*
X113542678Y-116033928D01*
X113919821Y-116411071D01*
X113511250Y-116411071D01*
X113259821Y-115813928D02*
X113228392Y-115782500D01*
X113165535Y-115751071D01*
X113008392Y-115751071D01*
X112945535Y-115782500D01*
X112914107Y-115813928D01*
X112882678Y-115876785D01*
X112882678Y-115939642D01*
X112914107Y-116033928D01*
X113291250Y-116411071D01*
X112882678Y-116411071D01*
%TO.C,LED14*%
X186771607Y-97442321D02*
X187085892Y-97442321D01*
X187085892Y-96782321D01*
X186551607Y-97096607D02*
X186331607Y-97096607D01*
X186237321Y-97442321D02*
X186551607Y-97442321D01*
X186551607Y-96782321D01*
X186237321Y-96782321D01*
X185954464Y-97442321D02*
X185954464Y-96782321D01*
X185797321Y-96782321D01*
X185703035Y-96813750D01*
X185640178Y-96876607D01*
X185608750Y-96939464D01*
X185577321Y-97065178D01*
X185577321Y-97159464D01*
X185608750Y-97285178D01*
X185640178Y-97348035D01*
X185703035Y-97410892D01*
X185797321Y-97442321D01*
X185954464Y-97442321D01*
X184948750Y-97442321D02*
X185325892Y-97442321D01*
X185137321Y-97442321D02*
X185137321Y-96782321D01*
X185200178Y-96876607D01*
X185263035Y-96939464D01*
X185325892Y-96970892D01*
X184383035Y-97002321D02*
X184383035Y-97442321D01*
X184540178Y-96750892D02*
X184697321Y-97222321D01*
X184288750Y-97222321D01*
D10*
%TO.C,JP2*%
X174833333Y-41952380D02*
X174833333Y-42666666D01*
X174880952Y-42809523D01*
X174976190Y-42904761D01*
X175119047Y-42952380D01*
X175214285Y-42952380D01*
X174357142Y-42952380D02*
X174357142Y-41952380D01*
X173976190Y-41952380D01*
X173880952Y-42000000D01*
X173833333Y-42047619D01*
X173785714Y-42142857D01*
X173785714Y-42285714D01*
X173833333Y-42380952D01*
X173880952Y-42428571D01*
X173976190Y-42476190D01*
X174357142Y-42476190D01*
X173404761Y-42047619D02*
X173357142Y-42000000D01*
X173261904Y-41952380D01*
X173023809Y-41952380D01*
X172928571Y-42000000D01*
X172880952Y-42047619D01*
X172833333Y-42142857D01*
X172833333Y-42238095D01*
X172880952Y-42380952D01*
X173452380Y-42952380D01*
X172833333Y-42952380D01*
%TO.C,JP8*%
X118833333Y-49952380D02*
X118833333Y-50666666D01*
X118880952Y-50809523D01*
X118976190Y-50904761D01*
X119119047Y-50952380D01*
X119214285Y-50952380D01*
X118357142Y-50952380D02*
X118357142Y-49952380D01*
X117976190Y-49952380D01*
X117880952Y-50000000D01*
X117833333Y-50047619D01*
X117785714Y-50142857D01*
X117785714Y-50285714D01*
X117833333Y-50380952D01*
X117880952Y-50428571D01*
X117976190Y-50476190D01*
X118357142Y-50476190D01*
X117214285Y-50380952D02*
X117309523Y-50333333D01*
X117357142Y-50285714D01*
X117404761Y-50190476D01*
X117404761Y-50142857D01*
X117357142Y-50047619D01*
X117309523Y-50000000D01*
X117214285Y-49952380D01*
X117023809Y-49952380D01*
X116928571Y-50000000D01*
X116880952Y-50047619D01*
X116833333Y-50142857D01*
X116833333Y-50190476D01*
X116880952Y-50285714D01*
X116928571Y-50333333D01*
X117023809Y-50380952D01*
X117214285Y-50380952D01*
X117309523Y-50428571D01*
X117357142Y-50476190D01*
X117404761Y-50571428D01*
X117404761Y-50761904D01*
X117357142Y-50857142D01*
X117309523Y-50904761D01*
X117214285Y-50952380D01*
X117023809Y-50952380D01*
X116928571Y-50904761D01*
X116880952Y-50857142D01*
X116833333Y-50761904D01*
X116833333Y-50571428D01*
X116880952Y-50476190D01*
X116928571Y-50428571D01*
X117023809Y-50380952D01*
%TO.C,JP1*%
X174833333Y-34952380D02*
X174833333Y-35666666D01*
X174880952Y-35809523D01*
X174976190Y-35904761D01*
X175119047Y-35952380D01*
X175214285Y-35952380D01*
X174357142Y-35952380D02*
X174357142Y-34952380D01*
X173976190Y-34952380D01*
X173880952Y-35000000D01*
X173833333Y-35047619D01*
X173785714Y-35142857D01*
X173785714Y-35285714D01*
X173833333Y-35380952D01*
X173880952Y-35428571D01*
X173976190Y-35476190D01*
X174357142Y-35476190D01*
X172833333Y-35952380D02*
X173404761Y-35952380D01*
X173119047Y-35952380D02*
X173119047Y-34952380D01*
X173214285Y-35095238D01*
X173309523Y-35190476D01*
X173404761Y-35238095D01*
%TO.C,JP5*%
X130833333Y-49952380D02*
X130833333Y-50666666D01*
X130880952Y-50809523D01*
X130976190Y-50904761D01*
X131119047Y-50952380D01*
X131214285Y-50952380D01*
X130357142Y-50952380D02*
X130357142Y-49952380D01*
X129976190Y-49952380D01*
X129880952Y-50000000D01*
X129833333Y-50047619D01*
X129785714Y-50142857D01*
X129785714Y-50285714D01*
X129833333Y-50380952D01*
X129880952Y-50428571D01*
X129976190Y-50476190D01*
X130357142Y-50476190D01*
X128880952Y-49952380D02*
X129357142Y-49952380D01*
X129404761Y-50428571D01*
X129357142Y-50380952D01*
X129261904Y-50333333D01*
X129023809Y-50333333D01*
X128928571Y-50380952D01*
X128880952Y-50428571D01*
X128833333Y-50523809D01*
X128833333Y-50761904D01*
X128880952Y-50857142D01*
X128928571Y-50904761D01*
X129023809Y-50952380D01*
X129261904Y-50952380D01*
X129357142Y-50904761D01*
X129404761Y-50857142D01*
D12*
%TO.C,U1*%
X152496428Y-31714285D02*
X152496428Y-30964285D01*
X152246428Y-31500000D01*
X151996428Y-30964285D01*
X151996428Y-31714285D01*
X151639285Y-31714285D02*
X151639285Y-31214285D01*
X151639285Y-30964285D02*
X151675000Y-31000000D01*
X151639285Y-31035714D01*
X151603571Y-31000000D01*
X151639285Y-30964285D01*
X151639285Y-31035714D01*
X150960714Y-31678571D02*
X151032142Y-31714285D01*
X151175000Y-31714285D01*
X151246428Y-31678571D01*
X151282142Y-31642857D01*
X151317857Y-31571428D01*
X151317857Y-31357142D01*
X151282142Y-31285714D01*
X151246428Y-31250000D01*
X151175000Y-31214285D01*
X151032142Y-31214285D01*
X150960714Y-31250000D01*
X150639285Y-31714285D02*
X150639285Y-31214285D01*
X150639285Y-31357142D02*
X150603571Y-31285714D01*
X150567857Y-31250000D01*
X150496428Y-31214285D01*
X150425000Y-31214285D01*
X150067857Y-31714285D02*
X150139285Y-31678571D01*
X150175000Y-31642857D01*
X150210714Y-31571428D01*
X150210714Y-31357142D01*
X150175000Y-31285714D01*
X150139285Y-31250000D01*
X150067857Y-31214285D01*
X149960714Y-31214285D01*
X149889285Y-31250000D01*
X149853571Y-31285714D01*
X149817857Y-31357142D01*
X149817857Y-31571428D01*
X149853571Y-31642857D01*
X149889285Y-31678571D01*
X149960714Y-31714285D01*
X150067857Y-31714285D01*
X149496428Y-30964285D02*
X149496428Y-31571428D01*
X149460714Y-31642857D01*
X149425000Y-31678571D01*
X149353571Y-31714285D01*
X149210714Y-31714285D01*
X149139285Y-31678571D01*
X149103571Y-31642857D01*
X149067857Y-31571428D01*
X149067857Y-30964285D01*
X148746428Y-31678571D02*
X148639285Y-31714285D01*
X148460714Y-31714285D01*
X148389285Y-31678571D01*
X148353571Y-31642857D01*
X148317857Y-31571428D01*
X148317857Y-31500000D01*
X148353571Y-31428571D01*
X148389285Y-31392857D01*
X148460714Y-31357142D01*
X148603571Y-31321428D01*
X148675000Y-31285714D01*
X148710714Y-31250000D01*
X148746428Y-31178571D01*
X148746428Y-31107142D01*
X148710714Y-31035714D01*
X148675000Y-31000000D01*
X148603571Y-30964285D01*
X148425000Y-30964285D01*
X148317857Y-31000000D01*
X147746428Y-31321428D02*
X147639285Y-31357142D01*
X147603571Y-31392857D01*
X147567857Y-31464285D01*
X147567857Y-31571428D01*
X147603571Y-31642857D01*
X147639285Y-31678571D01*
X147710714Y-31714285D01*
X147996428Y-31714285D01*
X147996428Y-30964285D01*
X147746428Y-30964285D01*
X147675000Y-31000000D01*
X147639285Y-31035714D01*
X147603571Y-31107142D01*
X147603571Y-31178571D01*
X147639285Y-31250000D01*
X147675000Y-31285714D01*
X147746428Y-31321428D01*
X147996428Y-31321428D01*
D13*
X162280714Y-51200000D02*
X161961666Y-51200000D01*
X162344523Y-51414285D02*
X162121190Y-50664285D01*
X161897857Y-51414285D01*
X161323571Y-51414285D02*
X161706428Y-51414285D01*
X161515000Y-51414285D02*
X161515000Y-50664285D01*
X161578809Y-50771428D01*
X161642619Y-50842857D01*
X161706428Y-50878571D01*
X160557857Y-50628571D02*
X161132142Y-51592857D01*
X160111190Y-51021428D02*
X160334523Y-51021428D01*
X160334523Y-51414285D02*
X160334523Y-50664285D01*
X160015476Y-50664285D01*
X159473095Y-50664285D02*
X159600714Y-50664285D01*
X159664523Y-50700000D01*
X159696428Y-50735714D01*
X159760238Y-50842857D01*
X159792142Y-50985714D01*
X159792142Y-51271428D01*
X159760238Y-51342857D01*
X159728333Y-51378571D01*
X159664523Y-51414285D01*
X159536904Y-51414285D01*
X159473095Y-51378571D01*
X159441190Y-51342857D01*
X159409285Y-51271428D01*
X159409285Y-51092857D01*
X159441190Y-51021428D01*
X159473095Y-50985714D01*
X159536904Y-50950000D01*
X159664523Y-50950000D01*
X159728333Y-50985714D01*
X159760238Y-51021428D01*
X159792142Y-51092857D01*
X161977619Y-63539285D02*
X162360476Y-63539285D01*
X162169047Y-63539285D02*
X162169047Y-62789285D01*
X162232857Y-62896428D01*
X162296666Y-62967857D01*
X162360476Y-63003571D01*
X161562857Y-62789285D02*
X161499047Y-62789285D01*
X161435238Y-62825000D01*
X161403333Y-62860714D01*
X161371428Y-62932142D01*
X161339523Y-63075000D01*
X161339523Y-63253571D01*
X161371428Y-63396428D01*
X161403333Y-63467857D01*
X161435238Y-63503571D01*
X161499047Y-63539285D01*
X161562857Y-63539285D01*
X161626666Y-63503571D01*
X161658571Y-63467857D01*
X161690476Y-63396428D01*
X161722380Y-63253571D01*
X161722380Y-63075000D01*
X161690476Y-62932142D01*
X161658571Y-62860714D01*
X161626666Y-62825000D01*
X161562857Y-62789285D01*
X160573809Y-62753571D02*
X161148095Y-63717857D01*
X160127142Y-63146428D02*
X160031428Y-63182142D01*
X159999523Y-63217857D01*
X159967619Y-63289285D01*
X159967619Y-63396428D01*
X159999523Y-63467857D01*
X160031428Y-63503571D01*
X160095238Y-63539285D01*
X160350476Y-63539285D01*
X160350476Y-62789285D01*
X160127142Y-62789285D01*
X160063333Y-62825000D01*
X160031428Y-62860714D01*
X159999523Y-62932142D01*
X159999523Y-63003571D01*
X160031428Y-63075000D01*
X160063333Y-63110714D01*
X160127142Y-63146428D01*
X160350476Y-63146428D01*
X159393333Y-62789285D02*
X159520952Y-62789285D01*
X159584761Y-62825000D01*
X159616666Y-62860714D01*
X159680476Y-62967857D01*
X159712380Y-63110714D01*
X159712380Y-63396428D01*
X159680476Y-63467857D01*
X159648571Y-63503571D01*
X159584761Y-63539285D01*
X159457142Y-63539285D01*
X159393333Y-63503571D01*
X159361428Y-63467857D01*
X159329523Y-63396428D01*
X159329523Y-63217857D01*
X159361428Y-63146428D01*
X159393333Y-63110714D01*
X159457142Y-63075000D01*
X159584761Y-63075000D01*
X159648571Y-63110714D01*
X159680476Y-63146428D01*
X159712380Y-63217857D01*
X140527619Y-58621428D02*
X140304285Y-58621428D01*
X140208571Y-59014285D02*
X140527619Y-59014285D01*
X140527619Y-58264285D01*
X140208571Y-58264285D01*
X139634285Y-58264285D02*
X139761904Y-58264285D01*
X139825714Y-58300000D01*
X139857619Y-58335714D01*
X139921428Y-58442857D01*
X139953333Y-58585714D01*
X139953333Y-58871428D01*
X139921428Y-58942857D01*
X139889523Y-58978571D01*
X139825714Y-59014285D01*
X139698095Y-59014285D01*
X139634285Y-58978571D01*
X139602380Y-58942857D01*
X139570476Y-58871428D01*
X139570476Y-58692857D01*
X139602380Y-58621428D01*
X139634285Y-58585714D01*
X139698095Y-58550000D01*
X139825714Y-58550000D01*
X139889523Y-58585714D01*
X139921428Y-58621428D01*
X139953333Y-58692857D01*
X138804761Y-58228571D02*
X139379047Y-59192857D01*
X138645238Y-58264285D02*
X138198571Y-58264285D01*
X138485714Y-59014285D01*
X161977619Y-61614285D02*
X162360476Y-61614285D01*
X162169047Y-61614285D02*
X162169047Y-60864285D01*
X162232857Y-60971428D01*
X162296666Y-61042857D01*
X162360476Y-61078571D01*
X161403333Y-60864285D02*
X161530952Y-60864285D01*
X161594761Y-60900000D01*
X161626666Y-60935714D01*
X161690476Y-61042857D01*
X161722380Y-61185714D01*
X161722380Y-61471428D01*
X161690476Y-61542857D01*
X161658571Y-61578571D01*
X161594761Y-61614285D01*
X161467142Y-61614285D01*
X161403333Y-61578571D01*
X161371428Y-61542857D01*
X161339523Y-61471428D01*
X161339523Y-61292857D01*
X161371428Y-61221428D01*
X161403333Y-61185714D01*
X161467142Y-61150000D01*
X161594761Y-61150000D01*
X161658571Y-61185714D01*
X161690476Y-61221428D01*
X161722380Y-61292857D01*
X160573809Y-60828571D02*
X161148095Y-61792857D01*
X160127142Y-61221428D02*
X160031428Y-61257142D01*
X159999523Y-61292857D01*
X159967619Y-61364285D01*
X159967619Y-61471428D01*
X159999523Y-61542857D01*
X160031428Y-61578571D01*
X160095238Y-61614285D01*
X160350476Y-61614285D01*
X160350476Y-60864285D01*
X160127142Y-60864285D01*
X160063333Y-60900000D01*
X160031428Y-60935714D01*
X159999523Y-61007142D01*
X159999523Y-61078571D01*
X160031428Y-61150000D01*
X160063333Y-61185714D01*
X160127142Y-61221428D01*
X160350476Y-61221428D01*
X159712380Y-60935714D02*
X159680476Y-60900000D01*
X159616666Y-60864285D01*
X159457142Y-60864285D01*
X159393333Y-60900000D01*
X159361428Y-60935714D01*
X159329523Y-61007142D01*
X159329523Y-61078571D01*
X159361428Y-61185714D01*
X159744285Y-61614285D01*
X159329523Y-61614285D01*
X140763571Y-38764285D02*
X140763571Y-38014285D01*
X140604047Y-38014285D01*
X140508333Y-38050000D01*
X140444523Y-38121428D01*
X140412619Y-38192857D01*
X140380714Y-38335714D01*
X140380714Y-38442857D01*
X140412619Y-38585714D01*
X140444523Y-38657142D01*
X140508333Y-38728571D01*
X140604047Y-38764285D01*
X140763571Y-38764285D01*
X140125476Y-38085714D02*
X140093571Y-38050000D01*
X140029761Y-38014285D01*
X139870238Y-38014285D01*
X139806428Y-38050000D01*
X139774523Y-38085714D01*
X139742619Y-38157142D01*
X139742619Y-38228571D01*
X139774523Y-38335714D01*
X140157380Y-38764285D01*
X139742619Y-38764285D01*
X138976904Y-37978571D02*
X139551190Y-38942857D01*
X138370714Y-38764285D02*
X138594047Y-38407142D01*
X138753571Y-38764285D02*
X138753571Y-38014285D01*
X138498333Y-38014285D01*
X138434523Y-38050000D01*
X138402619Y-38085714D01*
X138370714Y-38157142D01*
X138370714Y-38264285D01*
X138402619Y-38335714D01*
X138434523Y-38371428D01*
X138498333Y-38407142D01*
X138753571Y-38407142D01*
X138147380Y-38014285D02*
X137700714Y-38764285D01*
X137700714Y-38014285D02*
X138147380Y-38764285D01*
X137094523Y-38764285D02*
X137477380Y-38764285D01*
X137285952Y-38764285D02*
X137285952Y-38014285D01*
X137349761Y-38121428D01*
X137413571Y-38192857D01*
X137477380Y-38228571D01*
X140176666Y-53842857D02*
X140208571Y-53878571D01*
X140304285Y-53914285D01*
X140368095Y-53914285D01*
X140463809Y-53878571D01*
X140527619Y-53807142D01*
X140559523Y-53735714D01*
X140591428Y-53592857D01*
X140591428Y-53485714D01*
X140559523Y-53342857D01*
X140527619Y-53271428D01*
X140463809Y-53200000D01*
X140368095Y-53164285D01*
X140304285Y-53164285D01*
X140208571Y-53200000D01*
X140176666Y-53235714D01*
X139602380Y-53164285D02*
X139730000Y-53164285D01*
X139793809Y-53200000D01*
X139825714Y-53235714D01*
X139889523Y-53342857D01*
X139921428Y-53485714D01*
X139921428Y-53771428D01*
X139889523Y-53842857D01*
X139857619Y-53878571D01*
X139793809Y-53914285D01*
X139666190Y-53914285D01*
X139602380Y-53878571D01*
X139570476Y-53842857D01*
X139538571Y-53771428D01*
X139538571Y-53592857D01*
X139570476Y-53521428D01*
X139602380Y-53485714D01*
X139666190Y-53450000D01*
X139793809Y-53450000D01*
X139857619Y-53485714D01*
X139889523Y-53521428D01*
X139921428Y-53592857D01*
X138772857Y-53128571D02*
X139347142Y-54092857D01*
X138230476Y-53164285D02*
X138549523Y-53164285D01*
X138581428Y-53521428D01*
X138549523Y-53485714D01*
X138485714Y-53450000D01*
X138326190Y-53450000D01*
X138262380Y-53485714D01*
X138230476Y-53521428D01*
X138198571Y-53592857D01*
X138198571Y-53771428D01*
X138230476Y-53842857D01*
X138262380Y-53878571D01*
X138326190Y-53914285D01*
X138485714Y-53914285D01*
X138549523Y-53878571D01*
X138581428Y-53842857D01*
X140733571Y-46428571D02*
X140637857Y-46464285D01*
X140478333Y-46464285D01*
X140414523Y-46428571D01*
X140382619Y-46392857D01*
X140350714Y-46321428D01*
X140350714Y-46250000D01*
X140382619Y-46178571D01*
X140414523Y-46142857D01*
X140478333Y-46107142D01*
X140605952Y-46071428D01*
X140669761Y-46035714D01*
X140701666Y-46000000D01*
X140733571Y-45928571D01*
X140733571Y-45857142D01*
X140701666Y-45785714D01*
X140669761Y-45750000D01*
X140605952Y-45714285D01*
X140446428Y-45714285D01*
X140350714Y-45750000D01*
X140063571Y-46464285D02*
X140063571Y-45714285D01*
X139904047Y-45714285D01*
X139808333Y-45750000D01*
X139744523Y-45821428D01*
X139712619Y-45892857D01*
X139680714Y-46035714D01*
X139680714Y-46142857D01*
X139712619Y-46285714D01*
X139744523Y-46357142D01*
X139808333Y-46428571D01*
X139904047Y-46464285D01*
X140063571Y-46464285D01*
X139425476Y-46250000D02*
X139106428Y-46250000D01*
X139489285Y-46464285D02*
X139265952Y-45714285D01*
X139042619Y-46464285D01*
X138340714Y-45678571D02*
X138915000Y-46642857D01*
X138117380Y-46464285D02*
X138117380Y-45714285D01*
X137957857Y-45714285D01*
X137862142Y-45750000D01*
X137798333Y-45821428D01*
X137766428Y-45892857D01*
X137734523Y-46035714D01*
X137734523Y-46142857D01*
X137766428Y-46285714D01*
X137798333Y-46357142D01*
X137862142Y-46428571D01*
X137957857Y-46464285D01*
X138117380Y-46464285D01*
X137096428Y-46464285D02*
X137479285Y-46464285D01*
X137287857Y-46464285D02*
X137287857Y-45714285D01*
X137351666Y-45821428D01*
X137415476Y-45892857D01*
X137479285Y-45928571D01*
X136330714Y-45678571D02*
X136905000Y-46642857D01*
X136139285Y-45785714D02*
X136107380Y-45750000D01*
X136043571Y-45714285D01*
X135884047Y-45714285D01*
X135820238Y-45750000D01*
X135788333Y-45785714D01*
X135756428Y-45857142D01*
X135756428Y-45928571D01*
X135788333Y-46035714D01*
X136171190Y-46464285D01*
X135756428Y-46464285D01*
X162280714Y-53750000D02*
X161961666Y-53750000D01*
X162344523Y-53964285D02*
X162121190Y-53214285D01*
X161897857Y-53964285D01*
X161546904Y-53214285D02*
X161483095Y-53214285D01*
X161419285Y-53250000D01*
X161387380Y-53285714D01*
X161355476Y-53357142D01*
X161323571Y-53500000D01*
X161323571Y-53678571D01*
X161355476Y-53821428D01*
X161387380Y-53892857D01*
X161419285Y-53928571D01*
X161483095Y-53964285D01*
X161546904Y-53964285D01*
X161610714Y-53928571D01*
X161642619Y-53892857D01*
X161674523Y-53821428D01*
X161706428Y-53678571D01*
X161706428Y-53500000D01*
X161674523Y-53357142D01*
X161642619Y-53285714D01*
X161610714Y-53250000D01*
X161546904Y-53214285D01*
X160557857Y-53178571D02*
X161132142Y-54142857D01*
X160111190Y-53571428D02*
X160334523Y-53571428D01*
X160334523Y-53964285D02*
X160334523Y-53214285D01*
X160015476Y-53214285D01*
X159824047Y-53214285D02*
X159377380Y-53214285D01*
X159664523Y-53964285D01*
X140405476Y-40650000D02*
X140469285Y-40614285D01*
X140565000Y-40614285D01*
X140660714Y-40650000D01*
X140724523Y-40721428D01*
X140756428Y-40792857D01*
X140788333Y-40935714D01*
X140788333Y-41042857D01*
X140756428Y-41185714D01*
X140724523Y-41257142D01*
X140660714Y-41328571D01*
X140565000Y-41364285D01*
X140501190Y-41364285D01*
X140405476Y-41328571D01*
X140373571Y-41292857D01*
X140373571Y-41042857D01*
X140501190Y-41042857D01*
X140086428Y-41364285D02*
X140086428Y-40614285D01*
X139703571Y-41364285D01*
X139703571Y-40614285D01*
X139384523Y-41364285D02*
X139384523Y-40614285D01*
X139225000Y-40614285D01*
X139129285Y-40650000D01*
X139065476Y-40721428D01*
X139033571Y-40792857D01*
X139001666Y-40935714D01*
X139001666Y-41042857D01*
X139033571Y-41185714D01*
X139065476Y-41257142D01*
X139129285Y-41328571D01*
X139225000Y-41364285D01*
X139384523Y-41364285D01*
X140717619Y-48928571D02*
X140621904Y-48964285D01*
X140462380Y-48964285D01*
X140398571Y-48928571D01*
X140366666Y-48892857D01*
X140334761Y-48821428D01*
X140334761Y-48750000D01*
X140366666Y-48678571D01*
X140398571Y-48642857D01*
X140462380Y-48607142D01*
X140590000Y-48571428D01*
X140653809Y-48535714D01*
X140685714Y-48500000D01*
X140717619Y-48428571D01*
X140717619Y-48357142D01*
X140685714Y-48285714D01*
X140653809Y-48250000D01*
X140590000Y-48214285D01*
X140430476Y-48214285D01*
X140334761Y-48250000D01*
X139664761Y-48892857D02*
X139696666Y-48928571D01*
X139792380Y-48964285D01*
X139856190Y-48964285D01*
X139951904Y-48928571D01*
X140015714Y-48857142D01*
X140047619Y-48785714D01*
X140079523Y-48642857D01*
X140079523Y-48535714D01*
X140047619Y-48392857D01*
X140015714Y-48321428D01*
X139951904Y-48250000D01*
X139856190Y-48214285D01*
X139792380Y-48214285D01*
X139696666Y-48250000D01*
X139664761Y-48285714D01*
X139058571Y-48964285D02*
X139377619Y-48964285D01*
X139377619Y-48214285D01*
X138356666Y-48178571D02*
X138930952Y-49142857D01*
X138133333Y-48964285D02*
X138133333Y-48214285D01*
X137973809Y-48214285D01*
X137878095Y-48250000D01*
X137814285Y-48321428D01*
X137782380Y-48392857D01*
X137750476Y-48535714D01*
X137750476Y-48642857D01*
X137782380Y-48785714D01*
X137814285Y-48857142D01*
X137878095Y-48928571D01*
X137973809Y-48964285D01*
X138133333Y-48964285D01*
X137335714Y-48214285D02*
X137271904Y-48214285D01*
X137208095Y-48250000D01*
X137176190Y-48285714D01*
X137144285Y-48357142D01*
X137112380Y-48500000D01*
X137112380Y-48678571D01*
X137144285Y-48821428D01*
X137176190Y-48892857D01*
X137208095Y-48928571D01*
X137271904Y-48964285D01*
X137335714Y-48964285D01*
X137399523Y-48928571D01*
X137431428Y-48892857D01*
X137463333Y-48821428D01*
X137495238Y-48678571D01*
X137495238Y-48500000D01*
X137463333Y-48357142D01*
X137431428Y-48285714D01*
X137399523Y-48250000D01*
X137335714Y-48214285D01*
X136346666Y-48178571D02*
X136920952Y-49142857D01*
X136187142Y-48214285D02*
X135772380Y-48214285D01*
X135995714Y-48500000D01*
X135900000Y-48500000D01*
X135836190Y-48535714D01*
X135804285Y-48571428D01*
X135772380Y-48642857D01*
X135772380Y-48821428D01*
X135804285Y-48892857D01*
X135836190Y-48928571D01*
X135900000Y-48964285D01*
X136091428Y-48964285D01*
X136155238Y-48928571D01*
X136187142Y-48892857D01*
X160657619Y-36164285D02*
X160880952Y-35807142D01*
X161040476Y-36164285D02*
X161040476Y-35414285D01*
X160785238Y-35414285D01*
X160721428Y-35450000D01*
X160689523Y-35485714D01*
X160657619Y-35557142D01*
X160657619Y-35664285D01*
X160689523Y-35735714D01*
X160721428Y-35771428D01*
X160785238Y-35807142D01*
X161040476Y-35807142D01*
X160402380Y-35950000D02*
X160083333Y-35950000D01*
X160466190Y-36164285D02*
X160242857Y-35414285D01*
X160019523Y-36164285D01*
X159860000Y-35414285D02*
X159700476Y-36164285D01*
X159572857Y-35628571D01*
X159445238Y-36164285D01*
X159285714Y-35414285D01*
X162280714Y-46200000D02*
X161961666Y-46200000D01*
X162344523Y-46414285D02*
X162121190Y-45664285D01*
X161897857Y-46414285D01*
X161738333Y-45664285D02*
X161323571Y-45664285D01*
X161546904Y-45950000D01*
X161451190Y-45950000D01*
X161387380Y-45985714D01*
X161355476Y-46021428D01*
X161323571Y-46092857D01*
X161323571Y-46271428D01*
X161355476Y-46342857D01*
X161387380Y-46378571D01*
X161451190Y-46414285D01*
X161642619Y-46414285D01*
X161706428Y-46378571D01*
X161738333Y-46342857D01*
X160557857Y-45628571D02*
X161132142Y-46592857D01*
X160111190Y-46021428D02*
X160334523Y-46021428D01*
X160334523Y-46414285D02*
X160334523Y-45664285D01*
X160015476Y-45664285D01*
X159473095Y-45914285D02*
X159473095Y-46414285D01*
X159632619Y-45628571D02*
X159792142Y-46164285D01*
X159377380Y-46164285D01*
X161088333Y-42964285D02*
X160865000Y-43714285D01*
X160641666Y-42964285D01*
X160035476Y-43642857D02*
X160067380Y-43678571D01*
X160163095Y-43714285D01*
X160226904Y-43714285D01*
X160322619Y-43678571D01*
X160386428Y-43607142D01*
X160418333Y-43535714D01*
X160450238Y-43392857D01*
X160450238Y-43285714D01*
X160418333Y-43142857D01*
X160386428Y-43071428D01*
X160322619Y-43000000D01*
X160226904Y-42964285D01*
X160163095Y-42964285D01*
X160067380Y-43000000D01*
X160035476Y-43035714D01*
X159365476Y-43642857D02*
X159397380Y-43678571D01*
X159493095Y-43714285D01*
X159556904Y-43714285D01*
X159652619Y-43678571D01*
X159716428Y-43607142D01*
X159748333Y-43535714D01*
X159780238Y-43392857D01*
X159780238Y-43285714D01*
X159748333Y-43142857D01*
X159716428Y-43071428D01*
X159652619Y-43000000D01*
X159556904Y-42964285D01*
X159493095Y-42964285D01*
X159397380Y-43000000D01*
X159365476Y-43035714D01*
X140683809Y-36214285D02*
X140683809Y-35464285D01*
X140524285Y-35464285D01*
X140428571Y-35500000D01*
X140364761Y-35571428D01*
X140332857Y-35642857D01*
X140300952Y-35785714D01*
X140300952Y-35892857D01*
X140332857Y-36035714D01*
X140364761Y-36107142D01*
X140428571Y-36178571D01*
X140524285Y-36214285D01*
X140683809Y-36214285D01*
X140077619Y-35464285D02*
X139662857Y-35464285D01*
X139886190Y-35750000D01*
X139790476Y-35750000D01*
X139726666Y-35785714D01*
X139694761Y-35821428D01*
X139662857Y-35892857D01*
X139662857Y-36071428D01*
X139694761Y-36142857D01*
X139726666Y-36178571D01*
X139790476Y-36214285D01*
X139981904Y-36214285D01*
X140045714Y-36178571D01*
X140077619Y-36142857D01*
X138897142Y-35428571D02*
X139471428Y-36392857D01*
X138769523Y-35464285D02*
X138386666Y-35464285D01*
X138578095Y-36214285D02*
X138578095Y-35464285D01*
X138227142Y-35464285D02*
X137780476Y-36214285D01*
X137780476Y-35464285D02*
X138227142Y-36214285D01*
X137397619Y-35464285D02*
X137333809Y-35464285D01*
X137270000Y-35500000D01*
X137238095Y-35535714D01*
X137206190Y-35607142D01*
X137174285Y-35750000D01*
X137174285Y-35928571D01*
X137206190Y-36071428D01*
X137238095Y-36142857D01*
X137270000Y-36178571D01*
X137333809Y-36214285D01*
X137397619Y-36214285D01*
X137461428Y-36178571D01*
X137493333Y-36142857D01*
X137525238Y-36071428D01*
X137557142Y-35928571D01*
X137557142Y-35750000D01*
X137525238Y-35607142D01*
X137493333Y-35535714D01*
X137461428Y-35500000D01*
X137397619Y-35464285D01*
X160705476Y-38000000D02*
X160769285Y-37964285D01*
X160865000Y-37964285D01*
X160960714Y-38000000D01*
X161024523Y-38071428D01*
X161056428Y-38142857D01*
X161088333Y-38285714D01*
X161088333Y-38392857D01*
X161056428Y-38535714D01*
X161024523Y-38607142D01*
X160960714Y-38678571D01*
X160865000Y-38714285D01*
X160801190Y-38714285D01*
X160705476Y-38678571D01*
X160673571Y-38642857D01*
X160673571Y-38392857D01*
X160801190Y-38392857D01*
X160386428Y-38714285D02*
X160386428Y-37964285D01*
X160003571Y-38714285D01*
X160003571Y-37964285D01*
X159684523Y-38714285D02*
X159684523Y-37964285D01*
X159525000Y-37964285D01*
X159429285Y-38000000D01*
X159365476Y-38071428D01*
X159333571Y-38142857D01*
X159301666Y-38285714D01*
X159301666Y-38392857D01*
X159333571Y-38535714D01*
X159365476Y-38607142D01*
X159429285Y-38678571D01*
X159525000Y-38714285D01*
X159684523Y-38714285D01*
X140405476Y-43100000D02*
X140469285Y-43064285D01*
X140565000Y-43064285D01*
X140660714Y-43100000D01*
X140724523Y-43171428D01*
X140756428Y-43242857D01*
X140788333Y-43385714D01*
X140788333Y-43492857D01*
X140756428Y-43635714D01*
X140724523Y-43707142D01*
X140660714Y-43778571D01*
X140565000Y-43814285D01*
X140501190Y-43814285D01*
X140405476Y-43778571D01*
X140373571Y-43742857D01*
X140373571Y-43492857D01*
X140501190Y-43492857D01*
X140086428Y-43814285D02*
X140086428Y-43064285D01*
X139703571Y-43814285D01*
X139703571Y-43064285D01*
X139384523Y-43814285D02*
X139384523Y-43064285D01*
X139225000Y-43064285D01*
X139129285Y-43100000D01*
X139065476Y-43171428D01*
X139033571Y-43242857D01*
X139001666Y-43385714D01*
X139001666Y-43492857D01*
X139033571Y-43635714D01*
X139065476Y-43707142D01*
X139129285Y-43778571D01*
X139225000Y-43814285D01*
X139384523Y-43814285D01*
X140559523Y-56464285D02*
X140559523Y-55714285D01*
X140400000Y-55714285D01*
X140304285Y-55750000D01*
X140240476Y-55821428D01*
X140208571Y-55892857D01*
X140176666Y-56035714D01*
X140176666Y-56142857D01*
X140208571Y-56285714D01*
X140240476Y-56357142D01*
X140304285Y-56428571D01*
X140400000Y-56464285D01*
X140559523Y-56464285D01*
X139953333Y-55714285D02*
X139506666Y-55714285D01*
X139793809Y-56464285D01*
X138772857Y-55678571D02*
X139347142Y-56642857D01*
X138262380Y-55714285D02*
X138390000Y-55714285D01*
X138453809Y-55750000D01*
X138485714Y-55785714D01*
X138549523Y-55892857D01*
X138581428Y-56035714D01*
X138581428Y-56321428D01*
X138549523Y-56392857D01*
X138517619Y-56428571D01*
X138453809Y-56464285D01*
X138326190Y-56464285D01*
X138262380Y-56428571D01*
X138230476Y-56392857D01*
X138198571Y-56321428D01*
X138198571Y-56142857D01*
X138230476Y-56071428D01*
X138262380Y-56035714D01*
X138326190Y-56000000D01*
X138453809Y-56000000D01*
X138517619Y-56035714D01*
X138549523Y-56071428D01*
X138581428Y-56142857D01*
X162280714Y-48700000D02*
X161961666Y-48700000D01*
X162344523Y-48914285D02*
X162121190Y-48164285D01*
X161897857Y-48914285D01*
X161706428Y-48235714D02*
X161674523Y-48200000D01*
X161610714Y-48164285D01*
X161451190Y-48164285D01*
X161387380Y-48200000D01*
X161355476Y-48235714D01*
X161323571Y-48307142D01*
X161323571Y-48378571D01*
X161355476Y-48485714D01*
X161738333Y-48914285D01*
X161323571Y-48914285D01*
X160557857Y-48128571D02*
X161132142Y-49092857D01*
X160111190Y-48521428D02*
X160334523Y-48521428D01*
X160334523Y-48914285D02*
X160334523Y-48164285D01*
X160015476Y-48164285D01*
X159441190Y-48164285D02*
X159760238Y-48164285D01*
X159792142Y-48521428D01*
X159760238Y-48485714D01*
X159696428Y-48450000D01*
X159536904Y-48450000D01*
X159473095Y-48485714D01*
X159441190Y-48521428D01*
X159409285Y-48592857D01*
X159409285Y-48771428D01*
X159441190Y-48842857D01*
X159473095Y-48878571D01*
X159536904Y-48914285D01*
X159696428Y-48914285D01*
X159760238Y-48878571D01*
X159792142Y-48842857D01*
X140336190Y-63146428D02*
X140240476Y-63182142D01*
X140208571Y-63217857D01*
X140176666Y-63289285D01*
X140176666Y-63396428D01*
X140208571Y-63467857D01*
X140240476Y-63503571D01*
X140304285Y-63539285D01*
X140559523Y-63539285D01*
X140559523Y-62789285D01*
X140336190Y-62789285D01*
X140272380Y-62825000D01*
X140240476Y-62860714D01*
X140208571Y-62932142D01*
X140208571Y-63003571D01*
X140240476Y-63075000D01*
X140272380Y-63110714D01*
X140336190Y-63146428D01*
X140559523Y-63146428D01*
X139570476Y-62789285D02*
X139889523Y-62789285D01*
X139921428Y-63146428D01*
X139889523Y-63110714D01*
X139825714Y-63075000D01*
X139666190Y-63075000D01*
X139602380Y-63110714D01*
X139570476Y-63146428D01*
X139538571Y-63217857D01*
X139538571Y-63396428D01*
X139570476Y-63467857D01*
X139602380Y-63503571D01*
X139666190Y-63539285D01*
X139825714Y-63539285D01*
X139889523Y-63503571D01*
X139921428Y-63467857D01*
X138772857Y-62753571D02*
X139347142Y-63717857D01*
X138517619Y-63539285D02*
X138390000Y-63539285D01*
X138326190Y-63503571D01*
X138294285Y-63467857D01*
X138230476Y-63360714D01*
X138198571Y-63217857D01*
X138198571Y-62932142D01*
X138230476Y-62860714D01*
X138262380Y-62825000D01*
X138326190Y-62789285D01*
X138453809Y-62789285D01*
X138517619Y-62825000D01*
X138549523Y-62860714D01*
X138581428Y-62932142D01*
X138581428Y-63110714D01*
X138549523Y-63182142D01*
X138517619Y-63217857D01*
X138453809Y-63253571D01*
X138326190Y-63253571D01*
X138262380Y-63217857D01*
X138230476Y-63182142D01*
X138198571Y-63110714D01*
D10*
D13*
X161977619Y-56514285D02*
X162360476Y-56514285D01*
X162169047Y-56514285D02*
X162169047Y-55764285D01*
X162232857Y-55871428D01*
X162296666Y-55942857D01*
X162360476Y-55978571D01*
X161371428Y-55764285D02*
X161690476Y-55764285D01*
X161722380Y-56121428D01*
X161690476Y-56085714D01*
X161626666Y-56050000D01*
X161467142Y-56050000D01*
X161403333Y-56085714D01*
X161371428Y-56121428D01*
X161339523Y-56192857D01*
X161339523Y-56371428D01*
X161371428Y-56442857D01*
X161403333Y-56478571D01*
X161467142Y-56514285D01*
X161626666Y-56514285D01*
X161690476Y-56478571D01*
X161722380Y-56442857D01*
X160573809Y-55728571D02*
X161148095Y-56692857D01*
X160127142Y-56121428D02*
X160031428Y-56157142D01*
X159999523Y-56192857D01*
X159967619Y-56264285D01*
X159967619Y-56371428D01*
X159999523Y-56442857D01*
X160031428Y-56478571D01*
X160095238Y-56514285D01*
X160350476Y-56514285D01*
X160350476Y-55764285D01*
X160127142Y-55764285D01*
X160063333Y-55800000D01*
X160031428Y-55835714D01*
X159999523Y-55907142D01*
X159999523Y-55978571D01*
X160031428Y-56050000D01*
X160063333Y-56085714D01*
X160127142Y-56121428D01*
X160350476Y-56121428D01*
X159329523Y-56514285D02*
X159712380Y-56514285D01*
X159520952Y-56514285D02*
X159520952Y-55764285D01*
X159584761Y-55871428D01*
X159648571Y-55942857D01*
X159712380Y-55978571D01*
X140559523Y-51364285D02*
X140559523Y-50614285D01*
X140400000Y-50614285D01*
X140304285Y-50650000D01*
X140240476Y-50721428D01*
X140208571Y-50792857D01*
X140176666Y-50935714D01*
X140176666Y-51042857D01*
X140208571Y-51185714D01*
X140240476Y-51257142D01*
X140304285Y-51328571D01*
X140400000Y-51364285D01*
X140559523Y-51364285D01*
X139602380Y-50864285D02*
X139602380Y-51364285D01*
X139761904Y-50578571D02*
X139921428Y-51114285D01*
X139506666Y-51114285D01*
X138772857Y-50578571D02*
X139347142Y-51542857D01*
X138262380Y-50864285D02*
X138262380Y-51364285D01*
X138421904Y-50578571D02*
X138581428Y-51114285D01*
X138166666Y-51114285D01*
X140336190Y-61171428D02*
X140240476Y-61207142D01*
X140208571Y-61242857D01*
X140176666Y-61314285D01*
X140176666Y-61421428D01*
X140208571Y-61492857D01*
X140240476Y-61528571D01*
X140304285Y-61564285D01*
X140559523Y-61564285D01*
X140559523Y-60814285D01*
X140336190Y-60814285D01*
X140272380Y-60850000D01*
X140240476Y-60885714D01*
X140208571Y-60957142D01*
X140208571Y-61028571D01*
X140240476Y-61100000D01*
X140272380Y-61135714D01*
X140336190Y-61171428D01*
X140559523Y-61171428D01*
X139602380Y-61064285D02*
X139602380Y-61564285D01*
X139761904Y-60778571D02*
X139921428Y-61314285D01*
X139506666Y-61314285D01*
X138772857Y-60778571D02*
X139347142Y-61742857D01*
X138453809Y-61135714D02*
X138517619Y-61100000D01*
X138549523Y-61064285D01*
X138581428Y-60992857D01*
X138581428Y-60957142D01*
X138549523Y-60885714D01*
X138517619Y-60850000D01*
X138453809Y-60814285D01*
X138326190Y-60814285D01*
X138262380Y-60850000D01*
X138230476Y-60885714D01*
X138198571Y-60957142D01*
X138198571Y-60992857D01*
X138230476Y-61064285D01*
X138262380Y-61100000D01*
X138326190Y-61135714D01*
X138453809Y-61135714D01*
X138517619Y-61171428D01*
X138549523Y-61207142D01*
X138581428Y-61278571D01*
X138581428Y-61421428D01*
X138549523Y-61492857D01*
X138517619Y-61528571D01*
X138453809Y-61564285D01*
X138326190Y-61564285D01*
X138262380Y-61528571D01*
X138230476Y-61492857D01*
X138198571Y-61421428D01*
X138198571Y-61278571D01*
X138230476Y-61207142D01*
X138262380Y-61171428D01*
X138326190Y-61135714D01*
X160561904Y-41264285D02*
X160785238Y-40907142D01*
X160944761Y-41264285D02*
X160944761Y-40514285D01*
X160689523Y-40514285D01*
X160625714Y-40550000D01*
X160593809Y-40585714D01*
X160561904Y-40657142D01*
X160561904Y-40764285D01*
X160593809Y-40835714D01*
X160625714Y-40871428D01*
X160689523Y-40907142D01*
X160944761Y-40907142D01*
X160306666Y-41228571D02*
X160210952Y-41264285D01*
X160051428Y-41264285D01*
X159987619Y-41228571D01*
X159955714Y-41192857D01*
X159923809Y-41121428D01*
X159923809Y-41050000D01*
X159955714Y-40978571D01*
X159987619Y-40942857D01*
X160051428Y-40907142D01*
X160179047Y-40871428D01*
X160242857Y-40835714D01*
X160274761Y-40800000D01*
X160306666Y-40728571D01*
X160306666Y-40657142D01*
X160274761Y-40585714D01*
X160242857Y-40550000D01*
X160179047Y-40514285D01*
X160019523Y-40514285D01*
X159923809Y-40550000D01*
X159732380Y-40514285D02*
X159349523Y-40514285D01*
X159540952Y-41264285D02*
X159540952Y-40514285D01*
X161977619Y-59064285D02*
X162360476Y-59064285D01*
X162169047Y-59064285D02*
X162169047Y-58314285D01*
X162232857Y-58421428D01*
X162296666Y-58492857D01*
X162360476Y-58528571D01*
X161403333Y-58564285D02*
X161403333Y-59064285D01*
X161562857Y-58278571D02*
X161722380Y-58814285D01*
X161307619Y-58814285D01*
X160573809Y-58278571D02*
X161148095Y-59242857D01*
X160127142Y-58671428D02*
X160031428Y-58707142D01*
X159999523Y-58742857D01*
X159967619Y-58814285D01*
X159967619Y-58921428D01*
X159999523Y-58992857D01*
X160031428Y-59028571D01*
X160095238Y-59064285D01*
X160350476Y-59064285D01*
X160350476Y-58314285D01*
X160127142Y-58314285D01*
X160063333Y-58350000D01*
X160031428Y-58385714D01*
X159999523Y-58457142D01*
X159999523Y-58528571D01*
X160031428Y-58600000D01*
X160063333Y-58635714D01*
X160127142Y-58671428D01*
X160350476Y-58671428D01*
X159744285Y-58314285D02*
X159329523Y-58314285D01*
X159552857Y-58600000D01*
X159457142Y-58600000D01*
X159393333Y-58635714D01*
X159361428Y-58671428D01*
X159329523Y-58742857D01*
X159329523Y-58921428D01*
X159361428Y-58992857D01*
X159393333Y-59028571D01*
X159457142Y-59064285D01*
X159648571Y-59064285D01*
X159712380Y-59028571D01*
X159744285Y-58992857D01*
D10*
%TO.C,JP7*%
X122533333Y-49952380D02*
X122533333Y-50666666D01*
X122580952Y-50809523D01*
X122676190Y-50904761D01*
X122819047Y-50952380D01*
X122914285Y-50952380D01*
X122057142Y-50952380D02*
X122057142Y-49952380D01*
X121676190Y-49952380D01*
X121580952Y-50000000D01*
X121533333Y-50047619D01*
X121485714Y-50142857D01*
X121485714Y-50285714D01*
X121533333Y-50380952D01*
X121580952Y-50428571D01*
X121676190Y-50476190D01*
X122057142Y-50476190D01*
X121152380Y-49952380D02*
X120485714Y-49952380D01*
X120914285Y-50952380D01*
%TO.C,C2*%
X144666666Y-96927142D02*
X144714285Y-96974761D01*
X144857142Y-97022380D01*
X144952380Y-97022380D01*
X145095238Y-96974761D01*
X145190476Y-96879523D01*
X145238095Y-96784285D01*
X145285714Y-96593809D01*
X145285714Y-96450952D01*
X145238095Y-96260476D01*
X145190476Y-96165238D01*
X145095238Y-96070000D01*
X144952380Y-96022380D01*
X144857142Y-96022380D01*
X144714285Y-96070000D01*
X144666666Y-96117619D01*
X144285714Y-96117619D02*
X144238095Y-96070000D01*
X144142857Y-96022380D01*
X143904761Y-96022380D01*
X143809523Y-96070000D01*
X143761904Y-96117619D01*
X143714285Y-96212857D01*
X143714285Y-96308095D01*
X143761904Y-96450952D01*
X144333333Y-97022380D01*
X143714285Y-97022380D01*
%TO.C,JP6*%
X126833333Y-49952380D02*
X126833333Y-50666666D01*
X126880952Y-50809523D01*
X126976190Y-50904761D01*
X127119047Y-50952380D01*
X127214285Y-50952380D01*
X126357142Y-50952380D02*
X126357142Y-49952380D01*
X125976190Y-49952380D01*
X125880952Y-50000000D01*
X125833333Y-50047619D01*
X125785714Y-50142857D01*
X125785714Y-50285714D01*
X125833333Y-50380952D01*
X125880952Y-50428571D01*
X125976190Y-50476190D01*
X126357142Y-50476190D01*
X124928571Y-49952380D02*
X125119047Y-49952380D01*
X125214285Y-50000000D01*
X125261904Y-50047619D01*
X125357142Y-50190476D01*
X125404761Y-50380952D01*
X125404761Y-50761904D01*
X125357142Y-50857142D01*
X125309523Y-50904761D01*
X125214285Y-50952380D01*
X125023809Y-50952380D01*
X124928571Y-50904761D01*
X124880952Y-50857142D01*
X124833333Y-50761904D01*
X124833333Y-50523809D01*
X124880952Y-50428571D01*
X124928571Y-50380952D01*
X125023809Y-50333333D01*
X125214285Y-50333333D01*
X125309523Y-50380952D01*
X125357142Y-50428571D01*
X125404761Y-50523809D01*
%TO.C,JP3*%
X174833333Y-48952380D02*
X174833333Y-49666666D01*
X174880952Y-49809523D01*
X174976190Y-49904761D01*
X175119047Y-49952380D01*
X175214285Y-49952380D01*
X174357142Y-49952380D02*
X174357142Y-48952380D01*
X173976190Y-48952380D01*
X173880952Y-49000000D01*
X173833333Y-49047619D01*
X173785714Y-49142857D01*
X173785714Y-49285714D01*
X173833333Y-49380952D01*
X173880952Y-49428571D01*
X173976190Y-49476190D01*
X174357142Y-49476190D01*
X173452380Y-48952380D02*
X172833333Y-48952380D01*
X173166666Y-49333333D01*
X173023809Y-49333333D01*
X172928571Y-49380952D01*
X172880952Y-49428571D01*
X172833333Y-49523809D01*
X172833333Y-49761904D01*
X172880952Y-49857142D01*
X172928571Y-49904761D01*
X173023809Y-49952380D01*
X173309523Y-49952380D01*
X173404761Y-49904761D01*
X173452380Y-49857142D01*
%TO.C,JP4*%
X174833333Y-55952380D02*
X174833333Y-56666666D01*
X174880952Y-56809523D01*
X174976190Y-56904761D01*
X175119047Y-56952380D01*
X175214285Y-56952380D01*
X174357142Y-56952380D02*
X174357142Y-55952380D01*
X173976190Y-55952380D01*
X173880952Y-56000000D01*
X173833333Y-56047619D01*
X173785714Y-56142857D01*
X173785714Y-56285714D01*
X173833333Y-56380952D01*
X173880952Y-56428571D01*
X173976190Y-56476190D01*
X174357142Y-56476190D01*
X172928571Y-56285714D02*
X172928571Y-56952380D01*
X173166666Y-55904761D02*
X173404761Y-56619047D01*
X172785714Y-56619047D01*
%TO.C,C1*%
X144666666Y-135427142D02*
X144714285Y-135474761D01*
X144857142Y-135522380D01*
X144952380Y-135522380D01*
X145095238Y-135474761D01*
X145190476Y-135379523D01*
X145238095Y-135284285D01*
X145285714Y-135093809D01*
X145285714Y-134950952D01*
X145238095Y-134760476D01*
X145190476Y-134665238D01*
X145095238Y-134570000D01*
X144952380Y-134522380D01*
X144857142Y-134522380D01*
X144714285Y-134570000D01*
X144666666Y-134617619D01*
X143714285Y-135522380D02*
X144285714Y-135522380D01*
X144000000Y-135522380D02*
X144000000Y-134522380D01*
X144095238Y-134665238D01*
X144190476Y-134760476D01*
X144285714Y-134808095D01*
D12*
%TO.C,KSW14*%
X200668750Y-121200000D02*
X205768750Y-121200000D01*
X204568750Y-125400000D02*
X209668750Y-125400000D01*
X200668750Y-121200000D02*
G75*
G03*
X198668750Y-123200000I-1J-1999999D01*
G01*
X204568750Y-125400000D02*
G75*
G03*
X202568750Y-127400000I-1J-1999999D01*
G01*
%TO.C,D30*%
X98000000Y-60250000D02*
X98000000Y-56350000D01*
X98000000Y-60250000D02*
X96000000Y-60250000D01*
X96000000Y-60250000D02*
X96000000Y-56350000D01*
%TO.C,D7*%
X203000000Y-46250000D02*
X203000000Y-42350000D01*
X203000000Y-46250000D02*
X201000000Y-46250000D01*
X201000000Y-46250000D02*
X201000000Y-42350000D01*
D10*
%TO.C,LED20*%
X164718750Y-112912500D02*
X164718750Y-114712500D01*
D12*
%TO.C,D39*%
X123000000Y-60250000D02*
X123000000Y-56350000D01*
X121000000Y-60250000D02*
X121000000Y-56350000D01*
X123000000Y-60250000D02*
X121000000Y-60250000D01*
D10*
%TO.C,LED15*%
X206718750Y-95662500D02*
X206718750Y-93862500D01*
D12*
%TO.C,KSW8*%
X162568750Y-83100000D02*
X167668750Y-83100000D01*
X166468750Y-87300000D02*
X171568750Y-87300000D01*
X162568750Y-83100000D02*
G75*
G03*
X160568750Y-85100000I-1J-1999999D01*
G01*
X166468750Y-87300000D02*
G75*
G03*
X164468750Y-89300000I-1J-1999999D01*
G01*
D10*
%TO.C,LED19*%
X183768750Y-112912500D02*
X183768750Y-114712500D01*
D12*
%TO.C,D25*%
X100000000Y-53250000D02*
X100000000Y-49350000D01*
X102000000Y-53250000D02*
X102000000Y-49350000D01*
X102000000Y-53250000D02*
X100000000Y-53250000D01*
%TO.C,D17*%
X102000000Y-39250000D02*
X102000000Y-35350000D01*
X100000000Y-39250000D02*
X100000000Y-35350000D01*
X102000000Y-39250000D02*
X100000000Y-39250000D01*
%TO.C,D23*%
X94000000Y-46250000D02*
X92000000Y-46250000D01*
X94000000Y-46250000D02*
X94000000Y-42350000D01*
X92000000Y-46250000D02*
X92000000Y-42350000D01*
D10*
%TO.C,LED1*%
X221868750Y-74812500D02*
X221868750Y-76612500D01*
D12*
%TO.C,D19*%
X92000000Y-39250000D02*
X92000000Y-35350000D01*
X94000000Y-39250000D02*
X94000000Y-35350000D01*
X94000000Y-39250000D02*
X92000000Y-39250000D01*
%TO.C,D1*%
X211000000Y-39250000D02*
X211000000Y-35350000D01*
X209000000Y-39250000D02*
X209000000Y-35350000D01*
X211000000Y-39250000D02*
X209000000Y-39250000D01*
%TO.C,D14*%
X207000000Y-60250000D02*
X207000000Y-56350000D01*
X207000000Y-60250000D02*
X205000000Y-60250000D01*
X205000000Y-60250000D02*
X205000000Y-56350000D01*
%TO.C,D40*%
X119000000Y-60250000D02*
X119000000Y-56350000D01*
X119000000Y-60250000D02*
X117000000Y-60250000D01*
X117000000Y-60250000D02*
X117000000Y-56350000D01*
%TO.C,D16*%
X197000000Y-60250000D02*
X197000000Y-56350000D01*
X199000000Y-60250000D02*
X197000000Y-60250000D01*
X199000000Y-60250000D02*
X199000000Y-56350000D01*
%TO.C,D38*%
X127000000Y-60250000D02*
X125000000Y-60250000D01*
X127000000Y-60250000D02*
X127000000Y-56350000D01*
X125000000Y-60250000D02*
X125000000Y-56350000D01*
D10*
%TO.C,LED9*%
X78131250Y-95662500D02*
X78131250Y-93862500D01*
D12*
%TO.C,D33*%
X177000000Y-39250000D02*
X177000000Y-35350000D01*
X179000000Y-39250000D02*
X177000000Y-39250000D01*
X179000000Y-39250000D02*
X179000000Y-35350000D01*
%TO.C,KSW9*%
X219718750Y-102150000D02*
X224818750Y-102150000D01*
X223618750Y-106350000D02*
X228718750Y-106350000D01*
X219718750Y-102150000D02*
G75*
G03*
X217718750Y-104150000I-1J-1999999D01*
G01*
X223618750Y-106350000D02*
G75*
G03*
X221618750Y-108350000I-1J-1999999D01*
G01*
%TO.C,KSW5*%
X219718750Y-83100000D02*
X224818750Y-83100000D01*
X223618750Y-87300000D02*
X228718750Y-87300000D01*
X223618750Y-87300000D02*
G75*
G03*
X221618750Y-89300000I-1J-1999999D01*
G01*
X219718750Y-83100000D02*
G75*
G03*
X217718750Y-85100000I-1J-1999999D01*
G01*
%TO.C,D28*%
X90000000Y-53250000D02*
X88000000Y-53250000D01*
X88000000Y-53250000D02*
X88000000Y-49350000D01*
X90000000Y-53250000D02*
X90000000Y-49350000D01*
D10*
%TO.C,LED13*%
X168618750Y-95662500D02*
X168618750Y-93862500D01*
D12*
%TO.C,KSW3*%
X181618750Y-64050000D02*
X186718750Y-64050000D01*
X185518750Y-68250000D02*
X190618750Y-68250000D01*
X181618750Y-64050000D02*
G75*
G03*
X179618750Y-66050000I-1J-1999999D01*
G01*
X185518750Y-68250000D02*
G75*
G03*
X183518750Y-70250000I-1J-1999999D01*
G01*
%TO.C,KSW26*%
X110181250Y-102150000D02*
X115281250Y-102150000D01*
X114081250Y-106350000D02*
X119181250Y-106350000D01*
X110181250Y-102150000D02*
G75*
G03*
X108181250Y-104150000I-1J-1999999D01*
G01*
X114081250Y-106350000D02*
G75*
G03*
X112081250Y-108350000I-1J-1999999D01*
G01*
%TO.C,D9*%
X211000000Y-53250000D02*
X209000000Y-53250000D01*
X211000000Y-53250000D02*
X211000000Y-49350000D01*
X209000000Y-53250000D02*
X209000000Y-49350000D01*
%TO.C,KSW24*%
X75981250Y-87300000D02*
X81081250Y-87300000D01*
X72081250Y-83100000D02*
X77181250Y-83100000D01*
X75981250Y-87300000D02*
G75*
G03*
X73981250Y-89300000I-1J-1999999D01*
G01*
X72081250Y-83100000D02*
G75*
G03*
X70081250Y-85100000I-1J-1999999D01*
G01*
D10*
%TO.C,LED6*%
X112331250Y-74812500D02*
X112331250Y-76612500D01*
D12*
%TO.C,KSW15*%
X181618750Y-121200000D02*
X186718750Y-121200000D01*
X185518750Y-125400000D02*
X190618750Y-125400000D01*
X181618750Y-121200000D02*
G75*
G03*
X179618750Y-123200000I-1J-1999999D01*
G01*
X185518750Y-125400000D02*
G75*
G03*
X183518750Y-127400000I-1J-1999999D01*
G01*
%TO.C,KSW29*%
X129231250Y-121200000D02*
X134331250Y-121200000D01*
X133131250Y-125400000D02*
X138231250Y-125400000D01*
X133131250Y-125400000D02*
G75*
G03*
X131131250Y-127400000I-1J-1999999D01*
G01*
X129231250Y-121200000D02*
G75*
G03*
X127231250Y-123200000I-1J-1999999D01*
G01*
%TO.C,KSW23*%
X95031250Y-87300000D02*
X100131250Y-87300000D01*
X91131250Y-83100000D02*
X96231250Y-83100000D01*
X91131250Y-83100000D02*
G75*
G03*
X89131250Y-85100000I-1J-1999999D01*
G01*
X95031250Y-87300000D02*
G75*
G03*
X93031250Y-89300000I-1J-1999999D01*
G01*
D10*
%TO.C,LED12*%
X135281250Y-95662500D02*
X135281250Y-93862500D01*
D12*
%TO.C,KSW21*%
X129231250Y-83100000D02*
X134331250Y-83100000D01*
X133131250Y-87300000D02*
X138231250Y-87300000D01*
X129231250Y-83100000D02*
G75*
G03*
X127231250Y-85100000I-1J-1999999D01*
G01*
X133131250Y-87300000D02*
G75*
G03*
X131131250Y-89300000I-1J-1999999D01*
G01*
D10*
%TO.C,LED26*%
X97181250Y-133762500D02*
X97181250Y-131962500D01*
D12*
%TO.C,KSW19*%
X91131250Y-64050000D02*
X96231250Y-64050000D01*
X95031250Y-68250000D02*
X100131250Y-68250000D01*
X91131250Y-64050000D02*
G75*
G03*
X89131250Y-66050000I-1J-1999999D01*
G01*
X95031250Y-68250000D02*
G75*
G03*
X93031250Y-70250000I-1J-1999999D01*
G01*
D10*
%TO.C,LED25*%
X78131250Y-133762500D02*
X78131250Y-131962500D01*
D12*
%TO.C,KSW30*%
X114081250Y-125400000D02*
X119181250Y-125400000D01*
X110181250Y-121200000D02*
X115281250Y-121200000D01*
X114081250Y-125400000D02*
G75*
G03*
X112081250Y-127400000I-1J-1999999D01*
G01*
X110181250Y-121200000D02*
G75*
G03*
X108181250Y-123200000I-1J-1999999D01*
G01*
%TO.C,D32*%
X90000000Y-60250000D02*
X90000000Y-56350000D01*
X90000000Y-60250000D02*
X88000000Y-60250000D01*
X88000000Y-60250000D02*
X88000000Y-56350000D01*
%TO.C,KSW20*%
X72081250Y-64050000D02*
X77181250Y-64050000D01*
X75981250Y-68250000D02*
X81081250Y-68250000D01*
X72081250Y-64050000D02*
G75*
G03*
X70081250Y-66050000I-1J-1999999D01*
G01*
X75981250Y-68250000D02*
G75*
G03*
X73981250Y-70250000I-1J-1999999D01*
G01*
%TO.C,D12*%
X199000000Y-53250000D02*
X199000000Y-49350000D01*
X199000000Y-53250000D02*
X197000000Y-53250000D01*
X197000000Y-53250000D02*
X197000000Y-49350000D01*
%TO.C,D22*%
X96000000Y-46250000D02*
X96000000Y-42350000D01*
X98000000Y-46250000D02*
X98000000Y-42350000D01*
X98000000Y-46250000D02*
X96000000Y-46250000D01*
%TO.C,KSW10*%
X204568750Y-106350000D02*
X209668750Y-106350000D01*
X200668750Y-102150000D02*
X205768750Y-102150000D01*
X204568750Y-106350000D02*
G75*
G03*
X202568750Y-108350000I-1J-1999999D01*
G01*
X200668750Y-102150000D02*
G75*
G03*
X198668750Y-104150000I-1J-1999999D01*
G01*
%TO.C,KSW7*%
X185518750Y-87300000D02*
X190618750Y-87300000D01*
X181618750Y-83100000D02*
X186718750Y-83100000D01*
X185518750Y-87300000D02*
G75*
G03*
X183518750Y-89300000I-1J-1999999D01*
G01*
X181618750Y-83100000D02*
G75*
G03*
X179618750Y-85100000I-1J-1999999D01*
G01*
%TO.C,KSW13*%
X219718750Y-121200000D02*
X224818750Y-121200000D01*
X223618750Y-125400000D02*
X228718750Y-125400000D01*
X219718750Y-121200000D02*
G75*
G03*
X217718750Y-123200000I-1J-1999999D01*
G01*
X223618750Y-125400000D02*
G75*
G03*
X221618750Y-127400000I-1J-1999999D01*
G01*
%TO.C,KSW18*%
X114081250Y-68250000D02*
X119181250Y-68250000D01*
X110181250Y-64050000D02*
X115281250Y-64050000D01*
X110181250Y-64050000D02*
G75*
G03*
X108181250Y-66050000I-1J-1999999D01*
G01*
X114081250Y-68250000D02*
G75*
G03*
X112081250Y-70250000I-1J-1999999D01*
G01*
%TO.C,KSW1*%
X219718750Y-64050000D02*
X224818750Y-64050000D01*
X223618750Y-68250000D02*
X228718750Y-68250000D01*
X223618750Y-68250000D02*
G75*
G03*
X221618750Y-70250000I-1J-1999999D01*
G01*
X219718750Y-64050000D02*
G75*
G03*
X217718750Y-66050000I-1J-1999999D01*
G01*
D10*
%TO.C,LED17*%
X221868750Y-112912500D02*
X221868750Y-114712500D01*
D12*
%TO.C,KSW4*%
X166468750Y-68250000D02*
X171568750Y-68250000D01*
X162568750Y-64050000D02*
X167668750Y-64050000D01*
X162568750Y-64050000D02*
G75*
G03*
X160568750Y-66050000I-1J-1999999D01*
G01*
X166468750Y-68250000D02*
G75*
G03*
X164468750Y-70250000I-1J-1999999D01*
G01*
%TO.C,D4*%
X197000000Y-39250000D02*
X197000000Y-35350000D01*
X199000000Y-39250000D02*
X197000000Y-39250000D01*
X199000000Y-39250000D02*
X199000000Y-35350000D01*
%TO.C,KSW32*%
X75981250Y-125400000D02*
X81081250Y-125400000D01*
X72081250Y-121200000D02*
X77181250Y-121200000D01*
X72081250Y-121200000D02*
G75*
G03*
X70081250Y-123200000I-1J-1999999D01*
G01*
X75981250Y-125400000D02*
G75*
G03*
X73981250Y-127400000I-1J-1999999D01*
G01*
%TO.C,D27*%
X94000000Y-53250000D02*
X94000000Y-49350000D01*
X94000000Y-53250000D02*
X92000000Y-53250000D01*
X92000000Y-53250000D02*
X92000000Y-49350000D01*
%TO.C,D36*%
X177000000Y-60250000D02*
X177000000Y-56350000D01*
X179000000Y-60250000D02*
X179000000Y-56350000D01*
X179000000Y-60250000D02*
X177000000Y-60250000D01*
D10*
%TO.C,LED8*%
X74231250Y-74812500D02*
X74231250Y-76612500D01*
%TO.C,LED4*%
X164718750Y-74812500D02*
X164718750Y-76612500D01*
%TO.C,LED3*%
X183768750Y-74812500D02*
X183768750Y-76612500D01*
%TO.C,LED23*%
X93281250Y-112912500D02*
X93281250Y-114712500D01*
%TO.C,LED10*%
X97181250Y-95662500D02*
X97181250Y-93862500D01*
%TO.C,LED28*%
X135281250Y-133762500D02*
X135281250Y-131962500D01*
D12*
%TO.C,KSW31*%
X91131250Y-121200000D02*
X96231250Y-121200000D01*
X95031250Y-125400000D02*
X100131250Y-125400000D01*
X95031250Y-125400000D02*
G75*
G03*
X93031250Y-127400000I-1J-1999999D01*
G01*
X91131250Y-121200000D02*
G75*
G03*
X89131250Y-123200000I-1J-1999999D01*
G01*
D10*
%TO.C,LED24*%
X74231250Y-112912500D02*
X74231250Y-114712500D01*
D12*
%TO.C,KSW11*%
X185518750Y-106350000D02*
X190618750Y-106350000D01*
X181618750Y-102150000D02*
X186718750Y-102150000D01*
X181618750Y-102150000D02*
G75*
G03*
X179618750Y-104150000I-1J-1999999D01*
G01*
X185518750Y-106350000D02*
G75*
G03*
X183518750Y-108350000I-1J-1999999D01*
G01*
%TO.C,D21*%
X102000000Y-46250000D02*
X100000000Y-46250000D01*
X102000000Y-46250000D02*
X102000000Y-42350000D01*
X100000000Y-46250000D02*
X100000000Y-42350000D01*
%TO.C,D34*%
X177000000Y-46250000D02*
X177000000Y-42350000D01*
X179000000Y-46250000D02*
X179000000Y-42350000D01*
X179000000Y-46250000D02*
X177000000Y-46250000D01*
%TO.C,D31*%
X94000000Y-60250000D02*
X92000000Y-60250000D01*
X94000000Y-60250000D02*
X94000000Y-56350000D01*
X92000000Y-60250000D02*
X92000000Y-56350000D01*
%TO.C,D15*%
X201000000Y-60250000D02*
X201000000Y-56350000D01*
X203000000Y-60250000D02*
X203000000Y-56350000D01*
X203000000Y-60250000D02*
X201000000Y-60250000D01*
%TO.C,D29*%
X100000000Y-60250000D02*
X100000000Y-56350000D01*
X102000000Y-60250000D02*
X102000000Y-56350000D01*
X102000000Y-60250000D02*
X100000000Y-60250000D01*
D10*
%TO.C,LED7*%
X93281250Y-74812500D02*
X93281250Y-76612500D01*
D12*
%TO.C,D35*%
X177000000Y-53250000D02*
X177000000Y-49350000D01*
X179000000Y-53250000D02*
X177000000Y-53250000D01*
X179000000Y-53250000D02*
X179000000Y-49350000D01*
%TO.C,D13*%
X211000000Y-60250000D02*
X211000000Y-56350000D01*
X209000000Y-60250000D02*
X209000000Y-56350000D01*
X211000000Y-60250000D02*
X209000000Y-60250000D01*
%TO.C,KSW2*%
X204568750Y-68250000D02*
X209668750Y-68250000D01*
X200668750Y-64050000D02*
X205768750Y-64050000D01*
X200668750Y-64050000D02*
G75*
G03*
X198668750Y-66050000I-1J-1999999D01*
G01*
X204568750Y-68250000D02*
G75*
G03*
X202568750Y-70250000I-1J-1999999D01*
G01*
D10*
%TO.C,LED5*%
X131381250Y-74812500D02*
X131381250Y-76612500D01*
D12*
%TO.C,KSW25*%
X133131250Y-106350000D02*
X138231250Y-106350000D01*
X129231250Y-102150000D02*
X134331250Y-102150000D01*
X129231250Y-102150000D02*
G75*
G03*
X127231250Y-104150000I-1J-1999999D01*
G01*
X133131250Y-106350000D02*
G75*
G03*
X131131250Y-108350000I-1J-1999999D01*
G01*
%TO.C,KSW27*%
X95031250Y-106350000D02*
X100131250Y-106350000D01*
X91131250Y-102150000D02*
X96231250Y-102150000D01*
X95031250Y-106350000D02*
G75*
G03*
X93031250Y-108350000I-1J-1999999D01*
G01*
X91131250Y-102150000D02*
G75*
G03*
X89131250Y-104150000I-1J-1999999D01*
G01*
D10*
%TO.C,LED29*%
X168618750Y-133762500D02*
X168618750Y-131962500D01*
%TO.C,LED30*%
X187668750Y-133762500D02*
X187668750Y-131962500D01*
D12*
%TO.C,KSW28*%
X72081250Y-102150000D02*
X77181250Y-102150000D01*
X75981250Y-106350000D02*
X81081250Y-106350000D01*
X75981250Y-106350000D02*
G75*
G03*
X73981250Y-108350000I-1J-1999999D01*
G01*
X72081250Y-102150000D02*
G75*
G03*
X70081250Y-104150000I-1J-1999999D01*
G01*
D10*
%TO.C,LED2*%
X202818750Y-74812500D02*
X202818750Y-76612500D01*
D12*
%TO.C,D37*%
X131000000Y-60250000D02*
X131000000Y-56350000D01*
X131000000Y-60250000D02*
X129000000Y-60250000D01*
X129000000Y-60250000D02*
X129000000Y-56350000D01*
D10*
%TO.C,LED11*%
X116231250Y-95662500D02*
X116231250Y-93862500D01*
D12*
%TO.C,D11*%
X201000000Y-53250000D02*
X201000000Y-49350000D01*
X203000000Y-53250000D02*
X201000000Y-53250000D01*
X203000000Y-53250000D02*
X203000000Y-49350000D01*
%TO.C,D5*%
X211000000Y-46250000D02*
X211000000Y-42350000D01*
X209000000Y-46250000D02*
X209000000Y-42350000D01*
X211000000Y-46250000D02*
X209000000Y-46250000D01*
%TO.C,D8*%
X199000000Y-46250000D02*
X197000000Y-46250000D01*
X197000000Y-46250000D02*
X197000000Y-42350000D01*
X199000000Y-46250000D02*
X199000000Y-42350000D01*
%TO.C,D2*%
X205000000Y-39250000D02*
X205000000Y-35350000D01*
X207000000Y-39250000D02*
X205000000Y-39250000D01*
X207000000Y-39250000D02*
X207000000Y-35350000D01*
D10*
%TO.C,LED27*%
X116231250Y-133762500D02*
X116231250Y-131962500D01*
%TO.C,LED18*%
X202818750Y-112912500D02*
X202818750Y-114712500D01*
D12*
%TO.C,D26*%
X98000000Y-53250000D02*
X98000000Y-49350000D01*
X98000000Y-53250000D02*
X96000000Y-53250000D01*
X96000000Y-53250000D02*
X96000000Y-49350000D01*
%TO.C,D24*%
X90000000Y-46250000D02*
X88000000Y-46250000D01*
X90000000Y-46250000D02*
X90000000Y-42350000D01*
X88000000Y-46250000D02*
X88000000Y-42350000D01*
D10*
%TO.C,LED16*%
X225768750Y-95662500D02*
X225768750Y-93862500D01*
D12*
%TO.C,KSW12*%
X162568750Y-102150000D02*
X167668750Y-102150000D01*
X166468750Y-106350000D02*
X171568750Y-106350000D01*
X166468750Y-106350000D02*
G75*
G03*
X164468750Y-108350000I-1J-1999999D01*
G01*
X162568750Y-102150000D02*
G75*
G03*
X160568750Y-104150000I-1J-1999999D01*
G01*
%TO.C,D3*%
X203000000Y-39250000D02*
X203000000Y-35350000D01*
X201000000Y-39250000D02*
X201000000Y-35350000D01*
X203000000Y-39250000D02*
X201000000Y-39250000D01*
%TO.C,KSW22*%
X114081250Y-87300000D02*
X119181250Y-87300000D01*
X110181250Y-83100000D02*
X115281250Y-83100000D01*
X114081250Y-87300000D02*
G75*
G03*
X112081250Y-89300000I-1J-1999999D01*
G01*
X110181250Y-83100000D02*
G75*
G03*
X108181250Y-85100000I-1J-1999999D01*
G01*
%TO.C,KSW16*%
X166468750Y-125400000D02*
X171568750Y-125400000D01*
X162568750Y-121200000D02*
X167668750Y-121200000D01*
X162568750Y-121200000D02*
G75*
G03*
X160568750Y-123200000I-1J-1999999D01*
G01*
X166468750Y-125400000D02*
G75*
G03*
X164468750Y-127400000I-1J-1999999D01*
G01*
%TO.C,D20*%
X90000000Y-39250000D02*
X88000000Y-39250000D01*
X90000000Y-39250000D02*
X90000000Y-35350000D01*
X88000000Y-39250000D02*
X88000000Y-35350000D01*
%TO.C,KSW17*%
X133131250Y-68250000D02*
X138231250Y-68250000D01*
X129231250Y-64050000D02*
X134331250Y-64050000D01*
X133131250Y-68250000D02*
G75*
G03*
X131131250Y-70250000I-1J-1999999D01*
G01*
X129231250Y-64050000D02*
G75*
G03*
X127231250Y-66050000I-1J-1999999D01*
G01*
D10*
%TO.C,LED31*%
X206718750Y-133762500D02*
X206718750Y-131962500D01*
%TO.C,LED21*%
X131381250Y-112912500D02*
X131381250Y-114712500D01*
D12*
%TO.C,KSW6*%
X200668750Y-83100000D02*
X205768750Y-83100000D01*
X204568750Y-87300000D02*
X209668750Y-87300000D01*
X200668750Y-83100000D02*
G75*
G03*
X198668750Y-85100000I-1J-1999999D01*
G01*
X204568750Y-87300000D02*
G75*
G03*
X202568750Y-89300000I-1J-1999999D01*
G01*
%TO.C,D10*%
X207000000Y-53250000D02*
X205000000Y-53250000D01*
X207000000Y-53250000D02*
X207000000Y-49350000D01*
X205000000Y-53250000D02*
X205000000Y-49350000D01*
D10*
%TO.C,LED32*%
X225768750Y-133762500D02*
X225768750Y-131962500D01*
%TO.C,LED22*%
X112331250Y-112912500D02*
X112331250Y-114712500D01*
%TO.C,LED14*%
X187668750Y-95662500D02*
X187668750Y-93862500D01*
D12*
%TO.C,D6*%
X207000000Y-46250000D02*
X207000000Y-42350000D01*
X205000000Y-46250000D02*
X205000000Y-42350000D01*
X207000000Y-46250000D02*
X205000000Y-46250000D01*
%TO.C,D18*%
X98000000Y-39250000D02*
X98000000Y-35350000D01*
X98000000Y-39250000D02*
X96000000Y-39250000D01*
X96000000Y-39250000D02*
X96000000Y-35350000D01*
%TO.C,JP2*%
X173700000Y-46400000D02*
X174300000Y-46400000D01*
X175000000Y-45700000D02*
X175000000Y-44300000D01*
X174300000Y-43600000D02*
X173700000Y-43600000D01*
X173000000Y-44300000D02*
X173000000Y-45700000D01*
X173700000Y-43600000D02*
G75*
G03*
X173000000Y-44300000I-1J-699999D01*
G01*
X175000000Y-44300000D02*
G75*
G03*
X174300000Y-43600000I-699999J1D01*
G01*
X174300000Y-46400000D02*
G75*
G03*
X175000000Y-45700000I1J699999D01*
G01*
X173000000Y-45700000D02*
G75*
G03*
X173700000Y-46400000I699999J-1D01*
G01*
%TO.C,JP8*%
X117000000Y-52300000D02*
X117000000Y-53700000D01*
X119000000Y-53700000D02*
X119000000Y-52300000D01*
X118300000Y-51600000D02*
X117700000Y-51600000D01*
X117700000Y-54400000D02*
X118300000Y-54400000D01*
X117000000Y-53700000D02*
G75*
G03*
X117700000Y-54400000I699999J-1D01*
G01*
X117700000Y-51600000D02*
G75*
G03*
X117000000Y-52300000I-1J-699999D01*
G01*
X118300000Y-54400000D02*
G75*
G03*
X119000000Y-53700000I1J699999D01*
G01*
X119000000Y-52300000D02*
G75*
G03*
X118300000Y-51600000I-699999J1D01*
G01*
%TO.C,JP1*%
X173000000Y-37300000D02*
X173000000Y-38700000D01*
X173700000Y-39400000D02*
X174300000Y-39400000D01*
X175000000Y-38700000D02*
X175000000Y-37300000D01*
X174300000Y-36600000D02*
X173700000Y-36600000D01*
X173000000Y-38700000D02*
G75*
G03*
X173700000Y-39400000I699999J-1D01*
G01*
X175000000Y-37300000D02*
G75*
G03*
X174300000Y-36600000I-699999J1D01*
G01*
X173700000Y-36600000D02*
G75*
G03*
X173000000Y-37300000I-1J-699999D01*
G01*
X174300000Y-39400000D02*
G75*
G03*
X175000000Y-38700000I1J699999D01*
G01*
%TO.C,JP5*%
X131000000Y-53700000D02*
X131000000Y-52300000D01*
X129000000Y-52300000D02*
X129000000Y-53700000D01*
X129700000Y-54400000D02*
X130300000Y-54400000D01*
X130300000Y-51600000D02*
X129700000Y-51600000D01*
X131000000Y-52300000D02*
G75*
G03*
X130300000Y-51600000I-699999J1D01*
G01*
X130300000Y-54400000D02*
G75*
G03*
X131000000Y-53700000I1J699999D01*
G01*
X129000000Y-53700000D02*
G75*
G03*
X129700000Y-54400000I699999J-1D01*
G01*
X129700000Y-51600000D02*
G75*
G03*
X129000000Y-52300000I-1J-699999D01*
G01*
D10*
%TO.C,U1*%
X146250000Y-29125000D02*
X153750000Y-29125000D01*
X146250000Y-30425000D02*
X146250000Y-29125000D01*
X149500000Y-29475000D02*
X150000000Y-30125000D01*
X158900000Y-64025000D02*
X158900000Y-65075000D01*
X150250000Y-29775000D02*
X149750000Y-29775000D01*
X150350000Y-29625000D02*
X149650000Y-29625000D01*
X150150000Y-29925000D02*
X149850000Y-29925000D01*
X150500000Y-29475000D02*
X149500000Y-29475000D01*
X158900000Y-65075000D02*
X157900000Y-65075000D01*
X153750000Y-29125000D02*
X153750000Y-30425000D01*
X141100000Y-65075000D02*
X142110000Y-65075000D01*
X150000000Y-30125000D02*
X150500000Y-29475000D01*
X153750000Y-30425000D02*
X146250000Y-30425000D01*
X141100000Y-64075000D02*
X141100000Y-65075000D01*
D12*
%TO.C,JP7*%
X121000000Y-52300000D02*
X121000000Y-53700000D01*
X122300000Y-51600000D02*
X121700000Y-51600000D01*
X121700000Y-54400000D02*
X122300000Y-54400000D01*
X123000000Y-53700000D02*
X123000000Y-52300000D01*
X121700000Y-51600000D02*
G75*
G03*
X121000000Y-52300000I-1J-699999D01*
G01*
X123000000Y-52300000D02*
G75*
G03*
X122300000Y-51600000I-699999J1D01*
G01*
X121000000Y-53700000D02*
G75*
G03*
X121700000Y-54400000I699999J-1D01*
G01*
X122300000Y-54400000D02*
G75*
G03*
X123000000Y-53700000I1J699999D01*
G01*
%TO.C,C2*%
X144646267Y-97490000D02*
X144353733Y-97490000D01*
X144646267Y-98510000D02*
X144353733Y-98510000D01*
%TO.C,JP6*%
X126300000Y-51600000D02*
X125700000Y-51600000D01*
X125700000Y-54400000D02*
X126300000Y-54400000D01*
X127000000Y-53700000D02*
X127000000Y-52300000D01*
X125000000Y-52300000D02*
X125000000Y-53700000D01*
X127000000Y-52300000D02*
G75*
G03*
X126300000Y-51600000I-699999J1D01*
G01*
X125700000Y-51600000D02*
G75*
G03*
X125000000Y-52300000I-1J-699999D01*
G01*
X125000000Y-53700000D02*
G75*
G03*
X125700000Y-54400000I699999J-1D01*
G01*
X126300000Y-54400000D02*
G75*
G03*
X127000000Y-53700000I1J699999D01*
G01*
%TO.C,JP3*%
X175000000Y-52700000D02*
X175000000Y-51300000D01*
X174300000Y-50600000D02*
X173700000Y-50600000D01*
X173000000Y-51300000D02*
X173000000Y-52700000D01*
X173700000Y-53400000D02*
X174300000Y-53400000D01*
X173700000Y-50600000D02*
G75*
G03*
X173000000Y-51300000I-1J-699999D01*
G01*
X173000000Y-52700000D02*
G75*
G03*
X173700000Y-53400000I699999J-1D01*
G01*
X174300000Y-53400000D02*
G75*
G03*
X175000000Y-52700000I1J699999D01*
G01*
X175000000Y-51300000D02*
G75*
G03*
X174300000Y-50600000I-699999J1D01*
G01*
%TO.C,JP4*%
X175000000Y-59700000D02*
X175000000Y-58300000D01*
X173700000Y-60400000D02*
X174300000Y-60400000D01*
X174300000Y-57600000D02*
X173700000Y-57600000D01*
X173000000Y-58300000D02*
X173000000Y-59700000D01*
X174300000Y-60400000D02*
G75*
G03*
X175000000Y-59700000I1J699999D01*
G01*
X173700000Y-57600000D02*
G75*
G03*
X173000000Y-58300000I-1J-699999D01*
G01*
X173000000Y-59700000D02*
G75*
G03*
X173700000Y-60400000I699999J-1D01*
G01*
X175000000Y-58300000D02*
G75*
G03*
X174300000Y-57600000I-699999J1D01*
G01*
%TO.C,C1*%
X144646267Y-135990000D02*
X144353733Y-135990000D01*
X144646267Y-137010000D02*
X144353733Y-137010000D01*
%TD*%
D14*
%TO.C,U1*%
X142388600Y-35847000D03*
X142388600Y-38387000D03*
X142388600Y-40927000D03*
X142388600Y-43467000D03*
X142388600Y-46007000D03*
X142388600Y-48547000D03*
X142388600Y-51087000D03*
X142388600Y-53627000D03*
X142388600Y-56167000D03*
X142388600Y-58707000D03*
X142388600Y-61247000D03*
X142388600Y-63787000D03*
X157608600Y-63787000D03*
X157608600Y-61247000D03*
X157608600Y-58707000D03*
X157608600Y-56167000D03*
X157608600Y-53627000D03*
X157608600Y-51087000D03*
X157608600Y-48547000D03*
X157608600Y-46007000D03*
X157608600Y-43467000D03*
X157608600Y-40927000D03*
X157608600Y-38387000D03*
X157608600Y-35847000D03*
%TD*%
M02*
