%TF.GenerationSoftware,KiCad,Pcbnew,(6.0.1)*%
%TF.CreationDate,2022-06-19T08:49:54+09:00*%
%TF.ProjectId,yuiop32dm-main,7975696f-7033-4326-946d-2d6d61696e2e,1*%
%TF.SameCoordinates,Original*%
%TF.FileFunction,Profile,NP*%
%FSLAX46Y46*%
G04 Gerber Fmt 4.6, Leading zero omitted, Abs format (unit mm)*
G04 Created by KiCad (PCBNEW (6.0.1)) date 2022-06-19 08:49:54*
%MOMM*%
%LPD*%
G01*
G04 APERTURE LIST*
%TA.AperFunction,Profile*%
%ADD10C,0.050000*%
%TD*%
G04 APERTURE END LIST*
D10*
X231000000Y-41500000D02*
X227500000Y-41500000D01*
X233000000Y-43500000D02*
G75*
G03*
X231000000Y-41500000I-1999999J1D01*
G01*
X76500000Y-146000000D02*
G75*
G03*
X78500000Y-148000000I1999999J-1D01*
G01*
X227500000Y-138500000D02*
X231000000Y-138500000D01*
X231000000Y-138500000D02*
G75*
G03*
X233000000Y-136500000I1J1999999D01*
G01*
X78500000Y-148000000D02*
X221500000Y-148000000D01*
X72500000Y-41500000D02*
G75*
G03*
X76500000Y-37500000I0J4000000D01*
G01*
X227500000Y-138500000D02*
G75*
G03*
X223500000Y-142500000I0J-4000000D01*
G01*
X69000000Y-41500000D02*
G75*
G03*
X67000000Y-43500000I-1J-1999999D01*
G01*
X78500000Y-32000000D02*
G75*
G03*
X76500000Y-34000000I-1J-1999999D01*
G01*
X221500000Y-32000000D02*
X78500000Y-32000000D01*
X221500000Y-148000000D02*
G75*
G03*
X223500000Y-146000000I1J1999999D01*
G01*
X72500000Y-41500000D02*
X69000000Y-41500000D01*
X223500000Y-34000000D02*
G75*
G03*
X221500000Y-32000000I-1999999J1D01*
G01*
X223500000Y-37500000D02*
G75*
G03*
X227500000Y-41500000I4000000J0D01*
G01*
X69000000Y-138500000D02*
X72500000Y-138500000D01*
X76500000Y-142500000D02*
X76500000Y-146000000D01*
X233000000Y-136500000D02*
X233000000Y-43500000D01*
X223500000Y-146000000D02*
X223500000Y-142500000D01*
X76500000Y-142500000D02*
G75*
G03*
X72500000Y-138500000I-4000000J0D01*
G01*
X67000000Y-43500000D02*
X67000000Y-136500000D01*
X67000000Y-136500000D02*
G75*
G03*
X69000000Y-138500000I1999999J-1D01*
G01*
X76500000Y-34000000D02*
X76500000Y-37500000D01*
X223500000Y-37500000D02*
X223500000Y-34000000D01*
M02*
