M48
; DRILL file {KiCad (5.1.9)-1} date 11/21/21 10:51:01
; FORMAT={-:-/ absolute / metric / decimal}
; #@! TF.CreationDate,2021-11-21T10:51:01+09:00
; #@! TF.GenerationSoftware,Kicad,Pcbnew,(5.1.9)-1
FMAT,2
METRIC
T1C0.400
T2C0.650
T3C0.700
T4C0.850
T5C1.000
T6C2.200
T7C2.300
T8C1.500
T9C1.900
T10C2.200
T11C2.500
T12C3.000
T13C3.048
T14C3.988
T15C4.100
%
G90
G05
T1
X73.308Y-114.29
X73.9Y-146.1
X77.25Y-106.6
X78.07Y-133.34
X80.452Y-152.39
X81.3Y-104.8
X85.214Y-171.44
X85.8Y-106.55
X86.235Y-111.75
X90.1Y-120.3
X90.998Y-130.8
X91.7Y-121.6
X92.358Y-114.29
X93.2Y-124.3
X93.379Y-149.85
X93.6Y-153.5
X93.65Y-107.45
X93.8Y-122.6
X95.4Y-104.8
X96.4Y-103.7
X97.3Y-121.7
X98.141Y-168.9
X98.6Y-122.6
X99.5Y-123.7
X99.6Y-140.3
X100.64Y-182.87
X100.7Y-154.0
X101.1Y-119.8
X101.7Y-141.8
X101.883Y-133.34
X101.9Y-164.4
X102.3Y-143.5
X103.0Y-162.7
X105.285Y-111.75
X105.3Y-161.1
X105.4Y-159.8
X106.646Y-152.39
X107.6Y-144.7
X108.3Y-140.3
X108.3Y-161.7
X109.4Y-160.7
X109.7Y-142.9
X109.8Y-162.5
X111.408Y-114.29
X112.0Y-159.3
X113.567Y-180.33
X114.81Y-130.8
X116.17Y-171.44
X119.573Y-149.85
X120.933Y-133.34
X122.072Y-182.87
X122.35Y-190.65
X124.335Y-111.75
X125.696Y-152.39
X129.097Y-168.9
X130.458Y-114.29
X133.86Y-130.8
X134.999Y-180.33
X135.22Y-171.44
X138.623Y-149.85
X139.983Y-133.34
X143.385Y-111.75
X144.746Y-152.39
X146.2Y-189.9
X148.147Y-168.9
X149.508Y-114.29
X152.91Y-130.8
X154.27Y-171.44
X157.673Y-149.85
X159.033Y-133.34
X162.435Y-111.75
X163.796Y-152.39
X167.197Y-168.9
X168.558Y-114.29
X170.4Y-188.3
X171.96Y-130.8
X173.32Y-171.44
X176.723Y-149.85
X178.083Y-133.34
X181.485Y-111.75
X182.846Y-152.39
X186.247Y-168.9
X187.608Y-114.29
X191.01Y-130.8
X192.37Y-171.44
X193.509Y-182.87
X195.773Y-149.85
X197.133Y-133.34
X200.535Y-111.75
X201.896Y-152.39
X205.297Y-168.9
X206.436Y-180.33
X206.658Y-114.29
X210.06Y-130.8
X211.42Y-171.44
X214.823Y-149.85
X216.183Y-133.34
X219.585Y-111.75
X220.946Y-152.39
X224.347Y-168.9
X225.708Y-114.29
X229.11Y-130.8
X230.47Y-171.44
X233.873Y-149.85
X235.233Y-133.34
X238.635Y-111.75
X239.996Y-152.39
X243.397Y-168.9
X244.758Y-114.29
X248.16Y-130.8
X249.52Y-171.44
X252.923Y-149.85
X254.283Y-133.34
X257.685Y-111.75
X259.046Y-152.39
X262.447Y-168.9
X263.808Y-114.29
X265.4Y-176.7
X267.21Y-130.8
X267.328Y-182.87
X268.57Y-171.44
X271.973Y-149.85
X273.333Y-133.34
X276.735Y-111.75
X278.096Y-152.39
X280.255Y-180.33
X281.497Y-168.9
X282.858Y-114.29
X286.26Y-130.8
X287.62Y-171.44
X291.023Y-149.85
X291.142Y-182.87
X292.383Y-133.34
X295.7Y-177.1
X295.785Y-111.75
X297.146Y-152.39
X297.6Y-107.1
X298.0Y-175.2
X298.1Y-176.7
X300.547Y-168.9
X301.908Y-114.29
X304.069Y-180.33
X305.31Y-130.8
X305.8Y-170.5
X307.0Y-126.1
X307.163Y-185.125
X308.0Y-187.4
X308.0Y-189.5
X308.6Y-191.2
X310.073Y-149.85
X311.425Y-159.425
X311.433Y-133.34
X313.0Y-144.9
X313.814Y-171.44
X314.835Y-111.75
X319.95Y-187.95
X320.958Y-114.29
X324.36Y-130.8
X325.7Y-172.6
X326.741Y-168.9
X328.102Y-152.39
X331.4Y-178.1
X332.15Y-186.4
X332.5Y-175.2
X333.8Y-155.9
X333.885Y-111.75
X334.8Y-155.175
X335.246Y-133.34
X336.5Y-155.9
X337.2Y-156.9
X340.008Y-114.29
X340.008Y-171.44
X341.029Y-149.85
X343.775Y-178.06
X348.173Y-130.8
X352.935Y-111.75
X352.935Y-168.9
T4
X310.785Y-175.52
X310.785Y-178.06
X310.785Y-180.6
X310.785Y-183.14
X310.785Y-185.68
X310.785Y-188.22
X310.785Y-190.76
X310.785Y-193.3
X313.325Y-175.52
X313.325Y-178.06
X313.325Y-180.6
X313.325Y-183.14
X313.325Y-185.68
X313.325Y-188.22
X313.325Y-190.76
X313.325Y-193.3
X315.865Y-175.52
X315.865Y-178.06
X315.865Y-190.76
X315.865Y-193.3
X318.405Y-175.52
X318.405Y-178.06
X318.405Y-190.76
X318.405Y-193.3
X320.945Y-175.52
X320.945Y-178.06
X320.945Y-190.76
X320.945Y-193.3
X323.485Y-175.52
X323.485Y-178.06
X323.485Y-190.76
X323.485Y-193.3
X326.025Y-175.52
X326.025Y-178.06
X326.025Y-180.6
X326.025Y-183.14
X326.025Y-185.68
X326.025Y-188.22
X326.025Y-190.76
X326.025Y-193.3
X328.565Y-175.52
X328.565Y-178.06
X328.565Y-180.6
X328.565Y-183.14
X328.565Y-185.68
X328.565Y-188.22
X328.565Y-190.76
X328.565Y-193.3
T5
X157.222Y-180.38
X157.222Y-182.92
X157.222Y-185.46
X157.222Y-188.0
X188.716Y-181.584
X188.716Y-184.124
X188.716Y-186.664
X245.0Y-181.428
X245.0Y-183.968
X245.0Y-186.508
T6
X110.0Y-165.3
X126.775Y-108.3
X207.738Y-165.4
X222.025Y-108.31
X317.275Y-108.3
X332.65Y-165.3
T7
X260.5Y-185.2
T9
X74.07Y-109.21
X78.832Y-128.26
X81.214Y-147.31
X84.23Y-109.21
X85.976Y-166.36
X88.992Y-128.26
X91.374Y-147.31
X93.12Y-109.21
X96.136Y-166.36
X102.645Y-128.26
X102.645Y-185.41
X103.28Y-109.21
X107.408Y-147.31
X112.17Y-109.21
X112.805Y-128.26
X112.805Y-185.41
X116.932Y-166.36
X117.568Y-147.31
X121.695Y-128.26
X122.33Y-109.21
X124.077Y-185.41
X126.458Y-147.31
X127.092Y-166.36
X131.22Y-109.21
X131.855Y-128.26
X134.237Y-185.41
X135.982Y-166.36
X136.618Y-147.31
X140.745Y-128.26
X141.38Y-109.21
X145.508Y-147.31
X146.142Y-166.36
X150.27Y-109.21
X150.905Y-128.26
X155.032Y-166.36
X155.668Y-147.31
X159.795Y-128.26
X160.43Y-109.21
X164.558Y-147.31
X165.192Y-166.36
X169.32Y-109.21
X169.955Y-128.26
X174.082Y-166.36
X174.718Y-147.31
X178.845Y-128.26
X179.48Y-109.21
X183.608Y-147.31
X184.242Y-166.36
X188.37Y-109.21
X189.005Y-128.26
X193.132Y-166.36
X193.768Y-147.31
X195.514Y-185.41
X197.895Y-128.26
X198.53Y-109.21
X202.658Y-147.31
X203.292Y-166.36
X205.674Y-185.41
X207.42Y-109.21
X208.055Y-128.26
X212.182Y-166.36
X212.818Y-147.31
X216.945Y-128.26
X217.58Y-109.21
X221.708Y-147.31
X222.342Y-166.36
X226.47Y-109.21
X227.105Y-128.26
X231.232Y-166.36
X231.868Y-147.31
X235.995Y-128.26
X236.63Y-109.21
X240.758Y-147.31
X241.392Y-166.36
X245.52Y-109.21
X246.155Y-128.26
X250.282Y-166.36
X250.918Y-147.31
X255.045Y-128.26
X255.68Y-109.21
X259.808Y-147.31
X260.442Y-166.36
X264.57Y-109.21
X265.205Y-128.26
X269.332Y-166.36
X269.333Y-185.41
X269.968Y-147.31
X274.095Y-128.26
X274.73Y-109.21
X278.858Y-147.31
X279.492Y-166.36
X279.493Y-185.41
X283.62Y-109.21
X284.255Y-128.26
X288.382Y-166.36
X289.018Y-147.31
X293.145Y-128.26
X293.147Y-185.41
X293.78Y-109.21
X297.908Y-147.31
X298.542Y-166.36
X302.67Y-109.21
X303.305Y-128.26
X303.307Y-185.41
X308.068Y-147.31
X312.195Y-128.26
X312.83Y-109.21
X314.576Y-166.36
X321.72Y-109.21
X322.355Y-128.26
X324.736Y-166.36
X328.864Y-147.31
X331.88Y-109.21
X336.008Y-128.26
X339.024Y-147.31
X340.77Y-109.21
X340.77Y-166.36
X346.168Y-128.26
X350.93Y-109.21
X350.93Y-166.36
T10
X198.2Y-147.0
T12
X76.61Y-114.29
X81.373Y-133.34
X82.96Y-111.75
X83.754Y-152.39
X87.722Y-130.8
X88.516Y-171.44
X90.104Y-149.85
X94.866Y-168.9
X95.66Y-114.29
X102.01Y-111.75
X103.915Y-182.87
X105.185Y-133.34
X109.948Y-152.39
X110.265Y-180.33
X111.535Y-130.8
X114.71Y-114.29
X116.298Y-149.85
X119.472Y-171.44
X121.06Y-111.75
X124.235Y-133.34
X125.347Y-182.87
X125.822Y-168.9
X128.998Y-152.39
X130.585Y-130.8
X131.697Y-180.33
X133.76Y-114.29
X135.348Y-149.85
X138.522Y-171.44
X140.11Y-111.75
X143.285Y-133.34
X144.872Y-168.9
X148.048Y-152.39
X149.635Y-130.8
X152.81Y-114.29
X154.398Y-149.85
X157.572Y-171.44
X159.16Y-111.75
X162.335Y-133.34
X163.922Y-168.9
X167.098Y-152.39
X168.685Y-130.8
X171.86Y-114.29
X173.448Y-149.85
X176.622Y-171.44
X178.21Y-111.75
X181.385Y-133.34
X182.972Y-168.9
X186.148Y-152.39
X187.735Y-130.8
X190.91Y-114.29
X192.498Y-149.85
X195.672Y-171.44
X196.784Y-182.87
X197.26Y-111.75
X200.435Y-133.34
X202.022Y-168.9
X203.134Y-180.33
X205.198Y-152.39
X206.785Y-130.8
X209.96Y-114.29
X211.548Y-149.85
X214.722Y-171.44
X216.31Y-111.75
X219.485Y-133.34
X221.072Y-168.9
X224.248Y-152.39
X225.835Y-130.8
X229.01Y-114.29
X230.598Y-149.85
X233.772Y-171.44
X235.36Y-111.75
X238.535Y-133.34
X240.122Y-168.9
X243.298Y-152.39
X244.885Y-130.8
X248.06Y-114.29
X249.648Y-149.85
X252.822Y-171.44
X254.41Y-111.75
X257.585Y-133.34
X259.172Y-168.9
X262.348Y-152.39
X263.935Y-130.8
X267.11Y-114.29
X268.698Y-149.85
X270.603Y-182.87
X271.872Y-171.44
X273.46Y-111.75
X276.635Y-133.34
X276.953Y-180.33
X278.222Y-168.9
X281.398Y-152.39
X282.985Y-130.8
X286.16Y-114.29
X287.748Y-149.85
X290.922Y-171.44
X292.51Y-111.75
X294.417Y-182.87
X295.685Y-133.34
X297.272Y-168.9
X300.448Y-152.39
X300.767Y-180.33
X302.035Y-130.8
X305.21Y-114.29
X306.798Y-149.85
X311.56Y-111.75
X314.735Y-133.34
X317.116Y-171.44
X321.085Y-130.8
X323.466Y-168.9
X324.26Y-114.29
X330.61Y-111.75
X331.404Y-152.39
X337.754Y-149.85
X338.548Y-133.34
X343.31Y-114.29
X343.31Y-171.44
X344.898Y-130.8
X349.66Y-111.75
X349.66Y-168.9
T13
X79.118Y-173.345
X102.994Y-173.345
X150.594Y-192.395
X250.594Y-192.395
X322.006Y-154.295
X345.882Y-154.295
T14
X79.118Y-158.105
X102.994Y-158.105
X150.594Y-177.155
X250.594Y-177.155
X322.006Y-139.055
X345.882Y-139.055
T15
X79.15Y-109.21
X83.912Y-128.26
X86.294Y-147.31
X91.056Y-166.36
X98.2Y-109.21
X107.725Y-128.26
X107.725Y-185.41
X112.488Y-147.31
X117.25Y-109.21
X122.012Y-166.36
X126.775Y-128.26
X129.157Y-185.41
X131.538Y-147.31
X136.3Y-109.21
X141.062Y-166.36
X145.825Y-128.26
X150.588Y-147.31
X155.35Y-109.21
X160.112Y-166.36
X164.875Y-128.26
X169.638Y-147.31
X174.4Y-109.21
X179.162Y-166.36
X183.925Y-128.26
X188.688Y-147.31
X193.45Y-109.21
X198.212Y-166.36
X200.594Y-185.41
X202.975Y-128.26
X207.738Y-147.31
X212.5Y-109.21
X217.262Y-166.36
X222.025Y-128.26
X226.788Y-147.31
X231.55Y-109.21
X236.312Y-166.36
X241.075Y-128.26
X245.838Y-147.31
X250.6Y-109.21
X255.362Y-166.36
X260.125Y-128.26
X264.888Y-147.31
X269.65Y-109.21
X274.412Y-166.36
X274.413Y-185.41
X279.175Y-128.26
X283.938Y-147.31
X288.7Y-109.21
X293.462Y-166.36
X298.225Y-128.26
X298.227Y-185.41
X302.988Y-147.31
X307.75Y-109.21
X317.275Y-128.26
X319.656Y-166.36
X326.8Y-109.21
X333.944Y-147.31
X341.088Y-128.26
X345.85Y-109.21
X345.85Y-166.36
T2
G00X85.755Y-104.385
M15
G01X85.755Y-104.785
M16
G05
G00X90.595Y-104.385
M15
G01X90.595Y-104.785
M16
G05
T3
G00X85.445Y-101.335
M15
G01X85.445Y-101.835
M16
G05
G00X90.905Y-101.335
M15
G01X90.905Y-101.835
M16
G05
T7
G00X93.85Y-127.9
M15
G01X96.55Y-127.9
M16
G05
G00X328.7Y-127.91
M15
G01X331.4Y-127.91
M16
G05
T8
G00X79.15Y-105.075
M15
G01X79.15Y-103.425
M16
G05
G00X83.912Y-122.475
M15
G01X83.912Y-124.125
M16
G05
G00X86.294Y-143.175
M15
G01X86.294Y-141.525
M16
G05
G00X91.056Y-160.575
M15
G01X91.056Y-162.225
M16
G05
G00X98.2Y-105.075
M15
G01X98.2Y-103.425
M16
G05
G00X107.725Y-122.475
M15
G01X107.725Y-124.125
M16
G05
G00X112.488Y-143.175
M15
G01X112.488Y-141.525
M16
G05
G00X117.25Y-105.075
M15
G01X117.25Y-103.425
M16
G05
G00X122.012Y-160.575
M15
G01X122.012Y-162.225
M16
G05
G00X126.775Y-122.475
M15
G01X126.775Y-124.125
M16
G05
G00X131.538Y-143.175
M15
G01X131.538Y-141.525
M16
G05
G00X136.3Y-105.075
M15
G01X136.3Y-103.425
M16
G05
G00X141.062Y-160.575
M15
G01X141.062Y-162.225
M16
G05
G00X145.825Y-122.475
M15
G01X145.825Y-124.125
M16
G05
G00X150.588Y-143.175
M15
G01X150.588Y-141.525
M16
G05
G00X155.35Y-105.075
M15
G01X155.35Y-103.425
M16
G05
G00X160.112Y-160.575
M15
G01X160.112Y-162.225
M16
G05
G00X164.875Y-122.475
M15
G01X164.875Y-124.125
M16
G05
G00X169.638Y-143.175
M15
G01X169.638Y-141.525
M16
G05
G00X174.4Y-105.075
M15
G01X174.4Y-103.425
M16
G05
G00X179.162Y-160.575
M15
G01X179.162Y-162.225
M16
G05
G00X183.925Y-122.475
M15
G01X183.925Y-124.125
M16
G05
G00X188.688Y-143.175
M15
G01X188.688Y-141.525
M16
G05
G00X193.45Y-105.075
M15
G01X193.45Y-103.425
M16
G05
G00X198.212Y-160.575
M15
G01X198.212Y-162.225
M16
G05
G00X202.975Y-122.475
M15
G01X202.975Y-124.125
M16
G05
G00X207.738Y-143.175
M15
G01X207.738Y-141.525
M16
G05
G00X212.5Y-105.075
M15
G01X212.5Y-103.425
M16
G05
G00X217.262Y-160.575
M15
G01X217.262Y-162.225
M16
G05
G00X222.025Y-122.475
M15
G01X222.025Y-124.125
M16
G05
G00X226.788Y-143.175
M15
G01X226.788Y-141.525
M16
G05
G00X231.55Y-105.075
M15
G01X231.55Y-103.425
M16
G05
G00X236.312Y-160.575
M15
G01X236.312Y-162.225
M16
G05
G00X241.075Y-122.475
M15
G01X241.075Y-124.125
M16
G05
G00X245.838Y-143.175
M15
G01X245.838Y-141.525
M16
G05
G00X250.6Y-105.075
M15
G01X250.6Y-103.425
M16
G05
G00X255.362Y-160.575
M15
G01X255.362Y-162.225
M16
G05
G00X260.125Y-122.475
M15
G01X260.125Y-124.125
M16
G05
G00X264.888Y-143.175
M15
G01X264.888Y-141.525
M16
G05
G00X269.65Y-105.075
M15
G01X269.65Y-103.425
M16
G05
G00X274.412Y-160.575
M15
G01X274.412Y-162.225
M16
G05
G00X279.175Y-122.475
M15
G01X279.175Y-124.125
M16
G05
G00X283.938Y-143.175
M15
G01X283.938Y-141.525
M16
G05
G00X288.7Y-105.075
M15
G01X288.7Y-103.425
M16
G05
G00X293.462Y-160.575
M15
G01X293.462Y-162.225
M16
G05
G00X298.225Y-122.475
M15
G01X298.225Y-124.125
M16
G05
G00X302.988Y-143.175
M15
G01X302.988Y-141.525
M16
G05
G00X307.75Y-105.075
M15
G01X307.75Y-103.425
M16
G05
G00X317.275Y-122.475
M15
G01X317.275Y-124.125
M16
G05
G00X319.656Y-160.575
M15
G01X319.656Y-162.225
M16
G05
G00X326.8Y-105.075
M15
G01X326.8Y-103.425
M16
G05
G00X333.944Y-143.175
M15
G01X333.944Y-141.525
M16
G05
G00X341.088Y-122.475
M15
G01X341.088Y-124.125
M16
G05
G00X345.85Y-105.075
M15
G01X345.85Y-103.425
M16
G05
G00X345.85Y-160.575
M15
G01X345.85Y-162.225
M16
G05
G00X345.851Y-186.235
M15
G01X345.851Y-184.585
M16
G05
T11
G00X69.21Y-156.5
M15
G01X73.71Y-156.5
M16
G05
G00X351.29Y-156.5
M15
G01X355.79Y-156.5
M16
G05
T0
M30
