%TF.GenerationSoftware,KiCad,Pcbnew,(5.1.9)-1*%
%TF.CreationDate,2021-02-12T02:56:52+09:00*%
%TF.ProjectId,yuiop50d,7975696f-7035-4306-942e-6b696361645f,rev?*%
%TF.SameCoordinates,Original*%
%TF.FileFunction,Soldermask,Top*%
%TF.FilePolarity,Negative*%
%FSLAX46Y46*%
G04 Gerber Fmt 4.6, Leading zero omitted, Abs format (unit mm)*
G04 Created by KiCad (PCBNEW (5.1.9)-1) date 2021-02-12 02:56:52*
%MOMM*%
%LPD*%
G01*
G04 APERTURE LIST*
%ADD10C,4.000000*%
%ADD11C,4.100000*%
%ADD12C,1.900000*%
G04 APERTURE END LIST*
D10*
%TO.C,HOLE4*%
X229000000Y-134000000D03*
%TD*%
%TO.C,HOLE3*%
X53000000Y-134000000D03*
%TD*%
%TO.C,HOLE2*%
X229000000Y-74000000D03*
%TD*%
%TO.C,HOLE1*%
X53000000Y-74000000D03*
%TD*%
D11*
%TO.C,SW1*%
X67000000Y-80500000D03*
D12*
X72080000Y-80500000D03*
X61920000Y-80500000D03*
%TD*%
D11*
%TO.C,SW2*%
X83000000Y-80500000D03*
D12*
X88080000Y-80500000D03*
X77920000Y-80500000D03*
%TD*%
D11*
%TO.C,SW3*%
X99000000Y-80500000D03*
D12*
X104080000Y-80500000D03*
X93920000Y-80500000D03*
%TD*%
D11*
%TO.C,SW4*%
X115000000Y-80500000D03*
D12*
X120080000Y-80500000D03*
X109920000Y-80500000D03*
%TD*%
%TO.C,SW5*%
X125920000Y-80500000D03*
X136080000Y-80500000D03*
D11*
X131000000Y-80500000D03*
%TD*%
D12*
%TO.C,SW6*%
X141920000Y-80500000D03*
X152080000Y-80500000D03*
D11*
X147000000Y-80500000D03*
%TD*%
%TO.C,SW7*%
X163000000Y-80500000D03*
D12*
X168080000Y-80500000D03*
X157920000Y-80500000D03*
%TD*%
%TO.C,SW8*%
X173920000Y-80500000D03*
X184080000Y-80500000D03*
D11*
X179000000Y-80500000D03*
%TD*%
D12*
%TO.C,SW9*%
X189920000Y-80500000D03*
X200080000Y-80500000D03*
D11*
X195000000Y-80500000D03*
%TD*%
D12*
%TO.C,SW10*%
X205920000Y-80500000D03*
X216080000Y-80500000D03*
D11*
X211000000Y-80500000D03*
%TD*%
D12*
%TO.C,SW11*%
X53920000Y-96500000D03*
X64080000Y-96500000D03*
D11*
X59000000Y-96500000D03*
%TD*%
D12*
%TO.C,SW12*%
X69920000Y-96500000D03*
X80080000Y-96500000D03*
D11*
X75000000Y-96500000D03*
%TD*%
%TO.C,SW13*%
X91000000Y-96500000D03*
D12*
X96080000Y-96500000D03*
X85920000Y-96500000D03*
%TD*%
D11*
%TO.C,SW14*%
X107000000Y-96500000D03*
D12*
X112080000Y-96500000D03*
X101920000Y-96500000D03*
%TD*%
%TO.C,SW15*%
X117920000Y-96500000D03*
X128080000Y-96500000D03*
D11*
X123000000Y-96500000D03*
%TD*%
D12*
%TO.C,SW16*%
X133920000Y-96500000D03*
X144080000Y-96500000D03*
D11*
X139000000Y-96500000D03*
%TD*%
D12*
%TO.C,SW17*%
X149920000Y-96500000D03*
X160080000Y-96500000D03*
D11*
X155000000Y-96500000D03*
%TD*%
%TO.C,SW18*%
X171000000Y-96500000D03*
D12*
X176080000Y-96500000D03*
X165920000Y-96500000D03*
%TD*%
D11*
%TO.C,SW19*%
X187000000Y-96500000D03*
D12*
X192080000Y-96500000D03*
X181920000Y-96500000D03*
%TD*%
%TO.C,SW20*%
X197920000Y-96500000D03*
X208080000Y-96500000D03*
D11*
X203000000Y-96500000D03*
%TD*%
%TO.C,SW21*%
X219000000Y-96500000D03*
D12*
X224080000Y-96500000D03*
X213920000Y-96500000D03*
%TD*%
D11*
%TO.C,SW22*%
X63000000Y-112500000D03*
D12*
X68080000Y-112500000D03*
X57920000Y-112500000D03*
%TD*%
%TO.C,SW23*%
X73920000Y-112500000D03*
X84080000Y-112500000D03*
D11*
X79000000Y-112500000D03*
%TD*%
D12*
%TO.C,SW24*%
X89920000Y-112500000D03*
X100080000Y-112500000D03*
D11*
X95000000Y-112500000D03*
%TD*%
%TO.C,SW25*%
X111000000Y-112500000D03*
D12*
X116080000Y-112500000D03*
X105920000Y-112500000D03*
%TD*%
D11*
%TO.C,SW26*%
X127000000Y-112500000D03*
D12*
X132080000Y-112500000D03*
X121920000Y-112500000D03*
%TD*%
%TO.C,SW27*%
X137920000Y-112500000D03*
X148080000Y-112500000D03*
D11*
X143000000Y-112500000D03*
%TD*%
%TO.C,SW28*%
X159000000Y-112500000D03*
D12*
X164080000Y-112500000D03*
X153920000Y-112500000D03*
%TD*%
D11*
%TO.C,SW29*%
X175000000Y-112500000D03*
D12*
X180080000Y-112500000D03*
X169920000Y-112500000D03*
%TD*%
%TO.C,SW30*%
X185920000Y-112500000D03*
X196080000Y-112500000D03*
D11*
X191000000Y-112500000D03*
%TD*%
D12*
%TO.C,SW31*%
X201920000Y-112500000D03*
X212080000Y-112500000D03*
D11*
X207000000Y-112500000D03*
%TD*%
%TO.C,SW32*%
X223000000Y-112500000D03*
D12*
X228080000Y-112500000D03*
X217920000Y-112500000D03*
%TD*%
%TO.C,SW33*%
X65920000Y-128500000D03*
X76080000Y-128500000D03*
D11*
X71000000Y-128500000D03*
%TD*%
%TO.C,SW34*%
X87000000Y-128500000D03*
D12*
X92080000Y-128500000D03*
X81920000Y-128500000D03*
%TD*%
%TO.C,SW35*%
X97920000Y-128500000D03*
X108080000Y-128500000D03*
D11*
X103000000Y-128500000D03*
%TD*%
%TO.C,SW36*%
X119000000Y-128500000D03*
D12*
X124080000Y-128500000D03*
X113920000Y-128500000D03*
%TD*%
%TO.C,SW37*%
X129920000Y-128500000D03*
X140080000Y-128500000D03*
D11*
X135000000Y-128500000D03*
%TD*%
D12*
%TO.C,SW38*%
X145920000Y-128500000D03*
X156080000Y-128500000D03*
D11*
X151000000Y-128500000D03*
%TD*%
%TO.C,SW39*%
X167000000Y-128500000D03*
D12*
X172080000Y-128500000D03*
X161920000Y-128500000D03*
%TD*%
D11*
%TO.C,SW40*%
X183000000Y-128500000D03*
D12*
X188080000Y-128500000D03*
X177920000Y-128500000D03*
%TD*%
%TO.C,SW41*%
X193920000Y-128500000D03*
X204080000Y-128500000D03*
D11*
X199000000Y-128500000D03*
%TD*%
%TO.C,SW42*%
X215000000Y-128500000D03*
D12*
X220080000Y-128500000D03*
X209920000Y-128500000D03*
%TD*%
%TO.C,SW43*%
X57920000Y-144500000D03*
X68080000Y-144500000D03*
D11*
X63000000Y-144500000D03*
%TD*%
D12*
%TO.C,SW44*%
X85920000Y-144500000D03*
X96080000Y-144500000D03*
D11*
X91000000Y-144500000D03*
%TD*%
%TO.C,SW45*%
X107000000Y-144500000D03*
D12*
X112080000Y-144500000D03*
X101920000Y-144500000D03*
%TD*%
%TO.C,SW46*%
X117920000Y-144500000D03*
X128080000Y-144500000D03*
D11*
X123000000Y-144500000D03*
%TD*%
%TO.C,SW47*%
X147000000Y-144500000D03*
D12*
X152080000Y-144500000D03*
X141920000Y-144500000D03*
%TD*%
%TO.C,SW48*%
X157920000Y-144500000D03*
X168080000Y-144500000D03*
D11*
X163000000Y-144500000D03*
%TD*%
%TO.C,SW49*%
X179000000Y-144500000D03*
D12*
X184080000Y-144500000D03*
X173920000Y-144500000D03*
%TD*%
D11*
%TO.C,SW50*%
X223000000Y-144500000D03*
D12*
X228080000Y-144500000D03*
X217920000Y-144500000D03*
%TD*%
M02*
