M48
; DRILL file {KiCad (5.1.9)-1} date 02/12/21 02:57:14
; FORMAT={-:-/ absolute / metric / decimal}
; #@! TF.CreationDate,2021-02-12T02:57:14+09:00
; #@! TF.GenerationSoftware,Kicad,Pcbnew,(5.1.9)-1
FMAT,2
METRIC
T1C0.400
T2C0.813
T3C1.200
T4C1.300
T5C1.500
T6C2.200
T7C1.900
T8C4.100
%
G90
G05
T1
X76.088Y-75.555
X89.442Y-73.619
X151.21Y-75.858
X154.328Y-73.73
X159.703Y-92.656
X160.772Y-73.73
X163.451Y-86.535
X163.451Y-88.592
X167.0Y-112.5
X167.228Y-76.52
X172.5Y-68.5
X175.0Y-125.0
X177.236Y-54.578
X177.238Y-126.36
X178.196Y-72.239
X181.0Y-57.5
X184.04Y-75.933
X186.315Y-79.225
X192.9Y-65.48
X196.745Y-73.538
X212.781Y-94.376
X212.898Y-119.139
X225.818Y-119.139
T2
X55.022Y-52.389
X55.022Y-67.609
X57.562Y-52.389
X57.562Y-67.609
X60.102Y-52.389
X60.102Y-67.609
X62.642Y-52.389
X62.642Y-67.609
X65.182Y-52.389
X65.182Y-67.609
X67.722Y-52.389
X67.722Y-67.609
X70.262Y-52.389
X70.262Y-67.609
X72.802Y-52.389
X72.802Y-67.609
X75.342Y-52.389
X75.342Y-67.609
X77.882Y-52.389
X77.882Y-67.609
X80.422Y-52.389
X80.422Y-67.609
X82.962Y-52.389
X82.962Y-67.609
T3
X56.46Y-101.58
X60.46Y-117.58
X60.46Y-149.58
X62.81Y-99.04
X64.46Y-85.58
X66.81Y-115.04
X66.81Y-147.04
X68.46Y-133.58
X70.81Y-83.04
X72.46Y-101.58
X74.81Y-131.04
X76.46Y-117.58
X78.81Y-99.04
X80.46Y-85.58
X82.81Y-115.04
X84.46Y-133.58
X86.81Y-83.04
X88.46Y-101.58
X88.46Y-149.58
X90.81Y-131.04
X92.46Y-117.58
X94.81Y-99.04
X94.81Y-147.04
X96.46Y-85.58
X98.81Y-115.04
X100.46Y-133.58
X102.81Y-83.04
X104.46Y-101.58
X104.46Y-149.58
X106.81Y-131.04
X108.46Y-117.58
X110.81Y-99.04
X110.81Y-147.04
X112.46Y-85.58
X114.81Y-115.04
X116.46Y-133.58
X118.81Y-83.04
X120.46Y-101.58
X120.46Y-149.58
X122.81Y-131.04
X124.46Y-117.58
X126.81Y-99.04
X126.81Y-147.04
X128.46Y-85.58
X130.81Y-115.04
X132.46Y-133.58
X134.81Y-83.04
X136.46Y-101.58
X138.81Y-131.04
X140.46Y-117.58
X142.81Y-99.04
X144.46Y-85.58
X144.46Y-149.58
X146.81Y-115.04
X148.46Y-133.58
X150.81Y-83.04
X150.81Y-147.04
X152.46Y-101.58
X154.81Y-131.04
X156.46Y-117.58
X158.81Y-99.04
X160.46Y-85.58
X160.46Y-149.58
X162.81Y-115.04
X164.46Y-133.58
X166.81Y-83.04
X166.81Y-147.04
X168.46Y-101.58
X170.81Y-131.04
X172.46Y-117.58
X174.81Y-99.04
X176.46Y-85.58
X176.46Y-149.58
X178.81Y-115.04
X180.46Y-133.58
X182.81Y-83.04
X182.81Y-147.04
X184.46Y-101.58
X186.81Y-131.04
X188.46Y-117.58
X190.81Y-99.04
X192.46Y-85.58
X194.81Y-115.04
X196.46Y-133.58
X198.81Y-83.04
X200.46Y-101.58
X202.81Y-131.04
X204.46Y-117.58
X206.81Y-99.04
X208.46Y-85.58
X210.81Y-115.04
X212.46Y-133.58
X214.81Y-83.04
X216.46Y-101.58
X218.81Y-131.04
X220.46Y-117.58
X220.46Y-149.58
X222.81Y-99.04
X226.81Y-115.04
X226.81Y-147.04
T4
X51.75Y-79.0
X51.75Y-85.5
T5
X180.62Y-52.36
X180.62Y-70.14
X183.16Y-52.36
X183.16Y-70.14
X185.7Y-52.36
X185.7Y-70.14
X188.24Y-52.36
X188.24Y-70.14
X190.78Y-52.36
X190.78Y-70.14
X193.32Y-52.36
X193.32Y-70.14
X195.86Y-52.36
X195.86Y-70.14
X198.4Y-52.36
X198.4Y-70.14
X200.94Y-52.36
X200.94Y-70.14
X203.48Y-52.36
X203.48Y-70.14
X206.02Y-52.36
X206.02Y-70.14
X208.56Y-52.36
X208.56Y-70.14
X211.1Y-52.36
X211.1Y-70.14
X213.64Y-52.36
X213.64Y-70.14
X216.18Y-52.36
X216.18Y-70.14
X218.72Y-52.36
X218.72Y-70.14
X221.26Y-52.36
X221.26Y-70.14
X223.8Y-52.36
X223.8Y-70.14
X226.34Y-52.36
X226.34Y-70.14
X228.88Y-52.36
X228.88Y-70.14
T6
X53.0Y-74.0
X53.0Y-134.0
X229.0Y-74.0
X229.0Y-134.0
T7
X53.92Y-96.5
X57.92Y-112.5
X57.92Y-144.5
X61.92Y-80.5
X64.08Y-96.5
X65.92Y-128.5
X68.08Y-112.5
X68.08Y-144.5
X69.92Y-96.5
X72.08Y-80.5
X73.92Y-112.5
X76.08Y-128.5
X77.92Y-80.5
X80.08Y-96.5
X81.92Y-128.5
X84.08Y-112.5
X85.92Y-96.5
X85.92Y-144.5
X88.08Y-80.5
X89.92Y-112.5
X92.08Y-128.5
X93.92Y-80.5
X96.08Y-96.5
X96.08Y-144.5
X97.92Y-128.5
X100.08Y-112.5
X101.92Y-96.5
X101.92Y-144.5
X104.08Y-80.5
X105.92Y-112.5
X108.08Y-128.5
X109.92Y-80.5
X112.08Y-96.5
X112.08Y-144.5
X113.92Y-128.5
X116.08Y-112.5
X117.92Y-96.5
X117.92Y-144.5
X120.08Y-80.5
X121.92Y-112.5
X124.08Y-128.5
X125.92Y-80.5
X128.08Y-96.5
X128.08Y-144.5
X129.92Y-128.5
X132.08Y-112.5
X133.92Y-96.5
X136.08Y-80.5
X137.92Y-112.5
X140.08Y-128.5
X141.92Y-80.5
X141.92Y-144.5
X144.08Y-96.5
X145.92Y-128.5
X148.08Y-112.5
X149.92Y-96.5
X152.08Y-80.5
X152.08Y-144.5
X153.92Y-112.5
X156.08Y-128.5
X157.92Y-80.5
X157.92Y-144.5
X160.08Y-96.5
X161.92Y-128.5
X164.08Y-112.5
X165.92Y-96.5
X168.08Y-80.5
X168.08Y-144.5
X169.92Y-112.5
X172.08Y-128.5
X173.92Y-80.5
X173.92Y-144.5
X176.08Y-96.5
X177.92Y-128.5
X180.08Y-112.5
X181.92Y-96.5
X184.08Y-80.5
X184.08Y-144.5
X185.92Y-112.5
X188.08Y-128.5
X189.92Y-80.5
X192.08Y-96.5
X193.92Y-128.5
X196.08Y-112.5
X197.92Y-96.5
X200.08Y-80.5
X201.92Y-112.5
X204.08Y-128.5
X205.92Y-80.5
X208.08Y-96.5
X209.92Y-128.5
X212.08Y-112.5
X213.92Y-96.5
X216.08Y-80.5
X217.92Y-112.5
X217.92Y-144.5
X220.08Y-128.5
X224.08Y-96.5
X228.08Y-112.5
X228.08Y-144.5
T8
X59.0Y-96.5
X63.0Y-112.5
X63.0Y-144.5
X67.0Y-80.5
X71.0Y-128.5
X75.0Y-96.5
X79.0Y-112.5
X83.0Y-80.5
X87.0Y-128.5
X91.0Y-96.5
X91.0Y-144.5
X95.0Y-112.5
X99.0Y-80.5
X103.0Y-128.5
X107.0Y-96.5
X107.0Y-144.5
X111.0Y-112.5
X115.0Y-80.5
X119.0Y-128.5
X123.0Y-96.5
X123.0Y-144.5
X127.0Y-112.5
X131.0Y-80.5
X135.0Y-128.5
X139.0Y-96.5
X143.0Y-112.5
X147.0Y-80.5
X147.0Y-144.5
X151.0Y-128.5
X155.0Y-96.5
X159.0Y-112.5
X163.0Y-80.5
X163.0Y-144.5
X167.0Y-128.5
X171.0Y-96.5
X175.0Y-112.5
X179.0Y-80.5
X179.0Y-144.5
X183.0Y-128.5
X187.0Y-96.5
X191.0Y-112.5
X195.0Y-80.5
X199.0Y-128.5
X203.0Y-96.5
X207.0Y-112.5
X211.0Y-80.5
X215.0Y-128.5
X219.0Y-96.5
X223.0Y-112.5
X223.0Y-144.5
T0
M30
