%TF.GenerationSoftware,KiCad,Pcbnew,(5.1.9)-1*%
%TF.CreationDate,2021-10-24T15:32:31+09:00*%
%TF.ProjectId,main2,6d61696e-322e-46b6-9963-61645f706362,2*%
%TF.SameCoordinates,Original*%
%TF.FileFunction,Soldermask,Top*%
%TF.FilePolarity,Negative*%
%FSLAX46Y46*%
G04 Gerber Fmt 4.6, Leading zero omitted, Abs format (unit mm)*
G04 Created by KiCad (PCBNEW (5.1.9)-1) date 2021-10-24 15:32:31*
%MOMM*%
%LPD*%
G01*
G04 APERTURE LIST*
%ADD10C,0.400000*%
%ADD11C,0.150000*%
%ADD12C,1.000000*%
%ADD13C,3.000000*%
%ADD14C,4.100000*%
%ADD15C,1.900000*%
%ADD16O,1.700000X1.700000*%
%ADD17R,1.700000X1.700000*%
%ADD18C,1.700000*%
%ADD19C,4.000000*%
%ADD20O,7.000000X2.500000*%
%ADD21C,5.000000*%
%ADD22C,2.200000*%
%ADD23C,6.000000*%
%ADD24C,3.987800*%
%ADD25C,3.048000*%
%ADD26O,1.500000X3.150000*%
%ADD27O,1.100000X1.500000*%
%ADD28O,1.350000X1.700000*%
G04 APERTURE END LIST*
D10*
X77309523Y-184916666D02*
X77309523Y-186583333D01*
X76476190Y-183083333D02*
X77309523Y-184916666D01*
X78142857Y-183083333D01*
X78976190Y-183083333D02*
X78976190Y-185916666D01*
X79095238Y-186250000D01*
X79214285Y-186416666D01*
X79452380Y-186583333D01*
X79928571Y-186583333D01*
X80166666Y-186416666D01*
X80285714Y-186250000D01*
X80404761Y-185916666D01*
X80404761Y-183083333D01*
X81595238Y-186583333D02*
X81595238Y-183083333D01*
X83261904Y-183083333D02*
X83738095Y-183083333D01*
X83976190Y-183250000D01*
X84214285Y-183583333D01*
X84333333Y-184250000D01*
X84333333Y-185416666D01*
X84214285Y-186083333D01*
X83976190Y-186416666D01*
X83738095Y-186583333D01*
X83261904Y-186583333D01*
X83023809Y-186416666D01*
X82785714Y-186083333D01*
X82666666Y-185416666D01*
X82666666Y-184250000D01*
X82785714Y-183583333D01*
X83023809Y-183250000D01*
X83261904Y-183083333D01*
X85404761Y-186583333D02*
X85404761Y-183083333D01*
X86357142Y-183083333D01*
X86595238Y-183250000D01*
X86714285Y-183416666D01*
X86833333Y-183750000D01*
X86833333Y-184250000D01*
X86714285Y-184583333D01*
X86595238Y-184750000D01*
X86357142Y-184916666D01*
X85404761Y-184916666D01*
X88976190Y-183083333D02*
X88500000Y-183083333D01*
X88261904Y-183250000D01*
X88142857Y-183416666D01*
X87904761Y-183916666D01*
X87785714Y-184583333D01*
X87785714Y-185916666D01*
X87904761Y-186250000D01*
X88023809Y-186416666D01*
X88261904Y-186583333D01*
X88738095Y-186583333D01*
X88976190Y-186416666D01*
X89095238Y-186250000D01*
X89214285Y-185916666D01*
X89214285Y-185083333D01*
X89095238Y-184750000D01*
X88976190Y-184583333D01*
X88738095Y-184416666D01*
X88261904Y-184416666D01*
X88023809Y-184583333D01*
X87904761Y-184750000D01*
X87785714Y-185083333D01*
X90761904Y-183083333D02*
X91000000Y-183083333D01*
X91238095Y-183250000D01*
X91357142Y-183416666D01*
X91476190Y-183750000D01*
X91595238Y-184416666D01*
X91595238Y-185250000D01*
X91476190Y-185916666D01*
X91357142Y-186250000D01*
X91238095Y-186416666D01*
X91000000Y-186583333D01*
X90761904Y-186583333D01*
X90523809Y-186416666D01*
X90404761Y-186250000D01*
X90285714Y-185916666D01*
X90166666Y-185250000D01*
X90166666Y-184416666D01*
X90285714Y-183750000D01*
X90404761Y-183416666D01*
X90523809Y-183250000D01*
X90761904Y-183083333D01*
X92666666Y-186583333D02*
X92666666Y-183083333D01*
X93619047Y-183083333D01*
X93857142Y-183250000D01*
X93976190Y-183416666D01*
X94095238Y-183750000D01*
X94095238Y-184250000D01*
X93976190Y-184583333D01*
X93857142Y-184750000D01*
X93619047Y-184916666D01*
X92666666Y-184916666D01*
X95166666Y-186583333D02*
X95166666Y-184250000D01*
X95166666Y-183083333D02*
X95047619Y-183250000D01*
X95166666Y-183416666D01*
X95285714Y-183250000D01*
X95166666Y-183083333D01*
X95166666Y-183416666D01*
D11*
X75576190Y-190452380D02*
X75576190Y-189452380D01*
X75576190Y-190404761D02*
X75480952Y-190452380D01*
X75290476Y-190452380D01*
X75195238Y-190404761D01*
X75147619Y-190357142D01*
X75100000Y-190261904D01*
X75100000Y-189976190D01*
X75147619Y-189880952D01*
X75195238Y-189833333D01*
X75290476Y-189785714D01*
X75480952Y-189785714D01*
X75576190Y-189833333D01*
X76433333Y-190404761D02*
X76338095Y-190452380D01*
X76147619Y-190452380D01*
X76052380Y-190404761D01*
X76004761Y-190309523D01*
X76004761Y-189928571D01*
X76052380Y-189833333D01*
X76147619Y-189785714D01*
X76338095Y-189785714D01*
X76433333Y-189833333D01*
X76480952Y-189928571D01*
X76480952Y-190023809D01*
X76004761Y-190119047D01*
X76861904Y-190404761D02*
X76957142Y-190452380D01*
X77147619Y-190452380D01*
X77242857Y-190404761D01*
X77290476Y-190309523D01*
X77290476Y-190261904D01*
X77242857Y-190166666D01*
X77147619Y-190119047D01*
X77004761Y-190119047D01*
X76909523Y-190071428D01*
X76861904Y-189976190D01*
X76861904Y-189928571D01*
X76909523Y-189833333D01*
X77004761Y-189785714D01*
X77147619Y-189785714D01*
X77242857Y-189833333D01*
X77719047Y-190452380D02*
X77719047Y-189785714D01*
X77719047Y-189452380D02*
X77671428Y-189500000D01*
X77719047Y-189547619D01*
X77766666Y-189500000D01*
X77719047Y-189452380D01*
X77719047Y-189547619D01*
X78623809Y-189785714D02*
X78623809Y-190595238D01*
X78576190Y-190690476D01*
X78528571Y-190738095D01*
X78433333Y-190785714D01*
X78290476Y-190785714D01*
X78195238Y-190738095D01*
X78623809Y-190404761D02*
X78528571Y-190452380D01*
X78338095Y-190452380D01*
X78242857Y-190404761D01*
X78195238Y-190357142D01*
X78147619Y-190261904D01*
X78147619Y-189976190D01*
X78195238Y-189880952D01*
X78242857Y-189833333D01*
X78338095Y-189785714D01*
X78528571Y-189785714D01*
X78623809Y-189833333D01*
X79100000Y-189785714D02*
X79100000Y-190452380D01*
X79100000Y-189880952D02*
X79147619Y-189833333D01*
X79242857Y-189785714D01*
X79385714Y-189785714D01*
X79480952Y-189833333D01*
X79528571Y-189928571D01*
X79528571Y-190452380D01*
X80385714Y-190404761D02*
X80290476Y-190452380D01*
X80100000Y-190452380D01*
X80004761Y-190404761D01*
X79957142Y-190309523D01*
X79957142Y-189928571D01*
X80004761Y-189833333D01*
X80100000Y-189785714D01*
X80290476Y-189785714D01*
X80385714Y-189833333D01*
X80433333Y-189928571D01*
X80433333Y-190023809D01*
X79957142Y-190119047D01*
X81290476Y-190452380D02*
X81290476Y-189452380D01*
X81290476Y-190404761D02*
X81195238Y-190452380D01*
X81004761Y-190452380D01*
X80909523Y-190404761D01*
X80861904Y-190357142D01*
X80814285Y-190261904D01*
X80814285Y-189976190D01*
X80861904Y-189880952D01*
X80909523Y-189833333D01*
X81004761Y-189785714D01*
X81195238Y-189785714D01*
X81290476Y-189833333D01*
X82528571Y-190452380D02*
X82528571Y-189452380D01*
X82528571Y-189833333D02*
X82623809Y-189785714D01*
X82814285Y-189785714D01*
X82909523Y-189833333D01*
X82957142Y-189880952D01*
X83004761Y-189976190D01*
X83004761Y-190261904D01*
X82957142Y-190357142D01*
X82909523Y-190404761D01*
X82814285Y-190452380D01*
X82623809Y-190452380D01*
X82528571Y-190404761D01*
X83338095Y-189785714D02*
X83576190Y-190452380D01*
X83814285Y-189785714D02*
X83576190Y-190452380D01*
X83480952Y-190690476D01*
X83433333Y-190738095D01*
X83338095Y-190785714D01*
X84957142Y-190452380D02*
X84957142Y-189452380D01*
X85528571Y-190452380D02*
X85100000Y-189880952D01*
X85528571Y-189452380D02*
X84957142Y-190023809D01*
X86100000Y-190452380D02*
X86004761Y-190404761D01*
X85957142Y-190357142D01*
X85909523Y-190261904D01*
X85909523Y-189976190D01*
X85957142Y-189880952D01*
X86004761Y-189833333D01*
X86100000Y-189785714D01*
X86242857Y-189785714D01*
X86338095Y-189833333D01*
X86385714Y-189880952D01*
X86433333Y-189976190D01*
X86433333Y-190261904D01*
X86385714Y-190357142D01*
X86338095Y-190404761D01*
X86242857Y-190452380D01*
X86100000Y-190452380D01*
X87433333Y-190452380D02*
X87100000Y-189976190D01*
X86861904Y-190452380D02*
X86861904Y-189452380D01*
X87242857Y-189452380D01*
X87338095Y-189500000D01*
X87385714Y-189547619D01*
X87433333Y-189642857D01*
X87433333Y-189785714D01*
X87385714Y-189880952D01*
X87338095Y-189928571D01*
X87242857Y-189976190D01*
X86861904Y-189976190D01*
X88004761Y-190452380D02*
X87909523Y-190404761D01*
X87861904Y-190357142D01*
X87814285Y-190261904D01*
X87814285Y-189976190D01*
X87861904Y-189880952D01*
X87909523Y-189833333D01*
X88004761Y-189785714D01*
X88147619Y-189785714D01*
X88242857Y-189833333D01*
X88290476Y-189880952D01*
X88338095Y-189976190D01*
X88338095Y-190261904D01*
X88290476Y-190357142D01*
X88242857Y-190404761D01*
X88147619Y-190452380D01*
X88004761Y-190452380D01*
X88766666Y-190452380D02*
X88766666Y-189452380D01*
X89338095Y-190452380D01*
X89338095Y-189452380D01*
X90528571Y-189404761D02*
X89671428Y-190690476D01*
X90861904Y-190452380D02*
X90861904Y-189452380D01*
X91433333Y-190452380D02*
X91004761Y-189880952D01*
X91433333Y-189452380D02*
X90861904Y-190023809D01*
X92290476Y-190452380D02*
X92290476Y-189928571D01*
X92242857Y-189833333D01*
X92147619Y-189785714D01*
X91957142Y-189785714D01*
X91861904Y-189833333D01*
X92290476Y-190404761D02*
X92195238Y-190452380D01*
X91957142Y-190452380D01*
X91861904Y-190404761D01*
X91814285Y-190309523D01*
X91814285Y-190214285D01*
X91861904Y-190119047D01*
X91957142Y-190071428D01*
X92195238Y-190071428D01*
X92290476Y-190023809D01*
X92909523Y-190452380D02*
X92814285Y-190404761D01*
X92766666Y-190357142D01*
X92719047Y-190261904D01*
X92719047Y-189976190D01*
X92766666Y-189880952D01*
X92814285Y-189833333D01*
X92909523Y-189785714D01*
X93052380Y-189785714D01*
X93147619Y-189833333D01*
X93195238Y-189880952D01*
X93242857Y-189976190D01*
X93242857Y-190261904D01*
X93195238Y-190357142D01*
X93147619Y-190404761D01*
X93052380Y-190452380D01*
X92909523Y-190452380D01*
X93671428Y-190452380D02*
X93671428Y-189785714D01*
X93671428Y-189976190D02*
X93719047Y-189880952D01*
X93766666Y-189833333D01*
X93861904Y-189785714D01*
X93957142Y-189785714D01*
X94290476Y-190452380D02*
X94290476Y-189785714D01*
X94290476Y-189452380D02*
X94242857Y-189500000D01*
X94290476Y-189547619D01*
X94338095Y-189500000D01*
X94290476Y-189452380D01*
X94290476Y-189547619D01*
X94957142Y-189976190D02*
X94957142Y-190452380D01*
X94623809Y-189452380D02*
X94957142Y-189976190D01*
X95290476Y-189452380D01*
X96052380Y-190452380D02*
X96052380Y-189928571D01*
X96004761Y-189833333D01*
X95909523Y-189785714D01*
X95719047Y-189785714D01*
X95623809Y-189833333D01*
X96052380Y-190404761D02*
X95957142Y-190452380D01*
X95719047Y-190452380D01*
X95623809Y-190404761D01*
X95576190Y-190309523D01*
X95576190Y-190214285D01*
X95623809Y-190119047D01*
X95719047Y-190071428D01*
X95957142Y-190071428D01*
X96052380Y-190023809D01*
X87511904Y-188452380D02*
X87511904Y-187785714D01*
X87511904Y-187976190D02*
X87559523Y-187880952D01*
X87607142Y-187833333D01*
X87702380Y-187785714D01*
X87797619Y-187785714D01*
X88511904Y-188404761D02*
X88416666Y-188452380D01*
X88226190Y-188452380D01*
X88130952Y-188404761D01*
X88083333Y-188309523D01*
X88083333Y-187928571D01*
X88130952Y-187833333D01*
X88226190Y-187785714D01*
X88416666Y-187785714D01*
X88511904Y-187833333D01*
X88559523Y-187928571D01*
X88559523Y-188023809D01*
X88083333Y-188119047D01*
X88892857Y-187785714D02*
X89130952Y-188452380D01*
X89369047Y-187785714D01*
X89750000Y-188452380D02*
X89750000Y-187785714D01*
X89750000Y-187452380D02*
X89702380Y-187500000D01*
X89750000Y-187547619D01*
X89797619Y-187500000D01*
X89750000Y-187452380D01*
X89750000Y-187547619D01*
X90178571Y-188404761D02*
X90273809Y-188452380D01*
X90464285Y-188452380D01*
X90559523Y-188404761D01*
X90607142Y-188309523D01*
X90607142Y-188261904D01*
X90559523Y-188166666D01*
X90464285Y-188119047D01*
X90321428Y-188119047D01*
X90226190Y-188071428D01*
X90178571Y-187976190D01*
X90178571Y-187928571D01*
X90226190Y-187833333D01*
X90321428Y-187785714D01*
X90464285Y-187785714D01*
X90559523Y-187833333D01*
X91035714Y-188452380D02*
X91035714Y-187785714D01*
X91035714Y-187452380D02*
X90988095Y-187500000D01*
X91035714Y-187547619D01*
X91083333Y-187500000D01*
X91035714Y-187452380D01*
X91035714Y-187547619D01*
X91654761Y-188452380D02*
X91559523Y-188404761D01*
X91511904Y-188357142D01*
X91464285Y-188261904D01*
X91464285Y-187976190D01*
X91511904Y-187880952D01*
X91559523Y-187833333D01*
X91654761Y-187785714D01*
X91797619Y-187785714D01*
X91892857Y-187833333D01*
X91940476Y-187880952D01*
X91988095Y-187976190D01*
X91988095Y-188261904D01*
X91940476Y-188357142D01*
X91892857Y-188404761D01*
X91797619Y-188452380D01*
X91654761Y-188452380D01*
X92416666Y-187785714D02*
X92416666Y-188452380D01*
X92416666Y-187880952D02*
X92464285Y-187833333D01*
X92559523Y-187785714D01*
X92702380Y-187785714D01*
X92797619Y-187833333D01*
X92845238Y-187928571D01*
X92845238Y-188452380D01*
X94607142Y-188452380D02*
X94035714Y-188452380D01*
X94321428Y-188452380D02*
X94321428Y-187452380D01*
X94226190Y-187595238D01*
X94130952Y-187690476D01*
X94035714Y-187738095D01*
X95035714Y-188357142D02*
X95083333Y-188404761D01*
X95035714Y-188452380D01*
X94988095Y-188404761D01*
X95035714Y-188357142D01*
X95035714Y-188452380D01*
X95464285Y-187547619D02*
X95511904Y-187500000D01*
X95607142Y-187452380D01*
X95845238Y-187452380D01*
X95940476Y-187500000D01*
X95988095Y-187547619D01*
X96035714Y-187642857D01*
X96035714Y-187738095D01*
X95988095Y-187880952D01*
X95416666Y-188452380D01*
X96035714Y-188452380D01*
D12*
%TO.C,KSW28*%
X311433000Y-133340000D03*
X324360000Y-130800000D03*
D13*
X321085000Y-130800000D03*
X314735000Y-133340000D03*
D14*
X317275000Y-128260000D03*
D15*
X312195000Y-128260000D03*
X322355000Y-128260000D03*
%TD*%
D12*
%TO.C,KSW59*%
X268570000Y-190490000D03*
X281497000Y-187950000D03*
D13*
X278222000Y-187950000D03*
X271872000Y-190490000D03*
D14*
X274412000Y-185410000D03*
D15*
X269332000Y-185410000D03*
X279492000Y-185410000D03*
%TD*%
D16*
%TO.C,J4*%
X333017000Y-190678000D03*
X333017000Y-188138000D03*
D17*
X333017000Y-185598000D03*
%TD*%
D16*
%TO.C,J2*%
X157122000Y-181280000D03*
X157122000Y-183820000D03*
X157122000Y-186360000D03*
D17*
X157122000Y-188900000D03*
%TD*%
D18*
%TO.C,U1*%
X328565000Y-175520000D03*
X326025000Y-178060000D03*
X326025000Y-175520000D03*
X323485000Y-178060000D03*
X323485000Y-175520000D03*
X320945000Y-178060000D03*
X320945000Y-175520000D03*
X318405000Y-178060000D03*
X318405000Y-175520000D03*
X315865000Y-178060000D03*
X315865000Y-175520000D03*
X313325000Y-175520000D03*
X310785000Y-175520000D03*
X313325000Y-178060000D03*
X310785000Y-178060000D03*
X313325000Y-180600000D03*
X310785000Y-180600000D03*
X313325000Y-183140000D03*
X310785000Y-183140000D03*
X313325000Y-185680000D03*
X310785000Y-185680000D03*
X313325000Y-188220000D03*
X310785000Y-188220000D03*
X310785000Y-190760000D03*
X310785000Y-193300000D03*
X313325000Y-190760000D03*
X313325000Y-193300000D03*
X315865000Y-190760000D03*
X315865000Y-193300000D03*
X318405000Y-190760000D03*
X318405000Y-193300000D03*
X320945000Y-190760000D03*
X320945000Y-193300000D03*
X323485000Y-190760000D03*
X323485000Y-193300000D03*
X326025000Y-193300000D03*
X328565000Y-193300000D03*
X326025000Y-190760000D03*
X328565000Y-190760000D03*
X326025000Y-188220000D03*
X328565000Y-188220000D03*
X326025000Y-185680000D03*
X328565000Y-185680000D03*
X326025000Y-183140000D03*
X328565000Y-183140000D03*
X326025000Y-180600000D03*
X328565000Y-180600000D03*
G36*
G01*
X329415000Y-177635000D02*
X329415000Y-178485000D01*
G75*
G02*
X328990000Y-178910000I-425000J0D01*
G01*
X328140000Y-178910000D01*
G75*
G02*
X327715000Y-178485000I0J425000D01*
G01*
X327715000Y-177635000D01*
G75*
G02*
X328140000Y-177210000I425000J0D01*
G01*
X328990000Y-177210000D01*
G75*
G02*
X329415000Y-177635000I0J-425000D01*
G01*
G37*
%TD*%
D19*
%TO.C,HOLE12*%
X332650000Y-165300000D03*
%TD*%
%TO.C,HOLE10*%
X110000000Y-165300000D03*
%TD*%
%TO.C,HOLE11*%
X207738000Y-165400000D03*
%TD*%
%TO.C,HOLE9*%
X317275000Y-108300000D03*
%TD*%
%TO.C,HOLE8*%
X222025000Y-108310000D03*
%TD*%
%TO.C,HOLE7*%
X126775000Y-108300000D03*
%TD*%
D20*
%TO.C,HOLE6*%
X353540000Y-156500000D03*
%TD*%
%TO.C,HOLE5*%
X71460000Y-156500000D03*
%TD*%
D21*
%TO.C,HOLE4*%
X260500000Y-185200000D03*
%TD*%
D22*
%TO.C,HOLE3*%
X198200000Y-147000000D03*
%TD*%
D23*
%TO.C,HOLE2*%
X330050000Y-127910000D03*
%TD*%
%TO.C,HOLE1*%
X95200000Y-127900000D03*
%TD*%
D24*
%TO.C,STB2*%
X150594000Y-177155000D03*
D25*
X250594000Y-192395000D03*
D24*
X250594000Y-177155000D03*
D25*
X150594000Y-192395000D03*
%TD*%
%TO.C,STB1*%
X79118200Y-173345000D03*
D24*
X79118200Y-158105000D03*
X102994200Y-158105000D03*
D25*
X102994200Y-173345000D03*
%TD*%
%TO.C,STB3*%
X322006000Y-154295000D03*
D24*
X322006000Y-139055000D03*
X345882000Y-139055000D03*
D25*
X345882000Y-154295000D03*
%TD*%
D26*
%TO.C,LED56*%
X345850000Y-104250000D03*
%TD*%
%TO.C,LED55*%
X326800000Y-104250000D03*
%TD*%
%TO.C,LED54*%
X307750000Y-104250000D03*
%TD*%
%TO.C,LED53*%
X288700000Y-104250000D03*
%TD*%
%TO.C,LED52*%
X269650000Y-104250000D03*
%TD*%
%TO.C,LED51*%
X250600000Y-104250000D03*
%TD*%
%TO.C,LED50*%
X231550000Y-104250000D03*
%TD*%
%TO.C,LED49*%
X212500000Y-104250000D03*
%TD*%
%TO.C,LED48*%
X193450000Y-104250000D03*
%TD*%
%TO.C,LED47*%
X174400000Y-104250000D03*
%TD*%
%TO.C,LED46*%
X155350000Y-104250000D03*
%TD*%
%TO.C,LED45*%
X136300000Y-104250000D03*
%TD*%
%TO.C,LED44*%
X117250000Y-104250000D03*
%TD*%
%TO.C,LED43*%
X98200000Y-104250000D03*
%TD*%
%TO.C,LED42*%
X79150000Y-104250000D03*
%TD*%
%TO.C,LED41*%
X83912500Y-123300000D03*
%TD*%
%TO.C,LED40*%
X107725000Y-123300000D03*
%TD*%
%TO.C,LED39*%
X126775000Y-123300000D03*
%TD*%
%TO.C,LED38*%
X145825000Y-123300000D03*
%TD*%
%TO.C,LED37*%
X164875000Y-123300000D03*
%TD*%
%TO.C,LED36*%
X183925000Y-123300000D03*
%TD*%
%TO.C,LED35*%
X202975000Y-123300000D03*
%TD*%
%TO.C,LED34*%
X222025000Y-123300000D03*
%TD*%
%TO.C,LED33*%
X241075000Y-123300000D03*
%TD*%
%TO.C,LED32*%
X260125000Y-123300000D03*
%TD*%
%TO.C,LED31*%
X279175000Y-123300000D03*
%TD*%
%TO.C,LED30*%
X298225000Y-123300000D03*
%TD*%
%TO.C,LED29*%
X317275000Y-123300000D03*
%TD*%
%TO.C,LED28*%
X341088000Y-123300000D03*
%TD*%
%TO.C,LED27*%
X333944000Y-142350000D03*
%TD*%
%TO.C,LED26*%
X302988000Y-142350000D03*
%TD*%
%TO.C,LED25*%
X283938000Y-142350000D03*
%TD*%
%TO.C,LED24*%
X264888000Y-142350000D03*
%TD*%
%TO.C,LED23*%
X245838000Y-142350000D03*
%TD*%
%TO.C,LED22*%
X226788000Y-142350000D03*
%TD*%
%TO.C,LED21*%
X207738000Y-142350000D03*
%TD*%
%TO.C,LED20*%
X188688000Y-142350000D03*
%TD*%
%TO.C,LED19*%
X169638000Y-142350000D03*
%TD*%
%TO.C,LED18*%
X150588000Y-142350000D03*
%TD*%
%TO.C,LED17*%
X131538000Y-142350000D03*
%TD*%
%TO.C,LED16*%
X112488000Y-142350000D03*
%TD*%
%TO.C,LED15*%
X86293800Y-142350000D03*
%TD*%
%TO.C,LED14*%
X91056200Y-161400000D03*
%TD*%
%TO.C,LED13*%
X122012000Y-161400000D03*
%TD*%
%TO.C,LED12*%
X141062000Y-161400000D03*
%TD*%
%TO.C,LED11*%
X160112000Y-161400000D03*
%TD*%
%TO.C,LED10*%
X179162000Y-161400000D03*
%TD*%
%TO.C,LED9*%
X198212000Y-161400000D03*
%TD*%
%TO.C,LED8*%
X217262000Y-161400000D03*
%TD*%
%TO.C,LED7*%
X236312000Y-161400000D03*
%TD*%
%TO.C,LED6*%
X255362000Y-161400000D03*
%TD*%
%TO.C,LED5*%
X274412000Y-161400000D03*
%TD*%
%TO.C,LED4*%
X293462000Y-161400000D03*
%TD*%
%TO.C,LED3*%
X319656000Y-161400000D03*
%TD*%
%TO.C,LED2*%
X345850000Y-161400000D03*
%TD*%
%TO.C,LED1*%
X345851000Y-185410000D03*
%TD*%
D12*
%TO.C,KSW60*%
X292383000Y-190490000D03*
X305310000Y-187950000D03*
D13*
X302035000Y-187950000D03*
X295685000Y-190490000D03*
D14*
X298225000Y-185410000D03*
D15*
X293145000Y-185410000D03*
X303305000Y-185410000D03*
%TD*%
D12*
%TO.C,KSW58*%
X194752000Y-190490000D03*
X207679000Y-187950000D03*
D13*
X204404000Y-187950000D03*
X198054000Y-190490000D03*
D14*
X200594000Y-185410000D03*
D15*
X195514000Y-185410000D03*
X205674000Y-185410000D03*
%TD*%
D12*
%TO.C,KSW57*%
X123314000Y-190490000D03*
X136241000Y-187950000D03*
D13*
X132966000Y-187950000D03*
X126616000Y-190490000D03*
D14*
X129156000Y-185410000D03*
D15*
X124076000Y-185410000D03*
X134236000Y-185410000D03*
%TD*%
D12*
%TO.C,KSW56*%
X101883000Y-190490000D03*
X114810000Y-187950000D03*
D13*
X111535000Y-187950000D03*
X105185000Y-190490000D03*
D14*
X107725000Y-185410000D03*
D15*
X102645000Y-185410000D03*
X112805000Y-185410000D03*
%TD*%
D12*
%TO.C,KSW55*%
X340008000Y-171440000D03*
X352935000Y-168900000D03*
D13*
X349660000Y-168900000D03*
X343310000Y-171440000D03*
D14*
X345850000Y-166360000D03*
D15*
X340770000Y-166360000D03*
X350930000Y-166360000D03*
%TD*%
D12*
%TO.C,KSW54*%
X313814000Y-171440000D03*
X326741000Y-168900000D03*
D13*
X323466000Y-168900000D03*
X317116000Y-171440000D03*
D14*
X319656000Y-166360000D03*
D15*
X314576000Y-166360000D03*
X324736000Y-166360000D03*
%TD*%
D12*
%TO.C,KSW53*%
X287620000Y-171440000D03*
X300547000Y-168900000D03*
D13*
X297272000Y-168900000D03*
X290922000Y-171440000D03*
D14*
X293462000Y-166360000D03*
D15*
X288382000Y-166360000D03*
X298542000Y-166360000D03*
%TD*%
D12*
%TO.C,KSW52*%
X268570000Y-171440000D03*
X281497000Y-168900000D03*
D13*
X278222000Y-168900000D03*
X271872000Y-171440000D03*
D14*
X274412000Y-166360000D03*
D15*
X269332000Y-166360000D03*
X279492000Y-166360000D03*
%TD*%
D12*
%TO.C,KSW51*%
X249520000Y-171440000D03*
X262447000Y-168900000D03*
D13*
X259172000Y-168900000D03*
X252822000Y-171440000D03*
D14*
X255362000Y-166360000D03*
D15*
X250282000Y-166360000D03*
X260442000Y-166360000D03*
%TD*%
D12*
%TO.C,KSW50*%
X230470000Y-171440000D03*
X243397000Y-168900000D03*
D13*
X240122000Y-168900000D03*
X233772000Y-171440000D03*
D14*
X236312000Y-166360000D03*
D15*
X231232000Y-166360000D03*
X241392000Y-166360000D03*
%TD*%
D12*
%TO.C,KSW49*%
X211420000Y-171440000D03*
X224347000Y-168900000D03*
D13*
X221072000Y-168900000D03*
X214722000Y-171440000D03*
D14*
X217262000Y-166360000D03*
D15*
X212182000Y-166360000D03*
X222342000Y-166360000D03*
%TD*%
D12*
%TO.C,KSW48*%
X192370000Y-171440000D03*
X205297000Y-168900000D03*
D13*
X202022000Y-168900000D03*
X195672000Y-171440000D03*
D14*
X198212000Y-166360000D03*
D15*
X193132000Y-166360000D03*
X203292000Y-166360000D03*
%TD*%
D12*
%TO.C,KSW47*%
X173320000Y-171440000D03*
X186247000Y-168900000D03*
D13*
X182972000Y-168900000D03*
X176622000Y-171440000D03*
D14*
X179162000Y-166360000D03*
D15*
X174082000Y-166360000D03*
X184242000Y-166360000D03*
%TD*%
D12*
%TO.C,KSW46*%
X154270000Y-171440000D03*
X167197000Y-168900000D03*
D13*
X163922000Y-168900000D03*
X157572000Y-171440000D03*
D14*
X160112000Y-166360000D03*
D15*
X155032000Y-166360000D03*
X165192000Y-166360000D03*
%TD*%
D12*
%TO.C,KSW45*%
X135220000Y-171440000D03*
X148147000Y-168900000D03*
D13*
X144872000Y-168900000D03*
X138522000Y-171440000D03*
D14*
X141062000Y-166360000D03*
D15*
X135982000Y-166360000D03*
X146142000Y-166360000D03*
%TD*%
D12*
%TO.C,KSW44*%
X116170000Y-171440000D03*
X129097000Y-168900000D03*
D13*
X125822000Y-168900000D03*
X119472000Y-171440000D03*
D14*
X122012000Y-166360000D03*
D15*
X116932000Y-166360000D03*
X127092000Y-166360000D03*
%TD*%
D12*
%TO.C,KSW43*%
X85214200Y-171440000D03*
X98141200Y-168900000D03*
D13*
X94866200Y-168900000D03*
X88516200Y-171440000D03*
D14*
X91056200Y-166360000D03*
D15*
X85976200Y-166360000D03*
X96136200Y-166360000D03*
%TD*%
D12*
%TO.C,KSW42*%
X328102000Y-152390000D03*
X341029000Y-149850000D03*
D13*
X337754000Y-149850000D03*
X331404000Y-152390000D03*
D14*
X333944000Y-147310000D03*
D15*
X328864000Y-147310000D03*
X339024000Y-147310000D03*
%TD*%
D12*
%TO.C,KSW41*%
X297146000Y-152390000D03*
X310073000Y-149850000D03*
D13*
X306798000Y-149850000D03*
X300448000Y-152390000D03*
D14*
X302988000Y-147310000D03*
D15*
X297908000Y-147310000D03*
X308068000Y-147310000D03*
%TD*%
D12*
%TO.C,KSW40*%
X278096000Y-152390000D03*
X291023000Y-149850000D03*
D13*
X287748000Y-149850000D03*
X281398000Y-152390000D03*
D14*
X283938000Y-147310000D03*
D15*
X278858000Y-147310000D03*
X289018000Y-147310000D03*
%TD*%
D12*
%TO.C,KSW39*%
X259046000Y-152390000D03*
X271973000Y-149850000D03*
D13*
X268698000Y-149850000D03*
X262348000Y-152390000D03*
D14*
X264888000Y-147310000D03*
D15*
X259808000Y-147310000D03*
X269968000Y-147310000D03*
%TD*%
D12*
%TO.C,KSW38*%
X239996000Y-152390000D03*
X252923000Y-149850000D03*
D13*
X249648000Y-149850000D03*
X243298000Y-152390000D03*
D14*
X245838000Y-147310000D03*
D15*
X240758000Y-147310000D03*
X250918000Y-147310000D03*
%TD*%
D12*
%TO.C,KSW37*%
X220946000Y-152390000D03*
X233873000Y-149850000D03*
D13*
X230598000Y-149850000D03*
X224248000Y-152390000D03*
D14*
X226788000Y-147310000D03*
D15*
X221708000Y-147310000D03*
X231868000Y-147310000D03*
%TD*%
D12*
%TO.C,KSW36*%
X201896000Y-152390000D03*
X214823000Y-149850000D03*
D13*
X211548000Y-149850000D03*
X205198000Y-152390000D03*
D14*
X207738000Y-147310000D03*
D15*
X202658000Y-147310000D03*
X212818000Y-147310000D03*
%TD*%
D12*
%TO.C,KSW35*%
X182846000Y-152390000D03*
X195773000Y-149850000D03*
D13*
X192498000Y-149850000D03*
X186148000Y-152390000D03*
D14*
X188688000Y-147310000D03*
D15*
X183608000Y-147310000D03*
X193768000Y-147310000D03*
%TD*%
D12*
%TO.C,KSW34*%
X163796000Y-152390000D03*
X176723000Y-149850000D03*
D13*
X173448000Y-149850000D03*
X167098000Y-152390000D03*
D14*
X169638000Y-147310000D03*
D15*
X164558000Y-147310000D03*
X174718000Y-147310000D03*
%TD*%
D12*
%TO.C,KSW33*%
X144746000Y-152390000D03*
X157673000Y-149850000D03*
D13*
X154398000Y-149850000D03*
X148048000Y-152390000D03*
D14*
X150588000Y-147310000D03*
D15*
X145508000Y-147310000D03*
X155668000Y-147310000D03*
%TD*%
D12*
%TO.C,KSW32*%
X125696000Y-152390000D03*
X138623000Y-149850000D03*
D13*
X135348000Y-149850000D03*
X128998000Y-152390000D03*
D14*
X131538000Y-147310000D03*
D15*
X126458000Y-147310000D03*
X136618000Y-147310000D03*
%TD*%
D12*
%TO.C,KSW31*%
X106646000Y-152390000D03*
X119573000Y-149850000D03*
D13*
X116298000Y-149850000D03*
X109948000Y-152390000D03*
D14*
X112488000Y-147310000D03*
D15*
X107408000Y-147310000D03*
X117568000Y-147310000D03*
%TD*%
D12*
%TO.C,KSW30*%
X80451800Y-152390000D03*
X93378800Y-149850000D03*
D13*
X90103800Y-149850000D03*
X83753800Y-152390000D03*
D14*
X86293800Y-147310000D03*
D15*
X81213800Y-147310000D03*
X91373800Y-147310000D03*
%TD*%
D12*
%TO.C,KSW29*%
X335246000Y-133340000D03*
X348173000Y-130800000D03*
D13*
X344898000Y-130800000D03*
X338548000Y-133340000D03*
D14*
X341088000Y-128260000D03*
D15*
X336008000Y-128260000D03*
X346168000Y-128260000D03*
%TD*%
D12*
%TO.C,KSW27*%
X292383000Y-133340000D03*
X305310000Y-130800000D03*
D13*
X302035000Y-130800000D03*
X295685000Y-133340000D03*
D14*
X298225000Y-128260000D03*
D15*
X293145000Y-128260000D03*
X303305000Y-128260000D03*
%TD*%
D12*
%TO.C,KSW26*%
X273333000Y-133340000D03*
X286260000Y-130800000D03*
D13*
X282985000Y-130800000D03*
X276635000Y-133340000D03*
D14*
X279175000Y-128260000D03*
D15*
X274095000Y-128260000D03*
X284255000Y-128260000D03*
%TD*%
D12*
%TO.C,KSW25*%
X254283000Y-133340000D03*
X267210000Y-130800000D03*
D13*
X263935000Y-130800000D03*
X257585000Y-133340000D03*
D14*
X260125000Y-128260000D03*
D15*
X255045000Y-128260000D03*
X265205000Y-128260000D03*
%TD*%
D12*
%TO.C,KSW24*%
X235233000Y-133340000D03*
X248160000Y-130800000D03*
D13*
X244885000Y-130800000D03*
X238535000Y-133340000D03*
D14*
X241075000Y-128260000D03*
D15*
X235995000Y-128260000D03*
X246155000Y-128260000D03*
%TD*%
D12*
%TO.C,KSW23*%
X216183000Y-133340000D03*
X229110000Y-130800000D03*
D13*
X225835000Y-130800000D03*
X219485000Y-133340000D03*
D14*
X222025000Y-128260000D03*
D15*
X216945000Y-128260000D03*
X227105000Y-128260000D03*
%TD*%
D12*
%TO.C,KSW22*%
X197133000Y-133340000D03*
X210060000Y-130800000D03*
D13*
X206785000Y-130800000D03*
X200435000Y-133340000D03*
D14*
X202975000Y-128260000D03*
D15*
X197895000Y-128260000D03*
X208055000Y-128260000D03*
%TD*%
D12*
%TO.C,KSW21*%
X178083000Y-133340000D03*
X191010000Y-130800000D03*
D13*
X187735000Y-130800000D03*
X181385000Y-133340000D03*
D14*
X183925000Y-128260000D03*
D15*
X178845000Y-128260000D03*
X189005000Y-128260000D03*
%TD*%
D12*
%TO.C,KSW20*%
X159033000Y-133340000D03*
X171960000Y-130800000D03*
D13*
X168685000Y-130800000D03*
X162335000Y-133340000D03*
D14*
X164875000Y-128260000D03*
D15*
X159795000Y-128260000D03*
X169955000Y-128260000D03*
%TD*%
D12*
%TO.C,KSW19*%
X139983000Y-133340000D03*
X152910000Y-130800000D03*
D13*
X149635000Y-130800000D03*
X143285000Y-133340000D03*
D14*
X145825000Y-128260000D03*
D15*
X140745000Y-128260000D03*
X150905000Y-128260000D03*
%TD*%
D12*
%TO.C,KSW18*%
X120933000Y-133340000D03*
X133860000Y-130800000D03*
D13*
X130585000Y-130800000D03*
X124235000Y-133340000D03*
D14*
X126775000Y-128260000D03*
D15*
X121695000Y-128260000D03*
X131855000Y-128260000D03*
%TD*%
D12*
%TO.C,KSW17*%
X101883000Y-133340000D03*
X114810000Y-130800000D03*
D13*
X111535000Y-130800000D03*
X105185000Y-133340000D03*
D14*
X107725000Y-128260000D03*
D15*
X102645000Y-128260000D03*
X112805000Y-128260000D03*
%TD*%
D12*
%TO.C,KSW16*%
X78070500Y-133340000D03*
X90997500Y-130800000D03*
D13*
X87722500Y-130800000D03*
X81372500Y-133340000D03*
D14*
X83912500Y-128260000D03*
D15*
X78832500Y-128260000D03*
X88992500Y-128260000D03*
%TD*%
D12*
%TO.C,KSW15*%
X340008000Y-114290000D03*
X352935000Y-111750000D03*
D13*
X349660000Y-111750000D03*
X343310000Y-114290000D03*
D14*
X345850000Y-109210000D03*
D15*
X340770000Y-109210000D03*
X350930000Y-109210000D03*
%TD*%
D12*
%TO.C,KSW14*%
X320958000Y-114290000D03*
X333885000Y-111750000D03*
D13*
X330610000Y-111750000D03*
X324260000Y-114290000D03*
D14*
X326800000Y-109210000D03*
D15*
X321720000Y-109210000D03*
X331880000Y-109210000D03*
%TD*%
D12*
%TO.C,KSW13*%
X301908000Y-114290000D03*
X314835000Y-111750000D03*
D13*
X311560000Y-111750000D03*
X305210000Y-114290000D03*
D14*
X307750000Y-109210000D03*
D15*
X302670000Y-109210000D03*
X312830000Y-109210000D03*
%TD*%
D12*
%TO.C,KSW12*%
X282858000Y-114290000D03*
X295785000Y-111750000D03*
D13*
X292510000Y-111750000D03*
X286160000Y-114290000D03*
D14*
X288700000Y-109210000D03*
D15*
X283620000Y-109210000D03*
X293780000Y-109210000D03*
%TD*%
D12*
%TO.C,KSW11*%
X263808000Y-114290000D03*
X276735000Y-111750000D03*
D13*
X273460000Y-111750000D03*
X267110000Y-114290000D03*
D14*
X269650000Y-109210000D03*
D15*
X264570000Y-109210000D03*
X274730000Y-109210000D03*
%TD*%
D12*
%TO.C,KSW10*%
X244758000Y-114290000D03*
X257685000Y-111750000D03*
D13*
X254410000Y-111750000D03*
X248060000Y-114290000D03*
D14*
X250600000Y-109210000D03*
D15*
X245520000Y-109210000D03*
X255680000Y-109210000D03*
%TD*%
D12*
%TO.C,KSW9*%
X225708000Y-114290000D03*
X238635000Y-111750000D03*
D13*
X235360000Y-111750000D03*
X229010000Y-114290000D03*
D14*
X231550000Y-109210000D03*
D15*
X226470000Y-109210000D03*
X236630000Y-109210000D03*
%TD*%
D12*
%TO.C,KSW8*%
X206658000Y-114290000D03*
X219585000Y-111750000D03*
D13*
X216310000Y-111750000D03*
X209960000Y-114290000D03*
D14*
X212500000Y-109210000D03*
D15*
X207420000Y-109210000D03*
X217580000Y-109210000D03*
%TD*%
D12*
%TO.C,KSW7*%
X187608000Y-114290000D03*
X200535000Y-111750000D03*
D13*
X197260000Y-111750000D03*
X190910000Y-114290000D03*
D14*
X193450000Y-109210000D03*
D15*
X188370000Y-109210000D03*
X198530000Y-109210000D03*
%TD*%
D12*
%TO.C,KSW6*%
X168558000Y-114290000D03*
X181485000Y-111750000D03*
D13*
X178210000Y-111750000D03*
X171860000Y-114290000D03*
D14*
X174400000Y-109210000D03*
D15*
X169320000Y-109210000D03*
X179480000Y-109210000D03*
%TD*%
D12*
%TO.C,KSW5*%
X149508000Y-114290000D03*
X162435000Y-111750000D03*
D13*
X159160000Y-111750000D03*
X152810000Y-114290000D03*
D14*
X155350000Y-109210000D03*
D15*
X150270000Y-109210000D03*
X160430000Y-109210000D03*
%TD*%
D12*
%TO.C,KSW4*%
X130458000Y-114290000D03*
X143385000Y-111750000D03*
D13*
X140110000Y-111750000D03*
X133760000Y-114290000D03*
D14*
X136300000Y-109210000D03*
D15*
X131220000Y-109210000D03*
X141380000Y-109210000D03*
%TD*%
D12*
%TO.C,KSW3*%
X111408000Y-114290000D03*
X124335000Y-111750000D03*
D13*
X121060000Y-111750000D03*
X114710000Y-114290000D03*
D14*
X117250000Y-109210000D03*
D15*
X112170000Y-109210000D03*
X122330000Y-109210000D03*
%TD*%
D12*
%TO.C,KSW2*%
X92358000Y-114290000D03*
X105285000Y-111750000D03*
D13*
X102010000Y-111750000D03*
X95660000Y-114290000D03*
D14*
X98200000Y-109210000D03*
D15*
X93120000Y-109210000D03*
X103280000Y-109210000D03*
%TD*%
D12*
%TO.C,KSW1*%
X73308000Y-114290000D03*
X86235000Y-111750000D03*
D13*
X82960000Y-111750000D03*
X76610000Y-114290000D03*
D14*
X79150000Y-109210000D03*
D15*
X74070000Y-109210000D03*
X84230000Y-109210000D03*
%TD*%
D17*
%TO.C,J3*%
X313967000Y-145466000D03*
D16*
X313967000Y-148006000D03*
X313967000Y-150546000D03*
%TD*%
D27*
%TO.C,J1*%
X85755000Y-104585000D03*
X90595000Y-104585000D03*
D28*
X85445000Y-101585000D03*
X90905000Y-101585000D03*
%TD*%
M02*
