%TF.GenerationSoftware,KiCad,Pcbnew,(5.1.9)-1*%
%TF.CreationDate,2021-04-11T15:21:24+09:00*%
%TF.ProjectId,yuiop60hh3,7975696f-7036-4306-9868-332e6b696361,1*%
%TF.SameCoordinates,Original*%
%TF.FileFunction,Profile,NP*%
%FSLAX46Y46*%
G04 Gerber Fmt 4.6, Leading zero omitted, Abs format (unit mm)*
G04 Created by KiCad (PCBNEW (5.1.9)-1) date 2021-04-11 15:21:24*
%MOMM*%
%LPD*%
G01*
G04 APERTURE LIST*
%TA.AperFunction,Profile*%
%ADD10C,0.050000*%
%TD*%
G04 APERTURE END LIST*
D10*
X72041666Y-194925160D02*
G75*
G03*
X72041666Y-194925160I-1666666J0D01*
G01*
X67875000Y-194925160D02*
X72875000Y-194925160D01*
X70375000Y-192425160D02*
X70375000Y-197425160D01*
X357041666Y-194925160D02*
G75*
G03*
X357041666Y-194925160I-1666666J0D01*
G01*
X352875000Y-194925160D02*
X357875000Y-194925160D01*
X355375000Y-192425160D02*
X355375000Y-197425160D01*
X92950000Y-100815160D02*
G75*
G02*
X93450000Y-100315160I500000J0D01*
G01*
X84650000Y-100315160D02*
G75*
G02*
X85150000Y-100815160I0J-500000D01*
G01*
X92950000Y-104815160D02*
G75*
G02*
X92450000Y-105315160I-500000J0D01*
G01*
X85650000Y-105315160D02*
G75*
G02*
X85150000Y-104815160I0J500000D01*
G01*
X84650000Y-100315160D02*
X72375000Y-100315160D01*
X92950000Y-104815160D02*
X92950000Y-100815160D01*
X85650000Y-105315160D02*
X92450000Y-105315160D01*
X85150000Y-104815160D02*
X85150000Y-100815160D01*
X355375000Y-192925160D02*
G75*
G02*
X353375000Y-194925160I-2000000J0D01*
G01*
X353375000Y-100325160D02*
G75*
G02*
X355375000Y-102325160I0J-2000000D01*
G01*
X70375000Y-102315160D02*
G75*
G02*
X72375000Y-100315160I2000000J0D01*
G01*
X72375000Y-194925160D02*
G75*
G02*
X70375000Y-192925160I0J2000000D01*
G01*
X72375000Y-194925160D02*
X353375000Y-194925160D01*
X70375000Y-102315160D02*
X70375000Y-192925160D01*
X353375000Y-100325160D02*
X93450000Y-100315160D01*
X355375000Y-192925160D02*
X355375000Y-102325160D01*
X214541666Y-100325160D02*
G75*
G03*
X214541666Y-100325160I-1666666J0D01*
G01*
X210375000Y-100325160D02*
X215375000Y-100325160D01*
X212875000Y-97825160D02*
X212875000Y-102825160D01*
X214541666Y-194925160D02*
G75*
G03*
X214541666Y-194925160I-1666666J0D01*
G01*
X210375000Y-194925160D02*
X215375000Y-194925160D01*
X212875000Y-192425160D02*
X212875000Y-197425160D01*
X214541666Y-147625160D02*
G75*
G03*
X214541666Y-147625160I-1666666J0D01*
G01*
X210375000Y-147625160D02*
X215375000Y-147625160D01*
X212875000Y-145125160D02*
X212875000Y-150125160D01*
X357041666Y-100325160D02*
G75*
G03*
X357041666Y-100325160I-1666666J0D01*
G01*
X352875000Y-100325160D02*
X357875000Y-100325160D01*
X355375000Y-97825160D02*
X355375000Y-102825160D01*
X72041666Y-100315160D02*
G75*
G03*
X72041666Y-100315160I-1666666J0D01*
G01*
X67875000Y-100315160D02*
X72875000Y-100315160D01*
X70375000Y-97815160D02*
X70375000Y-102815160D01*
M02*
