M48
; DRILL file {KiCad (5.1.9)-1} date 04/11/21 15:21:27
; FORMAT={-:-/ absolute / metric / decimal}
; #@! TF.CreationDate,2021-04-11T15:21:27+09:00
; #@! TF.GenerationSoftware,Kicad,Pcbnew,(5.1.9)-1
FMAT,2
METRIC
T1C0.400
T2C1.000
T3C2.200
T4C2.300
T5C2.500
T6C1.900
T7C2.300
T8C3.000
T9C3.048
T10C3.988
T11C4.100
%
G90
G05
T1
X76.217Y-102.244
X83.877Y-107.865
X86.782Y-114.154
X86.923Y-106.695
X87.468Y-110.197
X91.328Y-126.112
X91.43Y-160.84
X93.168Y-188.058
X99.493Y-191.815
X101.294Y-188.339
X102.817Y-104.883
X115.149Y-160.519
X127.137Y-140.853
X129.946Y-179.121
X132.79Y-179.885
X155.441Y-141.693
X155.712Y-160.641
X168.075Y-176.985
X170.33Y-187.471
X171.365Y-188.487
X172.252Y-185.535
X173.905Y-191.319
X174.907Y-182.264
X174.985Y-185.515
X176.207Y-189.476
X176.303Y-183.331
X177.346Y-180.62
X178.259Y-182.005
X181.797Y-187.162
X184.984Y-189.907
X189.605Y-179.325
X189.787Y-174.115
X191.198Y-188.521
X191.417Y-161.446
X196.063Y-147.425
X205.796Y-172.755
X207.065Y-182.542
X211.462Y-161.446
X220.893Y-142.284
X248.494Y-188.943
X250.975Y-160.006
X260.479Y-141.693
X267.815Y-161.248
X311.649Y-161.248
X326.371Y-141.693
T2
X145.796Y-182.455
X145.796Y-184.995
X145.796Y-187.535
X148.336Y-182.455
X148.336Y-184.995
X148.336Y-187.535
T3
X108.125Y-117.115
X110.375Y-174.115
X203.375Y-117.115
X208.125Y-174.115
X317.625Y-117.115
X333.025Y-174.065
T4
X260.875Y-185.515
T6
X74.445Y-109.525
X79.207Y-128.575
X81.589Y-147.625
X84.605Y-109.525
X86.351Y-166.675
X89.367Y-128.575
X91.749Y-147.625
X93.495Y-109.525
X96.511Y-166.675
X103.02Y-128.575
X103.02Y-185.725
X103.655Y-109.525
X107.782Y-147.625
X112.545Y-109.525
X113.18Y-128.575
X113.18Y-185.725
X117.308Y-166.675
X117.942Y-147.625
X122.07Y-128.575
X122.705Y-109.525
X126.832Y-147.625
X126.832Y-185.725
X127.468Y-166.675
X131.595Y-109.525
X132.23Y-128.575
X136.358Y-166.675
X136.992Y-147.625
X136.992Y-185.725
X141.12Y-128.575
X141.755Y-109.525
X145.882Y-147.625
X146.518Y-166.675
X150.645Y-109.525
X151.28Y-128.575
X155.408Y-166.675
X156.042Y-147.625
X160.17Y-128.575
X160.805Y-109.525
X164.932Y-147.625
X165.568Y-166.675
X169.695Y-109.525
X170.33Y-128.575
X174.458Y-166.675
X175.092Y-147.625
X179.22Y-128.575
X179.855Y-109.525
X183.982Y-147.625
X184.618Y-166.675
X188.745Y-109.525
X189.38Y-128.575
X193.508Y-166.675
X194.142Y-147.625
X198.27Y-128.575
X198.27Y-185.725
X198.905Y-109.525
X203.032Y-147.625
X203.668Y-166.675
X207.795Y-109.525
X208.43Y-128.575
X208.43Y-185.725
X212.558Y-166.675
X213.192Y-147.625
X217.32Y-128.575
X217.955Y-109.525
X222.082Y-147.625
X222.718Y-166.675
X226.845Y-109.525
X227.48Y-128.575
X231.608Y-166.675
X232.242Y-147.625
X236.37Y-128.575
X237.005Y-109.525
X241.132Y-147.625
X241.768Y-166.675
X245.895Y-109.525
X246.53Y-128.575
X250.658Y-166.675
X251.292Y-147.625
X255.42Y-128.575
X256.055Y-109.525
X260.182Y-147.625
X260.818Y-166.675
X264.945Y-109.525
X265.58Y-128.575
X269.708Y-166.675
X269.708Y-185.725
X270.342Y-147.625
X274.47Y-128.575
X275.105Y-109.525
X279.232Y-147.625
X279.868Y-166.675
X279.868Y-185.725
X283.995Y-109.525
X284.63Y-128.575
X288.758Y-166.675
X289.392Y-147.625
X293.52Y-128.575
X293.52Y-185.725
X294.155Y-109.525
X298.282Y-147.625
X298.918Y-166.675
X303.045Y-109.525
X303.68Y-128.575
X303.68Y-185.725
X308.442Y-147.625
X312.57Y-128.575
X313.205Y-109.525
X314.951Y-166.675
X322.095Y-109.525
X322.73Y-128.575
X325.111Y-166.675
X329.239Y-147.625
X332.255Y-109.525
X336.382Y-128.575
X339.399Y-147.625
X341.145Y-109.525
X341.145Y-166.675
X346.542Y-128.575
X351.305Y-109.525
X351.305Y-166.675
T7
X198.575Y-147.315
T8
X76.985Y-114.605
X81.748Y-133.655
X83.335Y-112.065
X84.129Y-152.705
X88.097Y-131.115
X88.891Y-171.755
X90.479Y-150.165
X95.241Y-169.215
X96.035Y-114.605
X102.385Y-112.065
X105.56Y-133.655
X105.56Y-190.805
X110.322Y-152.705
X111.91Y-131.115
X111.91Y-188.265
X115.085Y-114.605
X116.672Y-150.165
X119.848Y-171.755
X121.435Y-112.065
X124.61Y-133.655
X126.198Y-169.215
X129.372Y-152.705
X129.372Y-190.805
X130.96Y-131.115
X134.135Y-114.605
X135.722Y-150.165
X135.722Y-188.265
X138.898Y-171.755
X140.485Y-112.065
X143.66Y-133.655
X145.248Y-169.215
X148.422Y-152.705
X150.01Y-131.115
X153.185Y-114.605
X154.772Y-150.165
X157.948Y-171.755
X159.535Y-112.065
X162.71Y-133.655
X164.298Y-169.215
X167.472Y-152.705
X169.06Y-131.115
X172.235Y-114.605
X173.822Y-150.165
X176.998Y-171.755
X178.585Y-112.065
X181.76Y-133.655
X183.348Y-169.215
X185.252Y-145.085
X188.11Y-131.115
X191.285Y-114.605
X191.602Y-142.545
X196.048Y-171.755
X197.635Y-112.065
X200.81Y-133.655
X200.81Y-190.805
X202.398Y-169.215
X205.572Y-152.705
X207.16Y-131.115
X207.16Y-188.265
X210.335Y-114.605
X211.922Y-150.165
X215.098Y-171.755
X216.685Y-112.065
X219.86Y-133.655
X221.448Y-169.215
X224.622Y-152.705
X226.21Y-131.115
X229.385Y-114.605
X230.972Y-150.165
X234.148Y-171.755
X235.735Y-112.065
X238.91Y-133.655
X240.498Y-169.215
X243.672Y-152.705
X245.26Y-131.115
X248.435Y-114.605
X250.022Y-150.165
X253.198Y-171.755
X254.785Y-112.065
X257.96Y-133.655
X259.548Y-169.215
X262.722Y-152.705
X264.31Y-131.115
X267.485Y-114.605
X269.072Y-150.165
X272.248Y-171.755
X272.248Y-190.805
X273.835Y-112.065
X277.01Y-133.655
X278.598Y-169.215
X278.598Y-188.265
X281.772Y-152.705
X283.36Y-131.115
X286.535Y-114.605
X288.122Y-150.165
X291.298Y-171.755
X292.885Y-112.065
X296.06Y-133.655
X296.06Y-190.805
X297.648Y-169.215
X300.822Y-152.705
X302.41Y-131.115
X302.41Y-188.265
X305.585Y-114.605
X307.172Y-150.165
X311.935Y-112.065
X315.11Y-133.655
X317.491Y-171.755
X321.46Y-131.115
X323.841Y-169.215
X324.635Y-114.605
X330.985Y-112.065
X331.779Y-152.705
X338.129Y-150.165
X338.922Y-133.655
X343.685Y-114.605
X343.685Y-171.755
X345.272Y-131.115
X350.035Y-112.065
X350.035Y-169.215
T9
X79.493Y-173.66
X103.369Y-173.66
X155.787Y-192.71
X250.913Y-192.71
X322.381Y-154.61
X346.257Y-154.61
T10
X79.493Y-158.42
X103.369Y-158.42
X155.787Y-177.47
X250.913Y-177.47
X322.381Y-139.37
X346.257Y-139.37
T11
X79.525Y-109.525
X84.287Y-128.575
X86.669Y-147.625
X91.431Y-166.675
X98.575Y-109.525
X108.1Y-128.575
X108.1Y-185.725
X112.862Y-147.625
X117.625Y-109.525
X122.388Y-166.675
X127.15Y-128.575
X131.912Y-147.625
X131.912Y-185.725
X136.675Y-109.525
X141.438Y-166.675
X146.2Y-128.575
X150.962Y-147.625
X155.725Y-109.525
X160.488Y-166.675
X165.25Y-128.575
X170.012Y-147.625
X174.775Y-109.525
X179.538Y-166.675
X184.3Y-128.575
X189.062Y-147.625
X193.825Y-109.525
X198.588Y-166.675
X203.35Y-128.575
X203.35Y-185.725
X208.112Y-147.625
X212.875Y-109.525
X217.638Y-166.675
X222.4Y-128.575
X227.162Y-147.625
X231.925Y-109.525
X236.688Y-166.675
X241.45Y-128.575
X246.212Y-147.625
X250.975Y-109.525
X255.738Y-166.675
X260.5Y-128.575
X265.262Y-147.625
X270.025Y-109.525
X274.788Y-166.675
X274.788Y-185.725
X279.55Y-128.575
X284.312Y-147.625
X289.075Y-109.525
X293.838Y-166.675
X298.6Y-128.575
X298.6Y-185.725
X303.362Y-147.625
X308.125Y-109.525
X317.65Y-128.575
X320.031Y-166.675
X327.175Y-109.525
X334.319Y-147.625
X341.462Y-128.575
X346.225Y-109.525
X346.225Y-166.675
T4
G00X94.225Y-128.215
M15
G01X96.925Y-128.215
M16
G05
G00X329.075Y-128.225
M15
G01X331.775Y-128.225
M16
G05
T5
G00X69.585Y-156.815
M15
G01X74.085Y-156.815
M16
G05
G00X351.665Y-156.815
M15
G01X356.165Y-156.815
M16
G05
T0
M30
