%TF.GenerationSoftware,KiCad,Pcbnew,(5.1.9)-1*%
%TF.CreationDate,2021-05-29T17:03:01+09:00*%
%TF.ProjectId,yuiop31rs-r2,7975696f-7033-4317-9273-2d72322e6b69,1*%
%TF.SameCoordinates,Original*%
%TF.FileFunction,Legend,Bot*%
%TF.FilePolarity,Positive*%
%FSLAX46Y46*%
G04 Gerber Fmt 4.6, Leading zero omitted, Abs format (unit mm)*
G04 Created by KiCad (PCBNEW (5.1.9)-1) date 2021-05-29 17:03:01*
%MOMM*%
%LPD*%
G01*
G04 APERTURE LIST*
%ADD10C,0.150000*%
%ADD11C,0.600000*%
%ADD12C,0.120000*%
%ADD13C,0.100000*%
G04 APERTURE END LIST*
D10*
X103023809Y-74952380D02*
X103023809Y-74285714D01*
X103023809Y-74476190D02*
X102976190Y-74380952D01*
X102928571Y-74333333D01*
X102833333Y-74285714D01*
X102738095Y-74285714D01*
X102023809Y-74904761D02*
X102119047Y-74952380D01*
X102309523Y-74952380D01*
X102404761Y-74904761D01*
X102452380Y-74809523D01*
X102452380Y-74428571D01*
X102404761Y-74333333D01*
X102309523Y-74285714D01*
X102119047Y-74285714D01*
X102023809Y-74333333D01*
X101976190Y-74428571D01*
X101976190Y-74523809D01*
X102452380Y-74619047D01*
X101642857Y-74285714D02*
X101404761Y-74952380D01*
X101166666Y-74285714D01*
X100785714Y-74952380D02*
X100785714Y-74285714D01*
X100785714Y-73952380D02*
X100833333Y-74000000D01*
X100785714Y-74047619D01*
X100738095Y-74000000D01*
X100785714Y-73952380D01*
X100785714Y-74047619D01*
X100357142Y-74904761D02*
X100261904Y-74952380D01*
X100071428Y-74952380D01*
X99976190Y-74904761D01*
X99928571Y-74809523D01*
X99928571Y-74761904D01*
X99976190Y-74666666D01*
X100071428Y-74619047D01*
X100214285Y-74619047D01*
X100309523Y-74571428D01*
X100357142Y-74476190D01*
X100357142Y-74428571D01*
X100309523Y-74333333D01*
X100214285Y-74285714D01*
X100071428Y-74285714D01*
X99976190Y-74333333D01*
X99500000Y-74952380D02*
X99500000Y-74285714D01*
X99500000Y-73952380D02*
X99547619Y-74000000D01*
X99500000Y-74047619D01*
X99452380Y-74000000D01*
X99500000Y-73952380D01*
X99500000Y-74047619D01*
X98880952Y-74952380D02*
X98976190Y-74904761D01*
X99023809Y-74857142D01*
X99071428Y-74761904D01*
X99071428Y-74476190D01*
X99023809Y-74380952D01*
X98976190Y-74333333D01*
X98880952Y-74285714D01*
X98738095Y-74285714D01*
X98642857Y-74333333D01*
X98595238Y-74380952D01*
X98547619Y-74476190D01*
X98547619Y-74761904D01*
X98595238Y-74857142D01*
X98642857Y-74904761D01*
X98738095Y-74952380D01*
X98880952Y-74952380D01*
X98119047Y-74285714D02*
X98119047Y-74952380D01*
X98119047Y-74380952D02*
X98071428Y-74333333D01*
X97976190Y-74285714D01*
X97833333Y-74285714D01*
X97738095Y-74333333D01*
X97690476Y-74428571D01*
X97690476Y-74952380D01*
X96500000Y-74047619D02*
X96452380Y-74000000D01*
X96357142Y-73952380D01*
X96119047Y-73952380D01*
X96023809Y-74000000D01*
X95976190Y-74047619D01*
X95928571Y-74142857D01*
X95928571Y-74238095D01*
X95976190Y-74380952D01*
X96547619Y-74952380D01*
X95928571Y-74952380D01*
X116523809Y-76952380D02*
X116523809Y-75952380D01*
X116523809Y-76904761D02*
X116619047Y-76952380D01*
X116809523Y-76952380D01*
X116904761Y-76904761D01*
X116952380Y-76857142D01*
X117000000Y-76761904D01*
X117000000Y-76476190D01*
X116952380Y-76380952D01*
X116904761Y-76333333D01*
X116809523Y-76285714D01*
X116619047Y-76285714D01*
X116523809Y-76333333D01*
X115666666Y-76904761D02*
X115761904Y-76952380D01*
X115952380Y-76952380D01*
X116047619Y-76904761D01*
X116095238Y-76809523D01*
X116095238Y-76428571D01*
X116047619Y-76333333D01*
X115952380Y-76285714D01*
X115761904Y-76285714D01*
X115666666Y-76333333D01*
X115619047Y-76428571D01*
X115619047Y-76523809D01*
X116095238Y-76619047D01*
X115238095Y-76904761D02*
X115142857Y-76952380D01*
X114952380Y-76952380D01*
X114857142Y-76904761D01*
X114809523Y-76809523D01*
X114809523Y-76761904D01*
X114857142Y-76666666D01*
X114952380Y-76619047D01*
X115095238Y-76619047D01*
X115190476Y-76571428D01*
X115238095Y-76476190D01*
X115238095Y-76428571D01*
X115190476Y-76333333D01*
X115095238Y-76285714D01*
X114952380Y-76285714D01*
X114857142Y-76333333D01*
X114380952Y-76952380D02*
X114380952Y-76285714D01*
X114380952Y-75952380D02*
X114428571Y-76000000D01*
X114380952Y-76047619D01*
X114333333Y-76000000D01*
X114380952Y-75952380D01*
X114380952Y-76047619D01*
X113476190Y-76285714D02*
X113476190Y-77095238D01*
X113523809Y-77190476D01*
X113571428Y-77238095D01*
X113666666Y-77285714D01*
X113809523Y-77285714D01*
X113904761Y-77238095D01*
X113476190Y-76904761D02*
X113571428Y-76952380D01*
X113761904Y-76952380D01*
X113857142Y-76904761D01*
X113904761Y-76857142D01*
X113952380Y-76761904D01*
X113952380Y-76476190D01*
X113904761Y-76380952D01*
X113857142Y-76333333D01*
X113761904Y-76285714D01*
X113571428Y-76285714D01*
X113476190Y-76333333D01*
X113000000Y-76285714D02*
X113000000Y-76952380D01*
X113000000Y-76380952D02*
X112952380Y-76333333D01*
X112857142Y-76285714D01*
X112714285Y-76285714D01*
X112619047Y-76333333D01*
X112571428Y-76428571D01*
X112571428Y-76952380D01*
X111714285Y-76904761D02*
X111809523Y-76952380D01*
X112000000Y-76952380D01*
X112095238Y-76904761D01*
X112142857Y-76809523D01*
X112142857Y-76428571D01*
X112095238Y-76333333D01*
X112000000Y-76285714D01*
X111809523Y-76285714D01*
X111714285Y-76333333D01*
X111666666Y-76428571D01*
X111666666Y-76523809D01*
X112142857Y-76619047D01*
X110809523Y-76952380D02*
X110809523Y-75952380D01*
X110809523Y-76904761D02*
X110904761Y-76952380D01*
X111095238Y-76952380D01*
X111190476Y-76904761D01*
X111238095Y-76857142D01*
X111285714Y-76761904D01*
X111285714Y-76476190D01*
X111238095Y-76380952D01*
X111190476Y-76333333D01*
X111095238Y-76285714D01*
X110904761Y-76285714D01*
X110809523Y-76333333D01*
X109571428Y-76952380D02*
X109571428Y-75952380D01*
X109571428Y-76333333D02*
X109476190Y-76285714D01*
X109285714Y-76285714D01*
X109190476Y-76333333D01*
X109142857Y-76380952D01*
X109095238Y-76476190D01*
X109095238Y-76761904D01*
X109142857Y-76857142D01*
X109190476Y-76904761D01*
X109285714Y-76952380D01*
X109476190Y-76952380D01*
X109571428Y-76904761D01*
X108761904Y-76285714D02*
X108523809Y-76952380D01*
X108285714Y-76285714D02*
X108523809Y-76952380D01*
X108619047Y-77190476D01*
X108666666Y-77238095D01*
X108761904Y-77285714D01*
X107142857Y-76952380D02*
X107142857Y-75952380D01*
X106571428Y-76952380D02*
X107000000Y-76380952D01*
X106571428Y-75952380D02*
X107142857Y-76523809D01*
X106000000Y-76952380D02*
X106095238Y-76904761D01*
X106142857Y-76857142D01*
X106190476Y-76761904D01*
X106190476Y-76476190D01*
X106142857Y-76380952D01*
X106095238Y-76333333D01*
X106000000Y-76285714D01*
X105857142Y-76285714D01*
X105761904Y-76333333D01*
X105714285Y-76380952D01*
X105666666Y-76476190D01*
X105666666Y-76761904D01*
X105714285Y-76857142D01*
X105761904Y-76904761D01*
X105857142Y-76952380D01*
X106000000Y-76952380D01*
X104666666Y-76952380D02*
X105000000Y-76476190D01*
X105238095Y-76952380D02*
X105238095Y-75952380D01*
X104857142Y-75952380D01*
X104761904Y-76000000D01*
X104714285Y-76047619D01*
X104666666Y-76142857D01*
X104666666Y-76285714D01*
X104714285Y-76380952D01*
X104761904Y-76428571D01*
X104857142Y-76476190D01*
X105238095Y-76476190D01*
X104095238Y-76952380D02*
X104190476Y-76904761D01*
X104238095Y-76857142D01*
X104285714Y-76761904D01*
X104285714Y-76476190D01*
X104238095Y-76380952D01*
X104190476Y-76333333D01*
X104095238Y-76285714D01*
X103952380Y-76285714D01*
X103857142Y-76333333D01*
X103809523Y-76380952D01*
X103761904Y-76476190D01*
X103761904Y-76761904D01*
X103809523Y-76857142D01*
X103857142Y-76904761D01*
X103952380Y-76952380D01*
X104095238Y-76952380D01*
X103333333Y-76952380D02*
X103333333Y-75952380D01*
X102761904Y-76952380D01*
X102761904Y-75952380D01*
X101571428Y-75904761D02*
X102428571Y-77190476D01*
X101238095Y-76952380D02*
X101238095Y-75952380D01*
X100666666Y-76952380D02*
X101095238Y-76380952D01*
X100666666Y-75952380D02*
X101238095Y-76523809D01*
X99809523Y-76952380D02*
X99809523Y-76428571D01*
X99857142Y-76333333D01*
X99952380Y-76285714D01*
X100142857Y-76285714D01*
X100238095Y-76333333D01*
X99809523Y-76904761D02*
X99904761Y-76952380D01*
X100142857Y-76952380D01*
X100238095Y-76904761D01*
X100285714Y-76809523D01*
X100285714Y-76714285D01*
X100238095Y-76619047D01*
X100142857Y-76571428D01*
X99904761Y-76571428D01*
X99809523Y-76523809D01*
X99190476Y-76952380D02*
X99285714Y-76904761D01*
X99333333Y-76857142D01*
X99380952Y-76761904D01*
X99380952Y-76476190D01*
X99333333Y-76380952D01*
X99285714Y-76333333D01*
X99190476Y-76285714D01*
X99047619Y-76285714D01*
X98952380Y-76333333D01*
X98904761Y-76380952D01*
X98857142Y-76476190D01*
X98857142Y-76761904D01*
X98904761Y-76857142D01*
X98952380Y-76904761D01*
X99047619Y-76952380D01*
X99190476Y-76952380D01*
X98428571Y-76952380D02*
X98428571Y-76285714D01*
X98428571Y-76476190D02*
X98380952Y-76380952D01*
X98333333Y-76333333D01*
X98238095Y-76285714D01*
X98142857Y-76285714D01*
X97809523Y-76952380D02*
X97809523Y-76285714D01*
X97809523Y-75952380D02*
X97857142Y-76000000D01*
X97809523Y-76047619D01*
X97761904Y-76000000D01*
X97809523Y-75952380D01*
X97809523Y-76047619D01*
X97142857Y-76476190D02*
X97142857Y-76952380D01*
X97476190Y-75952380D02*
X97142857Y-76476190D01*
X96809523Y-75952380D01*
X96047619Y-76952380D02*
X96047619Y-76428571D01*
X96095238Y-76333333D01*
X96190476Y-76285714D01*
X96380952Y-76285714D01*
X96476190Y-76333333D01*
X96047619Y-76904761D02*
X96142857Y-76952380D01*
X96380952Y-76952380D01*
X96476190Y-76904761D01*
X96523809Y-76809523D01*
X96523809Y-76714285D01*
X96476190Y-76619047D01*
X96380952Y-76571428D01*
X96142857Y-76571428D01*
X96047619Y-76523809D01*
D11*
X126857142Y-69857142D02*
X126857142Y-72714285D01*
X128190476Y-66714285D02*
X126857142Y-69857142D01*
X125523809Y-66714285D01*
X124190476Y-66714285D02*
X124190476Y-71571428D01*
X124000000Y-72142857D01*
X123809523Y-72428571D01*
X123428571Y-72714285D01*
X122666666Y-72714285D01*
X122285714Y-72428571D01*
X122095238Y-72142857D01*
X121904761Y-71571428D01*
X121904761Y-66714285D01*
X120000000Y-72714285D02*
X120000000Y-66714285D01*
X117333333Y-66714285D02*
X116571428Y-66714285D01*
X116190476Y-67000000D01*
X115809523Y-67571428D01*
X115619047Y-68714285D01*
X115619047Y-70714285D01*
X115809523Y-71857142D01*
X116190476Y-72428571D01*
X116571428Y-72714285D01*
X117333333Y-72714285D01*
X117714285Y-72428571D01*
X118095238Y-71857142D01*
X118285714Y-70714285D01*
X118285714Y-68714285D01*
X118095238Y-67571428D01*
X117714285Y-67000000D01*
X117333333Y-66714285D01*
X113904761Y-72714285D02*
X113904761Y-66714285D01*
X112380952Y-66714285D01*
X112000000Y-67000000D01*
X111809523Y-67285714D01*
X111619047Y-67857142D01*
X111619047Y-68714285D01*
X111809523Y-69285714D01*
X112000000Y-69571428D01*
X112380952Y-69857142D01*
X113904761Y-69857142D01*
X110285714Y-66714285D02*
X107809523Y-66714285D01*
X109142857Y-69000000D01*
X108571428Y-69000000D01*
X108190476Y-69285714D01*
X108000000Y-69571428D01*
X107809523Y-70142857D01*
X107809523Y-71571428D01*
X108000000Y-72142857D01*
X108190476Y-72428571D01*
X108571428Y-72714285D01*
X109714285Y-72714285D01*
X110095238Y-72428571D01*
X110285714Y-72142857D01*
X104000000Y-72714285D02*
X106285714Y-72714285D01*
X105142857Y-72714285D02*
X105142857Y-66714285D01*
X105523809Y-67571428D01*
X105904761Y-68142857D01*
X106285714Y-68428571D01*
X100000000Y-72714285D02*
X101333333Y-69857142D01*
X102285714Y-72714285D02*
X102285714Y-66714285D01*
X100761904Y-66714285D01*
X100380952Y-67000000D01*
X100190476Y-67285714D01*
X100000000Y-67857142D01*
X100000000Y-68714285D01*
X100190476Y-69285714D01*
X100380952Y-69571428D01*
X100761904Y-69857142D01*
X102285714Y-69857142D01*
X98476190Y-72428571D02*
X97904761Y-72714285D01*
X96952380Y-72714285D01*
X96571428Y-72428571D01*
X96380952Y-72142857D01*
X96190476Y-71571428D01*
X96190476Y-71000000D01*
X96380952Y-70428571D01*
X96571428Y-70142857D01*
X96952380Y-69857142D01*
X97714285Y-69571428D01*
X98095238Y-69285714D01*
X98285714Y-69000000D01*
X98476190Y-68428571D01*
X98476190Y-67857142D01*
X98285714Y-67285714D01*
X98095238Y-67000000D01*
X97714285Y-66714285D01*
X96761904Y-66714285D01*
X96190476Y-67000000D01*
D10*
%TO.C,LED9*%
X104325000Y-97328100D02*
X104325000Y-95528100D01*
%TO.C,LED31*%
X109950000Y-140772000D02*
X109950000Y-142572000D01*
%TO.C,LED30*%
X129000000Y-140772000D02*
X129000000Y-142572000D01*
%TO.C,LED29*%
X148050000Y-140772000D02*
X148050000Y-142572000D01*
%TO.C,LED28*%
X167100000Y-140772000D02*
X167100000Y-142572000D01*
%TO.C,LED27*%
X186150000Y-140772000D02*
X186150000Y-142572000D01*
%TO.C,LED26*%
X199575000Y-135428000D02*
X199575000Y-133628000D01*
%TO.C,LED25*%
X180525000Y-135428000D02*
X180525000Y-133628000D01*
%TO.C,LED24*%
X161475000Y-135428000D02*
X161475000Y-133628000D01*
%TO.C,LED23*%
X142425000Y-135428000D02*
X142425000Y-133628000D01*
%TO.C,LED22*%
X123375000Y-135428000D02*
X123375000Y-133628000D01*
%TO.C,LED21*%
X104325000Y-135428000D02*
X104325000Y-133628000D01*
%TO.C,LED20*%
X100425000Y-114578000D02*
X100425000Y-116378000D01*
%TO.C,LED19*%
X119419000Y-114578000D02*
X119419000Y-116378000D01*
%TO.C,LED18*%
X138525000Y-114578000D02*
X138525000Y-116378000D01*
%TO.C,LED17*%
X157575000Y-114578000D02*
X157575000Y-116378000D01*
%TO.C,LED16*%
X176625000Y-114578000D02*
X176625000Y-116378000D01*
%TO.C,LED15*%
X195675000Y-114578000D02*
X195675000Y-116378000D01*
%TO.C,LED14*%
X199575000Y-97328100D02*
X199575000Y-95528100D01*
%TO.C,LED13*%
X180525000Y-97328100D02*
X180525000Y-95528100D01*
%TO.C,LED12*%
X161475000Y-97328100D02*
X161475000Y-95528100D01*
%TO.C,LED11*%
X142425000Y-97328100D02*
X142425000Y-95528100D01*
%TO.C,LED10*%
X123375000Y-97328100D02*
X123375000Y-95528100D01*
%TO.C,LED8*%
X138525000Y-76478000D02*
X138525000Y-78278000D01*
%TO.C,LED7*%
X157575000Y-76478000D02*
X157575000Y-78278000D01*
%TO.C,LED6*%
X176625000Y-76478000D02*
X176625000Y-78278000D01*
%TO.C,LED5*%
X195675000Y-76478000D02*
X195675000Y-78278000D01*
%TO.C,LED4*%
X190050000Y-59227900D02*
X190050000Y-57427900D01*
%TO.C,LED3*%
X171000000Y-59227900D02*
X171000000Y-57427900D01*
%TO.C,LED2*%
X151950000Y-59227900D02*
X151950000Y-57427900D01*
%TO.C,LED1*%
X132900000Y-59227900D02*
X132900000Y-57427900D01*
D12*
%TO.C,SW31*%
X193800000Y-151575000D02*
X193800000Y-148725000D01*
D10*
X188500000Y-150625000D02*
X183700000Y-150625000D01*
X193800000Y-148725000D02*
X190720000Y-148725000D01*
X183700000Y-154225000D02*
X191900001Y-154225000D01*
X194000000Y-152325000D02*
X194000000Y-151575000D01*
X183700000Y-150625000D02*
X183700000Y-154225000D01*
X194000000Y-151575000D02*
X193800000Y-151575000D01*
X190716318Y-148746471D02*
G75*
G02*
X188500000Y-150625000I-2151318J291471D01*
G01*
X194000000Y-152324999D02*
G75*
G02*
X191900001Y-154225000I-2000000J99999D01*
G01*
D12*
%TO.C,SW30*%
X174750000Y-151575000D02*
X174750000Y-148725000D01*
D10*
X169450000Y-150625000D02*
X164650000Y-150625000D01*
X174750000Y-148725000D02*
X171670000Y-148725000D01*
X164650000Y-154225000D02*
X172850001Y-154225000D01*
X174950000Y-152325000D02*
X174950000Y-151575000D01*
X164650000Y-150625000D02*
X164650000Y-154225000D01*
X174950000Y-151575000D02*
X174750000Y-151575000D01*
X171666318Y-148746471D02*
G75*
G02*
X169450000Y-150625000I-2151318J291471D01*
G01*
X174950000Y-152324999D02*
G75*
G02*
X172850001Y-154225000I-2000000J99999D01*
G01*
D12*
%TO.C,SW29*%
X155700000Y-151575000D02*
X155700000Y-148725000D01*
D10*
X150400000Y-150625000D02*
X145600000Y-150625000D01*
X155700000Y-148725000D02*
X152620000Y-148725000D01*
X145600000Y-154225000D02*
X153800001Y-154225000D01*
X155900000Y-152325000D02*
X155900000Y-151575000D01*
X145600000Y-150625000D02*
X145600000Y-154225000D01*
X155900000Y-151575000D02*
X155700000Y-151575000D01*
X152616318Y-148746471D02*
G75*
G02*
X150400000Y-150625000I-2151318J291471D01*
G01*
X155900000Y-152324999D02*
G75*
G02*
X153800001Y-154225000I-2000000J99999D01*
G01*
D12*
%TO.C,SW28*%
X136650000Y-151575000D02*
X136650000Y-148725000D01*
D10*
X131350000Y-150625000D02*
X126550000Y-150625000D01*
X136650000Y-148725000D02*
X133570000Y-148725000D01*
X126550000Y-154225000D02*
X134750001Y-154225000D01*
X136850000Y-152325000D02*
X136850000Y-151575000D01*
X126550000Y-150625000D02*
X126550000Y-154225000D01*
X136850000Y-151575000D02*
X136650000Y-151575000D01*
X133566318Y-148746471D02*
G75*
G02*
X131350000Y-150625000I-2151318J291471D01*
G01*
X136850000Y-152324999D02*
G75*
G02*
X134750001Y-154225000I-2000000J99999D01*
G01*
D12*
%TO.C,SW27*%
X117600000Y-151575000D02*
X117600000Y-148725000D01*
D10*
X112300000Y-150625000D02*
X107500000Y-150625000D01*
X117600000Y-148725000D02*
X114520000Y-148725000D01*
X107500000Y-154225000D02*
X115700001Y-154225000D01*
X117800000Y-152325000D02*
X117800000Y-151575000D01*
X107500000Y-150625000D02*
X107500000Y-154225000D01*
X117800000Y-151575000D02*
X117600000Y-151575000D01*
X114516318Y-148746471D02*
G75*
G02*
X112300000Y-150625000I-2151318J291471D01*
G01*
X117800000Y-152324999D02*
G75*
G02*
X115700001Y-154225000I-2000000J99999D01*
G01*
D12*
%TO.C,SW26*%
X191925000Y-124625000D02*
X191925000Y-127475000D01*
D10*
X197225000Y-125575000D02*
X202025000Y-125575000D01*
X191925000Y-127475000D02*
X195005000Y-127475000D01*
X202025000Y-121975000D02*
X193824999Y-121975000D01*
X191725000Y-123875000D02*
X191725000Y-124625000D01*
X202025000Y-125575000D02*
X202025000Y-121975000D01*
X191725000Y-124625000D02*
X191925000Y-124625000D01*
X195008682Y-127453529D02*
G75*
G02*
X197225000Y-125575000I2151318J-291471D01*
G01*
X191725000Y-123875001D02*
G75*
G02*
X193824999Y-121975000I2000000J-99999D01*
G01*
D12*
%TO.C,SW25*%
X172875000Y-124625000D02*
X172875000Y-127475000D01*
D10*
X178175000Y-125575000D02*
X182975000Y-125575000D01*
X172875000Y-127475000D02*
X175955000Y-127475000D01*
X182975000Y-121975000D02*
X174774999Y-121975000D01*
X172675000Y-123875000D02*
X172675000Y-124625000D01*
X182975000Y-125575000D02*
X182975000Y-121975000D01*
X172675000Y-124625000D02*
X172875000Y-124625000D01*
X175958682Y-127453529D02*
G75*
G02*
X178175000Y-125575000I2151318J-291471D01*
G01*
X172675000Y-123875001D02*
G75*
G02*
X174774999Y-121975000I2000000J-99999D01*
G01*
D12*
%TO.C,SW24*%
X153825000Y-124625000D02*
X153825000Y-127475000D01*
D10*
X159125000Y-125575000D02*
X163925000Y-125575000D01*
X153825000Y-127475000D02*
X156905000Y-127475000D01*
X163925000Y-121975000D02*
X155724999Y-121975000D01*
X153625000Y-123875000D02*
X153625000Y-124625000D01*
X163925000Y-125575000D02*
X163925000Y-121975000D01*
X153625000Y-124625000D02*
X153825000Y-124625000D01*
X156908682Y-127453529D02*
G75*
G02*
X159125000Y-125575000I2151318J-291471D01*
G01*
X153625000Y-123875001D02*
G75*
G02*
X155724999Y-121975000I2000000J-99999D01*
G01*
D12*
%TO.C,SW23*%
X134775000Y-124625000D02*
X134775000Y-127475000D01*
D10*
X140075000Y-125575000D02*
X144875000Y-125575000D01*
X134775000Y-127475000D02*
X137855000Y-127475000D01*
X144875000Y-121975000D02*
X136674999Y-121975000D01*
X134575000Y-123875000D02*
X134575000Y-124625000D01*
X144875000Y-125575000D02*
X144875000Y-121975000D01*
X134575000Y-124625000D02*
X134775000Y-124625000D01*
X137858682Y-127453529D02*
G75*
G02*
X140075000Y-125575000I2151318J-291471D01*
G01*
X134575000Y-123875001D02*
G75*
G02*
X136674999Y-121975000I2000000J-99999D01*
G01*
D12*
%TO.C,SW22*%
X115725000Y-124625000D02*
X115725000Y-127475000D01*
D10*
X121025000Y-125575000D02*
X125825000Y-125575000D01*
X115725000Y-127475000D02*
X118805000Y-127475000D01*
X125825000Y-121975000D02*
X117624999Y-121975000D01*
X115525000Y-123875000D02*
X115525000Y-124625000D01*
X125825000Y-125575000D02*
X125825000Y-121975000D01*
X115525000Y-124625000D02*
X115725000Y-124625000D01*
X118808682Y-127453529D02*
G75*
G02*
X121025000Y-125575000I2151318J-291471D01*
G01*
X115525000Y-123875001D02*
G75*
G02*
X117624999Y-121975000I2000000J-99999D01*
G01*
D12*
%TO.C,SW21*%
X96675000Y-124625000D02*
X96675000Y-127475000D01*
D10*
X101975000Y-125575000D02*
X106775000Y-125575000D01*
X96675000Y-127475000D02*
X99755000Y-127475000D01*
X106775000Y-121975000D02*
X98574999Y-121975000D01*
X96475000Y-123875000D02*
X96475000Y-124625000D01*
X106775000Y-125575000D02*
X106775000Y-121975000D01*
X96475000Y-124625000D02*
X96675000Y-124625000D01*
X99758682Y-127453529D02*
G75*
G02*
X101975000Y-125575000I2151318J-291471D01*
G01*
X96475000Y-123875001D02*
G75*
G02*
X98574999Y-121975000I2000000J-99999D01*
G01*
D12*
%TO.C,SW20*%
X191925000Y-105575000D02*
X191925000Y-108425000D01*
D10*
X197225000Y-106525000D02*
X202025000Y-106525000D01*
X191925000Y-108425000D02*
X195005000Y-108425000D01*
X202025000Y-102925000D02*
X193824999Y-102925000D01*
X191725000Y-104825000D02*
X191725000Y-105575000D01*
X202025000Y-106525000D02*
X202025000Y-102925000D01*
X191725000Y-105575000D02*
X191925000Y-105575000D01*
X195008682Y-108403529D02*
G75*
G02*
X197225000Y-106525000I2151318J-291471D01*
G01*
X191725000Y-104825001D02*
G75*
G02*
X193824999Y-102925000I2000000J-99999D01*
G01*
D12*
%TO.C,SW19*%
X172875000Y-105575000D02*
X172875000Y-108425000D01*
D10*
X178175000Y-106525000D02*
X182975000Y-106525000D01*
X172875000Y-108425000D02*
X175955000Y-108425000D01*
X182975000Y-102925000D02*
X174774999Y-102925000D01*
X172675000Y-104825000D02*
X172675000Y-105575000D01*
X182975000Y-106525000D02*
X182975000Y-102925000D01*
X172675000Y-105575000D02*
X172875000Y-105575000D01*
X175958682Y-108403529D02*
G75*
G02*
X178175000Y-106525000I2151318J-291471D01*
G01*
X172675000Y-104825001D02*
G75*
G02*
X174774999Y-102925000I2000000J-99999D01*
G01*
D12*
%TO.C,SW18*%
X153825000Y-105575000D02*
X153825000Y-108425000D01*
D10*
X159125000Y-106525000D02*
X163925000Y-106525000D01*
X153825000Y-108425000D02*
X156905000Y-108425000D01*
X163925000Y-102925000D02*
X155724999Y-102925000D01*
X153625000Y-104825000D02*
X153625000Y-105575000D01*
X163925000Y-106525000D02*
X163925000Y-102925000D01*
X153625000Y-105575000D02*
X153825000Y-105575000D01*
X156908682Y-108403529D02*
G75*
G02*
X159125000Y-106525000I2151318J-291471D01*
G01*
X153625000Y-104825001D02*
G75*
G02*
X155724999Y-102925000I2000000J-99999D01*
G01*
D12*
%TO.C,SW17*%
X134775000Y-105575000D02*
X134775000Y-108425000D01*
D10*
X140075000Y-106525000D02*
X144875000Y-106525000D01*
X134775000Y-108425000D02*
X137855000Y-108425000D01*
X144875000Y-102925000D02*
X136674999Y-102925000D01*
X134575000Y-104825000D02*
X134575000Y-105575000D01*
X144875000Y-106525000D02*
X144875000Y-102925000D01*
X134575000Y-105575000D02*
X134775000Y-105575000D01*
X137858682Y-108403529D02*
G75*
G02*
X140075000Y-106525000I2151318J-291471D01*
G01*
X134575000Y-104825001D02*
G75*
G02*
X136674999Y-102925000I2000000J-99999D01*
G01*
D12*
%TO.C,SW16*%
X115725000Y-105575000D02*
X115725000Y-108425000D01*
D10*
X121025000Y-106525000D02*
X125825000Y-106525000D01*
X115725000Y-108425000D02*
X118805000Y-108425000D01*
X125825000Y-102925000D02*
X117624999Y-102925000D01*
X115525000Y-104825000D02*
X115525000Y-105575000D01*
X125825000Y-106525000D02*
X125825000Y-102925000D01*
X115525000Y-105575000D02*
X115725000Y-105575000D01*
X118808682Y-108403529D02*
G75*
G02*
X121025000Y-106525000I2151318J-291471D01*
G01*
X115525000Y-104825001D02*
G75*
G02*
X117624999Y-102925000I2000000J-99999D01*
G01*
D12*
%TO.C,SW15*%
X96675000Y-105575000D02*
X96675000Y-108425000D01*
D10*
X101975000Y-106525000D02*
X106775000Y-106525000D01*
X96675000Y-108425000D02*
X99755000Y-108425000D01*
X106775000Y-102925000D02*
X98574999Y-102925000D01*
X96475000Y-104825000D02*
X96475000Y-105575000D01*
X106775000Y-106525000D02*
X106775000Y-102925000D01*
X96475000Y-105575000D02*
X96675000Y-105575000D01*
X99758682Y-108403529D02*
G75*
G02*
X101975000Y-106525000I2151318J-291471D01*
G01*
X96475000Y-104825001D02*
G75*
G02*
X98574999Y-102925000I2000000J-99999D01*
G01*
D12*
%TO.C,SW14*%
X191925000Y-86525000D02*
X191925000Y-89375000D01*
D10*
X197225000Y-87475000D02*
X202025000Y-87475000D01*
X191925000Y-89375000D02*
X195005000Y-89375000D01*
X202025000Y-83875000D02*
X193824999Y-83875000D01*
X191725000Y-85775000D02*
X191725000Y-86525000D01*
X202025000Y-87475000D02*
X202025000Y-83875000D01*
X191725000Y-86525000D02*
X191925000Y-86525000D01*
X195008682Y-89353529D02*
G75*
G02*
X197225000Y-87475000I2151318J-291471D01*
G01*
X191725000Y-85775001D02*
G75*
G02*
X193824999Y-83875000I2000000J-99999D01*
G01*
D12*
%TO.C,SW13*%
X172875000Y-86525000D02*
X172875000Y-89375000D01*
D10*
X178175000Y-87475000D02*
X182975000Y-87475000D01*
X172875000Y-89375000D02*
X175955000Y-89375000D01*
X182975000Y-83875000D02*
X174774999Y-83875000D01*
X172675000Y-85775000D02*
X172675000Y-86525000D01*
X182975000Y-87475000D02*
X182975000Y-83875000D01*
X172675000Y-86525000D02*
X172875000Y-86525000D01*
X175958682Y-89353529D02*
G75*
G02*
X178175000Y-87475000I2151318J-291471D01*
G01*
X172675000Y-85775001D02*
G75*
G02*
X174774999Y-83875000I2000000J-99999D01*
G01*
D12*
%TO.C,SW12*%
X153825000Y-86525000D02*
X153825000Y-89375000D01*
D10*
X159125000Y-87475000D02*
X163925000Y-87475000D01*
X153825000Y-89375000D02*
X156905000Y-89375000D01*
X163925000Y-83875000D02*
X155724999Y-83875000D01*
X153625000Y-85775000D02*
X153625000Y-86525000D01*
X163925000Y-87475000D02*
X163925000Y-83875000D01*
X153625000Y-86525000D02*
X153825000Y-86525000D01*
X156908682Y-89353529D02*
G75*
G02*
X159125000Y-87475000I2151318J-291471D01*
G01*
X153625000Y-85775001D02*
G75*
G02*
X155724999Y-83875000I2000000J-99999D01*
G01*
D12*
%TO.C,SW11*%
X134775000Y-86525000D02*
X134775000Y-89375000D01*
D10*
X140075000Y-87475000D02*
X144875000Y-87475000D01*
X134775000Y-89375000D02*
X137855000Y-89375000D01*
X144875000Y-83875000D02*
X136674999Y-83875000D01*
X134575000Y-85775000D02*
X134575000Y-86525000D01*
X144875000Y-87475000D02*
X144875000Y-83875000D01*
X134575000Y-86525000D02*
X134775000Y-86525000D01*
X137858682Y-89353529D02*
G75*
G02*
X140075000Y-87475000I2151318J-291471D01*
G01*
X134575000Y-85775001D02*
G75*
G02*
X136674999Y-83875000I2000000J-99999D01*
G01*
D12*
%TO.C,SW10*%
X115725000Y-86525000D02*
X115725000Y-89375000D01*
D10*
X121025000Y-87475000D02*
X125825000Y-87475000D01*
X115725000Y-89375000D02*
X118805000Y-89375000D01*
X125825000Y-83875000D02*
X117624999Y-83875000D01*
X115525000Y-85775000D02*
X115525000Y-86525000D01*
X125825000Y-87475000D02*
X125825000Y-83875000D01*
X115525000Y-86525000D02*
X115725000Y-86525000D01*
X118808682Y-89353529D02*
G75*
G02*
X121025000Y-87475000I2151318J-291471D01*
G01*
X115525000Y-85775001D02*
G75*
G02*
X117624999Y-83875000I2000000J-99999D01*
G01*
D12*
%TO.C,SW9*%
X96675000Y-86525000D02*
X96675000Y-89375000D01*
D10*
X101975000Y-87475000D02*
X106775000Y-87475000D01*
X96675000Y-89375000D02*
X99755000Y-89375000D01*
X106775000Y-83875000D02*
X98574999Y-83875000D01*
X96475000Y-85775000D02*
X96475000Y-86525000D01*
X106775000Y-87475000D02*
X106775000Y-83875000D01*
X96475000Y-86525000D02*
X96675000Y-86525000D01*
X99758682Y-89353529D02*
G75*
G02*
X101975000Y-87475000I2151318J-291471D01*
G01*
X96475000Y-85775001D02*
G75*
G02*
X98574999Y-83875000I2000000J-99999D01*
G01*
D12*
%TO.C,SW8*%
X191925000Y-67474900D02*
X191925000Y-70324900D01*
D10*
X197225000Y-68424900D02*
X202025000Y-68424900D01*
X191925000Y-70324900D02*
X195005000Y-70324900D01*
X202025000Y-64824900D02*
X193824999Y-64824900D01*
X191725000Y-66724900D02*
X191725000Y-67474900D01*
X202025000Y-68424900D02*
X202025000Y-64824900D01*
X191725000Y-67474900D02*
X191925000Y-67474900D01*
X195008682Y-70303429D02*
G75*
G02*
X197225000Y-68424900I2151318J-291471D01*
G01*
X191725000Y-66724901D02*
G75*
G02*
X193824999Y-64824900I2000000J-99999D01*
G01*
D12*
%TO.C,SW7*%
X172875000Y-67474900D02*
X172875000Y-70324900D01*
D10*
X178175000Y-68424900D02*
X182975000Y-68424900D01*
X172875000Y-70324900D02*
X175955000Y-70324900D01*
X182975000Y-64824900D02*
X174774999Y-64824900D01*
X172675000Y-66724900D02*
X172675000Y-67474900D01*
X182975000Y-68424900D02*
X182975000Y-64824900D01*
X172675000Y-67474900D02*
X172875000Y-67474900D01*
X175958682Y-70303429D02*
G75*
G02*
X178175000Y-68424900I2151318J-291471D01*
G01*
X172675000Y-66724901D02*
G75*
G02*
X174774999Y-64824900I2000000J-99999D01*
G01*
D12*
%TO.C,SW6*%
X153825000Y-67474900D02*
X153825000Y-70324900D01*
D10*
X159125000Y-68424900D02*
X163925000Y-68424900D01*
X153825000Y-70324900D02*
X156905000Y-70324900D01*
X163925000Y-64824900D02*
X155724999Y-64824900D01*
X153625000Y-66724900D02*
X153625000Y-67474900D01*
X163925000Y-68424900D02*
X163925000Y-64824900D01*
X153625000Y-67474900D02*
X153825000Y-67474900D01*
X156908682Y-70303429D02*
G75*
G02*
X159125000Y-68424900I2151318J-291471D01*
G01*
X153625000Y-66724901D02*
G75*
G02*
X155724999Y-64824900I2000000J-99999D01*
G01*
D12*
%TO.C,SW5*%
X134775000Y-67474900D02*
X134775000Y-70324900D01*
D10*
X140075000Y-68424900D02*
X144875000Y-68424900D01*
X134775000Y-70324900D02*
X137855000Y-70324900D01*
X144875000Y-64824900D02*
X136674999Y-64824900D01*
X134575000Y-66724900D02*
X134575000Y-67474900D01*
X144875000Y-68424900D02*
X144875000Y-64824900D01*
X134575000Y-67474900D02*
X134775000Y-67474900D01*
X137858682Y-70303429D02*
G75*
G02*
X140075000Y-68424900I2151318J-291471D01*
G01*
X134575000Y-66724901D02*
G75*
G02*
X136674999Y-64824900I2000000J-99999D01*
G01*
D12*
%TO.C,SW4*%
X182400000Y-48424800D02*
X182400000Y-51274800D01*
D10*
X187700000Y-49374800D02*
X192500000Y-49374800D01*
X182400000Y-51274800D02*
X185480000Y-51274800D01*
X192500000Y-45774800D02*
X184299999Y-45774800D01*
X182200000Y-47674800D02*
X182200000Y-48424800D01*
X192500000Y-49374800D02*
X192500000Y-45774800D01*
X182200000Y-48424800D02*
X182400000Y-48424800D01*
X185483682Y-51253329D02*
G75*
G02*
X187700000Y-49374800I2151318J-291471D01*
G01*
X182200000Y-47674801D02*
G75*
G02*
X184299999Y-45774800I2000000J-99999D01*
G01*
D12*
%TO.C,SW3*%
X163350000Y-48424800D02*
X163350000Y-51274800D01*
D10*
X168650000Y-49374800D02*
X173450000Y-49374800D01*
X163350000Y-51274800D02*
X166430000Y-51274800D01*
X173450000Y-45774800D02*
X165249999Y-45774800D01*
X163150000Y-47674800D02*
X163150000Y-48424800D01*
X173450000Y-49374800D02*
X173450000Y-45774800D01*
X163150000Y-48424800D02*
X163350000Y-48424800D01*
X166433682Y-51253329D02*
G75*
G02*
X168650000Y-49374800I2151318J-291471D01*
G01*
X163150000Y-47674801D02*
G75*
G02*
X165249999Y-45774800I2000000J-99999D01*
G01*
D12*
%TO.C,SW2*%
X144300000Y-48424800D02*
X144300000Y-51274800D01*
D10*
X149600000Y-49374800D02*
X154400000Y-49374800D01*
X144300000Y-51274800D02*
X147380000Y-51274800D01*
X154400000Y-45774800D02*
X146199999Y-45774800D01*
X144100000Y-47674800D02*
X144100000Y-48424800D01*
X154400000Y-49374800D02*
X154400000Y-45774800D01*
X144100000Y-48424800D02*
X144300000Y-48424800D01*
X147383682Y-51253329D02*
G75*
G02*
X149600000Y-49374800I2151318J-291471D01*
G01*
X144100000Y-47674801D02*
G75*
G02*
X146199999Y-45774800I2000000J-99999D01*
G01*
D12*
%TO.C,SW1*%
X125250000Y-48424800D02*
X125250000Y-51274800D01*
D10*
X130550000Y-49374800D02*
X135350000Y-49374800D01*
X125250000Y-51274800D02*
X128330000Y-51274800D01*
X135350000Y-45774800D02*
X127149999Y-45774800D01*
X125050000Y-47674800D02*
X125050000Y-48424800D01*
X135350000Y-49374800D02*
X135350000Y-45774800D01*
X125050000Y-48424800D02*
X125250000Y-48424800D01*
X128333682Y-51253329D02*
G75*
G02*
X130550000Y-49374800I2151318J-291471D01*
G01*
X125050000Y-47674801D02*
G75*
G02*
X127149999Y-45774800I2000000J-99999D01*
G01*
D12*
%TO.C,D35*%
X115603000Y-59327900D02*
X115603000Y-57327900D01*
X115603000Y-57327900D02*
X119503000Y-57327900D01*
X115603000Y-59327900D02*
X119503000Y-59327900D01*
%TO.C,D34*%
X115603000Y-55756100D02*
X115603000Y-53756100D01*
X115603000Y-53756100D02*
X119503000Y-53756100D01*
X115603000Y-55756100D02*
X119503000Y-55756100D01*
%TO.C,D33*%
X108459000Y-59327900D02*
X108459000Y-57327900D01*
X108459000Y-57327900D02*
X112359000Y-57327900D01*
X108459000Y-59327900D02*
X112359000Y-59327900D01*
%TO.C,D32*%
X108459000Y-55756100D02*
X108459000Y-53756100D01*
X108459000Y-53756100D02*
X112359000Y-53756100D01*
X108459000Y-55756100D02*
X112359000Y-55756100D01*
%TO.C,D31*%
X181088000Y-146244000D02*
X181088000Y-144244000D01*
X181088000Y-144244000D02*
X184988000Y-144244000D01*
X181088000Y-146244000D02*
X184988000Y-146244000D01*
%TO.C,D30*%
X162038000Y-146244000D02*
X162038000Y-144244000D01*
X162038000Y-144244000D02*
X165938000Y-144244000D01*
X162038000Y-146244000D02*
X165938000Y-146244000D01*
%TO.C,D29*%
X142987000Y-146244000D02*
X142987000Y-144244000D01*
X142987000Y-144244000D02*
X146887000Y-144244000D01*
X142987000Y-146244000D02*
X146887000Y-146244000D01*
%TO.C,D28*%
X123937000Y-146244000D02*
X123937000Y-144244000D01*
X123937000Y-144244000D02*
X127837000Y-144244000D01*
X123937000Y-146244000D02*
X127837000Y-146244000D01*
%TO.C,D27*%
X97743500Y-146244000D02*
X97743500Y-144244000D01*
X97743500Y-144244000D02*
X101643500Y-144244000D01*
X97743500Y-146244000D02*
X101643500Y-146244000D01*
%TO.C,D26*%
X200138000Y-131956000D02*
X200138000Y-129956000D01*
X200138000Y-129956000D02*
X204038000Y-129956000D01*
X200138000Y-131956000D02*
X204038000Y-131956000D01*
%TO.C,D25*%
X181088000Y-131956000D02*
X181088000Y-129956000D01*
X181088000Y-129956000D02*
X184988000Y-129956000D01*
X181088000Y-131956000D02*
X184988000Y-131956000D01*
%TO.C,D24*%
X162038000Y-131956000D02*
X162038000Y-129956000D01*
X162038000Y-129956000D02*
X165938000Y-129956000D01*
X162038000Y-131956000D02*
X165938000Y-131956000D01*
%TO.C,D23*%
X142987000Y-131956000D02*
X142987000Y-129956000D01*
X142987000Y-129956000D02*
X146887000Y-129956000D01*
X142987000Y-131956000D02*
X146887000Y-131956000D01*
%TO.C,D22*%
X123937000Y-131956000D02*
X123937000Y-129956000D01*
X123937000Y-129956000D02*
X127837000Y-129956000D01*
X123937000Y-131956000D02*
X127837000Y-131956000D01*
%TO.C,D21*%
X104887000Y-131956000D02*
X104887000Y-129956000D01*
X104887000Y-129956000D02*
X108787000Y-129956000D01*
X104887000Y-131956000D02*
X108787000Y-131956000D01*
%TO.C,D20*%
X200138000Y-112906000D02*
X200138000Y-110906000D01*
X200138000Y-110906000D02*
X204038000Y-110906000D01*
X200138000Y-112906000D02*
X204038000Y-112906000D01*
%TO.C,D19*%
X181088000Y-112906000D02*
X181088000Y-110906000D01*
X181088000Y-110906000D02*
X184988000Y-110906000D01*
X181088000Y-112906000D02*
X184988000Y-112906000D01*
%TO.C,D18*%
X162038000Y-112906000D02*
X162038000Y-110906000D01*
X162038000Y-110906000D02*
X165938000Y-110906000D01*
X162038000Y-112906000D02*
X165938000Y-112906000D01*
%TO.C,D17*%
X142987000Y-112906000D02*
X142987000Y-110906000D01*
X142987000Y-110906000D02*
X146887000Y-110906000D01*
X142987000Y-112906000D02*
X146887000Y-112906000D01*
%TO.C,D16*%
X123937000Y-112906000D02*
X123937000Y-110906000D01*
X123937000Y-110906000D02*
X127837000Y-110906000D01*
X123937000Y-112906000D02*
X127837000Y-112906000D01*
%TO.C,D15*%
X104887000Y-112906000D02*
X104887000Y-110906000D01*
X104887000Y-110906000D02*
X108787000Y-110906000D01*
X104887000Y-112906000D02*
X108787000Y-112906000D01*
%TO.C,D14*%
X200138000Y-93856200D02*
X200138000Y-91856200D01*
X200138000Y-91856200D02*
X204038000Y-91856200D01*
X200138000Y-93856200D02*
X204038000Y-93856200D01*
%TO.C,D13*%
X181088000Y-93856200D02*
X181088000Y-91856200D01*
X181088000Y-91856200D02*
X184988000Y-91856200D01*
X181088000Y-93856200D02*
X184988000Y-93856200D01*
%TO.C,D12*%
X162038000Y-93856200D02*
X162038000Y-91856200D01*
X162038000Y-91856200D02*
X165938000Y-91856200D01*
X162038000Y-93856200D02*
X165938000Y-93856200D01*
%TO.C,D11*%
X142987000Y-93856200D02*
X142987000Y-91856200D01*
X142987000Y-91856200D02*
X146887000Y-91856200D01*
X142987000Y-93856200D02*
X146887000Y-93856200D01*
%TO.C,D10*%
X123937000Y-93856200D02*
X123937000Y-91856200D01*
X123937000Y-91856200D02*
X127837000Y-91856200D01*
X123937000Y-93856200D02*
X127837000Y-93856200D01*
%TO.C,D9*%
X104887000Y-93856200D02*
X104887000Y-91856200D01*
X104887000Y-91856200D02*
X108787000Y-91856200D01*
X104887000Y-93856200D02*
X108787000Y-93856200D01*
%TO.C,D8*%
X200138000Y-74806100D02*
X200138000Y-72806100D01*
X200138000Y-72806100D02*
X204038000Y-72806100D01*
X200138000Y-74806100D02*
X204038000Y-74806100D01*
%TO.C,D7*%
X181088000Y-74806100D02*
X181088000Y-72806100D01*
X181088000Y-72806100D02*
X184988000Y-72806100D01*
X181088000Y-74806100D02*
X184988000Y-74806100D01*
%TO.C,D6*%
X162038000Y-74806100D02*
X162038000Y-72806100D01*
X162038000Y-72806100D02*
X165938000Y-72806100D01*
X162038000Y-74806100D02*
X165938000Y-74806100D01*
%TO.C,D5*%
X142987000Y-74806100D02*
X142987000Y-72806100D01*
X142987000Y-72806100D02*
X146887000Y-72806100D01*
X142987000Y-74806100D02*
X146887000Y-74806100D01*
%TO.C,D4*%
X197756000Y-55756100D02*
X197756000Y-53756100D01*
X197756000Y-53756100D02*
X201656000Y-53756100D01*
X197756000Y-55756100D02*
X201656000Y-55756100D01*
%TO.C,D3*%
X171563000Y-55756100D02*
X171563000Y-53756100D01*
X171563000Y-53756100D02*
X175463000Y-53756100D01*
X171563000Y-55756100D02*
X175463000Y-55756100D01*
%TO.C,D2*%
X152513000Y-55756100D02*
X152513000Y-53756100D01*
X152513000Y-53756100D02*
X156413000Y-53756100D01*
X152513000Y-55756100D02*
X156413000Y-55756100D01*
%TO.C,D1*%
X133462000Y-55756100D02*
X133462000Y-53756100D01*
X133462000Y-53756100D02*
X137362000Y-53756100D01*
X133462000Y-55756100D02*
X137362000Y-55756100D01*
%TO.C,LED9*%
D13*
X103113571Y-94426671D02*
X103427857Y-94426671D01*
X103427857Y-93766671D01*
X102893571Y-94080957D02*
X102673571Y-94080957D01*
X102579285Y-94426671D02*
X102893571Y-94426671D01*
X102893571Y-93766671D01*
X102579285Y-93766671D01*
X102296428Y-94426671D02*
X102296428Y-93766671D01*
X102139285Y-93766671D01*
X102045000Y-93798100D01*
X101982142Y-93860957D01*
X101950714Y-93923814D01*
X101919285Y-94049528D01*
X101919285Y-94143814D01*
X101950714Y-94269528D01*
X101982142Y-94332385D01*
X102045000Y-94395242D01*
X102139285Y-94426671D01*
X102296428Y-94426671D01*
X101605000Y-94426671D02*
X101479285Y-94426671D01*
X101416428Y-94395242D01*
X101385000Y-94363814D01*
X101322142Y-94269528D01*
X101290714Y-94143814D01*
X101290714Y-93892385D01*
X101322142Y-93829528D01*
X101353571Y-93798100D01*
X101416428Y-93766671D01*
X101542142Y-93766671D01*
X101605000Y-93798100D01*
X101636428Y-93829528D01*
X101667857Y-93892385D01*
X101667857Y-94049528D01*
X101636428Y-94112385D01*
X101605000Y-94143814D01*
X101542142Y-94175242D01*
X101416428Y-94175242D01*
X101353571Y-94143814D01*
X101322142Y-94112385D01*
X101290714Y-94049528D01*
%TO.C,LED31*%
X112952857Y-144270571D02*
X113267142Y-144270571D01*
X113267142Y-143610571D01*
X112732857Y-143924857D02*
X112512857Y-143924857D01*
X112418571Y-144270571D02*
X112732857Y-144270571D01*
X112732857Y-143610571D01*
X112418571Y-143610571D01*
X112135714Y-144270571D02*
X112135714Y-143610571D01*
X111978571Y-143610571D01*
X111884285Y-143642000D01*
X111821428Y-143704857D01*
X111790000Y-143767714D01*
X111758571Y-143893428D01*
X111758571Y-143987714D01*
X111790000Y-144113428D01*
X111821428Y-144176285D01*
X111884285Y-144239142D01*
X111978571Y-144270571D01*
X112135714Y-144270571D01*
X111538571Y-143610571D02*
X111130000Y-143610571D01*
X111350000Y-143862000D01*
X111255714Y-143862000D01*
X111192857Y-143893428D01*
X111161428Y-143924857D01*
X111130000Y-143987714D01*
X111130000Y-144144857D01*
X111161428Y-144207714D01*
X111192857Y-144239142D01*
X111255714Y-144270571D01*
X111444285Y-144270571D01*
X111507142Y-144239142D01*
X111538571Y-144207714D01*
X110501428Y-144270571D02*
X110878571Y-144270571D01*
X110690000Y-144270571D02*
X110690000Y-143610571D01*
X110752857Y-143704857D01*
X110815714Y-143767714D01*
X110878571Y-143799142D01*
%TO.C,LED30*%
X132002857Y-144270571D02*
X132317142Y-144270571D01*
X132317142Y-143610571D01*
X131782857Y-143924857D02*
X131562857Y-143924857D01*
X131468571Y-144270571D02*
X131782857Y-144270571D01*
X131782857Y-143610571D01*
X131468571Y-143610571D01*
X131185714Y-144270571D02*
X131185714Y-143610571D01*
X131028571Y-143610571D01*
X130934285Y-143642000D01*
X130871428Y-143704857D01*
X130840000Y-143767714D01*
X130808571Y-143893428D01*
X130808571Y-143987714D01*
X130840000Y-144113428D01*
X130871428Y-144176285D01*
X130934285Y-144239142D01*
X131028571Y-144270571D01*
X131185714Y-144270571D01*
X130588571Y-143610571D02*
X130180000Y-143610571D01*
X130400000Y-143862000D01*
X130305714Y-143862000D01*
X130242857Y-143893428D01*
X130211428Y-143924857D01*
X130180000Y-143987714D01*
X130180000Y-144144857D01*
X130211428Y-144207714D01*
X130242857Y-144239142D01*
X130305714Y-144270571D01*
X130494285Y-144270571D01*
X130557142Y-144239142D01*
X130588571Y-144207714D01*
X129771428Y-143610571D02*
X129708571Y-143610571D01*
X129645714Y-143642000D01*
X129614285Y-143673428D01*
X129582857Y-143736285D01*
X129551428Y-143862000D01*
X129551428Y-144019142D01*
X129582857Y-144144857D01*
X129614285Y-144207714D01*
X129645714Y-144239142D01*
X129708571Y-144270571D01*
X129771428Y-144270571D01*
X129834285Y-144239142D01*
X129865714Y-144207714D01*
X129897142Y-144144857D01*
X129928571Y-144019142D01*
X129928571Y-143862000D01*
X129897142Y-143736285D01*
X129865714Y-143673428D01*
X129834285Y-143642000D01*
X129771428Y-143610571D01*
%TO.C,LED29*%
X151052857Y-144270571D02*
X151367142Y-144270571D01*
X151367142Y-143610571D01*
X150832857Y-143924857D02*
X150612857Y-143924857D01*
X150518571Y-144270571D02*
X150832857Y-144270571D01*
X150832857Y-143610571D01*
X150518571Y-143610571D01*
X150235714Y-144270571D02*
X150235714Y-143610571D01*
X150078571Y-143610571D01*
X149984285Y-143642000D01*
X149921428Y-143704857D01*
X149890000Y-143767714D01*
X149858571Y-143893428D01*
X149858571Y-143987714D01*
X149890000Y-144113428D01*
X149921428Y-144176285D01*
X149984285Y-144239142D01*
X150078571Y-144270571D01*
X150235714Y-144270571D01*
X149607142Y-143673428D02*
X149575714Y-143642000D01*
X149512857Y-143610571D01*
X149355714Y-143610571D01*
X149292857Y-143642000D01*
X149261428Y-143673428D01*
X149230000Y-143736285D01*
X149230000Y-143799142D01*
X149261428Y-143893428D01*
X149638571Y-144270571D01*
X149230000Y-144270571D01*
X148915714Y-144270571D02*
X148790000Y-144270571D01*
X148727142Y-144239142D01*
X148695714Y-144207714D01*
X148632857Y-144113428D01*
X148601428Y-143987714D01*
X148601428Y-143736285D01*
X148632857Y-143673428D01*
X148664285Y-143642000D01*
X148727142Y-143610571D01*
X148852857Y-143610571D01*
X148915714Y-143642000D01*
X148947142Y-143673428D01*
X148978571Y-143736285D01*
X148978571Y-143893428D01*
X148947142Y-143956285D01*
X148915714Y-143987714D01*
X148852857Y-144019142D01*
X148727142Y-144019142D01*
X148664285Y-143987714D01*
X148632857Y-143956285D01*
X148601428Y-143893428D01*
%TO.C,LED28*%
X170102857Y-144270571D02*
X170417142Y-144270571D01*
X170417142Y-143610571D01*
X169882857Y-143924857D02*
X169662857Y-143924857D01*
X169568571Y-144270571D02*
X169882857Y-144270571D01*
X169882857Y-143610571D01*
X169568571Y-143610571D01*
X169285714Y-144270571D02*
X169285714Y-143610571D01*
X169128571Y-143610571D01*
X169034285Y-143642000D01*
X168971428Y-143704857D01*
X168940000Y-143767714D01*
X168908571Y-143893428D01*
X168908571Y-143987714D01*
X168940000Y-144113428D01*
X168971428Y-144176285D01*
X169034285Y-144239142D01*
X169128571Y-144270571D01*
X169285714Y-144270571D01*
X168657142Y-143673428D02*
X168625714Y-143642000D01*
X168562857Y-143610571D01*
X168405714Y-143610571D01*
X168342857Y-143642000D01*
X168311428Y-143673428D01*
X168280000Y-143736285D01*
X168280000Y-143799142D01*
X168311428Y-143893428D01*
X168688571Y-144270571D01*
X168280000Y-144270571D01*
X167902857Y-143893428D02*
X167965714Y-143862000D01*
X167997142Y-143830571D01*
X168028571Y-143767714D01*
X168028571Y-143736285D01*
X167997142Y-143673428D01*
X167965714Y-143642000D01*
X167902857Y-143610571D01*
X167777142Y-143610571D01*
X167714285Y-143642000D01*
X167682857Y-143673428D01*
X167651428Y-143736285D01*
X167651428Y-143767714D01*
X167682857Y-143830571D01*
X167714285Y-143862000D01*
X167777142Y-143893428D01*
X167902857Y-143893428D01*
X167965714Y-143924857D01*
X167997142Y-143956285D01*
X168028571Y-144019142D01*
X168028571Y-144144857D01*
X167997142Y-144207714D01*
X167965714Y-144239142D01*
X167902857Y-144270571D01*
X167777142Y-144270571D01*
X167714285Y-144239142D01*
X167682857Y-144207714D01*
X167651428Y-144144857D01*
X167651428Y-144019142D01*
X167682857Y-143956285D01*
X167714285Y-143924857D01*
X167777142Y-143893428D01*
%TO.C,LED27*%
X189152857Y-144270571D02*
X189467142Y-144270571D01*
X189467142Y-143610571D01*
X188932857Y-143924857D02*
X188712857Y-143924857D01*
X188618571Y-144270571D02*
X188932857Y-144270571D01*
X188932857Y-143610571D01*
X188618571Y-143610571D01*
X188335714Y-144270571D02*
X188335714Y-143610571D01*
X188178571Y-143610571D01*
X188084285Y-143642000D01*
X188021428Y-143704857D01*
X187990000Y-143767714D01*
X187958571Y-143893428D01*
X187958571Y-143987714D01*
X187990000Y-144113428D01*
X188021428Y-144176285D01*
X188084285Y-144239142D01*
X188178571Y-144270571D01*
X188335714Y-144270571D01*
X187707142Y-143673428D02*
X187675714Y-143642000D01*
X187612857Y-143610571D01*
X187455714Y-143610571D01*
X187392857Y-143642000D01*
X187361428Y-143673428D01*
X187330000Y-143736285D01*
X187330000Y-143799142D01*
X187361428Y-143893428D01*
X187738571Y-144270571D01*
X187330000Y-144270571D01*
X187110000Y-143610571D02*
X186670000Y-143610571D01*
X186952857Y-144270571D01*
%TO.C,LED26*%
X198677857Y-132526571D02*
X198992142Y-132526571D01*
X198992142Y-131866571D01*
X198457857Y-132180857D02*
X198237857Y-132180857D01*
X198143571Y-132526571D02*
X198457857Y-132526571D01*
X198457857Y-131866571D01*
X198143571Y-131866571D01*
X197860714Y-132526571D02*
X197860714Y-131866571D01*
X197703571Y-131866571D01*
X197609285Y-131898000D01*
X197546428Y-131960857D01*
X197515000Y-132023714D01*
X197483571Y-132149428D01*
X197483571Y-132243714D01*
X197515000Y-132369428D01*
X197546428Y-132432285D01*
X197609285Y-132495142D01*
X197703571Y-132526571D01*
X197860714Y-132526571D01*
X197232142Y-131929428D02*
X197200714Y-131898000D01*
X197137857Y-131866571D01*
X196980714Y-131866571D01*
X196917857Y-131898000D01*
X196886428Y-131929428D01*
X196855000Y-131992285D01*
X196855000Y-132055142D01*
X196886428Y-132149428D01*
X197263571Y-132526571D01*
X196855000Y-132526571D01*
X196289285Y-131866571D02*
X196415000Y-131866571D01*
X196477857Y-131898000D01*
X196509285Y-131929428D01*
X196572142Y-132023714D01*
X196603571Y-132149428D01*
X196603571Y-132400857D01*
X196572142Y-132463714D01*
X196540714Y-132495142D01*
X196477857Y-132526571D01*
X196352142Y-132526571D01*
X196289285Y-132495142D01*
X196257857Y-132463714D01*
X196226428Y-132400857D01*
X196226428Y-132243714D01*
X196257857Y-132180857D01*
X196289285Y-132149428D01*
X196352142Y-132118000D01*
X196477857Y-132118000D01*
X196540714Y-132149428D01*
X196572142Y-132180857D01*
X196603571Y-132243714D01*
%TO.C,LED25*%
X179627857Y-132526571D02*
X179942142Y-132526571D01*
X179942142Y-131866571D01*
X179407857Y-132180857D02*
X179187857Y-132180857D01*
X179093571Y-132526571D02*
X179407857Y-132526571D01*
X179407857Y-131866571D01*
X179093571Y-131866571D01*
X178810714Y-132526571D02*
X178810714Y-131866571D01*
X178653571Y-131866571D01*
X178559285Y-131898000D01*
X178496428Y-131960857D01*
X178465000Y-132023714D01*
X178433571Y-132149428D01*
X178433571Y-132243714D01*
X178465000Y-132369428D01*
X178496428Y-132432285D01*
X178559285Y-132495142D01*
X178653571Y-132526571D01*
X178810714Y-132526571D01*
X178182142Y-131929428D02*
X178150714Y-131898000D01*
X178087857Y-131866571D01*
X177930714Y-131866571D01*
X177867857Y-131898000D01*
X177836428Y-131929428D01*
X177805000Y-131992285D01*
X177805000Y-132055142D01*
X177836428Y-132149428D01*
X178213571Y-132526571D01*
X177805000Y-132526571D01*
X177207857Y-131866571D02*
X177522142Y-131866571D01*
X177553571Y-132180857D01*
X177522142Y-132149428D01*
X177459285Y-132118000D01*
X177302142Y-132118000D01*
X177239285Y-132149428D01*
X177207857Y-132180857D01*
X177176428Y-132243714D01*
X177176428Y-132400857D01*
X177207857Y-132463714D01*
X177239285Y-132495142D01*
X177302142Y-132526571D01*
X177459285Y-132526571D01*
X177522142Y-132495142D01*
X177553571Y-132463714D01*
%TO.C,LED24*%
X160577857Y-132526571D02*
X160892142Y-132526571D01*
X160892142Y-131866571D01*
X160357857Y-132180857D02*
X160137857Y-132180857D01*
X160043571Y-132526571D02*
X160357857Y-132526571D01*
X160357857Y-131866571D01*
X160043571Y-131866571D01*
X159760714Y-132526571D02*
X159760714Y-131866571D01*
X159603571Y-131866571D01*
X159509285Y-131898000D01*
X159446428Y-131960857D01*
X159415000Y-132023714D01*
X159383571Y-132149428D01*
X159383571Y-132243714D01*
X159415000Y-132369428D01*
X159446428Y-132432285D01*
X159509285Y-132495142D01*
X159603571Y-132526571D01*
X159760714Y-132526571D01*
X159132142Y-131929428D02*
X159100714Y-131898000D01*
X159037857Y-131866571D01*
X158880714Y-131866571D01*
X158817857Y-131898000D01*
X158786428Y-131929428D01*
X158755000Y-131992285D01*
X158755000Y-132055142D01*
X158786428Y-132149428D01*
X159163571Y-132526571D01*
X158755000Y-132526571D01*
X158189285Y-132086571D02*
X158189285Y-132526571D01*
X158346428Y-131835142D02*
X158503571Y-132306571D01*
X158095000Y-132306571D01*
%TO.C,LED23*%
X141527857Y-132526571D02*
X141842142Y-132526571D01*
X141842142Y-131866571D01*
X141307857Y-132180857D02*
X141087857Y-132180857D01*
X140993571Y-132526571D02*
X141307857Y-132526571D01*
X141307857Y-131866571D01*
X140993571Y-131866571D01*
X140710714Y-132526571D02*
X140710714Y-131866571D01*
X140553571Y-131866571D01*
X140459285Y-131898000D01*
X140396428Y-131960857D01*
X140365000Y-132023714D01*
X140333571Y-132149428D01*
X140333571Y-132243714D01*
X140365000Y-132369428D01*
X140396428Y-132432285D01*
X140459285Y-132495142D01*
X140553571Y-132526571D01*
X140710714Y-132526571D01*
X140082142Y-131929428D02*
X140050714Y-131898000D01*
X139987857Y-131866571D01*
X139830714Y-131866571D01*
X139767857Y-131898000D01*
X139736428Y-131929428D01*
X139705000Y-131992285D01*
X139705000Y-132055142D01*
X139736428Y-132149428D01*
X140113571Y-132526571D01*
X139705000Y-132526571D01*
X139485000Y-131866571D02*
X139076428Y-131866571D01*
X139296428Y-132118000D01*
X139202142Y-132118000D01*
X139139285Y-132149428D01*
X139107857Y-132180857D01*
X139076428Y-132243714D01*
X139076428Y-132400857D01*
X139107857Y-132463714D01*
X139139285Y-132495142D01*
X139202142Y-132526571D01*
X139390714Y-132526571D01*
X139453571Y-132495142D01*
X139485000Y-132463714D01*
%TO.C,LED22*%
X122477857Y-132526571D02*
X122792142Y-132526571D01*
X122792142Y-131866571D01*
X122257857Y-132180857D02*
X122037857Y-132180857D01*
X121943571Y-132526571D02*
X122257857Y-132526571D01*
X122257857Y-131866571D01*
X121943571Y-131866571D01*
X121660714Y-132526571D02*
X121660714Y-131866571D01*
X121503571Y-131866571D01*
X121409285Y-131898000D01*
X121346428Y-131960857D01*
X121315000Y-132023714D01*
X121283571Y-132149428D01*
X121283571Y-132243714D01*
X121315000Y-132369428D01*
X121346428Y-132432285D01*
X121409285Y-132495142D01*
X121503571Y-132526571D01*
X121660714Y-132526571D01*
X121032142Y-131929428D02*
X121000714Y-131898000D01*
X120937857Y-131866571D01*
X120780714Y-131866571D01*
X120717857Y-131898000D01*
X120686428Y-131929428D01*
X120655000Y-131992285D01*
X120655000Y-132055142D01*
X120686428Y-132149428D01*
X121063571Y-132526571D01*
X120655000Y-132526571D01*
X120403571Y-131929428D02*
X120372142Y-131898000D01*
X120309285Y-131866571D01*
X120152142Y-131866571D01*
X120089285Y-131898000D01*
X120057857Y-131929428D01*
X120026428Y-131992285D01*
X120026428Y-132055142D01*
X120057857Y-132149428D01*
X120435000Y-132526571D01*
X120026428Y-132526571D01*
%TO.C,LED21*%
X103427857Y-132526571D02*
X103742142Y-132526571D01*
X103742142Y-131866571D01*
X103207857Y-132180857D02*
X102987857Y-132180857D01*
X102893571Y-132526571D02*
X103207857Y-132526571D01*
X103207857Y-131866571D01*
X102893571Y-131866571D01*
X102610714Y-132526571D02*
X102610714Y-131866571D01*
X102453571Y-131866571D01*
X102359285Y-131898000D01*
X102296428Y-131960857D01*
X102265000Y-132023714D01*
X102233571Y-132149428D01*
X102233571Y-132243714D01*
X102265000Y-132369428D01*
X102296428Y-132432285D01*
X102359285Y-132495142D01*
X102453571Y-132526571D01*
X102610714Y-132526571D01*
X101982142Y-131929428D02*
X101950714Y-131898000D01*
X101887857Y-131866571D01*
X101730714Y-131866571D01*
X101667857Y-131898000D01*
X101636428Y-131929428D01*
X101605000Y-131992285D01*
X101605000Y-132055142D01*
X101636428Y-132149428D01*
X102013571Y-132526571D01*
X101605000Y-132526571D01*
X100976428Y-132526571D02*
X101353571Y-132526571D01*
X101165000Y-132526571D02*
X101165000Y-131866571D01*
X101227857Y-131960857D01*
X101290714Y-132023714D01*
X101353571Y-132055142D01*
%TO.C,LED20*%
X103427857Y-118076571D02*
X103742142Y-118076571D01*
X103742142Y-117416571D01*
X103207857Y-117730857D02*
X102987857Y-117730857D01*
X102893571Y-118076571D02*
X103207857Y-118076571D01*
X103207857Y-117416571D01*
X102893571Y-117416571D01*
X102610714Y-118076571D02*
X102610714Y-117416571D01*
X102453571Y-117416571D01*
X102359285Y-117448000D01*
X102296428Y-117510857D01*
X102265000Y-117573714D01*
X102233571Y-117699428D01*
X102233571Y-117793714D01*
X102265000Y-117919428D01*
X102296428Y-117982285D01*
X102359285Y-118045142D01*
X102453571Y-118076571D01*
X102610714Y-118076571D01*
X101982142Y-117479428D02*
X101950714Y-117448000D01*
X101887857Y-117416571D01*
X101730714Y-117416571D01*
X101667857Y-117448000D01*
X101636428Y-117479428D01*
X101605000Y-117542285D01*
X101605000Y-117605142D01*
X101636428Y-117699428D01*
X102013571Y-118076571D01*
X101605000Y-118076571D01*
X101196428Y-117416571D02*
X101133571Y-117416571D01*
X101070714Y-117448000D01*
X101039285Y-117479428D01*
X101007857Y-117542285D01*
X100976428Y-117668000D01*
X100976428Y-117825142D01*
X101007857Y-117950857D01*
X101039285Y-118013714D01*
X101070714Y-118045142D01*
X101133571Y-118076571D01*
X101196428Y-118076571D01*
X101259285Y-118045142D01*
X101290714Y-118013714D01*
X101322142Y-117950857D01*
X101353571Y-117825142D01*
X101353571Y-117668000D01*
X101322142Y-117542285D01*
X101290714Y-117479428D01*
X101259285Y-117448000D01*
X101196428Y-117416571D01*
%TO.C,LED19*%
X122421857Y-118076571D02*
X122736142Y-118076571D01*
X122736142Y-117416571D01*
X122201857Y-117730857D02*
X121981857Y-117730857D01*
X121887571Y-118076571D02*
X122201857Y-118076571D01*
X122201857Y-117416571D01*
X121887571Y-117416571D01*
X121604714Y-118076571D02*
X121604714Y-117416571D01*
X121447571Y-117416571D01*
X121353285Y-117448000D01*
X121290428Y-117510857D01*
X121259000Y-117573714D01*
X121227571Y-117699428D01*
X121227571Y-117793714D01*
X121259000Y-117919428D01*
X121290428Y-117982285D01*
X121353285Y-118045142D01*
X121447571Y-118076571D01*
X121604714Y-118076571D01*
X120599000Y-118076571D02*
X120976142Y-118076571D01*
X120787571Y-118076571D02*
X120787571Y-117416571D01*
X120850428Y-117510857D01*
X120913285Y-117573714D01*
X120976142Y-117605142D01*
X120284714Y-118076571D02*
X120159000Y-118076571D01*
X120096142Y-118045142D01*
X120064714Y-118013714D01*
X120001857Y-117919428D01*
X119970428Y-117793714D01*
X119970428Y-117542285D01*
X120001857Y-117479428D01*
X120033285Y-117448000D01*
X120096142Y-117416571D01*
X120221857Y-117416571D01*
X120284714Y-117448000D01*
X120316142Y-117479428D01*
X120347571Y-117542285D01*
X120347571Y-117699428D01*
X120316142Y-117762285D01*
X120284714Y-117793714D01*
X120221857Y-117825142D01*
X120096142Y-117825142D01*
X120033285Y-117793714D01*
X120001857Y-117762285D01*
X119970428Y-117699428D01*
%TO.C,LED18*%
X141527857Y-118076571D02*
X141842142Y-118076571D01*
X141842142Y-117416571D01*
X141307857Y-117730857D02*
X141087857Y-117730857D01*
X140993571Y-118076571D02*
X141307857Y-118076571D01*
X141307857Y-117416571D01*
X140993571Y-117416571D01*
X140710714Y-118076571D02*
X140710714Y-117416571D01*
X140553571Y-117416571D01*
X140459285Y-117448000D01*
X140396428Y-117510857D01*
X140365000Y-117573714D01*
X140333571Y-117699428D01*
X140333571Y-117793714D01*
X140365000Y-117919428D01*
X140396428Y-117982285D01*
X140459285Y-118045142D01*
X140553571Y-118076571D01*
X140710714Y-118076571D01*
X139705000Y-118076571D02*
X140082142Y-118076571D01*
X139893571Y-118076571D02*
X139893571Y-117416571D01*
X139956428Y-117510857D01*
X140019285Y-117573714D01*
X140082142Y-117605142D01*
X139327857Y-117699428D02*
X139390714Y-117668000D01*
X139422142Y-117636571D01*
X139453571Y-117573714D01*
X139453571Y-117542285D01*
X139422142Y-117479428D01*
X139390714Y-117448000D01*
X139327857Y-117416571D01*
X139202142Y-117416571D01*
X139139285Y-117448000D01*
X139107857Y-117479428D01*
X139076428Y-117542285D01*
X139076428Y-117573714D01*
X139107857Y-117636571D01*
X139139285Y-117668000D01*
X139202142Y-117699428D01*
X139327857Y-117699428D01*
X139390714Y-117730857D01*
X139422142Y-117762285D01*
X139453571Y-117825142D01*
X139453571Y-117950857D01*
X139422142Y-118013714D01*
X139390714Y-118045142D01*
X139327857Y-118076571D01*
X139202142Y-118076571D01*
X139139285Y-118045142D01*
X139107857Y-118013714D01*
X139076428Y-117950857D01*
X139076428Y-117825142D01*
X139107857Y-117762285D01*
X139139285Y-117730857D01*
X139202142Y-117699428D01*
%TO.C,LED17*%
X160577857Y-118076571D02*
X160892142Y-118076571D01*
X160892142Y-117416571D01*
X160357857Y-117730857D02*
X160137857Y-117730857D01*
X160043571Y-118076571D02*
X160357857Y-118076571D01*
X160357857Y-117416571D01*
X160043571Y-117416571D01*
X159760714Y-118076571D02*
X159760714Y-117416571D01*
X159603571Y-117416571D01*
X159509285Y-117448000D01*
X159446428Y-117510857D01*
X159415000Y-117573714D01*
X159383571Y-117699428D01*
X159383571Y-117793714D01*
X159415000Y-117919428D01*
X159446428Y-117982285D01*
X159509285Y-118045142D01*
X159603571Y-118076571D01*
X159760714Y-118076571D01*
X158755000Y-118076571D02*
X159132142Y-118076571D01*
X158943571Y-118076571D02*
X158943571Y-117416571D01*
X159006428Y-117510857D01*
X159069285Y-117573714D01*
X159132142Y-117605142D01*
X158535000Y-117416571D02*
X158095000Y-117416571D01*
X158377857Y-118076571D01*
%TO.C,LED16*%
X179627857Y-118076571D02*
X179942142Y-118076571D01*
X179942142Y-117416571D01*
X179407857Y-117730857D02*
X179187857Y-117730857D01*
X179093571Y-118076571D02*
X179407857Y-118076571D01*
X179407857Y-117416571D01*
X179093571Y-117416571D01*
X178810714Y-118076571D02*
X178810714Y-117416571D01*
X178653571Y-117416571D01*
X178559285Y-117448000D01*
X178496428Y-117510857D01*
X178465000Y-117573714D01*
X178433571Y-117699428D01*
X178433571Y-117793714D01*
X178465000Y-117919428D01*
X178496428Y-117982285D01*
X178559285Y-118045142D01*
X178653571Y-118076571D01*
X178810714Y-118076571D01*
X177805000Y-118076571D02*
X178182142Y-118076571D01*
X177993571Y-118076571D02*
X177993571Y-117416571D01*
X178056428Y-117510857D01*
X178119285Y-117573714D01*
X178182142Y-117605142D01*
X177239285Y-117416571D02*
X177365000Y-117416571D01*
X177427857Y-117448000D01*
X177459285Y-117479428D01*
X177522142Y-117573714D01*
X177553571Y-117699428D01*
X177553571Y-117950857D01*
X177522142Y-118013714D01*
X177490714Y-118045142D01*
X177427857Y-118076571D01*
X177302142Y-118076571D01*
X177239285Y-118045142D01*
X177207857Y-118013714D01*
X177176428Y-117950857D01*
X177176428Y-117793714D01*
X177207857Y-117730857D01*
X177239285Y-117699428D01*
X177302142Y-117668000D01*
X177427857Y-117668000D01*
X177490714Y-117699428D01*
X177522142Y-117730857D01*
X177553571Y-117793714D01*
%TO.C,LED15*%
X198677857Y-118076571D02*
X198992142Y-118076571D01*
X198992142Y-117416571D01*
X198457857Y-117730857D02*
X198237857Y-117730857D01*
X198143571Y-118076571D02*
X198457857Y-118076571D01*
X198457857Y-117416571D01*
X198143571Y-117416571D01*
X197860714Y-118076571D02*
X197860714Y-117416571D01*
X197703571Y-117416571D01*
X197609285Y-117448000D01*
X197546428Y-117510857D01*
X197515000Y-117573714D01*
X197483571Y-117699428D01*
X197483571Y-117793714D01*
X197515000Y-117919428D01*
X197546428Y-117982285D01*
X197609285Y-118045142D01*
X197703571Y-118076571D01*
X197860714Y-118076571D01*
X196855000Y-118076571D02*
X197232142Y-118076571D01*
X197043571Y-118076571D02*
X197043571Y-117416571D01*
X197106428Y-117510857D01*
X197169285Y-117573714D01*
X197232142Y-117605142D01*
X196257857Y-117416571D02*
X196572142Y-117416571D01*
X196603571Y-117730857D01*
X196572142Y-117699428D01*
X196509285Y-117668000D01*
X196352142Y-117668000D01*
X196289285Y-117699428D01*
X196257857Y-117730857D01*
X196226428Y-117793714D01*
X196226428Y-117950857D01*
X196257857Y-118013714D01*
X196289285Y-118045142D01*
X196352142Y-118076571D01*
X196509285Y-118076571D01*
X196572142Y-118045142D01*
X196603571Y-118013714D01*
%TO.C,LED14*%
X198677857Y-94426671D02*
X198992142Y-94426671D01*
X198992142Y-93766671D01*
X198457857Y-94080957D02*
X198237857Y-94080957D01*
X198143571Y-94426671D02*
X198457857Y-94426671D01*
X198457857Y-93766671D01*
X198143571Y-93766671D01*
X197860714Y-94426671D02*
X197860714Y-93766671D01*
X197703571Y-93766671D01*
X197609285Y-93798100D01*
X197546428Y-93860957D01*
X197515000Y-93923814D01*
X197483571Y-94049528D01*
X197483571Y-94143814D01*
X197515000Y-94269528D01*
X197546428Y-94332385D01*
X197609285Y-94395242D01*
X197703571Y-94426671D01*
X197860714Y-94426671D01*
X196855000Y-94426671D02*
X197232142Y-94426671D01*
X197043571Y-94426671D02*
X197043571Y-93766671D01*
X197106428Y-93860957D01*
X197169285Y-93923814D01*
X197232142Y-93955242D01*
X196289285Y-93986671D02*
X196289285Y-94426671D01*
X196446428Y-93735242D02*
X196603571Y-94206671D01*
X196195000Y-94206671D01*
%TO.C,LED13*%
X179627857Y-94426671D02*
X179942142Y-94426671D01*
X179942142Y-93766671D01*
X179407857Y-94080957D02*
X179187857Y-94080957D01*
X179093571Y-94426671D02*
X179407857Y-94426671D01*
X179407857Y-93766671D01*
X179093571Y-93766671D01*
X178810714Y-94426671D02*
X178810714Y-93766671D01*
X178653571Y-93766671D01*
X178559285Y-93798100D01*
X178496428Y-93860957D01*
X178465000Y-93923814D01*
X178433571Y-94049528D01*
X178433571Y-94143814D01*
X178465000Y-94269528D01*
X178496428Y-94332385D01*
X178559285Y-94395242D01*
X178653571Y-94426671D01*
X178810714Y-94426671D01*
X177805000Y-94426671D02*
X178182142Y-94426671D01*
X177993571Y-94426671D02*
X177993571Y-93766671D01*
X178056428Y-93860957D01*
X178119285Y-93923814D01*
X178182142Y-93955242D01*
X177585000Y-93766671D02*
X177176428Y-93766671D01*
X177396428Y-94018100D01*
X177302142Y-94018100D01*
X177239285Y-94049528D01*
X177207857Y-94080957D01*
X177176428Y-94143814D01*
X177176428Y-94300957D01*
X177207857Y-94363814D01*
X177239285Y-94395242D01*
X177302142Y-94426671D01*
X177490714Y-94426671D01*
X177553571Y-94395242D01*
X177585000Y-94363814D01*
%TO.C,LED12*%
X160577857Y-94426671D02*
X160892142Y-94426671D01*
X160892142Y-93766671D01*
X160357857Y-94080957D02*
X160137857Y-94080957D01*
X160043571Y-94426671D02*
X160357857Y-94426671D01*
X160357857Y-93766671D01*
X160043571Y-93766671D01*
X159760714Y-94426671D02*
X159760714Y-93766671D01*
X159603571Y-93766671D01*
X159509285Y-93798100D01*
X159446428Y-93860957D01*
X159415000Y-93923814D01*
X159383571Y-94049528D01*
X159383571Y-94143814D01*
X159415000Y-94269528D01*
X159446428Y-94332385D01*
X159509285Y-94395242D01*
X159603571Y-94426671D01*
X159760714Y-94426671D01*
X158755000Y-94426671D02*
X159132142Y-94426671D01*
X158943571Y-94426671D02*
X158943571Y-93766671D01*
X159006428Y-93860957D01*
X159069285Y-93923814D01*
X159132142Y-93955242D01*
X158503571Y-93829528D02*
X158472142Y-93798100D01*
X158409285Y-93766671D01*
X158252142Y-93766671D01*
X158189285Y-93798100D01*
X158157857Y-93829528D01*
X158126428Y-93892385D01*
X158126428Y-93955242D01*
X158157857Y-94049528D01*
X158535000Y-94426671D01*
X158126428Y-94426671D01*
%TO.C,LED11*%
X141527857Y-94426671D02*
X141842142Y-94426671D01*
X141842142Y-93766671D01*
X141307857Y-94080957D02*
X141087857Y-94080957D01*
X140993571Y-94426671D02*
X141307857Y-94426671D01*
X141307857Y-93766671D01*
X140993571Y-93766671D01*
X140710714Y-94426671D02*
X140710714Y-93766671D01*
X140553571Y-93766671D01*
X140459285Y-93798100D01*
X140396428Y-93860957D01*
X140365000Y-93923814D01*
X140333571Y-94049528D01*
X140333571Y-94143814D01*
X140365000Y-94269528D01*
X140396428Y-94332385D01*
X140459285Y-94395242D01*
X140553571Y-94426671D01*
X140710714Y-94426671D01*
X139705000Y-94426671D02*
X140082142Y-94426671D01*
X139893571Y-94426671D02*
X139893571Y-93766671D01*
X139956428Y-93860957D01*
X140019285Y-93923814D01*
X140082142Y-93955242D01*
X139076428Y-94426671D02*
X139453571Y-94426671D01*
X139265000Y-94426671D02*
X139265000Y-93766671D01*
X139327857Y-93860957D01*
X139390714Y-93923814D01*
X139453571Y-93955242D01*
%TO.C,LED10*%
X122477857Y-94426671D02*
X122792142Y-94426671D01*
X122792142Y-93766671D01*
X122257857Y-94080957D02*
X122037857Y-94080957D01*
X121943571Y-94426671D02*
X122257857Y-94426671D01*
X122257857Y-93766671D01*
X121943571Y-93766671D01*
X121660714Y-94426671D02*
X121660714Y-93766671D01*
X121503571Y-93766671D01*
X121409285Y-93798100D01*
X121346428Y-93860957D01*
X121315000Y-93923814D01*
X121283571Y-94049528D01*
X121283571Y-94143814D01*
X121315000Y-94269528D01*
X121346428Y-94332385D01*
X121409285Y-94395242D01*
X121503571Y-94426671D01*
X121660714Y-94426671D01*
X120655000Y-94426671D02*
X121032142Y-94426671D01*
X120843571Y-94426671D02*
X120843571Y-93766671D01*
X120906428Y-93860957D01*
X120969285Y-93923814D01*
X121032142Y-93955242D01*
X120246428Y-93766671D02*
X120183571Y-93766671D01*
X120120714Y-93798100D01*
X120089285Y-93829528D01*
X120057857Y-93892385D01*
X120026428Y-94018100D01*
X120026428Y-94175242D01*
X120057857Y-94300957D01*
X120089285Y-94363814D01*
X120120714Y-94395242D01*
X120183571Y-94426671D01*
X120246428Y-94426671D01*
X120309285Y-94395242D01*
X120340714Y-94363814D01*
X120372142Y-94300957D01*
X120403571Y-94175242D01*
X120403571Y-94018100D01*
X120372142Y-93892385D01*
X120340714Y-93829528D01*
X120309285Y-93798100D01*
X120246428Y-93766671D01*
%TO.C,LED8*%
X141213571Y-79976571D02*
X141527857Y-79976571D01*
X141527857Y-79316571D01*
X140993571Y-79630857D02*
X140773571Y-79630857D01*
X140679285Y-79976571D02*
X140993571Y-79976571D01*
X140993571Y-79316571D01*
X140679285Y-79316571D01*
X140396428Y-79976571D02*
X140396428Y-79316571D01*
X140239285Y-79316571D01*
X140145000Y-79348000D01*
X140082142Y-79410857D01*
X140050714Y-79473714D01*
X140019285Y-79599428D01*
X140019285Y-79693714D01*
X140050714Y-79819428D01*
X140082142Y-79882285D01*
X140145000Y-79945142D01*
X140239285Y-79976571D01*
X140396428Y-79976571D01*
X139642142Y-79599428D02*
X139705000Y-79568000D01*
X139736428Y-79536571D01*
X139767857Y-79473714D01*
X139767857Y-79442285D01*
X139736428Y-79379428D01*
X139705000Y-79348000D01*
X139642142Y-79316571D01*
X139516428Y-79316571D01*
X139453571Y-79348000D01*
X139422142Y-79379428D01*
X139390714Y-79442285D01*
X139390714Y-79473714D01*
X139422142Y-79536571D01*
X139453571Y-79568000D01*
X139516428Y-79599428D01*
X139642142Y-79599428D01*
X139705000Y-79630857D01*
X139736428Y-79662285D01*
X139767857Y-79725142D01*
X139767857Y-79850857D01*
X139736428Y-79913714D01*
X139705000Y-79945142D01*
X139642142Y-79976571D01*
X139516428Y-79976571D01*
X139453571Y-79945142D01*
X139422142Y-79913714D01*
X139390714Y-79850857D01*
X139390714Y-79725142D01*
X139422142Y-79662285D01*
X139453571Y-79630857D01*
X139516428Y-79599428D01*
%TO.C,LED7*%
X160263571Y-79976571D02*
X160577857Y-79976571D01*
X160577857Y-79316571D01*
X160043571Y-79630857D02*
X159823571Y-79630857D01*
X159729285Y-79976571D02*
X160043571Y-79976571D01*
X160043571Y-79316571D01*
X159729285Y-79316571D01*
X159446428Y-79976571D02*
X159446428Y-79316571D01*
X159289285Y-79316571D01*
X159195000Y-79348000D01*
X159132142Y-79410857D01*
X159100714Y-79473714D01*
X159069285Y-79599428D01*
X159069285Y-79693714D01*
X159100714Y-79819428D01*
X159132142Y-79882285D01*
X159195000Y-79945142D01*
X159289285Y-79976571D01*
X159446428Y-79976571D01*
X158849285Y-79316571D02*
X158409285Y-79316571D01*
X158692142Y-79976571D01*
%TO.C,LED6*%
X179313571Y-79976571D02*
X179627857Y-79976571D01*
X179627857Y-79316571D01*
X179093571Y-79630857D02*
X178873571Y-79630857D01*
X178779285Y-79976571D02*
X179093571Y-79976571D01*
X179093571Y-79316571D01*
X178779285Y-79316571D01*
X178496428Y-79976571D02*
X178496428Y-79316571D01*
X178339285Y-79316571D01*
X178245000Y-79348000D01*
X178182142Y-79410857D01*
X178150714Y-79473714D01*
X178119285Y-79599428D01*
X178119285Y-79693714D01*
X178150714Y-79819428D01*
X178182142Y-79882285D01*
X178245000Y-79945142D01*
X178339285Y-79976571D01*
X178496428Y-79976571D01*
X177553571Y-79316571D02*
X177679285Y-79316571D01*
X177742142Y-79348000D01*
X177773571Y-79379428D01*
X177836428Y-79473714D01*
X177867857Y-79599428D01*
X177867857Y-79850857D01*
X177836428Y-79913714D01*
X177805000Y-79945142D01*
X177742142Y-79976571D01*
X177616428Y-79976571D01*
X177553571Y-79945142D01*
X177522142Y-79913714D01*
X177490714Y-79850857D01*
X177490714Y-79693714D01*
X177522142Y-79630857D01*
X177553571Y-79599428D01*
X177616428Y-79568000D01*
X177742142Y-79568000D01*
X177805000Y-79599428D01*
X177836428Y-79630857D01*
X177867857Y-79693714D01*
%TO.C,LED5*%
X198363571Y-79976571D02*
X198677857Y-79976571D01*
X198677857Y-79316571D01*
X198143571Y-79630857D02*
X197923571Y-79630857D01*
X197829285Y-79976571D02*
X198143571Y-79976571D01*
X198143571Y-79316571D01*
X197829285Y-79316571D01*
X197546428Y-79976571D02*
X197546428Y-79316571D01*
X197389285Y-79316571D01*
X197295000Y-79348000D01*
X197232142Y-79410857D01*
X197200714Y-79473714D01*
X197169285Y-79599428D01*
X197169285Y-79693714D01*
X197200714Y-79819428D01*
X197232142Y-79882285D01*
X197295000Y-79945142D01*
X197389285Y-79976571D01*
X197546428Y-79976571D01*
X196572142Y-79316571D02*
X196886428Y-79316571D01*
X196917857Y-79630857D01*
X196886428Y-79599428D01*
X196823571Y-79568000D01*
X196666428Y-79568000D01*
X196603571Y-79599428D01*
X196572142Y-79630857D01*
X196540714Y-79693714D01*
X196540714Y-79850857D01*
X196572142Y-79913714D01*
X196603571Y-79945142D01*
X196666428Y-79976571D01*
X196823571Y-79976571D01*
X196886428Y-79945142D01*
X196917857Y-79913714D01*
%TO.C,LED4*%
X188838571Y-56326471D02*
X189152857Y-56326471D01*
X189152857Y-55666471D01*
X188618571Y-55980757D02*
X188398571Y-55980757D01*
X188304285Y-56326471D02*
X188618571Y-56326471D01*
X188618571Y-55666471D01*
X188304285Y-55666471D01*
X188021428Y-56326471D02*
X188021428Y-55666471D01*
X187864285Y-55666471D01*
X187770000Y-55697900D01*
X187707142Y-55760757D01*
X187675714Y-55823614D01*
X187644285Y-55949328D01*
X187644285Y-56043614D01*
X187675714Y-56169328D01*
X187707142Y-56232185D01*
X187770000Y-56295042D01*
X187864285Y-56326471D01*
X188021428Y-56326471D01*
X187078571Y-55886471D02*
X187078571Y-56326471D01*
X187235714Y-55635042D02*
X187392857Y-56106471D01*
X186984285Y-56106471D01*
%TO.C,LED3*%
X169788571Y-56326471D02*
X170102857Y-56326471D01*
X170102857Y-55666471D01*
X169568571Y-55980757D02*
X169348571Y-55980757D01*
X169254285Y-56326471D02*
X169568571Y-56326471D01*
X169568571Y-55666471D01*
X169254285Y-55666471D01*
X168971428Y-56326471D02*
X168971428Y-55666471D01*
X168814285Y-55666471D01*
X168720000Y-55697900D01*
X168657142Y-55760757D01*
X168625714Y-55823614D01*
X168594285Y-55949328D01*
X168594285Y-56043614D01*
X168625714Y-56169328D01*
X168657142Y-56232185D01*
X168720000Y-56295042D01*
X168814285Y-56326471D01*
X168971428Y-56326471D01*
X168374285Y-55666471D02*
X167965714Y-55666471D01*
X168185714Y-55917900D01*
X168091428Y-55917900D01*
X168028571Y-55949328D01*
X167997142Y-55980757D01*
X167965714Y-56043614D01*
X167965714Y-56200757D01*
X167997142Y-56263614D01*
X168028571Y-56295042D01*
X168091428Y-56326471D01*
X168280000Y-56326471D01*
X168342857Y-56295042D01*
X168374285Y-56263614D01*
%TO.C,LED2*%
X150738571Y-56326471D02*
X151052857Y-56326471D01*
X151052857Y-55666471D01*
X150518571Y-55980757D02*
X150298571Y-55980757D01*
X150204285Y-56326471D02*
X150518571Y-56326471D01*
X150518571Y-55666471D01*
X150204285Y-55666471D01*
X149921428Y-56326471D02*
X149921428Y-55666471D01*
X149764285Y-55666471D01*
X149670000Y-55697900D01*
X149607142Y-55760757D01*
X149575714Y-55823614D01*
X149544285Y-55949328D01*
X149544285Y-56043614D01*
X149575714Y-56169328D01*
X149607142Y-56232185D01*
X149670000Y-56295042D01*
X149764285Y-56326471D01*
X149921428Y-56326471D01*
X149292857Y-55729328D02*
X149261428Y-55697900D01*
X149198571Y-55666471D01*
X149041428Y-55666471D01*
X148978571Y-55697900D01*
X148947142Y-55729328D01*
X148915714Y-55792185D01*
X148915714Y-55855042D01*
X148947142Y-55949328D01*
X149324285Y-56326471D01*
X148915714Y-56326471D01*
%TO.C,LED1*%
X131688571Y-56326471D02*
X132002857Y-56326471D01*
X132002857Y-55666471D01*
X131468571Y-55980757D02*
X131248571Y-55980757D01*
X131154285Y-56326471D02*
X131468571Y-56326471D01*
X131468571Y-55666471D01*
X131154285Y-55666471D01*
X130871428Y-56326471D02*
X130871428Y-55666471D01*
X130714285Y-55666471D01*
X130620000Y-55697900D01*
X130557142Y-55760757D01*
X130525714Y-55823614D01*
X130494285Y-55949328D01*
X130494285Y-56043614D01*
X130525714Y-56169328D01*
X130557142Y-56232185D01*
X130620000Y-56295042D01*
X130714285Y-56326471D01*
X130871428Y-56326471D01*
X129865714Y-56326471D02*
X130242857Y-56326471D01*
X130054285Y-56326471D02*
X130054285Y-55666471D01*
X130117142Y-55760757D01*
X130180000Y-55823614D01*
X130242857Y-55855042D01*
%TD*%
M02*
