M48
; DRILL file {KiCad (5.1.9)-1} date 05/29/21 17:03:07
; FORMAT={-:-/ absolute / metric / decimal}
; #@! TF.CreationDate,2021-05-29T17:03:07+09:00
; #@! TF.GenerationSoftware,Kicad,Pcbnew,(5.1.9)-1
FMAT,2
METRIC
T1C0.400
T2C0.813
T3C1.000
T4C1.300
T5C2.200
T6C1.500
T7C1.900
T8C3.000
T9C4.100
%
G90
G05
T1
X95.29Y-87.935
X95.29Y-106.985
X95.29Y-126.035
X104.527Y-95.267
X105.702Y-109.278
X106.058Y-152.705
X108.217Y-85.395
X108.217Y-104.445
X108.217Y-123.495
X112.048Y-92.986
X112.657Y-119.097
X114.34Y-87.935
X114.34Y-106.985
X114.34Y-126.035
X118.985Y-150.165
X123.865Y-49.835
X125.108Y-152.705
X127.267Y-85.395
X127.267Y-104.445
X127.267Y-123.495
X133.39Y-68.885
X133.39Y-87.935
X133.39Y-106.985
X133.39Y-126.035
X136.792Y-47.295
X138.035Y-150.165
X142.915Y-49.835
X144.158Y-152.705
X146.317Y-66.345
X146.317Y-85.395
X146.317Y-104.445
X146.317Y-123.495
X152.44Y-68.885
X152.44Y-87.935
X152.44Y-106.985
X152.44Y-126.035
X155.842Y-47.295
X157.085Y-150.165
X161.965Y-49.835
X163.208Y-152.705
X165.367Y-66.345
X165.367Y-85.395
X165.367Y-104.445
X165.367Y-123.495
X171.49Y-68.885
X171.49Y-87.935
X171.49Y-106.985
X171.49Y-126.035
X174.892Y-47.295
X176.135Y-150.165
X181.015Y-49.835
X182.258Y-152.705
X184.417Y-66.345
X184.417Y-85.395
X184.417Y-104.445
X184.417Y-123.495
X190.54Y-68.885
X190.54Y-87.935
X190.54Y-106.985
X190.54Y-126.035
X193.942Y-47.295
X195.185Y-150.165
X203.467Y-66.345
X203.467Y-85.395
X203.467Y-104.445
X203.467Y-123.495
T2
X95.522Y-63.813
X95.522Y-79.033
X98.062Y-63.813
X98.062Y-79.033
X100.602Y-63.813
X100.602Y-79.033
X103.142Y-63.813
X103.142Y-79.033
X105.682Y-63.813
X105.682Y-79.033
X108.222Y-63.813
X108.222Y-79.033
X110.762Y-63.813
X110.762Y-79.033
X113.302Y-63.813
X113.302Y-79.033
X115.842Y-63.813
X115.842Y-79.033
X118.382Y-63.813
X118.382Y-79.033
X120.922Y-63.813
X120.922Y-79.033
X123.462Y-63.813
X123.462Y-79.033
T3
X104.756Y-46.422
X104.756Y-48.962
X104.756Y-51.502
X112.376Y-46.422
X112.376Y-48.962
X112.376Y-51.502
T4
X94.04Y-53.887
X94.04Y-60.387
T5
X100.0Y-59.0
X100.0Y-141.0
X150.0Y-100.0
X200.0Y-59.0
X200.0Y-141.0
T7
X97.295Y-90.475
X97.295Y-109.525
X97.295Y-128.575
X106.82Y-147.625
X107.455Y-90.475
X107.455Y-109.525
X107.455Y-128.575
X116.345Y-90.475
X116.345Y-109.525
X116.345Y-128.575
X116.98Y-147.625
X125.87Y-52.375
X125.87Y-147.625
X126.505Y-90.475
X126.505Y-109.525
X126.505Y-128.575
X135.395Y-71.425
X135.395Y-90.475
X135.395Y-109.525
X135.395Y-128.575
X136.03Y-52.375
X136.03Y-147.625
X144.92Y-52.375
X144.92Y-147.625
X145.555Y-71.425
X145.555Y-90.475
X145.555Y-109.525
X145.555Y-128.575
X154.445Y-71.425
X154.445Y-90.475
X154.445Y-109.525
X154.445Y-128.575
X155.08Y-52.375
X155.08Y-147.625
X163.97Y-52.375
X163.97Y-147.625
X164.605Y-71.425
X164.605Y-90.475
X164.605Y-109.525
X164.605Y-128.575
X173.495Y-71.425
X173.495Y-90.475
X173.495Y-109.525
X173.495Y-128.575
X174.13Y-52.375
X174.13Y-147.625
X183.02Y-52.375
X183.02Y-147.625
X183.655Y-71.425
X183.655Y-90.475
X183.655Y-109.525
X183.655Y-128.575
X192.545Y-71.425
X192.545Y-90.475
X192.545Y-109.525
X192.545Y-128.575
X193.18Y-52.375
X193.18Y-147.625
X202.705Y-71.425
X202.705Y-90.475
X202.705Y-109.525
X202.705Y-128.575
T8
X98.565Y-87.935
X98.565Y-106.985
X98.565Y-126.035
X104.915Y-85.395
X104.915Y-104.445
X104.915Y-123.495
X109.36Y-152.705
X115.71Y-150.165
X117.615Y-87.935
X117.615Y-106.985
X117.615Y-126.035
X123.965Y-85.395
X123.965Y-104.445
X123.965Y-123.495
X127.14Y-49.835
X128.41Y-152.705
X133.49Y-47.295
X134.76Y-150.165
X136.665Y-68.885
X136.665Y-87.935
X136.665Y-106.985
X136.665Y-126.035
X143.015Y-66.345
X143.015Y-85.395
X143.015Y-104.445
X143.015Y-123.495
X146.19Y-49.835
X147.46Y-152.705
X152.54Y-47.295
X153.81Y-150.165
X155.715Y-68.885
X155.715Y-87.935
X155.715Y-106.985
X155.715Y-126.035
X162.065Y-66.345
X162.065Y-85.395
X162.065Y-104.445
X162.065Y-123.495
X165.24Y-49.835
X166.51Y-152.705
X171.59Y-47.295
X172.86Y-150.165
X174.765Y-68.885
X174.765Y-87.935
X174.765Y-106.985
X174.765Y-126.035
X181.115Y-66.345
X181.115Y-85.395
X181.115Y-104.445
X181.115Y-123.495
X184.29Y-49.835
X185.56Y-152.705
X190.64Y-47.295
X191.91Y-150.165
X193.815Y-68.885
X193.815Y-87.935
X193.815Y-106.985
X193.815Y-126.035
X200.165Y-66.345
X200.165Y-85.395
X200.165Y-104.445
X200.165Y-123.495
T9
X102.375Y-90.475
X102.375Y-109.525
X102.375Y-128.575
X111.9Y-147.625
X121.425Y-90.475
X121.425Y-109.525
X121.425Y-128.575
X130.95Y-52.375
X130.95Y-147.625
X140.475Y-71.425
X140.475Y-90.475
X140.475Y-109.525
X140.475Y-128.575
X150.0Y-52.375
X150.0Y-147.625
X159.525Y-71.425
X159.525Y-90.475
X159.525Y-109.525
X159.525Y-128.575
X169.05Y-52.375
X169.05Y-147.625
X178.575Y-71.425
X178.575Y-90.475
X178.575Y-109.525
X178.575Y-128.575
X188.1Y-52.375
X188.1Y-147.625
X197.625Y-71.425
X197.625Y-90.475
X197.625Y-109.525
X197.625Y-128.575
T6
G00X102.375Y-97.253
M15
G01X102.375Y-95.603
M16
G05
G00X102.375Y-114.653
M15
G01X102.375Y-116.303
M16
G05
G00X102.375Y-135.353
M15
G01X102.375Y-133.703
M16
G05
G00X111.9Y-140.847
M15
G01X111.9Y-142.497
M16
G05
G00X121.369Y-114.653
M15
G01X121.369Y-116.303
M16
G05
G00X121.425Y-97.253
M15
G01X121.425Y-95.603
M16
G05
G00X121.425Y-135.353
M15
G01X121.425Y-133.703
M16
G05
G00X130.95Y-59.153
M15
G01X130.95Y-57.503
M16
G05
G00X130.95Y-140.847
M15
G01X130.95Y-142.497
M16
G05
G00X140.475Y-76.553
M15
G01X140.475Y-78.203
M16
G05
G00X140.475Y-97.253
M15
G01X140.475Y-95.603
M16
G05
G00X140.475Y-114.653
M15
G01X140.475Y-116.303
M16
G05
G00X140.475Y-135.353
M15
G01X140.475Y-133.703
M16
G05
G00X150.0Y-59.153
M15
G01X150.0Y-57.503
M16
G05
G00X150.0Y-140.847
M15
G01X150.0Y-142.497
M16
G05
G00X159.525Y-76.553
M15
G01X159.525Y-78.203
M16
G05
G00X159.525Y-97.253
M15
G01X159.525Y-95.603
M16
G05
G00X159.525Y-114.653
M15
G01X159.525Y-116.303
M16
G05
G00X159.525Y-135.353
M15
G01X159.525Y-133.703
M16
G05
G00X169.05Y-59.153
M15
G01X169.05Y-57.503
M16
G05
G00X169.05Y-140.847
M15
G01X169.05Y-142.497
M16
G05
G00X178.575Y-76.553
M15
G01X178.575Y-78.203
M16
G05
G00X178.575Y-97.253
M15
G01X178.575Y-95.603
M16
G05
G00X178.575Y-114.653
M15
G01X178.575Y-116.303
M16
G05
G00X178.575Y-135.353
M15
G01X178.575Y-133.703
M16
G05
G00X188.1Y-59.153
M15
G01X188.1Y-57.503
M16
G05
G00X188.1Y-140.847
M15
G01X188.1Y-142.497
M16
G05
G00X197.625Y-76.553
M15
G01X197.625Y-78.203
M16
G05
G00X197.625Y-97.253
M15
G01X197.625Y-95.603
M16
G05
G00X197.625Y-114.653
M15
G01X197.625Y-116.303
M16
G05
G00X197.625Y-135.353
M15
G01X197.625Y-133.703
M16
G05
T0
M30
