%TF.GenerationSoftware,KiCad,Pcbnew,(5.1.9)-1*%
%TF.CreationDate,2021-05-29T17:03:01+09:00*%
%TF.ProjectId,yuiop31rs-r2,7975696f-7033-4317-9273-2d72322e6b69,1*%
%TF.SameCoordinates,Original*%
%TF.FileFunction,Soldermask,Top*%
%TF.FilePolarity,Negative*%
%FSLAX46Y46*%
G04 Gerber Fmt 4.6, Leading zero omitted, Abs format (unit mm)*
G04 Created by KiCad (PCBNEW (5.1.9)-1) date 2021-05-29 17:03:01*
%MOMM*%
%LPD*%
G01*
G04 APERTURE LIST*
%ADD10O,1.500000X3.150000*%
%ADD11C,1.000000*%
%ADD12C,3.000000*%
%ADD13C,4.100000*%
%ADD14C,1.900000*%
%ADD15C,4.000000*%
%ADD16O,2.100000X1.900000*%
%ADD17R,2.100000X1.900000*%
G04 APERTURE END LIST*
D10*
%TO.C,LED9*%
X102375000Y-96428100D03*
%TD*%
%TO.C,LED31*%
X111900000Y-141672000D03*
%TD*%
%TO.C,LED30*%
X130950000Y-141672000D03*
%TD*%
%TO.C,LED29*%
X150000000Y-141672000D03*
%TD*%
%TO.C,LED28*%
X169050000Y-141672000D03*
%TD*%
%TO.C,LED27*%
X188100000Y-141672000D03*
%TD*%
%TO.C,LED26*%
X197625000Y-134528000D03*
%TD*%
%TO.C,LED25*%
X178575000Y-134528000D03*
%TD*%
%TO.C,LED24*%
X159525000Y-134528000D03*
%TD*%
%TO.C,LED23*%
X140475000Y-134528000D03*
%TD*%
%TO.C,LED22*%
X121425000Y-134528000D03*
%TD*%
%TO.C,LED21*%
X102375000Y-134528000D03*
%TD*%
%TO.C,LED20*%
X102375000Y-115478000D03*
%TD*%
%TO.C,LED19*%
X121369000Y-115478000D03*
%TD*%
%TO.C,LED18*%
X140475000Y-115478000D03*
%TD*%
%TO.C,LED17*%
X159525000Y-115478000D03*
%TD*%
%TO.C,LED16*%
X178575000Y-115478000D03*
%TD*%
%TO.C,LED15*%
X197625000Y-115478000D03*
%TD*%
%TO.C,LED14*%
X197625000Y-96428100D03*
%TD*%
%TO.C,LED13*%
X178575000Y-96428100D03*
%TD*%
%TO.C,LED12*%
X159525000Y-96428100D03*
%TD*%
%TO.C,LED11*%
X140475000Y-96428100D03*
%TD*%
%TO.C,LED10*%
X121425000Y-96428100D03*
%TD*%
%TO.C,LED8*%
X140475000Y-77378000D03*
%TD*%
%TO.C,LED7*%
X159525000Y-77378000D03*
%TD*%
%TO.C,LED6*%
X178575000Y-77378000D03*
%TD*%
%TO.C,LED5*%
X197625000Y-77378000D03*
%TD*%
%TO.C,LED4*%
X188100000Y-58327900D03*
%TD*%
%TO.C,LED3*%
X169050000Y-58327900D03*
%TD*%
%TO.C,LED2*%
X150000000Y-58327900D03*
%TD*%
%TO.C,LED1*%
X130950000Y-58327900D03*
%TD*%
D11*
%TO.C,SW31*%
X182258000Y-152705000D03*
X195185000Y-150165000D03*
D12*
X191910000Y-150165000D03*
X185560000Y-152705000D03*
D13*
X188100000Y-147625000D03*
D14*
X183020000Y-147625000D03*
X193180000Y-147625000D03*
%TD*%
D11*
%TO.C,SW30*%
X163208000Y-152705000D03*
X176135000Y-150165000D03*
D12*
X172860000Y-150165000D03*
X166510000Y-152705000D03*
D13*
X169050000Y-147625000D03*
D14*
X163970000Y-147625000D03*
X174130000Y-147625000D03*
%TD*%
D11*
%TO.C,SW29*%
X144158000Y-152705000D03*
X157085000Y-150165000D03*
D12*
X153810000Y-150165000D03*
X147460000Y-152705000D03*
D13*
X150000000Y-147625000D03*
D14*
X144920000Y-147625000D03*
X155080000Y-147625000D03*
%TD*%
D11*
%TO.C,SW28*%
X125108000Y-152705000D03*
X138035000Y-150165000D03*
D12*
X134760000Y-150165000D03*
X128410000Y-152705000D03*
D13*
X130950000Y-147625000D03*
D14*
X125870000Y-147625000D03*
X136030000Y-147625000D03*
%TD*%
D11*
%TO.C,SW27*%
X106058000Y-152705000D03*
X118985000Y-150165000D03*
D12*
X115710000Y-150165000D03*
X109360000Y-152705000D03*
D13*
X111900000Y-147625000D03*
D14*
X106820000Y-147625000D03*
X116980000Y-147625000D03*
%TD*%
D11*
%TO.C,SW26*%
X203467000Y-123495000D03*
X190540000Y-126035000D03*
D12*
X193815000Y-126035000D03*
X200165000Y-123495000D03*
D13*
X197625000Y-128575000D03*
D14*
X202705000Y-128575000D03*
X192545000Y-128575000D03*
%TD*%
D11*
%TO.C,SW25*%
X184417000Y-123495000D03*
X171490000Y-126035000D03*
D12*
X174765000Y-126035000D03*
X181115000Y-123495000D03*
D13*
X178575000Y-128575000D03*
D14*
X183655000Y-128575000D03*
X173495000Y-128575000D03*
%TD*%
D11*
%TO.C,SW24*%
X165367000Y-123495000D03*
X152440000Y-126035000D03*
D12*
X155715000Y-126035000D03*
X162065000Y-123495000D03*
D13*
X159525000Y-128575000D03*
D14*
X164605000Y-128575000D03*
X154445000Y-128575000D03*
%TD*%
D11*
%TO.C,SW23*%
X146317000Y-123495000D03*
X133390000Y-126035000D03*
D12*
X136665000Y-126035000D03*
X143015000Y-123495000D03*
D13*
X140475000Y-128575000D03*
D14*
X145555000Y-128575000D03*
X135395000Y-128575000D03*
%TD*%
D11*
%TO.C,SW22*%
X127267000Y-123495000D03*
X114340000Y-126035000D03*
D12*
X117615000Y-126035000D03*
X123965000Y-123495000D03*
D13*
X121425000Y-128575000D03*
D14*
X126505000Y-128575000D03*
X116345000Y-128575000D03*
%TD*%
D11*
%TO.C,SW21*%
X108217000Y-123495000D03*
X95290000Y-126035000D03*
D12*
X98565000Y-126035000D03*
X104915000Y-123495000D03*
D13*
X102375000Y-128575000D03*
D14*
X107455000Y-128575000D03*
X97295000Y-128575000D03*
%TD*%
D11*
%TO.C,SW20*%
X203467000Y-104445000D03*
X190540000Y-106985000D03*
D12*
X193815000Y-106985000D03*
X200165000Y-104445000D03*
D13*
X197625000Y-109525000D03*
D14*
X202705000Y-109525000D03*
X192545000Y-109525000D03*
%TD*%
D11*
%TO.C,SW19*%
X184417000Y-104445000D03*
X171490000Y-106985000D03*
D12*
X174765000Y-106985000D03*
X181115000Y-104445000D03*
D13*
X178575000Y-109525000D03*
D14*
X183655000Y-109525000D03*
X173495000Y-109525000D03*
%TD*%
D11*
%TO.C,SW18*%
X165367000Y-104445000D03*
X152440000Y-106985000D03*
D12*
X155715000Y-106985000D03*
X162065000Y-104445000D03*
D13*
X159525000Y-109525000D03*
D14*
X164605000Y-109525000D03*
X154445000Y-109525000D03*
%TD*%
D11*
%TO.C,SW17*%
X146317000Y-104445000D03*
X133390000Y-106985000D03*
D12*
X136665000Y-106985000D03*
X143015000Y-104445000D03*
D13*
X140475000Y-109525000D03*
D14*
X145555000Y-109525000D03*
X135395000Y-109525000D03*
%TD*%
D11*
%TO.C,SW16*%
X127267000Y-104445000D03*
X114340000Y-106985000D03*
D12*
X117615000Y-106985000D03*
X123965000Y-104445000D03*
D13*
X121425000Y-109525000D03*
D14*
X126505000Y-109525000D03*
X116345000Y-109525000D03*
%TD*%
D11*
%TO.C,SW15*%
X108217000Y-104445000D03*
X95290000Y-106985000D03*
D12*
X98565000Y-106985000D03*
X104915000Y-104445000D03*
D13*
X102375000Y-109525000D03*
D14*
X107455000Y-109525000D03*
X97295000Y-109525000D03*
%TD*%
D11*
%TO.C,SW14*%
X203467000Y-85395000D03*
X190540000Y-87935000D03*
D12*
X193815000Y-87935000D03*
X200165000Y-85395000D03*
D13*
X197625000Y-90475000D03*
D14*
X202705000Y-90475000D03*
X192545000Y-90475000D03*
%TD*%
D11*
%TO.C,SW13*%
X184417000Y-85395000D03*
X171490000Y-87935000D03*
D12*
X174765000Y-87935000D03*
X181115000Y-85395000D03*
D13*
X178575000Y-90475000D03*
D14*
X183655000Y-90475000D03*
X173495000Y-90475000D03*
%TD*%
D11*
%TO.C,SW12*%
X165367000Y-85395000D03*
X152440000Y-87935000D03*
D12*
X155715000Y-87935000D03*
X162065000Y-85395000D03*
D13*
X159525000Y-90475000D03*
D14*
X164605000Y-90475000D03*
X154445000Y-90475000D03*
%TD*%
D11*
%TO.C,SW11*%
X146317000Y-85395000D03*
X133390000Y-87935000D03*
D12*
X136665000Y-87935000D03*
X143015000Y-85395000D03*
D13*
X140475000Y-90475000D03*
D14*
X145555000Y-90475000D03*
X135395000Y-90475000D03*
%TD*%
D11*
%TO.C,SW10*%
X127267000Y-85395000D03*
X114340000Y-87935000D03*
D12*
X117615000Y-87935000D03*
X123965000Y-85395000D03*
D13*
X121425000Y-90475000D03*
D14*
X126505000Y-90475000D03*
X116345000Y-90475000D03*
%TD*%
D11*
%TO.C,SW9*%
X108217000Y-85395000D03*
X95290000Y-87935000D03*
D12*
X98565000Y-87935000D03*
X104915000Y-85395000D03*
D13*
X102375000Y-90475000D03*
D14*
X107455000Y-90475000D03*
X97295000Y-90475000D03*
%TD*%
D11*
%TO.C,SW8*%
X203467000Y-66344900D03*
X190540000Y-68884900D03*
D12*
X193815000Y-68884900D03*
X200165000Y-66344900D03*
D13*
X197625000Y-71424900D03*
D14*
X202705000Y-71424900D03*
X192545000Y-71424900D03*
%TD*%
D11*
%TO.C,SW7*%
X184417000Y-66344900D03*
X171490000Y-68884900D03*
D12*
X174765000Y-68884900D03*
X181115000Y-66344900D03*
D13*
X178575000Y-71424900D03*
D14*
X183655000Y-71424900D03*
X173495000Y-71424900D03*
%TD*%
D11*
%TO.C,SW6*%
X165367000Y-66344900D03*
X152440000Y-68884900D03*
D12*
X155715000Y-68884900D03*
X162065000Y-66344900D03*
D13*
X159525000Y-71424900D03*
D14*
X164605000Y-71424900D03*
X154445000Y-71424900D03*
%TD*%
D11*
%TO.C,SW5*%
X146317000Y-66344900D03*
X133390000Y-68884900D03*
D12*
X136665000Y-68884900D03*
X143015000Y-66344900D03*
D13*
X140475000Y-71424900D03*
D14*
X145555000Y-71424900D03*
X135395000Y-71424900D03*
%TD*%
D11*
%TO.C,SW4*%
X193942000Y-47294800D03*
X181015000Y-49834800D03*
D12*
X184290000Y-49834800D03*
X190640000Y-47294800D03*
D13*
X188100000Y-52374800D03*
D14*
X193180000Y-52374800D03*
X183020000Y-52374800D03*
%TD*%
D11*
%TO.C,SW3*%
X174892000Y-47294800D03*
X161965000Y-49834800D03*
D12*
X165240000Y-49834800D03*
X171590000Y-47294800D03*
D13*
X169050000Y-52374800D03*
D14*
X174130000Y-52374800D03*
X163970000Y-52374800D03*
%TD*%
D11*
%TO.C,SW2*%
X155842000Y-47294800D03*
X142915000Y-49834800D03*
D12*
X146190000Y-49834800D03*
X152540000Y-47294800D03*
D13*
X150000000Y-52374800D03*
D14*
X155080000Y-52374800D03*
X144920000Y-52374800D03*
%TD*%
D11*
%TO.C,SW1*%
X136792000Y-47294800D03*
X123865000Y-49834800D03*
D12*
X127140000Y-49834800D03*
X133490000Y-47294800D03*
D13*
X130950000Y-52374800D03*
D14*
X136030000Y-52374800D03*
X125870000Y-52374800D03*
%TD*%
D15*
%TO.C,HOLE5*%
X150000000Y-100000000D03*
%TD*%
%TO.C,HOLE4*%
X200000000Y-141000000D03*
%TD*%
%TO.C,HOLE3*%
X100000000Y-141000000D03*
%TD*%
%TO.C,HOLE2*%
X200000000Y-59000000D03*
%TD*%
%TO.C,HOLE1*%
X100000000Y-59000000D03*
%TD*%
D16*
%TO.C,ROT_SW1*%
X112376000Y-51501700D03*
X104756000Y-51501700D03*
X112376000Y-48961700D03*
X104756000Y-48961700D03*
X112376000Y-46421700D03*
D17*
X104756000Y-46421700D03*
%TD*%
M02*
