%TF.GenerationSoftware,KiCad,Pcbnew,(5.1.9)-1*%
%TF.CreationDate,2021-10-01T21:52:25+09:00*%
%TF.ProjectId,main,6d61696e-2e6b-4696-9361-645f70636258,1*%
%TF.SameCoordinates,Original*%
%TF.FileFunction,Legend,Top*%
%TF.FilePolarity,Positive*%
%FSLAX46Y46*%
G04 Gerber Fmt 4.6, Leading zero omitted, Abs format (unit mm)*
G04 Created by KiCad (PCBNEW (5.1.9)-1) date 2021-10-01 21:52:25*
%MOMM*%
%LPD*%
G01*
G04 APERTURE LIST*
%ADD10C,0.120000*%
%ADD11C,0.150000*%
%ADD12C,0.200000*%
G04 APERTURE END LIST*
D10*
%TO.C,U1*%
X309515000Y-193300000D02*
X309515000Y-175520000D01*
X328565000Y-194570000D02*
X310785000Y-194570000D01*
X329835000Y-175520000D02*
X329835000Y-193300000D01*
X328565000Y-174250000D02*
X310785000Y-174250000D01*
X310785000Y-174250000D02*
G75*
G03*
X309515000Y-175520000I0J-1270000D01*
G01*
X309515000Y-193300000D02*
G75*
G03*
X310785000Y-194570000I1270000J0D01*
G01*
X328565000Y-194570000D02*
G75*
G03*
X329835000Y-193300000I0J1270000D01*
G01*
X329835000Y-175520000D02*
G75*
G03*
X328565000Y-174250000I-1270000J0D01*
G01*
D11*
X318913095Y-183762380D02*
X318913095Y-184571904D01*
X318960714Y-184667142D01*
X319008333Y-184714761D01*
X319103571Y-184762380D01*
X319294047Y-184762380D01*
X319389285Y-184714761D01*
X319436904Y-184667142D01*
X319484523Y-184571904D01*
X319484523Y-183762380D01*
X320484523Y-184762380D02*
X319913095Y-184762380D01*
X320198809Y-184762380D02*
X320198809Y-183762380D01*
X320103571Y-183905238D01*
X320008333Y-184000476D01*
X319913095Y-184048095D01*
D12*
X327223571Y-189051904D02*
X327366428Y-189051904D01*
X327509285Y-189090000D01*
X327580714Y-189128095D01*
X327652142Y-189204285D01*
X327723571Y-189356666D01*
X327723571Y-189547142D01*
X327652142Y-189699523D01*
X327580714Y-189775714D01*
X327509285Y-189813809D01*
X327366428Y-189851904D01*
X327223571Y-189851904D01*
X327080714Y-189813809D01*
X327009285Y-189775714D01*
X326937857Y-189699523D01*
X326866428Y-189547142D01*
X326866428Y-189356666D01*
X326937857Y-189204285D01*
X327009285Y-189128095D01*
X327080714Y-189090000D01*
X327223571Y-189051904D01*
X325040714Y-189318571D02*
X325040714Y-189851904D01*
X324683571Y-189013809D02*
X324326428Y-189585238D01*
X325255000Y-189585238D01*
X322143571Y-189051904D02*
X322286428Y-189051904D01*
X322429285Y-189090000D01*
X322500714Y-189128095D01*
X322572142Y-189204285D01*
X322643571Y-189356666D01*
X322643571Y-189547142D01*
X322572142Y-189699523D01*
X322500714Y-189775714D01*
X322429285Y-189813809D01*
X322286428Y-189851904D01*
X322143571Y-189851904D01*
X322000714Y-189813809D01*
X321929285Y-189775714D01*
X321857857Y-189699523D01*
X321786428Y-189547142D01*
X321786428Y-189356666D01*
X321857857Y-189204285D01*
X321929285Y-189128095D01*
X322000714Y-189090000D01*
X322143571Y-189051904D01*
X319246428Y-189128095D02*
X319317857Y-189090000D01*
X319460714Y-189051904D01*
X319817857Y-189051904D01*
X319960714Y-189090000D01*
X320032142Y-189128095D01*
X320103571Y-189204285D01*
X320103571Y-189280476D01*
X320032142Y-189394761D01*
X319175000Y-189851904D01*
X320103571Y-189851904D01*
X316777857Y-189623333D02*
X317492142Y-189623333D01*
X316635000Y-189851904D02*
X317135000Y-189051904D01*
X317635000Y-189851904D01*
X314987857Y-189090000D02*
X314845000Y-189051904D01*
X314630714Y-189051904D01*
X314416428Y-189090000D01*
X314273571Y-189166190D01*
X314202142Y-189242380D01*
X314130714Y-189394761D01*
X314130714Y-189509047D01*
X314202142Y-189661428D01*
X314273571Y-189737619D01*
X314416428Y-189813809D01*
X314630714Y-189851904D01*
X314773571Y-189851904D01*
X314987857Y-189813809D01*
X315059285Y-189775714D01*
X315059285Y-189509047D01*
X314773571Y-189509047D01*
X311662142Y-189851904D02*
X311662142Y-189051904D01*
X312233571Y-189051904D01*
X312376428Y-189090000D01*
X312447857Y-189128095D01*
X312519285Y-189204285D01*
X312519285Y-189318571D01*
X312447857Y-189394761D01*
X312376428Y-189432857D01*
X312233571Y-189470952D01*
X311662142Y-189470952D01*
X324755000Y-179691904D02*
X324755000Y-178891904D01*
X321786428Y-179691904D02*
X321786428Y-178891904D01*
X322643571Y-179691904D01*
X322643571Y-178891904D01*
X319532142Y-178891904D02*
X319817857Y-178891904D01*
X319960714Y-178930000D01*
X320103571Y-179006190D01*
X320175000Y-179158571D01*
X320175000Y-179425238D01*
X320103571Y-179577619D01*
X319960714Y-179653809D01*
X319817857Y-179691904D01*
X319532142Y-179691904D01*
X319389285Y-179653809D01*
X319246428Y-179577619D01*
X319175000Y-179425238D01*
X319175000Y-179158571D01*
X319246428Y-179006190D01*
X319389285Y-178930000D01*
X319532142Y-178891904D01*
X317599285Y-179691904D02*
X317099285Y-179310952D01*
X316742142Y-179691904D02*
X316742142Y-178891904D01*
X317313571Y-178891904D01*
X317456428Y-178930000D01*
X317527857Y-178968095D01*
X317599285Y-179044285D01*
X317599285Y-179158571D01*
X317527857Y-179234761D01*
X317456428Y-179272857D01*
X317313571Y-179310952D01*
X316742142Y-179310952D01*
X324612142Y-176351904D02*
X324897857Y-176351904D01*
X325040714Y-176390000D01*
X325183571Y-176466190D01*
X325255000Y-176618571D01*
X325255000Y-176885238D01*
X325183571Y-177037619D01*
X325040714Y-177113809D01*
X324897857Y-177151904D01*
X324612142Y-177151904D01*
X324469285Y-177113809D01*
X324326428Y-177037619D01*
X324255000Y-176885238D01*
X324255000Y-176618571D01*
X324326428Y-176466190D01*
X324469285Y-176390000D01*
X324612142Y-176351904D01*
X321715000Y-177151904D02*
X321715000Y-176351904D01*
X322215000Y-176923333D01*
X322715000Y-176351904D01*
X322715000Y-177151904D01*
X319675000Y-177151904D02*
X319675000Y-176351904D01*
X316742142Y-177151904D02*
X316742142Y-176351904D01*
X317313571Y-176351904D01*
X317456428Y-176390000D01*
X317527857Y-176428095D01*
X317599285Y-176504285D01*
X317599285Y-176618571D01*
X317527857Y-176694761D01*
X317456428Y-176732857D01*
X317313571Y-176770952D01*
X316742142Y-176770952D01*
%TD*%
M02*
