%TF.GenerationSoftware,KiCad,Pcbnew,(5.1.9)-1*%
%TF.CreationDate,2021-10-01T21:52:25+09:00*%
%TF.ProjectId,main,6d61696e-2e6b-4696-9361-645f70636258,1*%
%TF.SameCoordinates,Original*%
%TF.FileFunction,Soldermask,Bot*%
%TF.FilePolarity,Negative*%
%FSLAX46Y46*%
G04 Gerber Fmt 4.6, Leading zero omitted, Abs format (unit mm)*
G04 Created by KiCad (PCBNEW (5.1.9)-1) date 2021-10-01 21:52:25*
%MOMM*%
%LPD*%
G01*
G04 APERTURE LIST*
%ADD10C,4.000000*%
%ADD11O,7.000000X2.500000*%
%ADD12C,5.000000*%
%ADD13C,2.200000*%
%ADD14C,6.000000*%
%ADD15C,3.987800*%
%ADD16C,3.048000*%
%ADD17C,1.700000*%
%ADD18R,1.300000X1.550000*%
%ADD19R,0.800000X0.900000*%
%ADD20O,1.500000X3.150000*%
%ADD21R,0.600000X0.700000*%
%ADD22C,1.000000*%
%ADD23C,3.000000*%
%ADD24R,2.550000X2.500000*%
%ADD25C,4.100000*%
%ADD26C,1.900000*%
%ADD27O,1.700000X1.700000*%
%ADD28R,1.700000X1.700000*%
%ADD29R,1.350000X2.000000*%
%ADD30R,1.825000X0.700000*%
%ADD31R,2.000000X1.500000*%
%ADD32R,0.400000X1.650000*%
%ADD33O,1.100000X1.500000*%
%ADD34O,1.350000X1.700000*%
%ADD35R,1.430000X2.500000*%
%ADD36R,0.900000X1.200000*%
G04 APERTURE END LIST*
D10*
%TO.C,HOLE12*%
X332650000Y-165300000D03*
%TD*%
%TO.C,HOLE10*%
X110000000Y-165300000D03*
%TD*%
%TO.C,HOLE11*%
X207738000Y-165400000D03*
%TD*%
%TO.C,HOLE9*%
X317275000Y-108300000D03*
%TD*%
%TO.C,HOLE8*%
X222025000Y-108310000D03*
%TD*%
%TO.C,HOLE7*%
X126775000Y-108300000D03*
%TD*%
D11*
%TO.C,HOLE6*%
X353540000Y-156500000D03*
%TD*%
%TO.C,HOLE5*%
X71460000Y-156500000D03*
%TD*%
D12*
%TO.C,HOLE4*%
X260500000Y-185200000D03*
%TD*%
D13*
%TO.C,HOLE3*%
X198200000Y-147000000D03*
%TD*%
D14*
%TO.C,HOLE2*%
X330050000Y-127910000D03*
%TD*%
%TO.C,HOLE1*%
X95200000Y-127900000D03*
%TD*%
D15*
%TO.C,STB2*%
X150594000Y-177155000D03*
D16*
X250594000Y-192395000D03*
D15*
X250594000Y-177155000D03*
D16*
X150594000Y-192395000D03*
%TD*%
%TO.C,STB1*%
X79118200Y-173345000D03*
D15*
X79118200Y-158105000D03*
X102994200Y-158105000D03*
D16*
X102994200Y-173345000D03*
%TD*%
%TO.C,STB3*%
X322006000Y-154295000D03*
D15*
X322006000Y-139055000D03*
X345882000Y-139055000D03*
D16*
X345882000Y-154295000D03*
%TD*%
D17*
%TO.C,U1*%
X328565000Y-175520000D03*
X326025000Y-178060000D03*
X326025000Y-175520000D03*
X323485000Y-178060000D03*
X323485000Y-175520000D03*
X320945000Y-178060000D03*
X320945000Y-175520000D03*
X318405000Y-178060000D03*
X318405000Y-175520000D03*
X315865000Y-178060000D03*
X315865000Y-175520000D03*
X313325000Y-175520000D03*
X310785000Y-175520000D03*
X313325000Y-178060000D03*
X310785000Y-178060000D03*
X313325000Y-180600000D03*
X310785000Y-180600000D03*
X313325000Y-183140000D03*
X310785000Y-183140000D03*
X313325000Y-185680000D03*
X310785000Y-185680000D03*
X313325000Y-188220000D03*
X310785000Y-188220000D03*
X310785000Y-190760000D03*
X310785000Y-193300000D03*
X313325000Y-190760000D03*
X313325000Y-193300000D03*
X315865000Y-190760000D03*
X315865000Y-193300000D03*
X318405000Y-190760000D03*
X318405000Y-193300000D03*
X320945000Y-190760000D03*
X320945000Y-193300000D03*
X323485000Y-190760000D03*
X323485000Y-193300000D03*
X326025000Y-193300000D03*
X328565000Y-193300000D03*
X326025000Y-190760000D03*
X328565000Y-190760000D03*
X326025000Y-188220000D03*
X328565000Y-188220000D03*
X326025000Y-185680000D03*
X328565000Y-185680000D03*
X326025000Y-183140000D03*
X328565000Y-183140000D03*
X326025000Y-180600000D03*
X328565000Y-180600000D03*
G36*
G01*
X329415000Y-177635000D02*
X329415000Y-178485000D01*
G75*
G02*
X328990000Y-178910000I-425000J0D01*
G01*
X328140000Y-178910000D01*
G75*
G02*
X327715000Y-178485000I0J425000D01*
G01*
X327715000Y-177635000D01*
G75*
G02*
X328140000Y-177210000I425000J0D01*
G01*
X328990000Y-177210000D01*
G75*
G02*
X329415000Y-177635000I0J-425000D01*
G01*
G37*
%TD*%
D18*
%TO.C,RSW1*%
X96150000Y-144225000D03*
X100650000Y-144225000D03*
X100650000Y-152175000D03*
X96150000Y-152175000D03*
%TD*%
%TO.C,R2*%
G36*
G01*
X339847000Y-186678500D02*
X339847000Y-187153500D01*
G75*
G02*
X339609500Y-187391000I-237500J0D01*
G01*
X339109500Y-187391000D01*
G75*
G02*
X338872000Y-187153500I0J237500D01*
G01*
X338872000Y-186678500D01*
G75*
G02*
X339109500Y-186441000I237500J0D01*
G01*
X339609500Y-186441000D01*
G75*
G02*
X339847000Y-186678500I0J-237500D01*
G01*
G37*
G36*
G01*
X341672000Y-186678500D02*
X341672000Y-187153500D01*
G75*
G02*
X341434500Y-187391000I-237500J0D01*
G01*
X340934500Y-187391000D01*
G75*
G02*
X340697000Y-187153500I0J237500D01*
G01*
X340697000Y-186678500D01*
G75*
G02*
X340934500Y-186441000I237500J0D01*
G01*
X341434500Y-186441000D01*
G75*
G02*
X341672000Y-186678500I0J-237500D01*
G01*
G37*
%TD*%
%TO.C,R1*%
G36*
G01*
X340697000Y-184772500D02*
X340697000Y-184297500D01*
G75*
G02*
X340934500Y-184060000I237500J0D01*
G01*
X341434500Y-184060000D01*
G75*
G02*
X341672000Y-184297500I0J-237500D01*
G01*
X341672000Y-184772500D01*
G75*
G02*
X341434500Y-185010000I-237500J0D01*
G01*
X340934500Y-185010000D01*
G75*
G02*
X340697000Y-184772500I0J237500D01*
G01*
G37*
G36*
G01*
X338872000Y-184772500D02*
X338872000Y-184297500D01*
G75*
G02*
X339109500Y-184060000I237500J0D01*
G01*
X339609500Y-184060000D01*
G75*
G02*
X339847000Y-184297500I0J-237500D01*
G01*
X339847000Y-184772500D01*
G75*
G02*
X339609500Y-185010000I-237500J0D01*
G01*
X339109500Y-185010000D01*
G75*
G02*
X338872000Y-184772500I0J237500D01*
G01*
G37*
%TD*%
D19*
%TO.C,Q1*%
X335510000Y-186725000D03*
X336460000Y-184725000D03*
X334560000Y-184725000D03*
%TD*%
D20*
%TO.C,LED56*%
X345850000Y-104250000D03*
D21*
X344600000Y-103700000D03*
X344600000Y-104800000D03*
X347100000Y-104800000D03*
X347100000Y-103700000D03*
%TD*%
D20*
%TO.C,LED55*%
X326800000Y-104250000D03*
D21*
X325550000Y-103700000D03*
X325550000Y-104800000D03*
X328050000Y-104800000D03*
X328050000Y-103700000D03*
%TD*%
D20*
%TO.C,LED54*%
X307750000Y-104250000D03*
D21*
X306500000Y-103700000D03*
X306500000Y-104800000D03*
X309000000Y-104800000D03*
X309000000Y-103700000D03*
%TD*%
D20*
%TO.C,LED53*%
X288700000Y-104250000D03*
D21*
X287450000Y-103700000D03*
X287450000Y-104800000D03*
X289950000Y-104800000D03*
X289950000Y-103700000D03*
%TD*%
D20*
%TO.C,LED52*%
X269650000Y-104250000D03*
D21*
X268400000Y-103700000D03*
X268400000Y-104800000D03*
X270900000Y-104800000D03*
X270900000Y-103700000D03*
%TD*%
D20*
%TO.C,LED51*%
X250600000Y-104250000D03*
D21*
X249350000Y-103700000D03*
X249350000Y-104800000D03*
X251850000Y-104800000D03*
X251850000Y-103700000D03*
%TD*%
D20*
%TO.C,LED50*%
X231550000Y-104250000D03*
D21*
X230300000Y-103700000D03*
X230300000Y-104800000D03*
X232800000Y-104800000D03*
X232800000Y-103700000D03*
%TD*%
D20*
%TO.C,LED49*%
X212500000Y-104250000D03*
D21*
X211250000Y-103700000D03*
X211250000Y-104800000D03*
X213750000Y-104800000D03*
X213750000Y-103700000D03*
%TD*%
D20*
%TO.C,LED48*%
X193450000Y-104250000D03*
D21*
X192200000Y-103700000D03*
X192200000Y-104800000D03*
X194700000Y-104800000D03*
X194700000Y-103700000D03*
%TD*%
D20*
%TO.C,LED47*%
X174400000Y-104250000D03*
D21*
X173150000Y-103700000D03*
X173150000Y-104800000D03*
X175650000Y-104800000D03*
X175650000Y-103700000D03*
%TD*%
D20*
%TO.C,LED46*%
X155350000Y-104250000D03*
D21*
X154100000Y-103700000D03*
X154100000Y-104800000D03*
X156600000Y-104800000D03*
X156600000Y-103700000D03*
%TD*%
D20*
%TO.C,LED45*%
X136300000Y-104250000D03*
D21*
X135050000Y-103700000D03*
X135050000Y-104800000D03*
X137550000Y-104800000D03*
X137550000Y-103700000D03*
%TD*%
D20*
%TO.C,LED44*%
X117250000Y-104250000D03*
D21*
X116000000Y-103700000D03*
X116000000Y-104800000D03*
X118500000Y-104800000D03*
X118500000Y-103700000D03*
%TD*%
D20*
%TO.C,LED43*%
X98200000Y-104250000D03*
D21*
X96950000Y-103700000D03*
X96950000Y-104800000D03*
X99450000Y-104800000D03*
X99450000Y-103700000D03*
%TD*%
D20*
%TO.C,LED42*%
X79150000Y-104250000D03*
D21*
X77900000Y-103700000D03*
X77900000Y-104800000D03*
X80400000Y-104800000D03*
X80400000Y-103700000D03*
%TD*%
D20*
%TO.C,LED41*%
X83912500Y-123300000D03*
D21*
X85162500Y-123850000D03*
X85162500Y-122750000D03*
X82662500Y-122750000D03*
X82662500Y-123850000D03*
%TD*%
D20*
%TO.C,LED40*%
X107725000Y-123300000D03*
D21*
X108975000Y-123850000D03*
X108975000Y-122750000D03*
X106475000Y-122750000D03*
X106475000Y-123850000D03*
%TD*%
D20*
%TO.C,LED39*%
X126775000Y-123300000D03*
D21*
X128025000Y-123850000D03*
X128025000Y-122750000D03*
X125525000Y-122750000D03*
X125525000Y-123850000D03*
%TD*%
D20*
%TO.C,LED38*%
X145825000Y-123300000D03*
D21*
X147075000Y-123850000D03*
X147075000Y-122750000D03*
X144575000Y-122750000D03*
X144575000Y-123850000D03*
%TD*%
D20*
%TO.C,LED37*%
X164875000Y-123300000D03*
D21*
X166125000Y-123850000D03*
X166125000Y-122750000D03*
X163625000Y-122750000D03*
X163625000Y-123850000D03*
%TD*%
D20*
%TO.C,LED36*%
X183925000Y-123300000D03*
D21*
X185175000Y-123850000D03*
X185175000Y-122750000D03*
X182675000Y-122750000D03*
X182675000Y-123850000D03*
%TD*%
D20*
%TO.C,LED35*%
X202975000Y-123300000D03*
D21*
X204225000Y-123850000D03*
X204225000Y-122750000D03*
X201725000Y-122750000D03*
X201725000Y-123850000D03*
%TD*%
D20*
%TO.C,LED34*%
X222025000Y-123300000D03*
D21*
X223275000Y-123850000D03*
X223275000Y-122750000D03*
X220775000Y-122750000D03*
X220775000Y-123850000D03*
%TD*%
D20*
%TO.C,LED33*%
X241075000Y-123300000D03*
D21*
X242325000Y-123850000D03*
X242325000Y-122750000D03*
X239825000Y-122750000D03*
X239825000Y-123850000D03*
%TD*%
D20*
%TO.C,LED32*%
X260125000Y-123300000D03*
D21*
X261375000Y-123850000D03*
X261375000Y-122750000D03*
X258875000Y-122750000D03*
X258875000Y-123850000D03*
%TD*%
D20*
%TO.C,LED31*%
X279175000Y-123300000D03*
D21*
X280425000Y-123850000D03*
X280425000Y-122750000D03*
X277925000Y-122750000D03*
X277925000Y-123850000D03*
%TD*%
D20*
%TO.C,LED30*%
X298225000Y-123300000D03*
D21*
X299475000Y-123850000D03*
X299475000Y-122750000D03*
X296975000Y-122750000D03*
X296975000Y-123850000D03*
%TD*%
D20*
%TO.C,LED29*%
X317275000Y-123300000D03*
D21*
X318525000Y-123850000D03*
X318525000Y-122750000D03*
X316025000Y-122750000D03*
X316025000Y-123850000D03*
%TD*%
D20*
%TO.C,LED28*%
X341088000Y-123300000D03*
D21*
X342338000Y-123850000D03*
X342338000Y-122750000D03*
X339838000Y-122750000D03*
X339838000Y-123850000D03*
%TD*%
D20*
%TO.C,LED27*%
X333944000Y-142350000D03*
D21*
X332694000Y-141800000D03*
X332694000Y-142900000D03*
X335194000Y-142900000D03*
X335194000Y-141800000D03*
%TD*%
D20*
%TO.C,LED26*%
X302988000Y-142350000D03*
D21*
X301738000Y-141800000D03*
X301738000Y-142900000D03*
X304238000Y-142900000D03*
X304238000Y-141800000D03*
%TD*%
D20*
%TO.C,LED25*%
X283938000Y-142350000D03*
D21*
X282688000Y-141800000D03*
X282688000Y-142900000D03*
X285188000Y-142900000D03*
X285188000Y-141800000D03*
%TD*%
D20*
%TO.C,LED24*%
X264888000Y-142350000D03*
D21*
X263638000Y-141800000D03*
X263638000Y-142900000D03*
X266138000Y-142900000D03*
X266138000Y-141800000D03*
%TD*%
D20*
%TO.C,LED23*%
X245838000Y-142350000D03*
D21*
X244588000Y-141800000D03*
X244588000Y-142900000D03*
X247088000Y-142900000D03*
X247088000Y-141800000D03*
%TD*%
D20*
%TO.C,LED22*%
X226788000Y-142350000D03*
D21*
X225538000Y-141800000D03*
X225538000Y-142900000D03*
X228038000Y-142900000D03*
X228038000Y-141800000D03*
%TD*%
D20*
%TO.C,LED21*%
X207738000Y-142350000D03*
D21*
X206488000Y-141800000D03*
X206488000Y-142900000D03*
X208988000Y-142900000D03*
X208988000Y-141800000D03*
%TD*%
D20*
%TO.C,LED20*%
X188688000Y-142350000D03*
D21*
X187438000Y-141800000D03*
X187438000Y-142900000D03*
X189938000Y-142900000D03*
X189938000Y-141800000D03*
%TD*%
D20*
%TO.C,LED19*%
X169638000Y-142350000D03*
D21*
X168388000Y-141800000D03*
X168388000Y-142900000D03*
X170888000Y-142900000D03*
X170888000Y-141800000D03*
%TD*%
D20*
%TO.C,LED18*%
X150588000Y-142350000D03*
D21*
X149338000Y-141800000D03*
X149338000Y-142900000D03*
X151838000Y-142900000D03*
X151838000Y-141800000D03*
%TD*%
D20*
%TO.C,LED17*%
X131538000Y-142350000D03*
D21*
X130288000Y-141800000D03*
X130288000Y-142900000D03*
X132788000Y-142900000D03*
X132788000Y-141800000D03*
%TD*%
D20*
%TO.C,LED16*%
X112488000Y-142350000D03*
D21*
X111238000Y-141800000D03*
X111238000Y-142900000D03*
X113738000Y-142900000D03*
X113738000Y-141800000D03*
%TD*%
D20*
%TO.C,LED15*%
X86293800Y-142350000D03*
D21*
X85043800Y-141800000D03*
X85043800Y-142900000D03*
X87543800Y-142900000D03*
X87543800Y-141800000D03*
%TD*%
D20*
%TO.C,LED14*%
X91056200Y-161400000D03*
D21*
X92306200Y-161950000D03*
X92306200Y-160850000D03*
X89806200Y-160850000D03*
X89806200Y-161950000D03*
%TD*%
D20*
%TO.C,LED13*%
X122012000Y-161400000D03*
D21*
X123262000Y-161950000D03*
X123262000Y-160850000D03*
X120762000Y-160850000D03*
X120762000Y-161950000D03*
%TD*%
D20*
%TO.C,LED12*%
X141062000Y-161400000D03*
D21*
X142312000Y-161950000D03*
X142312000Y-160850000D03*
X139812000Y-160850000D03*
X139812000Y-161950000D03*
%TD*%
D20*
%TO.C,LED11*%
X160112000Y-161400000D03*
D21*
X161362000Y-161950000D03*
X161362000Y-160850000D03*
X158862000Y-160850000D03*
X158862000Y-161950000D03*
%TD*%
D20*
%TO.C,LED10*%
X179162000Y-161400000D03*
D21*
X180412000Y-161950000D03*
X180412000Y-160850000D03*
X177912000Y-160850000D03*
X177912000Y-161950000D03*
%TD*%
D20*
%TO.C,LED9*%
X198212000Y-161400000D03*
D21*
X199462000Y-161950000D03*
X199462000Y-160850000D03*
X196962000Y-160850000D03*
X196962000Y-161950000D03*
%TD*%
D20*
%TO.C,LED8*%
X217262000Y-161400000D03*
D21*
X218512000Y-161950000D03*
X218512000Y-160850000D03*
X216012000Y-160850000D03*
X216012000Y-161950000D03*
%TD*%
D20*
%TO.C,LED7*%
X236312000Y-161400000D03*
D21*
X237562000Y-161950000D03*
X237562000Y-160850000D03*
X235062000Y-160850000D03*
X235062000Y-161950000D03*
%TD*%
D20*
%TO.C,LED6*%
X255362000Y-161400000D03*
D21*
X256612000Y-161950000D03*
X256612000Y-160850000D03*
X254112000Y-160850000D03*
X254112000Y-161950000D03*
%TD*%
D20*
%TO.C,LED5*%
X274412000Y-161400000D03*
D21*
X275662000Y-161950000D03*
X275662000Y-160850000D03*
X273162000Y-160850000D03*
X273162000Y-161950000D03*
%TD*%
D20*
%TO.C,LED4*%
X293462000Y-161400000D03*
D21*
X294712000Y-161950000D03*
X294712000Y-160850000D03*
X292212000Y-160850000D03*
X292212000Y-161950000D03*
%TD*%
D20*
%TO.C,LED3*%
X319656000Y-161400000D03*
D21*
X320906000Y-161950000D03*
X320906000Y-160850000D03*
X318406000Y-160850000D03*
X318406000Y-161950000D03*
%TD*%
D20*
%TO.C,LED2*%
X345850000Y-161400000D03*
D21*
X347100000Y-161950000D03*
X347100000Y-160850000D03*
X344600000Y-160850000D03*
X344600000Y-161950000D03*
%TD*%
D20*
%TO.C,LED1*%
X345851000Y-185410000D03*
D21*
X344601000Y-184860000D03*
X344601000Y-185960000D03*
X347101000Y-185960000D03*
X347101000Y-184860000D03*
%TD*%
D22*
%TO.C,KSW60*%
X292383000Y-190490000D03*
X305310000Y-187950000D03*
D23*
X302035000Y-187950000D03*
X295685000Y-190490000D03*
D24*
X305310000Y-187950000D03*
D25*
X298225000Y-185410000D03*
D26*
X293145000Y-185410000D03*
X303305000Y-185410000D03*
D24*
X292383000Y-190490000D03*
%TD*%
D22*
%TO.C,KSW59*%
X268570000Y-190490000D03*
X281497000Y-187950000D03*
D23*
X278222000Y-187950000D03*
X271872000Y-190490000D03*
D24*
X281497000Y-187950000D03*
D25*
X274412000Y-185410000D03*
D26*
X269332000Y-185410000D03*
X279492000Y-185410000D03*
D24*
X268570000Y-190490000D03*
%TD*%
D22*
%TO.C,KSW58*%
X194752000Y-190490000D03*
X207679000Y-187950000D03*
D23*
X204404000Y-187950000D03*
X198054000Y-190490000D03*
D24*
X207679000Y-187950000D03*
D25*
X200594000Y-185410000D03*
D26*
X195514000Y-185410000D03*
X205674000Y-185410000D03*
D24*
X194752000Y-190490000D03*
%TD*%
D22*
%TO.C,KSW57*%
X123314000Y-190490000D03*
X136241000Y-187950000D03*
D23*
X132966000Y-187950000D03*
X126616000Y-190490000D03*
D24*
X136241000Y-187950000D03*
D25*
X129156000Y-185410000D03*
D26*
X124076000Y-185410000D03*
X134236000Y-185410000D03*
D24*
X123314000Y-190490000D03*
%TD*%
D22*
%TO.C,KSW56*%
X101883000Y-190490000D03*
X114810000Y-187950000D03*
D23*
X111535000Y-187950000D03*
X105185000Y-190490000D03*
D24*
X114810000Y-187950000D03*
D25*
X107725000Y-185410000D03*
D26*
X102645000Y-185410000D03*
X112805000Y-185410000D03*
D24*
X101883000Y-190490000D03*
%TD*%
D22*
%TO.C,KSW55*%
X340008000Y-171440000D03*
X352935000Y-168900000D03*
D23*
X349660000Y-168900000D03*
X343310000Y-171440000D03*
D24*
X352935000Y-168900000D03*
D25*
X345850000Y-166360000D03*
D26*
X340770000Y-166360000D03*
X350930000Y-166360000D03*
D24*
X340008000Y-171440000D03*
%TD*%
D22*
%TO.C,KSW54*%
X313814000Y-171440000D03*
X326741000Y-168900000D03*
D23*
X323466000Y-168900000D03*
X317116000Y-171440000D03*
D24*
X326741000Y-168900000D03*
D25*
X319656000Y-166360000D03*
D26*
X314576000Y-166360000D03*
X324736000Y-166360000D03*
D24*
X313814000Y-171440000D03*
%TD*%
D22*
%TO.C,KSW53*%
X287620000Y-171440000D03*
X300547000Y-168900000D03*
D23*
X297272000Y-168900000D03*
X290922000Y-171440000D03*
D24*
X300547000Y-168900000D03*
D25*
X293462000Y-166360000D03*
D26*
X288382000Y-166360000D03*
X298542000Y-166360000D03*
D24*
X287620000Y-171440000D03*
%TD*%
D22*
%TO.C,KSW52*%
X268570000Y-171440000D03*
X281497000Y-168900000D03*
D23*
X278222000Y-168900000D03*
X271872000Y-171440000D03*
D24*
X281497000Y-168900000D03*
D25*
X274412000Y-166360000D03*
D26*
X269332000Y-166360000D03*
X279492000Y-166360000D03*
D24*
X268570000Y-171440000D03*
%TD*%
D22*
%TO.C,KSW51*%
X249520000Y-171440000D03*
X262447000Y-168900000D03*
D23*
X259172000Y-168900000D03*
X252822000Y-171440000D03*
D24*
X262447000Y-168900000D03*
D25*
X255362000Y-166360000D03*
D26*
X250282000Y-166360000D03*
X260442000Y-166360000D03*
D24*
X249520000Y-171440000D03*
%TD*%
D22*
%TO.C,KSW50*%
X230470000Y-171440000D03*
X243397000Y-168900000D03*
D23*
X240122000Y-168900000D03*
X233772000Y-171440000D03*
D24*
X243397000Y-168900000D03*
D25*
X236312000Y-166360000D03*
D26*
X231232000Y-166360000D03*
X241392000Y-166360000D03*
D24*
X230470000Y-171440000D03*
%TD*%
D22*
%TO.C,KSW49*%
X211420000Y-171440000D03*
X224347000Y-168900000D03*
D23*
X221072000Y-168900000D03*
X214722000Y-171440000D03*
D24*
X224347000Y-168900000D03*
D25*
X217262000Y-166360000D03*
D26*
X212182000Y-166360000D03*
X222342000Y-166360000D03*
D24*
X211420000Y-171440000D03*
%TD*%
D22*
%TO.C,KSW48*%
X192370000Y-171440000D03*
X205297000Y-168900000D03*
D23*
X202022000Y-168900000D03*
X195672000Y-171440000D03*
D24*
X205297000Y-168900000D03*
D25*
X198212000Y-166360000D03*
D26*
X193132000Y-166360000D03*
X203292000Y-166360000D03*
D24*
X192370000Y-171440000D03*
%TD*%
D22*
%TO.C,KSW47*%
X173320000Y-171440000D03*
X186247000Y-168900000D03*
D23*
X182972000Y-168900000D03*
X176622000Y-171440000D03*
D24*
X186247000Y-168900000D03*
D25*
X179162000Y-166360000D03*
D26*
X174082000Y-166360000D03*
X184242000Y-166360000D03*
D24*
X173320000Y-171440000D03*
%TD*%
D22*
%TO.C,KSW46*%
X154270000Y-171440000D03*
X167197000Y-168900000D03*
D23*
X163922000Y-168900000D03*
X157572000Y-171440000D03*
D24*
X167197000Y-168900000D03*
D25*
X160112000Y-166360000D03*
D26*
X155032000Y-166360000D03*
X165192000Y-166360000D03*
D24*
X154270000Y-171440000D03*
%TD*%
D22*
%TO.C,KSW45*%
X135220000Y-171440000D03*
X148147000Y-168900000D03*
D23*
X144872000Y-168900000D03*
X138522000Y-171440000D03*
D24*
X148147000Y-168900000D03*
D25*
X141062000Y-166360000D03*
D26*
X135982000Y-166360000D03*
X146142000Y-166360000D03*
D24*
X135220000Y-171440000D03*
%TD*%
D22*
%TO.C,KSW44*%
X116170000Y-171440000D03*
X129097000Y-168900000D03*
D23*
X125822000Y-168900000D03*
X119472000Y-171440000D03*
D24*
X129097000Y-168900000D03*
D25*
X122012000Y-166360000D03*
D26*
X116932000Y-166360000D03*
X127092000Y-166360000D03*
D24*
X116170000Y-171440000D03*
%TD*%
D22*
%TO.C,KSW43*%
X85214200Y-171440000D03*
X98141200Y-168900000D03*
D23*
X94866200Y-168900000D03*
X88516200Y-171440000D03*
D24*
X98141200Y-168900000D03*
D25*
X91056200Y-166360000D03*
D26*
X85976200Y-166360000D03*
X96136200Y-166360000D03*
D24*
X85214200Y-171440000D03*
%TD*%
D22*
%TO.C,KSW42*%
X328102000Y-152390000D03*
X341029000Y-149850000D03*
D23*
X337754000Y-149850000D03*
X331404000Y-152390000D03*
D24*
X341029000Y-149850000D03*
D25*
X333944000Y-147310000D03*
D26*
X328864000Y-147310000D03*
X339024000Y-147310000D03*
D24*
X328102000Y-152390000D03*
%TD*%
D22*
%TO.C,KSW41*%
X297146000Y-152390000D03*
X310073000Y-149850000D03*
D23*
X306798000Y-149850000D03*
X300448000Y-152390000D03*
D24*
X310073000Y-149850000D03*
D25*
X302988000Y-147310000D03*
D26*
X297908000Y-147310000D03*
X308068000Y-147310000D03*
D24*
X297146000Y-152390000D03*
%TD*%
D22*
%TO.C,KSW40*%
X278096000Y-152390000D03*
X291023000Y-149850000D03*
D23*
X287748000Y-149850000D03*
X281398000Y-152390000D03*
D24*
X291023000Y-149850000D03*
D25*
X283938000Y-147310000D03*
D26*
X278858000Y-147310000D03*
X289018000Y-147310000D03*
D24*
X278096000Y-152390000D03*
%TD*%
D22*
%TO.C,KSW39*%
X259046000Y-152390000D03*
X271973000Y-149850000D03*
D23*
X268698000Y-149850000D03*
X262348000Y-152390000D03*
D24*
X271973000Y-149850000D03*
D25*
X264888000Y-147310000D03*
D26*
X259808000Y-147310000D03*
X269968000Y-147310000D03*
D24*
X259046000Y-152390000D03*
%TD*%
D22*
%TO.C,KSW38*%
X239996000Y-152390000D03*
X252923000Y-149850000D03*
D23*
X249648000Y-149850000D03*
X243298000Y-152390000D03*
D24*
X252923000Y-149850000D03*
D25*
X245838000Y-147310000D03*
D26*
X240758000Y-147310000D03*
X250918000Y-147310000D03*
D24*
X239996000Y-152390000D03*
%TD*%
D22*
%TO.C,KSW37*%
X220946000Y-152390000D03*
X233873000Y-149850000D03*
D23*
X230598000Y-149850000D03*
X224248000Y-152390000D03*
D24*
X233873000Y-149850000D03*
D25*
X226788000Y-147310000D03*
D26*
X221708000Y-147310000D03*
X231868000Y-147310000D03*
D24*
X220946000Y-152390000D03*
%TD*%
D22*
%TO.C,KSW36*%
X201896000Y-152390000D03*
X214823000Y-149850000D03*
D23*
X211548000Y-149850000D03*
X205198000Y-152390000D03*
D24*
X214823000Y-149850000D03*
D25*
X207738000Y-147310000D03*
D26*
X202658000Y-147310000D03*
X212818000Y-147310000D03*
D24*
X201896000Y-152390000D03*
%TD*%
D22*
%TO.C,KSW35*%
X182846000Y-152390000D03*
X195773000Y-149850000D03*
D23*
X192498000Y-149850000D03*
X186148000Y-152390000D03*
D24*
X195773000Y-149850000D03*
D25*
X188688000Y-147310000D03*
D26*
X183608000Y-147310000D03*
X193768000Y-147310000D03*
D24*
X182846000Y-152390000D03*
%TD*%
D22*
%TO.C,KSW34*%
X163796000Y-152390000D03*
X176723000Y-149850000D03*
D23*
X173448000Y-149850000D03*
X167098000Y-152390000D03*
D24*
X176723000Y-149850000D03*
D25*
X169638000Y-147310000D03*
D26*
X164558000Y-147310000D03*
X174718000Y-147310000D03*
D24*
X163796000Y-152390000D03*
%TD*%
D22*
%TO.C,KSW33*%
X144746000Y-152390000D03*
X157673000Y-149850000D03*
D23*
X154398000Y-149850000D03*
X148048000Y-152390000D03*
D24*
X157673000Y-149850000D03*
D25*
X150588000Y-147310000D03*
D26*
X145508000Y-147310000D03*
X155668000Y-147310000D03*
D24*
X144746000Y-152390000D03*
%TD*%
D22*
%TO.C,KSW32*%
X125696000Y-152390000D03*
X138623000Y-149850000D03*
D23*
X135348000Y-149850000D03*
X128998000Y-152390000D03*
D24*
X138623000Y-149850000D03*
D25*
X131538000Y-147310000D03*
D26*
X126458000Y-147310000D03*
X136618000Y-147310000D03*
D24*
X125696000Y-152390000D03*
%TD*%
D22*
%TO.C,KSW31*%
X106646000Y-152390000D03*
X119573000Y-149850000D03*
D23*
X116298000Y-149850000D03*
X109948000Y-152390000D03*
D24*
X119573000Y-149850000D03*
D25*
X112488000Y-147310000D03*
D26*
X107408000Y-147310000D03*
X117568000Y-147310000D03*
D24*
X106646000Y-152390000D03*
%TD*%
D22*
%TO.C,KSW30*%
X80451800Y-152390000D03*
X93378800Y-149850000D03*
D23*
X90103800Y-149850000D03*
X83753800Y-152390000D03*
D24*
X93378800Y-149850000D03*
D25*
X86293800Y-147310000D03*
D26*
X81213800Y-147310000D03*
X91373800Y-147310000D03*
D24*
X80451800Y-152390000D03*
%TD*%
D22*
%TO.C,KSW29*%
X335246000Y-133340000D03*
X348173000Y-130800000D03*
D23*
X344898000Y-130800000D03*
X338548000Y-133340000D03*
D24*
X348173000Y-130800000D03*
D25*
X341088000Y-128260000D03*
D26*
X336008000Y-128260000D03*
X346168000Y-128260000D03*
D24*
X335246000Y-133340000D03*
%TD*%
D22*
%TO.C,KSW28*%
X311433000Y-133340000D03*
X324360000Y-130800000D03*
D23*
X321085000Y-130800000D03*
X314735000Y-133340000D03*
D24*
X324360000Y-130800000D03*
D25*
X317275000Y-128260000D03*
D26*
X312195000Y-128260000D03*
X322355000Y-128260000D03*
D24*
X311433000Y-133340000D03*
%TD*%
D22*
%TO.C,KSW27*%
X292383000Y-133340000D03*
X305310000Y-130800000D03*
D23*
X302035000Y-130800000D03*
X295685000Y-133340000D03*
D24*
X305310000Y-130800000D03*
D25*
X298225000Y-128260000D03*
D26*
X293145000Y-128260000D03*
X303305000Y-128260000D03*
D24*
X292383000Y-133340000D03*
%TD*%
D22*
%TO.C,KSW26*%
X273333000Y-133340000D03*
X286260000Y-130800000D03*
D23*
X282985000Y-130800000D03*
X276635000Y-133340000D03*
D24*
X286260000Y-130800000D03*
D25*
X279175000Y-128260000D03*
D26*
X274095000Y-128260000D03*
X284255000Y-128260000D03*
D24*
X273333000Y-133340000D03*
%TD*%
D22*
%TO.C,KSW25*%
X254283000Y-133340000D03*
X267210000Y-130800000D03*
D23*
X263935000Y-130800000D03*
X257585000Y-133340000D03*
D24*
X267210000Y-130800000D03*
D25*
X260125000Y-128260000D03*
D26*
X255045000Y-128260000D03*
X265205000Y-128260000D03*
D24*
X254283000Y-133340000D03*
%TD*%
D22*
%TO.C,KSW24*%
X235233000Y-133340000D03*
X248160000Y-130800000D03*
D23*
X244885000Y-130800000D03*
X238535000Y-133340000D03*
D24*
X248160000Y-130800000D03*
D25*
X241075000Y-128260000D03*
D26*
X235995000Y-128260000D03*
X246155000Y-128260000D03*
D24*
X235233000Y-133340000D03*
%TD*%
D22*
%TO.C,KSW23*%
X216183000Y-133340000D03*
X229110000Y-130800000D03*
D23*
X225835000Y-130800000D03*
X219485000Y-133340000D03*
D24*
X229110000Y-130800000D03*
D25*
X222025000Y-128260000D03*
D26*
X216945000Y-128260000D03*
X227105000Y-128260000D03*
D24*
X216183000Y-133340000D03*
%TD*%
D22*
%TO.C,KSW22*%
X197133000Y-133340000D03*
X210060000Y-130800000D03*
D23*
X206785000Y-130800000D03*
X200435000Y-133340000D03*
D24*
X210060000Y-130800000D03*
D25*
X202975000Y-128260000D03*
D26*
X197895000Y-128260000D03*
X208055000Y-128260000D03*
D24*
X197133000Y-133340000D03*
%TD*%
D22*
%TO.C,KSW21*%
X178083000Y-133340000D03*
X191010000Y-130800000D03*
D23*
X187735000Y-130800000D03*
X181385000Y-133340000D03*
D24*
X191010000Y-130800000D03*
D25*
X183925000Y-128260000D03*
D26*
X178845000Y-128260000D03*
X189005000Y-128260000D03*
D24*
X178083000Y-133340000D03*
%TD*%
D22*
%TO.C,KSW20*%
X159033000Y-133340000D03*
X171960000Y-130800000D03*
D23*
X168685000Y-130800000D03*
X162335000Y-133340000D03*
D24*
X171960000Y-130800000D03*
D25*
X164875000Y-128260000D03*
D26*
X159795000Y-128260000D03*
X169955000Y-128260000D03*
D24*
X159033000Y-133340000D03*
%TD*%
D22*
%TO.C,KSW19*%
X139983000Y-133340000D03*
X152910000Y-130800000D03*
D23*
X149635000Y-130800000D03*
X143285000Y-133340000D03*
D24*
X152910000Y-130800000D03*
D25*
X145825000Y-128260000D03*
D26*
X140745000Y-128260000D03*
X150905000Y-128260000D03*
D24*
X139983000Y-133340000D03*
%TD*%
D22*
%TO.C,KSW18*%
X120933000Y-133340000D03*
X133860000Y-130800000D03*
D23*
X130585000Y-130800000D03*
X124235000Y-133340000D03*
D24*
X133860000Y-130800000D03*
D25*
X126775000Y-128260000D03*
D26*
X121695000Y-128260000D03*
X131855000Y-128260000D03*
D24*
X120933000Y-133340000D03*
%TD*%
D22*
%TO.C,KSW17*%
X101883000Y-133340000D03*
X114810000Y-130800000D03*
D23*
X111535000Y-130800000D03*
X105185000Y-133340000D03*
D24*
X114810000Y-130800000D03*
D25*
X107725000Y-128260000D03*
D26*
X102645000Y-128260000D03*
X112805000Y-128260000D03*
D24*
X101883000Y-133340000D03*
%TD*%
D22*
%TO.C,KSW16*%
X78070500Y-133340000D03*
X90997500Y-130800000D03*
D23*
X87722500Y-130800000D03*
X81372500Y-133340000D03*
D24*
X90997500Y-130800000D03*
D25*
X83912500Y-128260000D03*
D26*
X78832500Y-128260000D03*
X88992500Y-128260000D03*
D24*
X78070500Y-133340000D03*
%TD*%
D22*
%TO.C,KSW15*%
X340008000Y-114290000D03*
X352935000Y-111750000D03*
D23*
X349660000Y-111750000D03*
X343310000Y-114290000D03*
D24*
X352935000Y-111750000D03*
D25*
X345850000Y-109210000D03*
D26*
X340770000Y-109210000D03*
X350930000Y-109210000D03*
D24*
X340008000Y-114290000D03*
%TD*%
D22*
%TO.C,KSW14*%
X320958000Y-114290000D03*
X333885000Y-111750000D03*
D23*
X330610000Y-111750000D03*
X324260000Y-114290000D03*
D24*
X333885000Y-111750000D03*
D25*
X326800000Y-109210000D03*
D26*
X321720000Y-109210000D03*
X331880000Y-109210000D03*
D24*
X320958000Y-114290000D03*
%TD*%
D22*
%TO.C,KSW13*%
X301908000Y-114290000D03*
X314835000Y-111750000D03*
D23*
X311560000Y-111750000D03*
X305210000Y-114290000D03*
D24*
X314835000Y-111750000D03*
D25*
X307750000Y-109210000D03*
D26*
X302670000Y-109210000D03*
X312830000Y-109210000D03*
D24*
X301908000Y-114290000D03*
%TD*%
D22*
%TO.C,KSW12*%
X282858000Y-114290000D03*
X295785000Y-111750000D03*
D23*
X292510000Y-111750000D03*
X286160000Y-114290000D03*
D24*
X295785000Y-111750000D03*
D25*
X288700000Y-109210000D03*
D26*
X283620000Y-109210000D03*
X293780000Y-109210000D03*
D24*
X282858000Y-114290000D03*
%TD*%
D22*
%TO.C,KSW11*%
X263808000Y-114290000D03*
X276735000Y-111750000D03*
D23*
X273460000Y-111750000D03*
X267110000Y-114290000D03*
D24*
X276735000Y-111750000D03*
D25*
X269650000Y-109210000D03*
D26*
X264570000Y-109210000D03*
X274730000Y-109210000D03*
D24*
X263808000Y-114290000D03*
%TD*%
D22*
%TO.C,KSW10*%
X244758000Y-114290000D03*
X257685000Y-111750000D03*
D23*
X254410000Y-111750000D03*
X248060000Y-114290000D03*
D24*
X257685000Y-111750000D03*
D25*
X250600000Y-109210000D03*
D26*
X245520000Y-109210000D03*
X255680000Y-109210000D03*
D24*
X244758000Y-114290000D03*
%TD*%
D22*
%TO.C,KSW9*%
X225708000Y-114290000D03*
X238635000Y-111750000D03*
D23*
X235360000Y-111750000D03*
X229010000Y-114290000D03*
D24*
X238635000Y-111750000D03*
D25*
X231550000Y-109210000D03*
D26*
X226470000Y-109210000D03*
X236630000Y-109210000D03*
D24*
X225708000Y-114290000D03*
%TD*%
D22*
%TO.C,KSW8*%
X206658000Y-114290000D03*
X219585000Y-111750000D03*
D23*
X216310000Y-111750000D03*
X209960000Y-114290000D03*
D24*
X219585000Y-111750000D03*
D25*
X212500000Y-109210000D03*
D26*
X207420000Y-109210000D03*
X217580000Y-109210000D03*
D24*
X206658000Y-114290000D03*
%TD*%
D22*
%TO.C,KSW7*%
X187608000Y-114290000D03*
X200535000Y-111750000D03*
D23*
X197260000Y-111750000D03*
X190910000Y-114290000D03*
D24*
X200535000Y-111750000D03*
D25*
X193450000Y-109210000D03*
D26*
X188370000Y-109210000D03*
X198530000Y-109210000D03*
D24*
X187608000Y-114290000D03*
%TD*%
D22*
%TO.C,KSW6*%
X168558000Y-114290000D03*
X181485000Y-111750000D03*
D23*
X178210000Y-111750000D03*
X171860000Y-114290000D03*
D24*
X181485000Y-111750000D03*
D25*
X174400000Y-109210000D03*
D26*
X169320000Y-109210000D03*
X179480000Y-109210000D03*
D24*
X168558000Y-114290000D03*
%TD*%
D22*
%TO.C,KSW5*%
X149508000Y-114290000D03*
X162435000Y-111750000D03*
D23*
X159160000Y-111750000D03*
X152810000Y-114290000D03*
D24*
X162435000Y-111750000D03*
D25*
X155350000Y-109210000D03*
D26*
X150270000Y-109210000D03*
X160430000Y-109210000D03*
D24*
X149508000Y-114290000D03*
%TD*%
D22*
%TO.C,KSW4*%
X130458000Y-114290000D03*
X143385000Y-111750000D03*
D23*
X140110000Y-111750000D03*
X133760000Y-114290000D03*
D24*
X143385000Y-111750000D03*
D25*
X136300000Y-109210000D03*
D26*
X131220000Y-109210000D03*
X141380000Y-109210000D03*
D24*
X130458000Y-114290000D03*
%TD*%
D22*
%TO.C,KSW3*%
X111408000Y-114290000D03*
X124335000Y-111750000D03*
D23*
X121060000Y-111750000D03*
X114710000Y-114290000D03*
D24*
X124335000Y-111750000D03*
D25*
X117250000Y-109210000D03*
D26*
X112170000Y-109210000D03*
X122330000Y-109210000D03*
D24*
X111408000Y-114290000D03*
%TD*%
D22*
%TO.C,KSW2*%
X92358000Y-114290000D03*
X105285000Y-111750000D03*
D23*
X102010000Y-111750000D03*
X95660000Y-114290000D03*
D24*
X105285000Y-111750000D03*
D25*
X98200000Y-109210000D03*
D26*
X93120000Y-109210000D03*
X103280000Y-109210000D03*
D24*
X92358000Y-114290000D03*
%TD*%
D22*
%TO.C,KSW1*%
X73308000Y-114290000D03*
X86235000Y-111750000D03*
D23*
X82960000Y-111750000D03*
X76610000Y-114290000D03*
D24*
X86235000Y-111750000D03*
D25*
X79150000Y-109210000D03*
D26*
X74070000Y-109210000D03*
X84230000Y-109210000D03*
D24*
X73308000Y-114290000D03*
%TD*%
D27*
%TO.C,J4*%
X333151000Y-179457000D03*
X335691000Y-179457000D03*
X338231000Y-179457000D03*
X340771000Y-179457000D03*
X343311000Y-179457000D03*
D28*
X345851000Y-179457000D03*
%TD*%
%TO.C,J3*%
X314894000Y-148501000D03*
D27*
X314894000Y-151041000D03*
X314894000Y-153581000D03*
%TD*%
%TO.C,J2*%
X286319000Y-188268000D03*
X286319000Y-185728000D03*
X286319000Y-183188000D03*
D28*
X286319000Y-180648000D03*
%TD*%
D29*
%TO.C,J1*%
X90925000Y-102515000D03*
X85445000Y-102515000D03*
D30*
X85225000Y-103265000D03*
X91175000Y-103265000D03*
D31*
X85325000Y-104565000D03*
X91075000Y-104585000D03*
D32*
X86875000Y-104465000D03*
X87525000Y-104465000D03*
X88175000Y-104465000D03*
X88825000Y-104465000D03*
X89475000Y-104465000D03*
D33*
X85755000Y-104585000D03*
X90595000Y-104585000D03*
D34*
X85445000Y-101585000D03*
X90905000Y-101585000D03*
D35*
X87215000Y-101315000D03*
X89135000Y-101315000D03*
%TD*%
D36*
%TO.C,D60*%
X291475000Y-182810000D03*
X294775000Y-182810000D03*
%TD*%
%TO.C,D59*%
X267662000Y-182810000D03*
X270962000Y-182810000D03*
%TD*%
%TO.C,D58*%
X193844000Y-182810000D03*
X197144000Y-182810000D03*
%TD*%
%TO.C,D57*%
X122406000Y-182810000D03*
X125706000Y-182810000D03*
%TD*%
%TO.C,D56*%
X100975000Y-182810000D03*
X104275000Y-182810000D03*
%TD*%
%TO.C,D55*%
X339100000Y-163760000D03*
X342400000Y-163760000D03*
%TD*%
%TO.C,D54*%
X312906000Y-163760000D03*
X316206000Y-163760000D03*
%TD*%
%TO.C,D53*%
X286712000Y-163760000D03*
X290012000Y-163760000D03*
%TD*%
%TO.C,D52*%
X267662000Y-163760000D03*
X270962000Y-163760000D03*
%TD*%
%TO.C,D51*%
X248612000Y-163760000D03*
X251912000Y-163760000D03*
%TD*%
%TO.C,D50*%
X229562000Y-163760000D03*
X232862000Y-163760000D03*
%TD*%
%TO.C,D49*%
X210512000Y-163760000D03*
X213812000Y-163760000D03*
%TD*%
%TO.C,D48*%
X191462000Y-163760000D03*
X194762000Y-163760000D03*
%TD*%
%TO.C,D47*%
X172412000Y-163760000D03*
X175712000Y-163760000D03*
%TD*%
%TO.C,D46*%
X153362000Y-163760000D03*
X156662000Y-163760000D03*
%TD*%
%TO.C,D45*%
X134312000Y-163760000D03*
X137612000Y-163760000D03*
%TD*%
%TO.C,D44*%
X115262000Y-163760000D03*
X118562000Y-163760000D03*
%TD*%
%TO.C,D43*%
X84306200Y-163760000D03*
X87606200Y-163760000D03*
%TD*%
%TO.C,D42*%
X327194000Y-144710000D03*
X330494000Y-144710000D03*
%TD*%
%TO.C,D41*%
X296238000Y-144710000D03*
X299538000Y-144710000D03*
%TD*%
%TO.C,D40*%
X277188000Y-144710000D03*
X280488000Y-144710000D03*
%TD*%
%TO.C,D39*%
X258138000Y-144710000D03*
X261438000Y-144710000D03*
%TD*%
%TO.C,D38*%
X239088000Y-144710000D03*
X242388000Y-144710000D03*
%TD*%
%TO.C,D37*%
X220038000Y-144710000D03*
X223338000Y-144710000D03*
%TD*%
%TO.C,D36*%
X200988000Y-144710000D03*
X204288000Y-144710000D03*
%TD*%
%TO.C,D35*%
X181938000Y-144710000D03*
X185238000Y-144710000D03*
%TD*%
%TO.C,D34*%
X162888000Y-144710000D03*
X166188000Y-144710000D03*
%TD*%
%TO.C,D33*%
X143838000Y-144710000D03*
X147138000Y-144710000D03*
%TD*%
%TO.C,D32*%
X124788000Y-144710000D03*
X128088000Y-144710000D03*
%TD*%
%TO.C,D31*%
X105738000Y-144710000D03*
X109038000Y-144710000D03*
%TD*%
%TO.C,D30*%
X79543800Y-144710000D03*
X82843800Y-144710000D03*
%TD*%
%TO.C,D29*%
X334338000Y-125660000D03*
X337638000Y-125660000D03*
%TD*%
%TO.C,D28*%
X310525000Y-125660000D03*
X313825000Y-125660000D03*
%TD*%
%TO.C,D27*%
X291475000Y-125660000D03*
X294775000Y-125660000D03*
%TD*%
%TO.C,D26*%
X272425000Y-125660000D03*
X275725000Y-125660000D03*
%TD*%
%TO.C,D25*%
X253375000Y-125660000D03*
X256675000Y-125660000D03*
%TD*%
%TO.C,D24*%
X234325000Y-125660000D03*
X237625000Y-125660000D03*
%TD*%
%TO.C,D23*%
X215275000Y-125660000D03*
X218575000Y-125660000D03*
%TD*%
%TO.C,D22*%
X196225000Y-125660000D03*
X199525000Y-125660000D03*
%TD*%
%TO.C,D21*%
X177175000Y-125660000D03*
X180475000Y-125660000D03*
%TD*%
%TO.C,D20*%
X158125000Y-125660000D03*
X161425000Y-125660000D03*
%TD*%
%TO.C,D19*%
X139075000Y-125660000D03*
X142375000Y-125660000D03*
%TD*%
%TO.C,D18*%
X120025000Y-125660000D03*
X123325000Y-125660000D03*
%TD*%
%TO.C,D17*%
X100975000Y-125660000D03*
X104275000Y-125660000D03*
%TD*%
%TO.C,D16*%
X77162500Y-125660000D03*
X80462500Y-125660000D03*
%TD*%
%TO.C,D15*%
X339100000Y-106610000D03*
X342400000Y-106610000D03*
%TD*%
%TO.C,D14*%
X320050000Y-106610000D03*
X323350000Y-106610000D03*
%TD*%
%TO.C,D13*%
X301000000Y-106610000D03*
X304300000Y-106610000D03*
%TD*%
%TO.C,D12*%
X281950000Y-106610000D03*
X285250000Y-106610000D03*
%TD*%
%TO.C,D11*%
X262900000Y-106610000D03*
X266200000Y-106610000D03*
%TD*%
%TO.C,D10*%
X243850000Y-106610000D03*
X247150000Y-106610000D03*
%TD*%
%TO.C,D9*%
X224800000Y-106610000D03*
X228100000Y-106610000D03*
%TD*%
%TO.C,D8*%
X205750000Y-106610000D03*
X209050000Y-106610000D03*
%TD*%
%TO.C,D7*%
X186700000Y-106610000D03*
X190000000Y-106610000D03*
%TD*%
%TO.C,D6*%
X167650000Y-106610000D03*
X170950000Y-106610000D03*
%TD*%
%TO.C,D5*%
X148600000Y-106610000D03*
X151900000Y-106610000D03*
%TD*%
%TO.C,D4*%
X129550000Y-106610000D03*
X132850000Y-106610000D03*
%TD*%
%TO.C,D3*%
X110500000Y-106610000D03*
X113800000Y-106610000D03*
%TD*%
%TO.C,D2*%
X91450000Y-106797000D03*
X94750000Y-106797000D03*
%TD*%
%TO.C,D1*%
X72400000Y-106610000D03*
X75700000Y-106610000D03*
%TD*%
M02*
