%TF.GenerationSoftware,KiCad,Pcbnew,(5.1.9)-1*%
%TF.CreationDate,2021-04-22T03:27:36+09:00*%
%TF.ProjectId,yuiop60hh4,7975696f-7036-4306-9868-342e6b696361,4*%
%TF.SameCoordinates,Original*%
%TF.FileFunction,Profile,NP*%
%FSLAX46Y46*%
G04 Gerber Fmt 4.6, Leading zero omitted, Abs format (unit mm)*
G04 Created by KiCad (PCBNEW (5.1.9)-1) date 2021-04-22 03:27:36*
%MOMM*%
%LPD*%
G01*
G04 APERTURE LIST*
%TA.AperFunction,Profile*%
%ADD10C,0.050000*%
%TD*%
%TA.AperFunction,Profile*%
%ADD11C,0.120000*%
%TD*%
G04 APERTURE END LIST*
D10*
X71666666Y-194610000D02*
G75*
G03*
X71666666Y-194610000I-1666666J0D01*
G01*
X67500000Y-194610000D02*
X72500000Y-194610000D01*
X70000000Y-192110000D02*
X70000000Y-197110000D01*
X356666666Y-194610000D02*
G75*
G03*
X356666666Y-194610000I-1666666J0D01*
G01*
X352500000Y-194610000D02*
X357500000Y-194610000D01*
X355000000Y-192110000D02*
X355000000Y-197110000D01*
X355000000Y-192610000D02*
G75*
G02*
X353000000Y-194610000I-2000000J0D01*
G01*
X353000000Y-100010000D02*
G75*
G02*
X355000000Y-102010000I0J-2000000D01*
G01*
X70000000Y-102000000D02*
G75*
G02*
X72000000Y-100000000I2000000J0D01*
G01*
X72000000Y-194610000D02*
G75*
G02*
X70000000Y-192610000I0J2000000D01*
G01*
X72000000Y-194610000D02*
X353000000Y-194610000D01*
X70000000Y-102000000D02*
X70000000Y-192610000D01*
X353000000Y-100010000D02*
X72000000Y-100000000D01*
X355000000Y-192610000D02*
X355000000Y-102010000D01*
X214166666Y-100010000D02*
G75*
G03*
X214166666Y-100010000I-1666666J0D01*
G01*
X210000000Y-100010000D02*
X215000000Y-100010000D01*
X212500000Y-97510000D02*
X212500000Y-102510000D01*
X214166666Y-194610000D02*
G75*
G03*
X214166666Y-194610000I-1666666J0D01*
G01*
X210000000Y-194610000D02*
X215000000Y-194610000D01*
X212500000Y-192110000D02*
X212500000Y-197110000D01*
X214166666Y-147310000D02*
G75*
G03*
X214166666Y-147310000I-1666666J0D01*
G01*
X210000000Y-147310000D02*
X215000000Y-147310000D01*
X212500000Y-144810000D02*
X212500000Y-149810000D01*
X356666666Y-100010000D02*
G75*
G03*
X356666666Y-100010000I-1666666J0D01*
G01*
X352500000Y-100010000D02*
X357500000Y-100010000D01*
X355000000Y-97510000D02*
X355000000Y-102510000D01*
X71666666Y-100000000D02*
G75*
G03*
X71666666Y-100000000I-1666666J0D01*
G01*
X67500000Y-100000000D02*
X72500000Y-100000000D01*
X70000000Y-97500000D02*
X70000000Y-102500000D01*
D11*
%TO.C,LED5*%
X347009000Y-183891000D02*
X350609000Y-183891000D01*
X350609000Y-183891000D02*
X350609000Y-186991000D01*
X350609000Y-186991000D02*
X347009000Y-186991000D01*
X347009000Y-186991000D02*
X347009000Y-183891000D01*
%TO.C,LED4*%
X338443000Y-183891000D02*
X342043000Y-183891000D01*
X342043000Y-183891000D02*
X342043000Y-186991000D01*
X342043000Y-186991000D02*
X338443000Y-186991000D01*
X338443000Y-186991000D02*
X338443000Y-183891000D01*
%TO.C,LED3*%
X329877000Y-183891000D02*
X333477000Y-183891000D01*
X333477000Y-183891000D02*
X333477000Y-186991000D01*
X333477000Y-186991000D02*
X329877000Y-186991000D01*
X329877000Y-186991000D02*
X329877000Y-183891000D01*
%TO.C,LED2*%
X321311000Y-183891000D02*
X324911000Y-183891000D01*
X324911000Y-183891000D02*
X324911000Y-186991000D01*
X324911000Y-186991000D02*
X321311000Y-186991000D01*
X321311000Y-186991000D02*
X321311000Y-183891000D01*
%TO.C,LED1*%
X312744000Y-183891000D02*
X316344000Y-183891000D01*
X316344000Y-183891000D02*
X316344000Y-186991000D01*
X316344000Y-186991000D02*
X312744000Y-186991000D01*
X312744000Y-186991000D02*
X312744000Y-183891000D01*
%TD*%
M02*
