%TF.GenerationSoftware,KiCad,Pcbnew,(5.1.9)-1*%
%TF.CreationDate,2021-04-22T03:27:36+09:00*%
%TF.ProjectId,yuiop60hh4,7975696f-7036-4306-9868-342e6b696361,4*%
%TF.SameCoordinates,Original*%
%TF.FileFunction,Paste,Bot*%
%TF.FilePolarity,Positive*%
%FSLAX46Y46*%
G04 Gerber Fmt 4.6, Leading zero omitted, Abs format (unit mm)*
G04 Created by KiCad (PCBNEW (5.1.9)-1) date 2021-04-22 03:27:36*
%MOMM*%
%LPD*%
G01*
G04 APERTURE LIST*
%ADD10R,1.430000X2.500000*%
%ADD11R,0.400000X1.650000*%
%ADD12R,2.000000X1.500000*%
%ADD13R,1.825000X0.700000*%
%ADD14R,1.350000X2.000000*%
%ADD15R,2.550000X2.500000*%
%ADD16R,0.550000X1.500000*%
%ADD17R,1.500000X0.550000*%
%ADD18R,1.700000X1.000000*%
%ADD19R,1.400000X1.200000*%
%ADD20R,1.300000X1.550000*%
%ADD21R,1.200000X0.900000*%
%ADD22R,0.900000X1.200000*%
G04 APERTURE END LIST*
D10*
%TO.C,J1*%
X89135000Y-101450000D03*
X87215000Y-101450000D03*
D11*
X89475000Y-104600000D03*
X88825000Y-104600000D03*
X88175000Y-104600000D03*
X87525000Y-104600000D03*
X86875000Y-104600000D03*
D12*
X91075000Y-104720000D03*
X85325000Y-104700000D03*
D13*
X91175000Y-103400000D03*
X85225000Y-103400000D03*
D14*
X85445000Y-102650000D03*
X90925000Y-102650000D03*
%TD*%
D15*
%TO.C,KSW60*%
X304067000Y-180330000D03*
X291140000Y-182870000D03*
%TD*%
%TO.C,KSW59*%
X280255000Y-180330000D03*
X267328000Y-182870000D03*
%TD*%
%TO.C,KSW58*%
X208817000Y-180330000D03*
X195890000Y-182870000D03*
%TD*%
%TO.C,KSW57*%
X137379000Y-180330000D03*
X124452000Y-182870000D03*
%TD*%
%TO.C,KSW56*%
X113567000Y-180330000D03*
X100640000Y-182870000D03*
%TD*%
%TO.C,KSW55*%
X340008000Y-171440000D03*
X352935000Y-168900000D03*
%TD*%
%TO.C,KSW54*%
X313814000Y-171440000D03*
X326741000Y-168900000D03*
%TD*%
%TO.C,KSW53*%
X287621000Y-171440000D03*
X300548000Y-168900000D03*
%TD*%
%TO.C,KSW52*%
X268571000Y-171440000D03*
X281498000Y-168900000D03*
%TD*%
%TO.C,KSW51*%
X249521000Y-171440000D03*
X262448000Y-168900000D03*
%TD*%
%TO.C,KSW50*%
X230471000Y-171440000D03*
X243398000Y-168900000D03*
%TD*%
%TO.C,KSW49*%
X211421000Y-171440000D03*
X224348000Y-168900000D03*
%TD*%
%TO.C,KSW48*%
X204055000Y-161280000D03*
X191128000Y-163820000D03*
%TD*%
%TO.C,KSW47*%
X173321000Y-171440000D03*
X186248000Y-168900000D03*
%TD*%
%TO.C,KSW46*%
X154271000Y-171440000D03*
X167198000Y-168900000D03*
%TD*%
%TO.C,KSW45*%
X135221000Y-171440000D03*
X148148000Y-168900000D03*
%TD*%
%TO.C,KSW44*%
X116171000Y-171440000D03*
X129098000Y-168900000D03*
%TD*%
%TO.C,KSW43*%
X85214200Y-171440000D03*
X98141200Y-168900000D03*
%TD*%
%TO.C,KSW42*%
X328102000Y-152390000D03*
X341029000Y-149850000D03*
%TD*%
%TO.C,KSW41*%
X297145000Y-152390000D03*
X310072000Y-149850000D03*
%TD*%
%TO.C,KSW40*%
X278095000Y-152390000D03*
X291022000Y-149850000D03*
%TD*%
%TO.C,KSW39*%
X259045000Y-152390000D03*
X271972000Y-149850000D03*
%TD*%
%TO.C,KSW38*%
X239995000Y-152390000D03*
X252922000Y-149850000D03*
%TD*%
%TO.C,KSW37*%
X220945000Y-152390000D03*
X233872000Y-149850000D03*
%TD*%
%TO.C,KSW36*%
X201895000Y-152390000D03*
X214822000Y-149850000D03*
%TD*%
%TO.C,KSW35*%
X194529000Y-142230000D03*
X181602000Y-144770000D03*
%TD*%
%TO.C,KSW34*%
X163795000Y-152390000D03*
X176722000Y-149850000D03*
%TD*%
%TO.C,KSW33*%
X144745000Y-152390000D03*
X157672000Y-149850000D03*
%TD*%
%TO.C,KSW32*%
X125695000Y-152390000D03*
X138622000Y-149850000D03*
%TD*%
%TO.C,KSW31*%
X106645000Y-152390000D03*
X119572000Y-149850000D03*
%TD*%
%TO.C,KSW30*%
X80451800Y-152390000D03*
X93378800Y-149850000D03*
%TD*%
%TO.C,KSW29*%
X335245000Y-133340000D03*
X348172000Y-130800000D03*
%TD*%
%TO.C,KSW28*%
X311433000Y-133340000D03*
X324360000Y-130800000D03*
%TD*%
%TO.C,KSW27*%
X292383000Y-133340000D03*
X305310000Y-130800000D03*
%TD*%
%TO.C,KSW26*%
X273333000Y-133340000D03*
X286260000Y-130800000D03*
%TD*%
%TO.C,KSW25*%
X254283000Y-133340000D03*
X267210000Y-130800000D03*
%TD*%
%TO.C,KSW24*%
X235233000Y-133340000D03*
X248160000Y-130800000D03*
%TD*%
%TO.C,KSW23*%
X216183000Y-133340000D03*
X229110000Y-130800000D03*
%TD*%
%TO.C,KSW22*%
X197133000Y-133340000D03*
X210060000Y-130800000D03*
%TD*%
%TO.C,KSW21*%
X178083000Y-133340000D03*
X191010000Y-130800000D03*
%TD*%
%TO.C,KSW20*%
X159033000Y-133340000D03*
X171960000Y-130800000D03*
%TD*%
%TO.C,KSW19*%
X139983000Y-133340000D03*
X152910000Y-130800000D03*
%TD*%
%TO.C,KSW18*%
X120933000Y-133340000D03*
X133860000Y-130800000D03*
%TD*%
%TO.C,KSW17*%
X101883000Y-133340000D03*
X114810000Y-130800000D03*
%TD*%
%TO.C,KSW16*%
X78070500Y-133340000D03*
X90997500Y-130800000D03*
%TD*%
%TO.C,KSW15*%
X340008000Y-114290000D03*
X352935000Y-111750000D03*
%TD*%
%TO.C,KSW14*%
X320958000Y-114290000D03*
X333885000Y-111750000D03*
%TD*%
%TO.C,KSW13*%
X313592000Y-104130000D03*
X300665000Y-106670000D03*
%TD*%
%TO.C,KSW12*%
X282858000Y-114290000D03*
X295785000Y-111750000D03*
%TD*%
%TO.C,KSW11*%
X263808000Y-114290000D03*
X276735000Y-111750000D03*
%TD*%
%TO.C,KSW10*%
X244758000Y-114290000D03*
X257685000Y-111750000D03*
%TD*%
%TO.C,KSW9*%
X225708000Y-114290000D03*
X238635000Y-111750000D03*
%TD*%
%TO.C,KSW8*%
X218342000Y-104130000D03*
X205415000Y-106670000D03*
%TD*%
%TO.C,KSW7*%
X187608000Y-114290000D03*
X200535000Y-111750000D03*
%TD*%
%TO.C,KSW6*%
X168558000Y-114290000D03*
X181485000Y-111750000D03*
%TD*%
%TO.C,KSW5*%
X149508000Y-114290000D03*
X162435000Y-111750000D03*
%TD*%
%TO.C,KSW4*%
X130458000Y-114290000D03*
X143385000Y-111750000D03*
%TD*%
%TO.C,KSW3*%
X123092000Y-104130000D03*
X110165000Y-106670000D03*
%TD*%
%TO.C,KSW2*%
X92358000Y-114290000D03*
X105285000Y-111750000D03*
%TD*%
%TO.C,KSW1*%
X73308000Y-114290000D03*
X86235000Y-111750000D03*
%TD*%
D16*
%TO.C,U1*%
X168743000Y-178374000D03*
X169543000Y-178374000D03*
X170343000Y-178374000D03*
X171143000Y-178374000D03*
X171943000Y-178374000D03*
X172743000Y-178374000D03*
X173543000Y-178374000D03*
X174343000Y-178374000D03*
X175143000Y-178374000D03*
X175943000Y-178374000D03*
X176743000Y-178374000D03*
D17*
X178443000Y-180074000D03*
X178443000Y-180874000D03*
X178443000Y-181674000D03*
X178443000Y-182474000D03*
X178443000Y-183274000D03*
X178443000Y-184074000D03*
X178443000Y-184874000D03*
X178443000Y-185674000D03*
X178443000Y-186474000D03*
X178443000Y-187274000D03*
X178443000Y-188074000D03*
D16*
X176743000Y-189774000D03*
X175943000Y-189774000D03*
X175143000Y-189774000D03*
X174343000Y-189774000D03*
X173543000Y-189774000D03*
X172743000Y-189774000D03*
X171943000Y-189774000D03*
X171143000Y-189774000D03*
X170343000Y-189774000D03*
X169543000Y-189774000D03*
X168743000Y-189774000D03*
D17*
X167043000Y-188074000D03*
X167043000Y-187274000D03*
X167043000Y-186474000D03*
X167043000Y-185674000D03*
X167043000Y-184874000D03*
X167043000Y-184074000D03*
X167043000Y-183274000D03*
X167043000Y-182474000D03*
X167043000Y-181674000D03*
X167043000Y-180874000D03*
X167043000Y-180074000D03*
%TD*%
D18*
%TO.C,LED5*%
X351559000Y-186141000D03*
X351559000Y-184741000D03*
X346059000Y-186141000D03*
X346059000Y-184741000D03*
%TD*%
%TO.C,LED4*%
X342993000Y-186141000D03*
X342993000Y-184741000D03*
X337493000Y-186141000D03*
X337493000Y-184741000D03*
%TD*%
%TO.C,LED3*%
X334427000Y-186141000D03*
X334427000Y-184741000D03*
X328927000Y-186141000D03*
X328927000Y-184741000D03*
%TD*%
%TO.C,LED2*%
X325861000Y-186141000D03*
X325861000Y-184741000D03*
X320361000Y-186141000D03*
X320361000Y-184741000D03*
%TD*%
%TO.C,LED1*%
X317294000Y-186141000D03*
X317294000Y-184741000D03*
X311794000Y-186141000D03*
X311794000Y-184741000D03*
%TD*%
%TO.C,C5*%
G36*
G01*
X184250000Y-182575500D02*
X184250000Y-182100500D01*
G75*
G02*
X184487500Y-181863000I237500J0D01*
G01*
X185087500Y-181863000D01*
G75*
G02*
X185325000Y-182100500I0J-237500D01*
G01*
X185325000Y-182575500D01*
G75*
G02*
X185087500Y-182813000I-237500J0D01*
G01*
X184487500Y-182813000D01*
G75*
G02*
X184250000Y-182575500I0J237500D01*
G01*
G37*
G36*
G01*
X182525000Y-182575500D02*
X182525000Y-182100500D01*
G75*
G02*
X182762500Y-181863000I237500J0D01*
G01*
X183362500Y-181863000D01*
G75*
G02*
X183600000Y-182100500I0J-237500D01*
G01*
X183600000Y-182575500D01*
G75*
G02*
X183362500Y-182813000I-237500J0D01*
G01*
X182762500Y-182813000D01*
G75*
G02*
X182525000Y-182575500I0J237500D01*
G01*
G37*
%TD*%
%TO.C,R2*%
G36*
G01*
X161738000Y-190280500D02*
X161738000Y-189805500D01*
G75*
G02*
X161975500Y-189568000I237500J0D01*
G01*
X162475500Y-189568000D01*
G75*
G02*
X162713000Y-189805500I0J-237500D01*
G01*
X162713000Y-190280500D01*
G75*
G02*
X162475500Y-190518000I-237500J0D01*
G01*
X161975500Y-190518000D01*
G75*
G02*
X161738000Y-190280500I0J237500D01*
G01*
G37*
G36*
G01*
X159913000Y-190280500D02*
X159913000Y-189805500D01*
G75*
G02*
X160150500Y-189568000I237500J0D01*
G01*
X160650500Y-189568000D01*
G75*
G02*
X160888000Y-189805500I0J-237500D01*
G01*
X160888000Y-190280500D01*
G75*
G02*
X160650500Y-190518000I-237500J0D01*
G01*
X160150500Y-190518000D01*
G75*
G02*
X159913000Y-190280500I0J237500D01*
G01*
G37*
%TD*%
D19*
%TO.C,X1*%
X188561000Y-184643000D03*
X190961000Y-184643000D03*
X190961000Y-182743000D03*
X188561000Y-182743000D03*
%TD*%
%TO.C,C8*%
G36*
G01*
X161644000Y-178662500D02*
X161644000Y-178187500D01*
G75*
G02*
X161881500Y-177950000I237500J0D01*
G01*
X162481500Y-177950000D01*
G75*
G02*
X162719000Y-178187500I0J-237500D01*
G01*
X162719000Y-178662500D01*
G75*
G02*
X162481500Y-178900000I-237500J0D01*
G01*
X161881500Y-178900000D01*
G75*
G02*
X161644000Y-178662500I0J237500D01*
G01*
G37*
G36*
G01*
X159919000Y-178662500D02*
X159919000Y-178187500D01*
G75*
G02*
X160156500Y-177950000I237500J0D01*
G01*
X160756500Y-177950000D01*
G75*
G02*
X160994000Y-178187500I0J-237500D01*
G01*
X160994000Y-178662500D01*
G75*
G02*
X160756500Y-178900000I-237500J0D01*
G01*
X160156500Y-178900000D01*
G75*
G02*
X159919000Y-178662500I0J237500D01*
G01*
G37*
%TD*%
%TO.C,C7*%
G36*
G01*
X160988000Y-182060500D02*
X160988000Y-182535500D01*
G75*
G02*
X160750500Y-182773000I-237500J0D01*
G01*
X160150500Y-182773000D01*
G75*
G02*
X159913000Y-182535500I0J237500D01*
G01*
X159913000Y-182060500D01*
G75*
G02*
X160150500Y-181823000I237500J0D01*
G01*
X160750500Y-181823000D01*
G75*
G02*
X160988000Y-182060500I0J-237500D01*
G01*
G37*
G36*
G01*
X162713000Y-182060500D02*
X162713000Y-182535500D01*
G75*
G02*
X162475500Y-182773000I-237500J0D01*
G01*
X161875500Y-182773000D01*
G75*
G02*
X161638000Y-182535500I0J237500D01*
G01*
X161638000Y-182060500D01*
G75*
G02*
X161875500Y-181823000I237500J0D01*
G01*
X162475500Y-181823000D01*
G75*
G02*
X162713000Y-182060500I0J-237500D01*
G01*
G37*
%TD*%
%TO.C,C2*%
G36*
G01*
X189436000Y-187392500D02*
X189436000Y-187867500D01*
G75*
G02*
X189198500Y-188105000I-237500J0D01*
G01*
X188598500Y-188105000D01*
G75*
G02*
X188361000Y-187867500I0J237500D01*
G01*
X188361000Y-187392500D01*
G75*
G02*
X188598500Y-187155000I237500J0D01*
G01*
X189198500Y-187155000D01*
G75*
G02*
X189436000Y-187392500I0J-237500D01*
G01*
G37*
G36*
G01*
X191161000Y-187392500D02*
X191161000Y-187867500D01*
G75*
G02*
X190923500Y-188105000I-237500J0D01*
G01*
X190323500Y-188105000D01*
G75*
G02*
X190086000Y-187867500I0J237500D01*
G01*
X190086000Y-187392500D01*
G75*
G02*
X190323500Y-187155000I237500J0D01*
G01*
X190923500Y-187155000D01*
G75*
G02*
X191161000Y-187392500I0J-237500D01*
G01*
G37*
%TD*%
%TO.C,C1*%
G36*
G01*
X188361000Y-179866500D02*
X188361000Y-179391500D01*
G75*
G02*
X188598500Y-179154000I237500J0D01*
G01*
X189198500Y-179154000D01*
G75*
G02*
X189436000Y-179391500I0J-237500D01*
G01*
X189436000Y-179866500D01*
G75*
G02*
X189198500Y-180104000I-237500J0D01*
G01*
X188598500Y-180104000D01*
G75*
G02*
X188361000Y-179866500I0J237500D01*
G01*
G37*
G36*
G01*
X190086000Y-179866500D02*
X190086000Y-179391500D01*
G75*
G02*
X190323500Y-179154000I237500J0D01*
G01*
X190923500Y-179154000D01*
G75*
G02*
X191161000Y-179391500I0J-237500D01*
G01*
X191161000Y-179866500D01*
G75*
G02*
X190923500Y-180104000I-237500J0D01*
G01*
X190323500Y-180104000D01*
G75*
G02*
X190086000Y-179866500I0J237500D01*
G01*
G37*
%TD*%
D20*
%TO.C,RSW1*%
X96900000Y-152175000D03*
X101400000Y-152175000D03*
X101400000Y-144225000D03*
X96900000Y-144225000D03*
%TD*%
%TO.C,R4*%
G36*
G01*
X104680000Y-167900500D02*
X104680000Y-168375500D01*
G75*
G02*
X104442500Y-168613000I-237500J0D01*
G01*
X103942500Y-168613000D01*
G75*
G02*
X103705000Y-168375500I0J237500D01*
G01*
X103705000Y-167900500D01*
G75*
G02*
X103942500Y-167663000I237500J0D01*
G01*
X104442500Y-167663000D01*
G75*
G02*
X104680000Y-167900500I0J-237500D01*
G01*
G37*
G36*
G01*
X102855000Y-167900500D02*
X102855000Y-168375500D01*
G75*
G02*
X102617500Y-168613000I-237500J0D01*
G01*
X102117500Y-168613000D01*
G75*
G02*
X101880000Y-168375500I0J237500D01*
G01*
X101880000Y-167900500D01*
G75*
G02*
X102117500Y-167663000I237500J0D01*
G01*
X102617500Y-167663000D01*
G75*
G02*
X102855000Y-167900500I0J-237500D01*
G01*
G37*
%TD*%
%TO.C,R3*%
G36*
G01*
X104680000Y-164598500D02*
X104680000Y-165073500D01*
G75*
G02*
X104442500Y-165311000I-237500J0D01*
G01*
X103942500Y-165311000D01*
G75*
G02*
X103705000Y-165073500I0J237500D01*
G01*
X103705000Y-164598500D01*
G75*
G02*
X103942500Y-164361000I237500J0D01*
G01*
X104442500Y-164361000D01*
G75*
G02*
X104680000Y-164598500I0J-237500D01*
G01*
G37*
G36*
G01*
X102855000Y-164598500D02*
X102855000Y-165073500D01*
G75*
G02*
X102617500Y-165311000I-237500J0D01*
G01*
X102117500Y-165311000D01*
G75*
G02*
X101880000Y-165073500I0J237500D01*
G01*
X101880000Y-164598500D01*
G75*
G02*
X102117500Y-164361000I237500J0D01*
G01*
X102617500Y-164361000D01*
G75*
G02*
X102855000Y-164598500I0J-237500D01*
G01*
G37*
%TD*%
%TO.C,R1*%
G36*
G01*
X183494000Y-178375500D02*
X183494000Y-178850500D01*
G75*
G02*
X183256500Y-179088000I-237500J0D01*
G01*
X182756500Y-179088000D01*
G75*
G02*
X182519000Y-178850500I0J237500D01*
G01*
X182519000Y-178375500D01*
G75*
G02*
X182756500Y-178138000I237500J0D01*
G01*
X183256500Y-178138000D01*
G75*
G02*
X183494000Y-178375500I0J-237500D01*
G01*
G37*
G36*
G01*
X185319000Y-178375500D02*
X185319000Y-178850500D01*
G75*
G02*
X185081500Y-179088000I-237500J0D01*
G01*
X184581500Y-179088000D01*
G75*
G02*
X184344000Y-178850500I0J237500D01*
G01*
X184344000Y-178375500D01*
G75*
G02*
X184581500Y-178138000I237500J0D01*
G01*
X185081500Y-178138000D01*
G75*
G02*
X185319000Y-178375500I0J-237500D01*
G01*
G37*
%TD*%
%TO.C,F1*%
G36*
G01*
X85033000Y-178943000D02*
X85033000Y-180193000D01*
G75*
G02*
X84783000Y-180443000I-250000J0D01*
G01*
X83858000Y-180443000D01*
G75*
G02*
X83608000Y-180193000I0J250000D01*
G01*
X83608000Y-178943000D01*
G75*
G02*
X83858000Y-178693000I250000J0D01*
G01*
X84783000Y-178693000D01*
G75*
G02*
X85033000Y-178943000I0J-250000D01*
G01*
G37*
G36*
G01*
X82058000Y-178943000D02*
X82058000Y-180193000D01*
G75*
G02*
X81808000Y-180443000I-250000J0D01*
G01*
X80883000Y-180443000D01*
G75*
G02*
X80633000Y-180193000I0J250000D01*
G01*
X80633000Y-178943000D01*
G75*
G02*
X80883000Y-178693000I250000J0D01*
G01*
X81808000Y-178693000D01*
G75*
G02*
X82058000Y-178943000I0J-250000D01*
G01*
G37*
%TD*%
D21*
%TO.C,D60*%
X288700000Y-189441000D03*
X288700000Y-186141000D03*
%TD*%
%TO.C,D59*%
X283938000Y-189441000D03*
X283938000Y-186141000D03*
%TD*%
%TO.C,D58*%
X212500000Y-189441000D03*
X212500000Y-186141000D03*
%TD*%
%TO.C,D57*%
X122012000Y-189441000D03*
X122012000Y-186141000D03*
%TD*%
%TO.C,D56*%
X117250000Y-189441000D03*
X117250000Y-186141000D03*
%TD*%
%TO.C,D55*%
X339850000Y-163260000D03*
X339850000Y-159960000D03*
%TD*%
%TO.C,D54*%
X313656000Y-163260000D03*
X313656000Y-159960000D03*
%TD*%
%TO.C,D53*%
X287463000Y-163260000D03*
X287463000Y-159960000D03*
%TD*%
%TO.C,D52*%
X268413000Y-163260000D03*
X268413000Y-159960000D03*
%TD*%
%TO.C,D51*%
X249363000Y-163260000D03*
X249363000Y-159960000D03*
%TD*%
%TO.C,D50*%
X230313000Y-163260000D03*
X230313000Y-159960000D03*
%TD*%
%TO.C,D49*%
X211263000Y-163260000D03*
X211263000Y-159960000D03*
%TD*%
%TO.C,D48*%
X202975000Y-172773000D03*
X202975000Y-169473000D03*
%TD*%
%TO.C,D47*%
X173163000Y-163260000D03*
X173163000Y-159960000D03*
%TD*%
%TO.C,D46*%
X154113000Y-163260000D03*
X154113000Y-159960000D03*
%TD*%
%TO.C,D45*%
X135063000Y-163260000D03*
X135063000Y-159960000D03*
%TD*%
%TO.C,D44*%
X116013000Y-163260000D03*
X116013000Y-159960000D03*
%TD*%
%TO.C,D43*%
X85056200Y-163260000D03*
X85056200Y-159960000D03*
%TD*%
%TO.C,D42*%
X327944000Y-144210000D03*
X327944000Y-140910000D03*
%TD*%
%TO.C,D41*%
X296987000Y-144210000D03*
X296987000Y-140910000D03*
%TD*%
%TO.C,D40*%
X277937000Y-144210000D03*
X277937000Y-140910000D03*
%TD*%
%TO.C,D39*%
X258887000Y-144210000D03*
X258887000Y-140910000D03*
%TD*%
%TO.C,D38*%
X239837000Y-144210000D03*
X239837000Y-140910000D03*
%TD*%
%TO.C,D37*%
X220787000Y-144210000D03*
X220787000Y-140910000D03*
%TD*%
%TO.C,D36*%
X201737000Y-144210000D03*
X201737000Y-140910000D03*
%TD*%
%TO.C,D35*%
X193450000Y-153723000D03*
X193450000Y-150423000D03*
%TD*%
%TO.C,D34*%
X163637000Y-144210000D03*
X163637000Y-140910000D03*
%TD*%
%TO.C,D33*%
X144587000Y-144210000D03*
X144587000Y-140910000D03*
%TD*%
%TO.C,D32*%
X125537000Y-144210000D03*
X125537000Y-140910000D03*
%TD*%
%TO.C,D31*%
X106487000Y-144210000D03*
X106487000Y-140910000D03*
%TD*%
%TO.C,D30*%
X80293800Y-144210000D03*
X80293800Y-140910000D03*
%TD*%
%TO.C,D29*%
X335087000Y-125160000D03*
X335087000Y-121860000D03*
%TD*%
%TO.C,D28*%
X311275000Y-125160000D03*
X311275000Y-121860000D03*
%TD*%
%TO.C,D27*%
X292225000Y-125160000D03*
X292225000Y-121860000D03*
%TD*%
%TO.C,D26*%
X273175000Y-125160000D03*
X273175000Y-121860000D03*
%TD*%
%TO.C,D25*%
X254125000Y-125160000D03*
X254125000Y-121860000D03*
%TD*%
%TO.C,D24*%
X235075000Y-125160000D03*
X235075000Y-121860000D03*
%TD*%
%TO.C,D23*%
X216025000Y-125160000D03*
X216025000Y-121860000D03*
%TD*%
%TO.C,D22*%
X196975000Y-125160000D03*
X196975000Y-121860000D03*
%TD*%
%TO.C,D21*%
X177925000Y-125160000D03*
X177925000Y-121860000D03*
%TD*%
%TO.C,D20*%
X158875000Y-125160000D03*
X158875000Y-121860000D03*
%TD*%
%TO.C,D19*%
X139825000Y-125160000D03*
X139825000Y-121860000D03*
%TD*%
%TO.C,D18*%
X120775000Y-125160000D03*
X120775000Y-121860000D03*
%TD*%
%TO.C,D17*%
X101725000Y-125160000D03*
X101725000Y-121860000D03*
%TD*%
%TO.C,D16*%
X77912500Y-125160000D03*
X77912500Y-121860000D03*
%TD*%
%TO.C,D15*%
X339850000Y-106110000D03*
X339850000Y-102810000D03*
%TD*%
%TO.C,D14*%
X320800000Y-106110000D03*
X320800000Y-102810000D03*
%TD*%
%TO.C,D13*%
X312513000Y-115622000D03*
X312513000Y-112322000D03*
%TD*%
%TO.C,D12*%
X282700000Y-106110000D03*
X282700000Y-102810000D03*
%TD*%
%TO.C,D11*%
X263650000Y-106110000D03*
X263650000Y-102810000D03*
%TD*%
%TO.C,D10*%
X244600000Y-106110000D03*
X244600000Y-102810000D03*
%TD*%
%TO.C,D9*%
X225550000Y-106110000D03*
X225550000Y-102810000D03*
%TD*%
%TO.C,D8*%
X217263000Y-115622000D03*
X217263000Y-112322000D03*
%TD*%
%TO.C,D7*%
X187497000Y-106097000D03*
X187497000Y-102797000D03*
%TD*%
%TO.C,D6*%
X168400000Y-106110000D03*
X168400000Y-102810000D03*
%TD*%
%TO.C,D5*%
X149350000Y-106110000D03*
X149350000Y-102810000D03*
%TD*%
%TO.C,D4*%
X130300000Y-106110000D03*
X130300000Y-102810000D03*
%TD*%
%TO.C,D3*%
X122012000Y-115622000D03*
X122012000Y-112322000D03*
%TD*%
%TO.C,D2*%
X104200000Y-106110000D03*
X104200000Y-102810000D03*
%TD*%
%TO.C,D1*%
X73175000Y-125145000D03*
X73175000Y-121845000D03*
%TD*%
D22*
%TO.C,D0*%
X87533000Y-179568000D03*
X90833000Y-179568000D03*
%TD*%
%TO.C,C6*%
G36*
G01*
X160988000Y-185932500D02*
X160988000Y-186407500D01*
G75*
G02*
X160750500Y-186645000I-237500J0D01*
G01*
X160150500Y-186645000D01*
G75*
G02*
X159913000Y-186407500I0J237500D01*
G01*
X159913000Y-185932500D01*
G75*
G02*
X160150500Y-185695000I237500J0D01*
G01*
X160750500Y-185695000D01*
G75*
G02*
X160988000Y-185932500I0J-237500D01*
G01*
G37*
G36*
G01*
X162713000Y-185932500D02*
X162713000Y-186407500D01*
G75*
G02*
X162475500Y-186645000I-237500J0D01*
G01*
X161875500Y-186645000D01*
G75*
G02*
X161638000Y-186407500I0J237500D01*
G01*
X161638000Y-185932500D01*
G75*
G02*
X161875500Y-185695000I237500J0D01*
G01*
X162475500Y-185695000D01*
G75*
G02*
X162713000Y-185932500I0J-237500D01*
G01*
G37*
%TD*%
%TO.C,C4*%
G36*
G01*
X184244000Y-186301500D02*
X184244000Y-185826500D01*
G75*
G02*
X184481500Y-185589000I237500J0D01*
G01*
X185081500Y-185589000D01*
G75*
G02*
X185319000Y-185826500I0J-237500D01*
G01*
X185319000Y-186301500D01*
G75*
G02*
X185081500Y-186539000I-237500J0D01*
G01*
X184481500Y-186539000D01*
G75*
G02*
X184244000Y-186301500I0J237500D01*
G01*
G37*
G36*
G01*
X182519000Y-186301500D02*
X182519000Y-185826500D01*
G75*
G02*
X182756500Y-185589000I237500J0D01*
G01*
X183356500Y-185589000D01*
G75*
G02*
X183594000Y-185826500I0J-237500D01*
G01*
X183594000Y-186301500D01*
G75*
G02*
X183356500Y-186539000I-237500J0D01*
G01*
X182756500Y-186539000D01*
G75*
G02*
X182519000Y-186301500I0J237500D01*
G01*
G37*
%TD*%
%TO.C,C3*%
G36*
G01*
X184244000Y-190026500D02*
X184244000Y-189551500D01*
G75*
G02*
X184481500Y-189314000I237500J0D01*
G01*
X185081500Y-189314000D01*
G75*
G02*
X185319000Y-189551500I0J-237500D01*
G01*
X185319000Y-190026500D01*
G75*
G02*
X185081500Y-190264000I-237500J0D01*
G01*
X184481500Y-190264000D01*
G75*
G02*
X184244000Y-190026500I0J237500D01*
G01*
G37*
G36*
G01*
X182519000Y-190026500D02*
X182519000Y-189551500D01*
G75*
G02*
X182756500Y-189314000I237500J0D01*
G01*
X183356500Y-189314000D01*
G75*
G02*
X183594000Y-189551500I0J-237500D01*
G01*
X183594000Y-190026500D01*
G75*
G02*
X183356500Y-190264000I-237500J0D01*
G01*
X182756500Y-190264000D01*
G75*
G02*
X182519000Y-190026500I0J237500D01*
G01*
G37*
%TD*%
M02*
