M48
; DRILL file {KiCad 8.0.4} date 2024-09-16T13:50:55+0900
; FORMAT={-:-/ absolute / inch / decimal}
; #@! TF.CreationDate,2024-09-16T13:50:55+09:00
; #@! TF.GenerationSoftware,Kicad,Pcbnew,8.0.4
; #@! TF.FileFunction,Plated,1,2,PTH
FMAT,2
INCH
; #@! TA.AperFunction,Plated,PTH,ViaDrill
T1C0.0118
; #@! TA.AperFunction,Plated,PTH,ComponentDrill
T2C0.0157
; #@! TA.AperFunction,Plated,PTH,ComponentDrill
T3C0.0236
; #@! TA.AperFunction,Plated,PTH,ComponentDrill
T4C0.0256
; #@! TA.AperFunction,Plated,PTH,ComponentDrill
T5C0.0335
; #@! TA.AperFunction,Plated,PTH,ComponentDrill
T6C0.0394
; #@! TA.AperFunction,Plated,PTH,ComponentDrill
T7C0.0787
%
G90
G05
T1
X3.8155Y-3.227
X3.843Y-2.937
X3.843Y-3.937
X3.843Y-4.687
X3.843Y-5.437
X3.9255Y-3.767
X3.9455Y-4.467
X3.9498Y-5.2578
X3.968Y-2.6245
X4.0455Y-2.257
X4.0805Y-2.932
X4.1155Y-2.512
X4.218Y-5.9495
X4.2805Y-2.337
X4.6555Y-5.437
X4.7805Y-2.6245
X4.7805Y-3.937
X4.9055Y-3.6245
X4.9055Y-5.1245
X5.4055Y-5.437
X5.5305Y-2.6245
X5.5305Y-3.937
X5.6255Y-1.817
X5.6555Y-3.6245
X5.6555Y-5.1245
X5.8555Y-2.0139
X5.8555Y-4.4779
X5.9005Y-4.7175
X6.1555Y-5.437
X6.218Y-2.1245
X6.2555Y-1.967
X6.2805Y-2.6245
X6.2805Y-3.937
X6.4055Y-3.6245
X6.4055Y-5.1245
X6.6555Y-1.7495
X6.7105Y-2.392
X6.9055Y-5.437
X7.0305Y-2.6245
X7.0305Y-3.937
X7.0405Y-5.877
X7.0505Y-1.882
X7.0505Y-2.0669
X7.1152Y-1.9893
X7.138Y-1.9656
X7.1555Y-2.1245
X7.1555Y-3.6245
X7.1555Y-5.1245
X7.4055Y-5.127
X7.4305Y-4.377
X7.4555Y-3.627
X7.4655Y-2.152
X7.593Y-2.562
X7.6555Y-5.437
X7.718Y-2.062
X7.7805Y-3.937
X7.8255Y-3.067
X7.8255Y-4.572
X7.8655Y-5.262
X7.8755Y-3.727
T2
X3.7516Y-2.712
X3.7516Y-3.462
X3.7516Y-4.212
X3.7516Y-4.962
X4.1266Y-5.712
X4.2605Y-2.612
X4.2605Y-3.362
X4.2605Y-4.112
X4.2605Y-4.862
X4.5016Y-2.712
X4.5016Y-3.462
X4.5016Y-4.212
X4.5016Y-4.962
X4.6355Y-5.612
X4.8766Y-5.712
X5.0105Y-2.612
X5.0105Y-3.362
X5.0105Y-4.112
X5.0105Y-4.862
X5.2516Y-2.712
X5.2516Y-3.462
X5.2516Y-4.212
X5.2516Y-4.962
X5.3855Y-5.612
X5.6266Y-5.712
X5.7605Y-2.612
X5.7605Y-3.362
X5.7605Y-4.112
X5.7605Y-4.862
X6.0016Y-2.712
X6.0016Y-3.462
X6.0016Y-4.212
X6.0016Y-4.962
X6.1355Y-5.612
X6.3766Y-5.712
X6.5105Y-2.612
X6.5105Y-3.362
X6.5105Y-4.112
X6.5105Y-4.862
X6.7516Y-2.712
X6.7516Y-3.462
X6.7516Y-4.212
X6.7516Y-4.962
X6.8855Y-5.612
X7.1266Y-5.712
X7.2605Y-2.612
X7.2605Y-3.362
X7.2605Y-4.112
X7.2605Y-4.862
X7.5016Y-2.712
X7.5016Y-3.462
X7.5016Y-4.212
X7.5016Y-4.962
X7.6355Y-5.612
X8.0105Y-2.612
X8.0105Y-3.362
X8.0105Y-4.112
X8.0105Y-4.862
T4
X6.8305Y-1.767
X6.8305Y-2.367
X6.8805Y-1.767
X6.8805Y-2.367
X6.9305Y-1.767
X6.9305Y-2.367
X6.9805Y-1.767
X6.9805Y-2.367
X7.0305Y-1.767
X7.0305Y-2.367
X7.0805Y-1.767
X7.0805Y-2.367
X7.1305Y-1.767
X7.1305Y-2.367
X7.1805Y-1.767
X7.1805Y-2.367
X7.2305Y-1.767
X7.2305Y-2.367
X7.2805Y-1.767
X7.2805Y-2.367
X7.3305Y-1.767
X7.3305Y-2.367
X7.3805Y-1.767
X7.3805Y-2.367
X7.4305Y-1.767
X7.4305Y-2.367
X7.4805Y-1.767
X7.4805Y-2.367
X7.5305Y-1.767
X7.5305Y-2.367
X7.5805Y-1.767
X7.5805Y-2.367
X7.6305Y-1.767
X7.6305Y-2.367
X7.6805Y-1.767
X7.6805Y-2.367
X7.7305Y-1.767
X7.7305Y-2.367
X7.7805Y-1.767
X7.7805Y-2.367
T5
X5.2087Y-1.9514
X5.2087Y-2.0514
X5.2087Y-2.1514
X5.2087Y-2.2514
T6
X4.1201Y-1.8898
X4.1201Y-2.0866
X4.6909Y-1.8898
X4.6909Y-1.9882
X4.6909Y-2.0866
T3
G00X5.7354Y-1.6829
M15
G01X5.7354Y-1.7065
M16
G05
G00X5.7354Y-1.8376
M15
G01X5.7354Y-1.8809
M16
G05
G00X6.0756Y-1.6829
M15
G01X6.0756Y-1.7065
M16
G05
G00X6.0756Y-1.8376
M15
G01X6.0756Y-1.8809
M16
G05
G00X6.415Y-1.8235
M15
G01X6.415Y-1.792
M16
G05
G00X6.415Y-1.9416
M15
G01X6.415Y-1.9101
M16
G05
G00X6.415Y-2.0991
M15
G01X6.415Y-2.0676
M16
G05
G00X6.5961Y-2.1463
M15
G01X6.5961Y-2.1148
M16
G05
T7
G00X4.4173Y-1.7677
M15
G01X4.374Y-1.7677
M16
G05
G00X4.4173Y-2.2087
M15
G01X4.374Y-2.2087
M16
G05
M30
