%TF.GenerationSoftware,KiCad,Pcbnew,8.0.4*%
%TF.CreationDate,2024-09-16T13:50:06+09:00*%
%TF.ProjectId,yuiop29re,7975696f-7032-4397-9265-2e6b69636164,1*%
%TF.SameCoordinates,Original*%
%TF.FileFunction,Profile,NP*%
%FSLAX46Y46*%
G04 Gerber Fmt 4.6, Leading zero omitted, Abs format (unit mm)*
G04 Created by KiCad (PCBNEW 8.0.4) date 2024-09-16 13:50:06*
%MOMM*%
%LPD*%
G01*
G04 APERTURE LIST*
%TA.AperFunction,Profile*%
%ADD10C,0.050000*%
%TD*%
G04 APERTURE END LIST*
D10*
X96250000Y-149750000D02*
G75*
G02*
X100250000Y-153750000I0J-4000000D01*
G01*
X96250000Y-50250000D02*
X93250000Y-50250000D01*
X206250000Y-149750000D02*
X203750000Y-149750000D01*
X93750000Y-149750000D02*
G75*
G02*
X91750000Y-147750000I0J2000000D01*
G01*
X100250000Y-46250000D02*
G75*
G02*
X96250000Y-50250000I-4000000J0D01*
G01*
X102250000Y-158250000D02*
G75*
G02*
X100250000Y-156250000I0J2000000D01*
G01*
X199750000Y-153750000D02*
G75*
G02*
X203750000Y-149750000I4000000J0D01*
G01*
X206250000Y-50250000D02*
X203750000Y-50250000D01*
X206250000Y-50250000D02*
G75*
G02*
X208250000Y-52250000I0J-2000000D01*
G01*
X91750000Y-147750000D02*
X91750000Y-51750000D01*
X208250000Y-147750000D02*
G75*
G02*
X206250000Y-149750000I-2000000J0D01*
G01*
X203750000Y-50250000D02*
G75*
G02*
X199750000Y-46250000I0J4000000D01*
G01*
X199750000Y-153750000D02*
X199750000Y-156250000D01*
X208250000Y-52250000D02*
X208250000Y-147750000D01*
X93750000Y-149750000D02*
X96250000Y-149750000D01*
X100250000Y-43750000D02*
G75*
G02*
X102250000Y-41750000I2000000J0D01*
G01*
X100250000Y-43750000D02*
X100250000Y-46250000D01*
X91750000Y-51750000D02*
G75*
G02*
X93250000Y-50250000I1500000J0D01*
G01*
X100250000Y-153750000D02*
X100250000Y-156250000D01*
X197750000Y-41750000D02*
G75*
G02*
X199750000Y-43750000I0J-2000000D01*
G01*
X199750000Y-156250000D02*
G75*
G02*
X197750000Y-158250000I-2000000J0D01*
G01*
X102250000Y-41750000D02*
X197750000Y-41750000D01*
X197750000Y-158250000D02*
X102250000Y-158250000D01*
X199750000Y-46250000D02*
X199750000Y-43750000D01*
M02*
