M48
; DRILL file {KiCad 8.0.4} date 2024-09-16T13:50:55+0900
; FORMAT={-:-/ absolute / inch / decimal}
; #@! TF.CreationDate,2024-09-16T13:50:55+09:00
; #@! TF.GenerationSoftware,Kicad,Pcbnew,8.0.4
; #@! TF.FileFunction,NonPlated,1,2,NPTH
FMAT,2
INCH
; #@! TA.AperFunction,NonPlated,NPTH,ComponentDrill
T1C0.0256
; #@! TA.AperFunction,NonPlated,NPTH,ComponentDrill
T2C0.0551
; #@! TA.AperFunction,NonPlated,NPTH,ComponentDrill
T3C0.0591
; #@! TA.AperFunction,NonPlated,NPTH,ComponentDrill
T4C0.0748
; #@! TA.AperFunction,NonPlated,NPTH,ComponentDrill
T5C0.0866
; #@! TA.AperFunction,NonPlated,NPTH,ComponentDrill
T6C0.0945
; #@! TA.AperFunction,NonPlated,NPTH,ComponentDrill
T7C0.1201
; #@! TA.AperFunction,NonPlated,NPTH,ComponentDrill
T8C0.1614
%
G90
G05
T1
X5.7917Y-1.8396
X6.0193Y-1.8396
T2
X6.5055Y-1.7447
X6.5055Y-2.0203
T4
X3.8305Y-2.812
X3.8305Y-3.562
X3.8305Y-4.312
X3.8305Y-5.062
X4.2055Y-5.812
X4.2305Y-2.812
X4.2305Y-3.562
X4.2305Y-4.312
X4.2305Y-5.062
X4.5805Y-2.812
X4.5805Y-3.562
X4.5805Y-4.312
X4.5805Y-5.062
X4.6055Y-5.812
X4.9555Y-5.812
X4.9805Y-2.812
X4.9805Y-3.562
X4.9805Y-4.312
X4.9805Y-5.062
X5.3305Y-2.812
X5.3305Y-3.562
X5.3305Y-4.312
X5.3305Y-5.062
X5.3555Y-5.812
X5.7055Y-5.812
X5.7305Y-2.812
X5.7305Y-3.562
X5.7305Y-4.312
X5.7305Y-5.062
X6.0805Y-2.812
X6.0805Y-3.562
X6.0805Y-4.312
X6.0805Y-5.062
X6.1055Y-5.812
X6.4555Y-5.812
X6.4805Y-2.812
X6.4805Y-3.562
X6.4805Y-4.312
X6.4805Y-5.062
X6.8305Y-2.812
X6.8305Y-3.562
X6.8305Y-4.312
X6.8305Y-5.062
X6.8555Y-5.812
X7.2055Y-5.812
X7.2305Y-2.812
X7.2305Y-3.562
X7.2305Y-4.312
X7.2305Y-5.062
X7.5805Y-2.812
X7.5805Y-3.562
X7.5805Y-4.312
X7.5805Y-5.062
X7.6055Y-5.812
X7.9805Y-2.812
X7.9805Y-3.562
X7.9805Y-4.312
X7.9805Y-5.062
T5
X3.8386Y-2.2047
X3.8386Y-5.6693
X5.9055Y-3.937
X7.9724Y-2.2047
X7.9724Y-5.6693
T6
X7.7305Y-1.9489
X7.7305Y-2.1851
T7
X3.8805Y-2.712
X3.8805Y-3.462
X3.8805Y-4.212
X3.8805Y-4.962
X4.1305Y-2.612
X4.1305Y-3.362
X4.1305Y-4.112
X4.1305Y-4.862
X4.2555Y-5.712
X4.5055Y-5.612
X4.6305Y-2.712
X4.6305Y-3.462
X4.6305Y-4.212
X4.6305Y-4.962
X4.8805Y-2.612
X4.8805Y-3.362
X4.8805Y-4.112
X4.8805Y-4.862
X5.0055Y-5.712
X5.2555Y-5.612
X5.3805Y-2.712
X5.3805Y-3.462
X5.3805Y-4.212
X5.3805Y-4.962
X5.6305Y-2.612
X5.6305Y-3.362
X5.6305Y-4.112
X5.6305Y-4.862
X5.7555Y-5.712
X6.0055Y-5.612
X6.1305Y-2.712
X6.1305Y-3.462
X6.1305Y-4.212
X6.1305Y-4.962
X6.3805Y-2.612
X6.3805Y-3.362
X6.3805Y-4.112
X6.3805Y-4.862
X6.5055Y-5.712
X6.7555Y-5.612
X6.8805Y-2.712
X6.8805Y-3.462
X6.8805Y-4.212
X6.8805Y-4.962
X7.1305Y-2.612
X7.1305Y-3.362
X7.1305Y-4.112
X7.1305Y-4.862
X7.2555Y-5.712
X7.5055Y-5.612
X7.6305Y-2.712
X7.6305Y-3.462
X7.6305Y-4.212
X7.6305Y-4.962
X7.8805Y-2.612
X7.8805Y-3.362
X7.8805Y-4.112
X7.8805Y-4.862
T8
X4.0305Y-2.812
X4.0305Y-3.562
X4.0305Y-4.312
X4.0305Y-5.062
X4.4055Y-5.812
X4.7805Y-2.812
X4.7805Y-3.562
X4.7805Y-4.312
X4.7805Y-5.062
X5.1555Y-5.812
X5.5305Y-2.812
X5.5305Y-3.562
X5.5305Y-4.312
X5.5305Y-5.062
X5.9055Y-5.812
X6.2805Y-2.812
X6.2805Y-3.562
X6.2805Y-4.312
X6.2805Y-5.062
X6.6555Y-5.812
X7.0305Y-2.812
X7.0305Y-3.562
X7.0305Y-4.312
X7.0305Y-5.062
X7.4055Y-5.812
X7.7805Y-2.812
X7.7805Y-3.562
X7.7805Y-4.312
X7.7805Y-5.062
T3
G00X4.0305Y-3.032
M15
G01X4.0305Y-2.967
M16
G05
G00X4.0305Y-3.717
M15
G01X4.0305Y-3.782
M16
G05
G00X4.0305Y-4.532
M15
G01X4.0305Y-4.467
M16
G05
G00X4.0305Y-5.217
M15
G01X4.0305Y-5.282
M16
G05
G00X4.4055Y-6.032
M15
G01X4.4055Y-5.967
M16
G05
G00X4.7805Y-3.032
M15
G01X4.7805Y-2.967
M16
G05
G00X4.7805Y-3.717
M15
G01X4.7805Y-3.782
M16
G05
G00X4.7805Y-4.532
M15
G01X4.7805Y-4.467
M16
G05
G00X4.7805Y-5.217
M15
G01X4.7805Y-5.282
M16
G05
G00X5.1555Y-6.032
M15
G01X5.1555Y-5.967
M16
G05
G00X5.5305Y-3.032
M15
G01X5.5305Y-2.967
M16
G05
G00X5.5305Y-3.717
M15
G01X5.5305Y-3.782
M16
G05
G00X5.5305Y-4.532
M15
G01X5.5305Y-4.467
M16
G05
G00X5.5305Y-5.217
M15
G01X5.5305Y-5.282
M16
G05
G00X5.9055Y-6.032
M15
G01X5.9055Y-5.967
M16
G05
G00X6.2805Y-3.032
M15
G01X6.2805Y-2.967
M16
G05
G00X6.2805Y-3.717
M15
G01X6.2805Y-3.782
M16
G05
G00X6.2805Y-4.532
M15
G01X6.2805Y-4.467
M16
G05
G00X6.2805Y-5.217
M15
G01X6.2805Y-5.282
M16
G05
G00X6.6555Y-6.032
M15
G01X6.6555Y-5.967
M16
G05
G00X7.0305Y-3.032
M15
G01X7.0305Y-2.967
M16
G05
G00X7.0305Y-3.717
M15
G01X7.0305Y-3.782
M16
G05
G00X7.0305Y-4.532
M15
G01X7.0305Y-4.467
M16
G05
G00X7.0305Y-5.217
M15
G01X7.0305Y-5.282
M16
G05
G00X7.4055Y-6.032
M15
G01X7.4055Y-5.967
M16
G05
G00X7.7805Y-3.032
M15
G01X7.7805Y-2.967
M16
G05
G00X7.7805Y-3.717
M15
G01X7.7805Y-3.782
M16
G05
G00X7.7805Y-4.532
M15
G01X7.7805Y-4.467
M16
G05
G00X7.7805Y-5.217
M15
G01X7.7805Y-5.282
M16
G05
M30
