%TF.GenerationSoftware,KiCad,Pcbnew,8.0.4*%
%TF.CreationDate,2024-09-16T13:50:06+09:00*%
%TF.ProjectId,yuiop29re,7975696f-7032-4397-9265-2e6b69636164,1*%
%TF.SameCoordinates,Original*%
%TF.FileFunction,Paste,Bot*%
%TF.FilePolarity,Positive*%
%FSLAX46Y46*%
G04 Gerber Fmt 4.6, Leading zero omitted, Abs format (unit mm)*
G04 Created by KiCad (PCBNEW 8.0.4) date 2024-09-16 13:50:06*
%MOMM*%
%LPD*%
G01*
G04 APERTURE LIST*
G04 Aperture macros list*
%AMRoundRect*
0 Rectangle with rounded corners*
0 $1 Rounding radius*
0 $2 $3 $4 $5 $6 $7 $8 $9 X,Y pos of 4 corners*
0 Add a 4 corners polygon primitive as box body*
4,1,4,$2,$3,$4,$5,$6,$7,$8,$9,$2,$3,0*
0 Add four circle primitives for the rounded corners*
1,1,$1+$1,$2,$3*
1,1,$1+$1,$4,$5*
1,1,$1+$1,$6,$7*
1,1,$1+$1,$8,$9*
0 Add four rect primitives between the rounded corners*
20,1,$1+$1,$2,$3,$4,$5,0*
20,1,$1+$1,$4,$5,$6,$7,0*
20,1,$1+$1,$6,$7,$8,$9,0*
20,1,$1+$1,$8,$9,$2,$3,0*%
G04 Aperture macros list end*
%ADD10R,0.600000X0.700000*%
%ADD11RoundRect,0.225000X0.375000X-0.225000X0.375000X0.225000X-0.375000X0.225000X-0.375000X-0.225000X0*%
%ADD12RoundRect,0.250000X-1.025000X-1.000000X1.025000X-1.000000X1.025000X1.000000X-1.025000X1.000000X0*%
%ADD13RoundRect,0.225000X-0.375000X0.225000X-0.375000X-0.225000X0.375000X-0.225000X0.375000X0.225000X0*%
%ADD14RoundRect,0.200000X-0.275000X0.200000X-0.275000X-0.200000X0.275000X-0.200000X0.275000X0.200000X0*%
%ADD15RoundRect,0.150000X-0.150000X-0.625000X0.150000X-0.625000X0.150000X0.625000X-0.150000X0.625000X0*%
%ADD16RoundRect,0.250000X-0.350000X-0.650000X0.350000X-0.650000X0.350000X0.650000X-0.350000X0.650000X0*%
%ADD17RoundRect,0.225000X-0.250000X0.225000X-0.250000X-0.225000X0.250000X-0.225000X0.250000X0.225000X0*%
%ADD18RoundRect,0.150000X0.587500X0.150000X-0.587500X0.150000X-0.587500X-0.150000X0.587500X-0.150000X0*%
%ADD19RoundRect,0.225000X0.250000X-0.225000X0.250000X0.225000X-0.250000X0.225000X-0.250000X-0.225000X0*%
%ADD20RoundRect,0.200000X0.275000X-0.200000X0.275000X0.200000X-0.275000X0.200000X-0.275000X-0.200000X0*%
%ADD21RoundRect,0.250000X-0.625000X0.375000X-0.625000X-0.375000X0.625000X-0.375000X0.625000X0.375000X0*%
%ADD22R,0.300000X1.150000*%
%ADD23R,0.300000X0.950000*%
G04 APERTURE END LIST*
D10*
%TO.C,LED21*%
X158275000Y-132787500D03*
X158275000Y-133887500D03*
X160775000Y-133887500D03*
X160775000Y-132787500D03*
%TD*%
D11*
%TO.C,D13*%
X110312500Y-111175000D03*
X110312500Y-107875000D03*
%TD*%
D12*
%TO.C,KSW12*%
X190540000Y-87935000D03*
X203467000Y-85395000D03*
%TD*%
D11*
%TO.C,D8*%
X129362500Y-92125000D03*
X129362500Y-88825000D03*
%TD*%
%TO.C,D26*%
X138887500Y-149275000D03*
X138887500Y-145975000D03*
%TD*%
D10*
%TO.C,LED7*%
X196375000Y-94687500D03*
X196375000Y-95787500D03*
X198875000Y-95787500D03*
X198875000Y-94687500D03*
%TD*%
%TO.C,LED16*%
X160775000Y-114837500D03*
X160775000Y-113737500D03*
X158275000Y-113737500D03*
X158275000Y-114837500D03*
%TD*%
%TO.C,LED20*%
X177325000Y-132787500D03*
X177325000Y-133887500D03*
X179825000Y-133887500D03*
X179825000Y-132787500D03*
%TD*%
%TO.C,LED27*%
X151250000Y-152937500D03*
X151250000Y-151837500D03*
X148750000Y-151837500D03*
X148750000Y-152937500D03*
%TD*%
%TO.C,LED1*%
X103625000Y-76737500D03*
X103625000Y-75637500D03*
X101125000Y-75637500D03*
X101125000Y-76737500D03*
%TD*%
D11*
%TO.C,D21*%
X148412500Y-130225000D03*
X148412500Y-126925000D03*
%TD*%
%TO.C,D11*%
X186512500Y-92125000D03*
X186512500Y-88825000D03*
%TD*%
D10*
%TO.C,LED29*%
X189350000Y-152937500D03*
X189350000Y-151837500D03*
X186850000Y-151837500D03*
X186850000Y-152937500D03*
%TD*%
%TO.C,LED3*%
X141725000Y-76737500D03*
X141725000Y-75637500D03*
X139225000Y-75637500D03*
X139225000Y-76737500D03*
%TD*%
D12*
%TO.C,KSW21*%
X133390000Y-126035000D03*
X146317000Y-123495000D03*
%TD*%
D11*
%TO.C,D9*%
X148412500Y-92125000D03*
X148412500Y-88825000D03*
%TD*%
%TO.C,D22*%
X167462500Y-130225000D03*
X167462500Y-126925000D03*
%TD*%
D10*
%TO.C,LED15*%
X141725000Y-114837500D03*
X141725000Y-113737500D03*
X139225000Y-113737500D03*
X139225000Y-114837500D03*
%TD*%
D11*
%TO.C,D5*%
X186512500Y-73075000D03*
X186512500Y-69775000D03*
%TD*%
D10*
%TO.C,LED6*%
X198875000Y-76737500D03*
X198875000Y-75637500D03*
X196375000Y-75637500D03*
X196375000Y-76737500D03*
%TD*%
D12*
%TO.C,KSW16*%
X152440000Y-106985000D03*
X165367000Y-104445000D03*
%TD*%
%TO.C,KSW11*%
X171490000Y-87935000D03*
X184417000Y-85395000D03*
%TD*%
D11*
%TO.C,D6*%
X205562500Y-73075000D03*
X205562500Y-69775000D03*
%TD*%
D12*
%TO.C,KSW15*%
X133390000Y-106985000D03*
X146317000Y-104445000D03*
%TD*%
D11*
%TO.C,D14*%
X129362500Y-111175000D03*
X129362500Y-107875000D03*
%TD*%
%TO.C,D7*%
X110312500Y-92125000D03*
X110312500Y-88825000D03*
%TD*%
%TO.C,D27*%
X157937500Y-149275000D03*
X157937500Y-145975000D03*
%TD*%
%TO.C,D10*%
X167462500Y-92125000D03*
X167462500Y-88825000D03*
%TD*%
D12*
%TO.C,KSW9*%
X133390000Y-87935000D03*
X146317000Y-85395000D03*
%TD*%
D10*
%TO.C,LED13*%
X103625000Y-114837500D03*
X103625000Y-113737500D03*
X101125000Y-113737500D03*
X101125000Y-114837500D03*
%TD*%
D12*
%TO.C,KSW18*%
X190540000Y-106985000D03*
X203467000Y-104445000D03*
%TD*%
D10*
%TO.C,LED26*%
X132200000Y-152937500D03*
X132200000Y-151837500D03*
X129700000Y-151837500D03*
X129700000Y-152937500D03*
%TD*%
D12*
%TO.C,KSW1*%
X95290000Y-68885000D03*
X108217000Y-66345000D03*
%TD*%
D10*
%TO.C,LED11*%
X120175000Y-94687500D03*
X120175000Y-95787500D03*
X122675000Y-95787500D03*
X122675000Y-94687500D03*
%TD*%
D11*
%TO.C,D3*%
X148412500Y-73075000D03*
X148412500Y-69775000D03*
%TD*%
%TO.C,D18*%
X205562500Y-111175000D03*
X205562500Y-107875000D03*
%TD*%
D12*
%TO.C,KSW27*%
X142915000Y-145085000D03*
X155842000Y-142545000D03*
%TD*%
D11*
%TO.C,D28*%
X176987500Y-149275000D03*
X176987500Y-145975000D03*
%TD*%
%TO.C,D25*%
X119837500Y-149275000D03*
X119837500Y-145975000D03*
%TD*%
D10*
%TO.C,LED23*%
X120175000Y-132787500D03*
X120175000Y-133887500D03*
X122675000Y-133887500D03*
X122675000Y-132787500D03*
%TD*%
%TO.C,LED14*%
X122675000Y-114837500D03*
X122675000Y-113737500D03*
X120175000Y-113737500D03*
X120175000Y-114837500D03*
%TD*%
%TO.C,LED28*%
X170300000Y-152937500D03*
X170300000Y-151837500D03*
X167800000Y-151837500D03*
X167800000Y-152937500D03*
%TD*%
D11*
%TO.C,D29*%
X196037500Y-149275000D03*
X196037500Y-145975000D03*
%TD*%
D12*
%TO.C,KSW24*%
X190540000Y-126035000D03*
X203467000Y-123495000D03*
%TD*%
D10*
%TO.C,LED10*%
X139225000Y-94687500D03*
X139225000Y-95787500D03*
X141725000Y-95787500D03*
X141725000Y-94687500D03*
%TD*%
D11*
%TO.C,D16*%
X167462500Y-111175000D03*
X167462500Y-107875000D03*
%TD*%
%TO.C,D15*%
X148412500Y-111175000D03*
X148412500Y-107875000D03*
%TD*%
%TO.C,D12*%
X205562500Y-92125000D03*
X205562500Y-88825000D03*
%TD*%
D12*
%TO.C,KSW28*%
X161965000Y-145085000D03*
X174892000Y-142545000D03*
%TD*%
D11*
%TO.C,D24*%
X205562500Y-130225000D03*
X205562500Y-126925000D03*
%TD*%
D12*
%TO.C,KSW25*%
X104815000Y-145085000D03*
X117742000Y-142545000D03*
%TD*%
%TO.C,KSW10*%
X152440000Y-87935000D03*
X165367000Y-85395000D03*
%TD*%
%TO.C,KSW19*%
X95290000Y-126035000D03*
X108217000Y-123495000D03*
%TD*%
D10*
%TO.C,LED2*%
X122675000Y-76737500D03*
X122675000Y-75637500D03*
X120175000Y-75637500D03*
X120175000Y-76737500D03*
%TD*%
%TO.C,LED17*%
X179825000Y-114837500D03*
X179825000Y-113737500D03*
X177325000Y-113737500D03*
X177325000Y-114837500D03*
%TD*%
%TO.C,LED25*%
X113150000Y-152937500D03*
X113150000Y-151837500D03*
X110650000Y-151837500D03*
X110650000Y-152937500D03*
%TD*%
D12*
%TO.C,KSW4*%
X152440000Y-68885000D03*
X165367000Y-66345000D03*
%TD*%
%TO.C,KSW22*%
X152440000Y-126035000D03*
X165367000Y-123495000D03*
%TD*%
%TO.C,KSW14*%
X114340000Y-106985000D03*
X127267000Y-104445000D03*
%TD*%
%TO.C,KSW20*%
X114340000Y-126035000D03*
X127267000Y-123495000D03*
%TD*%
D10*
%TO.C,LED19*%
X196375000Y-132787500D03*
X196375000Y-133887500D03*
X198875000Y-133887500D03*
X198875000Y-132787500D03*
%TD*%
%TO.C,LED18*%
X198875000Y-114837500D03*
X198875000Y-113737500D03*
X196375000Y-113737500D03*
X196375000Y-114837500D03*
%TD*%
D11*
%TO.C,D17*%
X186512500Y-111175000D03*
X186512500Y-107875000D03*
%TD*%
D12*
%TO.C,KSW13*%
X95290000Y-106985000D03*
X108217000Y-104445000D03*
%TD*%
D11*
%TO.C,D4*%
X167462500Y-73075000D03*
X167462500Y-69775000D03*
%TD*%
D12*
%TO.C,KSW23*%
X171490000Y-126035000D03*
X184417000Y-123495000D03*
%TD*%
D11*
%TO.C,D19*%
X110312500Y-130225000D03*
X110312500Y-126925000D03*
%TD*%
%TO.C,D20*%
X129362500Y-130225000D03*
X129362500Y-126925000D03*
%TD*%
D12*
%TO.C,KSW29*%
X181015000Y-145085000D03*
X193942000Y-142545000D03*
%TD*%
%TO.C,KSW6*%
X190540000Y-68885000D03*
X203467000Y-66345000D03*
%TD*%
D11*
%TO.C,D30*%
X108725000Y-52150000D03*
X108725000Y-48850000D03*
%TD*%
D10*
%TO.C,LED8*%
X177325000Y-94687500D03*
X177325000Y-95787500D03*
X179825000Y-95787500D03*
X179825000Y-94687500D03*
%TD*%
%TO.C,LED12*%
X101125000Y-94687500D03*
X101125000Y-95787500D03*
X103625000Y-95787500D03*
X103625000Y-94687500D03*
%TD*%
D12*
%TO.C,KSW2*%
X114340000Y-68885000D03*
X127267000Y-66345000D03*
%TD*%
%TO.C,KSW3*%
X133390000Y-68885000D03*
X146317000Y-66345000D03*
%TD*%
D10*
%TO.C,LED4*%
X160775000Y-76737500D03*
X160775000Y-75637500D03*
X158275000Y-75637500D03*
X158275000Y-76737500D03*
%TD*%
D12*
%TO.C,KSW17*%
X171490000Y-106985000D03*
X184417000Y-104445000D03*
%TD*%
%TO.C,KSW7*%
X95290000Y-87935000D03*
X108217000Y-85395000D03*
%TD*%
D10*
%TO.C,LED5*%
X179825000Y-76737500D03*
X179825000Y-75637500D03*
X177325000Y-75637500D03*
X177325000Y-76737500D03*
%TD*%
%TO.C,LED9*%
X158275000Y-94687500D03*
X158275000Y-95787500D03*
X160775000Y-95787500D03*
X160775000Y-94687500D03*
%TD*%
D11*
%TO.C,D1*%
X110312500Y-73075000D03*
X110312500Y-69775000D03*
%TD*%
D12*
%TO.C,KSW5*%
X171490000Y-68885000D03*
X184417000Y-66345000D03*
%TD*%
D11*
%TO.C,D23*%
X186512500Y-130225000D03*
X186512500Y-126925000D03*
%TD*%
D12*
%TO.C,KSW26*%
X123865000Y-145085000D03*
X136792000Y-142545000D03*
%TD*%
%TO.C,KSW8*%
X114340000Y-87935000D03*
X127267000Y-85395000D03*
%TD*%
D10*
%TO.C,LED24*%
X101125000Y-132787500D03*
X101125000Y-133887500D03*
X103625000Y-133887500D03*
X103625000Y-132787500D03*
%TD*%
%TO.C,LED22*%
X139225000Y-132787500D03*
X139225000Y-133887500D03*
X141725000Y-133887500D03*
X141725000Y-132787500D03*
%TD*%
D11*
%TO.C,D2*%
X129362500Y-73012500D03*
X129362500Y-69712500D03*
%TD*%
D13*
%TO.C,DS1*%
X152540000Y-55170000D03*
X152540000Y-58470000D03*
%TD*%
D14*
%TO.C,R11*%
X136284000Y-50915000D03*
X136284000Y-52565000D03*
%TD*%
D15*
%TO.C,J5*%
X127410000Y-47136000D03*
X128410000Y-47136000D03*
X129410000Y-47136000D03*
D16*
X126110000Y-43261000D03*
X130710000Y-43261000D03*
%TD*%
D14*
%TO.C,R5*%
X107100000Y-59350000D03*
X107100000Y-61000000D03*
%TD*%
D17*
%TO.C,C1*%
X145682000Y-50203000D03*
X145682000Y-51753000D03*
%TD*%
D15*
%TO.C,J4*%
X136300000Y-47136000D03*
X137300000Y-47136000D03*
X138300000Y-47136000D03*
D16*
X135000000Y-43261000D03*
X139600000Y-43261000D03*
%TD*%
D18*
%TO.C,Q1*%
X105228125Y-59225000D03*
X105228125Y-61125000D03*
X103353125Y-60175000D03*
%TD*%
D19*
%TO.C,C8*%
X120028000Y-45560000D03*
X120028000Y-44010000D03*
%TD*%
D14*
%TO.C,R1*%
X148730000Y-50153000D03*
X148730000Y-51803000D03*
%TD*%
D19*
%TO.C,C6*%
X160414000Y-51499000D03*
X160414000Y-49949000D03*
%TD*%
D14*
%TO.C,R3*%
X171336000Y-49899000D03*
X171336000Y-51549000D03*
%TD*%
%TO.C,R4*%
X171336000Y-52947000D03*
X171336000Y-54597000D03*
%TD*%
D17*
%TO.C,C3*%
X98184000Y-80429000D03*
X98184000Y-81979000D03*
%TD*%
D20*
%TO.C,R10*%
X160414000Y-48501000D03*
X160414000Y-46851000D03*
%TD*%
D14*
%TO.C,R7*%
X129680000Y-53709000D03*
X129680000Y-55359000D03*
%TD*%
D21*
%TO.C,F1*%
X147460000Y-55420000D03*
X147460000Y-58220000D03*
%TD*%
D20*
%TO.C,R9*%
X160414000Y-45453000D03*
X160414000Y-43803000D03*
%TD*%
D19*
%TO.C,C2*%
X171336000Y-48451000D03*
X171336000Y-46901000D03*
%TD*%
%TO.C,C5*%
X197752000Y-153353000D03*
X197752000Y-151803000D03*
%TD*%
D14*
%TO.C,R8*%
X129680000Y-49899000D03*
X129680000Y-51549000D03*
%TD*%
D17*
%TO.C,C4*%
X149873000Y-118275000D03*
X149873000Y-119825000D03*
%TD*%
D14*
%TO.C,R6*%
X101500000Y-59350000D03*
X101500000Y-61000000D03*
%TD*%
%TO.C,R12*%
X138316000Y-50915000D03*
X138316000Y-52565000D03*
%TD*%
D22*
%TO.C,J1*%
X146650000Y-47790000D03*
X147450000Y-47790000D03*
X148750000Y-47790000D03*
X149750000Y-47790000D03*
X150250000Y-47790000D03*
X151250000Y-47790000D03*
X152550000Y-47790000D03*
X153350000Y-47790000D03*
D23*
X153050000Y-47890000D03*
D22*
X152250000Y-47790000D03*
X151750000Y-47790000D03*
X150750000Y-47790000D03*
X149250000Y-47790000D03*
X148250000Y-47790000D03*
X147750000Y-47790000D03*
D23*
X146950000Y-47890000D03*
%TD*%
D17*
%TO.C,C7*%
X120028000Y-55440000D03*
X120028000Y-56990000D03*
%TD*%
D14*
%TO.C,R2*%
X151778000Y-50153000D03*
X151778000Y-51803000D03*
%TD*%
M02*
