%TF.GenerationSoftware,KiCad,Pcbnew,(5.1.9)-1*%
%TF.CreationDate,2021-04-11T15:20:34+09:00*%
%TF.ProjectId,yuiop60hh3-topplate,7975696f-7036-4306-9868-332d746f7070,1*%
%TF.SameCoordinates,Original*%
%TF.FileFunction,Legend,Top*%
%TF.FilePolarity,Positive*%
%FSLAX46Y46*%
G04 Gerber Fmt 4.6, Leading zero omitted, Abs format (unit mm)*
G04 Created by KiCad (PCBNEW (5.1.9)-1) date 2021-04-11 15:20:34*
%MOMM*%
%LPD*%
G01*
G04 APERTURE LIST*
%ADD10C,0.150000*%
%ADD11C,0.400000*%
G04 APERTURE END LIST*
D10*
X76851190Y-188267540D02*
X76851190Y-187267540D01*
X76851190Y-188219921D02*
X76755952Y-188267540D01*
X76565476Y-188267540D01*
X76470238Y-188219921D01*
X76422619Y-188172302D01*
X76375000Y-188077064D01*
X76375000Y-187791350D01*
X76422619Y-187696112D01*
X76470238Y-187648493D01*
X76565476Y-187600874D01*
X76755952Y-187600874D01*
X76851190Y-187648493D01*
X77708333Y-188219921D02*
X77613095Y-188267540D01*
X77422619Y-188267540D01*
X77327380Y-188219921D01*
X77279761Y-188124683D01*
X77279761Y-187743731D01*
X77327380Y-187648493D01*
X77422619Y-187600874D01*
X77613095Y-187600874D01*
X77708333Y-187648493D01*
X77755952Y-187743731D01*
X77755952Y-187838969D01*
X77279761Y-187934207D01*
X78136904Y-188219921D02*
X78232142Y-188267540D01*
X78422619Y-188267540D01*
X78517857Y-188219921D01*
X78565476Y-188124683D01*
X78565476Y-188077064D01*
X78517857Y-187981826D01*
X78422619Y-187934207D01*
X78279761Y-187934207D01*
X78184523Y-187886588D01*
X78136904Y-187791350D01*
X78136904Y-187743731D01*
X78184523Y-187648493D01*
X78279761Y-187600874D01*
X78422619Y-187600874D01*
X78517857Y-187648493D01*
X78994047Y-188267540D02*
X78994047Y-187600874D01*
X78994047Y-187267540D02*
X78946428Y-187315160D01*
X78994047Y-187362779D01*
X79041666Y-187315160D01*
X78994047Y-187267540D01*
X78994047Y-187362779D01*
X79898809Y-187600874D02*
X79898809Y-188410398D01*
X79851190Y-188505636D01*
X79803571Y-188553255D01*
X79708333Y-188600874D01*
X79565476Y-188600874D01*
X79470238Y-188553255D01*
X79898809Y-188219921D02*
X79803571Y-188267540D01*
X79613095Y-188267540D01*
X79517857Y-188219921D01*
X79470238Y-188172302D01*
X79422619Y-188077064D01*
X79422619Y-187791350D01*
X79470238Y-187696112D01*
X79517857Y-187648493D01*
X79613095Y-187600874D01*
X79803571Y-187600874D01*
X79898809Y-187648493D01*
X80375000Y-187600874D02*
X80375000Y-188267540D01*
X80375000Y-187696112D02*
X80422619Y-187648493D01*
X80517857Y-187600874D01*
X80660714Y-187600874D01*
X80755952Y-187648493D01*
X80803571Y-187743731D01*
X80803571Y-188267540D01*
X81660714Y-188219921D02*
X81565476Y-188267540D01*
X81375000Y-188267540D01*
X81279761Y-188219921D01*
X81232142Y-188124683D01*
X81232142Y-187743731D01*
X81279761Y-187648493D01*
X81375000Y-187600874D01*
X81565476Y-187600874D01*
X81660714Y-187648493D01*
X81708333Y-187743731D01*
X81708333Y-187838969D01*
X81232142Y-187934207D01*
X82565476Y-188267540D02*
X82565476Y-187267540D01*
X82565476Y-188219921D02*
X82470238Y-188267540D01*
X82279761Y-188267540D01*
X82184523Y-188219921D01*
X82136904Y-188172302D01*
X82089285Y-188077064D01*
X82089285Y-187791350D01*
X82136904Y-187696112D01*
X82184523Y-187648493D01*
X82279761Y-187600874D01*
X82470238Y-187600874D01*
X82565476Y-187648493D01*
X83803571Y-188267540D02*
X83803571Y-187267540D01*
X83803571Y-187648493D02*
X83898809Y-187600874D01*
X84089285Y-187600874D01*
X84184523Y-187648493D01*
X84232142Y-187696112D01*
X84279761Y-187791350D01*
X84279761Y-188077064D01*
X84232142Y-188172302D01*
X84184523Y-188219921D01*
X84089285Y-188267540D01*
X83898809Y-188267540D01*
X83803571Y-188219921D01*
X84613095Y-187600874D02*
X84851190Y-188267540D01*
X85089285Y-187600874D02*
X84851190Y-188267540D01*
X84755952Y-188505636D01*
X84708333Y-188553255D01*
X84613095Y-188600874D01*
X86232142Y-188267540D02*
X86232142Y-187267540D01*
X86803571Y-188267540D02*
X86375000Y-187696112D01*
X86803571Y-187267540D02*
X86232142Y-187838969D01*
X87375000Y-188267540D02*
X87279761Y-188219921D01*
X87232142Y-188172302D01*
X87184523Y-188077064D01*
X87184523Y-187791350D01*
X87232142Y-187696112D01*
X87279761Y-187648493D01*
X87375000Y-187600874D01*
X87517857Y-187600874D01*
X87613095Y-187648493D01*
X87660714Y-187696112D01*
X87708333Y-187791350D01*
X87708333Y-188077064D01*
X87660714Y-188172302D01*
X87613095Y-188219921D01*
X87517857Y-188267540D01*
X87375000Y-188267540D01*
X88708333Y-188267540D02*
X88375000Y-187791350D01*
X88136904Y-188267540D02*
X88136904Y-187267540D01*
X88517857Y-187267540D01*
X88613095Y-187315160D01*
X88660714Y-187362779D01*
X88708333Y-187458017D01*
X88708333Y-187600874D01*
X88660714Y-187696112D01*
X88613095Y-187743731D01*
X88517857Y-187791350D01*
X88136904Y-187791350D01*
X89279761Y-188267540D02*
X89184523Y-188219921D01*
X89136904Y-188172302D01*
X89089285Y-188077064D01*
X89089285Y-187791350D01*
X89136904Y-187696112D01*
X89184523Y-187648493D01*
X89279761Y-187600874D01*
X89422619Y-187600874D01*
X89517857Y-187648493D01*
X89565476Y-187696112D01*
X89613095Y-187791350D01*
X89613095Y-188077064D01*
X89565476Y-188172302D01*
X89517857Y-188219921D01*
X89422619Y-188267540D01*
X89279761Y-188267540D01*
X90041666Y-188267540D02*
X90041666Y-187267540D01*
X90613095Y-188267540D01*
X90613095Y-187267540D01*
X91803571Y-187219921D02*
X90946428Y-188505636D01*
X92136904Y-188267540D02*
X92136904Y-187267540D01*
X92708333Y-188267540D02*
X92279761Y-187696112D01*
X92708333Y-187267540D02*
X92136904Y-187838969D01*
X93565476Y-188267540D02*
X93565476Y-187743731D01*
X93517857Y-187648493D01*
X93422619Y-187600874D01*
X93232142Y-187600874D01*
X93136904Y-187648493D01*
X93565476Y-188219921D02*
X93470238Y-188267540D01*
X93232142Y-188267540D01*
X93136904Y-188219921D01*
X93089285Y-188124683D01*
X93089285Y-188029445D01*
X93136904Y-187934207D01*
X93232142Y-187886588D01*
X93470238Y-187886588D01*
X93565476Y-187838969D01*
X94184523Y-188267540D02*
X94089285Y-188219921D01*
X94041666Y-188172302D01*
X93994047Y-188077064D01*
X93994047Y-187791350D01*
X94041666Y-187696112D01*
X94089285Y-187648493D01*
X94184523Y-187600874D01*
X94327380Y-187600874D01*
X94422619Y-187648493D01*
X94470238Y-187696112D01*
X94517857Y-187791350D01*
X94517857Y-188077064D01*
X94470238Y-188172302D01*
X94422619Y-188219921D01*
X94327380Y-188267540D01*
X94184523Y-188267540D01*
X94946428Y-188267540D02*
X94946428Y-187600874D01*
X94946428Y-187791350D02*
X94994047Y-187696112D01*
X95041666Y-187648493D01*
X95136904Y-187600874D01*
X95232142Y-187600874D01*
X95565476Y-188267540D02*
X95565476Y-187600874D01*
X95565476Y-187267540D02*
X95517857Y-187315160D01*
X95565476Y-187362779D01*
X95613095Y-187315160D01*
X95565476Y-187267540D01*
X95565476Y-187362779D01*
X96232142Y-187791350D02*
X96232142Y-188267540D01*
X95898809Y-187267540D02*
X96232142Y-187791350D01*
X96565476Y-187267540D01*
X97327380Y-188267540D02*
X97327380Y-187743731D01*
X97279761Y-187648493D01*
X97184523Y-187600874D01*
X96994047Y-187600874D01*
X96898809Y-187648493D01*
X97327380Y-188219921D02*
X97232142Y-188267540D01*
X96994047Y-188267540D01*
X96898809Y-188219921D01*
X96851190Y-188124683D01*
X96851190Y-188029445D01*
X96898809Y-187934207D01*
X96994047Y-187886588D01*
X97232142Y-187886588D01*
X97327380Y-187838969D01*
D11*
X74720238Y-184731826D02*
X74720238Y-186398493D01*
X73886904Y-182898493D02*
X74720238Y-184731826D01*
X75553571Y-182898493D01*
X76386904Y-182898493D02*
X76386904Y-185731826D01*
X76505952Y-186065160D01*
X76625000Y-186231826D01*
X76863095Y-186398493D01*
X77339285Y-186398493D01*
X77577380Y-186231826D01*
X77696428Y-186065160D01*
X77815476Y-185731826D01*
X77815476Y-182898493D01*
X79005952Y-186398493D02*
X79005952Y-182898493D01*
X80672619Y-182898493D02*
X81148809Y-182898493D01*
X81386904Y-183065160D01*
X81625000Y-183398493D01*
X81744047Y-184065160D01*
X81744047Y-185231826D01*
X81625000Y-185898493D01*
X81386904Y-186231826D01*
X81148809Y-186398493D01*
X80672619Y-186398493D01*
X80434523Y-186231826D01*
X80196428Y-185898493D01*
X80077380Y-185231826D01*
X80077380Y-184065160D01*
X80196428Y-183398493D01*
X80434523Y-183065160D01*
X80672619Y-182898493D01*
X82815476Y-186398493D02*
X82815476Y-182898493D01*
X83767857Y-182898493D01*
X84005952Y-183065160D01*
X84125000Y-183231826D01*
X84244047Y-183565160D01*
X84244047Y-184065160D01*
X84125000Y-184398493D01*
X84005952Y-184565160D01*
X83767857Y-184731826D01*
X82815476Y-184731826D01*
X86386904Y-182898493D02*
X85910714Y-182898493D01*
X85672619Y-183065160D01*
X85553571Y-183231826D01*
X85315476Y-183731826D01*
X85196428Y-184398493D01*
X85196428Y-185731826D01*
X85315476Y-186065160D01*
X85434523Y-186231826D01*
X85672619Y-186398493D01*
X86148809Y-186398493D01*
X86386904Y-186231826D01*
X86505952Y-186065160D01*
X86625000Y-185731826D01*
X86625000Y-184898493D01*
X86505952Y-184565160D01*
X86386904Y-184398493D01*
X86148809Y-184231826D01*
X85672619Y-184231826D01*
X85434523Y-184398493D01*
X85315476Y-184565160D01*
X85196428Y-184898493D01*
X88172619Y-182898493D02*
X88410714Y-182898493D01*
X88648809Y-183065160D01*
X88767857Y-183231826D01*
X88886904Y-183565160D01*
X89005952Y-184231826D01*
X89005952Y-185065160D01*
X88886904Y-185731826D01*
X88767857Y-186065160D01*
X88648809Y-186231826D01*
X88410714Y-186398493D01*
X88172619Y-186398493D01*
X87934523Y-186231826D01*
X87815476Y-186065160D01*
X87696428Y-185731826D01*
X87577380Y-185065160D01*
X87577380Y-184231826D01*
X87696428Y-183565160D01*
X87815476Y-183231826D01*
X87934523Y-183065160D01*
X88172619Y-182898493D01*
X90077380Y-186398493D02*
X90077380Y-182898493D01*
X90077380Y-184565160D02*
X91505952Y-184565160D01*
X91505952Y-186398493D02*
X91505952Y-182898493D01*
X92696428Y-186398493D02*
X92696428Y-182898493D01*
X92696428Y-184565160D02*
X94125000Y-184565160D01*
X94125000Y-186398493D02*
X94125000Y-182898493D01*
X95077380Y-182898493D02*
X96625000Y-182898493D01*
X95791666Y-184231826D01*
X96148809Y-184231826D01*
X96386904Y-184398493D01*
X96505952Y-184565160D01*
X96625000Y-184898493D01*
X96625000Y-185731826D01*
X96505952Y-186065160D01*
X96386904Y-186231826D01*
X96148809Y-186398493D01*
X95434523Y-186398493D01*
X95196428Y-186231826D01*
X95077380Y-186065160D01*
M02*
