%TF.GenerationSoftware,KiCad,Pcbnew,(5.1.9)-1*%
%TF.CreationDate,2021-04-11T15:20:35+09:00*%
%TF.ProjectId,yuiop60hh3-topplate,7975696f-7036-4306-9868-332d746f7070,1*%
%TF.SameCoordinates,Original*%
%TF.FileFunction,Profile,NP*%
%FSLAX46Y46*%
G04 Gerber Fmt 4.6, Leading zero omitted, Abs format (unit mm)*
G04 Created by KiCad (PCBNEW (5.1.9)-1) date 2021-04-11 15:20:35*
%MOMM*%
%LPD*%
G01*
G04 APERTURE LIST*
%TA.AperFunction,Profile*%
%ADD10C,0.050000*%
%TD*%
%TA.AperFunction,Profile*%
%ADD11C,0.120000*%
%TD*%
G04 APERTURE END LIST*
D10*
X70375000Y-159265160D02*
X70375000Y-192925160D01*
X70375000Y-159265160D02*
G75*
G02*
X70675000Y-158965160I300000J0D01*
G01*
X74075000Y-154665160D02*
G75*
G02*
X74075000Y-158965160I0J-2150000D01*
G01*
X70675000Y-158965160D02*
X74075000Y-158965160D01*
X70675000Y-154665160D02*
G75*
G02*
X70375000Y-154365160I0J300000D01*
G01*
X74075000Y-154665160D02*
X70675000Y-154665160D01*
X355375000Y-159265160D02*
X355375000Y-192925160D01*
X355375000Y-154365160D02*
G75*
G02*
X355075000Y-154665160I-300000J0D01*
G01*
X351675000Y-158965160D02*
G75*
G02*
X351675000Y-154665160I0J2150000D01*
G01*
X355075000Y-154665160D02*
X351675000Y-154665160D01*
X355075000Y-158965160D02*
G75*
G02*
X355375000Y-159265160I0J-300000D01*
G01*
X351675000Y-158965160D02*
X355075000Y-158965160D01*
X355375000Y-192925160D02*
G75*
G02*
X353375000Y-194925160I-2000000J0D01*
G01*
X353375000Y-100325160D02*
G75*
G02*
X355375000Y-102325160I0J-2000000D01*
G01*
X70375000Y-102315160D02*
G75*
G02*
X72375000Y-100315160I2000000J0D01*
G01*
X72375000Y-194925160D02*
G75*
G02*
X70375000Y-192925160I0J2000000D01*
G01*
X72375000Y-194925160D02*
X353375000Y-194925160D01*
X70375000Y-102315160D02*
X70375000Y-154365160D01*
X353375000Y-100325160D02*
X72375000Y-100315160D01*
X355375000Y-154365160D02*
X355375000Y-102325160D01*
X72041666Y-194925160D02*
G75*
G03*
X72041666Y-194925160I-1666666J0D01*
G01*
X67875000Y-194925160D02*
X72875000Y-194925160D01*
X70375000Y-192425160D02*
X70375000Y-197425160D01*
X357041666Y-194925160D02*
G75*
G03*
X357041666Y-194925160I-1666666J0D01*
G01*
X352875000Y-194925160D02*
X357875000Y-194925160D01*
X355375000Y-192425160D02*
X355375000Y-197425160D01*
X214541666Y-100325160D02*
G75*
G03*
X214541666Y-100325160I-1666666J0D01*
G01*
X210375000Y-100325160D02*
X215375000Y-100325160D01*
X212875000Y-97825160D02*
X212875000Y-102825160D01*
X214541666Y-194925160D02*
G75*
G03*
X214541666Y-194925160I-1666666J0D01*
G01*
X210375000Y-194925160D02*
X215375000Y-194925160D01*
X212875000Y-192425160D02*
X212875000Y-197425160D01*
X214541666Y-147625160D02*
G75*
G03*
X214541666Y-147625160I-1666666J0D01*
G01*
X210375000Y-147625160D02*
X215375000Y-147625160D01*
X212875000Y-145125160D02*
X212875000Y-150125160D01*
X357041666Y-100325160D02*
G75*
G03*
X357041666Y-100325160I-1666666J0D01*
G01*
X352875000Y-100325160D02*
X357875000Y-100325160D01*
X355375000Y-97825160D02*
X355375000Y-102825160D01*
X72041666Y-100315160D02*
G75*
G03*
X72041666Y-100315160I-1666666J0D01*
G01*
X67875000Y-100315160D02*
X72875000Y-100315160D01*
X70375000Y-97815160D02*
X70375000Y-102815160D01*
D11*
%TO.C,KSW58*%
X246100000Y-188225000D02*
X210500000Y-188225000D01*
X210450000Y-183225000D02*
X246050000Y-183225000D01*
X194850000Y-188225000D02*
X159250000Y-188225000D01*
X159300000Y-183225000D02*
X194900000Y-183225000D01*
X196350000Y-183125000D02*
X196350000Y-179025000D01*
X194900000Y-183225000D02*
X196250000Y-183225000D01*
X159200000Y-180325000D02*
X159200000Y-183125000D01*
X152750000Y-180025000D02*
X158900000Y-180025000D01*
X152450000Y-183325000D02*
X152450000Y-180325000D01*
X151850000Y-183425000D02*
X152350000Y-183425000D01*
X151550000Y-185925000D02*
X151550000Y-183725000D01*
X152350000Y-186225000D02*
X151850000Y-186225000D01*
X152450000Y-192025000D02*
X152450000Y-186325000D01*
X154150000Y-192325000D02*
X152750000Y-192325000D01*
X154250000Y-193225000D02*
X154250000Y-192425000D01*
X157050000Y-193525000D02*
X154550000Y-193525000D01*
X157350000Y-192425000D02*
X157350000Y-193225000D01*
X158850000Y-192325000D02*
X157450000Y-192325000D01*
X196650000Y-178725000D02*
X210050000Y-178725000D01*
X210350000Y-179025000D02*
X210350000Y-183125000D01*
X246050000Y-183225000D02*
X247400000Y-183225000D01*
X247500000Y-183125000D02*
X247500000Y-180325000D01*
X247800000Y-180025000D02*
X253950000Y-180025000D01*
X254250000Y-180325000D02*
X254250000Y-183325000D01*
X254350000Y-183425000D02*
X254850000Y-183425000D01*
X255150000Y-183725000D02*
X255150000Y-185925000D01*
X254850000Y-186225000D02*
X254350000Y-186225000D01*
X254250000Y-186325000D02*
X254250000Y-192025000D01*
X253950000Y-192325000D02*
X252550000Y-192325000D01*
X252450000Y-192425000D02*
X252450000Y-193225000D01*
X252150000Y-193525000D02*
X249650000Y-193525000D01*
X249350000Y-193225000D02*
X249350000Y-192425000D01*
X249250000Y-192325000D02*
X247800000Y-192325000D01*
X247500000Y-192025000D02*
X247500000Y-188325000D01*
X247400000Y-188225000D02*
X246100000Y-188225000D01*
X210400000Y-188325000D02*
X210400000Y-192425000D01*
X210100000Y-192725000D02*
X196650000Y-192725000D01*
X196350000Y-192425000D02*
X196350000Y-188325000D01*
X196250000Y-188225000D02*
X194850000Y-188225000D01*
X159150000Y-188325000D02*
X159150000Y-192025000D01*
X196350000Y-183125000D02*
G75*
G02*
X196250000Y-183225000I-100000J0D01*
G01*
X159300000Y-183225000D02*
G75*
G02*
X159200000Y-183125000I0J100000D01*
G01*
X158900000Y-180025000D02*
G75*
G02*
X159200000Y-180325000I0J-300000D01*
G01*
X152450000Y-180325000D02*
G75*
G02*
X152750000Y-180025000I300000J0D01*
G01*
X152450000Y-183325000D02*
G75*
G02*
X152350000Y-183425000I-100000J0D01*
G01*
X151550000Y-183725000D02*
G75*
G02*
X151850000Y-183425000I300000J0D01*
G01*
X151850000Y-186225000D02*
G75*
G02*
X151550000Y-185925000I0J300000D01*
G01*
X152350000Y-186225000D02*
G75*
G02*
X152450000Y-186325000I0J-100000D01*
G01*
X152750000Y-192325000D02*
G75*
G02*
X152450000Y-192025000I0J300000D01*
G01*
X154150000Y-192325000D02*
G75*
G02*
X154250000Y-192425000I0J-100000D01*
G01*
X154550000Y-193525000D02*
G75*
G02*
X154250000Y-193225000I0J300000D01*
G01*
X157350000Y-193225000D02*
G75*
G02*
X157050000Y-193525000I-300000J0D01*
G01*
X157350000Y-192425000D02*
G75*
G02*
X157450000Y-192325000I100000J0D01*
G01*
X159150000Y-188325000D02*
G75*
G02*
X159250000Y-188225000I100000J0D01*
G01*
X196250000Y-188225000D02*
G75*
G02*
X196350000Y-188325000I0J-100000D01*
G01*
X159150000Y-192025000D02*
G75*
G02*
X158850000Y-192325000I-300000J0D01*
G01*
X196650000Y-192725000D02*
G75*
G02*
X196350000Y-192425000I0J300000D01*
G01*
X210400000Y-192425000D02*
G75*
G02*
X210100000Y-192725000I-300000J0D01*
G01*
X210400000Y-188325000D02*
G75*
G02*
X210500000Y-188225000I100000J0D01*
G01*
X247400000Y-188225000D02*
G75*
G02*
X247500000Y-188325000I0J-100000D01*
G01*
X247800000Y-192325000D02*
G75*
G02*
X247500000Y-192025000I0J300000D01*
G01*
X249250000Y-192325000D02*
G75*
G02*
X249350000Y-192425000I0J-100000D01*
G01*
X249650000Y-193525000D02*
G75*
G02*
X249350000Y-193225000I0J300000D01*
G01*
X252450000Y-193225000D02*
G75*
G02*
X252150000Y-193525000I-300000J0D01*
G01*
X252450000Y-192425000D02*
G75*
G02*
X252550000Y-192325000I100000J0D01*
G01*
X254250000Y-192025000D02*
G75*
G02*
X253950000Y-192325000I-300000J0D01*
G01*
X254250000Y-186325000D02*
G75*
G02*
X254350000Y-186225000I100000J0D01*
G01*
X255150000Y-185925000D02*
G75*
G02*
X254850000Y-186225000I-300000J0D01*
G01*
X254350000Y-183425000D02*
G75*
G02*
X254250000Y-183325000I0J100000D01*
G01*
X254850000Y-183425000D02*
G75*
G02*
X255150000Y-183725000I0J-300000D01*
G01*
X253950000Y-180025000D02*
G75*
G02*
X254250000Y-180325000I0J-300000D01*
G01*
X247500000Y-180325000D02*
G75*
G02*
X247800000Y-180025000I300000J0D01*
G01*
X247500000Y-183125000D02*
G75*
G02*
X247400000Y-183225000I-100000J0D01*
G01*
X210450000Y-183225000D02*
G75*
G02*
X210350000Y-183125000I0J100000D01*
G01*
X210050000Y-178725000D02*
G75*
G02*
X210350000Y-179025000I0J-300000D01*
G01*
X196350000Y-179025000D02*
G75*
G02*
X196650000Y-178725000I300000J0D01*
G01*
%TO.C,KSW43*%
X82831200Y-172625000D02*
X82831200Y-172975000D01*
X84331200Y-172525000D02*
X82931200Y-172525000D01*
X84431200Y-173375000D02*
X84431200Y-172625000D01*
X98181200Y-173675000D02*
X84731200Y-173675000D01*
X98481200Y-172625000D02*
X98481200Y-173375000D01*
X99881200Y-172525000D02*
X98581200Y-172525000D01*
X99981200Y-172975000D02*
X99981200Y-172625000D01*
X101731200Y-173275000D02*
X100281200Y-173275000D01*
X101831200Y-174175000D02*
X101831200Y-173375000D01*
X104631200Y-174475000D02*
X102131200Y-174475000D01*
X104931200Y-173375000D02*
X104931200Y-174175000D01*
X106431200Y-173275000D02*
X105031200Y-173275000D01*
X106731200Y-167275000D02*
X106731200Y-172975000D01*
X107331200Y-167175000D02*
X106831200Y-167175000D01*
X107631200Y-164675000D02*
X107631200Y-166875000D01*
X106831200Y-164375000D02*
X107331200Y-164375000D01*
X106731200Y-161275000D02*
X106731200Y-164275000D01*
X100281200Y-160975000D02*
X106431200Y-160975000D01*
X99981200Y-161675000D02*
X99981200Y-161275000D01*
X98531200Y-161775000D02*
X99881200Y-161775000D01*
X98431200Y-159975000D02*
X98431200Y-161675000D01*
X84731200Y-159675000D02*
X98131200Y-159675000D01*
X82531200Y-173275000D02*
X81131200Y-173275000D01*
X81031200Y-173375000D02*
X81031200Y-174175000D01*
X80731200Y-174475000D02*
X78231200Y-174475000D01*
X77931200Y-174175000D02*
X77931200Y-173375000D01*
X77831200Y-173275000D02*
X76431200Y-173275000D01*
X76131200Y-172975000D02*
X76131200Y-167275000D01*
X76031200Y-167175000D02*
X75531200Y-167175000D01*
X75231200Y-166875000D02*
X75231200Y-164675000D01*
X75531200Y-164375000D02*
X76031200Y-164375000D01*
X76131200Y-164275000D02*
X76131200Y-161275000D01*
X76431200Y-160975000D02*
X82581200Y-160975000D01*
X82881200Y-161275000D02*
X82881200Y-161675000D01*
X82981200Y-161775000D02*
X84331200Y-161775000D01*
X84431200Y-161675000D02*
X84431200Y-159975000D01*
X84431200Y-161675000D02*
G75*
G02*
X84331200Y-161775000I-100000J0D01*
G01*
X82981200Y-161775000D02*
G75*
G02*
X82881200Y-161675000I0J100000D01*
G01*
X82581200Y-160975000D02*
G75*
G02*
X82881200Y-161275000I0J-300000D01*
G01*
X76131200Y-161275000D02*
G75*
G02*
X76431200Y-160975000I300000J0D01*
G01*
X76131200Y-164275000D02*
G75*
G02*
X76031200Y-164375000I-100000J0D01*
G01*
X75231200Y-164675000D02*
G75*
G02*
X75531200Y-164375000I300000J0D01*
G01*
X75531200Y-167175000D02*
G75*
G02*
X75231200Y-166875000I0J300000D01*
G01*
X76031200Y-167175000D02*
G75*
G02*
X76131200Y-167275000I0J-100000D01*
G01*
X76431200Y-173275000D02*
G75*
G02*
X76131200Y-172975000I0J300000D01*
G01*
X77831200Y-173275000D02*
G75*
G02*
X77931200Y-173375000I0J-100000D01*
G01*
X78231200Y-174475000D02*
G75*
G02*
X77931200Y-174175000I0J300000D01*
G01*
X81031200Y-174175000D02*
G75*
G02*
X80731200Y-174475000I-300000J0D01*
G01*
X81031200Y-173375000D02*
G75*
G02*
X81131200Y-173275000I100000J0D01*
G01*
X82831200Y-172625000D02*
G75*
G02*
X82931200Y-172525000I100000J0D01*
G01*
X84331200Y-172525000D02*
G75*
G02*
X84431200Y-172625000I0J-100000D01*
G01*
X82831200Y-172975000D02*
G75*
G02*
X82531200Y-173275000I-300000J0D01*
G01*
X84731200Y-173675000D02*
G75*
G02*
X84431200Y-173375000I0J300000D01*
G01*
X98481200Y-173375000D02*
G75*
G02*
X98181200Y-173675000I-300000J0D01*
G01*
X98481200Y-172625000D02*
G75*
G02*
X98581200Y-172525000I100000J0D01*
G01*
X99881200Y-172525000D02*
G75*
G02*
X99981200Y-172625000I0J-100000D01*
G01*
X100281200Y-173275000D02*
G75*
G02*
X99981200Y-172975000I0J300000D01*
G01*
X101731200Y-173275000D02*
G75*
G02*
X101831200Y-173375000I0J-100000D01*
G01*
X102131200Y-174475000D02*
G75*
G02*
X101831200Y-174175000I0J300000D01*
G01*
X104931200Y-174175000D02*
G75*
G02*
X104631200Y-174475000I-300000J0D01*
G01*
X104931200Y-173375000D02*
G75*
G02*
X105031200Y-173275000I100000J0D01*
G01*
X106731200Y-172975000D02*
G75*
G02*
X106431200Y-173275000I-300000J0D01*
G01*
X106731200Y-167275000D02*
G75*
G02*
X106831200Y-167175000I100000J0D01*
G01*
X107631200Y-166875000D02*
G75*
G02*
X107331200Y-167175000I-300000J0D01*
G01*
X106831200Y-164375000D02*
G75*
G02*
X106731200Y-164275000I0J100000D01*
G01*
X107331200Y-164375000D02*
G75*
G02*
X107631200Y-164675000I0J-300000D01*
G01*
X106431200Y-160975000D02*
G75*
G02*
X106731200Y-161275000I0J-300000D01*
G01*
X99981200Y-161275000D02*
G75*
G02*
X100281200Y-160975000I300000J0D01*
G01*
X99981200Y-161675000D02*
G75*
G02*
X99881200Y-161775000I-100000J0D01*
G01*
X98531200Y-161775000D02*
G75*
G02*
X98431200Y-161675000I0J100000D01*
G01*
X98131200Y-159675000D02*
G75*
G02*
X98431200Y-159975000I0J-300000D01*
G01*
X84431200Y-159975000D02*
G75*
G02*
X84731200Y-159675000I300000J0D01*
G01*
%TO.C,KSW42*%
X325719000Y-153575000D02*
X325719000Y-153925000D01*
X327219000Y-153475000D02*
X325819000Y-153475000D01*
X327319000Y-154325000D02*
X327319000Y-153575000D01*
X341069000Y-154625000D02*
X327619000Y-154625000D01*
X341369000Y-153575000D02*
X341369000Y-154325000D01*
X342769000Y-153475000D02*
X341469000Y-153475000D01*
X342869000Y-153925000D02*
X342869000Y-153575000D01*
X344619000Y-154225000D02*
X343169000Y-154225000D01*
X344719000Y-155125000D02*
X344719000Y-154325000D01*
X347519000Y-155425000D02*
X345019000Y-155425000D01*
X347819000Y-154325000D02*
X347819000Y-155125000D01*
X349319000Y-154225000D02*
X347919000Y-154225000D01*
X349619000Y-148225000D02*
X349619000Y-153925000D01*
X350219000Y-148125000D02*
X349719000Y-148125000D01*
X350519000Y-145625000D02*
X350519000Y-147825000D01*
X349719000Y-145325000D02*
X350219000Y-145325000D01*
X349619000Y-142225000D02*
X349619000Y-145225000D01*
X343169000Y-141925000D02*
X349319000Y-141925000D01*
X342869000Y-142625000D02*
X342869000Y-142225000D01*
X341419000Y-142725000D02*
X342769000Y-142725000D01*
X341319000Y-140925000D02*
X341319000Y-142625000D01*
X327619000Y-140625000D02*
X341019000Y-140625000D01*
X325419000Y-154225000D02*
X324019000Y-154225000D01*
X323919000Y-154325000D02*
X323919000Y-155125000D01*
X323619000Y-155425000D02*
X321119000Y-155425000D01*
X320819000Y-155125000D02*
X320819000Y-154325000D01*
X320719000Y-154225000D02*
X319319000Y-154225000D01*
X319019000Y-153925000D02*
X319019000Y-148225000D01*
X318919000Y-148125000D02*
X318419000Y-148125000D01*
X318119000Y-147825000D02*
X318119000Y-145625000D01*
X318419000Y-145325000D02*
X318919000Y-145325000D01*
X319019000Y-145225000D02*
X319019000Y-142225000D01*
X319319000Y-141925000D02*
X325469000Y-141925000D01*
X325769000Y-142225000D02*
X325769000Y-142625000D01*
X325869000Y-142725000D02*
X327219000Y-142725000D01*
X327319000Y-142625000D02*
X327319000Y-140925000D01*
X327319000Y-142625000D02*
G75*
G02*
X327219000Y-142725000I-100000J0D01*
G01*
X325869000Y-142725000D02*
G75*
G02*
X325769000Y-142625000I0J100000D01*
G01*
X325469000Y-141925000D02*
G75*
G02*
X325769000Y-142225000I0J-300000D01*
G01*
X319019000Y-142225000D02*
G75*
G02*
X319319000Y-141925000I300000J0D01*
G01*
X319019000Y-145225000D02*
G75*
G02*
X318919000Y-145325000I-100000J0D01*
G01*
X318119000Y-145625000D02*
G75*
G02*
X318419000Y-145325000I300000J0D01*
G01*
X318419000Y-148125000D02*
G75*
G02*
X318119000Y-147825000I0J300000D01*
G01*
X318919000Y-148125000D02*
G75*
G02*
X319019000Y-148225000I0J-100000D01*
G01*
X319319000Y-154225000D02*
G75*
G02*
X319019000Y-153925000I0J300000D01*
G01*
X320719000Y-154225000D02*
G75*
G02*
X320819000Y-154325000I0J-100000D01*
G01*
X321119000Y-155425000D02*
G75*
G02*
X320819000Y-155125000I0J300000D01*
G01*
X323919000Y-155125000D02*
G75*
G02*
X323619000Y-155425000I-300000J0D01*
G01*
X323919000Y-154325000D02*
G75*
G02*
X324019000Y-154225000I100000J0D01*
G01*
X325719000Y-153575000D02*
G75*
G02*
X325819000Y-153475000I100000J0D01*
G01*
X327219000Y-153475000D02*
G75*
G02*
X327319000Y-153575000I0J-100000D01*
G01*
X325719000Y-153925000D02*
G75*
G02*
X325419000Y-154225000I-300000J0D01*
G01*
X327619000Y-154625000D02*
G75*
G02*
X327319000Y-154325000I0J300000D01*
G01*
X341369000Y-154325000D02*
G75*
G02*
X341069000Y-154625000I-300000J0D01*
G01*
X341369000Y-153575000D02*
G75*
G02*
X341469000Y-153475000I100000J0D01*
G01*
X342769000Y-153475000D02*
G75*
G02*
X342869000Y-153575000I0J-100000D01*
G01*
X343169000Y-154225000D02*
G75*
G02*
X342869000Y-153925000I0J300000D01*
G01*
X344619000Y-154225000D02*
G75*
G02*
X344719000Y-154325000I0J-100000D01*
G01*
X345019000Y-155425000D02*
G75*
G02*
X344719000Y-155125000I0J300000D01*
G01*
X347819000Y-155125000D02*
G75*
G02*
X347519000Y-155425000I-300000J0D01*
G01*
X347819000Y-154325000D02*
G75*
G02*
X347919000Y-154225000I100000J0D01*
G01*
X349619000Y-153925000D02*
G75*
G02*
X349319000Y-154225000I-300000J0D01*
G01*
X349619000Y-148225000D02*
G75*
G02*
X349719000Y-148125000I100000J0D01*
G01*
X350519000Y-147825000D02*
G75*
G02*
X350219000Y-148125000I-300000J0D01*
G01*
X349719000Y-145325000D02*
G75*
G02*
X349619000Y-145225000I0J100000D01*
G01*
X350219000Y-145325000D02*
G75*
G02*
X350519000Y-145625000I0J-300000D01*
G01*
X349319000Y-141925000D02*
G75*
G02*
X349619000Y-142225000I0J-300000D01*
G01*
X342869000Y-142225000D02*
G75*
G02*
X343169000Y-141925000I300000J0D01*
G01*
X342869000Y-142625000D02*
G75*
G02*
X342769000Y-142725000I-100000J0D01*
G01*
X341419000Y-142725000D02*
G75*
G02*
X341319000Y-142625000I0J100000D01*
G01*
X341019000Y-140625000D02*
G75*
G02*
X341319000Y-140925000I0J-300000D01*
G01*
X327319000Y-140925000D02*
G75*
G02*
X327619000Y-140625000I300000J0D01*
G01*
%TO.C,KSW1*%
X72525000Y-102825000D02*
X72525000Y-116225000D01*
X72825000Y-116525000D02*
X86225000Y-116525000D01*
X86525000Y-116225000D02*
X86525000Y-102825000D01*
X86225000Y-102525000D02*
X72825000Y-102525000D01*
X86525000Y-116225000D02*
G75*
G02*
X86225000Y-116525000I-300000J0D01*
G01*
X72825000Y-116525000D02*
G75*
G02*
X72525000Y-116225000I0J300000D01*
G01*
X72525000Y-102825000D02*
G75*
G02*
X72825000Y-102525000I300000J0D01*
G01*
X86225000Y-102525000D02*
G75*
G02*
X86525000Y-102825000I0J-300000D01*
G01*
%TO.C,KSW2*%
X91575000Y-102825000D02*
X91575000Y-116225000D01*
X91875000Y-116525000D02*
X105275000Y-116525000D01*
X105575000Y-116225000D02*
X105575000Y-102825000D01*
X105275000Y-102525000D02*
X91875000Y-102525000D01*
X105575000Y-116225000D02*
G75*
G02*
X105275000Y-116525000I-300000J0D01*
G01*
X91875000Y-116525000D02*
G75*
G02*
X91575000Y-116225000I0J300000D01*
G01*
X91575000Y-102825000D02*
G75*
G02*
X91875000Y-102525000I300000J0D01*
G01*
X105275000Y-102525000D02*
G75*
G02*
X105575000Y-102825000I0J-300000D01*
G01*
%TO.C,KSW3*%
X110625000Y-102825000D02*
X110625000Y-116225000D01*
X110925000Y-116525000D02*
X124325000Y-116525000D01*
X124625000Y-116225000D02*
X124625000Y-102825000D01*
X124325000Y-102525000D02*
X110925000Y-102525000D01*
X124625000Y-116225000D02*
G75*
G02*
X124325000Y-116525000I-300000J0D01*
G01*
X110925000Y-116525000D02*
G75*
G02*
X110625000Y-116225000I0J300000D01*
G01*
X110625000Y-102825000D02*
G75*
G02*
X110925000Y-102525000I300000J0D01*
G01*
X124325000Y-102525000D02*
G75*
G02*
X124625000Y-102825000I0J-300000D01*
G01*
%TO.C,KSW4*%
X129675000Y-102825000D02*
X129675000Y-116225000D01*
X129975000Y-116525000D02*
X143375000Y-116525000D01*
X143675000Y-116225000D02*
X143675000Y-102825000D01*
X143375000Y-102525000D02*
X129975000Y-102525000D01*
X143675000Y-116225000D02*
G75*
G02*
X143375000Y-116525000I-300000J0D01*
G01*
X129975000Y-116525000D02*
G75*
G02*
X129675000Y-116225000I0J300000D01*
G01*
X129675000Y-102825000D02*
G75*
G02*
X129975000Y-102525000I300000J0D01*
G01*
X143375000Y-102525000D02*
G75*
G02*
X143675000Y-102825000I0J-300000D01*
G01*
%TO.C,KSW5*%
X148725000Y-102825000D02*
X148725000Y-116225000D01*
X149025000Y-116525000D02*
X162425000Y-116525000D01*
X162725000Y-116225000D02*
X162725000Y-102825000D01*
X162425000Y-102525000D02*
X149025000Y-102525000D01*
X162725000Y-116225000D02*
G75*
G02*
X162425000Y-116525000I-300000J0D01*
G01*
X149025000Y-116525000D02*
G75*
G02*
X148725000Y-116225000I0J300000D01*
G01*
X148725000Y-102825000D02*
G75*
G02*
X149025000Y-102525000I300000J0D01*
G01*
X162425000Y-102525000D02*
G75*
G02*
X162725000Y-102825000I0J-300000D01*
G01*
%TO.C,KSW6*%
X167775000Y-102825000D02*
X167775000Y-116225000D01*
X168075000Y-116525000D02*
X181475000Y-116525000D01*
X181775000Y-116225000D02*
X181775000Y-102825000D01*
X181475000Y-102525000D02*
X168075000Y-102525000D01*
X181775000Y-116225000D02*
G75*
G02*
X181475000Y-116525000I-300000J0D01*
G01*
X168075000Y-116525000D02*
G75*
G02*
X167775000Y-116225000I0J300000D01*
G01*
X167775000Y-102825000D02*
G75*
G02*
X168075000Y-102525000I300000J0D01*
G01*
X181475000Y-102525000D02*
G75*
G02*
X181775000Y-102825000I0J-300000D01*
G01*
%TO.C,KSW7*%
X186825000Y-102825000D02*
X186825000Y-116225000D01*
X187125000Y-116525000D02*
X200525000Y-116525000D01*
X200825000Y-116225000D02*
X200825000Y-102825000D01*
X200525000Y-102525000D02*
X187125000Y-102525000D01*
X200825000Y-116225000D02*
G75*
G02*
X200525000Y-116525000I-300000J0D01*
G01*
X187125000Y-116525000D02*
G75*
G02*
X186825000Y-116225000I0J300000D01*
G01*
X186825000Y-102825000D02*
G75*
G02*
X187125000Y-102525000I300000J0D01*
G01*
X200525000Y-102525000D02*
G75*
G02*
X200825000Y-102825000I0J-300000D01*
G01*
%TO.C,KSW8*%
X205875000Y-102825000D02*
X205875000Y-116225000D01*
X206175000Y-116525000D02*
X219575000Y-116525000D01*
X219875000Y-116225000D02*
X219875000Y-102825000D01*
X219575000Y-102525000D02*
X206175000Y-102525000D01*
X219875000Y-116225000D02*
G75*
G02*
X219575000Y-116525000I-300000J0D01*
G01*
X206175000Y-116525000D02*
G75*
G02*
X205875000Y-116225000I0J300000D01*
G01*
X205875000Y-102825000D02*
G75*
G02*
X206175000Y-102525000I300000J0D01*
G01*
X219575000Y-102525000D02*
G75*
G02*
X219875000Y-102825000I0J-300000D01*
G01*
%TO.C,KSW9*%
X224925000Y-102825000D02*
X224925000Y-116225000D01*
X225225000Y-116525000D02*
X238625000Y-116525000D01*
X238925000Y-116225000D02*
X238925000Y-102825000D01*
X238625000Y-102525000D02*
X225225000Y-102525000D01*
X238925000Y-116225000D02*
G75*
G02*
X238625000Y-116525000I-300000J0D01*
G01*
X225225000Y-116525000D02*
G75*
G02*
X224925000Y-116225000I0J300000D01*
G01*
X224925000Y-102825000D02*
G75*
G02*
X225225000Y-102525000I300000J0D01*
G01*
X238625000Y-102525000D02*
G75*
G02*
X238925000Y-102825000I0J-300000D01*
G01*
%TO.C,KSW10*%
X243975000Y-102825000D02*
X243975000Y-116225000D01*
X244275000Y-116525000D02*
X257675000Y-116525000D01*
X257975000Y-116225000D02*
X257975000Y-102825000D01*
X257675000Y-102525000D02*
X244275000Y-102525000D01*
X257975000Y-116225000D02*
G75*
G02*
X257675000Y-116525000I-300000J0D01*
G01*
X244275000Y-116525000D02*
G75*
G02*
X243975000Y-116225000I0J300000D01*
G01*
X243975000Y-102825000D02*
G75*
G02*
X244275000Y-102525000I300000J0D01*
G01*
X257675000Y-102525000D02*
G75*
G02*
X257975000Y-102825000I0J-300000D01*
G01*
%TO.C,KSW11*%
X263025000Y-102825000D02*
X263025000Y-116225000D01*
X263325000Y-116525000D02*
X276725000Y-116525000D01*
X277025000Y-116225000D02*
X277025000Y-102825000D01*
X276725000Y-102525000D02*
X263325000Y-102525000D01*
X277025000Y-116225000D02*
G75*
G02*
X276725000Y-116525000I-300000J0D01*
G01*
X263325000Y-116525000D02*
G75*
G02*
X263025000Y-116225000I0J300000D01*
G01*
X263025000Y-102825000D02*
G75*
G02*
X263325000Y-102525000I300000J0D01*
G01*
X276725000Y-102525000D02*
G75*
G02*
X277025000Y-102825000I0J-300000D01*
G01*
%TO.C,KSW12*%
X282075000Y-102825000D02*
X282075000Y-116225000D01*
X282375000Y-116525000D02*
X295775000Y-116525000D01*
X296075000Y-116225000D02*
X296075000Y-102825000D01*
X295775000Y-102525000D02*
X282375000Y-102525000D01*
X296075000Y-116225000D02*
G75*
G02*
X295775000Y-116525000I-300000J0D01*
G01*
X282375000Y-116525000D02*
G75*
G02*
X282075000Y-116225000I0J300000D01*
G01*
X282075000Y-102825000D02*
G75*
G02*
X282375000Y-102525000I300000J0D01*
G01*
X295775000Y-102525000D02*
G75*
G02*
X296075000Y-102825000I0J-300000D01*
G01*
%TO.C,KSW13*%
X301125000Y-102825000D02*
X301125000Y-116225000D01*
X301425000Y-116525000D02*
X314825000Y-116525000D01*
X315125000Y-116225000D02*
X315125000Y-102825000D01*
X314825000Y-102525000D02*
X301425000Y-102525000D01*
X315125000Y-116225000D02*
G75*
G02*
X314825000Y-116525000I-300000J0D01*
G01*
X301425000Y-116525000D02*
G75*
G02*
X301125000Y-116225000I0J300000D01*
G01*
X301125000Y-102825000D02*
G75*
G02*
X301425000Y-102525000I300000J0D01*
G01*
X314825000Y-102525000D02*
G75*
G02*
X315125000Y-102825000I0J-300000D01*
G01*
%TO.C,KSW15*%
X339225000Y-102825000D02*
X339225000Y-116225000D01*
X339525000Y-116525000D02*
X352925000Y-116525000D01*
X353225000Y-116225000D02*
X353225000Y-102825000D01*
X352925000Y-102525000D02*
X339525000Y-102525000D01*
X353225000Y-116225000D02*
G75*
G02*
X352925000Y-116525000I-300000J0D01*
G01*
X339525000Y-116525000D02*
G75*
G02*
X339225000Y-116225000I0J300000D01*
G01*
X339225000Y-102825000D02*
G75*
G02*
X339525000Y-102525000I300000J0D01*
G01*
X352925000Y-102525000D02*
G75*
G02*
X353225000Y-102825000I0J-300000D01*
G01*
%TO.C,KSW16*%
X77287500Y-121875000D02*
X77287500Y-135275000D01*
X77587500Y-135575000D02*
X90987500Y-135575000D01*
X91287500Y-135275000D02*
X91287500Y-121875000D01*
X90987500Y-121575000D02*
X77587500Y-121575000D01*
X91287500Y-135275000D02*
G75*
G02*
X90987500Y-135575000I-300000J0D01*
G01*
X77587500Y-135575000D02*
G75*
G02*
X77287500Y-135275000I0J300000D01*
G01*
X77287500Y-121875000D02*
G75*
G02*
X77587500Y-121575000I300000J0D01*
G01*
X90987500Y-121575000D02*
G75*
G02*
X91287500Y-121875000I0J-300000D01*
G01*
%TO.C,KSW17*%
X101100000Y-121875000D02*
X101100000Y-135275000D01*
X101400000Y-135575000D02*
X114800000Y-135575000D01*
X115100000Y-135275000D02*
X115100000Y-121875000D01*
X114800000Y-121575000D02*
X101400000Y-121575000D01*
X115100000Y-135275000D02*
G75*
G02*
X114800000Y-135575000I-300000J0D01*
G01*
X101400000Y-135575000D02*
G75*
G02*
X101100000Y-135275000I0J300000D01*
G01*
X101100000Y-121875000D02*
G75*
G02*
X101400000Y-121575000I300000J0D01*
G01*
X114800000Y-121575000D02*
G75*
G02*
X115100000Y-121875000I0J-300000D01*
G01*
%TO.C,KSW18*%
X120150000Y-121875000D02*
X120150000Y-135275000D01*
X120450000Y-135575000D02*
X133850000Y-135575000D01*
X134150000Y-135275000D02*
X134150000Y-121875000D01*
X133850000Y-121575000D02*
X120450000Y-121575000D01*
X134150000Y-135275000D02*
G75*
G02*
X133850000Y-135575000I-300000J0D01*
G01*
X120450000Y-135575000D02*
G75*
G02*
X120150000Y-135275000I0J300000D01*
G01*
X120150000Y-121875000D02*
G75*
G02*
X120450000Y-121575000I300000J0D01*
G01*
X133850000Y-121575000D02*
G75*
G02*
X134150000Y-121875000I0J-300000D01*
G01*
%TO.C,KSW19*%
X139200000Y-121875000D02*
X139200000Y-135275000D01*
X139500000Y-135575000D02*
X152900000Y-135575000D01*
X153200000Y-135275000D02*
X153200000Y-121875000D01*
X152900000Y-121575000D02*
X139500000Y-121575000D01*
X153200000Y-135275000D02*
G75*
G02*
X152900000Y-135575000I-300000J0D01*
G01*
X139500000Y-135575000D02*
G75*
G02*
X139200000Y-135275000I0J300000D01*
G01*
X139200000Y-121875000D02*
G75*
G02*
X139500000Y-121575000I300000J0D01*
G01*
X152900000Y-121575000D02*
G75*
G02*
X153200000Y-121875000I0J-300000D01*
G01*
%TO.C,KSW20*%
X158250000Y-121875000D02*
X158250000Y-135275000D01*
X158550000Y-135575000D02*
X171950000Y-135575000D01*
X172250000Y-135275000D02*
X172250000Y-121875000D01*
X171950000Y-121575000D02*
X158550000Y-121575000D01*
X172250000Y-135275000D02*
G75*
G02*
X171950000Y-135575000I-300000J0D01*
G01*
X158550000Y-135575000D02*
G75*
G02*
X158250000Y-135275000I0J300000D01*
G01*
X158250000Y-121875000D02*
G75*
G02*
X158550000Y-121575000I300000J0D01*
G01*
X171950000Y-121575000D02*
G75*
G02*
X172250000Y-121875000I0J-300000D01*
G01*
%TO.C,KSW21*%
X177300000Y-121875000D02*
X177300000Y-135275000D01*
X177600000Y-135575000D02*
X191000000Y-135575000D01*
X191300000Y-135275000D02*
X191300000Y-121875000D01*
X191000000Y-121575000D02*
X177600000Y-121575000D01*
X191300000Y-135275000D02*
G75*
G02*
X191000000Y-135575000I-300000J0D01*
G01*
X177600000Y-135575000D02*
G75*
G02*
X177300000Y-135275000I0J300000D01*
G01*
X177300000Y-121875000D02*
G75*
G02*
X177600000Y-121575000I300000J0D01*
G01*
X191000000Y-121575000D02*
G75*
G02*
X191300000Y-121875000I0J-300000D01*
G01*
%TO.C,KSW22*%
X196350000Y-121875000D02*
X196350000Y-135275000D01*
X196650000Y-135575000D02*
X210050000Y-135575000D01*
X210350000Y-135275000D02*
X210350000Y-121875000D01*
X210050000Y-121575000D02*
X196650000Y-121575000D01*
X210350000Y-135275000D02*
G75*
G02*
X210050000Y-135575000I-300000J0D01*
G01*
X196650000Y-135575000D02*
G75*
G02*
X196350000Y-135275000I0J300000D01*
G01*
X196350000Y-121875000D02*
G75*
G02*
X196650000Y-121575000I300000J0D01*
G01*
X210050000Y-121575000D02*
G75*
G02*
X210350000Y-121875000I0J-300000D01*
G01*
%TO.C,KSW23*%
X215400000Y-121875000D02*
X215400000Y-135275000D01*
X215700000Y-135575000D02*
X229100000Y-135575000D01*
X229400000Y-135275000D02*
X229400000Y-121875000D01*
X229100000Y-121575000D02*
X215700000Y-121575000D01*
X229400000Y-135275000D02*
G75*
G02*
X229100000Y-135575000I-300000J0D01*
G01*
X215700000Y-135575000D02*
G75*
G02*
X215400000Y-135275000I0J300000D01*
G01*
X215400000Y-121875000D02*
G75*
G02*
X215700000Y-121575000I300000J0D01*
G01*
X229100000Y-121575000D02*
G75*
G02*
X229400000Y-121875000I0J-300000D01*
G01*
%TO.C,KSW24*%
X234450000Y-121875000D02*
X234450000Y-135275000D01*
X234750000Y-135575000D02*
X248150000Y-135575000D01*
X248450000Y-135275000D02*
X248450000Y-121875000D01*
X248150000Y-121575000D02*
X234750000Y-121575000D01*
X248450000Y-135275000D02*
G75*
G02*
X248150000Y-135575000I-300000J0D01*
G01*
X234750000Y-135575000D02*
G75*
G02*
X234450000Y-135275000I0J300000D01*
G01*
X234450000Y-121875000D02*
G75*
G02*
X234750000Y-121575000I300000J0D01*
G01*
X248150000Y-121575000D02*
G75*
G02*
X248450000Y-121875000I0J-300000D01*
G01*
%TO.C,KSW25*%
X253500000Y-121875000D02*
X253500000Y-135275000D01*
X253800000Y-135575000D02*
X267200000Y-135575000D01*
X267500000Y-135275000D02*
X267500000Y-121875000D01*
X267200000Y-121575000D02*
X253800000Y-121575000D01*
X267500000Y-135275000D02*
G75*
G02*
X267200000Y-135575000I-300000J0D01*
G01*
X253800000Y-135575000D02*
G75*
G02*
X253500000Y-135275000I0J300000D01*
G01*
X253500000Y-121875000D02*
G75*
G02*
X253800000Y-121575000I300000J0D01*
G01*
X267200000Y-121575000D02*
G75*
G02*
X267500000Y-121875000I0J-300000D01*
G01*
%TO.C,KSW26*%
X272550000Y-121875000D02*
X272550000Y-135275000D01*
X272850000Y-135575000D02*
X286250000Y-135575000D01*
X286550000Y-135275000D02*
X286550000Y-121875000D01*
X286250000Y-121575000D02*
X272850000Y-121575000D01*
X286550000Y-135275000D02*
G75*
G02*
X286250000Y-135575000I-300000J0D01*
G01*
X272850000Y-135575000D02*
G75*
G02*
X272550000Y-135275000I0J300000D01*
G01*
X272550000Y-121875000D02*
G75*
G02*
X272850000Y-121575000I300000J0D01*
G01*
X286250000Y-121575000D02*
G75*
G02*
X286550000Y-121875000I0J-300000D01*
G01*
%TO.C,KSW27*%
X291600000Y-121875000D02*
X291600000Y-135275000D01*
X291900000Y-135575000D02*
X305300000Y-135575000D01*
X305600000Y-135275000D02*
X305600000Y-121875000D01*
X305300000Y-121575000D02*
X291900000Y-121575000D01*
X305600000Y-135275000D02*
G75*
G02*
X305300000Y-135575000I-300000J0D01*
G01*
X291900000Y-135575000D02*
G75*
G02*
X291600000Y-135275000I0J300000D01*
G01*
X291600000Y-121875000D02*
G75*
G02*
X291900000Y-121575000I300000J0D01*
G01*
X305300000Y-121575000D02*
G75*
G02*
X305600000Y-121875000I0J-300000D01*
G01*
%TO.C,KSW28*%
X310650000Y-121875000D02*
X310650000Y-135275000D01*
X310950000Y-135575000D02*
X324350000Y-135575000D01*
X324650000Y-135275000D02*
X324650000Y-121875000D01*
X324350000Y-121575000D02*
X310950000Y-121575000D01*
X324650000Y-135275000D02*
G75*
G02*
X324350000Y-135575000I-300000J0D01*
G01*
X310950000Y-135575000D02*
G75*
G02*
X310650000Y-135275000I0J300000D01*
G01*
X310650000Y-121875000D02*
G75*
G02*
X310950000Y-121575000I300000J0D01*
G01*
X324350000Y-121575000D02*
G75*
G02*
X324650000Y-121875000I0J-300000D01*
G01*
%TO.C,KSW29*%
X334462000Y-121875000D02*
X334462000Y-135275000D01*
X334762000Y-135575000D02*
X348162000Y-135575000D01*
X348462000Y-135275000D02*
X348462000Y-121875000D01*
X348162000Y-121575000D02*
X334762000Y-121575000D01*
X348462000Y-135275000D02*
G75*
G02*
X348162000Y-135575000I-300000J0D01*
G01*
X334762000Y-135575000D02*
G75*
G02*
X334462000Y-135275000I0J300000D01*
G01*
X334462000Y-121875000D02*
G75*
G02*
X334762000Y-121575000I300000J0D01*
G01*
X348162000Y-121575000D02*
G75*
G02*
X348462000Y-121875000I0J-300000D01*
G01*
%TO.C,KSW30*%
X79668800Y-140925000D02*
X79668800Y-154325000D01*
X79968800Y-154625000D02*
X93368800Y-154625000D01*
X93668800Y-154325000D02*
X93668800Y-140925000D01*
X93368800Y-140625000D02*
X79968800Y-140625000D01*
X93668800Y-154325000D02*
G75*
G02*
X93368800Y-154625000I-300000J0D01*
G01*
X79968800Y-154625000D02*
G75*
G02*
X79668800Y-154325000I0J300000D01*
G01*
X79668800Y-140925000D02*
G75*
G02*
X79968800Y-140625000I300000J0D01*
G01*
X93368800Y-140625000D02*
G75*
G02*
X93668800Y-140925000I0J-300000D01*
G01*
%TO.C,KSW31*%
X105862000Y-140925000D02*
X105862000Y-154325000D01*
X106162000Y-154625000D02*
X119562000Y-154625000D01*
X119862000Y-154325000D02*
X119862000Y-140925000D01*
X119562000Y-140625000D02*
X106162000Y-140625000D01*
X119862000Y-154325000D02*
G75*
G02*
X119562000Y-154625000I-300000J0D01*
G01*
X106162000Y-154625000D02*
G75*
G02*
X105862000Y-154325000I0J300000D01*
G01*
X105862000Y-140925000D02*
G75*
G02*
X106162000Y-140625000I300000J0D01*
G01*
X119562000Y-140625000D02*
G75*
G02*
X119862000Y-140925000I0J-300000D01*
G01*
%TO.C,KSW32*%
X124912000Y-140925000D02*
X124912000Y-154325000D01*
X125212000Y-154625000D02*
X138612000Y-154625000D01*
X138912000Y-154325000D02*
X138912000Y-140925000D01*
X138612000Y-140625000D02*
X125212000Y-140625000D01*
X138912000Y-154325000D02*
G75*
G02*
X138612000Y-154625000I-300000J0D01*
G01*
X125212000Y-154625000D02*
G75*
G02*
X124912000Y-154325000I0J300000D01*
G01*
X124912000Y-140925000D02*
G75*
G02*
X125212000Y-140625000I300000J0D01*
G01*
X138612000Y-140625000D02*
G75*
G02*
X138912000Y-140925000I0J-300000D01*
G01*
%TO.C,KSW33*%
X143962000Y-140925000D02*
X143962000Y-154325000D01*
X144262000Y-154625000D02*
X157662000Y-154625000D01*
X157962000Y-154325000D02*
X157962000Y-140925000D01*
X157662000Y-140625000D02*
X144262000Y-140625000D01*
X157962000Y-154325000D02*
G75*
G02*
X157662000Y-154625000I-300000J0D01*
G01*
X144262000Y-154625000D02*
G75*
G02*
X143962000Y-154325000I0J300000D01*
G01*
X143962000Y-140925000D02*
G75*
G02*
X144262000Y-140625000I300000J0D01*
G01*
X157662000Y-140625000D02*
G75*
G02*
X157962000Y-140925000I0J-300000D01*
G01*
%TO.C,KSW34*%
X163012000Y-140925000D02*
X163012000Y-154325000D01*
X163312000Y-154625000D02*
X176712000Y-154625000D01*
X177012000Y-154325000D02*
X177012000Y-140925000D01*
X176712000Y-140625000D02*
X163312000Y-140625000D01*
X177012000Y-154325000D02*
G75*
G02*
X176712000Y-154625000I-300000J0D01*
G01*
X163312000Y-154625000D02*
G75*
G02*
X163012000Y-154325000I0J300000D01*
G01*
X163012000Y-140925000D02*
G75*
G02*
X163312000Y-140625000I300000J0D01*
G01*
X176712000Y-140625000D02*
G75*
G02*
X177012000Y-140925000I0J-300000D01*
G01*
%TO.C,KSW35*%
X196062000Y-154325000D02*
X196062000Y-140925000D01*
X195762000Y-140625000D02*
X182362000Y-140625000D01*
X182062000Y-140925000D02*
X182062000Y-154325000D01*
X182362000Y-154625000D02*
X195762000Y-154625000D01*
X182062000Y-140925000D02*
G75*
G02*
X182362000Y-140625000I300000J0D01*
G01*
X195762000Y-140625000D02*
G75*
G02*
X196062000Y-140925000I0J-300000D01*
G01*
X196062000Y-154325000D02*
G75*
G02*
X195762000Y-154625000I-300000J0D01*
G01*
X182362000Y-154625000D02*
G75*
G02*
X182062000Y-154325000I0J300000D01*
G01*
%TO.C,KSW36*%
X201112000Y-140925000D02*
X201112000Y-154325000D01*
X201412000Y-154625000D02*
X214812000Y-154625000D01*
X215112000Y-154325000D02*
X215112000Y-140925000D01*
X214812000Y-140625000D02*
X201412000Y-140625000D01*
X215112000Y-154325000D02*
G75*
G02*
X214812000Y-154625000I-300000J0D01*
G01*
X201412000Y-154625000D02*
G75*
G02*
X201112000Y-154325000I0J300000D01*
G01*
X201112000Y-140925000D02*
G75*
G02*
X201412000Y-140625000I300000J0D01*
G01*
X214812000Y-140625000D02*
G75*
G02*
X215112000Y-140925000I0J-300000D01*
G01*
%TO.C,KSW37*%
X220162000Y-140925000D02*
X220162000Y-154325000D01*
X220462000Y-154625000D02*
X233862000Y-154625000D01*
X234162000Y-154325000D02*
X234162000Y-140925000D01*
X233862000Y-140625000D02*
X220462000Y-140625000D01*
X234162000Y-154325000D02*
G75*
G02*
X233862000Y-154625000I-300000J0D01*
G01*
X220462000Y-154625000D02*
G75*
G02*
X220162000Y-154325000I0J300000D01*
G01*
X220162000Y-140925000D02*
G75*
G02*
X220462000Y-140625000I300000J0D01*
G01*
X233862000Y-140625000D02*
G75*
G02*
X234162000Y-140925000I0J-300000D01*
G01*
%TO.C,KSW38*%
X239212000Y-140925000D02*
X239212000Y-154325000D01*
X239512000Y-154625000D02*
X252912000Y-154625000D01*
X253212000Y-154325000D02*
X253212000Y-140925000D01*
X252912000Y-140625000D02*
X239512000Y-140625000D01*
X253212000Y-154325000D02*
G75*
G02*
X252912000Y-154625000I-300000J0D01*
G01*
X239512000Y-154625000D02*
G75*
G02*
X239212000Y-154325000I0J300000D01*
G01*
X239212000Y-140925000D02*
G75*
G02*
X239512000Y-140625000I300000J0D01*
G01*
X252912000Y-140625000D02*
G75*
G02*
X253212000Y-140925000I0J-300000D01*
G01*
%TO.C,KSW39*%
X258262000Y-140925000D02*
X258262000Y-154325000D01*
X258562000Y-154625000D02*
X271962000Y-154625000D01*
X272262000Y-154325000D02*
X272262000Y-140925000D01*
X271962000Y-140625000D02*
X258562000Y-140625000D01*
X272262000Y-154325000D02*
G75*
G02*
X271962000Y-154625000I-300000J0D01*
G01*
X258562000Y-154625000D02*
G75*
G02*
X258262000Y-154325000I0J300000D01*
G01*
X258262000Y-140925000D02*
G75*
G02*
X258562000Y-140625000I300000J0D01*
G01*
X271962000Y-140625000D02*
G75*
G02*
X272262000Y-140925000I0J-300000D01*
G01*
%TO.C,KSW40*%
X277312000Y-140925000D02*
X277312000Y-154325000D01*
X277612000Y-154625000D02*
X291012000Y-154625000D01*
X291312000Y-154325000D02*
X291312000Y-140925000D01*
X291012000Y-140625000D02*
X277612000Y-140625000D01*
X291312000Y-154325000D02*
G75*
G02*
X291012000Y-154625000I-300000J0D01*
G01*
X277612000Y-154625000D02*
G75*
G02*
X277312000Y-154325000I0J300000D01*
G01*
X277312000Y-140925000D02*
G75*
G02*
X277612000Y-140625000I300000J0D01*
G01*
X291012000Y-140625000D02*
G75*
G02*
X291312000Y-140925000I0J-300000D01*
G01*
%TO.C,KSW41*%
X296362000Y-140925000D02*
X296362000Y-154325000D01*
X296662000Y-154625000D02*
X310062000Y-154625000D01*
X310362000Y-154325000D02*
X310362000Y-140925000D01*
X310062000Y-140625000D02*
X296662000Y-140625000D01*
X310362000Y-154325000D02*
G75*
G02*
X310062000Y-154625000I-300000J0D01*
G01*
X296662000Y-154625000D02*
G75*
G02*
X296362000Y-154325000I0J300000D01*
G01*
X296362000Y-140925000D02*
G75*
G02*
X296662000Y-140625000I300000J0D01*
G01*
X310062000Y-140625000D02*
G75*
G02*
X310362000Y-140925000I0J-300000D01*
G01*
%TO.C,KSW44*%
X115388000Y-159975000D02*
X115388000Y-173375000D01*
X115688000Y-173675000D02*
X129088000Y-173675000D01*
X129388000Y-173375000D02*
X129388000Y-159975000D01*
X129088000Y-159675000D02*
X115688000Y-159675000D01*
X129388000Y-173375000D02*
G75*
G02*
X129088000Y-173675000I-300000J0D01*
G01*
X115688000Y-173675000D02*
G75*
G02*
X115388000Y-173375000I0J300000D01*
G01*
X115388000Y-159975000D02*
G75*
G02*
X115688000Y-159675000I300000J0D01*
G01*
X129088000Y-159675000D02*
G75*
G02*
X129388000Y-159975000I0J-300000D01*
G01*
%TO.C,KSW45*%
X134438000Y-159975000D02*
X134438000Y-173375000D01*
X134738000Y-173675000D02*
X148138000Y-173675000D01*
X148438000Y-173375000D02*
X148438000Y-159975000D01*
X148138000Y-159675000D02*
X134738000Y-159675000D01*
X148438000Y-173375000D02*
G75*
G02*
X148138000Y-173675000I-300000J0D01*
G01*
X134738000Y-173675000D02*
G75*
G02*
X134438000Y-173375000I0J300000D01*
G01*
X134438000Y-159975000D02*
G75*
G02*
X134738000Y-159675000I300000J0D01*
G01*
X148138000Y-159675000D02*
G75*
G02*
X148438000Y-159975000I0J-300000D01*
G01*
%TO.C,KSW46*%
X153488000Y-159975000D02*
X153488000Y-173375000D01*
X153788000Y-173675000D02*
X167188000Y-173675000D01*
X167488000Y-173375000D02*
X167488000Y-159975000D01*
X167188000Y-159675000D02*
X153788000Y-159675000D01*
X167488000Y-173375000D02*
G75*
G02*
X167188000Y-173675000I-300000J0D01*
G01*
X153788000Y-173675000D02*
G75*
G02*
X153488000Y-173375000I0J300000D01*
G01*
X153488000Y-159975000D02*
G75*
G02*
X153788000Y-159675000I300000J0D01*
G01*
X167188000Y-159675000D02*
G75*
G02*
X167488000Y-159975000I0J-300000D01*
G01*
%TO.C,KSW47*%
X172538000Y-159975000D02*
X172538000Y-173375000D01*
X172838000Y-173675000D02*
X186238000Y-173675000D01*
X186538000Y-173375000D02*
X186538000Y-159975000D01*
X186238000Y-159675000D02*
X172838000Y-159675000D01*
X186538000Y-173375000D02*
G75*
G02*
X186238000Y-173675000I-300000J0D01*
G01*
X172838000Y-173675000D02*
G75*
G02*
X172538000Y-173375000I0J300000D01*
G01*
X172538000Y-159975000D02*
G75*
G02*
X172838000Y-159675000I300000J0D01*
G01*
X186238000Y-159675000D02*
G75*
G02*
X186538000Y-159975000I0J-300000D01*
G01*
%TO.C,KSW48*%
X191588000Y-159975000D02*
X191588000Y-173375000D01*
X191888000Y-173675000D02*
X205288000Y-173675000D01*
X205588000Y-173375000D02*
X205588000Y-159975000D01*
X205288000Y-159675000D02*
X191888000Y-159675000D01*
X205588000Y-173375000D02*
G75*
G02*
X205288000Y-173675000I-300000J0D01*
G01*
X191888000Y-173675000D02*
G75*
G02*
X191588000Y-173375000I0J300000D01*
G01*
X191588000Y-159975000D02*
G75*
G02*
X191888000Y-159675000I300000J0D01*
G01*
X205288000Y-159675000D02*
G75*
G02*
X205588000Y-159975000I0J-300000D01*
G01*
%TO.C,KSW49*%
X210638000Y-159975000D02*
X210638000Y-173375000D01*
X210938000Y-173675000D02*
X224338000Y-173675000D01*
X224638000Y-173375000D02*
X224638000Y-159975000D01*
X224338000Y-159675000D02*
X210938000Y-159675000D01*
X224638000Y-173375000D02*
G75*
G02*
X224338000Y-173675000I-300000J0D01*
G01*
X210938000Y-173675000D02*
G75*
G02*
X210638000Y-173375000I0J300000D01*
G01*
X210638000Y-159975000D02*
G75*
G02*
X210938000Y-159675000I300000J0D01*
G01*
X224338000Y-159675000D02*
G75*
G02*
X224638000Y-159975000I0J-300000D01*
G01*
%TO.C,KSW50*%
X229688000Y-159975000D02*
X229688000Y-173375000D01*
X229988000Y-173675000D02*
X243388000Y-173675000D01*
X243688000Y-173375000D02*
X243688000Y-159975000D01*
X243388000Y-159675000D02*
X229988000Y-159675000D01*
X243688000Y-173375000D02*
G75*
G02*
X243388000Y-173675000I-300000J0D01*
G01*
X229988000Y-173675000D02*
G75*
G02*
X229688000Y-173375000I0J300000D01*
G01*
X229688000Y-159975000D02*
G75*
G02*
X229988000Y-159675000I300000J0D01*
G01*
X243388000Y-159675000D02*
G75*
G02*
X243688000Y-159975000I0J-300000D01*
G01*
%TO.C,KSW51*%
X248738000Y-159975000D02*
X248738000Y-173375000D01*
X249038000Y-173675000D02*
X262438000Y-173675000D01*
X262738000Y-173375000D02*
X262738000Y-159975000D01*
X262438000Y-159675000D02*
X249038000Y-159675000D01*
X262738000Y-173375000D02*
G75*
G02*
X262438000Y-173675000I-300000J0D01*
G01*
X249038000Y-173675000D02*
G75*
G02*
X248738000Y-173375000I0J300000D01*
G01*
X248738000Y-159975000D02*
G75*
G02*
X249038000Y-159675000I300000J0D01*
G01*
X262438000Y-159675000D02*
G75*
G02*
X262738000Y-159975000I0J-300000D01*
G01*
%TO.C,KSW52*%
X267788000Y-159975000D02*
X267788000Y-173375000D01*
X268088000Y-173675000D02*
X281488000Y-173675000D01*
X281788000Y-173375000D02*
X281788000Y-159975000D01*
X281488000Y-159675000D02*
X268088000Y-159675000D01*
X281788000Y-173375000D02*
G75*
G02*
X281488000Y-173675000I-300000J0D01*
G01*
X268088000Y-173675000D02*
G75*
G02*
X267788000Y-173375000I0J300000D01*
G01*
X267788000Y-159975000D02*
G75*
G02*
X268088000Y-159675000I300000J0D01*
G01*
X281488000Y-159675000D02*
G75*
G02*
X281788000Y-159975000I0J-300000D01*
G01*
%TO.C,KSW53*%
X286838000Y-159975000D02*
X286838000Y-173375000D01*
X287138000Y-173675000D02*
X300538000Y-173675000D01*
X300838000Y-173375000D02*
X300838000Y-159975000D01*
X300538000Y-159675000D02*
X287138000Y-159675000D01*
X300838000Y-173375000D02*
G75*
G02*
X300538000Y-173675000I-300000J0D01*
G01*
X287138000Y-173675000D02*
G75*
G02*
X286838000Y-173375000I0J300000D01*
G01*
X286838000Y-159975000D02*
G75*
G02*
X287138000Y-159675000I300000J0D01*
G01*
X300538000Y-159675000D02*
G75*
G02*
X300838000Y-159975000I0J-300000D01*
G01*
%TO.C,KSW54*%
X313031000Y-159975000D02*
X313031000Y-173375000D01*
X313331000Y-173675000D02*
X326731000Y-173675000D01*
X327031000Y-173375000D02*
X327031000Y-159975000D01*
X326731000Y-159675000D02*
X313331000Y-159675000D01*
X327031000Y-173375000D02*
G75*
G02*
X326731000Y-173675000I-300000J0D01*
G01*
X313331000Y-173675000D02*
G75*
G02*
X313031000Y-173375000I0J300000D01*
G01*
X313031000Y-159975000D02*
G75*
G02*
X313331000Y-159675000I300000J0D01*
G01*
X326731000Y-159675000D02*
G75*
G02*
X327031000Y-159975000I0J-300000D01*
G01*
%TO.C,KSW55*%
X339225000Y-159975000D02*
X339225000Y-173375000D01*
X339525000Y-173675000D02*
X352925000Y-173675000D01*
X353225000Y-173375000D02*
X353225000Y-159975000D01*
X352925000Y-159675000D02*
X339525000Y-159675000D01*
X353225000Y-173375000D02*
G75*
G02*
X352925000Y-173675000I-300000J0D01*
G01*
X339525000Y-173675000D02*
G75*
G02*
X339225000Y-173375000I0J300000D01*
G01*
X339225000Y-159975000D02*
G75*
G02*
X339525000Y-159675000I300000J0D01*
G01*
X352925000Y-159675000D02*
G75*
G02*
X353225000Y-159975000I0J-300000D01*
G01*
%TO.C,KSW56*%
X101100000Y-179025000D02*
X101100000Y-192425000D01*
X101400000Y-192725000D02*
X114800000Y-192725000D01*
X115100000Y-192425000D02*
X115100000Y-179025000D01*
X114800000Y-178725000D02*
X101400000Y-178725000D01*
X115100000Y-192425000D02*
G75*
G02*
X114800000Y-192725000I-300000J0D01*
G01*
X101400000Y-192725000D02*
G75*
G02*
X101100000Y-192425000I0J300000D01*
G01*
X101100000Y-179025000D02*
G75*
G02*
X101400000Y-178725000I300000J0D01*
G01*
X114800000Y-178725000D02*
G75*
G02*
X115100000Y-179025000I0J-300000D01*
G01*
%TO.C,KSW57*%
X124912000Y-179025000D02*
X124912000Y-192425000D01*
X125212000Y-192725000D02*
X138612000Y-192725000D01*
X138912000Y-192425000D02*
X138912000Y-179025000D01*
X138612000Y-178725000D02*
X125212000Y-178725000D01*
X138912000Y-192425000D02*
G75*
G02*
X138612000Y-192725000I-300000J0D01*
G01*
X125212000Y-192725000D02*
G75*
G02*
X124912000Y-192425000I0J300000D01*
G01*
X124912000Y-179025000D02*
G75*
G02*
X125212000Y-178725000I300000J0D01*
G01*
X138612000Y-178725000D02*
G75*
G02*
X138912000Y-179025000I0J-300000D01*
G01*
%TO.C,KSW59*%
X267788000Y-179025000D02*
X267788000Y-192425000D01*
X268088000Y-192725000D02*
X281488000Y-192725000D01*
X281788000Y-192425000D02*
X281788000Y-179025000D01*
X281488000Y-178725000D02*
X268088000Y-178725000D01*
X281788000Y-192425000D02*
G75*
G02*
X281488000Y-192725000I-300000J0D01*
G01*
X268088000Y-192725000D02*
G75*
G02*
X267788000Y-192425000I0J300000D01*
G01*
X267788000Y-179025000D02*
G75*
G02*
X268088000Y-178725000I300000J0D01*
G01*
X281488000Y-178725000D02*
G75*
G02*
X281788000Y-179025000I0J-300000D01*
G01*
%TO.C,KSW60*%
X291600000Y-179025000D02*
X291600000Y-192425000D01*
X291900000Y-192725000D02*
X305300000Y-192725000D01*
X305600000Y-192425000D02*
X305600000Y-179025000D01*
X305300000Y-178725000D02*
X291900000Y-178725000D01*
X305600000Y-192425000D02*
G75*
G02*
X305300000Y-192725000I-300000J0D01*
G01*
X291900000Y-192725000D02*
G75*
G02*
X291600000Y-192425000I0J300000D01*
G01*
X291600000Y-179025000D02*
G75*
G02*
X291900000Y-178725000I300000J0D01*
G01*
X305300000Y-178725000D02*
G75*
G02*
X305600000Y-179025000I0J-300000D01*
G01*
%TO.C,KSW14*%
X320175000Y-102825000D02*
X320175000Y-116225000D01*
X320475000Y-116525000D02*
X333875000Y-116525000D01*
X334175000Y-116225000D02*
X334175000Y-102825000D01*
X333875000Y-102525000D02*
X320475000Y-102525000D01*
X334175000Y-116225000D02*
G75*
G02*
X333875000Y-116525000I-300000J0D01*
G01*
X320475000Y-116525000D02*
G75*
G02*
X320175000Y-116225000I0J300000D01*
G01*
X320175000Y-102825000D02*
G75*
G02*
X320475000Y-102525000I300000J0D01*
G01*
X333875000Y-102525000D02*
G75*
G02*
X334175000Y-102825000I0J-300000D01*
G01*
%TD*%
M02*
