%TF.GenerationSoftware,KiCad,Pcbnew,(6.0.1)*%
%TF.CreationDate,2022-03-04T09:32:41+09:00*%
%TF.ProjectId,yuiop2040,7975696f-7032-4303-9430-2e6b69636164,2*%
%TF.SameCoordinates,Original*%
%TF.FileFunction,Soldermask,Bot*%
%TF.FilePolarity,Negative*%
%FSLAX46Y46*%
G04 Gerber Fmt 4.6, Leading zero omitted, Abs format (unit mm)*
G04 Created by KiCad (PCBNEW (6.0.1)) date 2022-03-04 09:32:41*
%MOMM*%
%LPD*%
G01*
G04 APERTURE LIST*
G04 Aperture macros list*
%AMRoundRect*
0 Rectangle with rounded corners*
0 $1 Rounding radius*
0 $2 $3 $4 $5 $6 $7 $8 $9 X,Y pos of 4 corners*
0 Add a 4 corners polygon primitive as box body*
4,1,4,$2,$3,$4,$5,$6,$7,$8,$9,$2,$3,0*
0 Add four circle primitives for the rounded corners*
1,1,$1+$1,$2,$3*
1,1,$1+$1,$4,$5*
1,1,$1+$1,$6,$7*
1,1,$1+$1,$8,$9*
0 Add four rect primitives between the rounded corners*
20,1,$1+$1,$2,$3,$4,$5,0*
20,1,$1+$1,$4,$5,$6,$7,0*
20,1,$1+$1,$6,$7,$8,$9,0*
20,1,$1+$1,$8,$9,$2,$3,0*%
G04 Aperture macros list end*
%ADD10C,0.300000*%
%ADD11C,0.150000*%
%ADD12C,3.200000*%
%ADD13C,1.700000*%
%ADD14RoundRect,0.425000X0.425000X0.425000X-0.425000X0.425000X-0.425000X-0.425000X0.425000X-0.425000X0*%
%ADD15O,1.700000X1.700000*%
%ADD16RoundRect,0.425000X0.425000X-0.425000X0.425000X0.425000X-0.425000X0.425000X-0.425000X-0.425000X0*%
%ADD17RoundRect,0.425000X-0.425000X-0.425000X0.425000X-0.425000X0.425000X0.425000X-0.425000X0.425000X0*%
%ADD18O,1.350000X1.700000*%
%ADD19O,1.100000X1.500000*%
%ADD20C,0.650000*%
%ADD21O,1.000000X1.600000*%
%ADD22O,1.000000X2.100000*%
G04 APERTURE END LIST*
D10*
X145526190Y-117652380D02*
X145526190Y-118604761D01*
X146079523Y-116604761D02*
X145526190Y-117652380D01*
X144972857Y-116604761D01*
X144419523Y-116604761D02*
X144419523Y-118223809D01*
X144340476Y-118414285D01*
X144261428Y-118509523D01*
X144103333Y-118604761D01*
X143787142Y-118604761D01*
X143629047Y-118509523D01*
X143550000Y-118414285D01*
X143470952Y-118223809D01*
X143470952Y-116604761D01*
X142680476Y-118604761D02*
X142680476Y-116604761D01*
X141573809Y-116604761D02*
X141257619Y-116604761D01*
X141099523Y-116700000D01*
X140941428Y-116890476D01*
X140862380Y-117271428D01*
X140862380Y-117938095D01*
X140941428Y-118319047D01*
X141099523Y-118509523D01*
X141257619Y-118604761D01*
X141573809Y-118604761D01*
X141731904Y-118509523D01*
X141890000Y-118319047D01*
X141969047Y-117938095D01*
X141969047Y-117271428D01*
X141890000Y-116890476D01*
X141731904Y-116700000D01*
X141573809Y-116604761D01*
X140150952Y-118604761D02*
X140150952Y-116604761D01*
X139518571Y-116604761D01*
X139360476Y-116700000D01*
X139281428Y-116795238D01*
X139202380Y-116985714D01*
X139202380Y-117271428D01*
X139281428Y-117461904D01*
X139360476Y-117557142D01*
X139518571Y-117652380D01*
X140150952Y-117652380D01*
X138570000Y-116795238D02*
X138490952Y-116700000D01*
X138332857Y-116604761D01*
X137937619Y-116604761D01*
X137779523Y-116700000D01*
X137700476Y-116795238D01*
X137621428Y-116985714D01*
X137621428Y-117176190D01*
X137700476Y-117461904D01*
X138649047Y-118604761D01*
X137621428Y-118604761D01*
X136593809Y-116604761D02*
X136435714Y-116604761D01*
X136277619Y-116700000D01*
X136198571Y-116795238D01*
X136119523Y-116985714D01*
X136040476Y-117366666D01*
X136040476Y-117842857D01*
X136119523Y-118223809D01*
X136198571Y-118414285D01*
X136277619Y-118509523D01*
X136435714Y-118604761D01*
X136593809Y-118604761D01*
X136751904Y-118509523D01*
X136830952Y-118414285D01*
X136910000Y-118223809D01*
X136989047Y-117842857D01*
X136989047Y-117366666D01*
X136910000Y-116985714D01*
X136830952Y-116795238D01*
X136751904Y-116700000D01*
X136593809Y-116604761D01*
X134617619Y-117271428D02*
X134617619Y-118604761D01*
X135012857Y-116509523D02*
X135408095Y-117938095D01*
X134380476Y-117938095D01*
X133431904Y-116604761D02*
X133273809Y-116604761D01*
X133115714Y-116700000D01*
X133036666Y-116795238D01*
X132957619Y-116985714D01*
X132878571Y-117366666D01*
X132878571Y-117842857D01*
X132957619Y-118223809D01*
X133036666Y-118414285D01*
X133115714Y-118509523D01*
X133273809Y-118604761D01*
X133431904Y-118604761D01*
X133590000Y-118509523D01*
X133669047Y-118414285D01*
X133748095Y-118223809D01*
X133827142Y-117842857D01*
X133827142Y-117366666D01*
X133748095Y-116985714D01*
X133669047Y-116795238D01*
X133590000Y-116700000D01*
X133431904Y-116604761D01*
D11*
X142923809Y-120252380D02*
X142923809Y-119585714D01*
X142923809Y-119776190D02*
X142876190Y-119680952D01*
X142828571Y-119633333D01*
X142733333Y-119585714D01*
X142638095Y-119585714D01*
X141923809Y-120204761D02*
X142019047Y-120252380D01*
X142209523Y-120252380D01*
X142304761Y-120204761D01*
X142352380Y-120109523D01*
X142352380Y-119728571D01*
X142304761Y-119633333D01*
X142209523Y-119585714D01*
X142019047Y-119585714D01*
X141923809Y-119633333D01*
X141876190Y-119728571D01*
X141876190Y-119823809D01*
X142352380Y-119919047D01*
X141542857Y-119585714D02*
X141304761Y-120252380D01*
X141066666Y-119585714D01*
X140685714Y-120252380D02*
X140685714Y-119585714D01*
X140685714Y-119252380D02*
X140733333Y-119300000D01*
X140685714Y-119347619D01*
X140638095Y-119300000D01*
X140685714Y-119252380D01*
X140685714Y-119347619D01*
X140257142Y-120204761D02*
X140161904Y-120252380D01*
X139971428Y-120252380D01*
X139876190Y-120204761D01*
X139828571Y-120109523D01*
X139828571Y-120061904D01*
X139876190Y-119966666D01*
X139971428Y-119919047D01*
X140114285Y-119919047D01*
X140209523Y-119871428D01*
X140257142Y-119776190D01*
X140257142Y-119728571D01*
X140209523Y-119633333D01*
X140114285Y-119585714D01*
X139971428Y-119585714D01*
X139876190Y-119633333D01*
X139400000Y-120252380D02*
X139400000Y-119585714D01*
X139400000Y-119252380D02*
X139447619Y-119300000D01*
X139400000Y-119347619D01*
X139352380Y-119300000D01*
X139400000Y-119252380D01*
X139400000Y-119347619D01*
X138780952Y-120252380D02*
X138876190Y-120204761D01*
X138923809Y-120157142D01*
X138971428Y-120061904D01*
X138971428Y-119776190D01*
X138923809Y-119680952D01*
X138876190Y-119633333D01*
X138780952Y-119585714D01*
X138638095Y-119585714D01*
X138542857Y-119633333D01*
X138495238Y-119680952D01*
X138447619Y-119776190D01*
X138447619Y-120061904D01*
X138495238Y-120157142D01*
X138542857Y-120204761D01*
X138638095Y-120252380D01*
X138780952Y-120252380D01*
X138019047Y-119585714D02*
X138019047Y-120252380D01*
X138019047Y-119680952D02*
X137971428Y-119633333D01*
X137876190Y-119585714D01*
X137733333Y-119585714D01*
X137638095Y-119633333D01*
X137590476Y-119728571D01*
X137590476Y-120252380D01*
X136400000Y-119347619D02*
X136352380Y-119300000D01*
X136257142Y-119252380D01*
X136019047Y-119252380D01*
X135923809Y-119300000D01*
X135876190Y-119347619D01*
X135828571Y-119442857D01*
X135828571Y-119538095D01*
X135876190Y-119680952D01*
X136447619Y-120252380D01*
X135828571Y-120252380D01*
D12*
%TO.C,U2*%
X139400000Y-106800000D03*
%TD*%
D13*
%TO.C,J4*%
X150830000Y-123310000D03*
D14*
X150830000Y-120770000D03*
D13*
X150830000Y-118230000D03*
D15*
X150830000Y-115690000D03*
X150830000Y-113150000D03*
X150830000Y-110610000D03*
X150830000Y-108070000D03*
X150830000Y-105530000D03*
X150830000Y-102990000D03*
X150830000Y-100450000D03*
X150830000Y-97910000D03*
X150830000Y-95370000D03*
X150830000Y-92830000D03*
X150830000Y-90290000D03*
D13*
X150830000Y-87750000D03*
D15*
X150830000Y-85210000D03*
D13*
X150830000Y-82670000D03*
D15*
X150830000Y-80130000D03*
X150830000Y-77590000D03*
D14*
X150830000Y-75050000D03*
%TD*%
D13*
%TO.C,J5*%
X136860000Y-123310000D03*
D16*
X139400000Y-123310000D03*
D15*
X141940000Y-123310000D03*
%TD*%
D13*
%TO.C,J3*%
X127970000Y-75050000D03*
D17*
X127970000Y-77590000D03*
D13*
X127970000Y-80130000D03*
D15*
X127970000Y-82670000D03*
X127970000Y-85210000D03*
X127970000Y-87750000D03*
X127970000Y-90290000D03*
X127970000Y-92830000D03*
X127970000Y-95370000D03*
X127970000Y-97910000D03*
X127970000Y-100450000D03*
X127970000Y-102990000D03*
X127970000Y-105530000D03*
X127970000Y-108070000D03*
X127970000Y-110610000D03*
X127970000Y-113150000D03*
X127970000Y-115690000D03*
X127970000Y-118230000D03*
X127970000Y-120770000D03*
X127970000Y-123310000D03*
%TD*%
D18*
%TO.C,J1*%
X141895000Y-75485000D03*
D19*
X142205000Y-78485000D03*
X147045000Y-78485000D03*
D18*
X147355000Y-75485000D03*
%TD*%
D20*
%TO.C,J2*%
X137690000Y-79120000D03*
X131910000Y-79120000D03*
D21*
X130480000Y-75440000D03*
X139120000Y-75440000D03*
D22*
X139120000Y-79620000D03*
X130480000Y-79620000D03*
%TD*%
M02*
