%TF.GenerationSoftware,KiCad,Pcbnew,(6.0.1)*%
%TF.CreationDate,2022-03-04T09:32:41+09:00*%
%TF.ProjectId,yuiop2040,7975696f-7032-4303-9430-2e6b69636164,2*%
%TF.SameCoordinates,Original*%
%TF.FileFunction,Legend,Bot*%
%TF.FilePolarity,Positive*%
%FSLAX46Y46*%
G04 Gerber Fmt 4.6, Leading zero omitted, Abs format (unit mm)*
G04 Created by KiCad (PCBNEW (6.0.1)) date 2022-03-04 09:32:41*
%MOMM*%
%LPD*%
G01*
G04 APERTURE LIST*
%ADD10C,0.150000*%
%ADD11C,0.100000*%
%ADD12C,0.075000*%
%ADD13C,0.120000*%
G04 APERTURE END LIST*
D10*
X129240000Y-114166000D02*
X129240000Y-113785000D01*
X128859000Y-93846000D02*
X129240000Y-93846000D01*
X149560000Y-108705000D02*
X149560000Y-109086000D01*
X129240000Y-115055000D02*
X129240000Y-114674000D01*
X129240000Y-84194000D02*
X128859000Y-84194000D01*
X129240000Y-94735000D02*
X129240000Y-94354000D01*
X149941000Y-84194000D02*
X149560000Y-84194000D01*
X129240000Y-104006000D02*
X129240000Y-103625000D01*
X149560000Y-109086000D02*
X149941000Y-109086000D01*
X149560000Y-93846000D02*
X149941000Y-93846000D01*
X129240000Y-104514000D02*
X128859000Y-104514000D01*
X129240000Y-84575000D02*
X129240000Y-84194000D01*
X149560000Y-99434000D02*
X149560000Y-99815000D01*
X129240000Y-94354000D02*
X128859000Y-94354000D01*
X149560000Y-93465000D02*
X149560000Y-93846000D01*
X149941000Y-99434000D02*
X149560000Y-99434000D01*
X129240000Y-114674000D02*
X128859000Y-114674000D01*
X128859000Y-104006000D02*
X129240000Y-104006000D01*
X129240000Y-104895000D02*
X129240000Y-104514000D01*
X129240000Y-93846000D02*
X129240000Y-93465000D01*
X149560000Y-118865000D02*
X149560000Y-119246000D01*
X149560000Y-119246000D02*
X149941000Y-119246000D01*
X128859000Y-114166000D02*
X129240000Y-114166000D01*
X128859000Y-124326000D02*
X129240000Y-124326000D01*
X149560000Y-109594000D02*
X149560000Y-109975000D01*
X149560000Y-84194000D02*
X149560000Y-84575000D01*
X129240000Y-124326000D02*
X129240000Y-123945000D01*
X149941000Y-109594000D02*
X149560000Y-109594000D01*
D11*
X138352857Y-121809761D02*
X138258571Y-121857380D01*
X138101428Y-121857380D01*
X138038571Y-121809761D01*
X138007142Y-121762142D01*
X137975714Y-121666904D01*
X137975714Y-121571666D01*
X138007142Y-121476428D01*
X138038571Y-121428809D01*
X138101428Y-121381190D01*
X138227142Y-121333571D01*
X138290000Y-121285952D01*
X138321428Y-121238333D01*
X138352857Y-121143095D01*
X138352857Y-121047857D01*
X138321428Y-120952619D01*
X138290000Y-120905000D01*
X138227142Y-120857380D01*
X138070000Y-120857380D01*
X137975714Y-120905000D01*
X137755714Y-120857380D02*
X137598571Y-121857380D01*
X137472857Y-121143095D01*
X137347142Y-121857380D01*
X137190000Y-120857380D01*
X136561428Y-121762142D02*
X136592857Y-121809761D01*
X136687142Y-121857380D01*
X136750000Y-121857380D01*
X136844285Y-121809761D01*
X136907142Y-121714523D01*
X136938571Y-121619285D01*
X136970000Y-121428809D01*
X136970000Y-121285952D01*
X136938571Y-121095476D01*
X136907142Y-121000238D01*
X136844285Y-120905000D01*
X136750000Y-120857380D01*
X136687142Y-120857380D01*
X136592857Y-120905000D01*
X136561428Y-120952619D01*
X135964285Y-121857380D02*
X136278571Y-121857380D01*
X136278571Y-120857380D01*
X135744285Y-121857380D02*
X135744285Y-120857380D01*
X135367142Y-121857380D02*
X135650000Y-121285952D01*
X135367142Y-120857380D02*
X135744285Y-121428809D01*
X142835714Y-121809761D02*
X142741428Y-121857380D01*
X142584285Y-121857380D01*
X142521428Y-121809761D01*
X142490000Y-121762142D01*
X142458571Y-121666904D01*
X142458571Y-121571666D01*
X142490000Y-121476428D01*
X142521428Y-121428809D01*
X142584285Y-121381190D01*
X142710000Y-121333571D01*
X142772857Y-121285952D01*
X142804285Y-121238333D01*
X142835714Y-121143095D01*
X142835714Y-121047857D01*
X142804285Y-120952619D01*
X142772857Y-120905000D01*
X142710000Y-120857380D01*
X142552857Y-120857380D01*
X142458571Y-120905000D01*
X142238571Y-120857380D02*
X142081428Y-121857380D01*
X141955714Y-121143095D01*
X141830000Y-121857380D01*
X141672857Y-120857380D01*
X141421428Y-121857380D02*
X141421428Y-120857380D01*
X141264285Y-120857380D01*
X141170000Y-120905000D01*
X141107142Y-121000238D01*
X141075714Y-121095476D01*
X141044285Y-121285952D01*
X141044285Y-121428809D01*
X141075714Y-121619285D01*
X141107142Y-121714523D01*
X141170000Y-121809761D01*
X141264285Y-121857380D01*
X141421428Y-121857380D01*
D10*
X149091666Y-87781904D02*
X149091666Y-88258095D01*
X149377380Y-87686666D02*
X148377380Y-88020000D01*
X149377380Y-88353333D01*
X149377380Y-88686666D02*
X148377380Y-88686666D01*
X148377380Y-88924761D01*
X148425000Y-89067619D01*
X148520238Y-89162857D01*
X148615476Y-89210476D01*
X148805952Y-89258095D01*
X148948809Y-89258095D01*
X149139285Y-89210476D01*
X149234523Y-89162857D01*
X149329761Y-89067619D01*
X149377380Y-88924761D01*
X149377380Y-88686666D01*
X149282142Y-90258095D02*
X149329761Y-90210476D01*
X149377380Y-90067619D01*
X149377380Y-89972380D01*
X149329761Y-89829523D01*
X149234523Y-89734285D01*
X149139285Y-89686666D01*
X148948809Y-89639047D01*
X148805952Y-89639047D01*
X148615476Y-89686666D01*
X148520238Y-89734285D01*
X148425000Y-89829523D01*
X148377380Y-89972380D01*
X148377380Y-90067619D01*
X148425000Y-90210476D01*
X148472619Y-90258095D01*
D11*
X129783333Y-83487142D02*
X129783333Y-83078571D01*
X129516666Y-83298571D01*
X129516666Y-83204285D01*
X129483333Y-83141428D01*
X129450000Y-83110000D01*
X129383333Y-83078571D01*
X129216666Y-83078571D01*
X129150000Y-83110000D01*
X129116666Y-83141428D01*
X129083333Y-83204285D01*
X129083333Y-83392857D01*
X129116666Y-83455714D01*
X129150000Y-83487142D01*
X129783333Y-82890000D02*
X129083333Y-82670000D01*
X129783333Y-82450000D01*
X129783333Y-82292857D02*
X129783333Y-81884285D01*
X129516666Y-82104285D01*
X129516666Y-82010000D01*
X129483333Y-81947142D01*
X129450000Y-81915714D01*
X129383333Y-81884285D01*
X129216666Y-81884285D01*
X129150000Y-81915714D01*
X129116666Y-81947142D01*
X129083333Y-82010000D01*
X129083333Y-82198571D01*
X129116666Y-82261428D01*
X129150000Y-82292857D01*
D12*
X129450000Y-75728571D02*
X129416666Y-75657142D01*
X129383333Y-75633333D01*
X129316666Y-75609523D01*
X129216666Y-75609523D01*
X129150000Y-75633333D01*
X129116666Y-75657142D01*
X129083333Y-75704761D01*
X129083333Y-75895238D01*
X129783333Y-75895238D01*
X129783333Y-75728571D01*
X129750000Y-75680952D01*
X129716666Y-75657142D01*
X129650000Y-75633333D01*
X129583333Y-75633333D01*
X129516666Y-75657142D01*
X129483333Y-75680952D01*
X129450000Y-75728571D01*
X129450000Y-75895238D01*
X129783333Y-75300000D02*
X129783333Y-75204761D01*
X129750000Y-75157142D01*
X129683333Y-75109523D01*
X129550000Y-75085714D01*
X129316666Y-75085714D01*
X129183333Y-75109523D01*
X129116666Y-75157142D01*
X129083333Y-75204761D01*
X129083333Y-75300000D01*
X129116666Y-75347619D01*
X129183333Y-75395238D01*
X129316666Y-75419047D01*
X129550000Y-75419047D01*
X129683333Y-75395238D01*
X129750000Y-75347619D01*
X129783333Y-75300000D01*
X129783333Y-74776190D02*
X129783333Y-74680952D01*
X129750000Y-74633333D01*
X129683333Y-74585714D01*
X129550000Y-74561904D01*
X129316666Y-74561904D01*
X129183333Y-74585714D01*
X129116666Y-74633333D01*
X129083333Y-74680952D01*
X129083333Y-74776190D01*
X129116666Y-74823809D01*
X129183333Y-74871428D01*
X129316666Y-74895238D01*
X129550000Y-74895238D01*
X129683333Y-74871428D01*
X129750000Y-74823809D01*
X129783333Y-74776190D01*
X129783333Y-74419047D02*
X129783333Y-74133333D01*
X129083333Y-74276190D02*
X129783333Y-74276190D01*
X129783333Y-80987142D02*
X129083333Y-80820476D01*
X129783333Y-80653809D01*
X129116666Y-80510952D02*
X129083333Y-80439523D01*
X129083333Y-80320476D01*
X129116666Y-80272857D01*
X129150000Y-80249047D01*
X129216666Y-80225238D01*
X129283333Y-80225238D01*
X129350000Y-80249047D01*
X129383333Y-80272857D01*
X129416666Y-80320476D01*
X129450000Y-80415714D01*
X129483333Y-80463333D01*
X129516666Y-80487142D01*
X129583333Y-80510952D01*
X129650000Y-80510952D01*
X129716666Y-80487142D01*
X129750000Y-80463333D01*
X129783333Y-80415714D01*
X129783333Y-80296666D01*
X129750000Y-80225238D01*
X129416666Y-79915714D02*
X129083333Y-79915714D01*
X129783333Y-80082380D02*
X129416666Y-79915714D01*
X129783333Y-79749047D01*
X129116666Y-79606190D02*
X129083333Y-79534761D01*
X129083333Y-79415714D01*
X129116666Y-79368095D01*
X129150000Y-79344285D01*
X129216666Y-79320476D01*
X129283333Y-79320476D01*
X129350000Y-79344285D01*
X129383333Y-79368095D01*
X129416666Y-79415714D01*
X129450000Y-79510952D01*
X129483333Y-79558571D01*
X129516666Y-79582380D01*
X129583333Y-79606190D01*
X129650000Y-79606190D01*
X129716666Y-79582380D01*
X129750000Y-79558571D01*
X129783333Y-79510952D01*
X129783333Y-79391904D01*
X129750000Y-79320476D01*
D10*
X149675727Y-97457619D02*
X149628108Y-97410000D01*
X149532870Y-97362380D01*
X149294775Y-97362380D01*
X149199537Y-97410000D01*
X149151918Y-97457619D01*
X149104299Y-97552857D01*
X149104299Y-97648095D01*
X149151918Y-97790952D01*
X149723346Y-98362380D01*
X149104299Y-98362380D01*
X148247156Y-97695714D02*
X148247156Y-98362380D01*
X148485251Y-97314761D02*
X148723346Y-98029047D01*
X148104299Y-98029047D01*
D11*
X149286428Y-123762380D02*
X149506428Y-123286190D01*
X149663571Y-123762380D02*
X149663571Y-122762380D01*
X149412142Y-122762380D01*
X149349285Y-122810000D01*
X149317857Y-122857619D01*
X149286428Y-122952857D01*
X149286428Y-123095714D01*
X149317857Y-123190952D01*
X149349285Y-123238571D01*
X149412142Y-123286190D01*
X149663571Y-123286190D01*
X149035000Y-123714761D02*
X148940714Y-123762380D01*
X148783571Y-123762380D01*
X148720714Y-123714761D01*
X148689285Y-123667142D01*
X148657857Y-123571904D01*
X148657857Y-123476666D01*
X148689285Y-123381428D01*
X148720714Y-123333809D01*
X148783571Y-123286190D01*
X148909285Y-123238571D01*
X148972142Y-123190952D01*
X149003571Y-123143333D01*
X149035000Y-123048095D01*
X149035000Y-122952857D01*
X149003571Y-122857619D01*
X148972142Y-122810000D01*
X148909285Y-122762380D01*
X148752142Y-122762380D01*
X148657857Y-122810000D01*
X148469285Y-122762380D02*
X148092142Y-122762380D01*
X148280714Y-123762380D02*
X148280714Y-122762380D01*
D13*
X149716666Y-79513333D02*
X149016666Y-79513333D01*
X149016666Y-79680000D01*
X149050000Y-79780000D01*
X149116666Y-79846666D01*
X149183333Y-79880000D01*
X149316666Y-79913333D01*
X149416666Y-79913333D01*
X149550000Y-79880000D01*
X149616666Y-79846666D01*
X149683333Y-79780000D01*
X149716666Y-79680000D01*
X149716666Y-79513333D01*
X149450000Y-80213333D02*
X149450000Y-80746666D01*
X149716666Y-76973333D02*
X149016666Y-76973333D01*
X149016666Y-77140000D01*
X149050000Y-77240000D01*
X149116666Y-77306666D01*
X149183333Y-77340000D01*
X149316666Y-77373333D01*
X149416666Y-77373333D01*
X149550000Y-77340000D01*
X149616666Y-77306666D01*
X149683333Y-77240000D01*
X149716666Y-77140000D01*
X149716666Y-76973333D01*
X149450000Y-77673333D02*
X149450000Y-78206666D01*
X149716666Y-77940000D02*
X149183333Y-77940000D01*
D10*
X130398809Y-105236380D02*
X130303571Y-105236380D01*
X130208333Y-105284000D01*
X130160714Y-105331619D01*
X130113095Y-105426857D01*
X130065476Y-105617333D01*
X130065476Y-105855428D01*
X130113095Y-106045904D01*
X130160714Y-106141142D01*
X130208333Y-106188761D01*
X130303571Y-106236380D01*
X130398809Y-106236380D01*
X130494047Y-106188761D01*
X130541666Y-106141142D01*
X130589285Y-106045904D01*
X130636904Y-105855428D01*
X130636904Y-105617333D01*
X130589285Y-105426857D01*
X130541666Y-105331619D01*
X130494047Y-105284000D01*
X130398809Y-105236380D01*
X129494047Y-105664952D02*
X129589285Y-105617333D01*
X129636904Y-105569714D01*
X129684523Y-105474476D01*
X129684523Y-105426857D01*
X129636904Y-105331619D01*
X129589285Y-105284000D01*
X129494047Y-105236380D01*
X129303571Y-105236380D01*
X129208333Y-105284000D01*
X129160714Y-105331619D01*
X129113095Y-105426857D01*
X129113095Y-105474476D01*
X129160714Y-105569714D01*
X129208333Y-105617333D01*
X129303571Y-105664952D01*
X129494047Y-105664952D01*
X129589285Y-105712571D01*
X129636904Y-105760190D01*
X129684523Y-105855428D01*
X129684523Y-106045904D01*
X129636904Y-106141142D01*
X129589285Y-106188761D01*
X129494047Y-106236380D01*
X129303571Y-106236380D01*
X129208333Y-106188761D01*
X129160714Y-106141142D01*
X129113095Y-106045904D01*
X129113095Y-105855428D01*
X129160714Y-105760190D01*
X129208333Y-105712571D01*
X129303571Y-105664952D01*
X130398809Y-95076380D02*
X130303571Y-95076380D01*
X130208333Y-95124000D01*
X130160714Y-95171619D01*
X130113095Y-95266857D01*
X130065476Y-95457333D01*
X130065476Y-95695428D01*
X130113095Y-95885904D01*
X130160714Y-95981142D01*
X130208333Y-96028761D01*
X130303571Y-96076380D01*
X130398809Y-96076380D01*
X130494047Y-96028761D01*
X130541666Y-95981142D01*
X130589285Y-95885904D01*
X130636904Y-95695428D01*
X130636904Y-95457333D01*
X130589285Y-95266857D01*
X130541666Y-95171619D01*
X130494047Y-95124000D01*
X130398809Y-95076380D01*
X129208333Y-95409714D02*
X129208333Y-96076380D01*
X129446428Y-95028761D02*
X129684523Y-95743047D01*
X129065476Y-95743047D01*
X149115476Y-118428380D02*
X149686904Y-118428380D01*
X149401190Y-118428380D02*
X149401190Y-117428380D01*
X149496428Y-117571238D01*
X149591666Y-117666476D01*
X149686904Y-117714095D01*
X148258333Y-117428380D02*
X148448809Y-117428380D01*
X148544047Y-117476000D01*
X148591666Y-117523619D01*
X148686904Y-117666476D01*
X148734523Y-117856952D01*
X148734523Y-118237904D01*
X148686904Y-118333142D01*
X148639285Y-118380761D01*
X148544047Y-118428380D01*
X148353571Y-118428380D01*
X148258333Y-118380761D01*
X148210714Y-118333142D01*
X148163095Y-118237904D01*
X148163095Y-117999809D01*
X148210714Y-117904571D01*
X148258333Y-117856952D01*
X148353571Y-117809333D01*
X148544047Y-117809333D01*
X148639285Y-117856952D01*
X148686904Y-117904571D01*
X148734523Y-117999809D01*
X149686904Y-107363619D02*
X149639285Y-107316000D01*
X149544047Y-107268380D01*
X149305952Y-107268380D01*
X149210714Y-107316000D01*
X149163095Y-107363619D01*
X149115476Y-107458857D01*
X149115476Y-107554095D01*
X149163095Y-107696952D01*
X149734523Y-108268380D01*
X149115476Y-108268380D01*
X148496428Y-107268380D02*
X148401190Y-107268380D01*
X148305952Y-107316000D01*
X148258333Y-107363619D01*
X148210714Y-107458857D01*
X148163095Y-107649333D01*
X148163095Y-107887428D01*
X148210714Y-108077904D01*
X148258333Y-108173142D01*
X148305952Y-108220761D01*
X148401190Y-108268380D01*
X148496428Y-108268380D01*
X148591666Y-108220761D01*
X148639285Y-108173142D01*
X148686904Y-108077904D01*
X148734523Y-107887428D01*
X148734523Y-107649333D01*
X148686904Y-107458857D01*
X148639285Y-107363619D01*
X148591666Y-107316000D01*
X148496428Y-107268380D01*
X130398809Y-84916380D02*
X130303571Y-84916380D01*
X130208333Y-84964000D01*
X130160714Y-85011619D01*
X130113095Y-85106857D01*
X130065476Y-85297333D01*
X130065476Y-85535428D01*
X130113095Y-85725904D01*
X130160714Y-85821142D01*
X130208333Y-85868761D01*
X130303571Y-85916380D01*
X130398809Y-85916380D01*
X130494047Y-85868761D01*
X130541666Y-85821142D01*
X130589285Y-85725904D01*
X130636904Y-85535428D01*
X130636904Y-85297333D01*
X130589285Y-85106857D01*
X130541666Y-85011619D01*
X130494047Y-84964000D01*
X130398809Y-84916380D01*
X129446428Y-84916380D02*
X129351190Y-84916380D01*
X129255952Y-84964000D01*
X129208333Y-85011619D01*
X129160714Y-85106857D01*
X129113095Y-85297333D01*
X129113095Y-85535428D01*
X129160714Y-85725904D01*
X129208333Y-85821142D01*
X129255952Y-85868761D01*
X129351190Y-85916380D01*
X129446428Y-85916380D01*
X129541666Y-85868761D01*
X129589285Y-85821142D01*
X129636904Y-85725904D01*
X129684523Y-85535428D01*
X129684523Y-85297333D01*
X129636904Y-85106857D01*
X129589285Y-85011619D01*
X129541666Y-84964000D01*
X129446428Y-84916380D01*
X149686904Y-92123619D02*
X149639285Y-92076000D01*
X149544047Y-92028380D01*
X149305952Y-92028380D01*
X149210714Y-92076000D01*
X149163095Y-92123619D01*
X149115476Y-92218857D01*
X149115476Y-92314095D01*
X149163095Y-92456952D01*
X149734523Y-93028380D01*
X149115476Y-93028380D01*
X148258333Y-92028380D02*
X148448809Y-92028380D01*
X148544047Y-92076000D01*
X148591666Y-92123619D01*
X148686904Y-92266476D01*
X148734523Y-92456952D01*
X148734523Y-92837904D01*
X148686904Y-92933142D01*
X148639285Y-92980761D01*
X148544047Y-93028380D01*
X148353571Y-93028380D01*
X148258333Y-92980761D01*
X148210714Y-92933142D01*
X148163095Y-92837904D01*
X148163095Y-92599809D01*
X148210714Y-92504571D01*
X148258333Y-92456952D01*
X148353571Y-92409333D01*
X148544047Y-92409333D01*
X148639285Y-92456952D01*
X148686904Y-92504571D01*
X148734523Y-92599809D01*
D13*
X149016666Y-81570000D02*
X149716666Y-81770000D01*
X149016666Y-81970000D01*
X149016666Y-82170000D02*
X149583333Y-82170000D01*
X149650000Y-82198571D01*
X149683333Y-82227142D01*
X149716666Y-82284285D01*
X149716666Y-82398571D01*
X149683333Y-82455714D01*
X149650000Y-82484285D01*
X149583333Y-82512857D01*
X149016666Y-82512857D01*
X149683333Y-82770000D02*
X149716666Y-82855714D01*
X149716666Y-82998571D01*
X149683333Y-83055714D01*
X149650000Y-83084285D01*
X149583333Y-83112857D01*
X149516666Y-83112857D01*
X149450000Y-83084285D01*
X149416666Y-83055714D01*
X149383333Y-82998571D01*
X149350000Y-82884285D01*
X149316666Y-82827142D01*
X149283333Y-82798571D01*
X149216666Y-82770000D01*
X149150000Y-82770000D01*
X149083333Y-82798571D01*
X149050000Y-82827142D01*
X149016666Y-82884285D01*
X149016666Y-83027142D01*
X149050000Y-83112857D01*
X149350000Y-83570000D02*
X149383333Y-83655714D01*
X149416666Y-83684285D01*
X149483333Y-83712857D01*
X149583333Y-83712857D01*
X149650000Y-83684285D01*
X149683333Y-83655714D01*
X149716666Y-83598571D01*
X149716666Y-83370000D01*
X149016666Y-83370000D01*
X149016666Y-83570000D01*
X149050000Y-83627142D01*
X149083333Y-83655714D01*
X149150000Y-83684285D01*
X149216666Y-83684285D01*
X149283333Y-83655714D01*
X149316666Y-83627142D01*
X149350000Y-83570000D01*
X149350000Y-83370000D01*
D10*
X130065476Y-116396380D02*
X130636904Y-116396380D01*
X130351190Y-116396380D02*
X130351190Y-115396380D01*
X130446428Y-115539238D01*
X130541666Y-115634476D01*
X130636904Y-115682095D01*
X129684523Y-115491619D02*
X129636904Y-115444000D01*
X129541666Y-115396380D01*
X129303571Y-115396380D01*
X129208333Y-115444000D01*
X129160714Y-115491619D01*
X129113095Y-115586857D01*
X129113095Y-115682095D01*
X129160714Y-115824952D01*
X129732142Y-116396380D01*
X129113095Y-116396380D01*
M02*
