M48
; DRILL file {KiCad (6.0.1)} date Fri Mar  4 09:32:51 2022
; FORMAT={-:-/ absolute / metric / decimal}
; #@! TF.CreationDate,2022-03-04T09:32:51+09:00
; #@! TF.GenerationSoftware,Kicad,Pcbnew,(6.0.1)
; #@! TF.FileFunction,MixedPlating,1,2
FMAT,2
METRIC
; #@! TA.AperFunction,Plated,PTH,ViaDrill
T1C0.300
; #@! TA.AperFunction,Plated,PTH,ViaDrill
T2C0.400
; #@! TA.AperFunction,Plated,PTH,ComponentDrill
T3C0.600
; #@! TA.AperFunction,Plated,PTH,ComponentDrill
T4C0.650
; #@! TA.AperFunction,Plated,PTH,ComponentDrill
T5C0.700
; #@! TA.AperFunction,Plated,PTH,ComponentDrill
T6C1.000
; #@! TA.AperFunction,Plated,PTH,ComponentDrill
T7C2.000
; #@! TA.AperFunction,NonPlated,NPTH,ComponentDrill
T8C0.650
%
G90
G05
T1
X132.6Y-103.375
X132.6Y-108.625
X132.6Y-115.4
X136.0Y-86.175
X138.206Y-98.994
X139.8Y-97.375
X140.5Y-79.9
X141.4Y-97.375
X142.1Y-83.2
X144.0Y-115.425
X145.2Y-76.965
X146.2Y-102.175
X146.2Y-107.825
T2
X132.3Y-81.7
X137.4Y-84.4
X138.3Y-82.6
X143.6Y-80.6
X145.9Y-82.9
T6
X127.97Y-75.05
X127.97Y-77.59
X127.97Y-80.13
X127.97Y-82.67
X127.97Y-85.21
X127.97Y-87.75
X127.97Y-90.29
X127.97Y-92.83
X127.97Y-95.37
X127.97Y-97.91
X127.97Y-100.45
X127.97Y-102.99
X127.97Y-105.53
X127.97Y-108.07
X127.97Y-110.61
X127.97Y-113.15
X127.97Y-115.69
X127.97Y-118.23
X127.97Y-120.77
X127.97Y-123.31
X136.86Y-123.31
X139.4Y-123.31
X141.94Y-123.31
X150.83Y-75.05
X150.83Y-77.59
X150.83Y-80.13
X150.83Y-82.67
X150.83Y-85.21
X150.83Y-87.75
X150.83Y-90.29
X150.83Y-92.83
X150.83Y-95.37
X150.83Y-97.91
X150.83Y-100.45
X150.83Y-102.99
X150.83Y-105.53
X150.83Y-108.07
X150.83Y-110.61
X150.83Y-113.15
X150.83Y-115.69
X150.83Y-118.23
X150.83Y-120.77
X150.83Y-123.31
T7
X139.4Y-106.8
T8
X131.91Y-79.12
X137.69Y-79.12
T3
G00X130.48Y-75.74
M15
G01X130.48Y-75.14
M16
G05
G00X130.48Y-80.17
M15
G01X130.48Y-79.07
M16
G05
G00X139.12Y-75.74
M15
G01X139.12Y-75.14
M16
G05
G00X139.12Y-80.17
M15
G01X139.12Y-79.07
M16
G05
T4
G00X142.205Y-78.285
M15
G01X142.205Y-78.685
M16
G05
G00X147.045Y-78.285
M15
G01X147.045Y-78.685
M16
G05
T5
G00X141.895Y-75.235
M15
G01X141.895Y-75.735
M16
G05
G00X147.355Y-75.235
M15
G01X147.355Y-75.735
M16
G05
T0
M30
