%TF.GenerationSoftware,KiCad,Pcbnew,(6.0.1)*%
%TF.CreationDate,2022-03-04T09:32:41+09:00*%
%TF.ProjectId,yuiop2040,7975696f-7032-4303-9430-2e6b69636164,2*%
%TF.SameCoordinates,Original*%
%TF.FileFunction,Legend,Top*%
%TF.FilePolarity,Positive*%
%FSLAX46Y46*%
G04 Gerber Fmt 4.6, Leading zero omitted, Abs format (unit mm)*
G04 Created by KiCad (PCBNEW (6.0.1)) date 2022-03-04 09:32:41*
%MOMM*%
%LPD*%
G01*
G04 APERTURE LIST*
%ADD10C,0.150000*%
%ADD11C,0.075000*%
%ADD12C,0.120000*%
%ADD13C,0.100000*%
G04 APERTURE END LIST*
D10*
X129240000Y-115055000D02*
X129240000Y-114674000D01*
X149560000Y-84194000D02*
X149560000Y-84575000D01*
X149560000Y-99434000D02*
X149560000Y-99815000D01*
X128859000Y-114166000D02*
X129240000Y-114166000D01*
X129240000Y-93846000D02*
X129240000Y-93465000D01*
X149941000Y-99434000D02*
X149560000Y-99434000D01*
X129240000Y-104514000D02*
X128859000Y-104514000D01*
X129240000Y-124326000D02*
X129240000Y-123945000D01*
X129240000Y-104006000D02*
X129240000Y-103625000D01*
X129240000Y-94735000D02*
X129240000Y-94354000D01*
X129240000Y-104895000D02*
X129240000Y-104514000D01*
X129240000Y-94354000D02*
X128859000Y-94354000D01*
X149560000Y-118865000D02*
X149560000Y-119246000D01*
X128859000Y-93846000D02*
X129240000Y-93846000D01*
X149560000Y-93465000D02*
X149560000Y-93846000D01*
X149941000Y-109594000D02*
X149560000Y-109594000D01*
X129240000Y-84194000D02*
X128859000Y-84194000D01*
X149560000Y-93846000D02*
X149941000Y-93846000D01*
X149560000Y-119246000D02*
X149941000Y-119246000D01*
X129240000Y-114674000D02*
X128859000Y-114674000D01*
X149560000Y-108705000D02*
X149560000Y-109086000D01*
X149941000Y-84194000D02*
X149560000Y-84194000D01*
X129240000Y-114166000D02*
X129240000Y-113785000D01*
X128859000Y-104006000D02*
X129240000Y-104006000D01*
X149560000Y-109594000D02*
X149560000Y-109975000D01*
X129240000Y-84575000D02*
X129240000Y-84194000D01*
X128859000Y-124326000D02*
X129240000Y-124326000D01*
X149560000Y-109086000D02*
X149941000Y-109086000D01*
D11*
X129783333Y-79270821D02*
X129083333Y-79437487D01*
X129783333Y-79604154D01*
X129116666Y-79747011D02*
X129083333Y-79818440D01*
X129083333Y-79937487D01*
X129116666Y-79985106D01*
X129150000Y-80008916D01*
X129216666Y-80032725D01*
X129283333Y-80032725D01*
X129350000Y-80008916D01*
X129383333Y-79985106D01*
X129416666Y-79937487D01*
X129450000Y-79842249D01*
X129483333Y-79794630D01*
X129516666Y-79770821D01*
X129583333Y-79747011D01*
X129650000Y-79747011D01*
X129716666Y-79770821D01*
X129750000Y-79794630D01*
X129783333Y-79842249D01*
X129783333Y-79961297D01*
X129750000Y-80032725D01*
X129416666Y-80342249D02*
X129083333Y-80342249D01*
X129783333Y-80175583D02*
X129416666Y-80342249D01*
X129783333Y-80508916D01*
X129116666Y-80651773D02*
X129083333Y-80723202D01*
X129083333Y-80842249D01*
X129116666Y-80889868D01*
X129150000Y-80913678D01*
X129216666Y-80937487D01*
X129283333Y-80937487D01*
X129350000Y-80913678D01*
X129383333Y-80889868D01*
X129416666Y-80842249D01*
X129450000Y-80747011D01*
X129483333Y-80699392D01*
X129516666Y-80675583D01*
X129583333Y-80651773D01*
X129650000Y-80651773D01*
X129716666Y-80675583D01*
X129750000Y-80699392D01*
X129783333Y-80747011D01*
X129783333Y-80866059D01*
X129750000Y-80937487D01*
X129450000Y-74371428D02*
X129416666Y-74442857D01*
X129383333Y-74466666D01*
X129316666Y-74490476D01*
X129216666Y-74490476D01*
X129150000Y-74466666D01*
X129116666Y-74442857D01*
X129083333Y-74395238D01*
X129083333Y-74204761D01*
X129783333Y-74204761D01*
X129783333Y-74371428D01*
X129750000Y-74419047D01*
X129716666Y-74442857D01*
X129650000Y-74466666D01*
X129583333Y-74466666D01*
X129516666Y-74442857D01*
X129483333Y-74419047D01*
X129450000Y-74371428D01*
X129450000Y-74204761D01*
X129783333Y-74800000D02*
X129783333Y-74895238D01*
X129750000Y-74942857D01*
X129683333Y-74990476D01*
X129550000Y-75014285D01*
X129316666Y-75014285D01*
X129183333Y-74990476D01*
X129116666Y-74942857D01*
X129083333Y-74895238D01*
X129083333Y-74800000D01*
X129116666Y-74752380D01*
X129183333Y-74704761D01*
X129316666Y-74680952D01*
X129550000Y-74680952D01*
X129683333Y-74704761D01*
X129750000Y-74752380D01*
X129783333Y-74800000D01*
X129783333Y-75323809D02*
X129783333Y-75419047D01*
X129750000Y-75466666D01*
X129683333Y-75514285D01*
X129550000Y-75538095D01*
X129316666Y-75538095D01*
X129183333Y-75514285D01*
X129116666Y-75466666D01*
X129083333Y-75419047D01*
X129083333Y-75323809D01*
X129116666Y-75276190D01*
X129183333Y-75228571D01*
X129316666Y-75204761D01*
X129550000Y-75204761D01*
X129683333Y-75228571D01*
X129750000Y-75276190D01*
X129783333Y-75323809D01*
X129783333Y-75680952D02*
X129783333Y-75966666D01*
X129083333Y-75823809D02*
X129783333Y-75823809D01*
D12*
X149016666Y-83770000D02*
X149716666Y-83570000D01*
X149016666Y-83370000D01*
X149016666Y-83170000D02*
X149583333Y-83170000D01*
X149650000Y-83141428D01*
X149683333Y-83112857D01*
X149716666Y-83055714D01*
X149716666Y-82941428D01*
X149683333Y-82884285D01*
X149650000Y-82855714D01*
X149583333Y-82827142D01*
X149016666Y-82827142D01*
X149683333Y-82570000D02*
X149716666Y-82484285D01*
X149716666Y-82341428D01*
X149683333Y-82284285D01*
X149650000Y-82255714D01*
X149583333Y-82227142D01*
X149516666Y-82227142D01*
X149450000Y-82255714D01*
X149416666Y-82284285D01*
X149383333Y-82341428D01*
X149350000Y-82455714D01*
X149316666Y-82512857D01*
X149283333Y-82541428D01*
X149216666Y-82570000D01*
X149150000Y-82570000D01*
X149083333Y-82541428D01*
X149050000Y-82512857D01*
X149016666Y-82455714D01*
X149016666Y-82312857D01*
X149050000Y-82227142D01*
X149350000Y-81770000D02*
X149383333Y-81684285D01*
X149416666Y-81655714D01*
X149483333Y-81627142D01*
X149583333Y-81627142D01*
X149650000Y-81655714D01*
X149683333Y-81684285D01*
X149716666Y-81741428D01*
X149716666Y-81970000D01*
X149016666Y-81970000D01*
X149016666Y-81770000D01*
X149050000Y-81712857D01*
X149083333Y-81684285D01*
X149150000Y-81655714D01*
X149216666Y-81655714D01*
X149283333Y-81684285D01*
X149316666Y-81712857D01*
X149350000Y-81770000D01*
X149350000Y-81970000D01*
D10*
X148163095Y-107363619D02*
X148210714Y-107316000D01*
X148305952Y-107268380D01*
X148544047Y-107268380D01*
X148639285Y-107316000D01*
X148686904Y-107363619D01*
X148734523Y-107458857D01*
X148734523Y-107554095D01*
X148686904Y-107696952D01*
X148115476Y-108268380D01*
X148734523Y-108268380D01*
X149353571Y-107268380D02*
X149448809Y-107268380D01*
X149544047Y-107316000D01*
X149591666Y-107363619D01*
X149639285Y-107458857D01*
X149686904Y-107649333D01*
X149686904Y-107887428D01*
X149639285Y-108077904D01*
X149591666Y-108173142D01*
X149544047Y-108220761D01*
X149448809Y-108268380D01*
X149353571Y-108268380D01*
X149258333Y-108220761D01*
X149210714Y-108173142D01*
X149163095Y-108077904D01*
X149115476Y-107887428D01*
X149115476Y-107649333D01*
X149163095Y-107458857D01*
X149210714Y-107363619D01*
X149258333Y-107316000D01*
X149353571Y-107268380D01*
X148163095Y-97457619D02*
X148210714Y-97410000D01*
X148305952Y-97362380D01*
X148544047Y-97362380D01*
X148639285Y-97410000D01*
X148686904Y-97457619D01*
X148734523Y-97552857D01*
X148734523Y-97648095D01*
X148686904Y-97790952D01*
X148115476Y-98362380D01*
X148734523Y-98362380D01*
X149591666Y-97695714D02*
X149591666Y-98362380D01*
X149353571Y-97314761D02*
X149115476Y-98029047D01*
X149734523Y-98029047D01*
X148734523Y-118652380D02*
X148163095Y-118652380D01*
X148448809Y-118652380D02*
X148448809Y-117652380D01*
X148353571Y-117795238D01*
X148258333Y-117890476D01*
X148163095Y-117938095D01*
X149591666Y-117652380D02*
X149401190Y-117652380D01*
X149305952Y-117700000D01*
X149258333Y-117747619D01*
X149163095Y-117890476D01*
X149115476Y-118080952D01*
X149115476Y-118461904D01*
X149163095Y-118557142D01*
X149210714Y-118604761D01*
X149305952Y-118652380D01*
X149496428Y-118652380D01*
X149591666Y-118604761D01*
X149639285Y-118557142D01*
X149686904Y-118461904D01*
X149686904Y-118223809D01*
X149639285Y-118128571D01*
X149591666Y-118080952D01*
X149496428Y-118033333D01*
X149305952Y-118033333D01*
X149210714Y-118080952D01*
X149163095Y-118128571D01*
X149115476Y-118223809D01*
D12*
X131104761Y-77061904D02*
X131104761Y-77633333D01*
X131066666Y-77747619D01*
X130990476Y-77823809D01*
X130876190Y-77861904D01*
X130800000Y-77861904D01*
X131866666Y-77861904D02*
X131485714Y-77861904D01*
X131485714Y-77061904D01*
X132590476Y-77785714D02*
X132552380Y-77823809D01*
X132438095Y-77861904D01*
X132361904Y-77861904D01*
X132247619Y-77823809D01*
X132171428Y-77747619D01*
X132133333Y-77671428D01*
X132095238Y-77519047D01*
X132095238Y-77404761D01*
X132133333Y-77252380D01*
X132171428Y-77176190D01*
X132247619Y-77100000D01*
X132361904Y-77061904D01*
X132438095Y-77061904D01*
X132552380Y-77100000D01*
X132590476Y-77138095D01*
X133161904Y-77061904D02*
X133161904Y-77633333D01*
X133123809Y-77747619D01*
X133047619Y-77823809D01*
X132933333Y-77861904D01*
X132857142Y-77861904D01*
X133923809Y-77861904D02*
X133542857Y-77861904D01*
X133542857Y-77061904D01*
X134647619Y-77785714D02*
X134609523Y-77823809D01*
X134495238Y-77861904D01*
X134419047Y-77861904D01*
X134304761Y-77823809D01*
X134228571Y-77747619D01*
X134190476Y-77671428D01*
X134152380Y-77519047D01*
X134152380Y-77404761D01*
X134190476Y-77252380D01*
X134228571Y-77176190D01*
X134304761Y-77100000D01*
X134419047Y-77061904D01*
X134495238Y-77061904D01*
X134609523Y-77100000D01*
X134647619Y-77138095D01*
X135219047Y-77061904D02*
X135219047Y-77633333D01*
X135180952Y-77747619D01*
X135104761Y-77823809D01*
X134990476Y-77861904D01*
X134914285Y-77861904D01*
X135980952Y-77861904D02*
X135600000Y-77861904D01*
X135600000Y-77061904D01*
X136704761Y-77785714D02*
X136666666Y-77823809D01*
X136552380Y-77861904D01*
X136476190Y-77861904D01*
X136361904Y-77823809D01*
X136285714Y-77747619D01*
X136247619Y-77671428D01*
X136209523Y-77519047D01*
X136209523Y-77404761D01*
X136247619Y-77252380D01*
X136285714Y-77176190D01*
X136361904Y-77100000D01*
X136476190Y-77061904D01*
X136552380Y-77061904D01*
X136666666Y-77100000D01*
X136704761Y-77138095D01*
X137276190Y-77061904D02*
X137276190Y-77633333D01*
X137238095Y-77747619D01*
X137161904Y-77823809D01*
X137047619Y-77861904D01*
X136971428Y-77861904D01*
X138038095Y-77861904D02*
X137657142Y-77861904D01*
X137657142Y-77061904D01*
X138761904Y-77785714D02*
X138723809Y-77823809D01*
X138609523Y-77861904D01*
X138533333Y-77861904D01*
X138419047Y-77823809D01*
X138342857Y-77747619D01*
X138304761Y-77671428D01*
X138266666Y-77519047D01*
X138266666Y-77404761D01*
X138304761Y-77252380D01*
X138342857Y-77176190D01*
X138419047Y-77100000D01*
X138533333Y-77061904D01*
X138609523Y-77061904D01*
X138723809Y-77100000D01*
X138761904Y-77138095D01*
D13*
X141044285Y-121809761D02*
X141138571Y-121857380D01*
X141295714Y-121857380D01*
X141358571Y-121809761D01*
X141390000Y-121762142D01*
X141421428Y-121666904D01*
X141421428Y-121571666D01*
X141390000Y-121476428D01*
X141358571Y-121428809D01*
X141295714Y-121381190D01*
X141170000Y-121333571D01*
X141107142Y-121285952D01*
X141075714Y-121238333D01*
X141044285Y-121143095D01*
X141044285Y-121047857D01*
X141075714Y-120952619D01*
X141107142Y-120905000D01*
X141170000Y-120857380D01*
X141327142Y-120857380D01*
X141421428Y-120905000D01*
X141641428Y-120857380D02*
X141798571Y-121857380D01*
X141924285Y-121143095D01*
X142050000Y-121857380D01*
X142207142Y-120857380D01*
X142458571Y-121857380D02*
X142458571Y-120857380D01*
X142615714Y-120857380D01*
X142710000Y-120905000D01*
X142772857Y-121000238D01*
X142804285Y-121095476D01*
X142835714Y-121285952D01*
X142835714Y-121428809D01*
X142804285Y-121619285D01*
X142772857Y-121714523D01*
X142710000Y-121809761D01*
X142615714Y-121857380D01*
X142458571Y-121857380D01*
X129783333Y-81852857D02*
X129783333Y-82261428D01*
X129516666Y-82041428D01*
X129516666Y-82135714D01*
X129483333Y-82198571D01*
X129450000Y-82230000D01*
X129383333Y-82261428D01*
X129216666Y-82261428D01*
X129150000Y-82230000D01*
X129116666Y-82198571D01*
X129083333Y-82135714D01*
X129083333Y-81947142D01*
X129116666Y-81884285D01*
X129150000Y-81852857D01*
X129783333Y-82450000D02*
X129083333Y-82670000D01*
X129783333Y-82890000D01*
X129783333Y-83047142D02*
X129783333Y-83455714D01*
X129516666Y-83235714D01*
X129516666Y-83330000D01*
X129483333Y-83392857D01*
X129450000Y-83424285D01*
X129383333Y-83455714D01*
X129216666Y-83455714D01*
X129150000Y-83424285D01*
X129116666Y-83392857D01*
X129083333Y-83330000D01*
X129083333Y-83141428D01*
X129116666Y-83078571D01*
X129150000Y-83047142D01*
D10*
X129684523Y-116396380D02*
X129113095Y-116396380D01*
X129398809Y-116396380D02*
X129398809Y-115396380D01*
X129303571Y-115539238D01*
X129208333Y-115634476D01*
X129113095Y-115682095D01*
X130065476Y-115491619D02*
X130113095Y-115444000D01*
X130208333Y-115396380D01*
X130446428Y-115396380D01*
X130541666Y-115444000D01*
X130589285Y-115491619D01*
X130636904Y-115586857D01*
X130636904Y-115682095D01*
X130589285Y-115824952D01*
X130017857Y-116396380D01*
X130636904Y-116396380D01*
X129351190Y-84916380D02*
X129446428Y-84916380D01*
X129541666Y-84964000D01*
X129589285Y-85011619D01*
X129636904Y-85106857D01*
X129684523Y-85297333D01*
X129684523Y-85535428D01*
X129636904Y-85725904D01*
X129589285Y-85821142D01*
X129541666Y-85868761D01*
X129446428Y-85916380D01*
X129351190Y-85916380D01*
X129255952Y-85868761D01*
X129208333Y-85821142D01*
X129160714Y-85725904D01*
X129113095Y-85535428D01*
X129113095Y-85297333D01*
X129160714Y-85106857D01*
X129208333Y-85011619D01*
X129255952Y-84964000D01*
X129351190Y-84916380D01*
X130303571Y-84916380D02*
X130398809Y-84916380D01*
X130494047Y-84964000D01*
X130541666Y-85011619D01*
X130589285Y-85106857D01*
X130636904Y-85297333D01*
X130636904Y-85535428D01*
X130589285Y-85725904D01*
X130541666Y-85821142D01*
X130494047Y-85868761D01*
X130398809Y-85916380D01*
X130303571Y-85916380D01*
X130208333Y-85868761D01*
X130160714Y-85821142D01*
X130113095Y-85725904D01*
X130065476Y-85535428D01*
X130065476Y-85297333D01*
X130113095Y-85106857D01*
X130160714Y-85011619D01*
X130208333Y-84964000D01*
X130303571Y-84916380D01*
X148163095Y-92123619D02*
X148210714Y-92076000D01*
X148305952Y-92028380D01*
X148544047Y-92028380D01*
X148639285Y-92076000D01*
X148686904Y-92123619D01*
X148734523Y-92218857D01*
X148734523Y-92314095D01*
X148686904Y-92456952D01*
X148115476Y-93028380D01*
X148734523Y-93028380D01*
X149591666Y-92028380D02*
X149401190Y-92028380D01*
X149305952Y-92076000D01*
X149258333Y-92123619D01*
X149163095Y-92266476D01*
X149115476Y-92456952D01*
X149115476Y-92837904D01*
X149163095Y-92933142D01*
X149210714Y-92980761D01*
X149305952Y-93028380D01*
X149496428Y-93028380D01*
X149591666Y-92980761D01*
X149639285Y-92933142D01*
X149686904Y-92837904D01*
X149686904Y-92599809D01*
X149639285Y-92504571D01*
X149591666Y-92456952D01*
X149496428Y-92409333D01*
X149305952Y-92409333D01*
X149210714Y-92456952D01*
X149163095Y-92504571D01*
X149115476Y-92599809D01*
D12*
X149716666Y-78206666D02*
X149016666Y-78206666D01*
X149016666Y-78040000D01*
X149050000Y-77940000D01*
X149116666Y-77873333D01*
X149183333Y-77840000D01*
X149316666Y-77806666D01*
X149416666Y-77806666D01*
X149550000Y-77840000D01*
X149616666Y-77873333D01*
X149683333Y-77940000D01*
X149716666Y-78040000D01*
X149716666Y-78206666D01*
X149450000Y-77506666D02*
X149450000Y-76973333D01*
X149716666Y-77240000D02*
X149183333Y-77240000D01*
D13*
X135407142Y-121809761D02*
X135501428Y-121857380D01*
X135658571Y-121857380D01*
X135721428Y-121809761D01*
X135752857Y-121762142D01*
X135784285Y-121666904D01*
X135784285Y-121571666D01*
X135752857Y-121476428D01*
X135721428Y-121428809D01*
X135658571Y-121381190D01*
X135532857Y-121333571D01*
X135470000Y-121285952D01*
X135438571Y-121238333D01*
X135407142Y-121143095D01*
X135407142Y-121047857D01*
X135438571Y-120952619D01*
X135470000Y-120905000D01*
X135532857Y-120857380D01*
X135690000Y-120857380D01*
X135784285Y-120905000D01*
X136004285Y-120857380D02*
X136161428Y-121857380D01*
X136287142Y-121143095D01*
X136412857Y-121857380D01*
X136570000Y-120857380D01*
X137198571Y-121762142D02*
X137167142Y-121809761D01*
X137072857Y-121857380D01*
X137010000Y-121857380D01*
X136915714Y-121809761D01*
X136852857Y-121714523D01*
X136821428Y-121619285D01*
X136790000Y-121428809D01*
X136790000Y-121285952D01*
X136821428Y-121095476D01*
X136852857Y-121000238D01*
X136915714Y-120905000D01*
X137010000Y-120857380D01*
X137072857Y-120857380D01*
X137167142Y-120905000D01*
X137198571Y-120952619D01*
X137795714Y-121857380D02*
X137481428Y-121857380D01*
X137481428Y-120857380D01*
X138015714Y-121857380D02*
X138015714Y-120857380D01*
X138392857Y-121857380D02*
X138110000Y-121285952D01*
X138392857Y-120857380D02*
X138015714Y-121428809D01*
D10*
X129351190Y-95076380D02*
X129446428Y-95076380D01*
X129541666Y-95124000D01*
X129589285Y-95171619D01*
X129636904Y-95266857D01*
X129684523Y-95457333D01*
X129684523Y-95695428D01*
X129636904Y-95885904D01*
X129589285Y-95981142D01*
X129541666Y-96028761D01*
X129446428Y-96076380D01*
X129351190Y-96076380D01*
X129255952Y-96028761D01*
X129208333Y-95981142D01*
X129160714Y-95885904D01*
X129113095Y-95695428D01*
X129113095Y-95457333D01*
X129160714Y-95266857D01*
X129208333Y-95171619D01*
X129255952Y-95124000D01*
X129351190Y-95076380D01*
X130541666Y-95409714D02*
X130541666Y-96076380D01*
X130303571Y-95028761D02*
X130065476Y-95743047D01*
X130684523Y-95743047D01*
D12*
X149716666Y-80746666D02*
X149016666Y-80746666D01*
X149016666Y-80580000D01*
X149050000Y-80480000D01*
X149116666Y-80413333D01*
X149183333Y-80380000D01*
X149316666Y-80346666D01*
X149416666Y-80346666D01*
X149550000Y-80380000D01*
X149616666Y-80413333D01*
X149683333Y-80480000D01*
X149716666Y-80580000D01*
X149716666Y-80746666D01*
X149450000Y-80046666D02*
X149450000Y-79513333D01*
D10*
X129351190Y-105236380D02*
X129446428Y-105236380D01*
X129541666Y-105284000D01*
X129589285Y-105331619D01*
X129636904Y-105426857D01*
X129684523Y-105617333D01*
X129684523Y-105855428D01*
X129636904Y-106045904D01*
X129589285Y-106141142D01*
X129541666Y-106188761D01*
X129446428Y-106236380D01*
X129351190Y-106236380D01*
X129255952Y-106188761D01*
X129208333Y-106141142D01*
X129160714Y-106045904D01*
X129113095Y-105855428D01*
X129113095Y-105617333D01*
X129160714Y-105426857D01*
X129208333Y-105331619D01*
X129255952Y-105284000D01*
X129351190Y-105236380D01*
X130255952Y-105664952D02*
X130160714Y-105617333D01*
X130113095Y-105569714D01*
X130065476Y-105474476D01*
X130065476Y-105426857D01*
X130113095Y-105331619D01*
X130160714Y-105284000D01*
X130255952Y-105236380D01*
X130446428Y-105236380D01*
X130541666Y-105284000D01*
X130589285Y-105331619D01*
X130636904Y-105426857D01*
X130636904Y-105474476D01*
X130589285Y-105569714D01*
X130541666Y-105617333D01*
X130446428Y-105664952D01*
X130255952Y-105664952D01*
X130160714Y-105712571D01*
X130113095Y-105760190D01*
X130065476Y-105855428D01*
X130065476Y-106045904D01*
X130113095Y-106141142D01*
X130160714Y-106188761D01*
X130255952Y-106236380D01*
X130446428Y-106236380D01*
X130541666Y-106188761D01*
X130589285Y-106141142D01*
X130636904Y-106045904D01*
X130636904Y-105855428D01*
X130589285Y-105760190D01*
X130541666Y-105712571D01*
X130446428Y-105664952D01*
D13*
X148563571Y-123762380D02*
X148343571Y-123286190D01*
X148186428Y-123762380D02*
X148186428Y-122762380D01*
X148437857Y-122762380D01*
X148500714Y-122810000D01*
X148532142Y-122857619D01*
X148563571Y-122952857D01*
X148563571Y-123095714D01*
X148532142Y-123190952D01*
X148500714Y-123238571D01*
X148437857Y-123286190D01*
X148186428Y-123286190D01*
X148815000Y-123714761D02*
X148909285Y-123762380D01*
X149066428Y-123762380D01*
X149129285Y-123714761D01*
X149160714Y-123667142D01*
X149192142Y-123571904D01*
X149192142Y-123476666D01*
X149160714Y-123381428D01*
X149129285Y-123333809D01*
X149066428Y-123286190D01*
X148940714Y-123238571D01*
X148877857Y-123190952D01*
X148846428Y-123143333D01*
X148815000Y-123048095D01*
X148815000Y-122952857D01*
X148846428Y-122857619D01*
X148877857Y-122810000D01*
X148940714Y-122762380D01*
X149097857Y-122762380D01*
X149192142Y-122810000D01*
X149380714Y-122762380D02*
X149757857Y-122762380D01*
X149569285Y-123762380D02*
X149569285Y-122762380D01*
D10*
X149091666Y-90258095D02*
X149091666Y-89781904D01*
X149377380Y-90353333D02*
X148377380Y-90020000D01*
X149377380Y-89686666D01*
X149377380Y-89353333D02*
X148377380Y-89353333D01*
X148377380Y-89115238D01*
X148425000Y-88972380D01*
X148520238Y-88877142D01*
X148615476Y-88829523D01*
X148805952Y-88781904D01*
X148948809Y-88781904D01*
X149139285Y-88829523D01*
X149234523Y-88877142D01*
X149329761Y-88972380D01*
X149377380Y-89115238D01*
X149377380Y-89353333D01*
X149282142Y-87781904D02*
X149329761Y-87829523D01*
X149377380Y-87972380D01*
X149377380Y-88067619D01*
X149329761Y-88210476D01*
X149234523Y-88305714D01*
X149139285Y-88353333D01*
X148948809Y-88400952D01*
X148805952Y-88400952D01*
X148615476Y-88353333D01*
X148520238Y-88305714D01*
X148425000Y-88210476D01*
X148377380Y-88067619D01*
X148377380Y-87972380D01*
X148425000Y-87829523D01*
X148472619Y-87781904D01*
%TO.C,R2*%
X141852380Y-95966666D02*
X141376190Y-96300000D01*
X141852380Y-96538095D02*
X140852380Y-96538095D01*
X140852380Y-96157142D01*
X140900000Y-96061904D01*
X140947619Y-96014285D01*
X141042857Y-95966666D01*
X141185714Y-95966666D01*
X141280952Y-96014285D01*
X141328571Y-96061904D01*
X141376190Y-96157142D01*
X141376190Y-96538095D01*
X140947619Y-95585714D02*
X140900000Y-95538095D01*
X140852380Y-95442857D01*
X140852380Y-95204761D01*
X140900000Y-95109523D01*
X140947619Y-95061904D01*
X141042857Y-95014285D01*
X141138095Y-95014285D01*
X141280952Y-95061904D01*
X141852380Y-95633333D01*
X141852380Y-95014285D01*
%TO.C,U2*%
X133552380Y-107561904D02*
X134361904Y-107561904D01*
X134457142Y-107514285D01*
X134504761Y-107466666D01*
X134552380Y-107371428D01*
X134552380Y-107180952D01*
X134504761Y-107085714D01*
X134457142Y-107038095D01*
X134361904Y-106990476D01*
X133552380Y-106990476D01*
X133647619Y-106561904D02*
X133600000Y-106514285D01*
X133552380Y-106419047D01*
X133552380Y-106180952D01*
X133600000Y-106085714D01*
X133647619Y-106038095D01*
X133742857Y-105990476D01*
X133838095Y-105990476D01*
X133980952Y-106038095D01*
X134552380Y-106609523D01*
X134552380Y-105990476D01*
%TO.C,C10*%
X144357142Y-119024285D02*
X144404761Y-119055714D01*
X144452380Y-119150000D01*
X144452380Y-119212857D01*
X144404761Y-119307142D01*
X144309523Y-119370000D01*
X144214285Y-119401428D01*
X144023809Y-119432857D01*
X143880952Y-119432857D01*
X143690476Y-119401428D01*
X143595238Y-119370000D01*
X143500000Y-119307142D01*
X143452380Y-119212857D01*
X143452380Y-119150000D01*
X143500000Y-119055714D01*
X143547619Y-119024285D01*
X144452380Y-118395714D02*
X144452380Y-118772857D01*
X144452380Y-118584285D02*
X143452380Y-118584285D01*
X143595238Y-118647142D01*
X143690476Y-118710000D01*
X143738095Y-118772857D01*
X143452380Y-117987142D02*
X143452380Y-117924285D01*
X143500000Y-117861428D01*
X143547619Y-117830000D01*
X143642857Y-117798571D01*
X143833333Y-117767142D01*
X144071428Y-117767142D01*
X144261904Y-117798571D01*
X144357142Y-117830000D01*
X144404761Y-117861428D01*
X144452380Y-117924285D01*
X144452380Y-117987142D01*
X144404761Y-118050000D01*
X144357142Y-118081428D01*
X144261904Y-118112857D01*
X144071428Y-118144285D01*
X143833333Y-118144285D01*
X143642857Y-118112857D01*
X143547619Y-118081428D01*
X143500000Y-118050000D01*
X143452380Y-117987142D01*
%TO.C,C9*%
X132957142Y-111966666D02*
X133004761Y-112014285D01*
X133052380Y-112157142D01*
X133052380Y-112252380D01*
X133004761Y-112395238D01*
X132909523Y-112490476D01*
X132814285Y-112538095D01*
X132623809Y-112585714D01*
X132480952Y-112585714D01*
X132290476Y-112538095D01*
X132195238Y-112490476D01*
X132100000Y-112395238D01*
X132052380Y-112252380D01*
X132052380Y-112157142D01*
X132100000Y-112014285D01*
X132147619Y-111966666D01*
X133052380Y-111490476D02*
X133052380Y-111300000D01*
X133004761Y-111204761D01*
X132957142Y-111157142D01*
X132814285Y-111061904D01*
X132623809Y-111014285D01*
X132242857Y-111014285D01*
X132147619Y-111061904D01*
X132100000Y-111109523D01*
X132052380Y-111204761D01*
X132052380Y-111395238D01*
X132100000Y-111490476D01*
X132147619Y-111538095D01*
X132242857Y-111585714D01*
X132480952Y-111585714D01*
X132576190Y-111538095D01*
X132623809Y-111490476D01*
X132671428Y-111395238D01*
X132671428Y-111204761D01*
X132623809Y-111109523D01*
X132576190Y-111061904D01*
X132480952Y-111014285D01*
%TO.C,C11*%
X146557142Y-111624285D02*
X146604761Y-111655714D01*
X146652380Y-111750000D01*
X146652380Y-111812857D01*
X146604761Y-111907142D01*
X146509523Y-111970000D01*
X146414285Y-112001428D01*
X146223809Y-112032857D01*
X146080952Y-112032857D01*
X145890476Y-112001428D01*
X145795238Y-111970000D01*
X145700000Y-111907142D01*
X145652380Y-111812857D01*
X145652380Y-111750000D01*
X145700000Y-111655714D01*
X145747619Y-111624285D01*
X146652380Y-110995714D02*
X146652380Y-111372857D01*
X146652380Y-111184285D02*
X145652380Y-111184285D01*
X145795238Y-111247142D01*
X145890476Y-111310000D01*
X145938095Y-111372857D01*
X146652380Y-110367142D02*
X146652380Y-110744285D01*
X146652380Y-110555714D02*
X145652380Y-110555714D01*
X145795238Y-110618571D01*
X145890476Y-110681428D01*
X145938095Y-110744285D01*
%TO.C,R1*%
X140252380Y-95966666D02*
X139776190Y-96300000D01*
X140252380Y-96538095D02*
X139252380Y-96538095D01*
X139252380Y-96157142D01*
X139300000Y-96061904D01*
X139347619Y-96014285D01*
X139442857Y-95966666D01*
X139585714Y-95966666D01*
X139680952Y-96014285D01*
X139728571Y-96061904D01*
X139776190Y-96157142D01*
X139776190Y-96538095D01*
X140252380Y-95014285D02*
X140252380Y-95585714D01*
X140252380Y-95300000D02*
X139252380Y-95300000D01*
X139395238Y-95395238D01*
X139490476Y-95490476D01*
X139538095Y-95585714D01*
%TO.C,U1*%
X141852380Y-90561904D02*
X142661904Y-90561904D01*
X142757142Y-90514285D01*
X142804761Y-90466666D01*
X142852380Y-90371428D01*
X142852380Y-90180952D01*
X142804761Y-90085714D01*
X142757142Y-90038095D01*
X142661904Y-89990476D01*
X141852380Y-89990476D01*
X142852380Y-88990476D02*
X142852380Y-89561904D01*
X142852380Y-89276190D02*
X141852380Y-89276190D01*
X141995238Y-89371428D01*
X142090476Y-89466666D01*
X142138095Y-89561904D01*
%TO.C,C4*%
X135957142Y-118766666D02*
X136004761Y-118814285D01*
X136052380Y-118957142D01*
X136052380Y-119052380D01*
X136004761Y-119195238D01*
X135909523Y-119290476D01*
X135814285Y-119338095D01*
X135623809Y-119385714D01*
X135480952Y-119385714D01*
X135290476Y-119338095D01*
X135195238Y-119290476D01*
X135100000Y-119195238D01*
X135052380Y-119052380D01*
X135052380Y-118957142D01*
X135100000Y-118814285D01*
X135147619Y-118766666D01*
X135385714Y-117909523D02*
X136052380Y-117909523D01*
X135004761Y-118147619D02*
X135719047Y-118385714D01*
X135719047Y-117766666D01*
%TO.C,DS1*%
X143852380Y-83301428D02*
X142852380Y-83301428D01*
X142852380Y-83144285D01*
X142900000Y-83050000D01*
X142995238Y-82987142D01*
X143090476Y-82955714D01*
X143280952Y-82924285D01*
X143423809Y-82924285D01*
X143614285Y-82955714D01*
X143709523Y-82987142D01*
X143804761Y-83050000D01*
X143852380Y-83144285D01*
X143852380Y-83301428D01*
X143804761Y-82672857D02*
X143852380Y-82578571D01*
X143852380Y-82421428D01*
X143804761Y-82358571D01*
X143757142Y-82327142D01*
X143661904Y-82295714D01*
X143566666Y-82295714D01*
X143471428Y-82327142D01*
X143423809Y-82358571D01*
X143376190Y-82421428D01*
X143328571Y-82547142D01*
X143280952Y-82610000D01*
X143233333Y-82641428D01*
X143138095Y-82672857D01*
X143042857Y-82672857D01*
X142947619Y-82641428D01*
X142900000Y-82610000D01*
X142852380Y-82547142D01*
X142852380Y-82390000D01*
X142900000Y-82295714D01*
X143852380Y-81667142D02*
X143852380Y-82044285D01*
X143852380Y-81855714D02*
X142852380Y-81855714D01*
X142995238Y-81918571D01*
X143090476Y-81981428D01*
X143138095Y-82044285D01*
%TO.C,C15*%
X145957142Y-119024285D02*
X146004761Y-119055714D01*
X146052380Y-119150000D01*
X146052380Y-119212857D01*
X146004761Y-119307142D01*
X145909523Y-119370000D01*
X145814285Y-119401428D01*
X145623809Y-119432857D01*
X145480952Y-119432857D01*
X145290476Y-119401428D01*
X145195238Y-119370000D01*
X145100000Y-119307142D01*
X145052380Y-119212857D01*
X145052380Y-119150000D01*
X145100000Y-119055714D01*
X145147619Y-119024285D01*
X146052380Y-118395714D02*
X146052380Y-118772857D01*
X146052380Y-118584285D02*
X145052380Y-118584285D01*
X145195238Y-118647142D01*
X145290476Y-118710000D01*
X145338095Y-118772857D01*
X145052380Y-117798571D02*
X145052380Y-118112857D01*
X145528571Y-118144285D01*
X145480952Y-118112857D01*
X145433333Y-118050000D01*
X145433333Y-117892857D01*
X145480952Y-117830000D01*
X145528571Y-117798571D01*
X145623809Y-117767142D01*
X145861904Y-117767142D01*
X145957142Y-117798571D01*
X146004761Y-117830000D01*
X146052380Y-117892857D01*
X146052380Y-118050000D01*
X146004761Y-118112857D01*
X145957142Y-118144285D01*
%TO.C,R7*%
X135052380Y-83685000D02*
X134576190Y-83905000D01*
X135052380Y-84062142D02*
X134052380Y-84062142D01*
X134052380Y-83810714D01*
X134100000Y-83747857D01*
X134147619Y-83716428D01*
X134242857Y-83685000D01*
X134385714Y-83685000D01*
X134480952Y-83716428D01*
X134528571Y-83747857D01*
X134576190Y-83810714D01*
X134576190Y-84062142D01*
X134052380Y-83465000D02*
X134052380Y-83025000D01*
X135052380Y-83307857D01*
%TO.C,C3*%
X132957142Y-118766666D02*
X133004761Y-118814285D01*
X133052380Y-118957142D01*
X133052380Y-119052380D01*
X133004761Y-119195238D01*
X132909523Y-119290476D01*
X132814285Y-119338095D01*
X132623809Y-119385714D01*
X132480952Y-119385714D01*
X132290476Y-119338095D01*
X132195238Y-119290476D01*
X132100000Y-119195238D01*
X132052380Y-119052380D01*
X132052380Y-118957142D01*
X132100000Y-118814285D01*
X132147619Y-118766666D01*
X132052380Y-118433333D02*
X132052380Y-117814285D01*
X132433333Y-118147619D01*
X132433333Y-118004761D01*
X132480952Y-117909523D01*
X132528571Y-117861904D01*
X132623809Y-117814285D01*
X132861904Y-117814285D01*
X132957142Y-117861904D01*
X133004761Y-117909523D01*
X133052380Y-118004761D01*
X133052380Y-118290476D01*
X133004761Y-118385714D01*
X132957142Y-118433333D01*
%TO.C,Y1*%
X138176190Y-119076190D02*
X138652380Y-119076190D01*
X137652380Y-119409523D02*
X138176190Y-119076190D01*
X137652380Y-118742857D01*
X138652380Y-117885714D02*
X138652380Y-118457142D01*
X138652380Y-118171428D02*
X137652380Y-118171428D01*
X137795238Y-118266666D01*
X137890476Y-118361904D01*
X137938095Y-118457142D01*
%TO.C,R8*%
X132052380Y-83710000D02*
X131576190Y-83930000D01*
X132052380Y-84087142D02*
X131052380Y-84087142D01*
X131052380Y-83835714D01*
X131100000Y-83772857D01*
X131147619Y-83741428D01*
X131242857Y-83710000D01*
X131385714Y-83710000D01*
X131480952Y-83741428D01*
X131528571Y-83772857D01*
X131576190Y-83835714D01*
X131576190Y-84087142D01*
X131480952Y-83332857D02*
X131433333Y-83395714D01*
X131385714Y-83427142D01*
X131290476Y-83458571D01*
X131242857Y-83458571D01*
X131147619Y-83427142D01*
X131100000Y-83395714D01*
X131052380Y-83332857D01*
X131052380Y-83207142D01*
X131100000Y-83144285D01*
X131147619Y-83112857D01*
X131242857Y-83081428D01*
X131290476Y-83081428D01*
X131385714Y-83112857D01*
X131433333Y-83144285D01*
X131480952Y-83207142D01*
X131480952Y-83332857D01*
X131528571Y-83395714D01*
X131576190Y-83427142D01*
X131671428Y-83458571D01*
X131861904Y-83458571D01*
X131957142Y-83427142D01*
X132004761Y-83395714D01*
X132052380Y-83332857D01*
X132052380Y-83207142D01*
X132004761Y-83144285D01*
X131957142Y-83112857D01*
X131861904Y-83081428D01*
X131671428Y-83081428D01*
X131576190Y-83112857D01*
X131528571Y-83144285D01*
X131480952Y-83207142D01*
%TO.C,C12*%
X146557142Y-104324285D02*
X146604761Y-104355714D01*
X146652380Y-104450000D01*
X146652380Y-104512857D01*
X146604761Y-104607142D01*
X146509523Y-104670000D01*
X146414285Y-104701428D01*
X146223809Y-104732857D01*
X146080952Y-104732857D01*
X145890476Y-104701428D01*
X145795238Y-104670000D01*
X145700000Y-104607142D01*
X145652380Y-104512857D01*
X145652380Y-104450000D01*
X145700000Y-104355714D01*
X145747619Y-104324285D01*
X146652380Y-103695714D02*
X146652380Y-104072857D01*
X146652380Y-103884285D02*
X145652380Y-103884285D01*
X145795238Y-103947142D01*
X145890476Y-104010000D01*
X145938095Y-104072857D01*
X145747619Y-103444285D02*
X145700000Y-103412857D01*
X145652380Y-103350000D01*
X145652380Y-103192857D01*
X145700000Y-103130000D01*
X145747619Y-103098571D01*
X145842857Y-103067142D01*
X145938095Y-103067142D01*
X146080952Y-103098571D01*
X146652380Y-103475714D01*
X146652380Y-103067142D01*
%TO.C,C1*%
X145157142Y-93166666D02*
X145204761Y-93214285D01*
X145252380Y-93357142D01*
X145252380Y-93452380D01*
X145204761Y-93595238D01*
X145109523Y-93690476D01*
X145014285Y-93738095D01*
X144823809Y-93785714D01*
X144680952Y-93785714D01*
X144490476Y-93738095D01*
X144395238Y-93690476D01*
X144300000Y-93595238D01*
X144252380Y-93452380D01*
X144252380Y-93357142D01*
X144300000Y-93214285D01*
X144347619Y-93166666D01*
X145252380Y-92214285D02*
X145252380Y-92785714D01*
X145252380Y-92500000D02*
X144252380Y-92500000D01*
X144395238Y-92595238D01*
X144490476Y-92690476D01*
X144538095Y-92785714D01*
%TO.C,F1*%
X145728571Y-82933333D02*
X145728571Y-83266666D01*
X146252380Y-83266666D02*
X145252380Y-83266666D01*
X145252380Y-82790476D01*
X146252380Y-81885714D02*
X146252380Y-82457142D01*
X146252380Y-82171428D02*
X145252380Y-82171428D01*
X145395238Y-82266666D01*
X145490476Y-82361904D01*
X145538095Y-82457142D01*
%TO.C,C7*%
X143357142Y-95966666D02*
X143404761Y-96014285D01*
X143452380Y-96157142D01*
X143452380Y-96252380D01*
X143404761Y-96395238D01*
X143309523Y-96490476D01*
X143214285Y-96538095D01*
X143023809Y-96585714D01*
X142880952Y-96585714D01*
X142690476Y-96538095D01*
X142595238Y-96490476D01*
X142500000Y-96395238D01*
X142452380Y-96252380D01*
X142452380Y-96157142D01*
X142500000Y-96014285D01*
X142547619Y-95966666D01*
X142452380Y-95633333D02*
X142452380Y-94966666D01*
X143452380Y-95395238D01*
%TO.C,C14*%
X138557142Y-96224285D02*
X138604761Y-96255714D01*
X138652380Y-96350000D01*
X138652380Y-96412857D01*
X138604761Y-96507142D01*
X138509523Y-96570000D01*
X138414285Y-96601428D01*
X138223809Y-96632857D01*
X138080952Y-96632857D01*
X137890476Y-96601428D01*
X137795238Y-96570000D01*
X137700000Y-96507142D01*
X137652380Y-96412857D01*
X137652380Y-96350000D01*
X137700000Y-96255714D01*
X137747619Y-96224285D01*
X138652380Y-95595714D02*
X138652380Y-95972857D01*
X138652380Y-95784285D02*
X137652380Y-95784285D01*
X137795238Y-95847142D01*
X137890476Y-95910000D01*
X137938095Y-95972857D01*
X137985714Y-95030000D02*
X138652380Y-95030000D01*
X137604761Y-95187142D02*
X138319047Y-95344285D01*
X138319047Y-94935714D01*
%TO.C,R5*%
X132052380Y-87166666D02*
X131576190Y-87500000D01*
X132052380Y-87738095D02*
X131052380Y-87738095D01*
X131052380Y-87357142D01*
X131100000Y-87261904D01*
X131147619Y-87214285D01*
X131242857Y-87166666D01*
X131385714Y-87166666D01*
X131480952Y-87214285D01*
X131528571Y-87261904D01*
X131576190Y-87357142D01*
X131576190Y-87738095D01*
X131052380Y-86261904D02*
X131052380Y-86738095D01*
X131528571Y-86785714D01*
X131480952Y-86738095D01*
X131433333Y-86642857D01*
X131433333Y-86404761D01*
X131480952Y-86309523D01*
X131528571Y-86261904D01*
X131623809Y-86214285D01*
X131861904Y-86214285D01*
X131957142Y-86261904D01*
X132004761Y-86309523D01*
X132052380Y-86404761D01*
X132052380Y-86642857D01*
X132004761Y-86738095D01*
X131957142Y-86785714D01*
%TO.C,C6*%
X144957142Y-95966666D02*
X145004761Y-96014285D01*
X145052380Y-96157142D01*
X145052380Y-96252380D01*
X145004761Y-96395238D01*
X144909523Y-96490476D01*
X144814285Y-96538095D01*
X144623809Y-96585714D01*
X144480952Y-96585714D01*
X144290476Y-96538095D01*
X144195238Y-96490476D01*
X144100000Y-96395238D01*
X144052380Y-96252380D01*
X144052380Y-96157142D01*
X144100000Y-96014285D01*
X144147619Y-95966666D01*
X144052380Y-95109523D02*
X144052380Y-95300000D01*
X144100000Y-95395238D01*
X144147619Y-95442857D01*
X144290476Y-95538095D01*
X144480952Y-95585714D01*
X144861904Y-95585714D01*
X144957142Y-95538095D01*
X145004761Y-95490476D01*
X145052380Y-95395238D01*
X145052380Y-95204761D01*
X145004761Y-95109523D01*
X144957142Y-95061904D01*
X144861904Y-95014285D01*
X144623809Y-95014285D01*
X144528571Y-95061904D01*
X144480952Y-95109523D01*
X144433333Y-95204761D01*
X144433333Y-95395238D01*
X144480952Y-95490476D01*
X144528571Y-95538095D01*
X144623809Y-95585714D01*
%TO.C,U3*%
X135852380Y-92161904D02*
X136661904Y-92161904D01*
X136757142Y-92114285D01*
X136804761Y-92066666D01*
X136852380Y-91971428D01*
X136852380Y-91780952D01*
X136804761Y-91685714D01*
X136757142Y-91638095D01*
X136661904Y-91590476D01*
X135852380Y-91590476D01*
X135852380Y-91209523D02*
X135852380Y-90590476D01*
X136233333Y-90923809D01*
X136233333Y-90780952D01*
X136280952Y-90685714D01*
X136328571Y-90638095D01*
X136423809Y-90590476D01*
X136661904Y-90590476D01*
X136757142Y-90638095D01*
X136804761Y-90685714D01*
X136852380Y-90780952D01*
X136852380Y-91066666D01*
X136804761Y-91161904D01*
X136757142Y-91209523D01*
%TO.C,C16*%
X136957142Y-96224285D02*
X137004761Y-96255714D01*
X137052380Y-96350000D01*
X137052380Y-96412857D01*
X137004761Y-96507142D01*
X136909523Y-96570000D01*
X136814285Y-96601428D01*
X136623809Y-96632857D01*
X136480952Y-96632857D01*
X136290476Y-96601428D01*
X136195238Y-96570000D01*
X136100000Y-96507142D01*
X136052380Y-96412857D01*
X136052380Y-96350000D01*
X136100000Y-96255714D01*
X136147619Y-96224285D01*
X137052380Y-95595714D02*
X137052380Y-95972857D01*
X137052380Y-95784285D02*
X136052380Y-95784285D01*
X136195238Y-95847142D01*
X136290476Y-95910000D01*
X136338095Y-95972857D01*
X136052380Y-95030000D02*
X136052380Y-95155714D01*
X136100000Y-95218571D01*
X136147619Y-95250000D01*
X136290476Y-95312857D01*
X136480952Y-95344285D01*
X136861904Y-95344285D01*
X136957142Y-95312857D01*
X137004761Y-95281428D01*
X137052380Y-95218571D01*
X137052380Y-95092857D01*
X137004761Y-95030000D01*
X136957142Y-94998571D01*
X136861904Y-94967142D01*
X136623809Y-94967142D01*
X136528571Y-94998571D01*
X136480952Y-95030000D01*
X136433333Y-95092857D01*
X136433333Y-95218571D01*
X136480952Y-95281428D01*
X136528571Y-95312857D01*
X136623809Y-95344285D01*
%TO.C,R3*%
X141252380Y-118766666D02*
X140776190Y-119100000D01*
X141252380Y-119338095D02*
X140252380Y-119338095D01*
X140252380Y-118957142D01*
X140300000Y-118861904D01*
X140347619Y-118814285D01*
X140442857Y-118766666D01*
X140585714Y-118766666D01*
X140680952Y-118814285D01*
X140728571Y-118861904D01*
X140776190Y-118957142D01*
X140776190Y-119338095D01*
X140252380Y-118433333D02*
X140252380Y-117814285D01*
X140633333Y-118147619D01*
X140633333Y-118004761D01*
X140680952Y-117909523D01*
X140728571Y-117861904D01*
X140823809Y-117814285D01*
X141061904Y-117814285D01*
X141157142Y-117861904D01*
X141204761Y-117909523D01*
X141252380Y-118004761D01*
X141252380Y-118290476D01*
X141204761Y-118385714D01*
X141157142Y-118433333D01*
%TO.C,C13*%
X146557142Y-96224285D02*
X146604761Y-96255714D01*
X146652380Y-96350000D01*
X146652380Y-96412857D01*
X146604761Y-96507142D01*
X146509523Y-96570000D01*
X146414285Y-96601428D01*
X146223809Y-96632857D01*
X146080952Y-96632857D01*
X145890476Y-96601428D01*
X145795238Y-96570000D01*
X145700000Y-96507142D01*
X145652380Y-96412857D01*
X145652380Y-96350000D01*
X145700000Y-96255714D01*
X145747619Y-96224285D01*
X146652380Y-95595714D02*
X146652380Y-95972857D01*
X146652380Y-95784285D02*
X145652380Y-95784285D01*
X145795238Y-95847142D01*
X145890476Y-95910000D01*
X145938095Y-95972857D01*
X145652380Y-95375714D02*
X145652380Y-94967142D01*
X146033333Y-95187142D01*
X146033333Y-95092857D01*
X146080952Y-95030000D01*
X146128571Y-94998571D01*
X146223809Y-94967142D01*
X146461904Y-94967142D01*
X146557142Y-94998571D01*
X146604761Y-95030000D01*
X146652380Y-95092857D01*
X146652380Y-95281428D01*
X146604761Y-95344285D01*
X146557142Y-95375714D01*
%TO.C,C2*%
X142557142Y-93166666D02*
X142604761Y-93214285D01*
X142652380Y-93357142D01*
X142652380Y-93452380D01*
X142604761Y-93595238D01*
X142509523Y-93690476D01*
X142414285Y-93738095D01*
X142223809Y-93785714D01*
X142080952Y-93785714D01*
X141890476Y-93738095D01*
X141795238Y-93690476D01*
X141700000Y-93595238D01*
X141652380Y-93452380D01*
X141652380Y-93357142D01*
X141700000Y-93214285D01*
X141747619Y-93166666D01*
X141747619Y-92785714D02*
X141700000Y-92738095D01*
X141652380Y-92642857D01*
X141652380Y-92404761D01*
X141700000Y-92309523D01*
X141747619Y-92261904D01*
X141842857Y-92214285D01*
X141938095Y-92214285D01*
X142080952Y-92261904D01*
X142652380Y-92833333D01*
X142652380Y-92214285D01*
%TO.C,C5*%
X142857142Y-118766666D02*
X142904761Y-118814285D01*
X142952380Y-118957142D01*
X142952380Y-119052380D01*
X142904761Y-119195238D01*
X142809523Y-119290476D01*
X142714285Y-119338095D01*
X142523809Y-119385714D01*
X142380952Y-119385714D01*
X142190476Y-119338095D01*
X142095238Y-119290476D01*
X142000000Y-119195238D01*
X141952380Y-119052380D01*
X141952380Y-118957142D01*
X142000000Y-118814285D01*
X142047619Y-118766666D01*
X141952380Y-117861904D02*
X141952380Y-118338095D01*
X142428571Y-118385714D01*
X142380952Y-118338095D01*
X142333333Y-118242857D01*
X142333333Y-118004761D01*
X142380952Y-117909523D01*
X142428571Y-117861904D01*
X142523809Y-117814285D01*
X142761904Y-117814285D01*
X142857142Y-117861904D01*
X142904761Y-117909523D01*
X142952380Y-118004761D01*
X142952380Y-118242857D01*
X142904761Y-118338095D01*
X142857142Y-118385714D01*
%TO.C,J1*%
X141252380Y-80733333D02*
X141966666Y-80733333D01*
X142109523Y-80780952D01*
X142204761Y-80876190D01*
X142252380Y-81019047D01*
X142252380Y-81114285D01*
X142252380Y-79733333D02*
X142252380Y-80304761D01*
X142252380Y-80019047D02*
X141252380Y-80019047D01*
X141395238Y-80114285D01*
X141490476Y-80209523D01*
X141538095Y-80304761D01*
%TO.C,J2*%
X138452380Y-82133333D02*
X139166666Y-82133333D01*
X139309523Y-82180952D01*
X139404761Y-82276190D01*
X139452380Y-82419047D01*
X139452380Y-82514285D01*
X138547619Y-81704761D02*
X138500000Y-81657142D01*
X138452380Y-81561904D01*
X138452380Y-81323809D01*
X138500000Y-81228571D01*
X138547619Y-81180952D01*
X138642857Y-81133333D01*
X138738095Y-81133333D01*
X138880952Y-81180952D01*
X139452380Y-81752380D01*
X139452380Y-81133333D01*
%TO.C,C8*%
X132957142Y-100366666D02*
X133004761Y-100414285D01*
X133052380Y-100557142D01*
X133052380Y-100652380D01*
X133004761Y-100795238D01*
X132909523Y-100890476D01*
X132814285Y-100938095D01*
X132623809Y-100985714D01*
X132480952Y-100985714D01*
X132290476Y-100938095D01*
X132195238Y-100890476D01*
X132100000Y-100795238D01*
X132052380Y-100652380D01*
X132052380Y-100557142D01*
X132100000Y-100414285D01*
X132147619Y-100366666D01*
X132480952Y-99795238D02*
X132433333Y-99890476D01*
X132385714Y-99938095D01*
X132290476Y-99985714D01*
X132242857Y-99985714D01*
X132147619Y-99938095D01*
X132100000Y-99890476D01*
X132052380Y-99795238D01*
X132052380Y-99604761D01*
X132100000Y-99509523D01*
X132147619Y-99461904D01*
X132242857Y-99414285D01*
X132290476Y-99414285D01*
X132385714Y-99461904D01*
X132433333Y-99509523D01*
X132480952Y-99604761D01*
X132480952Y-99795238D01*
X132528571Y-99890476D01*
X132576190Y-99938095D01*
X132671428Y-99985714D01*
X132861904Y-99985714D01*
X132957142Y-99938095D01*
X133004761Y-99890476D01*
X133052380Y-99795238D01*
X133052380Y-99604761D01*
X133004761Y-99509523D01*
X132957142Y-99461904D01*
X132861904Y-99414285D01*
X132671428Y-99414285D01*
X132576190Y-99461904D01*
X132528571Y-99509523D01*
X132480952Y-99604761D01*
%TO.C,C17*%
X138957142Y-87449285D02*
X139004761Y-87480714D01*
X139052380Y-87575000D01*
X139052380Y-87637857D01*
X139004761Y-87732142D01*
X138909523Y-87795000D01*
X138814285Y-87826428D01*
X138623809Y-87857857D01*
X138480952Y-87857857D01*
X138290476Y-87826428D01*
X138195238Y-87795000D01*
X138100000Y-87732142D01*
X138052380Y-87637857D01*
X138052380Y-87575000D01*
X138100000Y-87480714D01*
X138147619Y-87449285D01*
X139052380Y-86820714D02*
X139052380Y-87197857D01*
X139052380Y-87009285D02*
X138052380Y-87009285D01*
X138195238Y-87072142D01*
X138290476Y-87135000D01*
X138338095Y-87197857D01*
X138052380Y-86600714D02*
X138052380Y-86160714D01*
X139052380Y-86443571D01*
%TO.C,R6*%
X148652380Y-113966666D02*
X148176190Y-114300000D01*
X148652380Y-114538095D02*
X147652380Y-114538095D01*
X147652380Y-114157142D01*
X147700000Y-114061904D01*
X147747619Y-114014285D01*
X147842857Y-113966666D01*
X147985714Y-113966666D01*
X148080952Y-114014285D01*
X148128571Y-114061904D01*
X148176190Y-114157142D01*
X148176190Y-114538095D01*
X147652380Y-113109523D02*
X147652380Y-113300000D01*
X147700000Y-113395238D01*
X147747619Y-113442857D01*
X147890476Y-113538095D01*
X148080952Y-113585714D01*
X148461904Y-113585714D01*
X148557142Y-113538095D01*
X148604761Y-113490476D01*
X148652380Y-113395238D01*
X148652380Y-113204761D01*
X148604761Y-113109523D01*
X148557142Y-113061904D01*
X148461904Y-113014285D01*
X148223809Y-113014285D01*
X148128571Y-113061904D01*
X148080952Y-113109523D01*
X148033333Y-113204761D01*
X148033333Y-113395238D01*
X148080952Y-113490476D01*
X148128571Y-113538095D01*
X148223809Y-113585714D01*
%TO.C,R4*%
X135052380Y-87166666D02*
X134576190Y-87500000D01*
X135052380Y-87738095D02*
X134052380Y-87738095D01*
X134052380Y-87357142D01*
X134100000Y-87261904D01*
X134147619Y-87214285D01*
X134242857Y-87166666D01*
X134385714Y-87166666D01*
X134480952Y-87214285D01*
X134528571Y-87261904D01*
X134576190Y-87357142D01*
X134576190Y-87738095D01*
X134385714Y-86309523D02*
X135052380Y-86309523D01*
X134004761Y-86547619D02*
X134719047Y-86785714D01*
X134719047Y-86166666D01*
D12*
%TO.C,R2*%
X141922500Y-98437258D02*
X141922500Y-97962742D01*
X140877500Y-98437258D02*
X140877500Y-97962742D01*
%TO.C,U2*%
X143010000Y-103190000D02*
X143010000Y-103840000D01*
X135790000Y-110410000D02*
X135790000Y-109760000D01*
X142360000Y-110410000D02*
X143010000Y-110410000D01*
X143010000Y-110410000D02*
X143010000Y-109760000D01*
X136440000Y-110410000D02*
X135790000Y-110410000D01*
X142360000Y-103190000D02*
X143010000Y-103190000D01*
X136440000Y-103190000D02*
X135790000Y-103190000D01*
%TO.C,C10*%
X143490000Y-116059420D02*
X143490000Y-116340580D01*
X144510000Y-116059420D02*
X144510000Y-116340580D01*
%TO.C,C9*%
X133110000Y-109259420D02*
X133110000Y-109540580D01*
X132090000Y-109259420D02*
X132090000Y-109540580D01*
%TO.C,C11*%
X146710000Y-108459420D02*
X146710000Y-108740580D01*
X145690000Y-108459420D02*
X145690000Y-108740580D01*
%TO.C,R1*%
X139277500Y-98437258D02*
X139277500Y-97962742D01*
X140322500Y-98437258D02*
X140322500Y-97962742D01*
%TO.C,U1*%
X144800000Y-91360000D02*
X146600000Y-91360000D01*
X144800000Y-91360000D02*
X144000000Y-91360000D01*
X144800000Y-88240000D02*
X145600000Y-88240000D01*
X144800000Y-88240000D02*
X144000000Y-88240000D01*
%TO.C,C4*%
X136110000Y-116340580D02*
X136110000Y-116059420D01*
X135090000Y-116340580D02*
X135090000Y-116059420D01*
%TO.C,DS1*%
X142400000Y-87950000D02*
X142400000Y-84050000D01*
X144400000Y-87950000D02*
X144400000Y-84050000D01*
X142400000Y-87950000D02*
X144400000Y-87950000D01*
%TO.C,C15*%
X146110000Y-116059420D02*
X146110000Y-116340580D01*
X145090000Y-116059420D02*
X145090000Y-116340580D01*
%TO.C,R7*%
X136522500Y-83337742D02*
X136522500Y-83812258D01*
X135477500Y-83337742D02*
X135477500Y-83812258D01*
%TO.C,C3*%
X132090000Y-116059420D02*
X132090000Y-116340580D01*
X133110000Y-116059420D02*
X133110000Y-116340580D01*
%TO.C,Y1*%
X139950000Y-113300000D02*
X136450000Y-113300000D01*
X136450000Y-113300000D02*
X136450000Y-117500000D01*
%TO.C,R8*%
X133522500Y-83362742D02*
X133522500Y-83837258D01*
X132477500Y-83362742D02*
X132477500Y-83837258D01*
%TO.C,C12*%
X146710000Y-101540580D02*
X146710000Y-101259420D01*
X145690000Y-101540580D02*
X145690000Y-101259420D01*
%TO.C,C1*%
X146510000Y-92859420D02*
X146510000Y-93140580D01*
X145490000Y-92859420D02*
X145490000Y-93140580D01*
%TO.C,F1*%
X146710000Y-85197936D02*
X146710000Y-86402064D01*
X144890000Y-85197936D02*
X144890000Y-86402064D01*
%TO.C,C7*%
X143510000Y-98340580D02*
X143510000Y-98059420D01*
X142490000Y-98340580D02*
X142490000Y-98059420D01*
%TO.C,C14*%
X137690000Y-98340580D02*
X137690000Y-98059420D01*
X138710000Y-98340580D02*
X138710000Y-98059420D01*
%TO.C,R5*%
X133522500Y-86762742D02*
X133522500Y-87237258D01*
X132477500Y-86762742D02*
X132477500Y-87237258D01*
%TO.C,C6*%
X145110000Y-98340580D02*
X145110000Y-98059420D01*
X144090000Y-98340580D02*
X144090000Y-98059420D01*
%TO.C,U3*%
X136400000Y-93985000D02*
X134450000Y-93985000D01*
X136400000Y-88865000D02*
X138350000Y-88865000D01*
X136400000Y-88865000D02*
X132950000Y-88865000D01*
X136400000Y-93985000D02*
X138350000Y-93985000D01*
%TO.C,C16*%
X136090000Y-98340580D02*
X136090000Y-98059420D01*
X137110000Y-98340580D02*
X137110000Y-98059420D01*
%TO.C,R3*%
X140277500Y-116437258D02*
X140277500Y-115962742D01*
X141322500Y-116437258D02*
X141322500Y-115962742D01*
%TO.C,C13*%
X145690000Y-98340580D02*
X145690000Y-98059420D01*
X146710000Y-98340580D02*
X146710000Y-98059420D01*
%TO.C,C2*%
X142890000Y-92859420D02*
X142890000Y-93140580D01*
X143910000Y-92859420D02*
X143910000Y-93140580D01*
%TO.C,C5*%
X141890000Y-116340580D02*
X141890000Y-116059420D01*
X142910000Y-116340580D02*
X142910000Y-116059420D01*
%TO.C,J1*%
X145925000Y-79465000D02*
X146325000Y-79915000D01*
X148775000Y-76665000D02*
X148475000Y-76665000D01*
X148775000Y-76665000D02*
X148775000Y-78215000D01*
X146325000Y-79915000D02*
X145525000Y-79915000D01*
X140475000Y-76665000D02*
X140475000Y-78215000D01*
X140775000Y-73865000D02*
X140775000Y-76665000D01*
X140775000Y-76665000D02*
X140475000Y-76665000D01*
X148475000Y-73865000D02*
X148475000Y-76665000D01*
X145525000Y-79915000D02*
X145925000Y-79465000D01*
%TO.C,J2*%
X139380000Y-78365000D02*
X139380000Y-76445000D01*
X130220000Y-76445000D02*
X130220000Y-78365000D01*
%TO.C,C8*%
X133110000Y-102740580D02*
X133110000Y-102459420D01*
X132090000Y-102740580D02*
X132090000Y-102459420D01*
%TO.C,C17*%
X140510000Y-87165580D02*
X140510000Y-86884420D01*
X139490000Y-87165580D02*
X139490000Y-86884420D01*
%TO.C,R6*%
X147677500Y-116437258D02*
X147677500Y-115962742D01*
X148722500Y-116437258D02*
X148722500Y-115962742D01*
%TO.C,R4*%
X136522500Y-87237258D02*
X136522500Y-86762742D01*
X135477500Y-87237258D02*
X135477500Y-86762742D01*
%TD*%
M02*
