%TF.GenerationSoftware,KiCad,Pcbnew,(6.0.1)*%
%TF.CreationDate,2022-02-13T21:58:50+09:00*%
%TF.ProjectId,yuiop2040,7975696f-7032-4303-9430-2e6b69636164,1*%
%TF.SameCoordinates,Original*%
%TF.FileFunction,Legend,Top*%
%TF.FilePolarity,Positive*%
%FSLAX46Y46*%
G04 Gerber Fmt 4.6, Leading zero omitted, Abs format (unit mm)*
G04 Created by KiCad (PCBNEW (6.0.1)) date 2022-02-13 21:58:50*
%MOMM*%
%LPD*%
G01*
G04 APERTURE LIST*
%ADD10C,0.150000*%
%ADD11C,0.075000*%
%ADD12C,0.120000*%
%ADD13C,0.100000*%
G04 APERTURE END LIST*
D10*
X127970000Y-115055000D02*
X127970000Y-114674000D01*
X150830000Y-84194000D02*
X150830000Y-84575000D01*
X150830000Y-99434000D02*
X150830000Y-99815000D01*
X127589000Y-114166000D02*
X127970000Y-114166000D01*
X127970000Y-93846000D02*
X127970000Y-93465000D01*
X151211000Y-99434000D02*
X150830000Y-99434000D01*
X127970000Y-104514000D02*
X127589000Y-104514000D01*
X127970000Y-124326000D02*
X127970000Y-123945000D01*
X127970000Y-104006000D02*
X127970000Y-103625000D01*
X127970000Y-94735000D02*
X127970000Y-94354000D01*
X127970000Y-104895000D02*
X127970000Y-104514000D01*
X127970000Y-94354000D02*
X127589000Y-94354000D01*
X150830000Y-118865000D02*
X150830000Y-119246000D01*
X127589000Y-93846000D02*
X127970000Y-93846000D01*
X150830000Y-93465000D02*
X150830000Y-93846000D01*
X151211000Y-109594000D02*
X150830000Y-109594000D01*
X127970000Y-84194000D02*
X127589000Y-84194000D01*
X150830000Y-93846000D02*
X151211000Y-93846000D01*
X150830000Y-119246000D02*
X151211000Y-119246000D01*
X127970000Y-114674000D02*
X127589000Y-114674000D01*
X150830000Y-108705000D02*
X150830000Y-109086000D01*
X151211000Y-84194000D02*
X150830000Y-84194000D01*
X127970000Y-114166000D02*
X127970000Y-113785000D01*
X127589000Y-104006000D02*
X127970000Y-104006000D01*
X150830000Y-109594000D02*
X150830000Y-109975000D01*
X127970000Y-84575000D02*
X127970000Y-84194000D01*
X127589000Y-124326000D02*
X127970000Y-124326000D01*
X150830000Y-109086000D02*
X151211000Y-109086000D01*
D11*
X127745821Y-79580344D02*
X127912487Y-80580344D01*
X128079154Y-79580344D01*
X128222011Y-80532725D02*
X128293440Y-80580344D01*
X128412487Y-80580344D01*
X128460106Y-80532725D01*
X128483916Y-80485106D01*
X128507725Y-80389868D01*
X128507725Y-80294630D01*
X128483916Y-80199392D01*
X128460106Y-80151773D01*
X128412487Y-80104154D01*
X128317249Y-80056535D01*
X128269630Y-80008916D01*
X128245821Y-79961297D01*
X128222011Y-79866059D01*
X128222011Y-79770821D01*
X128245821Y-79675583D01*
X128269630Y-79627964D01*
X128317249Y-79580344D01*
X128436297Y-79580344D01*
X128507725Y-79627964D01*
X128817249Y-80104154D02*
X128817249Y-80580344D01*
X128650583Y-79580344D02*
X128817249Y-80104154D01*
X128983916Y-79580344D01*
X129126773Y-80532725D02*
X129198202Y-80580344D01*
X129317249Y-80580344D01*
X129364868Y-80532725D01*
X129388678Y-80485106D01*
X129412487Y-80389868D01*
X129412487Y-80294630D01*
X129388678Y-80199392D01*
X129364868Y-80151773D01*
X129317249Y-80104154D01*
X129222011Y-80056535D01*
X129174392Y-80008916D01*
X129150583Y-79961297D01*
X129126773Y-79866059D01*
X129126773Y-79770821D01*
X129150583Y-79675583D01*
X129174392Y-79627964D01*
X129222011Y-79580344D01*
X129341059Y-79580344D01*
X129412487Y-79627964D01*
X127926428Y-74978571D02*
X127997857Y-75026190D01*
X128021666Y-75073809D01*
X128045476Y-75169047D01*
X128045476Y-75311904D01*
X128021666Y-75407142D01*
X127997857Y-75454761D01*
X127950238Y-75502380D01*
X127759761Y-75502380D01*
X127759761Y-74502380D01*
X127926428Y-74502380D01*
X127974047Y-74550000D01*
X127997857Y-74597619D01*
X128021666Y-74692857D01*
X128021666Y-74788095D01*
X127997857Y-74883333D01*
X127974047Y-74930952D01*
X127926428Y-74978571D01*
X127759761Y-74978571D01*
X128355000Y-74502380D02*
X128450238Y-74502380D01*
X128497857Y-74550000D01*
X128545476Y-74645238D01*
X128569285Y-74835714D01*
X128569285Y-75169047D01*
X128545476Y-75359523D01*
X128497857Y-75454761D01*
X128450238Y-75502380D01*
X128355000Y-75502380D01*
X128307380Y-75454761D01*
X128259761Y-75359523D01*
X128235952Y-75169047D01*
X128235952Y-74835714D01*
X128259761Y-74645238D01*
X128307380Y-74550000D01*
X128355000Y-74502380D01*
X128878809Y-74502380D02*
X128974047Y-74502380D01*
X129021666Y-74550000D01*
X129069285Y-74645238D01*
X129093095Y-74835714D01*
X129093095Y-75169047D01*
X129069285Y-75359523D01*
X129021666Y-75454761D01*
X128974047Y-75502380D01*
X128878809Y-75502380D01*
X128831190Y-75454761D01*
X128783571Y-75359523D01*
X128759761Y-75169047D01*
X128759761Y-74835714D01*
X128783571Y-74645238D01*
X128831190Y-74550000D01*
X128878809Y-74502380D01*
X129235952Y-74502380D02*
X129521666Y-74502380D01*
X129378809Y-75502380D02*
X129378809Y-74502380D01*
X149278333Y-82122380D02*
X149445000Y-83122380D01*
X149611666Y-82122380D01*
X149778333Y-82122380D02*
X149778333Y-82931904D01*
X149802142Y-83027142D01*
X149825952Y-83074761D01*
X149873571Y-83122380D01*
X149968809Y-83122380D01*
X150016428Y-83074761D01*
X150040238Y-83027142D01*
X150064047Y-82931904D01*
X150064047Y-82122380D01*
X150278333Y-83074761D02*
X150349761Y-83122380D01*
X150468809Y-83122380D01*
X150516428Y-83074761D01*
X150540238Y-83027142D01*
X150564047Y-82931904D01*
X150564047Y-82836666D01*
X150540238Y-82741428D01*
X150516428Y-82693809D01*
X150468809Y-82646190D01*
X150373571Y-82598571D01*
X150325952Y-82550952D01*
X150302142Y-82503333D01*
X150278333Y-82408095D01*
X150278333Y-82312857D01*
X150302142Y-82217619D01*
X150325952Y-82170000D01*
X150373571Y-82122380D01*
X150492619Y-82122380D01*
X150564047Y-82170000D01*
X150945000Y-82598571D02*
X151016428Y-82646190D01*
X151040238Y-82693809D01*
X151064047Y-82789047D01*
X151064047Y-82931904D01*
X151040238Y-83027142D01*
X151016428Y-83074761D01*
X150968809Y-83122380D01*
X150778333Y-83122380D01*
X150778333Y-82122380D01*
X150945000Y-82122380D01*
X150992619Y-82170000D01*
X151016428Y-82217619D01*
X151040238Y-82312857D01*
X151040238Y-82408095D01*
X151016428Y-82503333D01*
X150992619Y-82550952D01*
X150945000Y-82598571D01*
X150778333Y-82598571D01*
D10*
X149433095Y-107363619D02*
X149480714Y-107316000D01*
X149575952Y-107268380D01*
X149814047Y-107268380D01*
X149909285Y-107316000D01*
X149956904Y-107363619D01*
X150004523Y-107458857D01*
X150004523Y-107554095D01*
X149956904Y-107696952D01*
X149385476Y-108268380D01*
X150004523Y-108268380D01*
X150623571Y-107268380D02*
X150718809Y-107268380D01*
X150814047Y-107316000D01*
X150861666Y-107363619D01*
X150909285Y-107458857D01*
X150956904Y-107649333D01*
X150956904Y-107887428D01*
X150909285Y-108077904D01*
X150861666Y-108173142D01*
X150814047Y-108220761D01*
X150718809Y-108268380D01*
X150623571Y-108268380D01*
X150528333Y-108220761D01*
X150480714Y-108173142D01*
X150433095Y-108077904D01*
X150385476Y-107887428D01*
X150385476Y-107649333D01*
X150433095Y-107458857D01*
X150480714Y-107363619D01*
X150528333Y-107316000D01*
X150623571Y-107268380D01*
X149433095Y-97457619D02*
X149480714Y-97410000D01*
X149575952Y-97362380D01*
X149814047Y-97362380D01*
X149909285Y-97410000D01*
X149956904Y-97457619D01*
X150004523Y-97552857D01*
X150004523Y-97648095D01*
X149956904Y-97790952D01*
X149385476Y-98362380D01*
X150004523Y-98362380D01*
X150861666Y-97695714D02*
X150861666Y-98362380D01*
X150623571Y-97314761D02*
X150385476Y-98029047D01*
X151004523Y-98029047D01*
X150004523Y-118428380D02*
X149433095Y-118428380D01*
X149718809Y-118428380D02*
X149718809Y-117428380D01*
X149623571Y-117571238D01*
X149528333Y-117666476D01*
X149433095Y-117714095D01*
X150861666Y-117428380D02*
X150671190Y-117428380D01*
X150575952Y-117476000D01*
X150528333Y-117523619D01*
X150433095Y-117666476D01*
X150385476Y-117856952D01*
X150385476Y-118237904D01*
X150433095Y-118333142D01*
X150480714Y-118380761D01*
X150575952Y-118428380D01*
X150766428Y-118428380D01*
X150861666Y-118380761D01*
X150909285Y-118333142D01*
X150956904Y-118237904D01*
X150956904Y-117999809D01*
X150909285Y-117904571D01*
X150861666Y-117856952D01*
X150766428Y-117809333D01*
X150575952Y-117809333D01*
X150480714Y-117856952D01*
X150433095Y-117904571D01*
X150385476Y-117999809D01*
D12*
X131104761Y-77061904D02*
X131104761Y-77633333D01*
X131066666Y-77747619D01*
X130990476Y-77823809D01*
X130876190Y-77861904D01*
X130800000Y-77861904D01*
X131866666Y-77861904D02*
X131485714Y-77861904D01*
X131485714Y-77061904D01*
X132590476Y-77785714D02*
X132552380Y-77823809D01*
X132438095Y-77861904D01*
X132361904Y-77861904D01*
X132247619Y-77823809D01*
X132171428Y-77747619D01*
X132133333Y-77671428D01*
X132095238Y-77519047D01*
X132095238Y-77404761D01*
X132133333Y-77252380D01*
X132171428Y-77176190D01*
X132247619Y-77100000D01*
X132361904Y-77061904D01*
X132438095Y-77061904D01*
X132552380Y-77100000D01*
X132590476Y-77138095D01*
X133161904Y-77061904D02*
X133161904Y-77633333D01*
X133123809Y-77747619D01*
X133047619Y-77823809D01*
X132933333Y-77861904D01*
X132857142Y-77861904D01*
X133923809Y-77861904D02*
X133542857Y-77861904D01*
X133542857Y-77061904D01*
X134647619Y-77785714D02*
X134609523Y-77823809D01*
X134495238Y-77861904D01*
X134419047Y-77861904D01*
X134304761Y-77823809D01*
X134228571Y-77747619D01*
X134190476Y-77671428D01*
X134152380Y-77519047D01*
X134152380Y-77404761D01*
X134190476Y-77252380D01*
X134228571Y-77176190D01*
X134304761Y-77100000D01*
X134419047Y-77061904D01*
X134495238Y-77061904D01*
X134609523Y-77100000D01*
X134647619Y-77138095D01*
X135219047Y-77061904D02*
X135219047Y-77633333D01*
X135180952Y-77747619D01*
X135104761Y-77823809D01*
X134990476Y-77861904D01*
X134914285Y-77861904D01*
X135980952Y-77861904D02*
X135600000Y-77861904D01*
X135600000Y-77061904D01*
X136704761Y-77785714D02*
X136666666Y-77823809D01*
X136552380Y-77861904D01*
X136476190Y-77861904D01*
X136361904Y-77823809D01*
X136285714Y-77747619D01*
X136247619Y-77671428D01*
X136209523Y-77519047D01*
X136209523Y-77404761D01*
X136247619Y-77252380D01*
X136285714Y-77176190D01*
X136361904Y-77100000D01*
X136476190Y-77061904D01*
X136552380Y-77061904D01*
X136666666Y-77100000D01*
X136704761Y-77138095D01*
X137276190Y-77061904D02*
X137276190Y-77633333D01*
X137238095Y-77747619D01*
X137161904Y-77823809D01*
X137047619Y-77861904D01*
X136971428Y-77861904D01*
X138038095Y-77861904D02*
X137657142Y-77861904D01*
X137657142Y-77061904D01*
X138761904Y-77785714D02*
X138723809Y-77823809D01*
X138609523Y-77861904D01*
X138533333Y-77861904D01*
X138419047Y-77823809D01*
X138342857Y-77747619D01*
X138304761Y-77671428D01*
X138266666Y-77519047D01*
X138266666Y-77404761D01*
X138304761Y-77252380D01*
X138342857Y-77176190D01*
X138419047Y-77100000D01*
X138533333Y-77061904D01*
X138609523Y-77061904D01*
X138723809Y-77100000D01*
X138761904Y-77138095D01*
D13*
X141044285Y-121809761D02*
X141138571Y-121857380D01*
X141295714Y-121857380D01*
X141358571Y-121809761D01*
X141390000Y-121762142D01*
X141421428Y-121666904D01*
X141421428Y-121571666D01*
X141390000Y-121476428D01*
X141358571Y-121428809D01*
X141295714Y-121381190D01*
X141170000Y-121333571D01*
X141107142Y-121285952D01*
X141075714Y-121238333D01*
X141044285Y-121143095D01*
X141044285Y-121047857D01*
X141075714Y-120952619D01*
X141107142Y-120905000D01*
X141170000Y-120857380D01*
X141327142Y-120857380D01*
X141421428Y-120905000D01*
X141641428Y-120857380D02*
X141798571Y-121857380D01*
X141924285Y-121143095D01*
X142050000Y-121857380D01*
X142207142Y-120857380D01*
X142458571Y-121857380D02*
X142458571Y-120857380D01*
X142615714Y-120857380D01*
X142710000Y-120905000D01*
X142772857Y-121000238D01*
X142804285Y-121095476D01*
X142835714Y-121285952D01*
X142835714Y-121428809D01*
X142804285Y-121619285D01*
X142772857Y-121714523D01*
X142710000Y-121809761D01*
X142615714Y-121857380D01*
X142458571Y-121857380D01*
X127787857Y-82122380D02*
X128196428Y-82122380D01*
X127976428Y-82503333D01*
X128070714Y-82503333D01*
X128133571Y-82550952D01*
X128165000Y-82598571D01*
X128196428Y-82693809D01*
X128196428Y-82931904D01*
X128165000Y-83027142D01*
X128133571Y-83074761D01*
X128070714Y-83122380D01*
X127882142Y-83122380D01*
X127819285Y-83074761D01*
X127787857Y-83027142D01*
X128385000Y-82122380D02*
X128605000Y-83122380D01*
X128825000Y-82122380D01*
X128982142Y-82122380D02*
X129390714Y-82122380D01*
X129170714Y-82503333D01*
X129265000Y-82503333D01*
X129327857Y-82550952D01*
X129359285Y-82598571D01*
X129390714Y-82693809D01*
X129390714Y-82931904D01*
X129359285Y-83027142D01*
X129327857Y-83074761D01*
X129265000Y-83122380D01*
X129076428Y-83122380D01*
X129013571Y-83074761D01*
X128982142Y-83027142D01*
D10*
X128414523Y-116396380D02*
X127843095Y-116396380D01*
X128128809Y-116396380D02*
X128128809Y-115396380D01*
X128033571Y-115539238D01*
X127938333Y-115634476D01*
X127843095Y-115682095D01*
X128795476Y-115491619D02*
X128843095Y-115444000D01*
X128938333Y-115396380D01*
X129176428Y-115396380D01*
X129271666Y-115444000D01*
X129319285Y-115491619D01*
X129366904Y-115586857D01*
X129366904Y-115682095D01*
X129319285Y-115824952D01*
X128747857Y-116396380D01*
X129366904Y-116396380D01*
X128081190Y-84916380D02*
X128176428Y-84916380D01*
X128271666Y-84964000D01*
X128319285Y-85011619D01*
X128366904Y-85106857D01*
X128414523Y-85297333D01*
X128414523Y-85535428D01*
X128366904Y-85725904D01*
X128319285Y-85821142D01*
X128271666Y-85868761D01*
X128176428Y-85916380D01*
X128081190Y-85916380D01*
X127985952Y-85868761D01*
X127938333Y-85821142D01*
X127890714Y-85725904D01*
X127843095Y-85535428D01*
X127843095Y-85297333D01*
X127890714Y-85106857D01*
X127938333Y-85011619D01*
X127985952Y-84964000D01*
X128081190Y-84916380D01*
X129033571Y-84916380D02*
X129128809Y-84916380D01*
X129224047Y-84964000D01*
X129271666Y-85011619D01*
X129319285Y-85106857D01*
X129366904Y-85297333D01*
X129366904Y-85535428D01*
X129319285Y-85725904D01*
X129271666Y-85821142D01*
X129224047Y-85868761D01*
X129128809Y-85916380D01*
X129033571Y-85916380D01*
X128938333Y-85868761D01*
X128890714Y-85821142D01*
X128843095Y-85725904D01*
X128795476Y-85535428D01*
X128795476Y-85297333D01*
X128843095Y-85106857D01*
X128890714Y-85011619D01*
X128938333Y-84964000D01*
X129033571Y-84916380D01*
X149433095Y-92123619D02*
X149480714Y-92076000D01*
X149575952Y-92028380D01*
X149814047Y-92028380D01*
X149909285Y-92076000D01*
X149956904Y-92123619D01*
X150004523Y-92218857D01*
X150004523Y-92314095D01*
X149956904Y-92456952D01*
X149385476Y-93028380D01*
X150004523Y-93028380D01*
X150861666Y-92028380D02*
X150671190Y-92028380D01*
X150575952Y-92076000D01*
X150528333Y-92123619D01*
X150433095Y-92266476D01*
X150385476Y-92456952D01*
X150385476Y-92837904D01*
X150433095Y-92933142D01*
X150480714Y-92980761D01*
X150575952Y-93028380D01*
X150766428Y-93028380D01*
X150861666Y-92980761D01*
X150909285Y-92933142D01*
X150956904Y-92837904D01*
X150956904Y-92599809D01*
X150909285Y-92504571D01*
X150861666Y-92456952D01*
X150766428Y-92409333D01*
X150575952Y-92409333D01*
X150480714Y-92456952D01*
X150433095Y-92504571D01*
X150385476Y-92599809D01*
X149314047Y-78042380D02*
X149314047Y-77042380D01*
X149552142Y-77042380D01*
X149695000Y-77090000D01*
X149790238Y-77185238D01*
X149837857Y-77280476D01*
X149885476Y-77470952D01*
X149885476Y-77613809D01*
X149837857Y-77804285D01*
X149790238Y-77899523D01*
X149695000Y-77994761D01*
X149552142Y-78042380D01*
X149314047Y-78042380D01*
X150314047Y-77661428D02*
X151075952Y-77661428D01*
X150695000Y-78042380D02*
X150695000Y-77280476D01*
D13*
X135407142Y-121809761D02*
X135501428Y-121857380D01*
X135658571Y-121857380D01*
X135721428Y-121809761D01*
X135752857Y-121762142D01*
X135784285Y-121666904D01*
X135784285Y-121571666D01*
X135752857Y-121476428D01*
X135721428Y-121428809D01*
X135658571Y-121381190D01*
X135532857Y-121333571D01*
X135470000Y-121285952D01*
X135438571Y-121238333D01*
X135407142Y-121143095D01*
X135407142Y-121047857D01*
X135438571Y-120952619D01*
X135470000Y-120905000D01*
X135532857Y-120857380D01*
X135690000Y-120857380D01*
X135784285Y-120905000D01*
X136004285Y-120857380D02*
X136161428Y-121857380D01*
X136287142Y-121143095D01*
X136412857Y-121857380D01*
X136570000Y-120857380D01*
X137198571Y-121762142D02*
X137167142Y-121809761D01*
X137072857Y-121857380D01*
X137010000Y-121857380D01*
X136915714Y-121809761D01*
X136852857Y-121714523D01*
X136821428Y-121619285D01*
X136790000Y-121428809D01*
X136790000Y-121285952D01*
X136821428Y-121095476D01*
X136852857Y-121000238D01*
X136915714Y-120905000D01*
X137010000Y-120857380D01*
X137072857Y-120857380D01*
X137167142Y-120905000D01*
X137198571Y-120952619D01*
X137795714Y-121857380D02*
X137481428Y-121857380D01*
X137481428Y-120857380D01*
X138015714Y-121857380D02*
X138015714Y-120857380D01*
X138392857Y-121857380D02*
X138110000Y-121285952D01*
X138392857Y-120857380D02*
X138015714Y-121428809D01*
D10*
X128081190Y-95076380D02*
X128176428Y-95076380D01*
X128271666Y-95124000D01*
X128319285Y-95171619D01*
X128366904Y-95266857D01*
X128414523Y-95457333D01*
X128414523Y-95695428D01*
X128366904Y-95885904D01*
X128319285Y-95981142D01*
X128271666Y-96028761D01*
X128176428Y-96076380D01*
X128081190Y-96076380D01*
X127985952Y-96028761D01*
X127938333Y-95981142D01*
X127890714Y-95885904D01*
X127843095Y-95695428D01*
X127843095Y-95457333D01*
X127890714Y-95266857D01*
X127938333Y-95171619D01*
X127985952Y-95124000D01*
X128081190Y-95076380D01*
X129271666Y-95409714D02*
X129271666Y-96076380D01*
X129033571Y-95028761D02*
X128795476Y-95743047D01*
X129414523Y-95743047D01*
X149314047Y-80582380D02*
X149314047Y-79582380D01*
X149552142Y-79582380D01*
X149695000Y-79630000D01*
X149790238Y-79725238D01*
X149837857Y-79820476D01*
X149885476Y-80010952D01*
X149885476Y-80153809D01*
X149837857Y-80344285D01*
X149790238Y-80439523D01*
X149695000Y-80534761D01*
X149552142Y-80582380D01*
X149314047Y-80582380D01*
X150314047Y-80201428D02*
X151075952Y-80201428D01*
X128081190Y-105236380D02*
X128176428Y-105236380D01*
X128271666Y-105284000D01*
X128319285Y-105331619D01*
X128366904Y-105426857D01*
X128414523Y-105617333D01*
X128414523Y-105855428D01*
X128366904Y-106045904D01*
X128319285Y-106141142D01*
X128271666Y-106188761D01*
X128176428Y-106236380D01*
X128081190Y-106236380D01*
X127985952Y-106188761D01*
X127938333Y-106141142D01*
X127890714Y-106045904D01*
X127843095Y-105855428D01*
X127843095Y-105617333D01*
X127890714Y-105426857D01*
X127938333Y-105331619D01*
X127985952Y-105284000D01*
X128081190Y-105236380D01*
X128985952Y-105664952D02*
X128890714Y-105617333D01*
X128843095Y-105569714D01*
X128795476Y-105474476D01*
X128795476Y-105426857D01*
X128843095Y-105331619D01*
X128890714Y-105284000D01*
X128985952Y-105236380D01*
X129176428Y-105236380D01*
X129271666Y-105284000D01*
X129319285Y-105331619D01*
X129366904Y-105426857D01*
X129366904Y-105474476D01*
X129319285Y-105569714D01*
X129271666Y-105617333D01*
X129176428Y-105664952D01*
X128985952Y-105664952D01*
X128890714Y-105712571D01*
X128843095Y-105760190D01*
X128795476Y-105855428D01*
X128795476Y-106045904D01*
X128843095Y-106141142D01*
X128890714Y-106188761D01*
X128985952Y-106236380D01*
X129176428Y-106236380D01*
X129271666Y-106188761D01*
X129319285Y-106141142D01*
X129366904Y-106045904D01*
X129366904Y-105855428D01*
X129319285Y-105760190D01*
X129271666Y-105712571D01*
X129176428Y-105664952D01*
D13*
X149833571Y-123762380D02*
X149613571Y-123286190D01*
X149456428Y-123762380D02*
X149456428Y-122762380D01*
X149707857Y-122762380D01*
X149770714Y-122810000D01*
X149802142Y-122857619D01*
X149833571Y-122952857D01*
X149833571Y-123095714D01*
X149802142Y-123190952D01*
X149770714Y-123238571D01*
X149707857Y-123286190D01*
X149456428Y-123286190D01*
X150085000Y-123714761D02*
X150179285Y-123762380D01*
X150336428Y-123762380D01*
X150399285Y-123714761D01*
X150430714Y-123667142D01*
X150462142Y-123571904D01*
X150462142Y-123476666D01*
X150430714Y-123381428D01*
X150399285Y-123333809D01*
X150336428Y-123286190D01*
X150210714Y-123238571D01*
X150147857Y-123190952D01*
X150116428Y-123143333D01*
X150085000Y-123048095D01*
X150085000Y-122952857D01*
X150116428Y-122857619D01*
X150147857Y-122810000D01*
X150210714Y-122762380D01*
X150367857Y-122762380D01*
X150462142Y-122810000D01*
X150650714Y-122762380D02*
X151027857Y-122762380D01*
X150839285Y-123762380D02*
X150839285Y-122762380D01*
D10*
X150361666Y-90258095D02*
X150361666Y-89781904D01*
X150647380Y-90353333D02*
X149647380Y-90020000D01*
X150647380Y-89686666D01*
X150647380Y-89353333D02*
X149647380Y-89353333D01*
X149647380Y-89115238D01*
X149695000Y-88972380D01*
X149790238Y-88877142D01*
X149885476Y-88829523D01*
X150075952Y-88781904D01*
X150218809Y-88781904D01*
X150409285Y-88829523D01*
X150504523Y-88877142D01*
X150599761Y-88972380D01*
X150647380Y-89115238D01*
X150647380Y-89353333D01*
X150552142Y-87781904D02*
X150599761Y-87829523D01*
X150647380Y-87972380D01*
X150647380Y-88067619D01*
X150599761Y-88210476D01*
X150504523Y-88305714D01*
X150409285Y-88353333D01*
X150218809Y-88400952D01*
X150075952Y-88400952D01*
X149885476Y-88353333D01*
X149790238Y-88305714D01*
X149695000Y-88210476D01*
X149647380Y-88067619D01*
X149647380Y-87972380D01*
X149695000Y-87829523D01*
X149742619Y-87781904D01*
%TO.C,R2*%
X141852380Y-95966666D02*
X141376190Y-96300000D01*
X141852380Y-96538095D02*
X140852380Y-96538095D01*
X140852380Y-96157142D01*
X140900000Y-96061904D01*
X140947619Y-96014285D01*
X141042857Y-95966666D01*
X141185714Y-95966666D01*
X141280952Y-96014285D01*
X141328571Y-96061904D01*
X141376190Y-96157142D01*
X141376190Y-96538095D01*
X140947619Y-95585714D02*
X140900000Y-95538095D01*
X140852380Y-95442857D01*
X140852380Y-95204761D01*
X140900000Y-95109523D01*
X140947619Y-95061904D01*
X141042857Y-95014285D01*
X141138095Y-95014285D01*
X141280952Y-95061904D01*
X141852380Y-95633333D01*
X141852380Y-95014285D01*
%TO.C,U2*%
X134052380Y-107561904D02*
X134861904Y-107561904D01*
X134957142Y-107514285D01*
X135004761Y-107466666D01*
X135052380Y-107371428D01*
X135052380Y-107180952D01*
X135004761Y-107085714D01*
X134957142Y-107038095D01*
X134861904Y-106990476D01*
X134052380Y-106990476D01*
X134147619Y-106561904D02*
X134100000Y-106514285D01*
X134052380Y-106419047D01*
X134052380Y-106180952D01*
X134100000Y-106085714D01*
X134147619Y-106038095D01*
X134242857Y-105990476D01*
X134338095Y-105990476D01*
X134480952Y-106038095D01*
X135052380Y-106609523D01*
X135052380Y-105990476D01*
%TO.C,C10*%
X144357142Y-119024285D02*
X144404761Y-119055714D01*
X144452380Y-119150000D01*
X144452380Y-119212857D01*
X144404761Y-119307142D01*
X144309523Y-119370000D01*
X144214285Y-119401428D01*
X144023809Y-119432857D01*
X143880952Y-119432857D01*
X143690476Y-119401428D01*
X143595238Y-119370000D01*
X143500000Y-119307142D01*
X143452380Y-119212857D01*
X143452380Y-119150000D01*
X143500000Y-119055714D01*
X143547619Y-119024285D01*
X144452380Y-118395714D02*
X144452380Y-118772857D01*
X144452380Y-118584285D02*
X143452380Y-118584285D01*
X143595238Y-118647142D01*
X143690476Y-118710000D01*
X143738095Y-118772857D01*
X143452380Y-117987142D02*
X143452380Y-117924285D01*
X143500000Y-117861428D01*
X143547619Y-117830000D01*
X143642857Y-117798571D01*
X143833333Y-117767142D01*
X144071428Y-117767142D01*
X144261904Y-117798571D01*
X144357142Y-117830000D01*
X144404761Y-117861428D01*
X144452380Y-117924285D01*
X144452380Y-117987142D01*
X144404761Y-118050000D01*
X144357142Y-118081428D01*
X144261904Y-118112857D01*
X144071428Y-118144285D01*
X143833333Y-118144285D01*
X143642857Y-118112857D01*
X143547619Y-118081428D01*
X143500000Y-118050000D01*
X143452380Y-117987142D01*
%TO.C,C9*%
X132957142Y-111966666D02*
X133004761Y-112014285D01*
X133052380Y-112157142D01*
X133052380Y-112252380D01*
X133004761Y-112395238D01*
X132909523Y-112490476D01*
X132814285Y-112538095D01*
X132623809Y-112585714D01*
X132480952Y-112585714D01*
X132290476Y-112538095D01*
X132195238Y-112490476D01*
X132100000Y-112395238D01*
X132052380Y-112252380D01*
X132052380Y-112157142D01*
X132100000Y-112014285D01*
X132147619Y-111966666D01*
X133052380Y-111490476D02*
X133052380Y-111300000D01*
X133004761Y-111204761D01*
X132957142Y-111157142D01*
X132814285Y-111061904D01*
X132623809Y-111014285D01*
X132242857Y-111014285D01*
X132147619Y-111061904D01*
X132100000Y-111109523D01*
X132052380Y-111204761D01*
X132052380Y-111395238D01*
X132100000Y-111490476D01*
X132147619Y-111538095D01*
X132242857Y-111585714D01*
X132480952Y-111585714D01*
X132576190Y-111538095D01*
X132623809Y-111490476D01*
X132671428Y-111395238D01*
X132671428Y-111204761D01*
X132623809Y-111109523D01*
X132576190Y-111061904D01*
X132480952Y-111014285D01*
%TO.C,C11*%
X146557142Y-111624285D02*
X146604761Y-111655714D01*
X146652380Y-111750000D01*
X146652380Y-111812857D01*
X146604761Y-111907142D01*
X146509523Y-111970000D01*
X146414285Y-112001428D01*
X146223809Y-112032857D01*
X146080952Y-112032857D01*
X145890476Y-112001428D01*
X145795238Y-111970000D01*
X145700000Y-111907142D01*
X145652380Y-111812857D01*
X145652380Y-111750000D01*
X145700000Y-111655714D01*
X145747619Y-111624285D01*
X146652380Y-110995714D02*
X146652380Y-111372857D01*
X146652380Y-111184285D02*
X145652380Y-111184285D01*
X145795238Y-111247142D01*
X145890476Y-111310000D01*
X145938095Y-111372857D01*
X146652380Y-110367142D02*
X146652380Y-110744285D01*
X146652380Y-110555714D02*
X145652380Y-110555714D01*
X145795238Y-110618571D01*
X145890476Y-110681428D01*
X145938095Y-110744285D01*
%TO.C,R1*%
X140252380Y-95966666D02*
X139776190Y-96300000D01*
X140252380Y-96538095D02*
X139252380Y-96538095D01*
X139252380Y-96157142D01*
X139300000Y-96061904D01*
X139347619Y-96014285D01*
X139442857Y-95966666D01*
X139585714Y-95966666D01*
X139680952Y-96014285D01*
X139728571Y-96061904D01*
X139776190Y-96157142D01*
X139776190Y-96538095D01*
X140252380Y-95014285D02*
X140252380Y-95585714D01*
X140252380Y-95300000D02*
X139252380Y-95300000D01*
X139395238Y-95395238D01*
X139490476Y-95490476D01*
X139538095Y-95585714D01*
%TO.C,U1*%
X141852380Y-90561904D02*
X142661904Y-90561904D01*
X142757142Y-90514285D01*
X142804761Y-90466666D01*
X142852380Y-90371428D01*
X142852380Y-90180952D01*
X142804761Y-90085714D01*
X142757142Y-90038095D01*
X142661904Y-89990476D01*
X141852380Y-89990476D01*
X142852380Y-88990476D02*
X142852380Y-89561904D01*
X142852380Y-89276190D02*
X141852380Y-89276190D01*
X141995238Y-89371428D01*
X142090476Y-89466666D01*
X142138095Y-89561904D01*
%TO.C,C4*%
X135957142Y-118766666D02*
X136004761Y-118814285D01*
X136052380Y-118957142D01*
X136052380Y-119052380D01*
X136004761Y-119195238D01*
X135909523Y-119290476D01*
X135814285Y-119338095D01*
X135623809Y-119385714D01*
X135480952Y-119385714D01*
X135290476Y-119338095D01*
X135195238Y-119290476D01*
X135100000Y-119195238D01*
X135052380Y-119052380D01*
X135052380Y-118957142D01*
X135100000Y-118814285D01*
X135147619Y-118766666D01*
X135385714Y-117909523D02*
X136052380Y-117909523D01*
X135004761Y-118147619D02*
X135719047Y-118385714D01*
X135719047Y-117766666D01*
%TO.C,DS1*%
X143852380Y-83301428D02*
X142852380Y-83301428D01*
X142852380Y-83144285D01*
X142900000Y-83050000D01*
X142995238Y-82987142D01*
X143090476Y-82955714D01*
X143280952Y-82924285D01*
X143423809Y-82924285D01*
X143614285Y-82955714D01*
X143709523Y-82987142D01*
X143804761Y-83050000D01*
X143852380Y-83144285D01*
X143852380Y-83301428D01*
X143804761Y-82672857D02*
X143852380Y-82578571D01*
X143852380Y-82421428D01*
X143804761Y-82358571D01*
X143757142Y-82327142D01*
X143661904Y-82295714D01*
X143566666Y-82295714D01*
X143471428Y-82327142D01*
X143423809Y-82358571D01*
X143376190Y-82421428D01*
X143328571Y-82547142D01*
X143280952Y-82610000D01*
X143233333Y-82641428D01*
X143138095Y-82672857D01*
X143042857Y-82672857D01*
X142947619Y-82641428D01*
X142900000Y-82610000D01*
X142852380Y-82547142D01*
X142852380Y-82390000D01*
X142900000Y-82295714D01*
X143852380Y-81667142D02*
X143852380Y-82044285D01*
X143852380Y-81855714D02*
X142852380Y-81855714D01*
X142995238Y-81918571D01*
X143090476Y-81981428D01*
X143138095Y-82044285D01*
%TO.C,C15*%
X145957142Y-119024285D02*
X146004761Y-119055714D01*
X146052380Y-119150000D01*
X146052380Y-119212857D01*
X146004761Y-119307142D01*
X145909523Y-119370000D01*
X145814285Y-119401428D01*
X145623809Y-119432857D01*
X145480952Y-119432857D01*
X145290476Y-119401428D01*
X145195238Y-119370000D01*
X145100000Y-119307142D01*
X145052380Y-119212857D01*
X145052380Y-119150000D01*
X145100000Y-119055714D01*
X145147619Y-119024285D01*
X146052380Y-118395714D02*
X146052380Y-118772857D01*
X146052380Y-118584285D02*
X145052380Y-118584285D01*
X145195238Y-118647142D01*
X145290476Y-118710000D01*
X145338095Y-118772857D01*
X145052380Y-117798571D02*
X145052380Y-118112857D01*
X145528571Y-118144285D01*
X145480952Y-118112857D01*
X145433333Y-118050000D01*
X145433333Y-117892857D01*
X145480952Y-117830000D01*
X145528571Y-117798571D01*
X145623809Y-117767142D01*
X145861904Y-117767142D01*
X145957142Y-117798571D01*
X146004761Y-117830000D01*
X146052380Y-117892857D01*
X146052380Y-118050000D01*
X146004761Y-118112857D01*
X145957142Y-118144285D01*
%TO.C,R31*%
X135052380Y-83999285D02*
X134576190Y-84219285D01*
X135052380Y-84376428D02*
X134052380Y-84376428D01*
X134052380Y-84125000D01*
X134100000Y-84062142D01*
X134147619Y-84030714D01*
X134242857Y-83999285D01*
X134385714Y-83999285D01*
X134480952Y-84030714D01*
X134528571Y-84062142D01*
X134576190Y-84125000D01*
X134576190Y-84376428D01*
X134052380Y-83779285D02*
X134052380Y-83370714D01*
X134433333Y-83590714D01*
X134433333Y-83496428D01*
X134480952Y-83433571D01*
X134528571Y-83402142D01*
X134623809Y-83370714D01*
X134861904Y-83370714D01*
X134957142Y-83402142D01*
X135004761Y-83433571D01*
X135052380Y-83496428D01*
X135052380Y-83685000D01*
X135004761Y-83747857D01*
X134957142Y-83779285D01*
X135052380Y-82742142D02*
X135052380Y-83119285D01*
X135052380Y-82930714D02*
X134052380Y-82930714D01*
X134195238Y-82993571D01*
X134290476Y-83056428D01*
X134338095Y-83119285D01*
%TO.C,C3*%
X132957142Y-118766666D02*
X133004761Y-118814285D01*
X133052380Y-118957142D01*
X133052380Y-119052380D01*
X133004761Y-119195238D01*
X132909523Y-119290476D01*
X132814285Y-119338095D01*
X132623809Y-119385714D01*
X132480952Y-119385714D01*
X132290476Y-119338095D01*
X132195238Y-119290476D01*
X132100000Y-119195238D01*
X132052380Y-119052380D01*
X132052380Y-118957142D01*
X132100000Y-118814285D01*
X132147619Y-118766666D01*
X132052380Y-118433333D02*
X132052380Y-117814285D01*
X132433333Y-118147619D01*
X132433333Y-118004761D01*
X132480952Y-117909523D01*
X132528571Y-117861904D01*
X132623809Y-117814285D01*
X132861904Y-117814285D01*
X132957142Y-117861904D01*
X133004761Y-117909523D01*
X133052380Y-118004761D01*
X133052380Y-118290476D01*
X133004761Y-118385714D01*
X132957142Y-118433333D01*
%TO.C,Y1*%
X138176190Y-119076190D02*
X138652380Y-119076190D01*
X137652380Y-119409523D02*
X138176190Y-119076190D01*
X137652380Y-118742857D01*
X138652380Y-117885714D02*
X138652380Y-118457142D01*
X138652380Y-118171428D02*
X137652380Y-118171428D01*
X137795238Y-118266666D01*
X137890476Y-118361904D01*
X137938095Y-118457142D01*
%TO.C,R32*%
X132052380Y-84024285D02*
X131576190Y-84244285D01*
X132052380Y-84401428D02*
X131052380Y-84401428D01*
X131052380Y-84150000D01*
X131100000Y-84087142D01*
X131147619Y-84055714D01*
X131242857Y-84024285D01*
X131385714Y-84024285D01*
X131480952Y-84055714D01*
X131528571Y-84087142D01*
X131576190Y-84150000D01*
X131576190Y-84401428D01*
X131052380Y-83804285D02*
X131052380Y-83395714D01*
X131433333Y-83615714D01*
X131433333Y-83521428D01*
X131480952Y-83458571D01*
X131528571Y-83427142D01*
X131623809Y-83395714D01*
X131861904Y-83395714D01*
X131957142Y-83427142D01*
X132004761Y-83458571D01*
X132052380Y-83521428D01*
X132052380Y-83710000D01*
X132004761Y-83772857D01*
X131957142Y-83804285D01*
X131147619Y-83144285D02*
X131100000Y-83112857D01*
X131052380Y-83050000D01*
X131052380Y-82892857D01*
X131100000Y-82830000D01*
X131147619Y-82798571D01*
X131242857Y-82767142D01*
X131338095Y-82767142D01*
X131480952Y-82798571D01*
X132052380Y-83175714D01*
X132052380Y-82767142D01*
%TO.C,C12*%
X146557142Y-104424285D02*
X146604761Y-104455714D01*
X146652380Y-104550000D01*
X146652380Y-104612857D01*
X146604761Y-104707142D01*
X146509523Y-104770000D01*
X146414285Y-104801428D01*
X146223809Y-104832857D01*
X146080952Y-104832857D01*
X145890476Y-104801428D01*
X145795238Y-104770000D01*
X145700000Y-104707142D01*
X145652380Y-104612857D01*
X145652380Y-104550000D01*
X145700000Y-104455714D01*
X145747619Y-104424285D01*
X146652380Y-103795714D02*
X146652380Y-104172857D01*
X146652380Y-103984285D02*
X145652380Y-103984285D01*
X145795238Y-104047142D01*
X145890476Y-104110000D01*
X145938095Y-104172857D01*
X145747619Y-103544285D02*
X145700000Y-103512857D01*
X145652380Y-103450000D01*
X145652380Y-103292857D01*
X145700000Y-103230000D01*
X145747619Y-103198571D01*
X145842857Y-103167142D01*
X145938095Y-103167142D01*
X146080952Y-103198571D01*
X146652380Y-103575714D01*
X146652380Y-103167142D01*
%TO.C,C1*%
X145157142Y-93166666D02*
X145204761Y-93214285D01*
X145252380Y-93357142D01*
X145252380Y-93452380D01*
X145204761Y-93595238D01*
X145109523Y-93690476D01*
X145014285Y-93738095D01*
X144823809Y-93785714D01*
X144680952Y-93785714D01*
X144490476Y-93738095D01*
X144395238Y-93690476D01*
X144300000Y-93595238D01*
X144252380Y-93452380D01*
X144252380Y-93357142D01*
X144300000Y-93214285D01*
X144347619Y-93166666D01*
X145252380Y-92214285D02*
X145252380Y-92785714D01*
X145252380Y-92500000D02*
X144252380Y-92500000D01*
X144395238Y-92595238D01*
X144490476Y-92690476D01*
X144538095Y-92785714D01*
%TO.C,F1*%
X145728571Y-82933333D02*
X145728571Y-83266666D01*
X146252380Y-83266666D02*
X145252380Y-83266666D01*
X145252380Y-82790476D01*
X146252380Y-81885714D02*
X146252380Y-82457142D01*
X146252380Y-82171428D02*
X145252380Y-82171428D01*
X145395238Y-82266666D01*
X145490476Y-82361904D01*
X145538095Y-82457142D01*
%TO.C,C7*%
X143357142Y-95966666D02*
X143404761Y-96014285D01*
X143452380Y-96157142D01*
X143452380Y-96252380D01*
X143404761Y-96395238D01*
X143309523Y-96490476D01*
X143214285Y-96538095D01*
X143023809Y-96585714D01*
X142880952Y-96585714D01*
X142690476Y-96538095D01*
X142595238Y-96490476D01*
X142500000Y-96395238D01*
X142452380Y-96252380D01*
X142452380Y-96157142D01*
X142500000Y-96014285D01*
X142547619Y-95966666D01*
X142452380Y-95633333D02*
X142452380Y-94966666D01*
X143452380Y-95395238D01*
%TO.C,C14*%
X138557142Y-96224285D02*
X138604761Y-96255714D01*
X138652380Y-96350000D01*
X138652380Y-96412857D01*
X138604761Y-96507142D01*
X138509523Y-96570000D01*
X138414285Y-96601428D01*
X138223809Y-96632857D01*
X138080952Y-96632857D01*
X137890476Y-96601428D01*
X137795238Y-96570000D01*
X137700000Y-96507142D01*
X137652380Y-96412857D01*
X137652380Y-96350000D01*
X137700000Y-96255714D01*
X137747619Y-96224285D01*
X138652380Y-95595714D02*
X138652380Y-95972857D01*
X138652380Y-95784285D02*
X137652380Y-95784285D01*
X137795238Y-95847142D01*
X137890476Y-95910000D01*
X137938095Y-95972857D01*
X137985714Y-95030000D02*
X138652380Y-95030000D01*
X137604761Y-95187142D02*
X138319047Y-95344285D01*
X138319047Y-94935714D01*
%TO.C,R5*%
X132052380Y-87166666D02*
X131576190Y-87500000D01*
X132052380Y-87738095D02*
X131052380Y-87738095D01*
X131052380Y-87357142D01*
X131100000Y-87261904D01*
X131147619Y-87214285D01*
X131242857Y-87166666D01*
X131385714Y-87166666D01*
X131480952Y-87214285D01*
X131528571Y-87261904D01*
X131576190Y-87357142D01*
X131576190Y-87738095D01*
X131052380Y-86261904D02*
X131052380Y-86738095D01*
X131528571Y-86785714D01*
X131480952Y-86738095D01*
X131433333Y-86642857D01*
X131433333Y-86404761D01*
X131480952Y-86309523D01*
X131528571Y-86261904D01*
X131623809Y-86214285D01*
X131861904Y-86214285D01*
X131957142Y-86261904D01*
X132004761Y-86309523D01*
X132052380Y-86404761D01*
X132052380Y-86642857D01*
X132004761Y-86738095D01*
X131957142Y-86785714D01*
%TO.C,C6*%
X144957142Y-95966666D02*
X145004761Y-96014285D01*
X145052380Y-96157142D01*
X145052380Y-96252380D01*
X145004761Y-96395238D01*
X144909523Y-96490476D01*
X144814285Y-96538095D01*
X144623809Y-96585714D01*
X144480952Y-96585714D01*
X144290476Y-96538095D01*
X144195238Y-96490476D01*
X144100000Y-96395238D01*
X144052380Y-96252380D01*
X144052380Y-96157142D01*
X144100000Y-96014285D01*
X144147619Y-95966666D01*
X144052380Y-95109523D02*
X144052380Y-95300000D01*
X144100000Y-95395238D01*
X144147619Y-95442857D01*
X144290476Y-95538095D01*
X144480952Y-95585714D01*
X144861904Y-95585714D01*
X144957142Y-95538095D01*
X145004761Y-95490476D01*
X145052380Y-95395238D01*
X145052380Y-95204761D01*
X145004761Y-95109523D01*
X144957142Y-95061904D01*
X144861904Y-95014285D01*
X144623809Y-95014285D01*
X144528571Y-95061904D01*
X144480952Y-95109523D01*
X144433333Y-95204761D01*
X144433333Y-95395238D01*
X144480952Y-95490476D01*
X144528571Y-95538095D01*
X144623809Y-95585714D01*
%TO.C,U3*%
X133652380Y-95986904D02*
X134461904Y-95986904D01*
X134557142Y-95939285D01*
X134604761Y-95891666D01*
X134652380Y-95796428D01*
X134652380Y-95605952D01*
X134604761Y-95510714D01*
X134557142Y-95463095D01*
X134461904Y-95415476D01*
X133652380Y-95415476D01*
X133652380Y-95034523D02*
X133652380Y-94415476D01*
X134033333Y-94748809D01*
X134033333Y-94605952D01*
X134080952Y-94510714D01*
X134128571Y-94463095D01*
X134223809Y-94415476D01*
X134461904Y-94415476D01*
X134557142Y-94463095D01*
X134604761Y-94510714D01*
X134652380Y-94605952D01*
X134652380Y-94891666D01*
X134604761Y-94986904D01*
X134557142Y-95034523D01*
%TO.C,C16*%
X136957142Y-96224285D02*
X137004761Y-96255714D01*
X137052380Y-96350000D01*
X137052380Y-96412857D01*
X137004761Y-96507142D01*
X136909523Y-96570000D01*
X136814285Y-96601428D01*
X136623809Y-96632857D01*
X136480952Y-96632857D01*
X136290476Y-96601428D01*
X136195238Y-96570000D01*
X136100000Y-96507142D01*
X136052380Y-96412857D01*
X136052380Y-96350000D01*
X136100000Y-96255714D01*
X136147619Y-96224285D01*
X137052380Y-95595714D02*
X137052380Y-95972857D01*
X137052380Y-95784285D02*
X136052380Y-95784285D01*
X136195238Y-95847142D01*
X136290476Y-95910000D01*
X136338095Y-95972857D01*
X136052380Y-95030000D02*
X136052380Y-95155714D01*
X136100000Y-95218571D01*
X136147619Y-95250000D01*
X136290476Y-95312857D01*
X136480952Y-95344285D01*
X136861904Y-95344285D01*
X136957142Y-95312857D01*
X137004761Y-95281428D01*
X137052380Y-95218571D01*
X137052380Y-95092857D01*
X137004761Y-95030000D01*
X136957142Y-94998571D01*
X136861904Y-94967142D01*
X136623809Y-94967142D01*
X136528571Y-94998571D01*
X136480952Y-95030000D01*
X136433333Y-95092857D01*
X136433333Y-95218571D01*
X136480952Y-95281428D01*
X136528571Y-95312857D01*
X136623809Y-95344285D01*
%TO.C,R3*%
X141252380Y-118766666D02*
X140776190Y-119100000D01*
X141252380Y-119338095D02*
X140252380Y-119338095D01*
X140252380Y-118957142D01*
X140300000Y-118861904D01*
X140347619Y-118814285D01*
X140442857Y-118766666D01*
X140585714Y-118766666D01*
X140680952Y-118814285D01*
X140728571Y-118861904D01*
X140776190Y-118957142D01*
X140776190Y-119338095D01*
X140252380Y-118433333D02*
X140252380Y-117814285D01*
X140633333Y-118147619D01*
X140633333Y-118004761D01*
X140680952Y-117909523D01*
X140728571Y-117861904D01*
X140823809Y-117814285D01*
X141061904Y-117814285D01*
X141157142Y-117861904D01*
X141204761Y-117909523D01*
X141252380Y-118004761D01*
X141252380Y-118290476D01*
X141204761Y-118385714D01*
X141157142Y-118433333D01*
%TO.C,C13*%
X146557142Y-96224285D02*
X146604761Y-96255714D01*
X146652380Y-96350000D01*
X146652380Y-96412857D01*
X146604761Y-96507142D01*
X146509523Y-96570000D01*
X146414285Y-96601428D01*
X146223809Y-96632857D01*
X146080952Y-96632857D01*
X145890476Y-96601428D01*
X145795238Y-96570000D01*
X145700000Y-96507142D01*
X145652380Y-96412857D01*
X145652380Y-96350000D01*
X145700000Y-96255714D01*
X145747619Y-96224285D01*
X146652380Y-95595714D02*
X146652380Y-95972857D01*
X146652380Y-95784285D02*
X145652380Y-95784285D01*
X145795238Y-95847142D01*
X145890476Y-95910000D01*
X145938095Y-95972857D01*
X145652380Y-95375714D02*
X145652380Y-94967142D01*
X146033333Y-95187142D01*
X146033333Y-95092857D01*
X146080952Y-95030000D01*
X146128571Y-94998571D01*
X146223809Y-94967142D01*
X146461904Y-94967142D01*
X146557142Y-94998571D01*
X146604761Y-95030000D01*
X146652380Y-95092857D01*
X146652380Y-95281428D01*
X146604761Y-95344285D01*
X146557142Y-95375714D01*
%TO.C,C2*%
X142557142Y-93166666D02*
X142604761Y-93214285D01*
X142652380Y-93357142D01*
X142652380Y-93452380D01*
X142604761Y-93595238D01*
X142509523Y-93690476D01*
X142414285Y-93738095D01*
X142223809Y-93785714D01*
X142080952Y-93785714D01*
X141890476Y-93738095D01*
X141795238Y-93690476D01*
X141700000Y-93595238D01*
X141652380Y-93452380D01*
X141652380Y-93357142D01*
X141700000Y-93214285D01*
X141747619Y-93166666D01*
X141747619Y-92785714D02*
X141700000Y-92738095D01*
X141652380Y-92642857D01*
X141652380Y-92404761D01*
X141700000Y-92309523D01*
X141747619Y-92261904D01*
X141842857Y-92214285D01*
X141938095Y-92214285D01*
X142080952Y-92261904D01*
X142652380Y-92833333D01*
X142652380Y-92214285D01*
%TO.C,C5*%
X142757142Y-118766666D02*
X142804761Y-118814285D01*
X142852380Y-118957142D01*
X142852380Y-119052380D01*
X142804761Y-119195238D01*
X142709523Y-119290476D01*
X142614285Y-119338095D01*
X142423809Y-119385714D01*
X142280952Y-119385714D01*
X142090476Y-119338095D01*
X141995238Y-119290476D01*
X141900000Y-119195238D01*
X141852380Y-119052380D01*
X141852380Y-118957142D01*
X141900000Y-118814285D01*
X141947619Y-118766666D01*
X141852380Y-117861904D02*
X141852380Y-118338095D01*
X142328571Y-118385714D01*
X142280952Y-118338095D01*
X142233333Y-118242857D01*
X142233333Y-118004761D01*
X142280952Y-117909523D01*
X142328571Y-117861904D01*
X142423809Y-117814285D01*
X142661904Y-117814285D01*
X142757142Y-117861904D01*
X142804761Y-117909523D01*
X142852380Y-118004761D01*
X142852380Y-118242857D01*
X142804761Y-118338095D01*
X142757142Y-118385714D01*
%TO.C,J1*%
X141252380Y-80733333D02*
X141966666Y-80733333D01*
X142109523Y-80780952D01*
X142204761Y-80876190D01*
X142252380Y-81019047D01*
X142252380Y-81114285D01*
X142252380Y-79733333D02*
X142252380Y-80304761D01*
X142252380Y-80019047D02*
X141252380Y-80019047D01*
X141395238Y-80114285D01*
X141490476Y-80209523D01*
X141538095Y-80304761D01*
%TO.C,J2*%
X138452380Y-82133333D02*
X139166666Y-82133333D01*
X139309523Y-82180952D01*
X139404761Y-82276190D01*
X139452380Y-82419047D01*
X139452380Y-82514285D01*
X138547619Y-81704761D02*
X138500000Y-81657142D01*
X138452380Y-81561904D01*
X138452380Y-81323809D01*
X138500000Y-81228571D01*
X138547619Y-81180952D01*
X138642857Y-81133333D01*
X138738095Y-81133333D01*
X138880952Y-81180952D01*
X139452380Y-81752380D01*
X139452380Y-81133333D01*
%TO.C,C8*%
X132957142Y-100366666D02*
X133004761Y-100414285D01*
X133052380Y-100557142D01*
X133052380Y-100652380D01*
X133004761Y-100795238D01*
X132909523Y-100890476D01*
X132814285Y-100938095D01*
X132623809Y-100985714D01*
X132480952Y-100985714D01*
X132290476Y-100938095D01*
X132195238Y-100890476D01*
X132100000Y-100795238D01*
X132052380Y-100652380D01*
X132052380Y-100557142D01*
X132100000Y-100414285D01*
X132147619Y-100366666D01*
X132480952Y-99795238D02*
X132433333Y-99890476D01*
X132385714Y-99938095D01*
X132290476Y-99985714D01*
X132242857Y-99985714D01*
X132147619Y-99938095D01*
X132100000Y-99890476D01*
X132052380Y-99795238D01*
X132052380Y-99604761D01*
X132100000Y-99509523D01*
X132147619Y-99461904D01*
X132242857Y-99414285D01*
X132290476Y-99414285D01*
X132385714Y-99461904D01*
X132433333Y-99509523D01*
X132480952Y-99604761D01*
X132480952Y-99795238D01*
X132528571Y-99890476D01*
X132576190Y-99938095D01*
X132671428Y-99985714D01*
X132861904Y-99985714D01*
X132957142Y-99938095D01*
X133004761Y-99890476D01*
X133052380Y-99795238D01*
X133052380Y-99604761D01*
X133004761Y-99509523D01*
X132957142Y-99461904D01*
X132861904Y-99414285D01*
X132671428Y-99414285D01*
X132576190Y-99461904D01*
X132528571Y-99509523D01*
X132480952Y-99604761D01*
%TO.C,C17*%
X138957142Y-87449285D02*
X139004761Y-87480714D01*
X139052380Y-87575000D01*
X139052380Y-87637857D01*
X139004761Y-87732142D01*
X138909523Y-87795000D01*
X138814285Y-87826428D01*
X138623809Y-87857857D01*
X138480952Y-87857857D01*
X138290476Y-87826428D01*
X138195238Y-87795000D01*
X138100000Y-87732142D01*
X138052380Y-87637857D01*
X138052380Y-87575000D01*
X138100000Y-87480714D01*
X138147619Y-87449285D01*
X139052380Y-86820714D02*
X139052380Y-87197857D01*
X139052380Y-87009285D02*
X138052380Y-87009285D01*
X138195238Y-87072142D01*
X138290476Y-87135000D01*
X138338095Y-87197857D01*
X138052380Y-86600714D02*
X138052380Y-86160714D01*
X139052380Y-86443571D01*
%TO.C,R6*%
X148652380Y-118766666D02*
X148176190Y-119100000D01*
X148652380Y-119338095D02*
X147652380Y-119338095D01*
X147652380Y-118957142D01*
X147700000Y-118861904D01*
X147747619Y-118814285D01*
X147842857Y-118766666D01*
X147985714Y-118766666D01*
X148080952Y-118814285D01*
X148128571Y-118861904D01*
X148176190Y-118957142D01*
X148176190Y-119338095D01*
X147652380Y-117909523D02*
X147652380Y-118100000D01*
X147700000Y-118195238D01*
X147747619Y-118242857D01*
X147890476Y-118338095D01*
X148080952Y-118385714D01*
X148461904Y-118385714D01*
X148557142Y-118338095D01*
X148604761Y-118290476D01*
X148652380Y-118195238D01*
X148652380Y-118004761D01*
X148604761Y-117909523D01*
X148557142Y-117861904D01*
X148461904Y-117814285D01*
X148223809Y-117814285D01*
X148128571Y-117861904D01*
X148080952Y-117909523D01*
X148033333Y-118004761D01*
X148033333Y-118195238D01*
X148080952Y-118290476D01*
X148128571Y-118338095D01*
X148223809Y-118385714D01*
%TO.C,R4*%
X135052380Y-87166666D02*
X134576190Y-87500000D01*
X135052380Y-87738095D02*
X134052380Y-87738095D01*
X134052380Y-87357142D01*
X134100000Y-87261904D01*
X134147619Y-87214285D01*
X134242857Y-87166666D01*
X134385714Y-87166666D01*
X134480952Y-87214285D01*
X134528571Y-87261904D01*
X134576190Y-87357142D01*
X134576190Y-87738095D01*
X134385714Y-86309523D02*
X135052380Y-86309523D01*
X134004761Y-86547619D02*
X134719047Y-86785714D01*
X134719047Y-86166666D01*
D12*
%TO.C,R2*%
X141922500Y-98437258D02*
X141922500Y-97962742D01*
X140877500Y-98437258D02*
X140877500Y-97962742D01*
%TO.C,U2*%
X136440000Y-110410000D02*
X135790000Y-110410000D01*
X142360000Y-110410000D02*
X143010000Y-110410000D01*
X136440000Y-103190000D02*
X135790000Y-103190000D01*
X143010000Y-110410000D02*
X143010000Y-109760000D01*
X135790000Y-110410000D02*
X135790000Y-109760000D01*
X143010000Y-103190000D02*
X143010000Y-103840000D01*
X142360000Y-103190000D02*
X143010000Y-103190000D01*
%TO.C,C10*%
X143490000Y-116059420D02*
X143490000Y-116340580D01*
X144510000Y-116059420D02*
X144510000Y-116340580D01*
%TO.C,C9*%
X133110000Y-109259420D02*
X133110000Y-109540580D01*
X132090000Y-109259420D02*
X132090000Y-109540580D01*
%TO.C,C11*%
X146710000Y-108459420D02*
X146710000Y-108740580D01*
X145690000Y-108459420D02*
X145690000Y-108740580D01*
%TO.C,R1*%
X139277500Y-98437258D02*
X139277500Y-97962742D01*
X140322500Y-98437258D02*
X140322500Y-97962742D01*
%TO.C,U1*%
X144800000Y-91360000D02*
X146600000Y-91360000D01*
X144800000Y-91360000D02*
X144000000Y-91360000D01*
X144800000Y-88240000D02*
X145600000Y-88240000D01*
X144800000Y-88240000D02*
X144000000Y-88240000D01*
%TO.C,C4*%
X136110000Y-116340580D02*
X136110000Y-116059420D01*
X135090000Y-116340580D02*
X135090000Y-116059420D01*
%TO.C,DS1*%
X142400000Y-87950000D02*
X142400000Y-84050000D01*
X144400000Y-87950000D02*
X144400000Y-84050000D01*
X142400000Y-87950000D02*
X144400000Y-87950000D01*
%TO.C,C15*%
X146110000Y-116059420D02*
X146110000Y-116340580D01*
X145090000Y-116059420D02*
X145090000Y-116340580D01*
%TO.C,R31*%
X136522500Y-83337742D02*
X136522500Y-83812258D01*
X135477500Y-83337742D02*
X135477500Y-83812258D01*
%TO.C,C3*%
X132090000Y-116059420D02*
X132090000Y-116340580D01*
X133110000Y-116059420D02*
X133110000Y-116340580D01*
%TO.C,Y1*%
X139950000Y-113300000D02*
X136450000Y-113300000D01*
X136450000Y-113300000D02*
X136450000Y-117500000D01*
%TO.C,R32*%
X133522500Y-83362742D02*
X133522500Y-83837258D01*
X132477500Y-83362742D02*
X132477500Y-83837258D01*
%TO.C,C12*%
X145690000Y-101259420D02*
X145690000Y-101540580D01*
X146710000Y-101259420D02*
X146710000Y-101540580D01*
%TO.C,C1*%
X146510000Y-92859420D02*
X146510000Y-93140580D01*
X145490000Y-92859420D02*
X145490000Y-93140580D01*
%TO.C,F1*%
X146710000Y-85197936D02*
X146710000Y-86402064D01*
X144890000Y-85197936D02*
X144890000Y-86402064D01*
%TO.C,C7*%
X143510000Y-98340580D02*
X143510000Y-98059420D01*
X142490000Y-98340580D02*
X142490000Y-98059420D01*
%TO.C,C14*%
X137690000Y-98340580D02*
X137690000Y-98059420D01*
X138710000Y-98340580D02*
X138710000Y-98059420D01*
%TO.C,R5*%
X133522500Y-86762742D02*
X133522500Y-87237258D01*
X132477500Y-86762742D02*
X132477500Y-87237258D01*
%TO.C,C6*%
X145110000Y-98340580D02*
X145110000Y-98059420D01*
X144090000Y-98340580D02*
X144090000Y-98059420D01*
%TO.C,U3*%
X136400000Y-94150000D02*
X139125000Y-94150000D01*
X136400000Y-94150000D02*
X133675000Y-94150000D01*
X139125000Y-94150000D02*
X139125000Y-93890000D01*
X136400000Y-88700000D02*
X139125000Y-88700000D01*
X133675000Y-88960000D02*
X132000000Y-88960000D01*
X133675000Y-88700000D02*
X133675000Y-88960000D01*
X139125000Y-88700000D02*
X139125000Y-88960000D01*
X136400000Y-88700000D02*
X133675000Y-88700000D01*
X133675000Y-94150000D02*
X133675000Y-93890000D01*
%TO.C,C16*%
X136090000Y-98340580D02*
X136090000Y-98059420D01*
X137110000Y-98340580D02*
X137110000Y-98059420D01*
%TO.C,R3*%
X140277500Y-116437258D02*
X140277500Y-115962742D01*
X141322500Y-116437258D02*
X141322500Y-115962742D01*
%TO.C,C13*%
X145690000Y-98340580D02*
X145690000Y-98059420D01*
X146710000Y-98340580D02*
X146710000Y-98059420D01*
%TO.C,C2*%
X142890000Y-92859420D02*
X142890000Y-93140580D01*
X143910000Y-92859420D02*
X143910000Y-93140580D01*
%TO.C,C5*%
X142910000Y-116059420D02*
X142910000Y-116340580D01*
X141890000Y-116059420D02*
X141890000Y-116340580D01*
%TO.C,J1*%
X145925000Y-79465000D02*
X146325000Y-79915000D01*
X148775000Y-76665000D02*
X148475000Y-76665000D01*
X148775000Y-76665000D02*
X148775000Y-78215000D01*
X146325000Y-79915000D02*
X145525000Y-79915000D01*
X140475000Y-76665000D02*
X140475000Y-78215000D01*
X140775000Y-73865000D02*
X140775000Y-76665000D01*
X140775000Y-76665000D02*
X140475000Y-76665000D01*
X148475000Y-73865000D02*
X148475000Y-76665000D01*
X145525000Y-79915000D02*
X145925000Y-79465000D01*
%TO.C,J2*%
X139380000Y-78365000D02*
X139380000Y-76445000D01*
X130220000Y-76445000D02*
X130220000Y-78365000D01*
%TO.C,C8*%
X133110000Y-102740580D02*
X133110000Y-102459420D01*
X132090000Y-102740580D02*
X132090000Y-102459420D01*
%TO.C,C17*%
X140510000Y-87165580D02*
X140510000Y-86884420D01*
X139490000Y-87165580D02*
X139490000Y-86884420D01*
%TO.C,R6*%
X147677500Y-116437258D02*
X147677500Y-115962742D01*
X148722500Y-116437258D02*
X148722500Y-115962742D01*
%TO.C,R4*%
X136522500Y-87237258D02*
X136522500Y-86762742D01*
X135477500Y-87237258D02*
X135477500Y-86762742D01*
%TD*%
M02*
