%TF.GenerationSoftware,KiCad,Pcbnew,(6.0.1)*%
%TF.CreationDate,2022-02-13T21:58:50+09:00*%
%TF.ProjectId,yuiop2040,7975696f-7032-4303-9430-2e6b69636164,1*%
%TF.SameCoordinates,Original*%
%TF.FileFunction,Soldermask,Top*%
%TF.FilePolarity,Negative*%
%FSLAX46Y46*%
G04 Gerber Fmt 4.6, Leading zero omitted, Abs format (unit mm)*
G04 Created by KiCad (PCBNEW (6.0.1)) date 2022-02-13 21:58:50*
%MOMM*%
%LPD*%
G01*
G04 APERTURE LIST*
G04 Aperture macros list*
%AMRoundRect*
0 Rectangle with rounded corners*
0 $1 Rounding radius*
0 $2 $3 $4 $5 $6 $7 $8 $9 X,Y pos of 4 corners*
0 Add a 4 corners polygon primitive as box body*
4,1,4,$2,$3,$4,$5,$6,$7,$8,$9,$2,$3,0*
0 Add four circle primitives for the rounded corners*
1,1,$1+$1,$2,$3*
1,1,$1+$1,$4,$5*
1,1,$1+$1,$6,$7*
1,1,$1+$1,$8,$9*
0 Add four rect primitives between the rounded corners*
20,1,$1+$1,$2,$3,$4,$5,0*
20,1,$1+$1,$4,$5,$6,$7,0*
20,1,$1+$1,$6,$7,$8,$9,0*
20,1,$1+$1,$8,$9,$2,$3,0*%
G04 Aperture macros list end*
%ADD10RoundRect,0.200000X0.275000X-0.200000X0.275000X0.200000X-0.275000X0.200000X-0.275000X-0.200000X0*%
%ADD11RoundRect,0.050000X-0.387500X-0.050000X0.387500X-0.050000X0.387500X0.050000X-0.387500X0.050000X0*%
%ADD12RoundRect,0.050000X-0.050000X-0.387500X0.050000X-0.387500X0.050000X0.387500X-0.050000X0.387500X0*%
%ADD13RoundRect,0.144000X-1.456000X-1.456000X1.456000X-1.456000X1.456000X1.456000X-1.456000X1.456000X0*%
%ADD14C,1.700000*%
%ADD15RoundRect,0.425000X0.425000X0.425000X-0.425000X0.425000X-0.425000X-0.425000X0.425000X-0.425000X0*%
%ADD16O,1.700000X1.700000*%
%ADD17RoundRect,0.225000X-0.250000X0.225000X-0.250000X-0.225000X0.250000X-0.225000X0.250000X0.225000X0*%
%ADD18RoundRect,0.150000X0.512500X0.150000X-0.512500X0.150000X-0.512500X-0.150000X0.512500X-0.150000X0*%
%ADD19RoundRect,0.425000X0.425000X-0.425000X0.425000X0.425000X-0.425000X0.425000X-0.425000X-0.425000X0*%
%ADD20RoundRect,0.225000X0.250000X-0.225000X0.250000X0.225000X-0.250000X0.225000X-0.250000X-0.225000X0*%
%ADD21R,1.200000X0.900000*%
%ADD22RoundRect,0.200000X-0.275000X0.200000X-0.275000X-0.200000X0.275000X-0.200000X0.275000X0.200000X0*%
%ADD23R,1.200000X1.400000*%
%ADD24RoundRect,0.250000X-0.625000X0.375000X-0.625000X-0.375000X0.625000X-0.375000X0.625000X0.375000X0*%
%ADD25RoundRect,0.150000X-0.650000X-0.150000X0.650000X-0.150000X0.650000X0.150000X-0.650000X0.150000X0*%
%ADD26RoundRect,0.425000X-0.425000X-0.425000X0.425000X-0.425000X0.425000X0.425000X-0.425000X0.425000X0*%
%ADD27R,0.400000X1.650000*%
%ADD28O,1.350000X1.700000*%
%ADD29R,1.430000X2.500000*%
%ADD30R,2.000000X1.500000*%
%ADD31R,1.350000X2.000000*%
%ADD32R,1.825000X0.700000*%
%ADD33O,1.100000X1.500000*%
%ADD34C,0.650000*%
%ADD35R,0.300000X1.150000*%
%ADD36O,1.000000X1.600000*%
%ADD37O,1.000000X2.100000*%
G04 APERTURE END LIST*
D10*
%TO.C,R2*%
X141400000Y-99025000D03*
X141400000Y-97375000D03*
%TD*%
D11*
%TO.C,U2*%
X135962500Y-104200000D03*
X135962500Y-104600000D03*
X135962500Y-105000000D03*
X135962500Y-105400000D03*
X135962500Y-105800000D03*
X135962500Y-106200000D03*
X135962500Y-106600000D03*
X135962500Y-107000000D03*
X135962500Y-107400000D03*
X135962500Y-107800000D03*
X135962500Y-108200000D03*
X135962500Y-108600000D03*
X135962500Y-109000000D03*
X135962500Y-109400000D03*
D12*
X136800000Y-110237500D03*
X137200000Y-110237500D03*
X137600000Y-110237500D03*
X138000000Y-110237500D03*
X138400000Y-110237500D03*
X138800000Y-110237500D03*
X139200000Y-110237500D03*
X139600000Y-110237500D03*
X140000000Y-110237500D03*
X140400000Y-110237500D03*
X140800000Y-110237500D03*
X141200000Y-110237500D03*
X141600000Y-110237500D03*
X142000000Y-110237500D03*
D11*
X142837500Y-109400000D03*
X142837500Y-109000000D03*
X142837500Y-108600000D03*
X142837500Y-108200000D03*
X142837500Y-107800000D03*
X142837500Y-107400000D03*
X142837500Y-107000000D03*
X142837500Y-106600000D03*
X142837500Y-106200000D03*
X142837500Y-105800000D03*
X142837500Y-105400000D03*
X142837500Y-105000000D03*
X142837500Y-104600000D03*
X142837500Y-104200000D03*
D12*
X142000000Y-103362500D03*
X141600000Y-103362500D03*
X141200000Y-103362500D03*
X140800000Y-103362500D03*
X140400000Y-103362500D03*
X140000000Y-103362500D03*
X139600000Y-103362500D03*
X139200000Y-103362500D03*
X138800000Y-103362500D03*
X138400000Y-103362500D03*
X138000000Y-103362500D03*
X137600000Y-103362500D03*
X137200000Y-103362500D03*
X136800000Y-103362500D03*
D13*
X139400000Y-106800000D03*
%TD*%
D14*
%TO.C,J4*%
X152100000Y-123310000D03*
D15*
X152100000Y-120770000D03*
D14*
X152100000Y-118230000D03*
D16*
X152100000Y-115690000D03*
X152100000Y-113150000D03*
X152100000Y-110610000D03*
X152100000Y-108070000D03*
X152100000Y-105530000D03*
X152100000Y-102990000D03*
X152100000Y-100450000D03*
X152100000Y-97910000D03*
X152100000Y-95370000D03*
X152100000Y-92830000D03*
X152100000Y-90290000D03*
D14*
X152100000Y-87750000D03*
D16*
X152100000Y-85210000D03*
D14*
X152100000Y-82670000D03*
D16*
X152100000Y-80130000D03*
X152100000Y-77590000D03*
D15*
X152100000Y-75050000D03*
%TD*%
D17*
%TO.C,C10*%
X144000000Y-115425000D03*
X144000000Y-116975000D03*
%TD*%
%TO.C,C9*%
X132600000Y-108625000D03*
X132600000Y-110175000D03*
%TD*%
%TO.C,C11*%
X146200000Y-107825000D03*
X146200000Y-109375000D03*
%TD*%
D10*
%TO.C,R1*%
X139800000Y-99025000D03*
X139800000Y-97375000D03*
%TD*%
D18*
%TO.C,U1*%
X145937500Y-90750000D03*
X145937500Y-89800000D03*
X145937500Y-88850000D03*
X143662500Y-88850000D03*
X143662500Y-90750000D03*
%TD*%
D14*
%TO.C,J5*%
X136860000Y-123310000D03*
D19*
X139400000Y-123310000D03*
D16*
X141940000Y-123310000D03*
%TD*%
D20*
%TO.C,C4*%
X135600000Y-116975000D03*
X135600000Y-115425000D03*
%TD*%
D21*
%TO.C,DS1*%
X143400000Y-87350000D03*
X143400000Y-84050000D03*
%TD*%
D17*
%TO.C,C15*%
X145600000Y-115425000D03*
X145600000Y-116975000D03*
%TD*%
D22*
%TO.C,R31*%
X136000000Y-82750000D03*
X136000000Y-84400000D03*
%TD*%
D17*
%TO.C,C3*%
X132600000Y-115425000D03*
X132600000Y-116975000D03*
%TD*%
D23*
%TO.C,Y1*%
X137250000Y-114200000D03*
X137250000Y-116600000D03*
X139150000Y-116600000D03*
X139150000Y-114200000D03*
%TD*%
D22*
%TO.C,R32*%
X133000000Y-82775000D03*
X133000000Y-84425000D03*
%TD*%
D17*
%TO.C,C12*%
X146200000Y-100625000D03*
X146200000Y-102175000D03*
%TD*%
%TO.C,C1*%
X146000000Y-92225000D03*
X146000000Y-93775000D03*
%TD*%
D24*
%TO.C,F1*%
X145800000Y-84400000D03*
X145800000Y-87200000D03*
%TD*%
D20*
%TO.C,C7*%
X143000000Y-98975000D03*
X143000000Y-97425000D03*
%TD*%
%TO.C,C14*%
X138200000Y-98975000D03*
X138200000Y-97425000D03*
%TD*%
D22*
%TO.C,R5*%
X133000000Y-86175000D03*
X133000000Y-87825000D03*
%TD*%
D20*
%TO.C,C6*%
X144600000Y-98975000D03*
X144600000Y-97425000D03*
%TD*%
D25*
%TO.C,U3*%
X132800000Y-89520000D03*
X132800000Y-90790000D03*
X132800000Y-92060000D03*
X132800000Y-93330000D03*
X140000000Y-93330000D03*
X140000000Y-92060000D03*
X140000000Y-90790000D03*
X140000000Y-89520000D03*
%TD*%
D20*
%TO.C,C16*%
X136600000Y-98975000D03*
X136600000Y-97425000D03*
%TD*%
D10*
%TO.C,R3*%
X140800000Y-117025000D03*
X140800000Y-115375000D03*
%TD*%
D20*
%TO.C,C13*%
X146200000Y-98975000D03*
X146200000Y-97425000D03*
%TD*%
D14*
%TO.C,J3*%
X126700000Y-75050000D03*
D26*
X126700000Y-77590000D03*
D14*
X126700000Y-80130000D03*
D16*
X126700000Y-82670000D03*
X126700000Y-85210000D03*
X126700000Y-87750000D03*
X126700000Y-90290000D03*
X126700000Y-92830000D03*
X126700000Y-95370000D03*
X126700000Y-97910000D03*
X126700000Y-100450000D03*
X126700000Y-102990000D03*
X126700000Y-105530000D03*
X126700000Y-108070000D03*
X126700000Y-110610000D03*
X126700000Y-113150000D03*
X126700000Y-115690000D03*
X126700000Y-118230000D03*
X126700000Y-120770000D03*
X126700000Y-123310000D03*
%TD*%
D17*
%TO.C,C2*%
X143400000Y-92225000D03*
X143400000Y-93775000D03*
%TD*%
%TO.C,C5*%
X142400000Y-115425000D03*
X142400000Y-116975000D03*
%TD*%
D27*
%TO.C,J1*%
X145925000Y-78365000D03*
X145275000Y-78365000D03*
X144625000Y-78365000D03*
X143975000Y-78365000D03*
X143325000Y-78365000D03*
D28*
X141895000Y-75485000D03*
D29*
X145585000Y-75215000D03*
D30*
X141725000Y-78485000D03*
D31*
X147355000Y-76415000D03*
D29*
X143665000Y-75215000D03*
D30*
X147475000Y-78465000D03*
D31*
X141875000Y-76415000D03*
D32*
X141625000Y-77165000D03*
D33*
X142205000Y-78485000D03*
D32*
X147575000Y-77165000D03*
D33*
X147045000Y-78485000D03*
D28*
X147355000Y-75485000D03*
%TD*%
D34*
%TO.C,J2*%
X137690000Y-79120000D03*
X131910000Y-79120000D03*
D35*
X138150000Y-80185000D03*
X137350000Y-80185000D03*
X136050000Y-80185000D03*
X135050000Y-80185000D03*
X134550000Y-80185000D03*
X133550000Y-80185000D03*
X132250000Y-80185000D03*
X131450000Y-80185000D03*
X131750000Y-80185000D03*
X132550000Y-80185000D03*
X133050000Y-80185000D03*
X134050000Y-80185000D03*
X135550000Y-80185000D03*
X136550000Y-80185000D03*
X137050000Y-80185000D03*
X137850000Y-80185000D03*
D36*
X130480000Y-75440000D03*
X139120000Y-75440000D03*
D37*
X139120000Y-79620000D03*
X130480000Y-79620000D03*
%TD*%
D20*
%TO.C,C8*%
X132600000Y-103375000D03*
X132600000Y-101825000D03*
%TD*%
%TO.C,C17*%
X140000000Y-87800000D03*
X140000000Y-86250000D03*
%TD*%
D10*
%TO.C,R6*%
X148200000Y-117025000D03*
X148200000Y-115375000D03*
%TD*%
%TO.C,R4*%
X136000000Y-87825000D03*
X136000000Y-86175000D03*
%TD*%
M02*
