M48
; DRILL file {KiCad (6.0.1)} date Sun Feb 13 21:59:19 2022
; FORMAT={-:-/ absolute / metric / decimal}
; #@! TF.CreationDate,2022-02-13T21:59:19+09:00
; #@! TF.GenerationSoftware,Kicad,Pcbnew,(6.0.1)
; #@! TF.FileFunction,MixedPlating,1,2
FMAT,2
METRIC
; #@! TA.AperFunction,Plated,PTH,ViaDrill
T1C0.300
; #@! TA.AperFunction,Plated,PTH,ComponentDrill
T2C0.350
; #@! TA.AperFunction,Plated,PTH,ViaDrill
T3C0.400
; #@! TA.AperFunction,Plated,PTH,ComponentDrill
T4C0.600
; #@! TA.AperFunction,Plated,PTH,ComponentDrill
T5C0.650
; #@! TA.AperFunction,Plated,PTH,ComponentDrill
T6C0.700
; #@! TA.AperFunction,Plated,PTH,ComponentDrill
T7C1.000
; #@! TA.AperFunction,NonPlated,NPTH,ComponentDrill
T8C0.650
%
G90
G05
T1
X131.2Y-109.4
X132.6Y-101.8
X132.6Y-103.375
X132.6Y-108.625
X132.6Y-115.4
X138.206Y-98.994
X139.8Y-97.375
X140.5Y-79.9
X141.4Y-97.375
X142.1Y-83.2
X144.0Y-115.425
X145.2Y-76.965
X145.6Y-89.8
X146.2Y-97.4
X146.2Y-100.6
X146.2Y-107.825
X147.6Y-108.6
T2
X138.125Y-105.525
X138.125Y-106.8
X138.125Y-108.075
X139.4Y-105.525
X139.4Y-106.8
X139.4Y-108.075
X140.675Y-105.525
X140.675Y-106.8
X140.675Y-108.075
T3
X132.3Y-81.7
X138.3Y-82.6
X138.4Y-84.4
X143.6Y-80.6
X145.9Y-82.9
T7
X126.7Y-75.05
X126.7Y-77.59
X126.7Y-80.13
X126.7Y-82.67
X126.7Y-85.21
X126.7Y-87.75
X126.7Y-90.29
X126.7Y-92.83
X126.7Y-95.37
X126.7Y-97.91
X126.7Y-100.45
X126.7Y-102.99
X126.7Y-105.53
X126.7Y-108.07
X126.7Y-110.61
X126.7Y-113.15
X126.7Y-115.69
X126.7Y-118.23
X126.7Y-120.77
X126.7Y-123.31
X136.86Y-123.31
X139.4Y-123.31
X141.94Y-123.31
X152.1Y-75.05
X152.1Y-77.59
X152.1Y-80.13
X152.1Y-82.67
X152.1Y-85.21
X152.1Y-87.75
X152.1Y-90.29
X152.1Y-92.83
X152.1Y-95.37
X152.1Y-97.91
X152.1Y-100.45
X152.1Y-102.99
X152.1Y-105.53
X152.1Y-108.07
X152.1Y-110.61
X152.1Y-113.15
X152.1Y-115.69
X152.1Y-118.23
X152.1Y-120.77
X152.1Y-123.31
T8
X131.91Y-79.12
X137.69Y-79.12
T4
G00X130.48Y-75.74
M15
G01X130.48Y-75.14
M16
G05
G00X130.48Y-80.17
M15
G01X130.48Y-79.07
M16
G05
G00X139.12Y-75.74
M15
G01X139.12Y-75.14
M16
G05
G00X139.12Y-80.17
M15
G01X139.12Y-79.07
M16
G05
T5
G00X142.205Y-78.285
M15
G01X142.205Y-78.685
M16
G05
G00X147.045Y-78.285
M15
G01X147.045Y-78.685
M16
G05
T6
G00X141.895Y-75.235
M15
G01X141.895Y-75.735
M16
G05
G00X147.355Y-75.235
M15
G01X147.355Y-75.735
M16
G05
T0
M30
