%TF.GenerationSoftware,KiCad,Pcbnew,(6.0.1)*%
%TF.CreationDate,2022-02-13T21:58:50+09:00*%
%TF.ProjectId,yuiop2040,7975696f-7032-4303-9430-2e6b69636164,1*%
%TF.SameCoordinates,Original*%
%TF.FileFunction,Legend,Bot*%
%TF.FilePolarity,Positive*%
%FSLAX46Y46*%
G04 Gerber Fmt 4.6, Leading zero omitted, Abs format (unit mm)*
G04 Created by KiCad (PCBNEW (6.0.1)) date 2022-02-13 21:58:50*
%MOMM*%
%LPD*%
G01*
G04 APERTURE LIST*
%ADD10C,0.150000*%
%ADD11C,0.100000*%
%ADD12C,0.075000*%
G04 APERTURE END LIST*
D10*
X127970000Y-114166000D02*
X127970000Y-113785000D01*
X127589000Y-93846000D02*
X127970000Y-93846000D01*
X150830000Y-108705000D02*
X150830000Y-109086000D01*
X127970000Y-115055000D02*
X127970000Y-114674000D01*
X127970000Y-84194000D02*
X127589000Y-84194000D01*
X127970000Y-94735000D02*
X127970000Y-94354000D01*
X151211000Y-84194000D02*
X150830000Y-84194000D01*
X127970000Y-104006000D02*
X127970000Y-103625000D01*
X150830000Y-109086000D02*
X151211000Y-109086000D01*
X150830000Y-93846000D02*
X151211000Y-93846000D01*
X127970000Y-104514000D02*
X127589000Y-104514000D01*
X127970000Y-84575000D02*
X127970000Y-84194000D01*
X150830000Y-99434000D02*
X150830000Y-99815000D01*
X127970000Y-94354000D02*
X127589000Y-94354000D01*
X150830000Y-93465000D02*
X150830000Y-93846000D01*
X151211000Y-99434000D02*
X150830000Y-99434000D01*
X127970000Y-114674000D02*
X127589000Y-114674000D01*
X127589000Y-104006000D02*
X127970000Y-104006000D01*
X127970000Y-104895000D02*
X127970000Y-104514000D01*
X127970000Y-93846000D02*
X127970000Y-93465000D01*
X150830000Y-118865000D02*
X150830000Y-119246000D01*
X150830000Y-119246000D02*
X151211000Y-119246000D01*
X127589000Y-114166000D02*
X127970000Y-114166000D01*
X127589000Y-124326000D02*
X127970000Y-124326000D01*
X150830000Y-109594000D02*
X150830000Y-109975000D01*
X150830000Y-84194000D02*
X150830000Y-84575000D01*
X127970000Y-124326000D02*
X127970000Y-123945000D01*
X151211000Y-109594000D02*
X150830000Y-109594000D01*
D11*
X138352857Y-121809761D02*
X138258571Y-121857380D01*
X138101428Y-121857380D01*
X138038571Y-121809761D01*
X138007142Y-121762142D01*
X137975714Y-121666904D01*
X137975714Y-121571666D01*
X138007142Y-121476428D01*
X138038571Y-121428809D01*
X138101428Y-121381190D01*
X138227142Y-121333571D01*
X138290000Y-121285952D01*
X138321428Y-121238333D01*
X138352857Y-121143095D01*
X138352857Y-121047857D01*
X138321428Y-120952619D01*
X138290000Y-120905000D01*
X138227142Y-120857380D01*
X138070000Y-120857380D01*
X137975714Y-120905000D01*
X137755714Y-120857380D02*
X137598571Y-121857380D01*
X137472857Y-121143095D01*
X137347142Y-121857380D01*
X137190000Y-120857380D01*
X136561428Y-121762142D02*
X136592857Y-121809761D01*
X136687142Y-121857380D01*
X136750000Y-121857380D01*
X136844285Y-121809761D01*
X136907142Y-121714523D01*
X136938571Y-121619285D01*
X136970000Y-121428809D01*
X136970000Y-121285952D01*
X136938571Y-121095476D01*
X136907142Y-121000238D01*
X136844285Y-120905000D01*
X136750000Y-120857380D01*
X136687142Y-120857380D01*
X136592857Y-120905000D01*
X136561428Y-120952619D01*
X135964285Y-121857380D02*
X136278571Y-121857380D01*
X136278571Y-120857380D01*
X135744285Y-121857380D02*
X135744285Y-120857380D01*
X135367142Y-121857380D02*
X135650000Y-121285952D01*
X135367142Y-120857380D02*
X135744285Y-121428809D01*
X142835714Y-121809761D02*
X142741428Y-121857380D01*
X142584285Y-121857380D01*
X142521428Y-121809761D01*
X142490000Y-121762142D01*
X142458571Y-121666904D01*
X142458571Y-121571666D01*
X142490000Y-121476428D01*
X142521428Y-121428809D01*
X142584285Y-121381190D01*
X142710000Y-121333571D01*
X142772857Y-121285952D01*
X142804285Y-121238333D01*
X142835714Y-121143095D01*
X142835714Y-121047857D01*
X142804285Y-120952619D01*
X142772857Y-120905000D01*
X142710000Y-120857380D01*
X142552857Y-120857380D01*
X142458571Y-120905000D01*
X142238571Y-120857380D02*
X142081428Y-121857380D01*
X141955714Y-121143095D01*
X141830000Y-121857380D01*
X141672857Y-120857380D01*
X141421428Y-121857380D02*
X141421428Y-120857380D01*
X141264285Y-120857380D01*
X141170000Y-120905000D01*
X141107142Y-121000238D01*
X141075714Y-121095476D01*
X141044285Y-121285952D01*
X141044285Y-121428809D01*
X141075714Y-121619285D01*
X141107142Y-121714523D01*
X141170000Y-121809761D01*
X141264285Y-121857380D01*
X141421428Y-121857380D01*
D10*
X150361666Y-87781904D02*
X150361666Y-88258095D01*
X150647380Y-87686666D02*
X149647380Y-88020000D01*
X150647380Y-88353333D01*
X150647380Y-88686666D02*
X149647380Y-88686666D01*
X149647380Y-88924761D01*
X149695000Y-89067619D01*
X149790238Y-89162857D01*
X149885476Y-89210476D01*
X150075952Y-89258095D01*
X150218809Y-89258095D01*
X150409285Y-89210476D01*
X150504523Y-89162857D01*
X150599761Y-89067619D01*
X150647380Y-88924761D01*
X150647380Y-88686666D01*
X150552142Y-90258095D02*
X150599761Y-90210476D01*
X150647380Y-90067619D01*
X150647380Y-89972380D01*
X150599761Y-89829523D01*
X150504523Y-89734285D01*
X150409285Y-89686666D01*
X150218809Y-89639047D01*
X150075952Y-89639047D01*
X149885476Y-89686666D01*
X149790238Y-89734285D01*
X149695000Y-89829523D01*
X149647380Y-89972380D01*
X149647380Y-90067619D01*
X149695000Y-90210476D01*
X149742619Y-90258095D01*
D11*
X129422142Y-82122380D02*
X129013571Y-82122380D01*
X129233571Y-82503333D01*
X129139285Y-82503333D01*
X129076428Y-82550952D01*
X129045000Y-82598571D01*
X129013571Y-82693809D01*
X129013571Y-82931904D01*
X129045000Y-83027142D01*
X129076428Y-83074761D01*
X129139285Y-83122380D01*
X129327857Y-83122380D01*
X129390714Y-83074761D01*
X129422142Y-83027142D01*
X128825000Y-82122380D02*
X128605000Y-83122380D01*
X128385000Y-82122380D01*
X128227857Y-82122380D02*
X127819285Y-82122380D01*
X128039285Y-82503333D01*
X127945000Y-82503333D01*
X127882142Y-82550952D01*
X127850714Y-82598571D01*
X127819285Y-82693809D01*
X127819285Y-82931904D01*
X127850714Y-83027142D01*
X127882142Y-83074761D01*
X127945000Y-83122380D01*
X128133571Y-83122380D01*
X128196428Y-83074761D01*
X128227857Y-83027142D01*
D12*
X129283571Y-74978571D02*
X129212142Y-75026190D01*
X129188333Y-75073809D01*
X129164523Y-75169047D01*
X129164523Y-75311904D01*
X129188333Y-75407142D01*
X129212142Y-75454761D01*
X129259761Y-75502380D01*
X129450238Y-75502380D01*
X129450238Y-74502380D01*
X129283571Y-74502380D01*
X129235952Y-74550000D01*
X129212142Y-74597619D01*
X129188333Y-74692857D01*
X129188333Y-74788095D01*
X129212142Y-74883333D01*
X129235952Y-74930952D01*
X129283571Y-74978571D01*
X129450238Y-74978571D01*
X128855000Y-74502380D02*
X128759761Y-74502380D01*
X128712142Y-74550000D01*
X128664523Y-74645238D01*
X128640714Y-74835714D01*
X128640714Y-75169047D01*
X128664523Y-75359523D01*
X128712142Y-75454761D01*
X128759761Y-75502380D01*
X128855000Y-75502380D01*
X128902619Y-75454761D01*
X128950238Y-75359523D01*
X128974047Y-75169047D01*
X128974047Y-74835714D01*
X128950238Y-74645238D01*
X128902619Y-74550000D01*
X128855000Y-74502380D01*
X128331190Y-74502380D02*
X128235952Y-74502380D01*
X128188333Y-74550000D01*
X128140714Y-74645238D01*
X128116904Y-74835714D01*
X128116904Y-75169047D01*
X128140714Y-75359523D01*
X128188333Y-75454761D01*
X128235952Y-75502380D01*
X128331190Y-75502380D01*
X128378809Y-75454761D01*
X128426428Y-75359523D01*
X128450238Y-75169047D01*
X128450238Y-74835714D01*
X128426428Y-74645238D01*
X128378809Y-74550000D01*
X128331190Y-74502380D01*
X127974047Y-74502380D02*
X127688333Y-74502380D01*
X127831190Y-75502380D02*
X127831190Y-74502380D01*
X129462142Y-79582380D02*
X129295476Y-80582380D01*
X129128809Y-79582380D01*
X128985952Y-80534761D02*
X128914523Y-80582380D01*
X128795476Y-80582380D01*
X128747857Y-80534761D01*
X128724047Y-80487142D01*
X128700238Y-80391904D01*
X128700238Y-80296666D01*
X128724047Y-80201428D01*
X128747857Y-80153809D01*
X128795476Y-80106190D01*
X128890714Y-80058571D01*
X128938333Y-80010952D01*
X128962142Y-79963333D01*
X128985952Y-79868095D01*
X128985952Y-79772857D01*
X128962142Y-79677619D01*
X128938333Y-79630000D01*
X128890714Y-79582380D01*
X128771666Y-79582380D01*
X128700238Y-79630000D01*
X128390714Y-80106190D02*
X128390714Y-80582380D01*
X128557380Y-79582380D02*
X128390714Y-80106190D01*
X128224047Y-79582380D01*
X128081190Y-80534761D02*
X128009761Y-80582380D01*
X127890714Y-80582380D01*
X127843095Y-80534761D01*
X127819285Y-80487142D01*
X127795476Y-80391904D01*
X127795476Y-80296666D01*
X127819285Y-80201428D01*
X127843095Y-80153809D01*
X127890714Y-80106190D01*
X127985952Y-80058571D01*
X128033571Y-80010952D01*
X128057380Y-79963333D01*
X128081190Y-79868095D01*
X128081190Y-79772857D01*
X128057380Y-79677619D01*
X128033571Y-79630000D01*
X127985952Y-79582380D01*
X127866904Y-79582380D01*
X127795476Y-79630000D01*
D10*
X150945727Y-97457619D02*
X150898108Y-97410000D01*
X150802870Y-97362380D01*
X150564775Y-97362380D01*
X150469537Y-97410000D01*
X150421918Y-97457619D01*
X150374299Y-97552857D01*
X150374299Y-97648095D01*
X150421918Y-97790952D01*
X150993346Y-98362380D01*
X150374299Y-98362380D01*
X149517156Y-97695714D02*
X149517156Y-98362380D01*
X149755251Y-97314761D02*
X149993346Y-98029047D01*
X149374299Y-98029047D01*
D11*
X150556428Y-123762380D02*
X150776428Y-123286190D01*
X150933571Y-123762380D02*
X150933571Y-122762380D01*
X150682142Y-122762380D01*
X150619285Y-122810000D01*
X150587857Y-122857619D01*
X150556428Y-122952857D01*
X150556428Y-123095714D01*
X150587857Y-123190952D01*
X150619285Y-123238571D01*
X150682142Y-123286190D01*
X150933571Y-123286190D01*
X150305000Y-123714761D02*
X150210714Y-123762380D01*
X150053571Y-123762380D01*
X149990714Y-123714761D01*
X149959285Y-123667142D01*
X149927857Y-123571904D01*
X149927857Y-123476666D01*
X149959285Y-123381428D01*
X149990714Y-123333809D01*
X150053571Y-123286190D01*
X150179285Y-123238571D01*
X150242142Y-123190952D01*
X150273571Y-123143333D01*
X150305000Y-123048095D01*
X150305000Y-122952857D01*
X150273571Y-122857619D01*
X150242142Y-122810000D01*
X150179285Y-122762380D01*
X150022142Y-122762380D01*
X149927857Y-122810000D01*
X149739285Y-122762380D02*
X149362142Y-122762380D01*
X149550714Y-123762380D02*
X149550714Y-122762380D01*
D10*
X151075952Y-80582380D02*
X151075952Y-79582380D01*
X150837857Y-79582380D01*
X150695000Y-79630000D01*
X150599761Y-79725238D01*
X150552142Y-79820476D01*
X150504523Y-80010952D01*
X150504523Y-80153809D01*
X150552142Y-80344285D01*
X150599761Y-80439523D01*
X150695000Y-80534761D01*
X150837857Y-80582380D01*
X151075952Y-80582380D01*
X150075952Y-80201428D02*
X149314047Y-80201428D01*
X151075952Y-78042380D02*
X151075952Y-77042380D01*
X150837857Y-77042380D01*
X150695000Y-77090000D01*
X150599761Y-77185238D01*
X150552142Y-77280476D01*
X150504523Y-77470952D01*
X150504523Y-77613809D01*
X150552142Y-77804285D01*
X150599761Y-77899523D01*
X150695000Y-77994761D01*
X150837857Y-78042380D01*
X151075952Y-78042380D01*
X150075952Y-77661428D02*
X149314047Y-77661428D01*
X149695000Y-78042380D02*
X149695000Y-77280476D01*
X129128809Y-105236380D02*
X129033571Y-105236380D01*
X128938333Y-105284000D01*
X128890714Y-105331619D01*
X128843095Y-105426857D01*
X128795476Y-105617333D01*
X128795476Y-105855428D01*
X128843095Y-106045904D01*
X128890714Y-106141142D01*
X128938333Y-106188761D01*
X129033571Y-106236380D01*
X129128809Y-106236380D01*
X129224047Y-106188761D01*
X129271666Y-106141142D01*
X129319285Y-106045904D01*
X129366904Y-105855428D01*
X129366904Y-105617333D01*
X129319285Y-105426857D01*
X129271666Y-105331619D01*
X129224047Y-105284000D01*
X129128809Y-105236380D01*
X128224047Y-105664952D02*
X128319285Y-105617333D01*
X128366904Y-105569714D01*
X128414523Y-105474476D01*
X128414523Y-105426857D01*
X128366904Y-105331619D01*
X128319285Y-105284000D01*
X128224047Y-105236380D01*
X128033571Y-105236380D01*
X127938333Y-105284000D01*
X127890714Y-105331619D01*
X127843095Y-105426857D01*
X127843095Y-105474476D01*
X127890714Y-105569714D01*
X127938333Y-105617333D01*
X128033571Y-105664952D01*
X128224047Y-105664952D01*
X128319285Y-105712571D01*
X128366904Y-105760190D01*
X128414523Y-105855428D01*
X128414523Y-106045904D01*
X128366904Y-106141142D01*
X128319285Y-106188761D01*
X128224047Y-106236380D01*
X128033571Y-106236380D01*
X127938333Y-106188761D01*
X127890714Y-106141142D01*
X127843095Y-106045904D01*
X127843095Y-105855428D01*
X127890714Y-105760190D01*
X127938333Y-105712571D01*
X128033571Y-105664952D01*
X129128809Y-95076380D02*
X129033571Y-95076380D01*
X128938333Y-95124000D01*
X128890714Y-95171619D01*
X128843095Y-95266857D01*
X128795476Y-95457333D01*
X128795476Y-95695428D01*
X128843095Y-95885904D01*
X128890714Y-95981142D01*
X128938333Y-96028761D01*
X129033571Y-96076380D01*
X129128809Y-96076380D01*
X129224047Y-96028761D01*
X129271666Y-95981142D01*
X129319285Y-95885904D01*
X129366904Y-95695428D01*
X129366904Y-95457333D01*
X129319285Y-95266857D01*
X129271666Y-95171619D01*
X129224047Y-95124000D01*
X129128809Y-95076380D01*
X127938333Y-95409714D02*
X127938333Y-96076380D01*
X128176428Y-95028761D02*
X128414523Y-95743047D01*
X127795476Y-95743047D01*
X150385476Y-118428380D02*
X150956904Y-118428380D01*
X150671190Y-118428380D02*
X150671190Y-117428380D01*
X150766428Y-117571238D01*
X150861666Y-117666476D01*
X150956904Y-117714095D01*
X149528333Y-117428380D02*
X149718809Y-117428380D01*
X149814047Y-117476000D01*
X149861666Y-117523619D01*
X149956904Y-117666476D01*
X150004523Y-117856952D01*
X150004523Y-118237904D01*
X149956904Y-118333142D01*
X149909285Y-118380761D01*
X149814047Y-118428380D01*
X149623571Y-118428380D01*
X149528333Y-118380761D01*
X149480714Y-118333142D01*
X149433095Y-118237904D01*
X149433095Y-117999809D01*
X149480714Y-117904571D01*
X149528333Y-117856952D01*
X149623571Y-117809333D01*
X149814047Y-117809333D01*
X149909285Y-117856952D01*
X149956904Y-117904571D01*
X150004523Y-117999809D01*
X150956904Y-107363619D02*
X150909285Y-107316000D01*
X150814047Y-107268380D01*
X150575952Y-107268380D01*
X150480714Y-107316000D01*
X150433095Y-107363619D01*
X150385476Y-107458857D01*
X150385476Y-107554095D01*
X150433095Y-107696952D01*
X151004523Y-108268380D01*
X150385476Y-108268380D01*
X149766428Y-107268380D02*
X149671190Y-107268380D01*
X149575952Y-107316000D01*
X149528333Y-107363619D01*
X149480714Y-107458857D01*
X149433095Y-107649333D01*
X149433095Y-107887428D01*
X149480714Y-108077904D01*
X149528333Y-108173142D01*
X149575952Y-108220761D01*
X149671190Y-108268380D01*
X149766428Y-108268380D01*
X149861666Y-108220761D01*
X149909285Y-108173142D01*
X149956904Y-108077904D01*
X150004523Y-107887428D01*
X150004523Y-107649333D01*
X149956904Y-107458857D01*
X149909285Y-107363619D01*
X149861666Y-107316000D01*
X149766428Y-107268380D01*
X129128809Y-84916380D02*
X129033571Y-84916380D01*
X128938333Y-84964000D01*
X128890714Y-85011619D01*
X128843095Y-85106857D01*
X128795476Y-85297333D01*
X128795476Y-85535428D01*
X128843095Y-85725904D01*
X128890714Y-85821142D01*
X128938333Y-85868761D01*
X129033571Y-85916380D01*
X129128809Y-85916380D01*
X129224047Y-85868761D01*
X129271666Y-85821142D01*
X129319285Y-85725904D01*
X129366904Y-85535428D01*
X129366904Y-85297333D01*
X129319285Y-85106857D01*
X129271666Y-85011619D01*
X129224047Y-84964000D01*
X129128809Y-84916380D01*
X128176428Y-84916380D02*
X128081190Y-84916380D01*
X127985952Y-84964000D01*
X127938333Y-85011619D01*
X127890714Y-85106857D01*
X127843095Y-85297333D01*
X127843095Y-85535428D01*
X127890714Y-85725904D01*
X127938333Y-85821142D01*
X127985952Y-85868761D01*
X128081190Y-85916380D01*
X128176428Y-85916380D01*
X128271666Y-85868761D01*
X128319285Y-85821142D01*
X128366904Y-85725904D01*
X128414523Y-85535428D01*
X128414523Y-85297333D01*
X128366904Y-85106857D01*
X128319285Y-85011619D01*
X128271666Y-84964000D01*
X128176428Y-84916380D01*
X150956904Y-92123619D02*
X150909285Y-92076000D01*
X150814047Y-92028380D01*
X150575952Y-92028380D01*
X150480714Y-92076000D01*
X150433095Y-92123619D01*
X150385476Y-92218857D01*
X150385476Y-92314095D01*
X150433095Y-92456952D01*
X151004523Y-93028380D01*
X150385476Y-93028380D01*
X149528333Y-92028380D02*
X149718809Y-92028380D01*
X149814047Y-92076000D01*
X149861666Y-92123619D01*
X149956904Y-92266476D01*
X150004523Y-92456952D01*
X150004523Y-92837904D01*
X149956904Y-92933142D01*
X149909285Y-92980761D01*
X149814047Y-93028380D01*
X149623571Y-93028380D01*
X149528333Y-92980761D01*
X149480714Y-92933142D01*
X149433095Y-92837904D01*
X149433095Y-92599809D01*
X149480714Y-92504571D01*
X149528333Y-92456952D01*
X149623571Y-92409333D01*
X149814047Y-92409333D01*
X149909285Y-92456952D01*
X149956904Y-92504571D01*
X150004523Y-92599809D01*
D12*
X151111666Y-82122380D02*
X150945000Y-83122380D01*
X150778333Y-82122380D01*
X150611666Y-82122380D02*
X150611666Y-82931904D01*
X150587857Y-83027142D01*
X150564047Y-83074761D01*
X150516428Y-83122380D01*
X150421190Y-83122380D01*
X150373571Y-83074761D01*
X150349761Y-83027142D01*
X150325952Y-82931904D01*
X150325952Y-82122380D01*
X150111666Y-83074761D02*
X150040238Y-83122380D01*
X149921190Y-83122380D01*
X149873571Y-83074761D01*
X149849761Y-83027142D01*
X149825952Y-82931904D01*
X149825952Y-82836666D01*
X149849761Y-82741428D01*
X149873571Y-82693809D01*
X149921190Y-82646190D01*
X150016428Y-82598571D01*
X150064047Y-82550952D01*
X150087857Y-82503333D01*
X150111666Y-82408095D01*
X150111666Y-82312857D01*
X150087857Y-82217619D01*
X150064047Y-82170000D01*
X150016428Y-82122380D01*
X149897380Y-82122380D01*
X149825952Y-82170000D01*
X149445000Y-82598571D02*
X149373571Y-82646190D01*
X149349761Y-82693809D01*
X149325952Y-82789047D01*
X149325952Y-82931904D01*
X149349761Y-83027142D01*
X149373571Y-83074761D01*
X149421190Y-83122380D01*
X149611666Y-83122380D01*
X149611666Y-82122380D01*
X149445000Y-82122380D01*
X149397380Y-82170000D01*
X149373571Y-82217619D01*
X149349761Y-82312857D01*
X149349761Y-82408095D01*
X149373571Y-82503333D01*
X149397380Y-82550952D01*
X149445000Y-82598571D01*
X149611666Y-82598571D01*
D10*
X128795476Y-116396380D02*
X129366904Y-116396380D01*
X129081190Y-116396380D02*
X129081190Y-115396380D01*
X129176428Y-115539238D01*
X129271666Y-115634476D01*
X129366904Y-115682095D01*
X128414523Y-115491619D02*
X128366904Y-115444000D01*
X128271666Y-115396380D01*
X128033571Y-115396380D01*
X127938333Y-115444000D01*
X127890714Y-115491619D01*
X127843095Y-115586857D01*
X127843095Y-115682095D01*
X127890714Y-115824952D01*
X128462142Y-116396380D01*
X127843095Y-116396380D01*
M02*
