  0
SECTION
  2
HEADER
  9
$ANGBASE
  50
0.0
  9
$ANGDIR
  70
1
  9
$MEASUREMENT
  70
1
  0
ENDSEC
  0
SECTION
  2
TABLES
  0
TABLE
  2
LTYPE
  70
4
  0
LTYPE
  5
40F
  2
CONTINUOUS
  70
0
  3
Solid line
  72
65
  73
0
  40
0.0
  0
LTYPE
  5
410
  2
DASHDOT
 70
0
  3
Dash Dot ____ _ ____ _
 72
65
 73
4
 40
2.0
 49
1.25
 49
-0.25
 49
0.25
 49
-0.25
  0
LTYPE
  5
411
  2
DASHED
 70
0
  3
Dashed __ __ __ __ __
 72
65
 73
2
 40
0.75
 49
0.5
 49
-0.25
  0
LTYPE
  5
43B
  2
DOTTED
 70
0
  3
Dotted .  .  .  .
 72
65
 73
2
 40
0.2
 49
0.0
 49
-0.2
  0
ENDTAB
  0
TABLE
  2
STYLE
  70
4
  0
STYLE
  2
KICAD
  70
0
  40
0
  41
1
  42
1
  50
0
  71
0
  3
isocp.shx
  0
STYLE
  2
KICADB
  70
0
  40
0
  41
1
  42
1
  50
0
  71
0
  3
isocp.shx
  0
STYLE
  2
KICADI
  70
0
  40
0
  41
1
  42
1
  50
15
  71
0
  3
isocp.shx
  0
STYLE
  2
KICADBI
  70
0
  40
0
  41
1
  42
1
  50
15
  71
0
  3
isocp.shx
  0
ENDTAB
  0
TABLE
  2
LAYER
  70
1
  0
LAYER
  2
BLACK
  70
0
  62
7
  6
CONTINUOUS
  0
ENDTAB
  0
ENDSEC
  0
SECTION
  2
ENTITIES
0
ARC
8
BLACK
10
165.572
20
-196.3
40
0.999999
50
-5.72958e-05
51
90.0001
0
ARC
8
BLACK
10
357.472
20
-113.4
40
2
50
-2.86479e-05
51
90
0
LINE
8
BLACK
6
CONTINUOUS
10
355.472
20
-103.3
11
355.472
21
-110.4
0
ARC
8
BLACK
10
239.572
20
-197.3
40
2
50
-180
51
-90
0
ARC
8
BLACK
10
356.472
20
-110.4
40
0.999999
50
-180
51
-89.9999
0
LINE
8
BLACK
6
CONTINUOUS
10
168.572
20
-95.3
11
185.372
21
-95.3
0
ARC
8
BLACK
10
259.372
20
-196.3
40
0.999999
50
-270
51
-180
0
LINE
8
BLACK
6
CONTINUOUS
10
258.372
20
-97.3
11
258.372
21
-98.3
0
ARC
8
BLACK
10
316.372
20
-196.3
40
0.999999
50
-270
51
-180
0
LINE
8
BLACK
6
CONTINUOUS
10
357.472
20
-183.2
11
356.472
21
-183.2
0
LINE
8
BLACK
6
CONTINUOUS
10
355.472
20
-133.2
11
355.472
21
-161.4
0
LINE
8
BLACK
6
CONTINUOUS
10
357.472
20
-132.2
11
356.472
21
-132.2
0
LINE
8
BLACK
6
CONTINUOUS
10
313.372
20
-199.3
11
296.572
21
-199.3
0
LINE
8
BLACK
6
CONTINUOUS
10
65.4716
20
-130.2
11
65.4716
21
-113.4
0
ARC
8
BLACK
10
128.372
20
-97.3
40
2
50
-2.86479e-05
51
90
0
ARC
8
BLACK
10
316.372
20
-98.3
40
0.999999
50
-180
51
-89.9999
0
ARC
8
BLACK
10
73.4716
20
-191.3
40
4
50
-180
51
-90
0
LINE
8
BLACK
6
CONTINUOUS
10
67.4716
20
-111.4
11
68.4716
21
-111.4
0
ARC
8
BLACK
10
313.372
20
-197.3
40
2
50
-90
51
2.86479e-05
0
LINE
8
BLACK
6
CONTINUOUS
10
356.472
20
-111.4
11
357.472
21
-111.4
0
LINE
8
BLACK
6
CONTINUOUS
10
351.472
20
-195.3
11
316.372
21
-195.3
0
ARC
8
BLACK
10
256.372
20
-97.3
40
2
50
-2.86479e-05
51
90
0
LINE
8
BLACK
6
CONTINUOUS
10
111.572
20
-95.3
11
128.372
21
-95.3
0
LINE
8
BLACK
6
CONTINUOUS
10
185.372
20
-199.3
11
168.572
21
-199.3
0
ARC
8
BLACK
10
111.572
20
-197.3
40
2
50
-180
51
-90
0
ARC
8
BLACK
10
168.572
20
-97.3
40
2
50
-270
51
-180
0
ARC
8
BLACK
10
357.472
20
-164.4
40
2
50
-2.86479e-05
51
90
0
ARC
8
BLACK
10
351.472
20
-103.3
40
4
50
-0
51
90
0
ARC
8
BLACK
10
356.472
20
-161.4
40
0.999999
50
-180
51
-89.9999
0
ARC
8
BLACK
10
131.372
20
-98.3
40
0.999999
50
-180
51
-89.9999
0
LINE
8
BLACK
6
CONTINUOUS
10
69.4716
20
-133.2
11
69.4716
21
-161.4
0
LINE
8
BLACK
6
CONTINUOUS
10
68.4716
20
-183.2
11
67.4716
21
-183.2
0
ARC
8
BLACK
10
357.472
20
-181.2
40
2
50
-90
51
2.86479e-05
0
ARC
8
BLACK
10
73.4716
20
-103.3
40
4
50
90
51
180
0
LINE
8
BLACK
6
CONTINUOUS
10
294.572
20
-197.3
11
294.572
21
-196.3
0
ARC
8
BLACK
10
68.4716
20
-133.2
40
0.999999
50
-5.72958e-05
51
90.0001
0
LINE
8
BLACK
6
CONTINUOUS
10
128.372
20
-199.3
11
111.572
21
-199.3
0
ARC
8
BLACK
10
131.372
20
-196.3
40
0.999999
50
-270
51
-180
0
LINE
8
BLACK
6
CONTINUOUS
10
315.372
20
-97.3
11
315.372
21
-98.3
0
LINE
8
BLACK
6
CONTINUOUS
10
108.572
20
-99.3
11
73.4716
21
-99.3
0
LINE
8
BLACK
6
CONTINUOUS
10
187.372
20
-97.3
11
187.372
21
-98.3
0
LINE
8
BLACK
6
CONTINUOUS
10
296.572
20
-95.3
11
313.372
21
-95.3
0
ARC
8
BLACK
10
239.572
20
-97.3
40
2
50
-270
51
-180
0
ARC
8
BLACK
10
356.472
20
-133.2
40
0.999999
50
-270
51
-180
0
LINE
8
BLACK
6
CONTINUOUS
10
187.372
20
-196.3
11
187.372
21
-197.3
0
LINE
8
BLACK
6
CONTINUOUS
10
316.372
20
-99.3
11
351.472
21
-99.3
0
ARC
8
BLACK
10
185.372
20
-97.3
40
2
50
-2.86479e-05
51
90
0
ARC
8
BLACK
10
357.472
20
-130.2
40
2
50
-90
51
2.86479e-05
0
LINE
8
BLACK
6
CONTINUOUS
10
237.572
20
-197.3
11
237.572
21
-196.3
0
LINE
8
BLACK
6
CONTINUOUS
10
69.4716
20
-191.3
11
69.4716
21
-184.2
0
LINE
8
BLACK
6
CONTINUOUS
10
293.572
20
-195.3
11
259.372
21
-195.3
0
LINE
8
BLACK
6
CONTINUOUS
10
258.372
20
-196.3
11
258.372
21
-197.3
0
LINE
8
BLACK
6
CONTINUOUS
10
69.4716
20
-103.3
11
69.4716
21
-110.4
0
LINE
8
BLACK
6
CONTINUOUS
10
359.472
20
-113.4
11
359.472
21
-130.2
0
ARC
8
BLACK
10
293.572
20
-98.3
40
0.999999
50
-90.0001
51
5.72958e-05
0
LINE
8
BLACK
6
CONTINUOUS
10
188.372
20
-195.3
11
236.572
21
-195.3
0
ARC
8
BLACK
10
68.4716
20
-110.4
40
0.999999
50
-90.0001
51
5.72958e-05
0
LINE
8
BLACK
6
CONTINUOUS
10
131.372
20
-99.3
11
165.572
21
-99.3
0
LINE
8
BLACK
6
CONTINUOUS
10
356.472
20
-162.4
11
357.472
21
-162.4
0
LINE
8
BLACK
6
CONTINUOUS
10
315.372
20
-196.3
11
315.372
21
-197.3
0
ARC
8
BLACK
10
128.372
20
-197.3
40
2
50
-90
51
2.86479e-05
0
ARC
8
BLACK
10
111.572
20
-97.3
40
1.99999
50
-270
51
-180
0
LINE
8
BLACK
6
CONTINUOUS
10
294.572
20
-98.3
11
294.572
21
-97.3
0
ARC
8
BLACK
10
165.572
20
-98.3
40
0.999999
50
-90.0001
51
5.72958e-05
0
ARC
8
BLACK
10
296.572
20
-197.3
40
2
50
-180
51
-90
0
LINE
8
BLACK
6
CONTINUOUS
10
65.4716
20
-181.2
11
65.4716
21
-164.4
0
LINE
8
BLACK
6
CONTINUOUS
10
259.372
20
-99.3
11
293.572
21
-99.3
0
LINE
8
BLACK
6
CONTINUOUS
10
67.4716
20
-162.4
11
68.4716
21
-162.4
0
ARC
8
BLACK
10
236.572
20
-196.3
40
0.999999
50
-5.72958e-05
51
90.0001
0
LINE
8
BLACK
6
CONTINUOUS
10
355.472
20
-184.2
11
355.472
21
-191.3
0
ARC
8
BLACK
10
67.4716
20
-113.4
40
2
50
-270
51
-180
0
LINE
8
BLACK
6
CONTINUOUS
10
68.4716
20
-132.2
11
67.4716
21
-132.2
0
ARC
8
BLACK
10
351.472
20
-191.3
40
4
50
-90
51
-0
0
ARC
8
BLACK
10
68.4716
20
-161.4
40
0.999999
50
-90.0001
51
5.72958e-05
0
ARC
8
BLACK
10
296.572
20
-97.3
40
2
50
-270
51
-180
0
ARC
8
BLACK
10
256.372
20
-197.3
40
2
50
-90
51
2.86479e-05
0
ARC
8
BLACK
10
185.372
20
-197.3
40
2
50
-90
51
2.86479e-05
0
ARC
8
BLACK
10
108.572
20
-98.3
40
0.999999
50
-90.0001
51
5.72958e-05
0
ARC
8
BLACK
10
68.4716
20
-184.2
40
0.999999
50
-5.72958e-05
51
90.0001
0
LINE
8
BLACK
6
CONTINUOUS
10
359.472
20
-164.4
11
359.472
21
-181.2
0
LINE
8
BLACK
6
CONTINUOUS
10
131.372
20
-195.3
11
165.572
21
-195.3
0
LINE
8
BLACK
6
CONTINUOUS
10
166.572
20
-197.3
11
166.572
21
-196.3
0
ARC
8
BLACK
10
313.372
20
-97.3
40
2
50
-2.86479e-05
51
90
0
ARC
8
BLACK
10
259.372
20
-98.3
40
0.999999
50
-180
51
-89.9999
0
ARC
8
BLACK
10
108.572
20
-196.3
40
0.999999
50
-5.72958e-05
51
90.0001
0
LINE
8
BLACK
6
CONTINUOUS
10
130.372
20
-97.3
11
130.372
21
-98.3
0
ARC
8
BLACK
10
293.572
20
-196.3
40
0.999999
50
-5.72958e-05
51
90.0001
0
ARC
8
BLACK
10
67.4716
20
-164.4
40
2
50
-270
51
-180
0
ARC
8
BLACK
10
67.4716
20
-130.2
40
2
50
-180
51
-90
0
LINE
8
BLACK
6
CONTINUOUS
10
166.572
20
-98.3
11
166.572
21
-97.3
0
LINE
8
BLACK
6
CONTINUOUS
10
109.572
20
-197.3
11
109.572
21
-196.3
0
LINE
8
BLACK
6
CONTINUOUS
10
188.372
20
-99.3
11
236.572
21
-99.3
0
LINE
8
BLACK
6
CONTINUOUS
10
73.4716
20
-195.3
11
108.572
21
-195.3
0
ARC
8
BLACK
10
356.472
20
-184.2
40
0.999999
50
-270
51
-180
0
ARC
8
BLACK
10
168.572
20
-197.3
40
2
50
-180
51
-90
0
ARC
8
BLACK
10
67.4716
20
-181.2
40
2
50
-180
51
-90
0
LINE
8
BLACK
6
CONTINUOUS
10
130.372
20
-196.3
11
130.372
21
-197.3
0
LINE
8
BLACK
6
CONTINUOUS
10
239.572
20
-95.3
11
256.372
21
-95.3
0
LINE
8
BLACK
6
CONTINUOUS
10
109.572
20
-98.3
11
109.572
21
-97.3
0
LINE
8
BLACK
6
CONTINUOUS
10
237.572
20
-98.3
11
237.572
21
-97.3
0
ARC
8
BLACK
10
188.372
20
-98.3
40
0.999999
50
-180
51
-89.9999
0
ARC
8
BLACK
10
188.372
20
-196.3
40
0.999999
50
-270
51
-180
0
ARC
8
BLACK
10
236.572
20
-98.3
40
0.999999
50
-90.0001
51
5.72958e-05
0
LINE
8
BLACK
6
CONTINUOUS
10
256.372
20
-199.3
11
239.572
21
-199.3
0
CIRCLE
8
BLACK
10
222.025
20
-113.4
40
1.07703
0
CIRCLE
8
BLACK
10
110
20
-170.3
40
1.07703
0
CIRCLE
8
BLACK
10
323.111
20
-185.441
40
0.75
0
CIRCLE
8
BLACK
10
331.677
20
-185.441
40
0.75
0
CIRCLE
8
BLACK
10
207.738
20
-170.3
40
1.07703
0
CIRCLE
8
BLACK
10
126.775
20
-113.4
40
1.07703
0
CIRCLE
8
BLACK
10
317.275
20
-113.4
40
1.07703
0
CIRCLE
8
BLACK
10
332.65
20
-170.3
40
1.07703
0
CIRCLE
8
BLACK
10
340.243
20
-185.441
40
0.75
0
LINE
8
BLACK
6
CONTINUOUS
10
72.1396
20
-116.22
11
86.1604
21
-116.22
0
LINE
8
BLACK
6
CONTINUOUS
10
86.1604
20
-102.199
11
72.1396
21
-102.199
0
LINE
8
BLACK
6
CONTINUOUS
10
86.1604
20
-116.22
11
86.1604
21
-102.199
0
LINE
8
BLACK
6
CONTINUOUS
10
72.1396
20
-102.199
11
72.1396
21
-116.22
0
LINE
8
BLACK
6
CONTINUOUS
10
91.1896
20
-116.22
11
105.21
21
-116.22
0
LINE
8
BLACK
6
CONTINUOUS
10
105.21
20
-116.22
11
105.21
21
-102.199
0
LINE
8
BLACK
6
CONTINUOUS
10
91.1896
20
-102.199
11
91.1896
21
-116.22
0
LINE
8
BLACK
6
CONTINUOUS
10
105.21
20
-102.199
11
91.1896
21
-102.199
0
LINE
8
BLACK
6
CONTINUOUS
10
110.24
20
-102.199
11
110.24
21
-116.22
0
LINE
8
BLACK
6
CONTINUOUS
10
110.24
20
-116.22
11
124.26
21
-116.22
0
LINE
8
BLACK
6
CONTINUOUS
10
124.26
20
-102.199
11
110.24
21
-102.199
0
LINE
8
BLACK
6
CONTINUOUS
10
124.26
20
-116.22
11
124.26
21
-102.199
0
LINE
8
BLACK
6
CONTINUOUS
10
129.29
20
-102.199
11
129.29
21
-116.22
0
LINE
8
BLACK
6
CONTINUOUS
10
143.31
20
-102.199
11
129.29
21
-102.199
0
LINE
8
BLACK
6
CONTINUOUS
10
129.29
20
-116.22
11
143.31
21
-116.22
0
LINE
8
BLACK
6
CONTINUOUS
10
143.31
20
-116.22
11
143.31
21
-102.199
0
LINE
8
BLACK
6
CONTINUOUS
10
148.34
20
-102.199
11
148.34
21
-116.22
0
LINE
8
BLACK
6
CONTINUOUS
10
162.36
20
-102.199
11
148.34
21
-102.199
0
LINE
8
BLACK
6
CONTINUOUS
10
148.34
20
-116.22
11
162.36
21
-116.22
0
LINE
8
BLACK
6
CONTINUOUS
10
162.36
20
-116.22
11
162.36
21
-102.199
0
LINE
8
BLACK
6
CONTINUOUS
10
167.39
20
-116.22
11
181.41
21
-116.22
0
LINE
8
BLACK
6
CONTINUOUS
10
181.41
20
-102.199
11
167.39
21
-102.199
0
LINE
8
BLACK
6
CONTINUOUS
10
167.39
20
-102.199
11
167.39
21
-116.22
0
LINE
8
BLACK
6
CONTINUOUS
10
181.41
20
-116.22
11
181.41
21
-102.199
0
LINE
8
BLACK
6
CONTINUOUS
10
200.46
20
-116.22
11
200.46
21
-102.199
0
LINE
8
BLACK
6
CONTINUOUS
10
200.46
20
-102.199
11
186.44
21
-102.199
0
LINE
8
BLACK
6
CONTINUOUS
10
186.44
20
-102.199
11
186.44
21
-116.22
0
LINE
8
BLACK
6
CONTINUOUS
10
186.44
20
-116.22
11
200.46
21
-116.22
0
LINE
8
BLACK
6
CONTINUOUS
10
205.49
20
-102.199
11
205.49
21
-116.22
0
LINE
8
BLACK
6
CONTINUOUS
10
205.49
20
-116.22
11
219.51
21
-116.22
0
LINE
8
BLACK
6
CONTINUOUS
10
219.51
20
-102.199
11
205.49
21
-102.199
0
LINE
8
BLACK
6
CONTINUOUS
10
219.51
20
-116.22
11
219.51
21
-102.199
0
LINE
8
BLACK
6
CONTINUOUS
10
238.56
20
-102.199
11
224.54
21
-102.199
0
LINE
8
BLACK
6
CONTINUOUS
10
224.54
20
-116.22
11
238.56
21
-116.22
0
LINE
8
BLACK
6
CONTINUOUS
10
224.54
20
-102.199
11
224.54
21
-116.22
0
LINE
8
BLACK
6
CONTINUOUS
10
238.56
20
-116.22
11
238.56
21
-102.199
0
LINE
8
BLACK
6
CONTINUOUS
10
243.59
20
-116.22
11
257.61
21
-116.22
0
LINE
8
BLACK
6
CONTINUOUS
10
257.61
20
-102.199
11
243.59
21
-102.199
0
LINE
8
BLACK
6
CONTINUOUS
10
243.59
20
-102.199
11
243.59
21
-116.22
0
LINE
8
BLACK
6
CONTINUOUS
10
257.61
20
-116.22
11
257.61
21
-102.199
0
LINE
8
BLACK
6
CONTINUOUS
10
276.66
20
-116.22
11
276.66
21
-102.199
0
LINE
8
BLACK
6
CONTINUOUS
10
276.66
20
-102.199
11
262.64
21
-102.199
0
LINE
8
BLACK
6
CONTINUOUS
10
262.64
20
-116.22
11
276.66
21
-116.22
0
LINE
8
BLACK
6
CONTINUOUS
10
262.64
20
-102.199
11
262.64
21
-116.22
0
LINE
8
BLACK
6
CONTINUOUS
10
295.71
20
-116.22
11
295.71
21
-102.199
0
LINE
8
BLACK
6
CONTINUOUS
10
281.69
20
-116.22
11
295.71
21
-116.22
0
LINE
8
BLACK
6
CONTINUOUS
10
281.69
20
-102.199
11
281.69
21
-116.22
0
LINE
8
BLACK
6
CONTINUOUS
10
295.71
20
-102.199
11
281.69
21
-102.199
0
LINE
8
BLACK
6
CONTINUOUS
10
314.76
20
-116.22
11
314.76
21
-102.199
0
LINE
8
BLACK
6
CONTINUOUS
10
300.74
20
-102.199
11
300.74
21
-116.22
0
LINE
8
BLACK
6
CONTINUOUS
10
314.76
20
-102.199
11
300.74
21
-102.199
0
LINE
8
BLACK
6
CONTINUOUS
10
300.74
20
-116.22
11
314.76
21
-116.22
0
LINE
8
BLACK
6
CONTINUOUS
10
333.81
20
-102.199
11
319.79
21
-102.199
0
LINE
8
BLACK
6
CONTINUOUS
10
319.79
20
-116.22
11
333.81
21
-116.22
0
LINE
8
BLACK
6
CONTINUOUS
10
319.79
20
-102.199
11
319.79
21
-116.22
0
LINE
8
BLACK
6
CONTINUOUS
10
333.81
20
-116.22
11
333.81
21
-102.199
0
LINE
8
BLACK
6
CONTINUOUS
10
338.84
20
-102.199
11
338.84
21
-116.22
0
LINE
8
BLACK
6
CONTINUOUS
10
352.86
20
-116.22
11
352.86
21
-102.199
0
LINE
8
BLACK
6
CONTINUOUS
10
352.86
20
-102.199
11
338.84
21
-102.199
0
LINE
8
BLACK
6
CONTINUOUS
10
338.84
20
-116.22
11
352.86
21
-116.22
0
LINE
8
BLACK
6
CONTINUOUS
10
90.9229
20
-135.27
11
90.9229
21
-121.249
0
LINE
8
BLACK
6
CONTINUOUS
10
76.9021
20
-135.27
11
90.9229
21
-135.27
0
LINE
8
BLACK
6
CONTINUOUS
10
76.9021
20
-121.249
11
76.9021
21
-135.27
0
LINE
8
BLACK
6
CONTINUOUS
10
90.9229
20
-121.249
11
76.9021
21
-121.249
0
LINE
8
BLACK
6
CONTINUOUS
10
100.715
20
-135.27
11
114.735
21
-135.27
0
LINE
8
BLACK
6
CONTINUOUS
10
114.735
20
-135.27
11
114.735
21
-121.249
0
LINE
8
BLACK
6
CONTINUOUS
10
114.735
20
-121.249
11
100.715
21
-121.249
0
LINE
8
BLACK
6
CONTINUOUS
10
100.715
20
-121.249
11
100.715
21
-135.27
0
LINE
8
BLACK
6
CONTINUOUS
10
133.785
20
-135.27
11
133.785
21
-121.249
0
LINE
8
BLACK
6
CONTINUOUS
10
119.765
20
-121.249
11
119.765
21
-135.27
0
LINE
8
BLACK
6
CONTINUOUS
10
133.785
20
-121.249
11
119.765
21
-121.249
0
LINE
8
BLACK
6
CONTINUOUS
10
119.765
20
-135.27
11
133.785
21
-135.27
0
LINE
8
BLACK
6
CONTINUOUS
10
138.815
20
-121.249
11
138.815
21
-135.27
0
LINE
8
BLACK
6
CONTINUOUS
10
152.835
20
-121.249
11
138.815
21
-121.249
0
LINE
8
BLACK
6
CONTINUOUS
10
138.815
20
-135.27
11
152.835
21
-135.27
0
LINE
8
BLACK
6
CONTINUOUS
10
152.835
20
-135.27
11
152.835
21
-121.249
0
LINE
8
BLACK
6
CONTINUOUS
10
157.865
20
-135.27
11
171.885
21
-135.27
0
LINE
8
BLACK
6
CONTINUOUS
10
171.885
20
-121.249
11
157.865
21
-121.249
0
LINE
8
BLACK
6
CONTINUOUS
10
157.865
20
-121.249
11
157.865
21
-135.27
0
LINE
8
BLACK
6
CONTINUOUS
10
171.885
20
-135.27
11
171.885
21
-121.249
0
LINE
8
BLACK
6
CONTINUOUS
10
176.915
20
-135.27
11
190.935
21
-135.27
0
LINE
8
BLACK
6
CONTINUOUS
10
176.915
20
-121.249
11
176.915
21
-135.27
0
LINE
8
BLACK
6
CONTINUOUS
10
190.935
20
-135.27
11
190.935
21
-121.249
0
LINE
8
BLACK
6
CONTINUOUS
10
190.935
20
-121.249
11
176.915
21
-121.249
0
LINE
8
BLACK
6
CONTINUOUS
10
195.965
20
-121.249
11
195.965
21
-135.27
0
LINE
8
BLACK
6
CONTINUOUS
10
209.985
20
-135.27
11
209.985
21
-121.249
0
LINE
8
BLACK
6
CONTINUOUS
10
209.985
20
-121.249
11
195.965
21
-121.249
0
LINE
8
BLACK
6
CONTINUOUS
10
195.965
20
-135.27
11
209.985
21
-135.27
0
LINE
8
BLACK
6
CONTINUOUS
10
229.035
20
-121.249
11
215.015
21
-121.249
0
LINE
8
BLACK
6
CONTINUOUS
10
215.015
20
-121.249
11
215.015
21
-135.27
0
LINE
8
BLACK
6
CONTINUOUS
10
229.035
20
-135.27
11
229.035
21
-121.249
0
LINE
8
BLACK
6
CONTINUOUS
10
215.015
20
-135.27
11
229.035
21
-135.27
0
LINE
8
BLACK
6
CONTINUOUS
10
234.065
20
-135.27
11
248.085
21
-135.27
0
LINE
8
BLACK
6
CONTINUOUS
10
234.065
20
-121.249
11
234.065
21
-135.27
0
LINE
8
BLACK
6
CONTINUOUS
10
248.085
20
-121.249
11
234.065
21
-121.249
0
LINE
8
BLACK
6
CONTINUOUS
10
248.085
20
-135.27
11
248.085
21
-121.249
0
LINE
8
BLACK
6
CONTINUOUS
10
267.135
20
-121.249
11
253.115
21
-121.249
0
LINE
8
BLACK
6
CONTINUOUS
10
253.115
20
-135.27
11
267.135
21
-135.27
0
LINE
8
BLACK
6
CONTINUOUS
10
253.115
20
-121.249
11
253.115
21
-135.27
0
LINE
8
BLACK
6
CONTINUOUS
10
267.135
20
-135.27
11
267.135
21
-121.249
0
LINE
8
BLACK
6
CONTINUOUS
10
272.165
20
-135.27
11
286.185
21
-135.27
0
LINE
8
BLACK
6
CONTINUOUS
10
272.165
20
-121.249
11
272.165
21
-135.27
0
LINE
8
BLACK
6
CONTINUOUS
10
286.185
20
-135.27
11
286.185
21
-121.249
0
LINE
8
BLACK
6
CONTINUOUS
10
286.185
20
-121.249
11
272.165
21
-121.249
0
LINE
8
BLACK
6
CONTINUOUS
10
305.235
20
-121.249
11
291.215
21
-121.249
0
LINE
8
BLACK
6
CONTINUOUS
10
291.215
20
-121.249
11
291.215
21
-135.27
0
LINE
8
BLACK
6
CONTINUOUS
10
291.215
20
-135.27
11
305.235
21
-135.27
0
LINE
8
BLACK
6
CONTINUOUS
10
305.235
20
-135.27
11
305.235
21
-121.249
0
LINE
8
BLACK
6
CONTINUOUS
10
324.285
20
-121.249
11
310.265
21
-121.249
0
LINE
8
BLACK
6
CONTINUOUS
10
310.265
20
-121.249
11
310.265
21
-135.27
0
LINE
8
BLACK
6
CONTINUOUS
10
324.285
20
-135.27
11
324.285
21
-121.249
0
LINE
8
BLACK
6
CONTINUOUS
10
310.265
20
-135.27
11
324.285
21
-135.27
0
LINE
8
BLACK
6
CONTINUOUS
10
348.097
20
-135.27
11
348.097
21
-121.249
0
LINE
8
BLACK
6
CONTINUOUS
10
334.077
20
-121.249
11
334.077
21
-135.27
0
LINE
8
BLACK
6
CONTINUOUS
10
348.097
20
-121.249
11
334.077
21
-121.249
0
LINE
8
BLACK
6
CONTINUOUS
10
334.077
20
-135.27
11
348.097
21
-135.27
0
LINE
8
BLACK
6
CONTINUOUS
10
79.2834
20
-154.32
11
93.3042
21
-154.32
0
LINE
8
BLACK
6
CONTINUOUS
10
79.2834
20
-140.299
11
79.2834
21
-154.32
0
LINE
8
BLACK
6
CONTINUOUS
10
93.3042
20
-140.299
11
79.2834
21
-140.299
0
LINE
8
BLACK
6
CONTINUOUS
10
93.3042
20
-154.32
11
93.3042
21
-140.299
0
LINE
8
BLACK
6
CONTINUOUS
10
119.497
20
-140.299
11
105.477
21
-140.299
0
LINE
8
BLACK
6
CONTINUOUS
10
105.477
20
-140.299
11
105.477
21
-154.32
0
LINE
8
BLACK
6
CONTINUOUS
10
119.497
20
-154.32
11
119.497
21
-140.299
0
LINE
8
BLACK
6
CONTINUOUS
10
105.477
20
-154.32
11
119.497
21
-154.32
0
LINE
8
BLACK
6
CONTINUOUS
10
138.547
20
-154.32
11
138.547
21
-140.299
0
LINE
8
BLACK
6
CONTINUOUS
10
138.547
20
-140.299
11
124.527
21
-140.299
0
LINE
8
BLACK
6
CONTINUOUS
10
124.527
20
-154.32
11
138.547
21
-154.32
0
LINE
8
BLACK
6
CONTINUOUS
10
124.527
20
-140.299
11
124.527
21
-154.32
0
LINE
8
BLACK
6
CONTINUOUS
10
143.577
20
-154.32
11
157.597
21
-154.32
0
LINE
8
BLACK
6
CONTINUOUS
10
157.597
20
-140.299
11
143.577
21
-140.299
0
LINE
8
BLACK
6
CONTINUOUS
10
157.597
20
-154.32
11
157.597
21
-140.299
0
LINE
8
BLACK
6
CONTINUOUS
10
143.577
20
-140.299
11
143.577
21
-154.32
0
LINE
8
BLACK
6
CONTINUOUS
10
162.627
20
-154.32
11
176.647
21
-154.32
0
LINE
8
BLACK
6
CONTINUOUS
10
176.647
20
-154.32
11
176.647
21
-140.299
0
LINE
8
BLACK
6
CONTINUOUS
10
176.647
20
-140.299
11
162.627
21
-140.299
0
LINE
8
BLACK
6
CONTINUOUS
10
162.627
20
-140.299
11
162.627
21
-154.32
0
LINE
8
BLACK
6
CONTINUOUS
10
181.677
20
-154.32
11
195.697
21
-154.32
0
LINE
8
BLACK
6
CONTINUOUS
10
181.677
20
-140.299
11
181.677
21
-154.32
0
LINE
8
BLACK
6
CONTINUOUS
10
195.697
20
-154.32
11
195.697
21
-140.299
0
LINE
8
BLACK
6
CONTINUOUS
10
195.697
20
-140.299
11
181.677
21
-140.299
0
LINE
8
BLACK
6
CONTINUOUS
10
200.727
20
-154.32
11
214.747
21
-154.32
0
LINE
8
BLACK
6
CONTINUOUS
10
214.747
20
-140.299
11
200.727
21
-140.299
0
LINE
8
BLACK
6
CONTINUOUS
10
214.747
20
-154.32
11
214.747
21
-140.299
0
LINE
8
BLACK
6
CONTINUOUS
10
200.727
20
-140.299
11
200.727
21
-154.32
0
LINE
8
BLACK
6
CONTINUOUS
10
233.797
20
-140.299
11
219.777
21
-140.299
0
LINE
8
BLACK
6
CONTINUOUS
10
219.777
20
-140.299
11
219.777
21
-154.32
0
LINE
8
BLACK
6
CONTINUOUS
10
233.797
20
-154.32
11
233.797
21
-140.299
0
LINE
8
BLACK
6
CONTINUOUS
10
219.777
20
-154.32
11
233.797
21
-154.32
0
LINE
8
BLACK
6
CONTINUOUS
10
252.847
20
-140.299
11
238.827
21
-140.299
0
LINE
8
BLACK
6
CONTINUOUS
10
252.847
20
-154.32
11
252.847
21
-140.299
0
LINE
8
BLACK
6
CONTINUOUS
10
238.827
20
-140.299
11
238.827
21
-154.32
0
LINE
8
BLACK
6
CONTINUOUS
10
238.827
20
-154.32
11
252.847
21
-154.32
0
LINE
8
BLACK
6
CONTINUOUS
10
271.897
20
-140.299
11
257.877
21
-140.299
0
LINE
8
BLACK
6
CONTINUOUS
10
257.877
20
-140.299
11
257.877
21
-154.32
0
LINE
8
BLACK
6
CONTINUOUS
10
271.897
20
-154.32
11
271.897
21
-140.299
0
LINE
8
BLACK
6
CONTINUOUS
10
257.877
20
-154.32
11
271.897
21
-154.32
0
LINE
8
BLACK
6
CONTINUOUS
10
290.947
20
-140.299
11
276.927
21
-140.299
0
LINE
8
BLACK
6
CONTINUOUS
10
290.947
20
-154.32
11
290.947
21
-140.299
0
LINE
8
BLACK
6
CONTINUOUS
10
276.927
20
-140.299
11
276.927
21
-154.32
0
LINE
8
BLACK
6
CONTINUOUS
10
276.927
20
-154.32
11
290.947
21
-154.32
0
LINE
8
BLACK
6
CONTINUOUS
10
295.977
20
-140.299
11
295.977
21
-154.32
0
LINE
8
BLACK
6
CONTINUOUS
10
309.997
20
-140.299
11
295.977
21
-140.299
0
LINE
8
BLACK
6
CONTINUOUS
10
309.997
20
-154.32
11
309.997
21
-140.299
0
LINE
8
BLACK
6
CONTINUOUS
10
295.977
20
-154.32
11
309.997
21
-154.32
0
LINE
8
BLACK
6
CONTINUOUS
10
129.023
20
-173.37
11
129.023
21
-159.349
0
LINE
8
BLACK
6
CONTINUOUS
10
115.003
20
-173.37
11
129.023
21
-173.37
0
LINE
8
BLACK
6
CONTINUOUS
10
115.003
20
-159.349
11
115.003
21
-173.37
0
LINE
8
BLACK
6
CONTINUOUS
10
129.023
20
-159.349
11
115.003
21
-159.349
0
LINE
8
BLACK
6
CONTINUOUS
10
134.053
20
-173.37
11
148.073
21
-173.37
0
LINE
8
BLACK
6
CONTINUOUS
10
148.073
20
-173.37
11
148.073
21
-159.349
0
LINE
8
BLACK
6
CONTINUOUS
10
148.073
20
-159.349
11
134.053
21
-159.349
0
LINE
8
BLACK
6
CONTINUOUS
10
134.053
20
-159.349
11
134.053
21
-173.37
0
LINE
8
BLACK
6
CONTINUOUS
10
167.123
20
-173.37
11
167.123
21
-159.349
0
LINE
8
BLACK
6
CONTINUOUS
10
167.123
20
-159.349
11
153.103
21
-159.349
0
LINE
8
BLACK
6
CONTINUOUS
10
153.103
20
-173.37
11
167.123
21
-173.37
0
LINE
8
BLACK
6
CONTINUOUS
10
153.103
20
-159.349
11
153.103
21
-173.37
0
LINE
8
BLACK
6
CONTINUOUS
10
172.153
20
-173.37
11
186.173
21
-173.37
0
LINE
8
BLACK
6
CONTINUOUS
10
186.173
20
-159.349
11
172.153
21
-159.349
0
LINE
8
BLACK
6
CONTINUOUS
10
186.173
20
-173.37
11
186.173
21
-159.349
0
LINE
8
BLACK
6
CONTINUOUS
10
172.153
20
-159.349
11
172.153
21
-173.37
0
LINE
8
BLACK
6
CONTINUOUS
10
205.223
20
-159.349
11
191.203
21
-159.349
0
LINE
8
BLACK
6
CONTINUOUS
10
191.203
20
-173.37
11
205.223
21
-173.37
0
LINE
8
BLACK
6
CONTINUOUS
10
205.223
20
-173.37
11
205.223
21
-159.349
0
LINE
8
BLACK
6
CONTINUOUS
10
191.203
20
-159.349
11
191.203
21
-173.37
0
LINE
8
BLACK
6
CONTINUOUS
10
210.253
20
-173.37
11
224.273
21
-173.37
0
LINE
8
BLACK
6
CONTINUOUS
10
210.253
20
-159.349
11
210.253
21
-173.37
0
LINE
8
BLACK
6
CONTINUOUS
10
224.273
20
-159.349
11
210.253
21
-159.349
0
LINE
8
BLACK
6
CONTINUOUS
10
224.273
20
-173.37
11
224.273
21
-159.349
0
LINE
8
BLACK
6
CONTINUOUS
10
229.303
20
-173.37
11
243.323
21
-173.37
0
LINE
8
BLACK
6
CONTINUOUS
10
243.323
20
-159.349
11
229.303
21
-159.349
0
LINE
8
BLACK
6
CONTINUOUS
10
243.323
20
-173.37
11
243.323
21
-159.349
0
LINE
8
BLACK
6
CONTINUOUS
10
229.303
20
-159.349
11
229.303
21
-173.37
0
LINE
8
BLACK
6
CONTINUOUS
10
262.373
20
-159.349
11
248.353
21
-159.349
0
LINE
8
BLACK
6
CONTINUOUS
10
248.353
20
-159.349
11
248.353
21
-173.37
0
LINE
8
BLACK
6
CONTINUOUS
10
262.373
20
-173.37
11
262.373
21
-159.349
0
LINE
8
BLACK
6
CONTINUOUS
10
248.353
20
-173.37
11
262.373
21
-173.37
0
LINE
8
BLACK
6
CONTINUOUS
10
267.403
20
-173.37
11
281.423
21
-173.37
0
LINE
8
BLACK
6
CONTINUOUS
10
281.423
20
-173.37
11
281.423
21
-159.349
0
LINE
8
BLACK
6
CONTINUOUS
10
281.423
20
-159.349
11
267.403
21
-159.349
0
LINE
8
BLACK
6
CONTINUOUS
10
267.403
20
-159.349
11
267.403
21
-173.37
0
LINE
8
BLACK
6
CONTINUOUS
10
286.453
20
-173.37
11
300.473
21
-173.37
0
LINE
8
BLACK
6
CONTINUOUS
10
286.453
20
-159.349
11
286.453
21
-173.37
0
LINE
8
BLACK
6
CONTINUOUS
10
300.473
20
-159.349
11
286.453
21
-159.349
0
LINE
8
BLACK
6
CONTINUOUS
10
300.473
20
-173.37
11
300.473
21
-159.349
0
LINE
8
BLACK
6
CONTINUOUS
10
326.666
20
-159.349
11
312.646
21
-159.349
0
LINE
8
BLACK
6
CONTINUOUS
10
326.666
20
-173.37
11
326.666
21
-159.349
0
LINE
8
BLACK
6
CONTINUOUS
10
312.646
20
-159.349
11
312.646
21
-173.37
0
LINE
8
BLACK
6
CONTINUOUS
10
312.646
20
-173.37
11
326.666
21
-173.37
0
LINE
8
BLACK
6
CONTINUOUS
10
352.86
20
-159.349
11
338.84
21
-159.349
0
LINE
8
BLACK
6
CONTINUOUS
10
338.84
20
-159.349
11
338.84
21
-173.37
0
LINE
8
BLACK
6
CONTINUOUS
10
352.86
20
-173.37
11
352.86
21
-159.349
0
LINE
8
BLACK
6
CONTINUOUS
10
338.84
20
-173.37
11
352.86
21
-173.37
0
LINE
8
BLACK
6
CONTINUOUS
10
124.527
20
-178.399
11
124.527
21
-192.42
0
LINE
8
BLACK
6
CONTINUOUS
10
138.547
20
-192.42
11
138.547
21
-178.399
0
LINE
8
BLACK
6
CONTINUOUS
10
138.547
20
-178.399
11
124.527
21
-178.399
0
LINE
8
BLACK
6
CONTINUOUS
10
124.527
20
-192.42
11
138.547
21
-192.42
0
LINE
8
BLACK
6
CONTINUOUS
10
267.403
20
-178.399
11
267.403
21
-192.42
0
LINE
8
BLACK
6
CONTINUOUS
10
281.423
20
-178.399
11
267.403
21
-178.399
0
LINE
8
BLACK
6
CONTINUOUS
10
281.423
20
-192.42
11
281.423
21
-178.399
0
LINE
8
BLACK
6
CONTINUOUS
10
267.403
20
-192.42
11
281.423
21
-192.42
0
LINE
8
BLACK
6
CONTINUOUS
10
291.215
20
-192.42
11
305.235
21
-192.42
0
LINE
8
BLACK
6
CONTINUOUS
10
305.235
20
-178.399
11
291.215
21
-178.399
0
LINE
8
BLACK
6
CONTINUOUS
10
291.215
20
-178.399
11
291.215
21
-192.42
0
LINE
8
BLACK
6
CONTINUOUS
10
305.235
20
-192.42
11
305.235
21
-178.399
0
LINE
8
BLACK
6
CONTINUOUS
10
83.5458
20
-171.338
11
83.0465
21
-171.338
0
LINE
8
BLACK
6
CONTINUOUS
10
107.363
20
-165.852
11
107.363
21
-168.849
0
LINE
8
BLACK
6
CONTINUOUS
10
75.1892
20
-168.849
11
74.7494
21
-168.849
0
LINE
8
BLACK
6
CONTINUOUS
10
74.7494
20
-165.852
11
75.1892
21
-165.852
0
LINE
8
BLACK
6
CONTINUOUS
10
84.0458
20
-159.349
11
98.0666
21
-159.349
0
LINE
8
BLACK
6
CONTINUOUS
10
84.0458
20
-159.942
11
84.0458
21
-159.349
0
LINE
8
BLACK
6
CONTINUOUS
10
82.5472
20
-171.838
11
82.5472
21
-172.151
0
LINE
8
BLACK
6
CONTINUOUS
10
80.693
20
-158.435
11
80.693
21
-159.154
0
LINE
8
BLACK
6
CONTINUOUS
10
82.5472
20
-159.654
11
82.5472
21
-159.942
0
LINE
8
BLACK
6
CONTINUOUS
10
104.569
20
-158.435
11
104.569
21
-159.154
0
LINE
8
BLACK
6
CONTINUOUS
10
99.5652
20
-159.942
11
99.5652
21
-159.654
0
LINE
8
BLACK
6
CONTINUOUS
10
99.0659
20
-171.338
11
98.5666
21
-171.338
0
LINE
8
BLACK
6
CONTINUOUS
10
107.363
20
-168.849
11
106.923
21
-168.849
0
LINE
8
BLACK
6
CONTINUOUS
10
98.0666
20
-173.37
11
84.0458
21
-173.37
0
LINE
8
BLACK
6
CONTINUOUS
10
106.423
20
-169.349
11
106.423
21
-172.151
0
LINE
8
BLACK
6
CONTINUOUS
10
106.423
20
-172.151
11
99.5652
21
-172.151
0
LINE
8
BLACK
6
CONTINUOUS
10
101.419
20
-159.154
11
101.419
21
-158.435
0
LINE
8
BLACK
6
CONTINUOUS
10
99.5652
20
-159.654
11
100.919
21
-159.654
0
LINE
8
BLACK
6
CONTINUOUS
10
77.5434
20
-159.154
11
77.5434
21
-158.435
0
LINE
8
BLACK
6
CONTINUOUS
10
82.5472
20
-172.151
11
75.6892
21
-172.151
0
LINE
8
BLACK
6
CONTINUOUS
10
83.0472
20
-160.442
11
83.5458
21
-160.442
0
LINE
8
BLACK
6
CONTINUOUS
10
105.069
20
-159.654
11
106.423
21
-159.654
0
LINE
8
BLACK
6
CONTINUOUS
10
84.0458
20
-173.37
11
84.0458
21
-171.838
0
LINE
8
BLACK
6
CONTINUOUS
10
98.5659
20
-160.442
11
99.0652
21
-160.442
0
LINE
8
BLACK
6
CONTINUOUS
10
74.7494
20
-168.849
11
74.7494
21
-165.852
0
LINE
8
BLACK
6
CONTINUOUS
10
106.423
20
-159.654
11
106.423
21
-165.352
0
LINE
8
BLACK
6
CONTINUOUS
10
75.6892
20
-172.151
11
75.6892
21
-169.349
0
LINE
8
BLACK
6
CONTINUOUS
10
101.419
20
-158.435
11
104.569
21
-158.435
0
LINE
8
BLACK
6
CONTINUOUS
10
81.193
20
-159.654
11
82.5472
21
-159.654
0
LINE
8
BLACK
6
CONTINUOUS
10
75.6892
20
-165.352
11
75.6892
21
-159.654
0
LINE
8
BLACK
6
CONTINUOUS
10
98.0666
20
-171.838
11
98.0666
21
-173.37
0
LINE
8
BLACK
6
CONTINUOUS
10
106.923
20
-165.852
11
107.363
21
-165.852
0
LINE
8
BLACK
6
CONTINUOUS
10
77.5434
20
-158.435
11
80.693
21
-158.435
0
LINE
8
BLACK
6
CONTINUOUS
10
98.0666
20
-159.349
11
98.0666
21
-159.942
0
LINE
8
BLACK
6
CONTINUOUS
10
99.5652
20
-172.151
11
99.5652
21
-171.838
0
LINE
8
BLACK
6
CONTINUOUS
10
75.6892
20
-159.654
11
77.0434
21
-159.654
0
ARC
8
BLACK
10
98.5666
20
-159.942
40
0.5
50
-180
51
-90.0802
0
ARC
8
BLACK
10
83.5458
20
-171.838
40
0.500001
50
0.000114591
51
89.9999
0
ARC
8
BLACK
10
98.5666
20
-171.838
40
0.500001
50
90.0001
51
180
0
ARC
8
BLACK
10
83.5458
20
-159.942
40
0.500001
50
-89.9999
51
-0.000114591
0
ARC
8
BLACK
10
83.0472
20
-171.838
40
0.5
50
90.0802
51
180
0
ARC
8
BLACK
10
77.0434
20
-159.154
40
0.500001
50
-89.9999
51
-0.000114591
0
ARC
8
BLACK
10
106.923
20
-169.349
40
0.500001
50
90.0001
51
180
0
ARC
8
BLACK
10
106.923
20
-165.352
40
0.500001
50
-180
51
-90.0001
0
ARC
8
BLACK
10
99.0652
20
-171.838
40
0.5
50
-0
51
89.9198
0
ARC
8
BLACK
10
83.0472
20
-159.942
40
0.500001
50
-180
51
-90.0001
0
ARC
8
BLACK
10
99.0652
20
-159.942
40
0.500001
50
-89.9999
51
-0.000114591
0
ARC
8
BLACK
10
100.919
20
-159.154
40
0.500001
50
-89.9999
51
-0.000114591
0
ARC
8
BLACK
10
75.1892
20
-165.352
40
0.500001
50
-89.9999
51
-0.000114591
0
ARC
8
BLACK
10
75.1892
20
-169.349
40
0.500001
50
0.000114591
51
89.9999
0
ARC
8
BLACK
10
105.069
20
-159.154
40
0.500001
50
-180
51
-90.0001
0
ARC
8
BLACK
10
81.193
20
-159.154
40
0.500001
50
-180
51
-90.0001
0
LINE
8
BLACK
6
CONTINUOUS
10
159.279
20
-183.124
11
195.465
21
-183.124
0
LINE
8
BLACK
6
CONTINUOUS
10
158.779
20
-178.704
11
158.779
21
-182.624
0
LINE
8
BLACK
6
CONTINUOUS
10
247.171
20
-182.624
11
247.171
21
-178.704
0
LINE
8
BLACK
6
CONTINUOUS
10
153.775
20
-178.204
11
153.775
21
-177.485
0
LINE
8
BLACK
6
CONTINUOUS
10
254.029
20
-188.399
11
254.029
21
-191.201
0
LINE
8
BLACK
6
CONTINUOUS
10
209.985
20
-178.399
11
209.985
21
-182.624
0
LINE
8
BLACK
6
CONTINUOUS
10
254.529
20
-184.902
11
254.969
21
-184.902
0
LINE
8
BLACK
6
CONTINUOUS
10
151.421
20
-187.899
11
150.981
21
-187.899
0
LINE
8
BLACK
6
CONTINUOUS
10
195.965
20
-178.399
11
209.985
21
-178.399
0
LINE
8
BLACK
6
CONTINUOUS
10
209.985
20
-188.196
11
209.985
21
-192.42
0
LINE
8
BLACK
6
CONTINUOUS
10
195.465
20
-187.696
11
159.279
21
-187.696
0
LINE
8
BLACK
6
CONTINUOUS
10
156.925
20
-177.485
11
156.925
21
-178.204
0
LINE
8
BLACK
6
CONTINUOUS
10
249.025
20
-177.485
11
252.175
21
-177.485
0
LINE
8
BLACK
6
CONTINUOUS
10
247.171
20
-191.201
11
247.171
21
-188.196
0
LINE
8
BLACK
6
CONTINUOUS
10
158.779
20
-188.196
11
158.779
21
-191.201
0
LINE
8
BLACK
6
CONTINUOUS
10
195.965
20
-182.624
11
195.965
21
-178.399
0
LINE
8
BLACK
6
CONTINUOUS
10
254.969
20
-184.902
11
254.969
21
-187.899
0
LINE
8
BLACK
6
CONTINUOUS
10
150.981
20
-187.899
11
150.981
21
-184.902
0
LINE
8
BLACK
6
CONTINUOUS
10
210.485
20
-183.124
11
246.671
21
-183.124
0
LINE
8
BLACK
6
CONTINUOUS
10
150.981
20
-184.902
11
151.421
21
-184.902
0
LINE
8
BLACK
6
CONTINUOUS
10
249.025
20
-178.204
11
249.025
21
-177.485
0
LINE
8
BLACK
6
CONTINUOUS
10
252.175
20
-177.485
11
252.175
21
-178.204
0
LINE
8
BLACK
6
CONTINUOUS
10
247.171
20
-178.704
11
248.525
21
-178.704
0
LINE
8
BLACK
6
CONTINUOUS
10
209.985
20
-192.42
11
195.965
21
-192.42
0
LINE
8
BLACK
6
CONTINUOUS
10
195.965
20
-192.42
11
195.965
21
-188.196
0
LINE
8
BLACK
6
CONTINUOUS
10
254.969
20
-187.899
11
254.499
21
-187.9
0
LINE
8
BLACK
6
CONTINUOUS
10
254.029
20
-178.704
11
254.029
21
-184.402
0
LINE
8
BLACK
6
CONTINUOUS
10
246.671
20
-187.696
11
210.485
21
-187.696
0
LINE
8
BLACK
6
CONTINUOUS
10
151.921
20
-178.704
11
153.275
21
-178.704
0
LINE
8
BLACK
6
CONTINUOUS
10
153.775
20
-177.485
11
156.925
21
-177.485
0
LINE
8
BLACK
6
CONTINUOUS
10
254.029
20
-191.201
11
247.171
21
-191.201
0
LINE
8
BLACK
6
CONTINUOUS
10
158.779
20
-191.201
11
151.921
21
-191.201
0
LINE
8
BLACK
6
CONTINUOUS
10
252.675
20
-178.704
11
254.029
21
-178.704
0
LINE
8
BLACK
6
CONTINUOUS
10
157.425
20
-178.704
11
158.779
21
-178.704
0
LINE
8
BLACK
6
CONTINUOUS
10
151.921
20
-191.201
11
151.921
21
-188.399
0
LINE
8
BLACK
6
CONTINUOUS
10
151.921
20
-184.402
11
151.921
21
-178.704
0
ARC
8
BLACK
10
195.465
20
-182.624
40
0.500001
50
-89.9999
51
-0.000114591
0
ARC
8
BLACK
10
153.275
20
-178.204
40
0.500001
50
-89.9999
51
-0.000114591
0
ARC
8
BLACK
10
151.421
20
-188.399
40
0.500001
50
0.000114591
51
89.9999
0
ARC
8
BLACK
10
159.279
20
-182.624
40
0.500001
50
-180
51
-90.0001
0
ARC
8
BLACK
10
254.529
20
-184.402
40
0.500001
50
-180
51
-90.0001
0
ARC
8
BLACK
10
210.485
20
-188.196
40
0.500001
50
90.0001
51
180
0
ARC
8
BLACK
10
254.529
20
-188.399
40
0.5
50
93.4451
51
180
0
ARC
8
BLACK
10
157.425
20
-178.204
40
0.500001
50
-180
51
-90.0001
0
ARC
8
BLACK
10
246.671
20
-188.196
40
0.500001
50
0.000114591
51
89.9999
0
ARC
8
BLACK
10
210.485
20
-182.624
40
0.500001
50
-180
51
-90.0001
0
ARC
8
BLACK
10
246.671
20
-182.624
40
0.500001
50
-89.9999
51
-0.000114591
0
ARC
8
BLACK
10
195.465
20
-188.196
40
0.500001
50
0.000114591
51
89.9999
0
ARC
8
BLACK
10
151.421
20
-184.402
40
0.500001
50
-89.9999
51
-0.000114591
0
ARC
8
BLACK
10
159.279
20
-188.196
40
0.500001
50
90.0001
51
180
0
ARC
8
BLACK
10
248.525
20
-178.204
40
0.500001
50
-89.9999
51
-0.000114591
0
ARC
8
BLACK
10
252.675
20
-178.204
40
0.500001
50
-180
51
-90.0001
0
LINE
8
BLACK
6
CONTINUOUS
10
317.637
20
-146.802
11
318.077
21
-146.802
0
LINE
8
BLACK
6
CONTINUOUS
10
349.311
20
-153.101
11
342.453
21
-153.101
0
LINE
8
BLACK
6
CONTINUOUS
10
320.431
20
-139.385
11
323.581
21
-139.385
0
LINE
8
BLACK
6
CONTINUOUS
10
323.581
20
-139.385
11
323.581
21
-140.104
0
LINE
8
BLACK
6
CONTINUOUS
10
347.457
20
-139.385
11
347.457
21
-140.104
0
LINE
8
BLACK
6
CONTINUOUS
10
318.577
20
-140.604
11
319.931
21
-140.604
0
LINE
8
BLACK
6
CONTINUOUS
10
340.954
20
-140.299
11
340.954
21
-140.892
0
LINE
8
BLACK
6
CONTINUOUS
10
325.435
20
-140.604
11
325.435
21
-140.892
0
LINE
8
BLACK
6
CONTINUOUS
10
349.311
20
-150.299
11
349.311
21
-153.101
0
LINE
8
BLACK
6
CONTINUOUS
10
341.454
20
-141.392
11
341.953
21
-141.392
0
LINE
8
BLACK
6
CONTINUOUS
10
324.081
20
-140.604
11
325.435
21
-140.604
0
LINE
8
BLACK
6
CONTINUOUS
10
342.453
20
-140.892
11
342.453
21
-140.604
0
LINE
8
BLACK
6
CONTINUOUS
10
326.934
20
-140.299
11
340.954
21
-140.299
0
LINE
8
BLACK
6
CONTINUOUS
10
320.431
20
-140.104
11
320.431
21
-139.385
0
LINE
8
BLACK
6
CONTINUOUS
10
326.934
20
-154.32
11
326.934
21
-152.788
0
LINE
8
BLACK
6
CONTINUOUS
10
340.954
20
-154.32
11
326.934
21
-154.32
0
LINE
8
BLACK
6
CONTINUOUS
10
349.811
20
-146.802
11
350.251
21
-146.802
0
LINE
8
BLACK
6
CONTINUOUS
10
326.934
20
-140.892
11
326.934
21
-140.299
0
LINE
8
BLACK
6
CONTINUOUS
10
344.307
20
-139.385
11
347.457
21
-139.385
0
LINE
8
BLACK
6
CONTINUOUS
10
325.435
20
-152.788
11
325.435
21
-153.101
0
LINE
8
BLACK
6
CONTINUOUS
10
318.077
20
-149.799
11
317.637
21
-149.799
0
LINE
8
BLACK
6
CONTINUOUS
10
325.935
20
-141.392
11
326.434
21
-141.392
0
LINE
8
BLACK
6
CONTINUOUS
10
342.453
20
-140.604
11
343.807
21
-140.604
0
LINE
8
BLACK
6
CONTINUOUS
10
326.434
20
-152.288
11
325.934
21
-152.288
0
LINE
8
BLACK
6
CONTINUOUS
10
317.637
20
-149.799
11
317.637
21
-146.802
0
LINE
8
BLACK
6
CONTINUOUS
10
340.954
20
-152.788
11
340.954
21
-154.32
0
LINE
8
BLACK
6
CONTINUOUS
10
318.577
20
-146.302
11
318.577
21
-140.604
0
LINE
8
BLACK
6
CONTINUOUS
10
350.251
20
-146.802
11
350.251
21
-149.799
0
LINE
8
BLACK
6
CONTINUOUS
10
347.957
20
-140.604
11
349.311
21
-140.604
0
LINE
8
BLACK
6
CONTINUOUS
10
325.435
20
-153.101
11
318.577
21
-153.101
0
LINE
8
BLACK
6
CONTINUOUS
10
344.307
20
-140.104
11
344.307
21
-139.385
0
LINE
8
BLACK
6
CONTINUOUS
10
342.453
20
-153.101
11
342.453
21
-152.788
0
LINE
8
BLACK
6
CONTINUOUS
10
341.954
20
-152.288
11
341.454
21
-152.288
0
LINE
8
BLACK
6
CONTINUOUS
10
318.577
20
-153.101
11
318.577
21
-150.299
0
LINE
8
BLACK
6
CONTINUOUS
10
350.251
20
-149.799
11
349.811
21
-149.799
0
LINE
8
BLACK
6
CONTINUOUS
10
349.311
20
-140.604
11
349.311
21
-146.302
0
ARC
8
BLACK
10
326.434
20
-140.892
40
0.500001
50
-89.9999
51
-0.000114591
0
ARC
8
BLACK
10
341.454
20
-140.892
40
0.5
50
-180
51
-90.0802
0
ARC
8
BLACK
10
319.931
20
-140.104
40
0.500001
50
-89.9999
51
-0.000114591
0
ARC
8
BLACK
10
318.077
20
-150.299
40
0.500001
50
0.000114591
51
89.9999
0
ARC
8
BLACK
10
326.434
20
-152.788
40
0.500001
50
0.000114591
51
89.9999
0
ARC
8
BLACK
10
325.935
20
-140.892
40
0.500001
50
-180
51
-90.0001
0
ARC
8
BLACK
10
349.811
20
-150.299
40
0.500001
50
90.0001
51
180
0
ARC
8
BLACK
10
347.957
20
-140.104
40
0.500001
50
-180
51
-90.0001
0
ARC
8
BLACK
10
324.081
20
-140.104
40
0.500001
50
-180
51
-90.0001
0
ARC
8
BLACK
10
325.935
20
-152.788
40
0.5
50
90.0802
51
180
0
ARC
8
BLACK
10
349.811
20
-146.302
40
0.500001
50
-180
51
-90.0001
0
ARC
8
BLACK
10
341.953
20
-152.788
40
0.5
50
-0
51
89.9198
0
ARC
8
BLACK
10
341.953
20
-140.892
40
0.500001
50
-89.9999
51
-0.000114591
0
ARC
8
BLACK
10
343.807
20
-140.104
40
0.500001
50
-89.9999
51
-0.000114591
0
ARC
8
BLACK
10
341.454
20
-152.788
40
0.500001
50
90.0001
51
180
0
ARC
8
BLACK
10
318.077
20
-146.302
40
0.500001
50
-89.9999
51
-0.000114591
0
LINE
8
BLACK
6
CONTINUOUS
10
114.735
20
-178.399
11
100.715
21
-178.399
0
LINE
8
BLACK
6
CONTINUOUS
10
114.735
20
-192.42
11
114.735
21
-178.399
0
LINE
8
BLACK
6
CONTINUOUS
10
100.715
20
-178.399
11
100.715
21
-192.42
0
LINE
8
BLACK
6
CONTINUOUS
10
100.715
20
-192.42
11
114.735
21
-192.42
  0
ENDSEC
  0
EOF
