%TF.GenerationSoftware,KiCad,Pcbnew,(5.1.9)-1*%
%TF.CreationDate,2021-03-22T03:11:48+09:00*%
%TF.ProjectId,yuiopPM,7975696f-7050-44d2-9e6b-696361645f70,1*%
%TF.SameCoordinates,Original*%
%TF.FileFunction,Copper,L2,Bot*%
%TF.FilePolarity,Positive*%
%FSLAX46Y46*%
G04 Gerber Fmt 4.6, Leading zero omitted, Abs format (unit mm)*
G04 Created by KiCad (PCBNEW (5.1.9)-1) date 2021-03-22 03:11:48*
%MOMM*%
%LPD*%
G01*
G04 APERTURE LIST*
%TA.AperFunction,ComponentPad*%
%ADD10C,1.524000*%
%TD*%
%TA.AperFunction,ViaPad*%
%ADD11C,0.600000*%
%TD*%
%TA.AperFunction,Conductor*%
%ADD12C,0.200000*%
%TD*%
G04 APERTURE END LIST*
D10*
%TO.P,J3,12*%
%TO.N,/D10*%
X154940000Y-124460000D03*
%TO.P,J3,11*%
%TO.N,/MOSI*%
X154940000Y-121920000D03*
%TO.P,J3,10*%
%TO.N,/MISO*%
X154940000Y-119380000D03*
%TO.P,J3,9*%
%TO.N,/SCK*%
X154940000Y-116840000D03*
%TO.P,J3,8*%
%TO.N,/A0*%
X154940000Y-114300000D03*
%TO.P,J3,7*%
%TO.N,/A1*%
X154940000Y-111760000D03*
%TO.P,J3,6*%
%TO.N,/A2*%
X154940000Y-109220000D03*
%TO.P,J3,5*%
%TO.N,/A3*%
X154940000Y-106680000D03*
%TO.P,J3,4*%
%TO.N,/AVCC*%
X154940000Y-104140000D03*
%TO.P,J3,3*%
%TO.N,/RESET*%
X154940000Y-101600000D03*
%TO.P,J3,2*%
%TO.N,/GND*%
X154940000Y-99060000D03*
%TO.P,J3,1*%
%TO.N,/AVCC*%
X154940000Y-96520000D03*
%TD*%
%TO.P,J2,12*%
%TO.N,/D9*%
X139700000Y-124460000D03*
%TO.P,J2,11*%
%TO.N,/D8*%
X139700000Y-121920000D03*
%TO.P,J2,10*%
%TO.N,/D7*%
X139700000Y-119380000D03*
%TO.P,J2,9*%
%TO.N,/D6*%
X139700000Y-116840000D03*
%TO.P,J2,8*%
%TO.N,/D5*%
X139700000Y-114300000D03*
%TO.P,J2,7*%
%TO.N,/D4*%
X139700000Y-111760000D03*
%TO.P,J2,6*%
%TO.N,/D3_SCL*%
X139700000Y-109220000D03*
%TO.P,J2,5*%
%TO.N,/D2_SDA*%
X139700000Y-106680000D03*
%TO.P,J2,4*%
%TO.N,/GND*%
X139700000Y-104140000D03*
%TO.P,J2,3*%
X139700000Y-101600000D03*
%TO.P,J2,2*%
%TO.N,/RXI*%
X139700000Y-99060000D03*
%TO.P,J2,1*%
%TO.N,/TXO*%
X139700000Y-96520000D03*
%TD*%
D11*
%TO.N,/GND*%
X147228900Y-101086500D03*
X147468500Y-106058400D03*
%TO.N,Net-(C1-Pad1)*%
X146233600Y-113957400D03*
X149733900Y-122782500D03*
%TO.N,Net-(C2-Pad1)*%
X146327000Y-114809200D03*
X144906400Y-124706600D03*
%TO.N,/AVCC*%
X144686900Y-111099000D03*
X142856100Y-104946500D03*
X145511800Y-116232800D03*
%TO.N,Net-(C8-Pad2)*%
X146868200Y-104893200D03*
X150108700Y-104909700D03*
%TO.N,Net-(J1-Pad3)*%
X147008300Y-99667700D03*
X143369300Y-100907400D03*
%TO.N,/D9*%
X147442100Y-120889400D03*
%TO.N,/D8*%
X146594200Y-120494500D03*
%TO.N,/D7*%
X151320000Y-109105100D03*
%TO.N,/D6*%
X145956100Y-117842200D03*
%TO.N,/D5*%
X146222800Y-117003400D03*
%TO.N,/D4*%
X144920000Y-116773000D03*
%TO.N,/D3_SCL*%
X142876800Y-113871400D03*
%TO.N,/D2_SDA*%
X143079200Y-114800900D03*
%TO.N,/RXI*%
X143930200Y-114521700D03*
%TO.N,/TXO*%
X144617500Y-113871400D03*
%TO.N,/D10*%
X149484700Y-120501900D03*
%TO.N,/MOSI*%
X149162000Y-114689300D03*
%TO.N,/MISO*%
X147571400Y-113217300D03*
%TO.N,/SCK*%
X148451000Y-112398900D03*
%TO.N,/A1*%
X151757000Y-114943000D03*
%TO.N,/A2*%
X151334900Y-112825100D03*
%TO.N,/A3*%
X151766200Y-111379400D03*
%TO.N,/RESET*%
X145071700Y-104310200D03*
%TO.N,/D-*%
X149512200Y-109096100D03*
X151475900Y-103223000D03*
%TD*%
D12*
%TO.N,/GND*%
X147228900Y-101086500D02*
X152913500Y-101086500D01*
X152913500Y-101086500D02*
X154940000Y-99060000D01*
X147468500Y-106058400D02*
X145929600Y-106058400D01*
X145929600Y-106058400D02*
X144453400Y-104582200D01*
X144453400Y-104582200D02*
X144453400Y-103862000D01*
X144453400Y-103862000D02*
X147228900Y-101086500D01*
%TO.N,Net-(C1-Pad1)*%
X149733900Y-122782500D02*
X148842800Y-121891400D01*
X148842800Y-121891400D02*
X148842800Y-116470300D01*
X148842800Y-116470300D02*
X146329900Y-113957400D01*
X146329900Y-113957400D02*
X146233600Y-113957400D01*
%TO.N,Net-(C2-Pad1)*%
X144906400Y-124706600D02*
X148042400Y-121570600D01*
X148042400Y-121570600D02*
X148042400Y-116524600D01*
X148042400Y-116524600D02*
X146327000Y-114809200D01*
%TO.N,/AVCC*%
X145222000Y-111313200D02*
X146795300Y-109739900D01*
X145511800Y-116232800D02*
X145222000Y-115943000D01*
X145222000Y-115943000D02*
X145222000Y-111313200D01*
X145222000Y-111313200D02*
X144901100Y-111313200D01*
X144901100Y-111313200D02*
X144686900Y-111099000D01*
X146795300Y-109739900D02*
X149755900Y-109739900D01*
X149755900Y-109739900D02*
X154940000Y-104555800D01*
X154940000Y-104555800D02*
X154940000Y-104140000D01*
X143645200Y-104946500D02*
X143645200Y-106589800D01*
X143645200Y-106589800D02*
X146795300Y-109739900D01*
X143645200Y-104946500D02*
X143645200Y-103821300D01*
X143645200Y-103821300D02*
X146980300Y-100486200D01*
X146980300Y-100486200D02*
X150973800Y-100486200D01*
X150973800Y-100486200D02*
X154940000Y-96520000D01*
X142856100Y-104946500D02*
X143645200Y-104946500D01*
%TO.N,Net-(C8-Pad2)*%
X146868200Y-104893200D02*
X150092200Y-104893200D01*
X150092200Y-104893200D02*
X150108700Y-104909700D01*
%TO.N,Net-(J1-Pad3)*%
X147008300Y-99667700D02*
X145768600Y-100907400D01*
X145768600Y-100907400D02*
X143369300Y-100907400D01*
%TO.N,/D9*%
X139700000Y-124460000D02*
X143871500Y-124460000D01*
X143871500Y-124460000D02*
X147442100Y-120889400D01*
%TO.N,/D8*%
X139700000Y-121920000D02*
X145168700Y-121920000D01*
X145168700Y-121920000D02*
X146594200Y-120494500D01*
%TO.N,/D7*%
X139700000Y-119380000D02*
X145299900Y-119380000D01*
X145299900Y-119380000D02*
X146853100Y-117826800D01*
X146853100Y-117826800D02*
X146853100Y-116223500D01*
X146853100Y-116223500D02*
X145627800Y-114998200D01*
X145627800Y-114998200D02*
X145627800Y-113648600D01*
X145627800Y-113648600D02*
X147495200Y-111781200D01*
X147495200Y-111781200D02*
X148643900Y-111781200D01*
X148643900Y-111781200D02*
X151320000Y-109105100D01*
%TO.N,/D6*%
X139700000Y-116840000D02*
X140702200Y-117842200D01*
X140702200Y-117842200D02*
X145956100Y-117842200D01*
%TO.N,/D5*%
X139700000Y-114300000D02*
X142773400Y-117373400D01*
X142773400Y-117373400D02*
X145511300Y-117373400D01*
X145511300Y-117373400D02*
X145881300Y-117003400D01*
X145881300Y-117003400D02*
X146222800Y-117003400D01*
%TO.N,/D4*%
X144920000Y-116773000D02*
X144199500Y-116773000D01*
X144199500Y-116773000D02*
X139700000Y-112273500D01*
X139700000Y-112273500D02*
X139700000Y-111760000D01*
%TO.N,/D3_SCL*%
X139700000Y-109220000D02*
X142876800Y-112396800D01*
X142876800Y-112396800D02*
X142876800Y-113871400D01*
%TO.N,/D2_SDA*%
X139700000Y-106680000D02*
X143286000Y-110266000D01*
X143286000Y-110266000D02*
X143286000Y-111679200D01*
X143286000Y-111679200D02*
X143481000Y-111874200D01*
X143481000Y-111874200D02*
X143481000Y-114122000D01*
X143481000Y-114122000D02*
X143079300Y-114523700D01*
X143079300Y-114523700D02*
X143079300Y-114800900D01*
X143079300Y-114800900D02*
X143079200Y-114800900D01*
%TO.N,/RXI*%
X139700000Y-99060000D02*
X140762400Y-100122400D01*
X140762400Y-100122400D02*
X140762400Y-105587000D01*
X140762400Y-105587000D02*
X143686300Y-108510900D01*
X143686300Y-108510900D02*
X143686300Y-111513400D01*
X143686300Y-111513400D02*
X143930200Y-111757300D01*
X143930200Y-111757300D02*
X143930200Y-114521700D01*
%TO.N,/TXO*%
X139700000Y-96520000D02*
X141469500Y-98289500D01*
X141469500Y-98289500D02*
X141469600Y-98289500D01*
X141469600Y-98289500D02*
X141469600Y-105728000D01*
X141469600Y-105728000D02*
X144086600Y-108345000D01*
X144086600Y-108345000D02*
X144086600Y-111347600D01*
X144086600Y-111347600D02*
X144617500Y-111878500D01*
X144617500Y-111878500D02*
X144617500Y-113871400D01*
%TO.N,/D10*%
X154940000Y-124460000D02*
X153442800Y-124460000D01*
X153442800Y-124460000D02*
X149484700Y-120501900D01*
%TO.N,/MOSI*%
X154940000Y-121920000D02*
X149162000Y-116142000D01*
X149162000Y-116142000D02*
X149162000Y-114689300D01*
%TO.N,/MISO*%
X154940000Y-119380000D02*
X154727500Y-119380000D01*
X154727500Y-119380000D02*
X148564800Y-113217300D01*
X148564800Y-113217300D02*
X147571400Y-113217300D01*
%TO.N,/SCK*%
X154940000Y-116840000D02*
X152779300Y-116840000D01*
X152779300Y-116840000D02*
X148451000Y-112511700D01*
X148451000Y-112511700D02*
X148451000Y-112398900D01*
%TO.N,/A1*%
X154940000Y-111760000D02*
X151757000Y-114943000D01*
%TO.N,/A2*%
X154940000Y-109220000D02*
X151334900Y-112825100D01*
%TO.N,/A3*%
X154940000Y-106680000D02*
X151766200Y-109853800D01*
X151766200Y-109853800D02*
X151766200Y-111379400D01*
%TO.N,/RESET*%
X154940000Y-101600000D02*
X147781900Y-101600000D01*
X147781900Y-101600000D02*
X145071700Y-104310200D01*
%TO.N,/D-*%
X149512200Y-109096100D02*
X151475900Y-107132400D01*
X151475900Y-107132400D02*
X151475900Y-103223000D01*
%TD*%
M02*
