%TF.GenerationSoftware,KiCad,Pcbnew,(5.1.9)-1*%
%TF.CreationDate,2021-03-22T03:11:48+09:00*%
%TF.ProjectId,yuiopPM,7975696f-7050-44d2-9e6b-696361645f70,1*%
%TF.SameCoordinates,Original*%
%TF.FileFunction,Legend,Top*%
%TF.FilePolarity,Positive*%
%FSLAX46Y46*%
G04 Gerber Fmt 4.6, Leading zero omitted, Abs format (unit mm)*
G04 Created by KiCad (PCBNEW (5.1.9)-1) date 2021-03-22 03:11:48*
%MOMM*%
%LPD*%
G01*
G04 APERTURE LIST*
%ADD10C,0.150000*%
%ADD11C,0.120000*%
G04 APERTURE END LIST*
D10*
X143624761Y-116909904D02*
X143624761Y-117481333D01*
X143586666Y-117595619D01*
X143510476Y-117671809D01*
X143396190Y-117709904D01*
X143320000Y-117709904D01*
X144386666Y-117709904D02*
X144005714Y-117709904D01*
X144005714Y-116909904D01*
X145110476Y-117633714D02*
X145072380Y-117671809D01*
X144958095Y-117709904D01*
X144881904Y-117709904D01*
X144767619Y-117671809D01*
X144691428Y-117595619D01*
X144653333Y-117519428D01*
X144615238Y-117367047D01*
X144615238Y-117252761D01*
X144653333Y-117100380D01*
X144691428Y-117024190D01*
X144767619Y-116948000D01*
X144881904Y-116909904D01*
X144958095Y-116909904D01*
X145072380Y-116948000D01*
X145110476Y-116986095D01*
X145681904Y-116909904D02*
X145681904Y-117481333D01*
X145643809Y-117595619D01*
X145567619Y-117671809D01*
X145453333Y-117709904D01*
X145377142Y-117709904D01*
X146443809Y-117709904D02*
X146062857Y-117709904D01*
X146062857Y-116909904D01*
X147167619Y-117633714D02*
X147129523Y-117671809D01*
X147015238Y-117709904D01*
X146939047Y-117709904D01*
X146824761Y-117671809D01*
X146748571Y-117595619D01*
X146710476Y-117519428D01*
X146672380Y-117367047D01*
X146672380Y-117252761D01*
X146710476Y-117100380D01*
X146748571Y-117024190D01*
X146824761Y-116948000D01*
X146939047Y-116909904D01*
X147015238Y-116909904D01*
X147129523Y-116948000D01*
X147167619Y-116986095D01*
X147739047Y-116909904D02*
X147739047Y-117481333D01*
X147700952Y-117595619D01*
X147624761Y-117671809D01*
X147510476Y-117709904D01*
X147434285Y-117709904D01*
X148500952Y-117709904D02*
X148120000Y-117709904D01*
X148120000Y-116909904D01*
X149224761Y-117633714D02*
X149186666Y-117671809D01*
X149072380Y-117709904D01*
X148996190Y-117709904D01*
X148881904Y-117671809D01*
X148805714Y-117595619D01*
X148767619Y-117519428D01*
X148729523Y-117367047D01*
X148729523Y-117252761D01*
X148767619Y-117100380D01*
X148805714Y-117024190D01*
X148881904Y-116948000D01*
X148996190Y-116909904D01*
X149072380Y-116909904D01*
X149186666Y-116948000D01*
X149224761Y-116986095D01*
X149796190Y-116909904D02*
X149796190Y-117481333D01*
X149758095Y-117595619D01*
X149681904Y-117671809D01*
X149567619Y-117709904D01*
X149491428Y-117709904D01*
X150558095Y-117709904D02*
X150177142Y-117709904D01*
X150177142Y-116909904D01*
X151281904Y-117633714D02*
X151243809Y-117671809D01*
X151129523Y-117709904D01*
X151053333Y-117709904D01*
X150939047Y-117671809D01*
X150862857Y-117595619D01*
X150824761Y-117519428D01*
X150786666Y-117367047D01*
X150786666Y-117252761D01*
X150824761Y-117100380D01*
X150862857Y-117024190D01*
X150939047Y-116948000D01*
X151053333Y-116909904D01*
X151129523Y-116909904D01*
X151243809Y-116948000D01*
X151281904Y-116986095D01*
X145534285Y-112689190D02*
X145534285Y-113165380D01*
X145200952Y-112165380D02*
X145534285Y-112689190D01*
X145867619Y-112165380D01*
X146200952Y-112165380D02*
X146200952Y-112974904D01*
X146248571Y-113070142D01*
X146296190Y-113117761D01*
X146391428Y-113165380D01*
X146581904Y-113165380D01*
X146677142Y-113117761D01*
X146724761Y-113070142D01*
X146772380Y-112974904D01*
X146772380Y-112165380D01*
X147248571Y-113165380D02*
X147248571Y-112165380D01*
X147915238Y-112165380D02*
X148105714Y-112165380D01*
X148200952Y-112213000D01*
X148296190Y-112308238D01*
X148343809Y-112498714D01*
X148343809Y-112832047D01*
X148296190Y-113022523D01*
X148200952Y-113117761D01*
X148105714Y-113165380D01*
X147915238Y-113165380D01*
X147820000Y-113117761D01*
X147724761Y-113022523D01*
X147677142Y-112832047D01*
X147677142Y-112498714D01*
X147724761Y-112308238D01*
X147820000Y-112213000D01*
X147915238Y-112165380D01*
X148772380Y-113165380D02*
X148772380Y-112165380D01*
X149153333Y-112165380D01*
X149248571Y-112213000D01*
X149296190Y-112260619D01*
X149343809Y-112355857D01*
X149343809Y-112498714D01*
X149296190Y-112593952D01*
X149248571Y-112641571D01*
X149153333Y-112689190D01*
X148772380Y-112689190D01*
X143915238Y-114815380D02*
X143915238Y-113815380D01*
X144296190Y-113815380D01*
X144391428Y-113863000D01*
X144439047Y-113910619D01*
X144486666Y-114005857D01*
X144486666Y-114148714D01*
X144439047Y-114243952D01*
X144391428Y-114291571D01*
X144296190Y-114339190D01*
X143915238Y-114339190D01*
X144915238Y-114815380D02*
X144915238Y-114148714D01*
X144915238Y-114339190D02*
X144962857Y-114243952D01*
X145010476Y-114196333D01*
X145105714Y-114148714D01*
X145200952Y-114148714D01*
X145677142Y-114815380D02*
X145581904Y-114767761D01*
X145534285Y-114720142D01*
X145486666Y-114624904D01*
X145486666Y-114339190D01*
X145534285Y-114243952D01*
X145581904Y-114196333D01*
X145677142Y-114148714D01*
X145820000Y-114148714D01*
X145915238Y-114196333D01*
X145962857Y-114243952D01*
X146010476Y-114339190D01*
X146010476Y-114624904D01*
X145962857Y-114720142D01*
X145915238Y-114767761D01*
X145820000Y-114815380D01*
X145677142Y-114815380D01*
X147200952Y-114815380D02*
X147200952Y-113815380D01*
X147534285Y-114529666D01*
X147867619Y-113815380D01*
X147867619Y-114815380D01*
X148343809Y-114815380D02*
X148343809Y-114148714D01*
X148343809Y-113815380D02*
X148296190Y-113863000D01*
X148343809Y-113910619D01*
X148391428Y-113863000D01*
X148343809Y-113815380D01*
X148343809Y-113910619D01*
X149248571Y-114767761D02*
X149153333Y-114815380D01*
X148962857Y-114815380D01*
X148867619Y-114767761D01*
X148820000Y-114720142D01*
X148772380Y-114624904D01*
X148772380Y-114339190D01*
X148820000Y-114243952D01*
X148867619Y-114196333D01*
X148962857Y-114148714D01*
X149153333Y-114148714D01*
X149248571Y-114196333D01*
X149677142Y-114815380D02*
X149677142Y-114148714D01*
X149677142Y-114339190D02*
X149724761Y-114243952D01*
X149772380Y-114196333D01*
X149867619Y-114148714D01*
X149962857Y-114148714D01*
X150439047Y-114815380D02*
X150343809Y-114767761D01*
X150296190Y-114720142D01*
X150248571Y-114624904D01*
X150248571Y-114339190D01*
X150296190Y-114243952D01*
X150343809Y-114196333D01*
X150439047Y-114148714D01*
X150581904Y-114148714D01*
X150677142Y-114196333D01*
X150724761Y-114243952D01*
X150772380Y-114339190D01*
X150772380Y-114624904D01*
X150724761Y-114720142D01*
X150677142Y-114767761D01*
X150581904Y-114815380D01*
X150439047Y-114815380D01*
D11*
%TO.C,X1*%
X149420000Y-125448000D02*
X149420000Y-121948000D01*
X149420000Y-121948000D02*
X145220000Y-121948000D01*
D10*
%TO.C,U1*%
X152495000Y-108363000D02*
X151920000Y-108363000D01*
X152495000Y-118713000D02*
X151820000Y-118713000D01*
X142145000Y-118713000D02*
X142820000Y-118713000D01*
X142145000Y-108363000D02*
X142820000Y-108363000D01*
X152495000Y-108363000D02*
X152495000Y-109038000D01*
X142145000Y-108363000D02*
X142145000Y-109038000D01*
X142145000Y-118713000D02*
X142145000Y-118038000D01*
X152495000Y-118713000D02*
X152495000Y-118038000D01*
X151920000Y-108363000D02*
X151920000Y-107088000D01*
D11*
%TO.C,R4*%
X151750500Y-101710258D02*
X151750500Y-101235742D01*
X152795500Y-101710258D02*
X152795500Y-101235742D01*
%TO.C,R3*%
X141844500Y-101710258D02*
X141844500Y-101235742D01*
X142889500Y-101710258D02*
X142889500Y-101235742D01*
%TO.C,R2*%
X151527742Y-120762500D02*
X152002258Y-120762500D01*
X151527742Y-121807500D02*
X152002258Y-121807500D01*
%TO.C,R1*%
X144286500Y-104664742D02*
X144286500Y-105139258D01*
X143241500Y-104664742D02*
X143241500Y-105139258D01*
%TO.C,F1*%
X146717936Y-101833000D02*
X147922064Y-101833000D01*
X146717936Y-103653000D02*
X147922064Y-103653000D01*
%TO.C,C8*%
X151386000Y-104761420D02*
X151386000Y-105042580D01*
X150366000Y-104761420D02*
X150366000Y-105042580D01*
%TO.C,C7*%
X152271000Y-105042580D02*
X152271000Y-104761420D01*
X153291000Y-105042580D02*
X153291000Y-104761420D01*
%TO.C,C6*%
X141349000Y-105042580D02*
X141349000Y-104761420D01*
X142369000Y-105042580D02*
X142369000Y-104761420D01*
%TO.C,C5*%
X151905580Y-123573000D02*
X151624420Y-123573000D01*
X151905580Y-122553000D02*
X151624420Y-122553000D01*
%TO.C,C4*%
X143015580Y-123573000D02*
X142734420Y-123573000D01*
X143015580Y-122553000D02*
X142734420Y-122553000D01*
%TO.C,C3*%
X143015580Y-121795000D02*
X142734420Y-121795000D01*
X143015580Y-120775000D02*
X142734420Y-120775000D01*
%TO.C,C2*%
X143015580Y-125351000D02*
X142734420Y-125351000D01*
X143015580Y-124331000D02*
X142734420Y-124331000D01*
%TO.C,C1*%
X151624420Y-124331000D02*
X151905580Y-124331000D01*
X151624420Y-125351000D02*
X151905580Y-125351000D01*
%TO.C,D1*%
X149570000Y-106537000D02*
X149570000Y-104537000D01*
X149570000Y-104537000D02*
X145670000Y-104537000D01*
X149570000Y-106537000D02*
X145670000Y-106537000D01*
%TD*%
M02*
