M48
; DRILL file {KiCad (5.1.9)-1} date 03/22/21 03:11:51
; FORMAT={-:-/ absolute / metric / decimal}
; #@! TF.CreationDate,2021-03-22T03:11:51+09:00
; #@! TF.GenerationSoftware,Kicad,Pcbnew,(5.1.9)-1
FMAT,2
METRIC
T1C0.300
T2C0.813
%
G90
G05
T1
X142.856Y-104.947
X142.877Y-113.871
X143.079Y-114.801
X143.369Y-100.907
X143.93Y-114.522
X144.618Y-113.871
X144.687Y-111.099
X144.906Y-124.707
X144.92Y-116.773
X145.072Y-104.31
X145.512Y-116.233
X145.956Y-117.842
X146.223Y-117.003
X146.234Y-113.957
X146.327Y-114.809
X146.594Y-120.494
X146.868Y-104.893
X147.008Y-99.668
X147.229Y-101.087
X147.442Y-120.889
X147.469Y-106.058
X147.571Y-113.217
X148.451Y-112.399
X149.162Y-114.689
X149.485Y-120.502
X149.512Y-109.096
X149.734Y-122.782
X150.109Y-104.91
X151.32Y-109.105
X151.335Y-112.825
X151.476Y-103.223
X151.757Y-114.943
X151.766Y-111.379
T2
X139.7Y-96.52
X139.7Y-99.06
X139.7Y-101.6
X139.7Y-104.14
X139.7Y-106.68
X139.7Y-109.22
X139.7Y-111.76
X139.7Y-114.3
X139.7Y-116.84
X139.7Y-119.38
X139.7Y-121.92
X139.7Y-124.46
X154.94Y-96.52
X154.94Y-99.06
X154.94Y-101.6
X154.94Y-104.14
X154.94Y-106.68
X154.94Y-109.22
X154.94Y-111.76
X154.94Y-114.3
X154.94Y-116.84
X154.94Y-119.38
X154.94Y-121.92
X154.94Y-124.46
T0
M30
