%TF.GenerationSoftware,KiCad,Pcbnew,(5.1.9)-1*%
%TF.CreationDate,2021-03-22T03:11:48+09:00*%
%TF.ProjectId,yuiopPM,7975696f-7050-44d2-9e6b-696361645f70,1*%
%TF.SameCoordinates,Original*%
%TF.FileFunction,Copper,L1,Top*%
%TF.FilePolarity,Positive*%
%FSLAX46Y46*%
G04 Gerber Fmt 4.6, Leading zero omitted, Abs format (unit mm)*
G04 Created by KiCad (PCBNEW (5.1.9)-1) date 2021-03-22 03:11:48*
%MOMM*%
%LPD*%
G01*
G04 APERTURE LIST*
%TA.AperFunction,SMDPad,CuDef*%
%ADD10C,0.100000*%
%TD*%
%TA.AperFunction,SMDPad,CuDef*%
%ADD11R,1.600000X2.400000*%
%TD*%
%TA.AperFunction,SMDPad,CuDef*%
%ADD12R,2.000000X1.500000*%
%TD*%
%TA.AperFunction,SMDPad,CuDef*%
%ADD13R,0.400000X1.050000*%
%TD*%
%TA.AperFunction,SMDPad,CuDef*%
%ADD14R,1.400000X1.200000*%
%TD*%
%TA.AperFunction,SMDPad,CuDef*%
%ADD15R,1.500000X0.550000*%
%TD*%
%TA.AperFunction,SMDPad,CuDef*%
%ADD16R,0.550000X1.500000*%
%TD*%
%TA.AperFunction,ComponentPad*%
%ADD17C,1.524000*%
%TD*%
%TA.AperFunction,SMDPad,CuDef*%
%ADD18R,0.900000X1.200000*%
%TD*%
%TA.AperFunction,ViaPad*%
%ADD19C,0.600000*%
%TD*%
%TA.AperFunction,Conductor*%
%ADD20C,0.200000*%
%TD*%
G04 APERTURE END LIST*
%TA.AperFunction,SMDPad,CuDef*%
D10*
%TO.P,J1,6*%
%TO.N,/GND*%
G36*
X141319025Y-99510304D02*
G01*
X141318087Y-99510019D01*
X141317222Y-99509557D01*
X141316464Y-99508936D01*
X141315843Y-99508178D01*
X141315381Y-99507313D01*
X141315096Y-99506375D01*
X141315000Y-99505400D01*
X141315000Y-97105400D01*
X141315096Y-97104425D01*
X141315381Y-97103487D01*
X141315843Y-97102622D01*
X141316464Y-97101864D01*
X141317222Y-97101243D01*
X141318087Y-97100781D01*
X141319025Y-97100496D01*
X141320000Y-97100400D01*
X142920000Y-97100400D01*
X142920975Y-97100496D01*
X142921913Y-97100781D01*
X142922778Y-97101243D01*
X142923536Y-97101864D01*
X142924157Y-97102622D01*
X142924619Y-97103487D01*
X142924904Y-97104425D01*
X142925000Y-97105400D01*
X142925000Y-98100400D01*
X143870000Y-98100400D01*
X143870975Y-98100496D01*
X143871913Y-98100781D01*
X143872778Y-98101243D01*
X143873536Y-98101864D01*
X143874157Y-98102622D01*
X143874619Y-98103487D01*
X143874904Y-98104425D01*
X143875000Y-98105400D01*
X143875000Y-99205400D01*
X143874904Y-99206375D01*
X143874619Y-99207313D01*
X143874157Y-99208178D01*
X143873536Y-99208936D01*
X143573536Y-99508936D01*
X143572778Y-99509557D01*
X143571913Y-99510019D01*
X143570975Y-99510304D01*
X143570000Y-99510400D01*
X141320000Y-99510400D01*
X141319025Y-99510304D01*
G37*
%TD.AperFunction*%
%TA.AperFunction,SMDPad,CuDef*%
G36*
X151069025Y-99510304D02*
G01*
X151068087Y-99510019D01*
X151067222Y-99509557D01*
X151066464Y-99508936D01*
X150766464Y-99208936D01*
X150765843Y-99208178D01*
X150765381Y-99207313D01*
X150765096Y-99206375D01*
X150765000Y-99205400D01*
X150765000Y-98105400D01*
X150765096Y-98104425D01*
X150765381Y-98103487D01*
X150765843Y-98102622D01*
X150766464Y-98101864D01*
X150767222Y-98101243D01*
X150768087Y-98100781D01*
X150769025Y-98100496D01*
X150770000Y-98100400D01*
X151715000Y-98100400D01*
X151715000Y-97105400D01*
X151715096Y-97104425D01*
X151715381Y-97103487D01*
X151715843Y-97102622D01*
X151716464Y-97101864D01*
X151717222Y-97101243D01*
X151718087Y-97100781D01*
X151719025Y-97100496D01*
X151720000Y-97100400D01*
X153320000Y-97100400D01*
X153320975Y-97100496D01*
X153321913Y-97100781D01*
X153322778Y-97101243D01*
X153323536Y-97101864D01*
X153324157Y-97102622D01*
X153324619Y-97103487D01*
X153324904Y-97104425D01*
X153325000Y-97105400D01*
X153325000Y-99505400D01*
X153324904Y-99506375D01*
X153324619Y-99507313D01*
X153324157Y-99508178D01*
X153323536Y-99508936D01*
X153322778Y-99509557D01*
X153321913Y-99510019D01*
X153320975Y-99510304D01*
X153320000Y-99510400D01*
X151070000Y-99510400D01*
X151069025Y-99510304D01*
G37*
%TD.AperFunction*%
D11*
X142120000Y-94005400D03*
X152520000Y-94005400D03*
D12*
X144970000Y-100405400D03*
X149670000Y-100405400D03*
D13*
%TO.P,J1,1*%
%TO.N,Net-(F1-Pad2)*%
X148620000Y-98630400D03*
%TO.P,J1,2*%
%TO.N,Net-(J1-Pad2)*%
X147970000Y-98630400D03*
%TO.P,J1,3*%
%TO.N,Net-(J1-Pad3)*%
X147320000Y-98630400D03*
%TO.P,J1,4*%
%TO.N,N/C*%
X146670000Y-98630400D03*
%TO.P,J1,5*%
%TO.N,/GND*%
X146020000Y-98630400D03*
%TD*%
D14*
%TO.P,X1,4*%
%TO.N,/GND*%
X148520000Y-124648000D03*
%TO.P,X1,3*%
%TO.N,Net-(C2-Pad1)*%
X146120000Y-124648000D03*
%TO.P,X1,2*%
%TO.N,/GND*%
X146120000Y-122748000D03*
%TO.P,X1,1*%
%TO.N,Net-(C1-Pad1)*%
X148520000Y-122748000D03*
%TD*%
D15*
%TO.P,U1,44*%
%TO.N,/AVCC*%
X153020000Y-109538000D03*
%TO.P,U1,43*%
%TO.N,/GND*%
X153020000Y-110338000D03*
%TO.P,U1,42*%
%TO.N,N/C*%
X153020000Y-111138000D03*
%TO.P,U1,41*%
X153020000Y-111938000D03*
%TO.P,U1,40*%
X153020000Y-112738000D03*
%TO.P,U1,39*%
%TO.N,/A3*%
X153020000Y-113538000D03*
%TO.P,U1,38*%
%TO.N,/A2*%
X153020000Y-114338000D03*
%TO.P,U1,37*%
%TO.N,/A1*%
X153020000Y-115138000D03*
%TO.P,U1,36*%
%TO.N,/A0*%
X153020000Y-115938000D03*
%TO.P,U1,35*%
%TO.N,/GND*%
X153020000Y-116738000D03*
%TO.P,U1,34*%
%TO.N,/AVCC*%
X153020000Y-117538000D03*
D16*
%TO.P,U1,33*%
%TO.N,Net-(R2-Pad2)*%
X151320000Y-119238000D03*
%TO.P,U1,32*%
%TO.N,N/C*%
X150520000Y-119238000D03*
%TO.P,U1,31*%
%TO.N,/D5*%
X149720000Y-119238000D03*
%TO.P,U1,30*%
%TO.N,/D10*%
X148920000Y-119238000D03*
%TO.P,U1,29*%
%TO.N,/D9*%
X148120000Y-119238000D03*
%TO.P,U1,28*%
%TO.N,/D8*%
X147320000Y-119238000D03*
%TO.P,U1,27*%
%TO.N,/D6*%
X146520000Y-119238000D03*
%TO.P,U1,26*%
%TO.N,N/C*%
X145720000Y-119238000D03*
%TO.P,U1,25*%
%TO.N,/D4*%
X144920000Y-119238000D03*
%TO.P,U1,24*%
%TO.N,/AVCC*%
X144120000Y-119238000D03*
%TO.P,U1,23*%
%TO.N,/GND*%
X143320000Y-119238000D03*
D15*
%TO.P,U1,22*%
%TO.N,N/C*%
X141620000Y-117538000D03*
%TO.P,U1,21*%
%TO.N,/TXO*%
X141620000Y-116738000D03*
%TO.P,U1,20*%
%TO.N,/RXI*%
X141620000Y-115938000D03*
%TO.P,U1,19*%
%TO.N,/D2_SDA*%
X141620000Y-115138000D03*
%TO.P,U1,18*%
%TO.N,/D3_SCL*%
X141620000Y-114338000D03*
%TO.P,U1,17*%
%TO.N,Net-(C2-Pad1)*%
X141620000Y-113538000D03*
%TO.P,U1,16*%
%TO.N,Net-(C1-Pad1)*%
X141620000Y-112738000D03*
%TO.P,U1,15*%
%TO.N,/GND*%
X141620000Y-111938000D03*
%TO.P,U1,14*%
%TO.N,/AVCC*%
X141620000Y-111138000D03*
%TO.P,U1,13*%
%TO.N,/RESET*%
X141620000Y-110338000D03*
%TO.P,U1,12*%
%TO.N,N/C*%
X141620000Y-109538000D03*
D16*
%TO.P,U1,11*%
%TO.N,/MISO*%
X143320000Y-107838000D03*
%TO.P,U1,10*%
%TO.N,/MOSI*%
X144120000Y-107838000D03*
%TO.P,U1,9*%
%TO.N,/SCK*%
X144920000Y-107838000D03*
%TO.P,U1,8*%
%TO.N,N/C*%
X145720000Y-107838000D03*
%TO.P,U1,7*%
%TO.N,/V_USB*%
X146520000Y-107838000D03*
%TO.P,U1,6*%
%TO.N,Net-(C8-Pad2)*%
X147320000Y-107838000D03*
%TO.P,U1,5*%
%TO.N,/GND*%
X148120000Y-107838000D03*
%TO.P,U1,4*%
%TO.N,/D+*%
X148920000Y-107838000D03*
%TO.P,U1,3*%
%TO.N,/D-*%
X149720000Y-107838000D03*
%TO.P,U1,2*%
%TO.N,/AVCC*%
X150520000Y-107838000D03*
%TO.P,U1,1*%
%TO.N,/D7*%
X151320000Y-107838000D03*
%TD*%
%TO.P,R4,2*%
%TO.N,Net-(J1-Pad2)*%
%TA.AperFunction,SMDPad,CuDef*%
G36*
G01*
X152548000Y-101048000D02*
X151998000Y-101048000D01*
G75*
G02*
X151798000Y-100848000I0J200000D01*
G01*
X151798000Y-100448000D01*
G75*
G02*
X151998000Y-100248000I200000J0D01*
G01*
X152548000Y-100248000D01*
G75*
G02*
X152748000Y-100448000I0J-200000D01*
G01*
X152748000Y-100848000D01*
G75*
G02*
X152548000Y-101048000I-200000J0D01*
G01*
G37*
%TD.AperFunction*%
%TO.P,R4,1*%
%TO.N,/D-*%
%TA.AperFunction,SMDPad,CuDef*%
G36*
G01*
X152548000Y-102698000D02*
X151998000Y-102698000D01*
G75*
G02*
X151798000Y-102498000I0J200000D01*
G01*
X151798000Y-102098000D01*
G75*
G02*
X151998000Y-101898000I200000J0D01*
G01*
X152548000Y-101898000D01*
G75*
G02*
X152748000Y-102098000I0J-200000D01*
G01*
X152748000Y-102498000D01*
G75*
G02*
X152548000Y-102698000I-200000J0D01*
G01*
G37*
%TD.AperFunction*%
%TD*%
%TO.P,R3,2*%
%TO.N,Net-(J1-Pad3)*%
%TA.AperFunction,SMDPad,CuDef*%
G36*
G01*
X142642000Y-101048000D02*
X142092000Y-101048000D01*
G75*
G02*
X141892000Y-100848000I0J200000D01*
G01*
X141892000Y-100448000D01*
G75*
G02*
X142092000Y-100248000I200000J0D01*
G01*
X142642000Y-100248000D01*
G75*
G02*
X142842000Y-100448000I0J-200000D01*
G01*
X142842000Y-100848000D01*
G75*
G02*
X142642000Y-101048000I-200000J0D01*
G01*
G37*
%TD.AperFunction*%
%TO.P,R3,1*%
%TO.N,/D+*%
%TA.AperFunction,SMDPad,CuDef*%
G36*
G01*
X142642000Y-102698000D02*
X142092000Y-102698000D01*
G75*
G02*
X141892000Y-102498000I0J200000D01*
G01*
X141892000Y-102098000D01*
G75*
G02*
X142092000Y-101898000I200000J0D01*
G01*
X142642000Y-101898000D01*
G75*
G02*
X142842000Y-102098000I0J-200000D01*
G01*
X142842000Y-102498000D01*
G75*
G02*
X142642000Y-102698000I-200000J0D01*
G01*
G37*
%TD.AperFunction*%
%TD*%
%TO.P,R2,2*%
%TO.N,Net-(R2-Pad2)*%
%TA.AperFunction,SMDPad,CuDef*%
G36*
G01*
X152190000Y-121560000D02*
X152190000Y-121010000D01*
G75*
G02*
X152390000Y-120810000I200000J0D01*
G01*
X152790000Y-120810000D01*
G75*
G02*
X152990000Y-121010000I0J-200000D01*
G01*
X152990000Y-121560000D01*
G75*
G02*
X152790000Y-121760000I-200000J0D01*
G01*
X152390000Y-121760000D01*
G75*
G02*
X152190000Y-121560000I0J200000D01*
G01*
G37*
%TD.AperFunction*%
%TO.P,R2,1*%
%TO.N,/GND*%
%TA.AperFunction,SMDPad,CuDef*%
G36*
G01*
X150540000Y-121560000D02*
X150540000Y-121010000D01*
G75*
G02*
X150740000Y-120810000I200000J0D01*
G01*
X151140000Y-120810000D01*
G75*
G02*
X151340000Y-121010000I0J-200000D01*
G01*
X151340000Y-121560000D01*
G75*
G02*
X151140000Y-121760000I-200000J0D01*
G01*
X150740000Y-121760000D01*
G75*
G02*
X150540000Y-121560000I0J200000D01*
G01*
G37*
%TD.AperFunction*%
%TD*%
%TO.P,R1,2*%
%TO.N,/RESET*%
%TA.AperFunction,SMDPad,CuDef*%
G36*
G01*
X143489000Y-105327000D02*
X144039000Y-105327000D01*
G75*
G02*
X144239000Y-105527000I0J-200000D01*
G01*
X144239000Y-105927000D01*
G75*
G02*
X144039000Y-106127000I-200000J0D01*
G01*
X143489000Y-106127000D01*
G75*
G02*
X143289000Y-105927000I0J200000D01*
G01*
X143289000Y-105527000D01*
G75*
G02*
X143489000Y-105327000I200000J0D01*
G01*
G37*
%TD.AperFunction*%
%TO.P,R1,1*%
%TO.N,/AVCC*%
%TA.AperFunction,SMDPad,CuDef*%
G36*
G01*
X143489000Y-103677000D02*
X144039000Y-103677000D01*
G75*
G02*
X144239000Y-103877000I0J-200000D01*
G01*
X144239000Y-104277000D01*
G75*
G02*
X144039000Y-104477000I-200000J0D01*
G01*
X143489000Y-104477000D01*
G75*
G02*
X143289000Y-104277000I0J200000D01*
G01*
X143289000Y-103877000D01*
G75*
G02*
X143489000Y-103677000I200000J0D01*
G01*
G37*
%TD.AperFunction*%
%TD*%
%TO.P,F1,2*%
%TO.N,Net-(F1-Pad2)*%
%TA.AperFunction,SMDPad,CuDef*%
G36*
G01*
X148095000Y-103368000D02*
X148095000Y-102118000D01*
G75*
G02*
X148345000Y-101868000I250000J0D01*
G01*
X149095000Y-101868000D01*
G75*
G02*
X149345000Y-102118000I0J-250000D01*
G01*
X149345000Y-103368000D01*
G75*
G02*
X149095000Y-103618000I-250000J0D01*
G01*
X148345000Y-103618000D01*
G75*
G02*
X148095000Y-103368000I0J250000D01*
G01*
G37*
%TD.AperFunction*%
%TO.P,F1,1*%
%TO.N,/V_USB*%
%TA.AperFunction,SMDPad,CuDef*%
G36*
G01*
X145295000Y-103368000D02*
X145295000Y-102118000D01*
G75*
G02*
X145545000Y-101868000I250000J0D01*
G01*
X146295000Y-101868000D01*
G75*
G02*
X146545000Y-102118000I0J-250000D01*
G01*
X146545000Y-103368000D01*
G75*
G02*
X146295000Y-103618000I-250000J0D01*
G01*
X145545000Y-103618000D01*
G75*
G02*
X145295000Y-103368000I0J250000D01*
G01*
G37*
%TD.AperFunction*%
%TD*%
%TO.P,C8,2*%
%TO.N,Net-(C8-Pad2)*%
%TA.AperFunction,SMDPad,CuDef*%
G36*
G01*
X150626000Y-105227000D02*
X151126000Y-105227000D01*
G75*
G02*
X151351000Y-105452000I0J-225000D01*
G01*
X151351000Y-105902000D01*
G75*
G02*
X151126000Y-106127000I-225000J0D01*
G01*
X150626000Y-106127000D01*
G75*
G02*
X150401000Y-105902000I0J225000D01*
G01*
X150401000Y-105452000D01*
G75*
G02*
X150626000Y-105227000I225000J0D01*
G01*
G37*
%TD.AperFunction*%
%TO.P,C8,1*%
%TO.N,/GND*%
%TA.AperFunction,SMDPad,CuDef*%
G36*
G01*
X150626000Y-103677000D02*
X151126000Y-103677000D01*
G75*
G02*
X151351000Y-103902000I0J-225000D01*
G01*
X151351000Y-104352000D01*
G75*
G02*
X151126000Y-104577000I-225000J0D01*
G01*
X150626000Y-104577000D01*
G75*
G02*
X150401000Y-104352000I0J225000D01*
G01*
X150401000Y-103902000D01*
G75*
G02*
X150626000Y-103677000I225000J0D01*
G01*
G37*
%TD.AperFunction*%
%TD*%
%TO.P,C7,2*%
%TO.N,/GND*%
%TA.AperFunction,SMDPad,CuDef*%
G36*
G01*
X153031000Y-104577000D02*
X152531000Y-104577000D01*
G75*
G02*
X152306000Y-104352000I0J225000D01*
G01*
X152306000Y-103902000D01*
G75*
G02*
X152531000Y-103677000I225000J0D01*
G01*
X153031000Y-103677000D01*
G75*
G02*
X153256000Y-103902000I0J-225000D01*
G01*
X153256000Y-104352000D01*
G75*
G02*
X153031000Y-104577000I-225000J0D01*
G01*
G37*
%TD.AperFunction*%
%TO.P,C7,1*%
%TO.N,/AVCC*%
%TA.AperFunction,SMDPad,CuDef*%
G36*
G01*
X153031000Y-106127000D02*
X152531000Y-106127000D01*
G75*
G02*
X152306000Y-105902000I0J225000D01*
G01*
X152306000Y-105452000D01*
G75*
G02*
X152531000Y-105227000I225000J0D01*
G01*
X153031000Y-105227000D01*
G75*
G02*
X153256000Y-105452000I0J-225000D01*
G01*
X153256000Y-105902000D01*
G75*
G02*
X153031000Y-106127000I-225000J0D01*
G01*
G37*
%TD.AperFunction*%
%TD*%
%TO.P,C6,2*%
%TO.N,/GND*%
%TA.AperFunction,SMDPad,CuDef*%
G36*
G01*
X142109000Y-104577000D02*
X141609000Y-104577000D01*
G75*
G02*
X141384000Y-104352000I0J225000D01*
G01*
X141384000Y-103902000D01*
G75*
G02*
X141609000Y-103677000I225000J0D01*
G01*
X142109000Y-103677000D01*
G75*
G02*
X142334000Y-103902000I0J-225000D01*
G01*
X142334000Y-104352000D01*
G75*
G02*
X142109000Y-104577000I-225000J0D01*
G01*
G37*
%TD.AperFunction*%
%TO.P,C6,1*%
%TO.N,/AVCC*%
%TA.AperFunction,SMDPad,CuDef*%
G36*
G01*
X142109000Y-106127000D02*
X141609000Y-106127000D01*
G75*
G02*
X141384000Y-105902000I0J225000D01*
G01*
X141384000Y-105452000D01*
G75*
G02*
X141609000Y-105227000I225000J0D01*
G01*
X142109000Y-105227000D01*
G75*
G02*
X142334000Y-105452000I0J-225000D01*
G01*
X142334000Y-105902000D01*
G75*
G02*
X142109000Y-106127000I-225000J0D01*
G01*
G37*
%TD.AperFunction*%
%TD*%
%TO.P,C5,2*%
%TO.N,/GND*%
%TA.AperFunction,SMDPad,CuDef*%
G36*
G01*
X151440000Y-122813000D02*
X151440000Y-123313000D01*
G75*
G02*
X151215000Y-123538000I-225000J0D01*
G01*
X150765000Y-123538000D01*
G75*
G02*
X150540000Y-123313000I0J225000D01*
G01*
X150540000Y-122813000D01*
G75*
G02*
X150765000Y-122588000I225000J0D01*
G01*
X151215000Y-122588000D01*
G75*
G02*
X151440000Y-122813000I0J-225000D01*
G01*
G37*
%TD.AperFunction*%
%TO.P,C5,1*%
%TO.N,/AVCC*%
%TA.AperFunction,SMDPad,CuDef*%
G36*
G01*
X152990000Y-122813000D02*
X152990000Y-123313000D01*
G75*
G02*
X152765000Y-123538000I-225000J0D01*
G01*
X152315000Y-123538000D01*
G75*
G02*
X152090000Y-123313000I0J225000D01*
G01*
X152090000Y-122813000D01*
G75*
G02*
X152315000Y-122588000I225000J0D01*
G01*
X152765000Y-122588000D01*
G75*
G02*
X152990000Y-122813000I0J-225000D01*
G01*
G37*
%TD.AperFunction*%
%TD*%
%TO.P,C4,2*%
%TO.N,/GND*%
%TA.AperFunction,SMDPad,CuDef*%
G36*
G01*
X142550000Y-122813000D02*
X142550000Y-123313000D01*
G75*
G02*
X142325000Y-123538000I-225000J0D01*
G01*
X141875000Y-123538000D01*
G75*
G02*
X141650000Y-123313000I0J225000D01*
G01*
X141650000Y-122813000D01*
G75*
G02*
X141875000Y-122588000I225000J0D01*
G01*
X142325000Y-122588000D01*
G75*
G02*
X142550000Y-122813000I0J-225000D01*
G01*
G37*
%TD.AperFunction*%
%TO.P,C4,1*%
%TO.N,/AVCC*%
%TA.AperFunction,SMDPad,CuDef*%
G36*
G01*
X144100000Y-122813000D02*
X144100000Y-123313000D01*
G75*
G02*
X143875000Y-123538000I-225000J0D01*
G01*
X143425000Y-123538000D01*
G75*
G02*
X143200000Y-123313000I0J225000D01*
G01*
X143200000Y-122813000D01*
G75*
G02*
X143425000Y-122588000I225000J0D01*
G01*
X143875000Y-122588000D01*
G75*
G02*
X144100000Y-122813000I0J-225000D01*
G01*
G37*
%TD.AperFunction*%
%TD*%
%TO.P,C3,2*%
%TO.N,/GND*%
%TA.AperFunction,SMDPad,CuDef*%
G36*
G01*
X142550000Y-121035000D02*
X142550000Y-121535000D01*
G75*
G02*
X142325000Y-121760000I-225000J0D01*
G01*
X141875000Y-121760000D01*
G75*
G02*
X141650000Y-121535000I0J225000D01*
G01*
X141650000Y-121035000D01*
G75*
G02*
X141875000Y-120810000I225000J0D01*
G01*
X142325000Y-120810000D01*
G75*
G02*
X142550000Y-121035000I0J-225000D01*
G01*
G37*
%TD.AperFunction*%
%TO.P,C3,1*%
%TO.N,/AVCC*%
%TA.AperFunction,SMDPad,CuDef*%
G36*
G01*
X144100000Y-121035000D02*
X144100000Y-121535000D01*
G75*
G02*
X143875000Y-121760000I-225000J0D01*
G01*
X143425000Y-121760000D01*
G75*
G02*
X143200000Y-121535000I0J225000D01*
G01*
X143200000Y-121035000D01*
G75*
G02*
X143425000Y-120810000I225000J0D01*
G01*
X143875000Y-120810000D01*
G75*
G02*
X144100000Y-121035000I0J-225000D01*
G01*
G37*
%TD.AperFunction*%
%TD*%
%TO.P,C2,2*%
%TO.N,/GND*%
%TA.AperFunction,SMDPad,CuDef*%
G36*
G01*
X142550000Y-124591000D02*
X142550000Y-125091000D01*
G75*
G02*
X142325000Y-125316000I-225000J0D01*
G01*
X141875000Y-125316000D01*
G75*
G02*
X141650000Y-125091000I0J225000D01*
G01*
X141650000Y-124591000D01*
G75*
G02*
X141875000Y-124366000I225000J0D01*
G01*
X142325000Y-124366000D01*
G75*
G02*
X142550000Y-124591000I0J-225000D01*
G01*
G37*
%TD.AperFunction*%
%TO.P,C2,1*%
%TO.N,Net-(C2-Pad1)*%
%TA.AperFunction,SMDPad,CuDef*%
G36*
G01*
X144100000Y-124591000D02*
X144100000Y-125091000D01*
G75*
G02*
X143875000Y-125316000I-225000J0D01*
G01*
X143425000Y-125316000D01*
G75*
G02*
X143200000Y-125091000I0J225000D01*
G01*
X143200000Y-124591000D01*
G75*
G02*
X143425000Y-124366000I225000J0D01*
G01*
X143875000Y-124366000D01*
G75*
G02*
X144100000Y-124591000I0J-225000D01*
G01*
G37*
%TD.AperFunction*%
%TD*%
%TO.P,C1,2*%
%TO.N,/GND*%
%TA.AperFunction,SMDPad,CuDef*%
G36*
G01*
X152090000Y-125091000D02*
X152090000Y-124591000D01*
G75*
G02*
X152315000Y-124366000I225000J0D01*
G01*
X152765000Y-124366000D01*
G75*
G02*
X152990000Y-124591000I0J-225000D01*
G01*
X152990000Y-125091000D01*
G75*
G02*
X152765000Y-125316000I-225000J0D01*
G01*
X152315000Y-125316000D01*
G75*
G02*
X152090000Y-125091000I0J225000D01*
G01*
G37*
%TD.AperFunction*%
%TO.P,C1,1*%
%TO.N,Net-(C1-Pad1)*%
%TA.AperFunction,SMDPad,CuDef*%
G36*
G01*
X150540000Y-125091000D02*
X150540000Y-124591000D01*
G75*
G02*
X150765000Y-124366000I225000J0D01*
G01*
X151215000Y-124366000D01*
G75*
G02*
X151440000Y-124591000I0J-225000D01*
G01*
X151440000Y-125091000D01*
G75*
G02*
X151215000Y-125316000I-225000J0D01*
G01*
X150765000Y-125316000D01*
G75*
G02*
X150540000Y-125091000I0J225000D01*
G01*
G37*
%TD.AperFunction*%
%TD*%
D17*
%TO.P,J3,12*%
%TO.N,/D10*%
X154940000Y-124460000D03*
%TO.P,J3,11*%
%TO.N,/MOSI*%
X154940000Y-121920000D03*
%TO.P,J3,10*%
%TO.N,/MISO*%
X154940000Y-119380000D03*
%TO.P,J3,9*%
%TO.N,/SCK*%
X154940000Y-116840000D03*
%TO.P,J3,8*%
%TO.N,/A0*%
X154940000Y-114300000D03*
%TO.P,J3,7*%
%TO.N,/A1*%
X154940000Y-111760000D03*
%TO.P,J3,6*%
%TO.N,/A2*%
X154940000Y-109220000D03*
%TO.P,J3,5*%
%TO.N,/A3*%
X154940000Y-106680000D03*
%TO.P,J3,4*%
%TO.N,/AVCC*%
X154940000Y-104140000D03*
%TO.P,J3,3*%
%TO.N,/RESET*%
X154940000Y-101600000D03*
%TO.P,J3,2*%
%TO.N,/GND*%
X154940000Y-99060000D03*
%TO.P,J3,1*%
%TO.N,/AVCC*%
X154940000Y-96520000D03*
%TD*%
%TO.P,J2,12*%
%TO.N,/D9*%
X139700000Y-124460000D03*
%TO.P,J2,11*%
%TO.N,/D8*%
X139700000Y-121920000D03*
%TO.P,J2,10*%
%TO.N,/D7*%
X139700000Y-119380000D03*
%TO.P,J2,9*%
%TO.N,/D6*%
X139700000Y-116840000D03*
%TO.P,J2,8*%
%TO.N,/D5*%
X139700000Y-114300000D03*
%TO.P,J2,7*%
%TO.N,/D4*%
X139700000Y-111760000D03*
%TO.P,J2,6*%
%TO.N,/D3_SCL*%
X139700000Y-109220000D03*
%TO.P,J2,5*%
%TO.N,/D2_SDA*%
X139700000Y-106680000D03*
%TO.P,J2,4*%
%TO.N,/GND*%
X139700000Y-104140000D03*
%TO.P,J2,3*%
X139700000Y-101600000D03*
%TO.P,J2,2*%
%TO.N,/RXI*%
X139700000Y-99060000D03*
%TO.P,J2,1*%
%TO.N,/TXO*%
X139700000Y-96520000D03*
%TD*%
D18*
%TO.P,D1,1*%
%TO.N,/AVCC*%
X148970000Y-105537000D03*
%TO.P,D1,2*%
%TO.N,/V_USB*%
X145670000Y-105537000D03*
%TD*%
D19*
%TO.N,/GND*%
X147228900Y-101086500D03*
X147468500Y-106058400D03*
%TO.N,Net-(C1-Pad1)*%
X146233600Y-113957400D03*
X149733900Y-122782500D03*
%TO.N,Net-(C2-Pad1)*%
X146327000Y-114809200D03*
X144906400Y-124706600D03*
%TO.N,/AVCC*%
X144686900Y-111099000D03*
X142856100Y-104946500D03*
X145511800Y-116232800D03*
%TO.N,Net-(C8-Pad2)*%
X146868200Y-104893200D03*
X150108700Y-104909700D03*
%TO.N,Net-(J1-Pad3)*%
X147008300Y-99667700D03*
X143369300Y-100907400D03*
%TO.N,/D9*%
X147442100Y-120889400D03*
%TO.N,/D8*%
X146594200Y-120494500D03*
%TO.N,/D7*%
X151320000Y-109105100D03*
%TO.N,/D6*%
X145956100Y-117842200D03*
%TO.N,/D5*%
X146222800Y-117003400D03*
%TO.N,/D4*%
X144920000Y-116773000D03*
%TO.N,/D3_SCL*%
X142876800Y-113871400D03*
%TO.N,/D2_SDA*%
X143079200Y-114800900D03*
%TO.N,/RXI*%
X143930200Y-114521700D03*
%TO.N,/TXO*%
X144617500Y-113871400D03*
%TO.N,/D10*%
X149484700Y-120501900D03*
%TO.N,/MOSI*%
X149162000Y-114689300D03*
%TO.N,/MISO*%
X147571400Y-113217300D03*
%TO.N,/SCK*%
X148451000Y-112398900D03*
%TO.N,/A1*%
X151757000Y-114943000D03*
%TO.N,/A2*%
X151334900Y-112825100D03*
%TO.N,/A3*%
X151766200Y-111379400D03*
%TO.N,/RESET*%
X145071700Y-104310200D03*
%TO.N,/D-*%
X149512200Y-109096100D03*
X151475900Y-103223000D03*
%TD*%
D20*
%TO.N,/GND*%
X150729000Y-111497200D02*
X150230100Y-111996100D01*
X150230100Y-111996100D02*
X150230100Y-114998400D01*
X151969700Y-110338000D02*
X151534300Y-110773400D01*
X151534300Y-110773400D02*
X151452800Y-110773400D01*
X151452800Y-110773400D02*
X150729000Y-111497200D01*
X148120000Y-108888300D02*
X150729000Y-111497200D01*
X148120000Y-107838000D02*
X148120000Y-108888300D01*
X153020000Y-110338000D02*
X151969700Y-110338000D01*
X150230100Y-114998400D02*
X151969700Y-116738000D01*
X147268000Y-114928100D02*
X147639600Y-115299700D01*
X147639600Y-115299700D02*
X149928800Y-115299700D01*
X149928800Y-115299700D02*
X150230100Y-114998400D01*
X147468500Y-106058400D02*
X147468500Y-106095100D01*
X147468500Y-106095100D02*
X148120000Y-106746600D01*
X148120000Y-106746600D02*
X148120000Y-107838000D01*
X147268000Y-114928100D02*
X146563600Y-115632500D01*
X146563600Y-115632500D02*
X144645500Y-115632500D01*
X144645500Y-115632500D02*
X143320000Y-116958000D01*
X143320000Y-116958000D02*
X143320000Y-119238000D01*
X143320000Y-119238000D02*
X143320000Y-120288300D01*
X143320000Y-120288300D02*
X143096700Y-120288300D01*
X143096700Y-120288300D02*
X142100000Y-121285000D01*
X152781000Y-104127000D02*
X150876000Y-104127000D01*
X153274600Y-99060000D02*
X153274600Y-103633400D01*
X153274600Y-103633400D02*
X152781000Y-104127000D01*
X150516500Y-121708500D02*
X150940000Y-121285000D01*
X147486900Y-122748000D02*
X147486900Y-122050300D01*
X147486900Y-122050300D02*
X147828700Y-121708500D01*
X147828700Y-121708500D02*
X150516500Y-121708500D01*
X150990000Y-123063000D02*
X150990000Y-122182000D01*
X150990000Y-122182000D02*
X150516500Y-121708500D01*
X152540000Y-124841000D02*
X150990000Y-123291000D01*
X150990000Y-123291000D02*
X150990000Y-123063000D01*
X147486900Y-122748000D02*
X147486900Y-123447100D01*
X147486900Y-123447100D02*
X147787500Y-123747700D01*
X147787500Y-123747700D02*
X148520000Y-123747700D01*
X146120000Y-122748000D02*
X147486900Y-122748000D01*
X141620000Y-111938000D02*
X145099400Y-111938000D01*
X145099400Y-111938000D02*
X147268000Y-114106600D01*
X147268000Y-114106600D02*
X147268000Y-114928100D01*
X146020000Y-98630400D02*
X146020000Y-99455700D01*
X146020000Y-99455700D02*
X145070600Y-99455700D01*
X145070600Y-99455700D02*
X144970000Y-99355100D01*
X144970000Y-100405400D02*
X146270300Y-100405400D01*
X147228900Y-101086500D02*
X146951400Y-101086500D01*
X146951400Y-101086500D02*
X146270300Y-100405400D01*
X144970000Y-100405400D02*
X144970000Y-99355100D01*
X142120000Y-99180000D02*
X142120000Y-98305400D01*
X139700000Y-101600000D02*
X142120000Y-99180000D01*
X142120000Y-99180000D02*
X144794900Y-99180000D01*
X144794900Y-99180000D02*
X144970000Y-99355100D01*
X153020000Y-116738000D02*
X151969700Y-116738000D01*
X139700000Y-104127000D02*
X139700000Y-101600000D01*
X153274600Y-99060000D02*
X152520000Y-98305400D01*
X154940000Y-99060000D02*
X153274600Y-99060000D01*
X142100000Y-123876100D02*
X142100000Y-124841000D01*
X142100000Y-123063000D02*
X142100000Y-123876100D01*
X142100000Y-123876100D02*
X144991900Y-123876100D01*
X144991900Y-123876100D02*
X145219700Y-123648300D01*
X145219700Y-123648300D02*
X146120000Y-123648300D01*
X146120000Y-122748000D02*
X146120000Y-123648300D01*
X142100000Y-121285000D02*
X142100000Y-123063000D01*
X142120000Y-98305400D02*
X142120000Y-94005400D01*
X152520000Y-94005400D02*
X152520000Y-98305400D01*
X150970300Y-100405400D02*
X150970300Y-99855100D01*
X150970300Y-99855100D02*
X152520000Y-98305400D01*
X148520000Y-124648000D02*
X148520000Y-123747700D01*
X149670000Y-100405400D02*
X150970300Y-100405400D01*
X139700000Y-104127000D02*
X139700000Y-104140000D01*
X139700000Y-104127000D02*
X141859000Y-104127000D01*
%TO.N,Net-(C1-Pad1)*%
X141620000Y-112738000D02*
X145014200Y-112738000D01*
X145014200Y-112738000D02*
X146233600Y-113957400D01*
X149733900Y-122782500D02*
X149733900Y-123584900D01*
X149733900Y-123584900D02*
X150990000Y-124841000D01*
X149120200Y-122748000D02*
X149699400Y-122748000D01*
X149699400Y-122748000D02*
X149733900Y-122782500D01*
X148520000Y-122748000D02*
X149120200Y-122748000D01*
%TO.N,Net-(C2-Pad1)*%
X141620000Y-113538000D02*
X142361300Y-113538000D01*
X142361300Y-113538000D02*
X142628200Y-113271100D01*
X142628200Y-113271100D02*
X144866200Y-113271100D01*
X144866200Y-113271100D02*
X145217800Y-113622700D01*
X145217800Y-113622700D02*
X145217800Y-113802800D01*
X145217800Y-113802800D02*
X146224100Y-114809100D01*
X146224100Y-114809100D02*
X146327000Y-114809100D01*
X146327000Y-114809100D02*
X146327000Y-114809200D01*
X145619900Y-124648000D02*
X144965000Y-124648000D01*
X144965000Y-124648000D02*
X144906400Y-124706600D01*
X143650000Y-124841000D02*
X144772000Y-124841000D01*
X144772000Y-124841000D02*
X144906400Y-124706600D01*
X146120000Y-124648000D02*
X145619900Y-124648000D01*
%TO.N,/AVCC*%
X141620000Y-111138000D02*
X142670300Y-111138000D01*
X144686900Y-111099000D02*
X142709300Y-111099000D01*
X142709300Y-111099000D02*
X142670300Y-111138000D01*
X142856100Y-104946500D02*
X142125600Y-105677000D01*
X142125600Y-105677000D02*
X141859000Y-105677000D01*
X142856100Y-104946500D02*
X142894500Y-104946500D01*
X142894500Y-104946500D02*
X143764000Y-104077000D01*
X145511800Y-116232800D02*
X145451700Y-116172700D01*
X145451700Y-116172700D02*
X144671400Y-116172700D01*
X144671400Y-116172700D02*
X144120000Y-116724100D01*
X144120000Y-116724100D02*
X144120000Y-119238000D01*
X151969700Y-117538000D02*
X150664500Y-116232800D01*
X150664500Y-116232800D02*
X145511800Y-116232800D01*
X144120000Y-119238000D02*
X144120000Y-120815000D01*
X144120000Y-120815000D02*
X143650000Y-121285000D01*
X153020000Y-109538000D02*
X151969700Y-109538000D01*
X151783100Y-106674900D02*
X151969700Y-106861500D01*
X151969700Y-106861500D02*
X151969700Y-109538000D01*
X151783100Y-106674900D02*
X152781000Y-105677000D01*
X150632800Y-106674900D02*
X151783100Y-106674900D01*
X154940000Y-104140000D02*
X153403000Y-105677000D01*
X153403000Y-105677000D02*
X152781000Y-105677000D01*
X152494900Y-117538000D02*
X153291300Y-118334400D01*
X153291300Y-118334400D02*
X153291300Y-122311700D01*
X153291300Y-122311700D02*
X152540000Y-123063000D01*
X152494900Y-117538000D02*
X151969700Y-117538000D01*
X153020000Y-117538000D02*
X152494900Y-117538000D01*
X150632800Y-106674900D02*
X150520000Y-106787700D01*
X150520000Y-106787700D02*
X150520000Y-107838000D01*
X149720300Y-105537000D02*
X149720300Y-105762400D01*
X149720300Y-105762400D02*
X150632800Y-106674900D01*
X148970000Y-105537000D02*
X149720300Y-105537000D01*
X143650000Y-121285000D02*
X143650000Y-123063000D01*
%TO.N,Net-(C8-Pad2)*%
X150876000Y-105677000D02*
X150108700Y-104909700D01*
X146868200Y-104893200D02*
X146868200Y-106335900D01*
X146868200Y-106335900D02*
X147320000Y-106787700D01*
X147320000Y-107838000D02*
X147320000Y-106787700D01*
%TO.N,/V_USB*%
X146520000Y-107838000D02*
X146520000Y-106787700D01*
X145670000Y-105537000D02*
X145670000Y-106437300D01*
X145670000Y-106437300D02*
X146169600Y-106437300D01*
X146169600Y-106437300D02*
X146520000Y-106787700D01*
X145670000Y-105123600D02*
X145670000Y-105537000D01*
X145670000Y-105123600D02*
X145670000Y-104636700D01*
X145670000Y-104636700D02*
X145920000Y-104386700D01*
X145920000Y-104386700D02*
X145920000Y-102743000D01*
%TO.N,Net-(F1-Pad2)*%
X148720000Y-102743000D02*
X148369700Y-102392700D01*
X148369700Y-102392700D02*
X148369700Y-99455700D01*
X148369700Y-99455700D02*
X148620000Y-99205400D01*
X148620000Y-99205400D02*
X148620000Y-98630400D01*
%TO.N,Net-(J1-Pad2)*%
X152273000Y-100648000D02*
X152273000Y-101028000D01*
X152273000Y-101028000D02*
X149350000Y-103951000D01*
X149350000Y-103951000D02*
X148104800Y-103951000D01*
X148104800Y-103951000D02*
X147775300Y-103621500D01*
X147775300Y-103621500D02*
X147775300Y-101389100D01*
X147775300Y-101389100D02*
X147829200Y-101335200D01*
X147829200Y-101335200D02*
X147829200Y-98771200D01*
X147829200Y-98771200D02*
X147970000Y-98630400D01*
%TO.N,Net-(J1-Pad3)*%
X142367000Y-100648000D02*
X143109900Y-100648000D01*
X143109900Y-100648000D02*
X143369300Y-100907400D01*
X147008300Y-99667700D02*
X147220300Y-99455700D01*
X147220300Y-99455700D02*
X147320000Y-99455700D01*
X147320000Y-98630400D02*
X147320000Y-99455700D01*
%TO.N,/D9*%
X147442100Y-120889400D02*
X148043200Y-120288300D01*
X148043200Y-120288300D02*
X148120000Y-120288300D01*
X148120000Y-119238000D02*
X148120000Y-120288300D01*
%TO.N,/D8*%
X147320000Y-120288300D02*
X146800400Y-120288300D01*
X146800400Y-120288300D02*
X146594200Y-120494500D01*
X147320000Y-119238000D02*
X147320000Y-120288300D01*
%TO.N,/D7*%
X151320000Y-109105100D02*
X151320000Y-107838000D01*
%TO.N,/D6*%
X145956100Y-117842200D02*
X146301600Y-118187700D01*
X146301600Y-118187700D02*
X146520000Y-118187700D01*
X146520000Y-119238000D02*
X146520000Y-118187700D01*
%TO.N,/D5*%
X149720000Y-119238000D02*
X149720000Y-118187700D01*
X146222800Y-117003400D02*
X148535700Y-117003400D01*
X148535700Y-117003400D02*
X149720000Y-118187700D01*
%TO.N,/D4*%
X144920000Y-119238000D02*
X144920000Y-116773000D01*
%TO.N,/D3_SCL*%
X141620000Y-114338000D02*
X142670300Y-114338000D01*
X142876800Y-113871400D02*
X142670300Y-114077900D01*
X142670300Y-114077900D02*
X142670300Y-114338000D01*
%TO.N,/D2_SDA*%
X142670300Y-115138000D02*
X143007400Y-114800900D01*
X143007400Y-114800900D02*
X143079200Y-114800900D01*
X141620000Y-115138000D02*
X142670300Y-115138000D01*
%TO.N,/RXI*%
X143930200Y-114521700D02*
X143930200Y-114837400D01*
X143930200Y-114837400D02*
X142829600Y-115938000D01*
X142829600Y-115938000D02*
X141620000Y-115938000D01*
%TO.N,/TXO*%
X144617500Y-113871400D02*
X144617500Y-114790800D01*
X144617500Y-114790800D02*
X142670300Y-116738000D01*
X141620000Y-116738000D02*
X142670300Y-116738000D01*
%TO.N,/D10*%
X149484700Y-120501900D02*
X149271100Y-120288300D01*
X149271100Y-120288300D02*
X148920000Y-120288300D01*
X148920000Y-119238000D02*
X148920000Y-120288300D01*
%TO.N,/MOSI*%
X144120000Y-107838000D02*
X144120000Y-108916800D01*
X144120000Y-108916800D02*
X149162000Y-113958800D01*
X149162000Y-113958800D02*
X149162000Y-114689300D01*
%TO.N,/MISO*%
X143320000Y-108888300D02*
X143325200Y-108888300D01*
X143325200Y-108888300D02*
X147571400Y-113134500D01*
X147571400Y-113134500D02*
X147571400Y-113217300D01*
X143320000Y-107838000D02*
X143320000Y-108888300D01*
%TO.N,/SCK*%
X144920000Y-108888300D02*
X148430600Y-112398900D01*
X148430600Y-112398900D02*
X148451000Y-112398900D01*
X144920000Y-107838000D02*
X144920000Y-108888300D01*
%TO.N,/A0*%
X153020000Y-115938000D02*
X154070300Y-115938000D01*
X154940000Y-114300000D02*
X154940000Y-115068300D01*
X154940000Y-115068300D02*
X154070300Y-115938000D01*
%TO.N,/A1*%
X151969700Y-115138000D02*
X151774700Y-114943000D01*
X151774700Y-114943000D02*
X151757000Y-114943000D01*
X153020000Y-115138000D02*
X151969700Y-115138000D01*
%TO.N,/A2*%
X151969700Y-114338000D02*
X151334900Y-113703200D01*
X151334900Y-113703200D02*
X151334900Y-112825100D01*
X153020000Y-114338000D02*
X151969700Y-114338000D01*
%TO.N,/A3*%
X151969700Y-113538000D02*
X151969700Y-111582900D01*
X151969700Y-111582900D02*
X151766200Y-111379400D01*
X153020000Y-113538000D02*
X151969700Y-113538000D01*
%TO.N,/RESET*%
X143764000Y-105727000D02*
X142670300Y-106820700D01*
X142670300Y-106820700D02*
X142670300Y-110338000D01*
X145071700Y-104310200D02*
X143764000Y-105617900D01*
X143764000Y-105617900D02*
X143764000Y-105727000D01*
X141620000Y-110338000D02*
X142670300Y-110338000D01*
%TO.N,Net-(R2-Pad2)*%
X151320000Y-119238000D02*
X151320000Y-120288300D01*
X152590000Y-121285000D02*
X151593300Y-120288300D01*
X151593300Y-120288300D02*
X151320000Y-120288300D01*
%TO.N,/D+*%
X142367000Y-102298000D02*
X143101400Y-101563600D01*
X143101400Y-101563600D02*
X146536800Y-101563600D01*
X146536800Y-101563600D02*
X147134500Y-102161300D01*
X147134500Y-102161300D02*
X147134500Y-104169500D01*
X147134500Y-104169500D02*
X148068800Y-105103800D01*
X148068800Y-105103800D02*
X148068800Y-106129100D01*
X148068800Y-106129100D02*
X148727400Y-106787700D01*
X148727400Y-106787700D02*
X148920000Y-106787700D01*
X148920000Y-107838000D02*
X148920000Y-106787700D01*
%TO.N,/D-*%
X152273000Y-102298000D02*
X151475900Y-103095100D01*
X151475900Y-103095100D02*
X151475900Y-103223000D01*
X149512200Y-109096100D02*
X149720000Y-108888300D01*
X149720000Y-107838000D02*
X149720000Y-108888300D01*
%TD*%
M02*
