%FSLAX45Y45*%
G04 Gerber Fmt 4.5, Leading zero omitted, Abs format (unit mm)*
G04 Created by KiCad (PCBNEW (5.1.9)-1) date 2021-10-01 21:55:04*
%MOMM*%
%LPD*%
G01*
G04 APERTURE LIST*
%TA.AperFunction,Profile*%
%ADD10C,0.050000*%
%TD*%
%ADD11C,0.200000*%
%ADD12C,0.300000*%
G04 APERTURE END LIST*
D10*
X7000000Y-15895000D02*
X7000000Y-19261000D01*
X7000000Y-15895000D02*
G75*
G02*
X7030000Y-15865000I30000J0D01*
G01*
X7370000Y-15435000D02*
G75*
G02*
X7370000Y-15865000I0J-215000D01*
G01*
X7030000Y-15865000D02*
X7370000Y-15865000D01*
X7030000Y-15435000D02*
G75*
G02*
X7000000Y-15405000I0J30000D01*
G01*
X7370000Y-15435000D02*
X7030000Y-15435000D01*
X35500000Y-15895000D02*
X35500000Y-19261000D01*
X35500000Y-15405000D02*
G75*
G02*
X35470000Y-15435000I-30000J0D01*
G01*
X35130000Y-15865000D02*
G75*
G02*
X35130000Y-15435000I0J215000D01*
G01*
X35470000Y-15435000D02*
X35130000Y-15435000D01*
X35470000Y-15865000D02*
G75*
G02*
X35500000Y-15895000I0J-30000D01*
G01*
X35130000Y-15865000D02*
X35470000Y-15865000D01*
X35500000Y-19261000D02*
G75*
G02*
X35300000Y-19461000I-200000J0D01*
G01*
X35300000Y-10001000D02*
G75*
G02*
X35500000Y-10201000I0J-200000D01*
G01*
X7000000Y-10200000D02*
G75*
G02*
X7200000Y-10000000I200000J0D01*
G01*
X7200000Y-19461000D02*
G75*
G02*
X7000000Y-19261000I0J200000D01*
G01*
X7200000Y-19461000D02*
X35300000Y-19461000D01*
X7000000Y-10200000D02*
X7000000Y-15405000D01*
X35300000Y-10001000D02*
X7200000Y-10000000D01*
X35500000Y-15405000D02*
X35500000Y-10201000D01*
D11*
X10890000Y-16420000D02*
X11110000Y-16640000D01*
X11110000Y-16420000D02*
X10890000Y-16640000D01*
X12567500Y-10720000D02*
X12787500Y-10940000D01*
X12787500Y-10720000D02*
X12567500Y-10940000D01*
X20663800Y-16430000D02*
X20883800Y-16650000D01*
X20883800Y-16430000D02*
X20663800Y-16650000D01*
X22092500Y-10720000D02*
X22312500Y-10940000D01*
X22312500Y-10720000D02*
X22092500Y-10940000D01*
X31617500Y-10720000D02*
X31837500Y-10940000D01*
X31837500Y-10720000D02*
X31617500Y-10940000D01*
X33155000Y-16420000D02*
X33375000Y-16640000D01*
X33375000Y-16420000D02*
X33155000Y-16640000D01*
X34635100Y-18541000D02*
G75*
G03*
X34635100Y-18541000I-50000J0D01*
G01*
X19820000Y-14480000D02*
X19820000Y-14920000D01*
X19600000Y-14700000D02*
X20040000Y-14700000D01*
X26050000Y-18300000D02*
X26050000Y-18740000D01*
X25830000Y-18520000D02*
X26270000Y-18520000D01*
X9689707Y-12959707D02*
X9689707Y-12620293D01*
X9350293Y-12620293D01*
X9350293Y-12959707D01*
X9689707Y-12959707D01*
X33174707Y-12960707D02*
X33174707Y-12621293D01*
X32835293Y-12621293D01*
X32835293Y-12960707D01*
X33174707Y-12960707D01*
D12*
X7283928Y-19929214D02*
X7283928Y-19629214D01*
X7355357Y-19629214D01*
X7398214Y-19643500D01*
X7426786Y-19672072D01*
X7441071Y-19700643D01*
X7455357Y-19757786D01*
X7455357Y-19800643D01*
X7441071Y-19857786D01*
X7426786Y-19886357D01*
X7398214Y-19914929D01*
X7355357Y-19929214D01*
X7283928Y-19929214D01*
X7583928Y-19929214D02*
X7583928Y-19729214D01*
X7583928Y-19786357D02*
X7598214Y-19757786D01*
X7612500Y-19743500D01*
X7641071Y-19729214D01*
X7669643Y-19729214D01*
X7769643Y-19929214D02*
X7769643Y-19729214D01*
X7769643Y-19629214D02*
X7755357Y-19643500D01*
X7769643Y-19657786D01*
X7783928Y-19643500D01*
X7769643Y-19629214D01*
X7769643Y-19657786D01*
X7955357Y-19929214D02*
X7926786Y-19914929D01*
X7912500Y-19886357D01*
X7912500Y-19629214D01*
X8112500Y-19929214D02*
X8083928Y-19914929D01*
X8069643Y-19886357D01*
X8069643Y-19629214D01*
X8455357Y-19929214D02*
X8455357Y-19629214D01*
X8555357Y-19843500D01*
X8655357Y-19629214D01*
X8655357Y-19929214D01*
X8926786Y-19929214D02*
X8926786Y-19772072D01*
X8912500Y-19743500D01*
X8883928Y-19729214D01*
X8826786Y-19729214D01*
X8798214Y-19743500D01*
X8926786Y-19914929D02*
X8898214Y-19929214D01*
X8826786Y-19929214D01*
X8798214Y-19914929D01*
X8783928Y-19886357D01*
X8783928Y-19857786D01*
X8798214Y-19829214D01*
X8826786Y-19814929D01*
X8898214Y-19814929D01*
X8926786Y-19800643D01*
X9069643Y-19729214D02*
X9069643Y-20029214D01*
X9069643Y-19743500D02*
X9098214Y-19729214D01*
X9155357Y-19729214D01*
X9183928Y-19743500D01*
X9198214Y-19757786D01*
X9212500Y-19786357D01*
X9212500Y-19872072D01*
X9198214Y-19900643D01*
X9183928Y-19914929D01*
X9155357Y-19929214D01*
X9098214Y-19929214D01*
X9069643Y-19914929D01*
X9341071Y-19900643D02*
X9355357Y-19914929D01*
X9341071Y-19929214D01*
X9326786Y-19914929D01*
X9341071Y-19900643D01*
X9341071Y-19929214D01*
X9341071Y-19743500D02*
X9355357Y-19757786D01*
X9341071Y-19772072D01*
X9326786Y-19757786D01*
X9341071Y-19743500D01*
X9341071Y-19772072D01*
X6777500Y-20313500D02*
X6997500Y-20533500D01*
X6997500Y-20313500D02*
X6777500Y-20533500D01*
X7269643Y-20287786D02*
X7283928Y-20273500D01*
X7312500Y-20259214D01*
X7383928Y-20259214D01*
X7412500Y-20273500D01*
X7426786Y-20287786D01*
X7441071Y-20316357D01*
X7441071Y-20344929D01*
X7426786Y-20387786D01*
X7255357Y-20559214D01*
X7441071Y-20559214D01*
X7569643Y-20530643D02*
X7583928Y-20544929D01*
X7569643Y-20559214D01*
X7555357Y-20544929D01*
X7569643Y-20530643D01*
X7569643Y-20559214D01*
X7698214Y-20287786D02*
X7712500Y-20273500D01*
X7741071Y-20259214D01*
X7812500Y-20259214D01*
X7841071Y-20273500D01*
X7855357Y-20287786D01*
X7869643Y-20316357D01*
X7869643Y-20344929D01*
X7855357Y-20387786D01*
X7683928Y-20559214D01*
X7869643Y-20559214D01*
X8055357Y-20259214D02*
X8083928Y-20259214D01*
X8112500Y-20273500D01*
X8126786Y-20287786D01*
X8141071Y-20316357D01*
X8155357Y-20373500D01*
X8155357Y-20444929D01*
X8141071Y-20502072D01*
X8126786Y-20530643D01*
X8112500Y-20544929D01*
X8083928Y-20559214D01*
X8055357Y-20559214D01*
X8026786Y-20544929D01*
X8012500Y-20530643D01*
X7998214Y-20502072D01*
X7983928Y-20444929D01*
X7983928Y-20373500D01*
X7998214Y-20316357D01*
X8012500Y-20287786D01*
X8026786Y-20273500D01*
X8055357Y-20259214D01*
X8283928Y-20559214D02*
X8283928Y-20359214D01*
X8283928Y-20387786D02*
X8298214Y-20373500D01*
X8326786Y-20359214D01*
X8369643Y-20359214D01*
X8398214Y-20373500D01*
X8412500Y-20402072D01*
X8412500Y-20559214D01*
X8412500Y-20402072D02*
X8426786Y-20373500D01*
X8455357Y-20359214D01*
X8498214Y-20359214D01*
X8526786Y-20373500D01*
X8541071Y-20402072D01*
X8541071Y-20559214D01*
X8683928Y-20559214D02*
X8683928Y-20359214D01*
X8683928Y-20387786D02*
X8698214Y-20373500D01*
X8726786Y-20359214D01*
X8769643Y-20359214D01*
X8798214Y-20373500D01*
X8812500Y-20402072D01*
X8812500Y-20559214D01*
X8812500Y-20402072D02*
X8826786Y-20373500D01*
X8855357Y-20359214D01*
X8898214Y-20359214D01*
X8926786Y-20373500D01*
X8941071Y-20402072D01*
X8941071Y-20559214D01*
X9526786Y-20244929D02*
X9269643Y-20630643D01*
X9912500Y-20259214D02*
X9941071Y-20259214D01*
X9969643Y-20273500D01*
X9983928Y-20287786D01*
X9998214Y-20316357D01*
X10012500Y-20373500D01*
X10012500Y-20444929D01*
X9998214Y-20502072D01*
X9983928Y-20530643D01*
X9969643Y-20544929D01*
X9941071Y-20559214D01*
X9912500Y-20559214D01*
X9883928Y-20544929D01*
X9869643Y-20530643D01*
X9855357Y-20502072D01*
X9841071Y-20444929D01*
X9841071Y-20373500D01*
X9855357Y-20316357D01*
X9869643Y-20287786D01*
X9883928Y-20273500D01*
X9912500Y-20259214D01*
X10141071Y-20530643D02*
X10155357Y-20544929D01*
X10141071Y-20559214D01*
X10126786Y-20544929D01*
X10141071Y-20530643D01*
X10141071Y-20559214D01*
X10341071Y-20259214D02*
X10369643Y-20259214D01*
X10398214Y-20273500D01*
X10412500Y-20287786D01*
X10426786Y-20316357D01*
X10441071Y-20373500D01*
X10441071Y-20444929D01*
X10426786Y-20502072D01*
X10412500Y-20530643D01*
X10398214Y-20544929D01*
X10369643Y-20559214D01*
X10341071Y-20559214D01*
X10312500Y-20544929D01*
X10298214Y-20530643D01*
X10283928Y-20502072D01*
X10269643Y-20444929D01*
X10269643Y-20373500D01*
X10283928Y-20316357D01*
X10298214Y-20287786D01*
X10312500Y-20273500D01*
X10341071Y-20259214D01*
X10612500Y-20387786D02*
X10583928Y-20373500D01*
X10569643Y-20359214D01*
X10555357Y-20330643D01*
X10555357Y-20316357D01*
X10569643Y-20287786D01*
X10583928Y-20273500D01*
X10612500Y-20259214D01*
X10669643Y-20259214D01*
X10698214Y-20273500D01*
X10712500Y-20287786D01*
X10726786Y-20316357D01*
X10726786Y-20330643D01*
X10712500Y-20359214D01*
X10698214Y-20373500D01*
X10669643Y-20387786D01*
X10612500Y-20387786D01*
X10583928Y-20402072D01*
X10569643Y-20416357D01*
X10555357Y-20444929D01*
X10555357Y-20502072D01*
X10569643Y-20530643D01*
X10583928Y-20544929D01*
X10612500Y-20559214D01*
X10669643Y-20559214D01*
X10698214Y-20544929D01*
X10712500Y-20530643D01*
X10726786Y-20502072D01*
X10726786Y-20444929D01*
X10712500Y-20416357D01*
X10698214Y-20402072D01*
X10669643Y-20387786D01*
X10826786Y-20259214D02*
X11026786Y-20259214D01*
X10898214Y-20559214D01*
X11126786Y-20259214D02*
X11126786Y-20316357D01*
X11241071Y-20259214D02*
X11241071Y-20316357D01*
X11683928Y-20673500D02*
X11669643Y-20659214D01*
X11641071Y-20616357D01*
X11626786Y-20587786D01*
X11612500Y-20544929D01*
X11598214Y-20473500D01*
X11598214Y-20416357D01*
X11612500Y-20344929D01*
X11626786Y-20302072D01*
X11641071Y-20273500D01*
X11669643Y-20230643D01*
X11683928Y-20216357D01*
X11926786Y-20259214D02*
X11869643Y-20259214D01*
X11841071Y-20273500D01*
X11826786Y-20287786D01*
X11798214Y-20330643D01*
X11783928Y-20387786D01*
X11783928Y-20502072D01*
X11798214Y-20530643D01*
X11812500Y-20544929D01*
X11841071Y-20559214D01*
X11898214Y-20559214D01*
X11926786Y-20544929D01*
X11941071Y-20530643D01*
X11955357Y-20502072D01*
X11955357Y-20430643D01*
X11941071Y-20402072D01*
X11926786Y-20387786D01*
X11898214Y-20373500D01*
X11841071Y-20373500D01*
X11812500Y-20387786D01*
X11798214Y-20402072D01*
X11783928Y-20430643D01*
X12312500Y-20559214D02*
X12312500Y-20259214D01*
X12441071Y-20559214D02*
X12441071Y-20402072D01*
X12426786Y-20373500D01*
X12398214Y-20359214D01*
X12355357Y-20359214D01*
X12326786Y-20373500D01*
X12312500Y-20387786D01*
X12626786Y-20559214D02*
X12598214Y-20544929D01*
X12583928Y-20530643D01*
X12569643Y-20502072D01*
X12569643Y-20416357D01*
X12583928Y-20387786D01*
X12598214Y-20373500D01*
X12626786Y-20359214D01*
X12669643Y-20359214D01*
X12698214Y-20373500D01*
X12712500Y-20387786D01*
X12726786Y-20416357D01*
X12726786Y-20502072D01*
X12712500Y-20530643D01*
X12698214Y-20544929D01*
X12669643Y-20559214D01*
X12626786Y-20559214D01*
X12898214Y-20559214D02*
X12869643Y-20544929D01*
X12855357Y-20516357D01*
X12855357Y-20259214D01*
X13126786Y-20544929D02*
X13098214Y-20559214D01*
X13041071Y-20559214D01*
X13012500Y-20544929D01*
X12998214Y-20516357D01*
X12998214Y-20402072D01*
X13012500Y-20373500D01*
X13041071Y-20359214D01*
X13098214Y-20359214D01*
X13126786Y-20373500D01*
X13141071Y-20402072D01*
X13141071Y-20430643D01*
X12998214Y-20459214D01*
X13255357Y-20544929D02*
X13283928Y-20559214D01*
X13341071Y-20559214D01*
X13369643Y-20544929D01*
X13383928Y-20516357D01*
X13383928Y-20502072D01*
X13369643Y-20473500D01*
X13341071Y-20459214D01*
X13298214Y-20459214D01*
X13269643Y-20444929D01*
X13255357Y-20416357D01*
X13255357Y-20402072D01*
X13269643Y-20373500D01*
X13298214Y-20359214D01*
X13341071Y-20359214D01*
X13369643Y-20373500D01*
X13483928Y-20673500D02*
X13498214Y-20659214D01*
X13526786Y-20616357D01*
X13541071Y-20587786D01*
X13555357Y-20544929D01*
X13569643Y-20473500D01*
X13569643Y-20416357D01*
X13555357Y-20344929D01*
X13541071Y-20302072D01*
X13526786Y-20273500D01*
X13498214Y-20230643D01*
X13483928Y-20216357D01*
X6997500Y-20819500D02*
G75*
G03*
X6997500Y-20819500I-50000J0D01*
G01*
X7441071Y-20955214D02*
X7269643Y-20955214D01*
X7355357Y-20955214D02*
X7355357Y-20655214D01*
X7326786Y-20698072D01*
X7298214Y-20726643D01*
X7269643Y-20740929D01*
X7569643Y-20926643D02*
X7583928Y-20940929D01*
X7569643Y-20955214D01*
X7555357Y-20940929D01*
X7569643Y-20926643D01*
X7569643Y-20955214D01*
X7769643Y-20655214D02*
X7798214Y-20655214D01*
X7826786Y-20669500D01*
X7841071Y-20683786D01*
X7855357Y-20712357D01*
X7869643Y-20769500D01*
X7869643Y-20840929D01*
X7855357Y-20898072D01*
X7841071Y-20926643D01*
X7826786Y-20940929D01*
X7798214Y-20955214D01*
X7769643Y-20955214D01*
X7741071Y-20940929D01*
X7726786Y-20926643D01*
X7712500Y-20898072D01*
X7698214Y-20840929D01*
X7698214Y-20769500D01*
X7712500Y-20712357D01*
X7726786Y-20683786D01*
X7741071Y-20669500D01*
X7769643Y-20655214D01*
X8055357Y-20655214D02*
X8083928Y-20655214D01*
X8112500Y-20669500D01*
X8126786Y-20683786D01*
X8141071Y-20712357D01*
X8155357Y-20769500D01*
X8155357Y-20840929D01*
X8141071Y-20898072D01*
X8126786Y-20926643D01*
X8112500Y-20940929D01*
X8083928Y-20955214D01*
X8055357Y-20955214D01*
X8026786Y-20940929D01*
X8012500Y-20926643D01*
X7998214Y-20898072D01*
X7983928Y-20840929D01*
X7983928Y-20769500D01*
X7998214Y-20712357D01*
X8012500Y-20683786D01*
X8026786Y-20669500D01*
X8055357Y-20655214D01*
X8283928Y-20955214D02*
X8283928Y-20755214D01*
X8283928Y-20783786D02*
X8298214Y-20769500D01*
X8326786Y-20755214D01*
X8369643Y-20755214D01*
X8398214Y-20769500D01*
X8412500Y-20798072D01*
X8412500Y-20955214D01*
X8412500Y-20798072D02*
X8426786Y-20769500D01*
X8455357Y-20755214D01*
X8498214Y-20755214D01*
X8526786Y-20769500D01*
X8541071Y-20798072D01*
X8541071Y-20955214D01*
X8683928Y-20955214D02*
X8683928Y-20755214D01*
X8683928Y-20783786D02*
X8698214Y-20769500D01*
X8726786Y-20755214D01*
X8769643Y-20755214D01*
X8798214Y-20769500D01*
X8812500Y-20798072D01*
X8812500Y-20955214D01*
X8812500Y-20798072D02*
X8826786Y-20769500D01*
X8855357Y-20755214D01*
X8898214Y-20755214D01*
X8926786Y-20769500D01*
X8941071Y-20798072D01*
X8941071Y-20955214D01*
X9526786Y-20640929D02*
X9269643Y-21026643D01*
X9912500Y-20655214D02*
X9941071Y-20655214D01*
X9969643Y-20669500D01*
X9983928Y-20683786D01*
X9998214Y-20712357D01*
X10012500Y-20769500D01*
X10012500Y-20840929D01*
X9998214Y-20898072D01*
X9983928Y-20926643D01*
X9969643Y-20940929D01*
X9941071Y-20955214D01*
X9912500Y-20955214D01*
X9883928Y-20940929D01*
X9869643Y-20926643D01*
X9855357Y-20898072D01*
X9841071Y-20840929D01*
X9841071Y-20769500D01*
X9855357Y-20712357D01*
X9869643Y-20683786D01*
X9883928Y-20669500D01*
X9912500Y-20655214D01*
X10141071Y-20926643D02*
X10155357Y-20940929D01*
X10141071Y-20955214D01*
X10126786Y-20940929D01*
X10141071Y-20926643D01*
X10141071Y-20955214D01*
X10341071Y-20655214D02*
X10369643Y-20655214D01*
X10398214Y-20669500D01*
X10412500Y-20683786D01*
X10426786Y-20712357D01*
X10441071Y-20769500D01*
X10441071Y-20840929D01*
X10426786Y-20898072D01*
X10412500Y-20926643D01*
X10398214Y-20940929D01*
X10369643Y-20955214D01*
X10341071Y-20955214D01*
X10312500Y-20940929D01*
X10298214Y-20926643D01*
X10283928Y-20898072D01*
X10269643Y-20840929D01*
X10269643Y-20769500D01*
X10283928Y-20712357D01*
X10298214Y-20683786D01*
X10312500Y-20669500D01*
X10341071Y-20655214D01*
X10541071Y-20655214D02*
X10726786Y-20655214D01*
X10626786Y-20769500D01*
X10669643Y-20769500D01*
X10698214Y-20783786D01*
X10712500Y-20798072D01*
X10726786Y-20826643D01*
X10726786Y-20898072D01*
X10712500Y-20926643D01*
X10698214Y-20940929D01*
X10669643Y-20955214D01*
X10583928Y-20955214D01*
X10555357Y-20940929D01*
X10541071Y-20926643D01*
X10869643Y-20955214D02*
X10926786Y-20955214D01*
X10955357Y-20940929D01*
X10969643Y-20926643D01*
X10998214Y-20883786D01*
X11012500Y-20826643D01*
X11012500Y-20712357D01*
X10998214Y-20683786D01*
X10983928Y-20669500D01*
X10955357Y-20655214D01*
X10898214Y-20655214D01*
X10869643Y-20669500D01*
X10855357Y-20683786D01*
X10841071Y-20712357D01*
X10841071Y-20783786D01*
X10855357Y-20812357D01*
X10869643Y-20826643D01*
X10898214Y-20840929D01*
X10955357Y-20840929D01*
X10983928Y-20826643D01*
X10998214Y-20812357D01*
X11012500Y-20783786D01*
X11126786Y-20655214D02*
X11126786Y-20712357D01*
X11241071Y-20655214D02*
X11241071Y-20712357D01*
X11683928Y-21069500D02*
X11669643Y-21055214D01*
X11641071Y-21012357D01*
X11626786Y-20983786D01*
X11612500Y-20940929D01*
X11598214Y-20869500D01*
X11598214Y-20812357D01*
X11612500Y-20740929D01*
X11626786Y-20698072D01*
X11641071Y-20669500D01*
X11669643Y-20626643D01*
X11683928Y-20612357D01*
X11955357Y-20955214D02*
X11783928Y-20955214D01*
X11869643Y-20955214D02*
X11869643Y-20655214D01*
X11841071Y-20698072D01*
X11812500Y-20726643D01*
X11783928Y-20740929D01*
X12312500Y-20955214D02*
X12312500Y-20655214D01*
X12441071Y-20955214D02*
X12441071Y-20798072D01*
X12426786Y-20769500D01*
X12398214Y-20755214D01*
X12355357Y-20755214D01*
X12326786Y-20769500D01*
X12312500Y-20783786D01*
X12626786Y-20955214D02*
X12598214Y-20940929D01*
X12583928Y-20926643D01*
X12569643Y-20898072D01*
X12569643Y-20812357D01*
X12583928Y-20783786D01*
X12598214Y-20769500D01*
X12626786Y-20755214D01*
X12669643Y-20755214D01*
X12698214Y-20769500D01*
X12712500Y-20783786D01*
X12726786Y-20812357D01*
X12726786Y-20898072D01*
X12712500Y-20926643D01*
X12698214Y-20940929D01*
X12669643Y-20955214D01*
X12626786Y-20955214D01*
X12898214Y-20955214D02*
X12869643Y-20940929D01*
X12855357Y-20912357D01*
X12855357Y-20655214D01*
X13126786Y-20940929D02*
X13098214Y-20955214D01*
X13041071Y-20955214D01*
X13012500Y-20940929D01*
X12998214Y-20912357D01*
X12998214Y-20798072D01*
X13012500Y-20769500D01*
X13041071Y-20755214D01*
X13098214Y-20755214D01*
X13126786Y-20769500D01*
X13141071Y-20798072D01*
X13141071Y-20826643D01*
X12998214Y-20855214D01*
X13241071Y-21069500D02*
X13255357Y-21055214D01*
X13283928Y-21012357D01*
X13298214Y-20983786D01*
X13312500Y-20940929D01*
X13326786Y-20869500D01*
X13326786Y-20812357D01*
X13312500Y-20740929D01*
X13298214Y-20698072D01*
X13283928Y-20669500D01*
X13255357Y-20626643D01*
X13241071Y-20612357D01*
X13783928Y-21069500D02*
X13769643Y-21055214D01*
X13741071Y-21012357D01*
X13726786Y-20983786D01*
X13712500Y-20940929D01*
X13698214Y-20869500D01*
X13698214Y-20812357D01*
X13712500Y-20740929D01*
X13726786Y-20698072D01*
X13741071Y-20669500D01*
X13769643Y-20626643D01*
X13783928Y-20612357D01*
X13898214Y-20755214D02*
X13898214Y-20955214D01*
X13898214Y-20783786D02*
X13912500Y-20769500D01*
X13941071Y-20755214D01*
X13983928Y-20755214D01*
X14012500Y-20769500D01*
X14026786Y-20798072D01*
X14026786Y-20955214D01*
X14212500Y-20955214D02*
X14183928Y-20940929D01*
X14169643Y-20926643D01*
X14155357Y-20898072D01*
X14155357Y-20812357D01*
X14169643Y-20783786D01*
X14183928Y-20769500D01*
X14212500Y-20755214D01*
X14255357Y-20755214D01*
X14283928Y-20769500D01*
X14298214Y-20783786D01*
X14312500Y-20812357D01*
X14312500Y-20898072D01*
X14298214Y-20926643D01*
X14283928Y-20940929D01*
X14255357Y-20955214D01*
X14212500Y-20955214D01*
X14398214Y-20755214D02*
X14512500Y-20755214D01*
X14441071Y-20655214D02*
X14441071Y-20912357D01*
X14455357Y-20940929D01*
X14483928Y-20955214D01*
X14512500Y-20955214D01*
X14841071Y-20755214D02*
X14841071Y-21055214D01*
X14841071Y-20769500D02*
X14869643Y-20755214D01*
X14926786Y-20755214D01*
X14955357Y-20769500D01*
X14969643Y-20783786D01*
X14983928Y-20812357D01*
X14983928Y-20898072D01*
X14969643Y-20926643D01*
X14955357Y-20940929D01*
X14926786Y-20955214D01*
X14869643Y-20955214D01*
X14841071Y-20940929D01*
X15155357Y-20955214D02*
X15126786Y-20940929D01*
X15112500Y-20912357D01*
X15112500Y-20655214D01*
X15398214Y-20955214D02*
X15398214Y-20798072D01*
X15383928Y-20769500D01*
X15355357Y-20755214D01*
X15298214Y-20755214D01*
X15269643Y-20769500D01*
X15398214Y-20940929D02*
X15369643Y-20955214D01*
X15298214Y-20955214D01*
X15269643Y-20940929D01*
X15255357Y-20912357D01*
X15255357Y-20883786D01*
X15269643Y-20855214D01*
X15298214Y-20840929D01*
X15369643Y-20840929D01*
X15398214Y-20826643D01*
X15498214Y-20755214D02*
X15612500Y-20755214D01*
X15541071Y-20655214D02*
X15541071Y-20912357D01*
X15555357Y-20940929D01*
X15583928Y-20955214D01*
X15612500Y-20955214D01*
X15826786Y-20940929D02*
X15798214Y-20955214D01*
X15741071Y-20955214D01*
X15712500Y-20940929D01*
X15698214Y-20912357D01*
X15698214Y-20798072D01*
X15712500Y-20769500D01*
X15741071Y-20755214D01*
X15798214Y-20755214D01*
X15826786Y-20769500D01*
X15841071Y-20798072D01*
X15841071Y-20826643D01*
X15698214Y-20855214D01*
X16098214Y-20955214D02*
X16098214Y-20655214D01*
X16098214Y-20940929D02*
X16069643Y-20955214D01*
X16012500Y-20955214D01*
X15983928Y-20940929D01*
X15969643Y-20926643D01*
X15955357Y-20898072D01*
X15955357Y-20812357D01*
X15969643Y-20783786D01*
X15983928Y-20769500D01*
X16012500Y-20755214D01*
X16069643Y-20755214D01*
X16098214Y-20769500D01*
X16212500Y-21069500D02*
X16226786Y-21055214D01*
X16255357Y-21012357D01*
X16269643Y-20983786D01*
X16283928Y-20940929D01*
X16298214Y-20869500D01*
X16298214Y-20812357D01*
X16283928Y-20740929D01*
X16269643Y-20698072D01*
X16255357Y-20669500D01*
X16226786Y-20626643D01*
X16212500Y-20612357D01*
X6777500Y-20995500D02*
X6777500Y-21435500D01*
X6557500Y-21215500D02*
X6997500Y-21215500D01*
X7412500Y-21151214D02*
X7412500Y-21351214D01*
X7341071Y-21036929D02*
X7269643Y-21251214D01*
X7455357Y-21251214D01*
X7569643Y-21322643D02*
X7583928Y-21336929D01*
X7569643Y-21351214D01*
X7555357Y-21336929D01*
X7569643Y-21322643D01*
X7569643Y-21351214D01*
X7841071Y-21151214D02*
X7841071Y-21351214D01*
X7769643Y-21036929D02*
X7698214Y-21251214D01*
X7883928Y-21251214D01*
X8055357Y-21051214D02*
X8083928Y-21051214D01*
X8112500Y-21065500D01*
X8126786Y-21079786D01*
X8141071Y-21108357D01*
X8155357Y-21165500D01*
X8155357Y-21236929D01*
X8141071Y-21294072D01*
X8126786Y-21322643D01*
X8112500Y-21336929D01*
X8083928Y-21351214D01*
X8055357Y-21351214D01*
X8026786Y-21336929D01*
X8012500Y-21322643D01*
X7998214Y-21294072D01*
X7983928Y-21236929D01*
X7983928Y-21165500D01*
X7998214Y-21108357D01*
X8012500Y-21079786D01*
X8026786Y-21065500D01*
X8055357Y-21051214D01*
X8283928Y-21351214D02*
X8283928Y-21151214D01*
X8283928Y-21179786D02*
X8298214Y-21165500D01*
X8326786Y-21151214D01*
X8369643Y-21151214D01*
X8398214Y-21165500D01*
X8412500Y-21194072D01*
X8412500Y-21351214D01*
X8412500Y-21194072D02*
X8426786Y-21165500D01*
X8455357Y-21151214D01*
X8498214Y-21151214D01*
X8526786Y-21165500D01*
X8541071Y-21194072D01*
X8541071Y-21351214D01*
X8683928Y-21351214D02*
X8683928Y-21151214D01*
X8683928Y-21179786D02*
X8698214Y-21165500D01*
X8726786Y-21151214D01*
X8769643Y-21151214D01*
X8798214Y-21165500D01*
X8812500Y-21194072D01*
X8812500Y-21351214D01*
X8812500Y-21194072D02*
X8826786Y-21165500D01*
X8855357Y-21151214D01*
X8898214Y-21151214D01*
X8926786Y-21165500D01*
X8941071Y-21194072D01*
X8941071Y-21351214D01*
X9526786Y-21036929D02*
X9269643Y-21422643D01*
X9912500Y-21051214D02*
X9941071Y-21051214D01*
X9969643Y-21065500D01*
X9983928Y-21079786D01*
X9998214Y-21108357D01*
X10012500Y-21165500D01*
X10012500Y-21236929D01*
X9998214Y-21294072D01*
X9983928Y-21322643D01*
X9969643Y-21336929D01*
X9941071Y-21351214D01*
X9912500Y-21351214D01*
X9883928Y-21336929D01*
X9869643Y-21322643D01*
X9855357Y-21294072D01*
X9841071Y-21236929D01*
X9841071Y-21165500D01*
X9855357Y-21108357D01*
X9869643Y-21079786D01*
X9883928Y-21065500D01*
X9912500Y-21051214D01*
X10141071Y-21322643D02*
X10155357Y-21336929D01*
X10141071Y-21351214D01*
X10126786Y-21336929D01*
X10141071Y-21322643D01*
X10141071Y-21351214D01*
X10441071Y-21351214D02*
X10269643Y-21351214D01*
X10355357Y-21351214D02*
X10355357Y-21051214D01*
X10326786Y-21094072D01*
X10298214Y-21122643D01*
X10269643Y-21136929D01*
X10541071Y-21051214D02*
X10741071Y-21051214D01*
X10612500Y-21351214D01*
X10826786Y-21051214D02*
X11012500Y-21051214D01*
X10912500Y-21165500D01*
X10955357Y-21165500D01*
X10983928Y-21179786D01*
X10998214Y-21194072D01*
X11012500Y-21222643D01*
X11012500Y-21294072D01*
X10998214Y-21322643D01*
X10983928Y-21336929D01*
X10955357Y-21351214D01*
X10869643Y-21351214D01*
X10841071Y-21336929D01*
X10826786Y-21322643D01*
X11126786Y-21051214D02*
X11126786Y-21108357D01*
X11241071Y-21051214D02*
X11241071Y-21108357D01*
X11683928Y-21465500D02*
X11669643Y-21451214D01*
X11641071Y-21408357D01*
X11626786Y-21379786D01*
X11612500Y-21336929D01*
X11598214Y-21265500D01*
X11598214Y-21208357D01*
X11612500Y-21136929D01*
X11626786Y-21094072D01*
X11641071Y-21065500D01*
X11669643Y-21022643D01*
X11683928Y-21008357D01*
X11783928Y-21079786D02*
X11798214Y-21065500D01*
X11826786Y-21051214D01*
X11898214Y-21051214D01*
X11926786Y-21065500D01*
X11941071Y-21079786D01*
X11955357Y-21108357D01*
X11955357Y-21136929D01*
X11941071Y-21179786D01*
X11769643Y-21351214D01*
X11955357Y-21351214D01*
X12312500Y-21351214D02*
X12312500Y-21051214D01*
X12441071Y-21351214D02*
X12441071Y-21194072D01*
X12426786Y-21165500D01*
X12398214Y-21151214D01*
X12355357Y-21151214D01*
X12326786Y-21165500D01*
X12312500Y-21179786D01*
X12626786Y-21351214D02*
X12598214Y-21336929D01*
X12583928Y-21322643D01*
X12569643Y-21294072D01*
X12569643Y-21208357D01*
X12583928Y-21179786D01*
X12598214Y-21165500D01*
X12626786Y-21151214D01*
X12669643Y-21151214D01*
X12698214Y-21165500D01*
X12712500Y-21179786D01*
X12726786Y-21208357D01*
X12726786Y-21294072D01*
X12712500Y-21322643D01*
X12698214Y-21336929D01*
X12669643Y-21351214D01*
X12626786Y-21351214D01*
X12898214Y-21351214D02*
X12869643Y-21336929D01*
X12855357Y-21308357D01*
X12855357Y-21051214D01*
X13126786Y-21336929D02*
X13098214Y-21351214D01*
X13041071Y-21351214D01*
X13012500Y-21336929D01*
X12998214Y-21308357D01*
X12998214Y-21194072D01*
X13012500Y-21165500D01*
X13041071Y-21151214D01*
X13098214Y-21151214D01*
X13126786Y-21165500D01*
X13141071Y-21194072D01*
X13141071Y-21222643D01*
X12998214Y-21251214D01*
X13255357Y-21336929D02*
X13283928Y-21351214D01*
X13341071Y-21351214D01*
X13369643Y-21336929D01*
X13383928Y-21308357D01*
X13383928Y-21294072D01*
X13369643Y-21265500D01*
X13341071Y-21251214D01*
X13298214Y-21251214D01*
X13269643Y-21236929D01*
X13255357Y-21208357D01*
X13255357Y-21194072D01*
X13269643Y-21165500D01*
X13298214Y-21151214D01*
X13341071Y-21151214D01*
X13369643Y-21165500D01*
X13483928Y-21465500D02*
X13498214Y-21451214D01*
X13526786Y-21408357D01*
X13541071Y-21379786D01*
X13555357Y-21336929D01*
X13569643Y-21265500D01*
X13569643Y-21208357D01*
X13555357Y-21136929D01*
X13541071Y-21094072D01*
X13526786Y-21065500D01*
X13498214Y-21022643D01*
X13483928Y-21008357D01*
X14026786Y-21465500D02*
X14012500Y-21451214D01*
X13983928Y-21408357D01*
X13969643Y-21379786D01*
X13955357Y-21336929D01*
X13941071Y-21265500D01*
X13941071Y-21208357D01*
X13955357Y-21136929D01*
X13969643Y-21094072D01*
X13983928Y-21065500D01*
X14012500Y-21022643D01*
X14026786Y-21008357D01*
X14141071Y-21151214D02*
X14141071Y-21351214D01*
X14141071Y-21179786D02*
X14155357Y-21165500D01*
X14183928Y-21151214D01*
X14226786Y-21151214D01*
X14255357Y-21165500D01*
X14269643Y-21194072D01*
X14269643Y-21351214D01*
X14455357Y-21351214D02*
X14426786Y-21336929D01*
X14412500Y-21322643D01*
X14398214Y-21294072D01*
X14398214Y-21208357D01*
X14412500Y-21179786D01*
X14426786Y-21165500D01*
X14455357Y-21151214D01*
X14498214Y-21151214D01*
X14526786Y-21165500D01*
X14541071Y-21179786D01*
X14555357Y-21208357D01*
X14555357Y-21294072D01*
X14541071Y-21322643D01*
X14526786Y-21336929D01*
X14498214Y-21351214D01*
X14455357Y-21351214D01*
X14641071Y-21151214D02*
X14755357Y-21151214D01*
X14683928Y-21051214D02*
X14683928Y-21308357D01*
X14698214Y-21336929D01*
X14726786Y-21351214D01*
X14755357Y-21351214D01*
X15083928Y-21151214D02*
X15083928Y-21451214D01*
X15083928Y-21165500D02*
X15112500Y-21151214D01*
X15169643Y-21151214D01*
X15198214Y-21165500D01*
X15212500Y-21179786D01*
X15226786Y-21208357D01*
X15226786Y-21294072D01*
X15212500Y-21322643D01*
X15198214Y-21336929D01*
X15169643Y-21351214D01*
X15112500Y-21351214D01*
X15083928Y-21336929D01*
X15398214Y-21351214D02*
X15369643Y-21336929D01*
X15355357Y-21308357D01*
X15355357Y-21051214D01*
X15641071Y-21351214D02*
X15641071Y-21194072D01*
X15626786Y-21165500D01*
X15598214Y-21151214D01*
X15541071Y-21151214D01*
X15512500Y-21165500D01*
X15641071Y-21336929D02*
X15612500Y-21351214D01*
X15541071Y-21351214D01*
X15512500Y-21336929D01*
X15498214Y-21308357D01*
X15498214Y-21279786D01*
X15512500Y-21251214D01*
X15541071Y-21236929D01*
X15612500Y-21236929D01*
X15641071Y-21222643D01*
X15741071Y-21151214D02*
X15855357Y-21151214D01*
X15783928Y-21051214D02*
X15783928Y-21308357D01*
X15798214Y-21336929D01*
X15826786Y-21351214D01*
X15855357Y-21351214D01*
X16069643Y-21336929D02*
X16041071Y-21351214D01*
X15983928Y-21351214D01*
X15955357Y-21336929D01*
X15941071Y-21308357D01*
X15941071Y-21194072D01*
X15955357Y-21165500D01*
X15983928Y-21151214D01*
X16041071Y-21151214D01*
X16069643Y-21165500D01*
X16083928Y-21194072D01*
X16083928Y-21222643D01*
X15941071Y-21251214D01*
X16341071Y-21351214D02*
X16341071Y-21051214D01*
X16341071Y-21336929D02*
X16312500Y-21351214D01*
X16255357Y-21351214D01*
X16226786Y-21336929D01*
X16212500Y-21322643D01*
X16198214Y-21294072D01*
X16198214Y-21208357D01*
X16212500Y-21179786D01*
X16226786Y-21165500D01*
X16255357Y-21151214D01*
X16312500Y-21151214D01*
X16341071Y-21165500D01*
X16455357Y-21465500D02*
X16469643Y-21451214D01*
X16498214Y-21408357D01*
X16512500Y-21379786D01*
X16526786Y-21336929D01*
X16541071Y-21265500D01*
X16541071Y-21208357D01*
X16526786Y-21136929D01*
X16512500Y-21094072D01*
X16498214Y-21065500D01*
X16469643Y-21022643D01*
X16455357Y-21008357D01*
X6927207Y-21955207D02*
X6927207Y-21615793D01*
X6587793Y-21615793D01*
X6587793Y-21955207D01*
X6927207Y-21955207D01*
X7412500Y-21721214D02*
X7412500Y-21921214D01*
X7341071Y-21606929D02*
X7269643Y-21821214D01*
X7455357Y-21821214D01*
X7569643Y-21892643D02*
X7583928Y-21906929D01*
X7569643Y-21921214D01*
X7555357Y-21906929D01*
X7569643Y-21892643D01*
X7569643Y-21921214D01*
X7755357Y-21749786D02*
X7726786Y-21735500D01*
X7712500Y-21721214D01*
X7698214Y-21692643D01*
X7698214Y-21678357D01*
X7712500Y-21649786D01*
X7726786Y-21635500D01*
X7755357Y-21621214D01*
X7812500Y-21621214D01*
X7841071Y-21635500D01*
X7855357Y-21649786D01*
X7869643Y-21678357D01*
X7869643Y-21692643D01*
X7855357Y-21721214D01*
X7841071Y-21735500D01*
X7812500Y-21749786D01*
X7755357Y-21749786D01*
X7726786Y-21764072D01*
X7712500Y-21778357D01*
X7698214Y-21806929D01*
X7698214Y-21864072D01*
X7712500Y-21892643D01*
X7726786Y-21906929D01*
X7755357Y-21921214D01*
X7812500Y-21921214D01*
X7841071Y-21906929D01*
X7855357Y-21892643D01*
X7869643Y-21864072D01*
X7869643Y-21806929D01*
X7855357Y-21778357D01*
X7841071Y-21764072D01*
X7812500Y-21749786D01*
X8055357Y-21621214D02*
X8083928Y-21621214D01*
X8112500Y-21635500D01*
X8126786Y-21649786D01*
X8141071Y-21678357D01*
X8155357Y-21735500D01*
X8155357Y-21806929D01*
X8141071Y-21864072D01*
X8126786Y-21892643D01*
X8112500Y-21906929D01*
X8083928Y-21921214D01*
X8055357Y-21921214D01*
X8026786Y-21906929D01*
X8012500Y-21892643D01*
X7998214Y-21864072D01*
X7983928Y-21806929D01*
X7983928Y-21735500D01*
X7998214Y-21678357D01*
X8012500Y-21649786D01*
X8026786Y-21635500D01*
X8055357Y-21621214D01*
X8283928Y-21921214D02*
X8283928Y-21721214D01*
X8283928Y-21749786D02*
X8298214Y-21735500D01*
X8326786Y-21721214D01*
X8369643Y-21721214D01*
X8398214Y-21735500D01*
X8412500Y-21764072D01*
X8412500Y-21921214D01*
X8412500Y-21764072D02*
X8426786Y-21735500D01*
X8455357Y-21721214D01*
X8498214Y-21721214D01*
X8526786Y-21735500D01*
X8541071Y-21764072D01*
X8541071Y-21921214D01*
X8683928Y-21921214D02*
X8683928Y-21721214D01*
X8683928Y-21749786D02*
X8698214Y-21735500D01*
X8726786Y-21721214D01*
X8769643Y-21721214D01*
X8798214Y-21735500D01*
X8812500Y-21764072D01*
X8812500Y-21921214D01*
X8812500Y-21764072D02*
X8826786Y-21735500D01*
X8855357Y-21721214D01*
X8898214Y-21721214D01*
X8926786Y-21735500D01*
X8941071Y-21764072D01*
X8941071Y-21921214D01*
X9526786Y-21606929D02*
X9269643Y-21992643D01*
X9912500Y-21621214D02*
X9941071Y-21621214D01*
X9969643Y-21635500D01*
X9983928Y-21649786D01*
X9998214Y-21678357D01*
X10012500Y-21735500D01*
X10012500Y-21806929D01*
X9998214Y-21864072D01*
X9983928Y-21892643D01*
X9969643Y-21906929D01*
X9941071Y-21921214D01*
X9912500Y-21921214D01*
X9883928Y-21906929D01*
X9869643Y-21892643D01*
X9855357Y-21864072D01*
X9841071Y-21806929D01*
X9841071Y-21735500D01*
X9855357Y-21678357D01*
X9869643Y-21649786D01*
X9883928Y-21635500D01*
X9912500Y-21621214D01*
X10141071Y-21892643D02*
X10155357Y-21906929D01*
X10141071Y-21921214D01*
X10126786Y-21906929D01*
X10141071Y-21892643D01*
X10141071Y-21921214D01*
X10441071Y-21921214D02*
X10269643Y-21921214D01*
X10355357Y-21921214D02*
X10355357Y-21621214D01*
X10326786Y-21664072D01*
X10298214Y-21692643D01*
X10269643Y-21706929D01*
X10612500Y-21749786D02*
X10583928Y-21735500D01*
X10569643Y-21721214D01*
X10555357Y-21692643D01*
X10555357Y-21678357D01*
X10569643Y-21649786D01*
X10583928Y-21635500D01*
X10612500Y-21621214D01*
X10669643Y-21621214D01*
X10698214Y-21635500D01*
X10712500Y-21649786D01*
X10726786Y-21678357D01*
X10726786Y-21692643D01*
X10712500Y-21721214D01*
X10698214Y-21735500D01*
X10669643Y-21749786D01*
X10612500Y-21749786D01*
X10583928Y-21764072D01*
X10569643Y-21778357D01*
X10555357Y-21806929D01*
X10555357Y-21864072D01*
X10569643Y-21892643D01*
X10583928Y-21906929D01*
X10612500Y-21921214D01*
X10669643Y-21921214D01*
X10698214Y-21906929D01*
X10712500Y-21892643D01*
X10726786Y-21864072D01*
X10726786Y-21806929D01*
X10712500Y-21778357D01*
X10698214Y-21764072D01*
X10669643Y-21749786D01*
X10869643Y-21921214D02*
X10926786Y-21921214D01*
X10955357Y-21906929D01*
X10969643Y-21892643D01*
X10998214Y-21849786D01*
X11012500Y-21792643D01*
X11012500Y-21678357D01*
X10998214Y-21649786D01*
X10983928Y-21635500D01*
X10955357Y-21621214D01*
X10898214Y-21621214D01*
X10869643Y-21635500D01*
X10855357Y-21649786D01*
X10841071Y-21678357D01*
X10841071Y-21749786D01*
X10855357Y-21778357D01*
X10869643Y-21792643D01*
X10898214Y-21806929D01*
X10955357Y-21806929D01*
X10983928Y-21792643D01*
X10998214Y-21778357D01*
X11012500Y-21749786D01*
X11126786Y-21621214D02*
X11126786Y-21678357D01*
X11241071Y-21621214D02*
X11241071Y-21678357D01*
X11683928Y-22035500D02*
X11669643Y-22021214D01*
X11641071Y-21978357D01*
X11626786Y-21949786D01*
X11612500Y-21906929D01*
X11598214Y-21835500D01*
X11598214Y-21778357D01*
X11612500Y-21706929D01*
X11626786Y-21664072D01*
X11641071Y-21635500D01*
X11669643Y-21592643D01*
X11683928Y-21578357D01*
X11783928Y-21649786D02*
X11798214Y-21635500D01*
X11826786Y-21621214D01*
X11898214Y-21621214D01*
X11926786Y-21635500D01*
X11941071Y-21649786D01*
X11955357Y-21678357D01*
X11955357Y-21706929D01*
X11941071Y-21749786D01*
X11769643Y-21921214D01*
X11955357Y-21921214D01*
X12312500Y-21921214D02*
X12312500Y-21621214D01*
X12441071Y-21921214D02*
X12441071Y-21764072D01*
X12426786Y-21735500D01*
X12398214Y-21721214D01*
X12355357Y-21721214D01*
X12326786Y-21735500D01*
X12312500Y-21749786D01*
X12626786Y-21921214D02*
X12598214Y-21906929D01*
X12583928Y-21892643D01*
X12569643Y-21864072D01*
X12569643Y-21778357D01*
X12583928Y-21749786D01*
X12598214Y-21735500D01*
X12626786Y-21721214D01*
X12669643Y-21721214D01*
X12698214Y-21735500D01*
X12712500Y-21749786D01*
X12726786Y-21778357D01*
X12726786Y-21864072D01*
X12712500Y-21892643D01*
X12698214Y-21906929D01*
X12669643Y-21921214D01*
X12626786Y-21921214D01*
X12898214Y-21921214D02*
X12869643Y-21906929D01*
X12855357Y-21878357D01*
X12855357Y-21621214D01*
X13126786Y-21906929D02*
X13098214Y-21921214D01*
X13041071Y-21921214D01*
X13012500Y-21906929D01*
X12998214Y-21878357D01*
X12998214Y-21764072D01*
X13012500Y-21735500D01*
X13041071Y-21721214D01*
X13098214Y-21721214D01*
X13126786Y-21735500D01*
X13141071Y-21764072D01*
X13141071Y-21792643D01*
X12998214Y-21821214D01*
X13255357Y-21906929D02*
X13283928Y-21921214D01*
X13341071Y-21921214D01*
X13369643Y-21906929D01*
X13383928Y-21878357D01*
X13383928Y-21864072D01*
X13369643Y-21835500D01*
X13341071Y-21821214D01*
X13298214Y-21821214D01*
X13269643Y-21806929D01*
X13255357Y-21778357D01*
X13255357Y-21764072D01*
X13269643Y-21735500D01*
X13298214Y-21721214D01*
X13341071Y-21721214D01*
X13369643Y-21735500D01*
X13483928Y-22035500D02*
X13498214Y-22021214D01*
X13526786Y-21978357D01*
X13541071Y-21949786D01*
X13555357Y-21906929D01*
X13569643Y-21835500D01*
X13569643Y-21778357D01*
X13555357Y-21706929D01*
X13541071Y-21664072D01*
X13526786Y-21635500D01*
X13498214Y-21592643D01*
X13483928Y-21578357D01*
X14026786Y-22035500D02*
X14012500Y-22021214D01*
X13983928Y-21978357D01*
X13969643Y-21949786D01*
X13955357Y-21906929D01*
X13941071Y-21835500D01*
X13941071Y-21778357D01*
X13955357Y-21706929D01*
X13969643Y-21664072D01*
X13983928Y-21635500D01*
X14012500Y-21592643D01*
X14026786Y-21578357D01*
X14141071Y-21721214D02*
X14141071Y-21921214D01*
X14141071Y-21749786D02*
X14155357Y-21735500D01*
X14183928Y-21721214D01*
X14226786Y-21721214D01*
X14255357Y-21735500D01*
X14269643Y-21764072D01*
X14269643Y-21921214D01*
X14455357Y-21921214D02*
X14426786Y-21906929D01*
X14412500Y-21892643D01*
X14398214Y-21864072D01*
X14398214Y-21778357D01*
X14412500Y-21749786D01*
X14426786Y-21735500D01*
X14455357Y-21721214D01*
X14498214Y-21721214D01*
X14526786Y-21735500D01*
X14541071Y-21749786D01*
X14555357Y-21778357D01*
X14555357Y-21864072D01*
X14541071Y-21892643D01*
X14526786Y-21906929D01*
X14498214Y-21921214D01*
X14455357Y-21921214D01*
X14641071Y-21721214D02*
X14755357Y-21721214D01*
X14683928Y-21621214D02*
X14683928Y-21878357D01*
X14698214Y-21906929D01*
X14726786Y-21921214D01*
X14755357Y-21921214D01*
X15083928Y-21721214D02*
X15083928Y-22021214D01*
X15083928Y-21735500D02*
X15112500Y-21721214D01*
X15169643Y-21721214D01*
X15198214Y-21735500D01*
X15212500Y-21749786D01*
X15226786Y-21778357D01*
X15226786Y-21864072D01*
X15212500Y-21892643D01*
X15198214Y-21906929D01*
X15169643Y-21921214D01*
X15112500Y-21921214D01*
X15083928Y-21906929D01*
X15398214Y-21921214D02*
X15369643Y-21906929D01*
X15355357Y-21878357D01*
X15355357Y-21621214D01*
X15641071Y-21921214D02*
X15641071Y-21764072D01*
X15626786Y-21735500D01*
X15598214Y-21721214D01*
X15541071Y-21721214D01*
X15512500Y-21735500D01*
X15641071Y-21906929D02*
X15612500Y-21921214D01*
X15541071Y-21921214D01*
X15512500Y-21906929D01*
X15498214Y-21878357D01*
X15498214Y-21849786D01*
X15512500Y-21821214D01*
X15541071Y-21806929D01*
X15612500Y-21806929D01*
X15641071Y-21792643D01*
X15741071Y-21721214D02*
X15855357Y-21721214D01*
X15783928Y-21621214D02*
X15783928Y-21878357D01*
X15798214Y-21906929D01*
X15826786Y-21921214D01*
X15855357Y-21921214D01*
X16069643Y-21906929D02*
X16041071Y-21921214D01*
X15983928Y-21921214D01*
X15955357Y-21906929D01*
X15941071Y-21878357D01*
X15941071Y-21764072D01*
X15955357Y-21735500D01*
X15983928Y-21721214D01*
X16041071Y-21721214D01*
X16069643Y-21735500D01*
X16083928Y-21764072D01*
X16083928Y-21792643D01*
X15941071Y-21821214D01*
X16341071Y-21921214D02*
X16341071Y-21621214D01*
X16341071Y-21906929D02*
X16312500Y-21921214D01*
X16255357Y-21921214D01*
X16226786Y-21906929D01*
X16212500Y-21892643D01*
X16198214Y-21864072D01*
X16198214Y-21778357D01*
X16212500Y-21749786D01*
X16226786Y-21735500D01*
X16255357Y-21721214D01*
X16312500Y-21721214D01*
X16341071Y-21735500D01*
X16455357Y-22035500D02*
X16469643Y-22021214D01*
X16498214Y-21978357D01*
X16512500Y-21949786D01*
X16526786Y-21906929D01*
X16541071Y-21835500D01*
X16541071Y-21778357D01*
X16526786Y-21706929D01*
X16512500Y-21664072D01*
X16498214Y-21635500D01*
X16469643Y-21592643D01*
X16455357Y-21578357D01*
M02*
