%TF.GenerationSoftware,KiCad,Pcbnew,(5.1.9)-1*%
%TF.CreationDate,2021-10-01T21:54:58+09:00*%
%TF.ProjectId,top,746f702e-6b69-4636-9164-5f7063625858,1*%
%TF.SameCoordinates,Original*%
%TF.FileFunction,Profile,NP*%
%FSLAX46Y46*%
G04 Gerber Fmt 4.6, Leading zero omitted, Abs format (unit mm)*
G04 Created by KiCad (PCBNEW (5.1.9)-1) date 2021-10-01 21:54:58*
%MOMM*%
%LPD*%
G01*
G04 APERTURE LIST*
%TA.AperFunction,Profile*%
%ADD10C,0.050000*%
%TD*%
%TA.AperFunction,Profile*%
%ADD11C,0.120000*%
%TD*%
G04 APERTURE END LIST*
D10*
X70000000Y-158950000D02*
X70000000Y-192610000D01*
X70000000Y-158950000D02*
G75*
G02*
X70300000Y-158650000I300000J0D01*
G01*
X73700000Y-154350000D02*
G75*
G02*
X73700000Y-158650000I0J-2150000D01*
G01*
X70300000Y-158650000D02*
X73700000Y-158650000D01*
X70300000Y-154350000D02*
G75*
G02*
X70000000Y-154050000I0J300000D01*
G01*
X73700000Y-154350000D02*
X70300000Y-154350000D01*
X355000000Y-158950000D02*
X355000000Y-192610000D01*
X355000000Y-154050000D02*
G75*
G02*
X354700000Y-154350000I-300000J0D01*
G01*
X351300000Y-158650000D02*
G75*
G02*
X351300000Y-154350000I0J2150000D01*
G01*
X354700000Y-154350000D02*
X351300000Y-154350000D01*
X354700000Y-158650000D02*
G75*
G02*
X355000000Y-158950000I0J-300000D01*
G01*
X351300000Y-158650000D02*
X354700000Y-158650000D01*
X355000000Y-192610000D02*
G75*
G02*
X353000000Y-194610000I-2000000J0D01*
G01*
X353000000Y-100010000D02*
G75*
G02*
X355000000Y-102010000I0J-2000000D01*
G01*
X70000000Y-102000000D02*
G75*
G02*
X72000000Y-100000000I2000000J0D01*
G01*
X72000000Y-194610000D02*
G75*
G02*
X70000000Y-192610000I0J2000000D01*
G01*
X72000000Y-194610000D02*
X353000000Y-194610000D01*
X70000000Y-102000000D02*
X70000000Y-154050000D01*
X353000000Y-100010000D02*
X72000000Y-100000000D01*
X355000000Y-154050000D02*
X355000000Y-102010000D01*
D11*
%TO.C,KSW43*%
X99606200Y-160410000D02*
X99606200Y-160060000D01*
X98156200Y-160510000D02*
X99506200Y-160510000D01*
X98056200Y-159660000D02*
X98056200Y-160410000D01*
X84306200Y-159360000D02*
X97756200Y-159360000D01*
X84006200Y-160410000D02*
X84006200Y-159660000D01*
X82656200Y-160510000D02*
X83906200Y-160510000D01*
X82556200Y-160060000D02*
X82556200Y-160410000D01*
X80756200Y-159760000D02*
X82256200Y-159760000D01*
X80656200Y-158860000D02*
X80656200Y-159660000D01*
X77856200Y-158560000D02*
X80356200Y-158560000D01*
X77556200Y-159660000D02*
X77556200Y-158860000D01*
X76006200Y-159760000D02*
X77456200Y-159760000D01*
X75706200Y-165760000D02*
X75706200Y-160060000D01*
X75106200Y-165860000D02*
X75606200Y-165860000D01*
X74806200Y-168360000D02*
X74806200Y-166160000D01*
X75606200Y-168660000D02*
X75106200Y-168660000D01*
X75706200Y-171760000D02*
X75706200Y-168760000D01*
X82256200Y-172060000D02*
X76006200Y-172060000D01*
X82556200Y-171360000D02*
X82556200Y-171760000D01*
X83956200Y-171260000D02*
X82656200Y-171260000D01*
X84056200Y-173060000D02*
X84056200Y-171360000D01*
X97756200Y-173360000D02*
X84356200Y-173360000D01*
X99906200Y-159760000D02*
X101356200Y-159760000D01*
X101456200Y-159660000D02*
X101456200Y-158860000D01*
X101756200Y-158560000D02*
X104256200Y-158560000D01*
X104556200Y-158860000D02*
X104556200Y-159660000D01*
X104656200Y-159760000D02*
X106106200Y-159760000D01*
X106406200Y-160060000D02*
X106406200Y-165760000D01*
X106506200Y-165860000D02*
X107006200Y-165860000D01*
X107306200Y-166160000D02*
X107306200Y-168360000D01*
X107006200Y-168660000D02*
X106506200Y-168660000D01*
X106406200Y-168760000D02*
X106406200Y-171760000D01*
X106106200Y-172060000D02*
X99856200Y-172060000D01*
X99556200Y-171760000D02*
X99556200Y-171360000D01*
X99456200Y-171260000D02*
X98156200Y-171260000D01*
X98056200Y-171360000D02*
X98056200Y-173060000D01*
X98056200Y-173060000D02*
G75*
G02*
X97756200Y-173360000I-300000J0D01*
G01*
X84356200Y-173360000D02*
G75*
G02*
X84056200Y-173060000I0J300000D01*
G01*
X83956200Y-171260000D02*
G75*
G02*
X84056200Y-171360000I0J-100000D01*
G01*
X82556200Y-171360000D02*
G75*
G02*
X82656200Y-171260000I100000J0D01*
G01*
X82556200Y-171760000D02*
G75*
G02*
X82256200Y-172060000I-300000J0D01*
G01*
X76006200Y-172060000D02*
G75*
G02*
X75706200Y-171760000I0J300000D01*
G01*
X75106200Y-168660000D02*
G75*
G02*
X74806200Y-168360000I0J300000D01*
G01*
X75606200Y-168660000D02*
G75*
G02*
X75706200Y-168760000I0J-100000D01*
G01*
X74806200Y-166160000D02*
G75*
G02*
X75106200Y-165860000I300000J0D01*
G01*
X75706200Y-165760000D02*
G75*
G02*
X75606200Y-165860000I-100000J0D01*
G01*
X75706200Y-160060000D02*
G75*
G02*
X76006200Y-159760000I300000J0D01*
G01*
X77556200Y-159660000D02*
G75*
G02*
X77456200Y-159760000I-100000J0D01*
G01*
X77556200Y-158860000D02*
G75*
G02*
X77856200Y-158560000I300000J0D01*
G01*
X80356200Y-158560000D02*
G75*
G02*
X80656200Y-158860000I0J-300000D01*
G01*
X80756200Y-159760000D02*
G75*
G02*
X80656200Y-159660000I0J100000D01*
G01*
X82256200Y-159760000D02*
G75*
G02*
X82556200Y-160060000I0J-300000D01*
G01*
X82656200Y-160510000D02*
G75*
G02*
X82556200Y-160410000I0J100000D01*
G01*
X84006200Y-160410000D02*
G75*
G02*
X83906200Y-160510000I-100000J0D01*
G01*
X84006200Y-159660000D02*
G75*
G02*
X84306200Y-159360000I300000J0D01*
G01*
X97756200Y-159360000D02*
G75*
G02*
X98056200Y-159660000I0J-300000D01*
G01*
X99606200Y-160060000D02*
G75*
G02*
X99906200Y-159760000I300000J0D01*
G01*
X98156200Y-160510000D02*
G75*
G02*
X98056200Y-160410000I0J100000D01*
G01*
X99606200Y-160410000D02*
G75*
G02*
X99506200Y-160510000I-100000J0D01*
G01*
X101456200Y-159660000D02*
G75*
G02*
X101356200Y-159760000I-100000J0D01*
G01*
X101456200Y-158860000D02*
G75*
G02*
X101756200Y-158560000I300000J0D01*
G01*
X104256200Y-158560000D02*
G75*
G02*
X104556200Y-158860000I0J-300000D01*
G01*
X104656200Y-159760000D02*
G75*
G02*
X104556200Y-159660000I0J100000D01*
G01*
X106106200Y-159760000D02*
G75*
G02*
X106406200Y-160060000I0J-300000D01*
G01*
X106506200Y-165860000D02*
G75*
G02*
X106406200Y-165760000I0J100000D01*
G01*
X107006200Y-165860000D02*
G75*
G02*
X107306200Y-166160000I0J-300000D01*
G01*
X107306200Y-168360000D02*
G75*
G02*
X107006200Y-168660000I-300000J0D01*
G01*
X106406200Y-168760000D02*
G75*
G02*
X106506200Y-168660000I100000J0D01*
G01*
X106406200Y-171760000D02*
G75*
G02*
X106106200Y-172060000I-300000J0D01*
G01*
X99856200Y-172060000D02*
G75*
G02*
X99556200Y-171760000I0J300000D01*
G01*
X99456200Y-171260000D02*
G75*
G02*
X99556200Y-171360000I0J-100000D01*
G01*
X98056200Y-171360000D02*
G75*
G02*
X98156200Y-171260000I100000J0D01*
G01*
%TO.C,KSW42*%
X342494000Y-141360000D02*
X342494000Y-141010000D01*
X341044000Y-141460000D02*
X342394000Y-141460000D01*
X340944000Y-140610000D02*
X340944000Y-141360000D01*
X327194000Y-140310000D02*
X340644000Y-140310000D01*
X326894000Y-141360000D02*
X326894000Y-140610000D01*
X325544000Y-141460000D02*
X326794000Y-141460000D01*
X325444000Y-141010000D02*
X325444000Y-141360000D01*
X323644000Y-140710000D02*
X325144000Y-140710000D01*
X323544000Y-139810000D02*
X323544000Y-140610000D01*
X320744000Y-139510000D02*
X323244000Y-139510000D01*
X320444000Y-140610000D02*
X320444000Y-139810000D01*
X318894000Y-140710000D02*
X320344000Y-140710000D01*
X318594000Y-146710000D02*
X318594000Y-141010000D01*
X317994000Y-146810000D02*
X318494000Y-146810000D01*
X317694000Y-149310000D02*
X317694000Y-147110000D01*
X318494000Y-149610000D02*
X317994000Y-149610000D01*
X318594000Y-152710000D02*
X318594000Y-149710000D01*
X325144000Y-153010000D02*
X318894000Y-153010000D01*
X325444000Y-152310000D02*
X325444000Y-152710000D01*
X326844000Y-152210000D02*
X325544000Y-152210000D01*
X326944000Y-154010000D02*
X326944000Y-152310000D01*
X340644000Y-154310000D02*
X327244000Y-154310000D01*
X342794000Y-140710000D02*
X344244000Y-140710000D01*
X344344000Y-140610000D02*
X344344000Y-139810000D01*
X344644000Y-139510000D02*
X347144000Y-139510000D01*
X347444000Y-139810000D02*
X347444000Y-140610000D01*
X347544000Y-140710000D02*
X348994000Y-140710000D01*
X349294000Y-141010000D02*
X349294000Y-146710000D01*
X349394000Y-146810000D02*
X349894000Y-146810000D01*
X350194000Y-147110000D02*
X350194000Y-149310000D01*
X349894000Y-149610000D02*
X349394000Y-149610000D01*
X349294000Y-149710000D02*
X349294000Y-152710000D01*
X348994000Y-153010000D02*
X342744000Y-153010000D01*
X342444000Y-152710000D02*
X342444000Y-152310000D01*
X342344000Y-152210000D02*
X341044000Y-152210000D01*
X340944000Y-152310000D02*
X340944000Y-154010000D01*
X340944000Y-154010000D02*
G75*
G02*
X340644000Y-154310000I-300000J0D01*
G01*
X327244000Y-154310000D02*
G75*
G02*
X326944000Y-154010000I0J300000D01*
G01*
X326844000Y-152210000D02*
G75*
G02*
X326944000Y-152310000I0J-100000D01*
G01*
X325444000Y-152310000D02*
G75*
G02*
X325544000Y-152210000I100000J0D01*
G01*
X325444000Y-152710000D02*
G75*
G02*
X325144000Y-153010000I-300000J0D01*
G01*
X318894000Y-153010000D02*
G75*
G02*
X318594000Y-152710000I0J300000D01*
G01*
X317994000Y-149610000D02*
G75*
G02*
X317694000Y-149310000I0J300000D01*
G01*
X318494000Y-149610000D02*
G75*
G02*
X318594000Y-149710000I0J-100000D01*
G01*
X317694000Y-147110000D02*
G75*
G02*
X317994000Y-146810000I300000J0D01*
G01*
X318594000Y-146710000D02*
G75*
G02*
X318494000Y-146810000I-100000J0D01*
G01*
X318594000Y-141010000D02*
G75*
G02*
X318894000Y-140710000I300000J0D01*
G01*
X320444000Y-140610000D02*
G75*
G02*
X320344000Y-140710000I-100000J0D01*
G01*
X320444000Y-139810000D02*
G75*
G02*
X320744000Y-139510000I300000J0D01*
G01*
X323244000Y-139510000D02*
G75*
G02*
X323544000Y-139810000I0J-300000D01*
G01*
X323644000Y-140710000D02*
G75*
G02*
X323544000Y-140610000I0J100000D01*
G01*
X325144000Y-140710000D02*
G75*
G02*
X325444000Y-141010000I0J-300000D01*
G01*
X325544000Y-141460000D02*
G75*
G02*
X325444000Y-141360000I0J100000D01*
G01*
X326894000Y-141360000D02*
G75*
G02*
X326794000Y-141460000I-100000J0D01*
G01*
X326894000Y-140610000D02*
G75*
G02*
X327194000Y-140310000I300000J0D01*
G01*
X340644000Y-140310000D02*
G75*
G02*
X340944000Y-140610000I0J-300000D01*
G01*
X342494000Y-141010000D02*
G75*
G02*
X342794000Y-140710000I300000J0D01*
G01*
X341044000Y-141460000D02*
G75*
G02*
X340944000Y-141360000I0J100000D01*
G01*
X342494000Y-141360000D02*
G75*
G02*
X342394000Y-141460000I-100000J0D01*
G01*
X344344000Y-140610000D02*
G75*
G02*
X344244000Y-140710000I-100000J0D01*
G01*
X344344000Y-139810000D02*
G75*
G02*
X344644000Y-139510000I300000J0D01*
G01*
X347144000Y-139510000D02*
G75*
G02*
X347444000Y-139810000I0J-300000D01*
G01*
X347544000Y-140710000D02*
G75*
G02*
X347444000Y-140610000I0J100000D01*
G01*
X348994000Y-140710000D02*
G75*
G02*
X349294000Y-141010000I0J-300000D01*
G01*
X349394000Y-146810000D02*
G75*
G02*
X349294000Y-146710000I0J100000D01*
G01*
X349894000Y-146810000D02*
G75*
G02*
X350194000Y-147110000I0J-300000D01*
G01*
X350194000Y-149310000D02*
G75*
G02*
X349894000Y-149610000I-300000J0D01*
G01*
X349294000Y-149710000D02*
G75*
G02*
X349394000Y-149610000I100000J0D01*
G01*
X349294000Y-152710000D02*
G75*
G02*
X348994000Y-153010000I-300000J0D01*
G01*
X342744000Y-153010000D02*
G75*
G02*
X342444000Y-152710000I0J300000D01*
G01*
X342344000Y-152210000D02*
G75*
G02*
X342444000Y-152310000I0J-100000D01*
G01*
X340944000Y-152310000D02*
G75*
G02*
X341044000Y-152210000I100000J0D01*
G01*
%TO.C,KSW1*%
X72150000Y-102510000D02*
X72150000Y-115910000D01*
X72450000Y-116210000D02*
X85850000Y-116210000D01*
X86150000Y-115910000D02*
X86150000Y-102510000D01*
X85850000Y-102210000D02*
X72450000Y-102210000D01*
X86150000Y-115910000D02*
G75*
G02*
X85850000Y-116210000I-300000J0D01*
G01*
X72450000Y-116210000D02*
G75*
G02*
X72150000Y-115910000I0J300000D01*
G01*
X72150000Y-102510000D02*
G75*
G02*
X72450000Y-102210000I300000J0D01*
G01*
X85850000Y-102210000D02*
G75*
G02*
X86150000Y-102510000I0J-300000D01*
G01*
%TO.C,KSW2*%
X91200000Y-102510000D02*
X91200000Y-115910000D01*
X91500000Y-116210000D02*
X104900000Y-116210000D01*
X105200000Y-115910000D02*
X105200000Y-102510000D01*
X104900000Y-102210000D02*
X91500000Y-102210000D01*
X105200000Y-115910000D02*
G75*
G02*
X104900000Y-116210000I-300000J0D01*
G01*
X91500000Y-116210000D02*
G75*
G02*
X91200000Y-115910000I0J300000D01*
G01*
X91200000Y-102510000D02*
G75*
G02*
X91500000Y-102210000I300000J0D01*
G01*
X104900000Y-102210000D02*
G75*
G02*
X105200000Y-102510000I0J-300000D01*
G01*
%TO.C,KSW3*%
X110250000Y-102510000D02*
X110250000Y-115910000D01*
X110550000Y-116210000D02*
X123950000Y-116210000D01*
X124250000Y-115910000D02*
X124250000Y-102510000D01*
X123950000Y-102210000D02*
X110550000Y-102210000D01*
X124250000Y-115910000D02*
G75*
G02*
X123950000Y-116210000I-300000J0D01*
G01*
X110550000Y-116210000D02*
G75*
G02*
X110250000Y-115910000I0J300000D01*
G01*
X110250000Y-102510000D02*
G75*
G02*
X110550000Y-102210000I300000J0D01*
G01*
X123950000Y-102210000D02*
G75*
G02*
X124250000Y-102510000I0J-300000D01*
G01*
%TO.C,KSW4*%
X129300000Y-102510000D02*
X129300000Y-115910000D01*
X129600000Y-116210000D02*
X143000000Y-116210000D01*
X143300000Y-115910000D02*
X143300000Y-102510000D01*
X143000000Y-102210000D02*
X129600000Y-102210000D01*
X143300000Y-115910000D02*
G75*
G02*
X143000000Y-116210000I-300000J0D01*
G01*
X129600000Y-116210000D02*
G75*
G02*
X129300000Y-115910000I0J300000D01*
G01*
X129300000Y-102510000D02*
G75*
G02*
X129600000Y-102210000I300000J0D01*
G01*
X143000000Y-102210000D02*
G75*
G02*
X143300000Y-102510000I0J-300000D01*
G01*
%TO.C,KSW5*%
X148350000Y-102510000D02*
X148350000Y-115910000D01*
X148650000Y-116210000D02*
X162050000Y-116210000D01*
X162350000Y-115910000D02*
X162350000Y-102510000D01*
X162050000Y-102210000D02*
X148650000Y-102210000D01*
X162350000Y-115910000D02*
G75*
G02*
X162050000Y-116210000I-300000J0D01*
G01*
X148650000Y-116210000D02*
G75*
G02*
X148350000Y-115910000I0J300000D01*
G01*
X148350000Y-102510000D02*
G75*
G02*
X148650000Y-102210000I300000J0D01*
G01*
X162050000Y-102210000D02*
G75*
G02*
X162350000Y-102510000I0J-300000D01*
G01*
%TO.C,KSW6*%
X167400000Y-102510000D02*
X167400000Y-115910000D01*
X167700000Y-116210000D02*
X181100000Y-116210000D01*
X181400000Y-115910000D02*
X181400000Y-102510000D01*
X181100000Y-102210000D02*
X167700000Y-102210000D01*
X181400000Y-115910000D02*
G75*
G02*
X181100000Y-116210000I-300000J0D01*
G01*
X167700000Y-116210000D02*
G75*
G02*
X167400000Y-115910000I0J300000D01*
G01*
X167400000Y-102510000D02*
G75*
G02*
X167700000Y-102210000I300000J0D01*
G01*
X181100000Y-102210000D02*
G75*
G02*
X181400000Y-102510000I0J-300000D01*
G01*
%TO.C,KSW7*%
X186450000Y-102510000D02*
X186450000Y-115910000D01*
X186750000Y-116210000D02*
X200150000Y-116210000D01*
X200450000Y-115910000D02*
X200450000Y-102510000D01*
X200150000Y-102210000D02*
X186750000Y-102210000D01*
X200450000Y-115910000D02*
G75*
G02*
X200150000Y-116210000I-300000J0D01*
G01*
X186750000Y-116210000D02*
G75*
G02*
X186450000Y-115910000I0J300000D01*
G01*
X186450000Y-102510000D02*
G75*
G02*
X186750000Y-102210000I300000J0D01*
G01*
X200150000Y-102210000D02*
G75*
G02*
X200450000Y-102510000I0J-300000D01*
G01*
%TO.C,KSW8*%
X205500000Y-102510000D02*
X205500000Y-115910000D01*
X205800000Y-116210000D02*
X219200000Y-116210000D01*
X219500000Y-115910000D02*
X219500000Y-102510000D01*
X219200000Y-102210000D02*
X205800000Y-102210000D01*
X219500000Y-115910000D02*
G75*
G02*
X219200000Y-116210000I-300000J0D01*
G01*
X205800000Y-116210000D02*
G75*
G02*
X205500000Y-115910000I0J300000D01*
G01*
X205500000Y-102510000D02*
G75*
G02*
X205800000Y-102210000I300000J0D01*
G01*
X219200000Y-102210000D02*
G75*
G02*
X219500000Y-102510000I0J-300000D01*
G01*
%TO.C,KSW9*%
X224550000Y-102510000D02*
X224550000Y-115910000D01*
X224850000Y-116210000D02*
X238250000Y-116210000D01*
X238550000Y-115910000D02*
X238550000Y-102510000D01*
X238250000Y-102210000D02*
X224850000Y-102210000D01*
X238550000Y-115910000D02*
G75*
G02*
X238250000Y-116210000I-300000J0D01*
G01*
X224850000Y-116210000D02*
G75*
G02*
X224550000Y-115910000I0J300000D01*
G01*
X224550000Y-102510000D02*
G75*
G02*
X224850000Y-102210000I300000J0D01*
G01*
X238250000Y-102210000D02*
G75*
G02*
X238550000Y-102510000I0J-300000D01*
G01*
%TO.C,KSW10*%
X243600000Y-102510000D02*
X243600000Y-115910000D01*
X243900000Y-116210000D02*
X257300000Y-116210000D01*
X257600000Y-115910000D02*
X257600000Y-102510000D01*
X257300000Y-102210000D02*
X243900000Y-102210000D01*
X257600000Y-115910000D02*
G75*
G02*
X257300000Y-116210000I-300000J0D01*
G01*
X243900000Y-116210000D02*
G75*
G02*
X243600000Y-115910000I0J300000D01*
G01*
X243600000Y-102510000D02*
G75*
G02*
X243900000Y-102210000I300000J0D01*
G01*
X257300000Y-102210000D02*
G75*
G02*
X257600000Y-102510000I0J-300000D01*
G01*
%TO.C,KSW11*%
X262650000Y-102510000D02*
X262650000Y-115910000D01*
X262950000Y-116210000D02*
X276350000Y-116210000D01*
X276650000Y-115910000D02*
X276650000Y-102510000D01*
X276350000Y-102210000D02*
X262950000Y-102210000D01*
X276650000Y-115910000D02*
G75*
G02*
X276350000Y-116210000I-300000J0D01*
G01*
X262950000Y-116210000D02*
G75*
G02*
X262650000Y-115910000I0J300000D01*
G01*
X262650000Y-102510000D02*
G75*
G02*
X262950000Y-102210000I300000J0D01*
G01*
X276350000Y-102210000D02*
G75*
G02*
X276650000Y-102510000I0J-300000D01*
G01*
%TO.C,KSW12*%
X281700000Y-102510000D02*
X281700000Y-115910000D01*
X282000000Y-116210000D02*
X295400000Y-116210000D01*
X295700000Y-115910000D02*
X295700000Y-102510000D01*
X295400000Y-102210000D02*
X282000000Y-102210000D01*
X295700000Y-115910000D02*
G75*
G02*
X295400000Y-116210000I-300000J0D01*
G01*
X282000000Y-116210000D02*
G75*
G02*
X281700000Y-115910000I0J300000D01*
G01*
X281700000Y-102510000D02*
G75*
G02*
X282000000Y-102210000I300000J0D01*
G01*
X295400000Y-102210000D02*
G75*
G02*
X295700000Y-102510000I0J-300000D01*
G01*
%TO.C,KSW13*%
X300750000Y-102510000D02*
X300750000Y-115910000D01*
X301050000Y-116210000D02*
X314450000Y-116210000D01*
X314750000Y-115910000D02*
X314750000Y-102510000D01*
X314450000Y-102210000D02*
X301050000Y-102210000D01*
X314750000Y-115910000D02*
G75*
G02*
X314450000Y-116210000I-300000J0D01*
G01*
X301050000Y-116210000D02*
G75*
G02*
X300750000Y-115910000I0J300000D01*
G01*
X300750000Y-102510000D02*
G75*
G02*
X301050000Y-102210000I300000J0D01*
G01*
X314450000Y-102210000D02*
G75*
G02*
X314750000Y-102510000I0J-300000D01*
G01*
%TO.C,KSW15*%
X338850000Y-102510000D02*
X338850000Y-115910000D01*
X339150000Y-116210000D02*
X352550000Y-116210000D01*
X352850000Y-115910000D02*
X352850000Y-102510000D01*
X352550000Y-102210000D02*
X339150000Y-102210000D01*
X352850000Y-115910000D02*
G75*
G02*
X352550000Y-116210000I-300000J0D01*
G01*
X339150000Y-116210000D02*
G75*
G02*
X338850000Y-115910000I0J300000D01*
G01*
X338850000Y-102510000D02*
G75*
G02*
X339150000Y-102210000I300000J0D01*
G01*
X352550000Y-102210000D02*
G75*
G02*
X352850000Y-102510000I0J-300000D01*
G01*
%TO.C,KSW16*%
X76912500Y-121560000D02*
X76912500Y-134960000D01*
X77212500Y-135260000D02*
X90612500Y-135260000D01*
X90912500Y-134960000D02*
X90912500Y-121560000D01*
X90612500Y-121260000D02*
X77212500Y-121260000D01*
X90912500Y-134960000D02*
G75*
G02*
X90612500Y-135260000I-300000J0D01*
G01*
X77212500Y-135260000D02*
G75*
G02*
X76912500Y-134960000I0J300000D01*
G01*
X76912500Y-121560000D02*
G75*
G02*
X77212500Y-121260000I300000J0D01*
G01*
X90612500Y-121260000D02*
G75*
G02*
X90912500Y-121560000I0J-300000D01*
G01*
%TO.C,KSW17*%
X100725000Y-121560000D02*
X100725000Y-134960000D01*
X101025000Y-135260000D02*
X114425000Y-135260000D01*
X114725000Y-134960000D02*
X114725000Y-121560000D01*
X114425000Y-121260000D02*
X101025000Y-121260000D01*
X114725000Y-134960000D02*
G75*
G02*
X114425000Y-135260000I-300000J0D01*
G01*
X101025000Y-135260000D02*
G75*
G02*
X100725000Y-134960000I0J300000D01*
G01*
X100725000Y-121560000D02*
G75*
G02*
X101025000Y-121260000I300000J0D01*
G01*
X114425000Y-121260000D02*
G75*
G02*
X114725000Y-121560000I0J-300000D01*
G01*
%TO.C,KSW18*%
X119775000Y-121560000D02*
X119775000Y-134960000D01*
X120075000Y-135260000D02*
X133475000Y-135260000D01*
X133775000Y-134960000D02*
X133775000Y-121560000D01*
X133475000Y-121260000D02*
X120075000Y-121260000D01*
X133775000Y-134960000D02*
G75*
G02*
X133475000Y-135260000I-300000J0D01*
G01*
X120075000Y-135260000D02*
G75*
G02*
X119775000Y-134960000I0J300000D01*
G01*
X119775000Y-121560000D02*
G75*
G02*
X120075000Y-121260000I300000J0D01*
G01*
X133475000Y-121260000D02*
G75*
G02*
X133775000Y-121560000I0J-300000D01*
G01*
%TO.C,KSW19*%
X138825000Y-121560000D02*
X138825000Y-134960000D01*
X139125000Y-135260000D02*
X152525000Y-135260000D01*
X152825000Y-134960000D02*
X152825000Y-121560000D01*
X152525000Y-121260000D02*
X139125000Y-121260000D01*
X152825000Y-134960000D02*
G75*
G02*
X152525000Y-135260000I-300000J0D01*
G01*
X139125000Y-135260000D02*
G75*
G02*
X138825000Y-134960000I0J300000D01*
G01*
X138825000Y-121560000D02*
G75*
G02*
X139125000Y-121260000I300000J0D01*
G01*
X152525000Y-121260000D02*
G75*
G02*
X152825000Y-121560000I0J-300000D01*
G01*
%TO.C,KSW20*%
X157875000Y-121560000D02*
X157875000Y-134960000D01*
X158175000Y-135260000D02*
X171575000Y-135260000D01*
X171875000Y-134960000D02*
X171875000Y-121560000D01*
X171575000Y-121260000D02*
X158175000Y-121260000D01*
X171875000Y-134960000D02*
G75*
G02*
X171575000Y-135260000I-300000J0D01*
G01*
X158175000Y-135260000D02*
G75*
G02*
X157875000Y-134960000I0J300000D01*
G01*
X157875000Y-121560000D02*
G75*
G02*
X158175000Y-121260000I300000J0D01*
G01*
X171575000Y-121260000D02*
G75*
G02*
X171875000Y-121560000I0J-300000D01*
G01*
%TO.C,KSW21*%
X176925000Y-121560000D02*
X176925000Y-134960000D01*
X177225000Y-135260000D02*
X190625000Y-135260000D01*
X190925000Y-134960000D02*
X190925000Y-121560000D01*
X190625000Y-121260000D02*
X177225000Y-121260000D01*
X190925000Y-134960000D02*
G75*
G02*
X190625000Y-135260000I-300000J0D01*
G01*
X177225000Y-135260000D02*
G75*
G02*
X176925000Y-134960000I0J300000D01*
G01*
X176925000Y-121560000D02*
G75*
G02*
X177225000Y-121260000I300000J0D01*
G01*
X190625000Y-121260000D02*
G75*
G02*
X190925000Y-121560000I0J-300000D01*
G01*
%TO.C,KSW22*%
X195975000Y-121560000D02*
X195975000Y-134960000D01*
X196275000Y-135260000D02*
X209675000Y-135260000D01*
X209975000Y-134960000D02*
X209975000Y-121560000D01*
X209675000Y-121260000D02*
X196275000Y-121260000D01*
X209975000Y-134960000D02*
G75*
G02*
X209675000Y-135260000I-300000J0D01*
G01*
X196275000Y-135260000D02*
G75*
G02*
X195975000Y-134960000I0J300000D01*
G01*
X195975000Y-121560000D02*
G75*
G02*
X196275000Y-121260000I300000J0D01*
G01*
X209675000Y-121260000D02*
G75*
G02*
X209975000Y-121560000I0J-300000D01*
G01*
%TO.C,KSW23*%
X215025000Y-121560000D02*
X215025000Y-134960000D01*
X215325000Y-135260000D02*
X228725000Y-135260000D01*
X229025000Y-134960000D02*
X229025000Y-121560000D01*
X228725000Y-121260000D02*
X215325000Y-121260000D01*
X229025000Y-134960000D02*
G75*
G02*
X228725000Y-135260000I-300000J0D01*
G01*
X215325000Y-135260000D02*
G75*
G02*
X215025000Y-134960000I0J300000D01*
G01*
X215025000Y-121560000D02*
G75*
G02*
X215325000Y-121260000I300000J0D01*
G01*
X228725000Y-121260000D02*
G75*
G02*
X229025000Y-121560000I0J-300000D01*
G01*
%TO.C,KSW24*%
X234075000Y-121560000D02*
X234075000Y-134960000D01*
X234375000Y-135260000D02*
X247775000Y-135260000D01*
X248075000Y-134960000D02*
X248075000Y-121560000D01*
X247775000Y-121260000D02*
X234375000Y-121260000D01*
X248075000Y-134960000D02*
G75*
G02*
X247775000Y-135260000I-300000J0D01*
G01*
X234375000Y-135260000D02*
G75*
G02*
X234075000Y-134960000I0J300000D01*
G01*
X234075000Y-121560000D02*
G75*
G02*
X234375000Y-121260000I300000J0D01*
G01*
X247775000Y-121260000D02*
G75*
G02*
X248075000Y-121560000I0J-300000D01*
G01*
%TO.C,KSW25*%
X253125000Y-121560000D02*
X253125000Y-134960000D01*
X253425000Y-135260000D02*
X266825000Y-135260000D01*
X267125000Y-134960000D02*
X267125000Y-121560000D01*
X266825000Y-121260000D02*
X253425000Y-121260000D01*
X267125000Y-134960000D02*
G75*
G02*
X266825000Y-135260000I-300000J0D01*
G01*
X253425000Y-135260000D02*
G75*
G02*
X253125000Y-134960000I0J300000D01*
G01*
X253125000Y-121560000D02*
G75*
G02*
X253425000Y-121260000I300000J0D01*
G01*
X266825000Y-121260000D02*
G75*
G02*
X267125000Y-121560000I0J-300000D01*
G01*
%TO.C,KSW26*%
X272175000Y-121560000D02*
X272175000Y-134960000D01*
X272475000Y-135260000D02*
X285875000Y-135260000D01*
X286175000Y-134960000D02*
X286175000Y-121560000D01*
X285875000Y-121260000D02*
X272475000Y-121260000D01*
X286175000Y-134960000D02*
G75*
G02*
X285875000Y-135260000I-300000J0D01*
G01*
X272475000Y-135260000D02*
G75*
G02*
X272175000Y-134960000I0J300000D01*
G01*
X272175000Y-121560000D02*
G75*
G02*
X272475000Y-121260000I300000J0D01*
G01*
X285875000Y-121260000D02*
G75*
G02*
X286175000Y-121560000I0J-300000D01*
G01*
%TO.C,KSW27*%
X291225000Y-121560000D02*
X291225000Y-134960000D01*
X291525000Y-135260000D02*
X304925000Y-135260000D01*
X305225000Y-134960000D02*
X305225000Y-121560000D01*
X304925000Y-121260000D02*
X291525000Y-121260000D01*
X305225000Y-134960000D02*
G75*
G02*
X304925000Y-135260000I-300000J0D01*
G01*
X291525000Y-135260000D02*
G75*
G02*
X291225000Y-134960000I0J300000D01*
G01*
X291225000Y-121560000D02*
G75*
G02*
X291525000Y-121260000I300000J0D01*
G01*
X304925000Y-121260000D02*
G75*
G02*
X305225000Y-121560000I0J-300000D01*
G01*
%TO.C,KSW28*%
X310275000Y-121560000D02*
X310275000Y-134960000D01*
X310575000Y-135260000D02*
X323975000Y-135260000D01*
X324275000Y-134960000D02*
X324275000Y-121560000D01*
X323975000Y-121260000D02*
X310575000Y-121260000D01*
X324275000Y-134960000D02*
G75*
G02*
X323975000Y-135260000I-300000J0D01*
G01*
X310575000Y-135260000D02*
G75*
G02*
X310275000Y-134960000I0J300000D01*
G01*
X310275000Y-121560000D02*
G75*
G02*
X310575000Y-121260000I300000J0D01*
G01*
X323975000Y-121260000D02*
G75*
G02*
X324275000Y-121560000I0J-300000D01*
G01*
%TO.C,KSW29*%
X334087000Y-121560000D02*
X334087000Y-134960000D01*
X334387000Y-135260000D02*
X347787000Y-135260000D01*
X348087000Y-134960000D02*
X348087000Y-121560000D01*
X347787000Y-121260000D02*
X334387000Y-121260000D01*
X348087000Y-134960000D02*
G75*
G02*
X347787000Y-135260000I-300000J0D01*
G01*
X334387000Y-135260000D02*
G75*
G02*
X334087000Y-134960000I0J300000D01*
G01*
X334087000Y-121560000D02*
G75*
G02*
X334387000Y-121260000I300000J0D01*
G01*
X347787000Y-121260000D02*
G75*
G02*
X348087000Y-121560000I0J-300000D01*
G01*
%TO.C,KSW30*%
X79293800Y-140610000D02*
X79293800Y-154010000D01*
X79593800Y-154310000D02*
X92993800Y-154310000D01*
X93293800Y-154010000D02*
X93293800Y-140610000D01*
X92993800Y-140310000D02*
X79593800Y-140310000D01*
X93293800Y-154010000D02*
G75*
G02*
X92993800Y-154310000I-300000J0D01*
G01*
X79593800Y-154310000D02*
G75*
G02*
X79293800Y-154010000I0J300000D01*
G01*
X79293800Y-140610000D02*
G75*
G02*
X79593800Y-140310000I300000J0D01*
G01*
X92993800Y-140310000D02*
G75*
G02*
X93293800Y-140610000I0J-300000D01*
G01*
%TO.C,KSW31*%
X105487000Y-140610000D02*
X105487000Y-154010000D01*
X105787000Y-154310000D02*
X119187000Y-154310000D01*
X119487000Y-154010000D02*
X119487000Y-140610000D01*
X119187000Y-140310000D02*
X105787000Y-140310000D01*
X119487000Y-154010000D02*
G75*
G02*
X119187000Y-154310000I-300000J0D01*
G01*
X105787000Y-154310000D02*
G75*
G02*
X105487000Y-154010000I0J300000D01*
G01*
X105487000Y-140610000D02*
G75*
G02*
X105787000Y-140310000I300000J0D01*
G01*
X119187000Y-140310000D02*
G75*
G02*
X119487000Y-140610000I0J-300000D01*
G01*
%TO.C,KSW32*%
X124537000Y-140610000D02*
X124537000Y-154010000D01*
X124837000Y-154310000D02*
X138237000Y-154310000D01*
X138537000Y-154010000D02*
X138537000Y-140610000D01*
X138237000Y-140310000D02*
X124837000Y-140310000D01*
X138537000Y-154010000D02*
G75*
G02*
X138237000Y-154310000I-300000J0D01*
G01*
X124837000Y-154310000D02*
G75*
G02*
X124537000Y-154010000I0J300000D01*
G01*
X124537000Y-140610000D02*
G75*
G02*
X124837000Y-140310000I300000J0D01*
G01*
X138237000Y-140310000D02*
G75*
G02*
X138537000Y-140610000I0J-300000D01*
G01*
%TO.C,KSW33*%
X143587000Y-140610000D02*
X143587000Y-154010000D01*
X143887000Y-154310000D02*
X157287000Y-154310000D01*
X157587000Y-154010000D02*
X157587000Y-140610000D01*
X157287000Y-140310000D02*
X143887000Y-140310000D01*
X157587000Y-154010000D02*
G75*
G02*
X157287000Y-154310000I-300000J0D01*
G01*
X143887000Y-154310000D02*
G75*
G02*
X143587000Y-154010000I0J300000D01*
G01*
X143587000Y-140610000D02*
G75*
G02*
X143887000Y-140310000I300000J0D01*
G01*
X157287000Y-140310000D02*
G75*
G02*
X157587000Y-140610000I0J-300000D01*
G01*
%TO.C,KSW34*%
X162637000Y-140610000D02*
X162637000Y-154010000D01*
X162937000Y-154310000D02*
X176337000Y-154310000D01*
X176637000Y-154010000D02*
X176637000Y-140610000D01*
X176337000Y-140310000D02*
X162937000Y-140310000D01*
X176637000Y-154010000D02*
G75*
G02*
X176337000Y-154310000I-300000J0D01*
G01*
X162937000Y-154310000D02*
G75*
G02*
X162637000Y-154010000I0J300000D01*
G01*
X162637000Y-140610000D02*
G75*
G02*
X162937000Y-140310000I300000J0D01*
G01*
X176337000Y-140310000D02*
G75*
G02*
X176637000Y-140610000I0J-300000D01*
G01*
%TO.C,KSW35*%
X181687000Y-140610000D02*
X181687000Y-154010000D01*
X181987000Y-154310000D02*
X195387000Y-154310000D01*
X195687000Y-154010000D02*
X195687000Y-140610000D01*
X195387000Y-140310000D02*
X181987000Y-140310000D01*
X195687000Y-154010000D02*
G75*
G02*
X195387000Y-154310000I-300000J0D01*
G01*
X181987000Y-154310000D02*
G75*
G02*
X181687000Y-154010000I0J300000D01*
G01*
X181687000Y-140610000D02*
G75*
G02*
X181987000Y-140310000I300000J0D01*
G01*
X195387000Y-140310000D02*
G75*
G02*
X195687000Y-140610000I0J-300000D01*
G01*
%TO.C,KSW36*%
X200737000Y-140610000D02*
X200737000Y-154010000D01*
X201037000Y-154310000D02*
X214437000Y-154310000D01*
X214737000Y-154010000D02*
X214737000Y-140610000D01*
X214437000Y-140310000D02*
X201037000Y-140310000D01*
X214737000Y-154010000D02*
G75*
G02*
X214437000Y-154310000I-300000J0D01*
G01*
X201037000Y-154310000D02*
G75*
G02*
X200737000Y-154010000I0J300000D01*
G01*
X200737000Y-140610000D02*
G75*
G02*
X201037000Y-140310000I300000J0D01*
G01*
X214437000Y-140310000D02*
G75*
G02*
X214737000Y-140610000I0J-300000D01*
G01*
%TO.C,KSW37*%
X219787000Y-140610000D02*
X219787000Y-154010000D01*
X220087000Y-154310000D02*
X233487000Y-154310000D01*
X233787000Y-154010000D02*
X233787000Y-140610000D01*
X233487000Y-140310000D02*
X220087000Y-140310000D01*
X233787000Y-154010000D02*
G75*
G02*
X233487000Y-154310000I-300000J0D01*
G01*
X220087000Y-154310000D02*
G75*
G02*
X219787000Y-154010000I0J300000D01*
G01*
X219787000Y-140610000D02*
G75*
G02*
X220087000Y-140310000I300000J0D01*
G01*
X233487000Y-140310000D02*
G75*
G02*
X233787000Y-140610000I0J-300000D01*
G01*
%TO.C,KSW38*%
X238837000Y-140610000D02*
X238837000Y-154010000D01*
X239137000Y-154310000D02*
X252537000Y-154310000D01*
X252837000Y-154010000D02*
X252837000Y-140610000D01*
X252537000Y-140310000D02*
X239137000Y-140310000D01*
X252837000Y-154010000D02*
G75*
G02*
X252537000Y-154310000I-300000J0D01*
G01*
X239137000Y-154310000D02*
G75*
G02*
X238837000Y-154010000I0J300000D01*
G01*
X238837000Y-140610000D02*
G75*
G02*
X239137000Y-140310000I300000J0D01*
G01*
X252537000Y-140310000D02*
G75*
G02*
X252837000Y-140610000I0J-300000D01*
G01*
%TO.C,KSW39*%
X257887000Y-140610000D02*
X257887000Y-154010000D01*
X258187000Y-154310000D02*
X271587000Y-154310000D01*
X271887000Y-154010000D02*
X271887000Y-140610000D01*
X271587000Y-140310000D02*
X258187000Y-140310000D01*
X271887000Y-154010000D02*
G75*
G02*
X271587000Y-154310000I-300000J0D01*
G01*
X258187000Y-154310000D02*
G75*
G02*
X257887000Y-154010000I0J300000D01*
G01*
X257887000Y-140610000D02*
G75*
G02*
X258187000Y-140310000I300000J0D01*
G01*
X271587000Y-140310000D02*
G75*
G02*
X271887000Y-140610000I0J-300000D01*
G01*
%TO.C,KSW40*%
X276937000Y-140610000D02*
X276937000Y-154010000D01*
X277237000Y-154310000D02*
X290637000Y-154310000D01*
X290937000Y-154010000D02*
X290937000Y-140610000D01*
X290637000Y-140310000D02*
X277237000Y-140310000D01*
X290937000Y-154010000D02*
G75*
G02*
X290637000Y-154310000I-300000J0D01*
G01*
X277237000Y-154310000D02*
G75*
G02*
X276937000Y-154010000I0J300000D01*
G01*
X276937000Y-140610000D02*
G75*
G02*
X277237000Y-140310000I300000J0D01*
G01*
X290637000Y-140310000D02*
G75*
G02*
X290937000Y-140610000I0J-300000D01*
G01*
%TO.C,KSW41*%
X295987000Y-140610000D02*
X295987000Y-154010000D01*
X296287000Y-154310000D02*
X309687000Y-154310000D01*
X309987000Y-154010000D02*
X309987000Y-140610000D01*
X309687000Y-140310000D02*
X296287000Y-140310000D01*
X309987000Y-154010000D02*
G75*
G02*
X309687000Y-154310000I-300000J0D01*
G01*
X296287000Y-154310000D02*
G75*
G02*
X295987000Y-154010000I0J300000D01*
G01*
X295987000Y-140610000D02*
G75*
G02*
X296287000Y-140310000I300000J0D01*
G01*
X309687000Y-140310000D02*
G75*
G02*
X309987000Y-140610000I0J-300000D01*
G01*
%TO.C,KSW44*%
X115013000Y-159660000D02*
X115013000Y-173060000D01*
X115313000Y-173360000D02*
X128713000Y-173360000D01*
X129013000Y-173060000D02*
X129013000Y-159660000D01*
X128713000Y-159360000D02*
X115313000Y-159360000D01*
X129013000Y-173060000D02*
G75*
G02*
X128713000Y-173360000I-300000J0D01*
G01*
X115313000Y-173360000D02*
G75*
G02*
X115013000Y-173060000I0J300000D01*
G01*
X115013000Y-159660000D02*
G75*
G02*
X115313000Y-159360000I300000J0D01*
G01*
X128713000Y-159360000D02*
G75*
G02*
X129013000Y-159660000I0J-300000D01*
G01*
%TO.C,KSW45*%
X134063000Y-159660000D02*
X134063000Y-173060000D01*
X134363000Y-173360000D02*
X147763000Y-173360000D01*
X148063000Y-173060000D02*
X148063000Y-159660000D01*
X147763000Y-159360000D02*
X134363000Y-159360000D01*
X148063000Y-173060000D02*
G75*
G02*
X147763000Y-173360000I-300000J0D01*
G01*
X134363000Y-173360000D02*
G75*
G02*
X134063000Y-173060000I0J300000D01*
G01*
X134063000Y-159660000D02*
G75*
G02*
X134363000Y-159360000I300000J0D01*
G01*
X147763000Y-159360000D02*
G75*
G02*
X148063000Y-159660000I0J-300000D01*
G01*
%TO.C,KSW46*%
X153113000Y-159660000D02*
X153113000Y-173060000D01*
X153413000Y-173360000D02*
X166813000Y-173360000D01*
X167113000Y-173060000D02*
X167113000Y-159660000D01*
X166813000Y-159360000D02*
X153413000Y-159360000D01*
X167113000Y-173060000D02*
G75*
G02*
X166813000Y-173360000I-300000J0D01*
G01*
X153413000Y-173360000D02*
G75*
G02*
X153113000Y-173060000I0J300000D01*
G01*
X153113000Y-159660000D02*
G75*
G02*
X153413000Y-159360000I300000J0D01*
G01*
X166813000Y-159360000D02*
G75*
G02*
X167113000Y-159660000I0J-300000D01*
G01*
%TO.C,KSW47*%
X172163000Y-159660000D02*
X172163000Y-173060000D01*
X172463000Y-173360000D02*
X185863000Y-173360000D01*
X186163000Y-173060000D02*
X186163000Y-159660000D01*
X185863000Y-159360000D02*
X172463000Y-159360000D01*
X186163000Y-173060000D02*
G75*
G02*
X185863000Y-173360000I-300000J0D01*
G01*
X172463000Y-173360000D02*
G75*
G02*
X172163000Y-173060000I0J300000D01*
G01*
X172163000Y-159660000D02*
G75*
G02*
X172463000Y-159360000I300000J0D01*
G01*
X185863000Y-159360000D02*
G75*
G02*
X186163000Y-159660000I0J-300000D01*
G01*
%TO.C,KSW48*%
X191213000Y-159660000D02*
X191213000Y-173060000D01*
X191513000Y-173360000D02*
X204913000Y-173360000D01*
X205213000Y-173060000D02*
X205213000Y-159660000D01*
X204913000Y-159360000D02*
X191513000Y-159360000D01*
X205213000Y-173060000D02*
G75*
G02*
X204913000Y-173360000I-300000J0D01*
G01*
X191513000Y-173360000D02*
G75*
G02*
X191213000Y-173060000I0J300000D01*
G01*
X191213000Y-159660000D02*
G75*
G02*
X191513000Y-159360000I300000J0D01*
G01*
X204913000Y-159360000D02*
G75*
G02*
X205213000Y-159660000I0J-300000D01*
G01*
%TO.C,KSW49*%
X210263000Y-159660000D02*
X210263000Y-173060000D01*
X210563000Y-173360000D02*
X223963000Y-173360000D01*
X224263000Y-173060000D02*
X224263000Y-159660000D01*
X223963000Y-159360000D02*
X210563000Y-159360000D01*
X224263000Y-173060000D02*
G75*
G02*
X223963000Y-173360000I-300000J0D01*
G01*
X210563000Y-173360000D02*
G75*
G02*
X210263000Y-173060000I0J300000D01*
G01*
X210263000Y-159660000D02*
G75*
G02*
X210563000Y-159360000I300000J0D01*
G01*
X223963000Y-159360000D02*
G75*
G02*
X224263000Y-159660000I0J-300000D01*
G01*
%TO.C,KSW50*%
X229313000Y-159660000D02*
X229313000Y-173060000D01*
X229613000Y-173360000D02*
X243013000Y-173360000D01*
X243313000Y-173060000D02*
X243313000Y-159660000D01*
X243013000Y-159360000D02*
X229613000Y-159360000D01*
X243313000Y-173060000D02*
G75*
G02*
X243013000Y-173360000I-300000J0D01*
G01*
X229613000Y-173360000D02*
G75*
G02*
X229313000Y-173060000I0J300000D01*
G01*
X229313000Y-159660000D02*
G75*
G02*
X229613000Y-159360000I300000J0D01*
G01*
X243013000Y-159360000D02*
G75*
G02*
X243313000Y-159660000I0J-300000D01*
G01*
%TO.C,KSW51*%
X248363000Y-159660000D02*
X248363000Y-173060000D01*
X248663000Y-173360000D02*
X262063000Y-173360000D01*
X262363000Y-173060000D02*
X262363000Y-159660000D01*
X262063000Y-159360000D02*
X248663000Y-159360000D01*
X262363000Y-173060000D02*
G75*
G02*
X262063000Y-173360000I-300000J0D01*
G01*
X248663000Y-173360000D02*
G75*
G02*
X248363000Y-173060000I0J300000D01*
G01*
X248363000Y-159660000D02*
G75*
G02*
X248663000Y-159360000I300000J0D01*
G01*
X262063000Y-159360000D02*
G75*
G02*
X262363000Y-159660000I0J-300000D01*
G01*
%TO.C,KSW52*%
X267413000Y-159660000D02*
X267413000Y-173060000D01*
X267713000Y-173360000D02*
X281113000Y-173360000D01*
X281413000Y-173060000D02*
X281413000Y-159660000D01*
X281113000Y-159360000D02*
X267713000Y-159360000D01*
X281413000Y-173060000D02*
G75*
G02*
X281113000Y-173360000I-300000J0D01*
G01*
X267713000Y-173360000D02*
G75*
G02*
X267413000Y-173060000I0J300000D01*
G01*
X267413000Y-159660000D02*
G75*
G02*
X267713000Y-159360000I300000J0D01*
G01*
X281113000Y-159360000D02*
G75*
G02*
X281413000Y-159660000I0J-300000D01*
G01*
%TO.C,KSW53*%
X286463000Y-159660000D02*
X286463000Y-173060000D01*
X286763000Y-173360000D02*
X300163000Y-173360000D01*
X300463000Y-173060000D02*
X300463000Y-159660000D01*
X300163000Y-159360000D02*
X286763000Y-159360000D01*
X300463000Y-173060000D02*
G75*
G02*
X300163000Y-173360000I-300000J0D01*
G01*
X286763000Y-173360000D02*
G75*
G02*
X286463000Y-173060000I0J300000D01*
G01*
X286463000Y-159660000D02*
G75*
G02*
X286763000Y-159360000I300000J0D01*
G01*
X300163000Y-159360000D02*
G75*
G02*
X300463000Y-159660000I0J-300000D01*
G01*
%TO.C,KSW54*%
X312656000Y-159660000D02*
X312656000Y-173060000D01*
X312956000Y-173360000D02*
X326356000Y-173360000D01*
X326656000Y-173060000D02*
X326656000Y-159660000D01*
X326356000Y-159360000D02*
X312956000Y-159360000D01*
X326656000Y-173060000D02*
G75*
G02*
X326356000Y-173360000I-300000J0D01*
G01*
X312956000Y-173360000D02*
G75*
G02*
X312656000Y-173060000I0J300000D01*
G01*
X312656000Y-159660000D02*
G75*
G02*
X312956000Y-159360000I300000J0D01*
G01*
X326356000Y-159360000D02*
G75*
G02*
X326656000Y-159660000I0J-300000D01*
G01*
%TO.C,KSW55*%
X338850000Y-159660000D02*
X338850000Y-173060000D01*
X339150000Y-173360000D02*
X352550000Y-173360000D01*
X352850000Y-173060000D02*
X352850000Y-159660000D01*
X352550000Y-159360000D02*
X339150000Y-159360000D01*
X352850000Y-173060000D02*
G75*
G02*
X352550000Y-173360000I-300000J0D01*
G01*
X339150000Y-173360000D02*
G75*
G02*
X338850000Y-173060000I0J300000D01*
G01*
X338850000Y-159660000D02*
G75*
G02*
X339150000Y-159360000I300000J0D01*
G01*
X352550000Y-159360000D02*
G75*
G02*
X352850000Y-159660000I0J-300000D01*
G01*
%TO.C,KSW56*%
X100725000Y-178710000D02*
X100725000Y-192110000D01*
X101025000Y-192410000D02*
X114425000Y-192410000D01*
X114725000Y-192110000D02*
X114725000Y-178710000D01*
X114425000Y-178410000D02*
X101025000Y-178410000D01*
X114725000Y-192110000D02*
G75*
G02*
X114425000Y-192410000I-300000J0D01*
G01*
X101025000Y-192410000D02*
G75*
G02*
X100725000Y-192110000I0J300000D01*
G01*
X100725000Y-178710000D02*
G75*
G02*
X101025000Y-178410000I300000J0D01*
G01*
X114425000Y-178410000D02*
G75*
G02*
X114725000Y-178710000I0J-300000D01*
G01*
%TO.C,KSW57*%
X122156000Y-178710000D02*
X122156000Y-192110000D01*
X122456000Y-192410000D02*
X135856000Y-192410000D01*
X136156000Y-192110000D02*
X136156000Y-178710000D01*
X135856000Y-178410000D02*
X122456000Y-178410000D01*
X136156000Y-192110000D02*
G75*
G02*
X135856000Y-192410000I-300000J0D01*
G01*
X122456000Y-192410000D02*
G75*
G02*
X122156000Y-192110000I0J300000D01*
G01*
X122156000Y-178710000D02*
G75*
G02*
X122456000Y-178410000I300000J0D01*
G01*
X135856000Y-178410000D02*
G75*
G02*
X136156000Y-178710000I0J-300000D01*
G01*
%TO.C,KSW59*%
X267413000Y-178710000D02*
X267413000Y-192110000D01*
X267713000Y-192410000D02*
X281113000Y-192410000D01*
X281413000Y-192110000D02*
X281413000Y-178710000D01*
X281113000Y-178410000D02*
X267713000Y-178410000D01*
X281413000Y-192110000D02*
G75*
G02*
X281113000Y-192410000I-300000J0D01*
G01*
X267713000Y-192410000D02*
G75*
G02*
X267413000Y-192110000I0J300000D01*
G01*
X267413000Y-178710000D02*
G75*
G02*
X267713000Y-178410000I300000J0D01*
G01*
X281113000Y-178410000D02*
G75*
G02*
X281413000Y-178710000I0J-300000D01*
G01*
%TO.C,KSW60*%
X291225000Y-178710000D02*
X291225000Y-192110000D01*
X291525000Y-192410000D02*
X304925000Y-192410000D01*
X305225000Y-192110000D02*
X305225000Y-178710000D01*
X304925000Y-178410000D02*
X291525000Y-178410000D01*
X305225000Y-192110000D02*
G75*
G02*
X304925000Y-192410000I-300000J0D01*
G01*
X291525000Y-192410000D02*
G75*
G02*
X291225000Y-192110000I0J300000D01*
G01*
X291225000Y-178710000D02*
G75*
G02*
X291525000Y-178410000I300000J0D01*
G01*
X304925000Y-178410000D02*
G75*
G02*
X305225000Y-178710000I0J-300000D01*
G01*
%TO.C,KSW14*%
X319800000Y-102510000D02*
X319800000Y-115910000D01*
X320100000Y-116210000D02*
X333500000Y-116210000D01*
X333800000Y-115910000D02*
X333800000Y-102510000D01*
X333500000Y-102210000D02*
X320100000Y-102210000D01*
X333800000Y-115910000D02*
G75*
G02*
X333500000Y-116210000I-300000J0D01*
G01*
X320100000Y-116210000D02*
G75*
G02*
X319800000Y-115910000I0J300000D01*
G01*
X319800000Y-102510000D02*
G75*
G02*
X320100000Y-102210000I300000J0D01*
G01*
X333500000Y-102210000D02*
G75*
G02*
X333800000Y-102510000I0J-300000D01*
G01*
%TO.C,KSW58*%
X207694000Y-182910000D02*
X247031000Y-182910000D01*
X253681000Y-191110000D02*
X247431000Y-191110000D01*
X247131000Y-190810000D02*
X247131000Y-188010000D01*
X253981000Y-179110000D02*
X253981000Y-184810000D01*
X146307000Y-187410000D02*
X146307000Y-185210000D01*
X249031000Y-178710000D02*
X249031000Y-177910000D01*
X147207000Y-184810000D02*
X147207000Y-179110000D01*
X193594000Y-192110000D02*
X193594000Y-188010000D01*
X254881000Y-185210000D02*
X254881000Y-187410000D01*
X153757000Y-191110000D02*
X147507000Y-191110000D01*
X252231000Y-178810000D02*
X253681000Y-178810000D01*
X207594000Y-188010000D02*
X207594000Y-192110000D01*
X253981000Y-187810000D02*
X253981000Y-190810000D01*
X252131000Y-177910000D02*
X252131000Y-178710000D01*
X154057000Y-188010000D02*
X154057000Y-190810000D01*
X249331000Y-177610000D02*
X251831000Y-177610000D01*
X147107000Y-187710000D02*
X146607000Y-187710000D01*
X146607000Y-184910000D02*
X147107000Y-184910000D01*
X147507000Y-178810000D02*
X148957000Y-178810000D01*
X149057000Y-178710000D02*
X149057000Y-177910000D01*
X193494000Y-187910000D02*
X154157000Y-187910000D01*
X254581000Y-187710000D02*
X254081000Y-187710000D01*
X149357000Y-177610000D02*
X151857000Y-177610000D01*
X152157000Y-177910000D02*
X152157000Y-178710000D01*
X247031000Y-187910000D02*
X207694000Y-187910000D01*
X207294000Y-192410000D02*
X193894000Y-192410000D01*
X152257000Y-178810000D02*
X153757000Y-178810000D01*
X193544000Y-182810000D02*
X193544000Y-178710000D01*
X254081000Y-184910000D02*
X254581000Y-184910000D01*
X193844000Y-178410000D02*
X207294000Y-178410000D01*
X247431000Y-178810000D02*
X248931000Y-178810000D01*
X147207000Y-190810000D02*
X147207000Y-187810000D01*
X154057000Y-179110000D02*
X154057000Y-182810000D01*
X207594000Y-178710000D02*
X207594000Y-182810000D01*
X247131000Y-182810000D02*
X247131000Y-179110000D01*
X154157000Y-182910000D02*
X193444000Y-182910000D01*
X193494000Y-187910000D02*
G75*
G02*
X193594000Y-188010000I0J-100000D01*
G01*
X253981000Y-190810000D02*
G75*
G02*
X253681000Y-191110000I-300000J0D01*
G01*
X154057000Y-188010000D02*
G75*
G02*
X154157000Y-187910000I100000J0D01*
G01*
X254081000Y-184910000D02*
G75*
G02*
X253981000Y-184810000I0J100000D01*
G01*
X149057000Y-178710000D02*
G75*
G02*
X148957000Y-178810000I-100000J0D01*
G01*
X247431000Y-191110000D02*
G75*
G02*
X247131000Y-190810000I0J300000D01*
G01*
X153757000Y-178810000D02*
G75*
G02*
X154057000Y-179110000I0J-300000D01*
G01*
X193544000Y-182810000D02*
G75*
G02*
X193444000Y-182910000I-100000J0D01*
G01*
X193544000Y-178710000D02*
G75*
G02*
X193844000Y-178410000I300000J0D01*
G01*
X147107000Y-187710000D02*
G75*
G02*
X147207000Y-187810000I0J-100000D01*
G01*
X149057000Y-177910000D02*
G75*
G02*
X149357000Y-177610000I300000J0D01*
G01*
X247131000Y-179110000D02*
G75*
G02*
X247431000Y-178810000I300000J0D01*
G01*
X253681000Y-178810000D02*
G75*
G02*
X253981000Y-179110000I0J-300000D01*
G01*
X146607000Y-187710000D02*
G75*
G02*
X146307000Y-187410000I0J300000D01*
G01*
X151857000Y-177610000D02*
G75*
G02*
X152157000Y-177910000I0J-300000D01*
G01*
X254881000Y-187410000D02*
G75*
G02*
X254581000Y-187710000I-300000J0D01*
G01*
X253981000Y-187810000D02*
G75*
G02*
X254081000Y-187710000I100000J0D01*
G01*
X147207000Y-184810000D02*
G75*
G02*
X147107000Y-184910000I-100000J0D01*
G01*
X207294000Y-178410000D02*
G75*
G02*
X207594000Y-178710000I0J-300000D01*
G01*
X154057000Y-190810000D02*
G75*
G02*
X153757000Y-191110000I-300000J0D01*
G01*
X252231000Y-178810000D02*
G75*
G02*
X252131000Y-178710000I0J100000D01*
G01*
X147207000Y-179110000D02*
G75*
G02*
X147507000Y-178810000I300000J0D01*
G01*
X146307000Y-185210000D02*
G75*
G02*
X146607000Y-184910000I300000J0D01*
G01*
X249031000Y-178710000D02*
G75*
G02*
X248931000Y-178810000I-100000J0D01*
G01*
X207694000Y-182910000D02*
G75*
G02*
X207594000Y-182810000I0J100000D01*
G01*
X254581000Y-184910000D02*
G75*
G02*
X254881000Y-185210000I0J-300000D01*
G01*
X247031000Y-187910000D02*
G75*
G02*
X247131000Y-188010000I0J-100000D01*
G01*
X152257000Y-178810000D02*
G75*
G02*
X152157000Y-178710000I0J100000D01*
G01*
X207594000Y-188010000D02*
G75*
G02*
X207694000Y-187910000I100000J0D01*
G01*
X147507000Y-191110000D02*
G75*
G02*
X147207000Y-190810000I0J300000D01*
G01*
X154157000Y-182910000D02*
G75*
G02*
X154057000Y-182810000I0J100000D01*
G01*
X249031000Y-177910000D02*
G75*
G02*
X249331000Y-177610000I300000J0D01*
G01*
X247131000Y-182810000D02*
G75*
G02*
X247031000Y-182910000I-100000J0D01*
G01*
X251831000Y-177610000D02*
G75*
G02*
X252131000Y-177910000I0J-300000D01*
G01*
X207594000Y-192110000D02*
G75*
G02*
X207294000Y-192410000I-300000J0D01*
G01*
X193894000Y-192410000D02*
G75*
G02*
X193594000Y-192110000I0J300000D01*
G01*
%TD*%
M02*
