%TF.GenerationSoftware,KiCad,Pcbnew,(5.1.9)-1*%
%TF.CreationDate,2021-10-01T21:54:58+09:00*%
%TF.ProjectId,top,746f702e-6b69-4636-9164-5f7063625858,1*%
%TF.SameCoordinates,Original*%
%TF.FileFunction,Legend,Bot*%
%TF.FilePolarity,Positive*%
%FSLAX46Y46*%
G04 Gerber Fmt 4.6, Leading zero omitted, Abs format (unit mm)*
G04 Created by KiCad (PCBNEW (5.1.9)-1) date 2021-10-01 21:54:58*
%MOMM*%
%LPD*%
G01*
G04 APERTURE LIST*
%ADD10C,0.150000*%
G04 APERTURE END LIST*
D10*
X81320238Y-191246744D02*
X81320238Y-191818173D01*
X81358333Y-191932459D01*
X81434523Y-192008649D01*
X81548809Y-192046744D01*
X81625000Y-192046744D01*
X80558333Y-192046744D02*
X80939285Y-192046744D01*
X80939285Y-191246744D01*
X79834523Y-191970554D02*
X79872619Y-192008649D01*
X79986904Y-192046744D01*
X80063095Y-192046744D01*
X80177380Y-192008649D01*
X80253571Y-191932459D01*
X80291666Y-191856268D01*
X80329761Y-191703887D01*
X80329761Y-191589601D01*
X80291666Y-191437220D01*
X80253571Y-191361030D01*
X80177380Y-191284840D01*
X80063095Y-191246744D01*
X79986904Y-191246744D01*
X79872619Y-191284840D01*
X79834523Y-191322935D01*
X79263095Y-191246744D02*
X79263095Y-191818173D01*
X79301190Y-191932459D01*
X79377380Y-192008649D01*
X79491666Y-192046744D01*
X79567857Y-192046744D01*
X78501190Y-192046744D02*
X78882142Y-192046744D01*
X78882142Y-191246744D01*
X77777380Y-191970554D02*
X77815476Y-192008649D01*
X77929761Y-192046744D01*
X78005952Y-192046744D01*
X78120238Y-192008649D01*
X78196428Y-191932459D01*
X78234523Y-191856268D01*
X78272619Y-191703887D01*
X78272619Y-191589601D01*
X78234523Y-191437220D01*
X78196428Y-191361030D01*
X78120238Y-191284840D01*
X78005952Y-191246744D01*
X77929761Y-191246744D01*
X77815476Y-191284840D01*
X77777380Y-191322935D01*
X77205952Y-191246744D02*
X77205952Y-191818173D01*
X77244047Y-191932459D01*
X77320238Y-192008649D01*
X77434523Y-192046744D01*
X77510714Y-192046744D01*
X76444047Y-192046744D02*
X76825000Y-192046744D01*
X76825000Y-191246744D01*
X75720238Y-191970554D02*
X75758333Y-192008649D01*
X75872619Y-192046744D01*
X75948809Y-192046744D01*
X76063095Y-192008649D01*
X76139285Y-191932459D01*
X76177380Y-191856268D01*
X76215476Y-191703887D01*
X76215476Y-191589601D01*
X76177380Y-191437220D01*
X76139285Y-191361030D01*
X76063095Y-191284840D01*
X75948809Y-191246744D01*
X75872619Y-191246744D01*
X75758333Y-191284840D01*
X75720238Y-191322935D01*
X75148809Y-191246744D02*
X75148809Y-191818173D01*
X75186904Y-191932459D01*
X75263095Y-192008649D01*
X75377380Y-192046744D01*
X75453571Y-192046744D01*
X74386904Y-192046744D02*
X74767857Y-192046744D01*
X74767857Y-191246744D01*
X73663095Y-191970554D02*
X73701190Y-192008649D01*
X73815476Y-192046744D01*
X73891666Y-192046744D01*
X74005952Y-192008649D01*
X74082142Y-191932459D01*
X74120238Y-191856268D01*
X74158333Y-191703887D01*
X74158333Y-191589601D01*
X74120238Y-191437220D01*
X74082142Y-191361030D01*
X74005952Y-191284840D01*
X73891666Y-191246744D01*
X73815476Y-191246744D01*
X73701190Y-191284840D01*
X73663095Y-191322935D01*
M02*
