%TF.GenerationSoftware,KiCad,Pcbnew,(6.0.1)*%
%TF.CreationDate,2022-06-19T08:52:03+09:00*%
%TF.ProjectId,yuiop32dm-topplate,7975696f-7033-4326-946d-2d746f70706c,1*%
%TF.SameCoordinates,Original*%
%TF.FileFunction,Copper,L1,Top*%
%TF.FilePolarity,Positive*%
%FSLAX46Y46*%
G04 Gerber Fmt 4.6, Leading zero omitted, Abs format (unit mm)*
G04 Created by KiCad (PCBNEW (6.0.1)) date 2022-06-19 08:52:03*
%MOMM*%
%LPD*%
G01*
G04 APERTURE LIST*
G04 APERTURE END LIST*
%TA.AperFunction,NonConductor*%
G36*
X231970056Y-31509500D02*
G01*
X231972284Y-31509847D01*
X231984859Y-31511805D01*
X231984861Y-31511805D01*
X231993730Y-31513186D01*
X232002632Y-31512022D01*
X232002634Y-31512022D01*
X232008959Y-31511195D01*
X232034282Y-31510452D01*
X232198126Y-31522170D01*
X232203343Y-31522543D01*
X232221137Y-31525101D01*
X232411540Y-31566521D01*
X232428788Y-31571586D01*
X232611358Y-31639682D01*
X232627710Y-31647149D01*
X232693020Y-31682810D01*
X232798734Y-31740534D01*
X232813848Y-31750248D01*
X232923516Y-31832344D01*
X232969842Y-31867023D01*
X232983428Y-31878796D01*
X233121204Y-32016572D01*
X233132977Y-32030158D01*
X233249752Y-32186152D01*
X233259469Y-32201271D01*
X233352851Y-32372290D01*
X233360318Y-32388642D01*
X233428414Y-32571212D01*
X233433480Y-32588462D01*
X233474899Y-32778863D01*
X233477457Y-32796658D01*
X233489041Y-32958629D01*
X233488297Y-32976533D01*
X233488195Y-32984858D01*
X233486814Y-32993730D01*
X233487978Y-33002632D01*
X233487978Y-33002635D01*
X233490936Y-33025251D01*
X233492000Y-33041589D01*
X233492000Y-146950672D01*
X233490500Y-146970056D01*
X233486814Y-146993730D01*
X233487978Y-147002632D01*
X233487978Y-147002634D01*
X233488805Y-147008959D01*
X233489548Y-147034287D01*
X233477457Y-147203343D01*
X233474899Y-147221137D01*
X233433480Y-147411538D01*
X233428414Y-147428788D01*
X233360318Y-147611358D01*
X233352851Y-147627710D01*
X233259469Y-147798729D01*
X233249752Y-147813848D01*
X233192016Y-147890975D01*
X233132977Y-147969842D01*
X233121204Y-147983428D01*
X232983428Y-148121204D01*
X232969841Y-148132977D01*
X232813848Y-148249752D01*
X232798734Y-148259466D01*
X232693020Y-148317190D01*
X232627710Y-148352851D01*
X232611358Y-148360318D01*
X232428788Y-148428414D01*
X232411540Y-148433479D01*
X232248022Y-148469051D01*
X232221137Y-148474899D01*
X232203342Y-148477457D01*
X232154443Y-148480954D01*
X232041369Y-148489041D01*
X232023467Y-148488297D01*
X232015142Y-148488195D01*
X232006270Y-148486814D01*
X231997368Y-148487978D01*
X231997365Y-148487978D01*
X231974749Y-148490936D01*
X231958411Y-148492000D01*
X68049328Y-148492000D01*
X68029943Y-148490500D01*
X68029661Y-148490456D01*
X68027117Y-148490060D01*
X68015141Y-148488195D01*
X68015139Y-148488195D01*
X68006270Y-148486814D01*
X67997368Y-148487978D01*
X67997366Y-148487978D01*
X67991041Y-148488805D01*
X67965718Y-148489548D01*
X67796657Y-148477457D01*
X67778863Y-148474899D01*
X67751978Y-148469051D01*
X67588460Y-148433479D01*
X67571212Y-148428414D01*
X67388642Y-148360318D01*
X67372290Y-148352851D01*
X67306980Y-148317190D01*
X67201266Y-148259466D01*
X67186152Y-148249752D01*
X67030159Y-148132977D01*
X67016572Y-148121204D01*
X66878796Y-147983428D01*
X66867023Y-147969842D01*
X66807984Y-147890975D01*
X66750248Y-147813848D01*
X66740531Y-147798729D01*
X66647149Y-147627710D01*
X66639682Y-147611358D01*
X66571586Y-147428788D01*
X66566520Y-147411538D01*
X66525101Y-147221137D01*
X66522543Y-147203342D01*
X66510959Y-147041371D01*
X66511703Y-147023467D01*
X66511805Y-147015142D01*
X66513186Y-147006270D01*
X66511547Y-146993730D01*
X66509064Y-146974749D01*
X66508000Y-146958411D01*
X66508000Y-142477874D01*
X70387190Y-142477874D01*
X70403735Y-142764820D01*
X70404560Y-142769025D01*
X70404561Y-142769033D01*
X70437129Y-142935030D01*
X70459070Y-143046865D01*
X70460457Y-143050916D01*
X70536206Y-143272161D01*
X70552171Y-143318792D01*
X70681316Y-143575567D01*
X70683742Y-143579096D01*
X70683745Y-143579102D01*
X70722587Y-143635617D01*
X70844114Y-143812439D01*
X71037553Y-144025026D01*
X71040841Y-144027775D01*
X71254761Y-144206641D01*
X71254766Y-144206645D01*
X71258053Y-144209393D01*
X71379794Y-144285761D01*
X71497895Y-144359846D01*
X71497899Y-144359848D01*
X71501535Y-144362129D01*
X71763493Y-144480407D01*
X72039079Y-144562040D01*
X72043313Y-144562688D01*
X72043318Y-144562689D01*
X72294095Y-144601063D01*
X72323195Y-144605516D01*
X72469580Y-144607815D01*
X72606291Y-144609963D01*
X72606297Y-144609963D01*
X72610582Y-144610030D01*
X72895923Y-144575500D01*
X73173937Y-144502565D01*
X73177897Y-144500925D01*
X73177902Y-144500923D01*
X73320911Y-144441686D01*
X73439481Y-144392573D01*
X73687641Y-144247560D01*
X73913823Y-144070210D01*
X74113844Y-143863804D01*
X74116377Y-143860356D01*
X74116381Y-143860351D01*
X74281464Y-143635617D01*
X74284002Y-143632162D01*
X74421149Y-143379571D01*
X74471947Y-143245137D01*
X74521227Y-143114721D01*
X74521228Y-143114718D01*
X74522745Y-143110703D01*
X74586912Y-142830534D01*
X74593661Y-142754922D01*
X74612243Y-142546715D01*
X74612463Y-142544250D01*
X74612926Y-142500000D01*
X74612757Y-142497519D01*
X74593669Y-142217520D01*
X74593668Y-142217514D01*
X74593377Y-142213243D01*
X74588841Y-142191337D01*
X74535962Y-141935998D01*
X74535091Y-141931792D01*
X74527556Y-141910512D01*
X74440579Y-141664897D01*
X74439148Y-141660856D01*
X74356124Y-141500000D01*
X84886526Y-141500000D01*
X84906391Y-141752403D01*
X84907545Y-141757210D01*
X84907546Y-141757216D01*
X84943087Y-141905254D01*
X84965495Y-141998591D01*
X84967388Y-142003162D01*
X84967389Y-142003164D01*
X85054407Y-142213243D01*
X85062384Y-142232502D01*
X85194672Y-142448376D01*
X85359102Y-142640898D01*
X85551624Y-142805328D01*
X85767498Y-142937616D01*
X85772068Y-142939509D01*
X85772072Y-142939511D01*
X85996836Y-143032611D01*
X86001409Y-143034505D01*
X86086032Y-143054821D01*
X86242784Y-143092454D01*
X86242790Y-143092455D01*
X86247597Y-143093609D01*
X86347416Y-143101465D01*
X86434345Y-143108307D01*
X86434352Y-143108307D01*
X86436801Y-143108500D01*
X86563199Y-143108500D01*
X86565648Y-143108307D01*
X86565655Y-143108307D01*
X86652584Y-143101465D01*
X86752403Y-143093609D01*
X86757210Y-143092455D01*
X86757216Y-143092454D01*
X86913968Y-143054821D01*
X86998591Y-143034505D01*
X87003164Y-143032611D01*
X87227928Y-142939511D01*
X87227932Y-142939509D01*
X87232502Y-142937616D01*
X87448376Y-142805328D01*
X87640898Y-142640898D01*
X87805328Y-142448376D01*
X87937616Y-142232502D01*
X87945594Y-142213243D01*
X88032611Y-142003164D01*
X88032612Y-142003162D01*
X88034505Y-141998591D01*
X88056913Y-141905254D01*
X88092454Y-141757216D01*
X88092455Y-141757210D01*
X88093609Y-141752403D01*
X88113474Y-141500000D01*
X211886526Y-141500000D01*
X211906391Y-141752403D01*
X211907545Y-141757210D01*
X211907546Y-141757216D01*
X211943087Y-141905254D01*
X211965495Y-141998591D01*
X211967388Y-142003162D01*
X211967389Y-142003164D01*
X212054407Y-142213243D01*
X212062384Y-142232502D01*
X212194672Y-142448376D01*
X212359102Y-142640898D01*
X212551624Y-142805328D01*
X212767498Y-142937616D01*
X212772068Y-142939509D01*
X212772072Y-142939511D01*
X212996836Y-143032611D01*
X213001409Y-143034505D01*
X213086032Y-143054821D01*
X213242784Y-143092454D01*
X213242790Y-143092455D01*
X213247597Y-143093609D01*
X213347416Y-143101465D01*
X213434345Y-143108307D01*
X213434352Y-143108307D01*
X213436801Y-143108500D01*
X213563199Y-143108500D01*
X213565648Y-143108307D01*
X213565655Y-143108307D01*
X213652584Y-143101465D01*
X213752403Y-143093609D01*
X213757210Y-143092455D01*
X213757216Y-143092454D01*
X213913968Y-143054821D01*
X213998591Y-143034505D01*
X214003164Y-143032611D01*
X214227928Y-142939511D01*
X214227932Y-142939509D01*
X214232502Y-142937616D01*
X214448376Y-142805328D01*
X214640898Y-142640898D01*
X214780134Y-142477874D01*
X225387190Y-142477874D01*
X225403735Y-142764820D01*
X225404560Y-142769025D01*
X225404561Y-142769033D01*
X225437129Y-142935030D01*
X225459070Y-143046865D01*
X225460457Y-143050916D01*
X225536206Y-143272161D01*
X225552171Y-143318792D01*
X225681316Y-143575567D01*
X225683742Y-143579096D01*
X225683745Y-143579102D01*
X225722587Y-143635617D01*
X225844114Y-143812439D01*
X226037553Y-144025026D01*
X226040841Y-144027775D01*
X226254761Y-144206641D01*
X226254766Y-144206645D01*
X226258053Y-144209393D01*
X226379794Y-144285761D01*
X226497895Y-144359846D01*
X226497899Y-144359848D01*
X226501535Y-144362129D01*
X226763493Y-144480407D01*
X227039079Y-144562040D01*
X227043313Y-144562688D01*
X227043318Y-144562689D01*
X227294095Y-144601063D01*
X227323195Y-144605516D01*
X227469580Y-144607815D01*
X227606291Y-144609963D01*
X227606297Y-144609963D01*
X227610582Y-144610030D01*
X227895923Y-144575500D01*
X228173937Y-144502565D01*
X228177897Y-144500925D01*
X228177902Y-144500923D01*
X228320911Y-144441686D01*
X228439481Y-144392573D01*
X228687641Y-144247560D01*
X228913823Y-144070210D01*
X229113844Y-143863804D01*
X229116377Y-143860356D01*
X229116381Y-143860351D01*
X229281464Y-143635617D01*
X229284002Y-143632162D01*
X229421149Y-143379571D01*
X229471947Y-143245137D01*
X229521227Y-143114721D01*
X229521228Y-143114718D01*
X229522745Y-143110703D01*
X229586912Y-142830534D01*
X229593661Y-142754922D01*
X229612243Y-142546715D01*
X229612463Y-142544250D01*
X229612926Y-142500000D01*
X229612757Y-142497519D01*
X229593669Y-142217520D01*
X229593668Y-142217514D01*
X229593377Y-142213243D01*
X229588841Y-142191337D01*
X229535962Y-141935998D01*
X229535091Y-141931792D01*
X229527556Y-141910512D01*
X229440579Y-141664897D01*
X229439148Y-141660856D01*
X229307321Y-141405447D01*
X229142052Y-141170293D01*
X228989587Y-141006221D01*
X228949318Y-140962886D01*
X228949315Y-140962883D01*
X228946397Y-140959743D01*
X228723978Y-140777695D01*
X228478910Y-140627517D01*
X228474993Y-140625798D01*
X228474990Y-140625796D01*
X228358678Y-140574739D01*
X228215728Y-140511989D01*
X228211600Y-140510813D01*
X228211597Y-140510812D01*
X228125693Y-140486342D01*
X227939302Y-140433247D01*
X227935060Y-140432643D01*
X227935054Y-140432642D01*
X227658998Y-140393353D01*
X227654747Y-140392748D01*
X227503246Y-140391955D01*
X227371614Y-140391265D01*
X227371608Y-140391265D01*
X227367328Y-140391243D01*
X227363083Y-140391802D01*
X227363081Y-140391802D01*
X227297784Y-140400399D01*
X227082365Y-140428760D01*
X226805129Y-140504603D01*
X226540752Y-140617369D01*
X226537071Y-140619572D01*
X226297806Y-140762768D01*
X226297802Y-140762771D01*
X226294124Y-140764972D01*
X226290781Y-140767650D01*
X226290777Y-140767653D01*
X226278243Y-140777695D01*
X226069811Y-140944681D01*
X225871963Y-141153170D01*
X225704240Y-141386581D01*
X225569746Y-141640596D01*
X225470971Y-141910512D01*
X225409741Y-142191337D01*
X225387698Y-142471415D01*
X225387190Y-142477874D01*
X214780134Y-142477874D01*
X214805328Y-142448376D01*
X214937616Y-142232502D01*
X214945594Y-142213243D01*
X215032611Y-142003164D01*
X215032612Y-142003162D01*
X215034505Y-141998591D01*
X215056913Y-141905254D01*
X215092454Y-141757216D01*
X215092455Y-141757210D01*
X215093609Y-141752403D01*
X215113474Y-141500000D01*
X215093609Y-141247597D01*
X215034505Y-141001409D01*
X215018548Y-140962886D01*
X214939511Y-140772072D01*
X214939509Y-140772068D01*
X214937616Y-140767498D01*
X214805328Y-140551624D01*
X214640898Y-140359102D01*
X214448376Y-140194672D01*
X214232502Y-140062384D01*
X214227932Y-140060491D01*
X214227928Y-140060489D01*
X214003164Y-139967389D01*
X214003162Y-139967388D01*
X213998591Y-139965495D01*
X213913968Y-139945179D01*
X213757216Y-139907546D01*
X213757210Y-139907545D01*
X213752403Y-139906391D01*
X213652584Y-139898535D01*
X213565655Y-139891693D01*
X213565648Y-139891693D01*
X213563199Y-139891500D01*
X213436801Y-139891500D01*
X213434352Y-139891693D01*
X213434345Y-139891693D01*
X213347416Y-139898535D01*
X213247597Y-139906391D01*
X213242790Y-139907545D01*
X213242784Y-139907546D01*
X213086032Y-139945179D01*
X213001409Y-139965495D01*
X212996838Y-139967388D01*
X212996836Y-139967389D01*
X212772072Y-140060489D01*
X212772068Y-140060491D01*
X212767498Y-140062384D01*
X212551624Y-140194672D01*
X212359102Y-140359102D01*
X212194672Y-140551624D01*
X212062384Y-140767498D01*
X212060491Y-140772068D01*
X212060489Y-140772072D01*
X211981452Y-140962886D01*
X211965495Y-141001409D01*
X211906391Y-141247597D01*
X211886526Y-141500000D01*
X88113474Y-141500000D01*
X88093609Y-141247597D01*
X88034505Y-141001409D01*
X88018548Y-140962886D01*
X87939511Y-140772072D01*
X87939509Y-140772068D01*
X87937616Y-140767498D01*
X87805328Y-140551624D01*
X87640898Y-140359102D01*
X87448376Y-140194672D01*
X87232502Y-140062384D01*
X87227932Y-140060491D01*
X87227928Y-140060489D01*
X87003164Y-139967389D01*
X87003162Y-139967388D01*
X86998591Y-139965495D01*
X86913968Y-139945179D01*
X86757216Y-139907546D01*
X86757210Y-139907545D01*
X86752403Y-139906391D01*
X86652584Y-139898535D01*
X86565655Y-139891693D01*
X86565648Y-139891693D01*
X86563199Y-139891500D01*
X86436801Y-139891500D01*
X86434352Y-139891693D01*
X86434345Y-139891693D01*
X86347416Y-139898535D01*
X86247597Y-139906391D01*
X86242790Y-139907545D01*
X86242784Y-139907546D01*
X86086032Y-139945179D01*
X86001409Y-139965495D01*
X85996838Y-139967388D01*
X85996836Y-139967389D01*
X85772072Y-140060489D01*
X85772068Y-140060491D01*
X85767498Y-140062384D01*
X85551624Y-140194672D01*
X85359102Y-140359102D01*
X85194672Y-140551624D01*
X85062384Y-140767498D01*
X85060491Y-140772068D01*
X85060489Y-140772072D01*
X84981452Y-140962886D01*
X84965495Y-141001409D01*
X84906391Y-141247597D01*
X84886526Y-141500000D01*
X74356124Y-141500000D01*
X74307321Y-141405447D01*
X74142052Y-141170293D01*
X73989587Y-141006221D01*
X73949318Y-140962886D01*
X73949315Y-140962883D01*
X73946397Y-140959743D01*
X73723978Y-140777695D01*
X73478910Y-140627517D01*
X73474993Y-140625798D01*
X73474990Y-140625796D01*
X73358678Y-140574739D01*
X73215728Y-140511989D01*
X73211600Y-140510813D01*
X73211597Y-140510812D01*
X73125693Y-140486342D01*
X72939302Y-140433247D01*
X72935060Y-140432643D01*
X72935054Y-140432642D01*
X72658998Y-140393353D01*
X72654747Y-140392748D01*
X72503246Y-140391955D01*
X72371614Y-140391265D01*
X72371608Y-140391265D01*
X72367328Y-140391243D01*
X72363083Y-140391802D01*
X72363081Y-140391802D01*
X72297784Y-140400399D01*
X72082365Y-140428760D01*
X71805129Y-140504603D01*
X71540752Y-140617369D01*
X71537071Y-140619572D01*
X71297806Y-140762768D01*
X71297802Y-140762771D01*
X71294124Y-140764972D01*
X71290781Y-140767650D01*
X71290777Y-140767653D01*
X71278243Y-140777695D01*
X71069811Y-140944681D01*
X70871963Y-141153170D01*
X70704240Y-141386581D01*
X70569746Y-141640596D01*
X70470971Y-141910512D01*
X70409741Y-142191337D01*
X70387698Y-142471415D01*
X70387190Y-142477874D01*
X66508000Y-142477874D01*
X66508000Y-134793730D01*
X68668064Y-134793730D01*
X68669228Y-134802631D01*
X68669228Y-134802637D01*
X68670472Y-134812147D01*
X68670929Y-134816133D01*
X68684941Y-134958396D01*
X68731143Y-135110705D01*
X68806172Y-135251073D01*
X68907143Y-135374107D01*
X69030177Y-135475078D01*
X69170545Y-135550107D01*
X69176465Y-135551903D01*
X69176468Y-135551904D01*
X69316932Y-135594513D01*
X69316936Y-135594514D01*
X69322854Y-135596309D01*
X69329017Y-135596916D01*
X69430051Y-135606867D01*
X69438606Y-135608006D01*
X69463918Y-135612265D01*
X69463923Y-135612265D01*
X69468711Y-135613071D01*
X69475010Y-135613148D01*
X69476391Y-135613165D01*
X69476395Y-135613165D01*
X69481250Y-135613224D01*
X69508838Y-135609273D01*
X69526701Y-135608000D01*
X82828043Y-135608000D01*
X82848947Y-135609746D01*
X82868711Y-135613071D01*
X82874901Y-135613147D01*
X82876386Y-135613165D01*
X82876391Y-135613165D01*
X82881250Y-135613224D01*
X82886064Y-135612535D01*
X82886073Y-135612534D01*
X82907899Y-135609408D01*
X82913400Y-135608744D01*
X83039646Y-135596309D01*
X83045570Y-135594512D01*
X83186032Y-135551904D01*
X83186035Y-135551903D01*
X83191955Y-135550107D01*
X83332323Y-135475078D01*
X83455357Y-135374107D01*
X83556328Y-135251073D01*
X83631357Y-135110705D01*
X83677559Y-134958396D01*
X83688117Y-134851199D01*
X83689256Y-134842644D01*
X83693515Y-134817332D01*
X83693515Y-134817327D01*
X83694321Y-134812539D01*
X83694474Y-134800000D01*
X83693576Y-134793730D01*
X87718064Y-134793730D01*
X87719228Y-134802631D01*
X87719228Y-134802637D01*
X87720472Y-134812147D01*
X87720929Y-134816133D01*
X87734941Y-134958396D01*
X87781143Y-135110705D01*
X87856172Y-135251073D01*
X87957143Y-135374107D01*
X88080177Y-135475078D01*
X88220545Y-135550107D01*
X88226465Y-135551903D01*
X88226468Y-135551904D01*
X88366932Y-135594513D01*
X88366936Y-135594514D01*
X88372854Y-135596309D01*
X88379017Y-135596916D01*
X88480051Y-135606867D01*
X88488606Y-135608006D01*
X88513918Y-135612265D01*
X88513923Y-135612265D01*
X88518711Y-135613071D01*
X88525010Y-135613148D01*
X88526391Y-135613165D01*
X88526395Y-135613165D01*
X88531250Y-135613224D01*
X88558838Y-135609273D01*
X88576701Y-135608000D01*
X101878043Y-135608000D01*
X101898947Y-135609746D01*
X101918711Y-135613071D01*
X101924901Y-135613147D01*
X101926386Y-135613165D01*
X101926391Y-135613165D01*
X101931250Y-135613224D01*
X101936064Y-135612535D01*
X101936073Y-135612534D01*
X101957899Y-135609408D01*
X101963400Y-135608744D01*
X102089646Y-135596309D01*
X102095570Y-135594512D01*
X102236032Y-135551904D01*
X102236035Y-135551903D01*
X102241955Y-135550107D01*
X102382323Y-135475078D01*
X102505357Y-135374107D01*
X102606328Y-135251073D01*
X102681357Y-135110705D01*
X102727559Y-134958396D01*
X102738117Y-134851199D01*
X102739256Y-134842644D01*
X102743515Y-134817332D01*
X102743515Y-134817327D01*
X102744321Y-134812539D01*
X102744474Y-134800000D01*
X102743576Y-134793730D01*
X106768064Y-134793730D01*
X106769228Y-134802631D01*
X106769228Y-134802637D01*
X106770472Y-134812147D01*
X106770929Y-134816133D01*
X106784941Y-134958396D01*
X106831143Y-135110705D01*
X106906172Y-135251073D01*
X107007143Y-135374107D01*
X107130177Y-135475078D01*
X107270545Y-135550107D01*
X107276465Y-135551903D01*
X107276468Y-135551904D01*
X107416932Y-135594513D01*
X107416936Y-135594514D01*
X107422854Y-135596309D01*
X107429017Y-135596916D01*
X107530051Y-135606867D01*
X107538606Y-135608006D01*
X107563918Y-135612265D01*
X107563923Y-135612265D01*
X107568711Y-135613071D01*
X107575010Y-135613148D01*
X107576391Y-135613165D01*
X107576395Y-135613165D01*
X107581250Y-135613224D01*
X107608838Y-135609273D01*
X107626701Y-135608000D01*
X120928043Y-135608000D01*
X120948947Y-135609746D01*
X120968711Y-135613071D01*
X120974901Y-135613147D01*
X120976386Y-135613165D01*
X120976391Y-135613165D01*
X120981250Y-135613224D01*
X120986064Y-135612535D01*
X120986073Y-135612534D01*
X121007899Y-135609408D01*
X121013400Y-135608744D01*
X121139646Y-135596309D01*
X121145570Y-135594512D01*
X121286032Y-135551904D01*
X121286035Y-135551903D01*
X121291955Y-135550107D01*
X121432323Y-135475078D01*
X121555357Y-135374107D01*
X121656328Y-135251073D01*
X121731357Y-135110705D01*
X121777559Y-134958396D01*
X121788117Y-134851199D01*
X121789256Y-134842644D01*
X121793515Y-134817332D01*
X121793515Y-134817327D01*
X121794321Y-134812539D01*
X121794474Y-134800000D01*
X121793576Y-134793730D01*
X125818064Y-134793730D01*
X125819228Y-134802631D01*
X125819228Y-134802637D01*
X125820472Y-134812147D01*
X125820929Y-134816133D01*
X125834941Y-134958396D01*
X125881143Y-135110705D01*
X125956172Y-135251073D01*
X126057143Y-135374107D01*
X126180177Y-135475078D01*
X126320545Y-135550107D01*
X126326465Y-135551903D01*
X126326468Y-135551904D01*
X126466932Y-135594513D01*
X126466936Y-135594514D01*
X126472854Y-135596309D01*
X126479017Y-135596916D01*
X126580051Y-135606867D01*
X126588606Y-135608006D01*
X126613918Y-135612265D01*
X126613923Y-135612265D01*
X126618711Y-135613071D01*
X126625010Y-135613148D01*
X126626391Y-135613165D01*
X126626395Y-135613165D01*
X126631250Y-135613224D01*
X126658838Y-135609273D01*
X126676701Y-135608000D01*
X139978043Y-135608000D01*
X139998947Y-135609746D01*
X140018711Y-135613071D01*
X140024901Y-135613147D01*
X140026386Y-135613165D01*
X140026391Y-135613165D01*
X140031250Y-135613224D01*
X140036064Y-135612535D01*
X140036073Y-135612534D01*
X140057899Y-135609408D01*
X140063400Y-135608744D01*
X140189646Y-135596309D01*
X140195570Y-135594512D01*
X140336032Y-135551904D01*
X140336035Y-135551903D01*
X140341955Y-135550107D01*
X140482323Y-135475078D01*
X140605357Y-135374107D01*
X140706328Y-135251073D01*
X140781357Y-135110705D01*
X140827559Y-134958396D01*
X140838117Y-134851199D01*
X140839256Y-134842644D01*
X140843515Y-134817332D01*
X140843515Y-134817327D01*
X140844321Y-134812539D01*
X140844474Y-134800000D01*
X140843576Y-134793730D01*
X159155564Y-134793730D01*
X159156728Y-134802631D01*
X159156728Y-134802637D01*
X159157972Y-134812147D01*
X159158429Y-134816133D01*
X159172441Y-134958396D01*
X159218643Y-135110705D01*
X159293672Y-135251073D01*
X159394643Y-135374107D01*
X159517677Y-135475078D01*
X159658045Y-135550107D01*
X159663965Y-135551903D01*
X159663968Y-135551904D01*
X159804432Y-135594513D01*
X159804436Y-135594514D01*
X159810354Y-135596309D01*
X159816517Y-135596916D01*
X159917551Y-135606867D01*
X159926106Y-135608006D01*
X159951418Y-135612265D01*
X159951423Y-135612265D01*
X159956211Y-135613071D01*
X159962510Y-135613148D01*
X159963891Y-135613165D01*
X159963895Y-135613165D01*
X159968750Y-135613224D01*
X159996338Y-135609273D01*
X160014201Y-135608000D01*
X173315543Y-135608000D01*
X173336447Y-135609746D01*
X173356211Y-135613071D01*
X173362401Y-135613147D01*
X173363886Y-135613165D01*
X173363891Y-135613165D01*
X173368750Y-135613224D01*
X173373564Y-135612535D01*
X173373573Y-135612534D01*
X173395399Y-135609408D01*
X173400900Y-135608744D01*
X173527146Y-135596309D01*
X173533070Y-135594512D01*
X173673532Y-135551904D01*
X173673535Y-135551903D01*
X173679455Y-135550107D01*
X173819823Y-135475078D01*
X173942857Y-135374107D01*
X174043828Y-135251073D01*
X174118857Y-135110705D01*
X174165059Y-134958396D01*
X174175617Y-134851199D01*
X174176756Y-134842644D01*
X174181015Y-134817332D01*
X174181015Y-134817327D01*
X174181821Y-134812539D01*
X174181974Y-134800000D01*
X174181076Y-134793730D01*
X178205564Y-134793730D01*
X178206728Y-134802631D01*
X178206728Y-134802637D01*
X178207972Y-134812147D01*
X178208429Y-134816133D01*
X178222441Y-134958396D01*
X178268643Y-135110705D01*
X178343672Y-135251073D01*
X178444643Y-135374107D01*
X178567677Y-135475078D01*
X178708045Y-135550107D01*
X178713965Y-135551903D01*
X178713968Y-135551904D01*
X178854432Y-135594513D01*
X178854436Y-135594514D01*
X178860354Y-135596309D01*
X178866517Y-135596916D01*
X178967551Y-135606867D01*
X178976106Y-135608006D01*
X179001418Y-135612265D01*
X179001423Y-135612265D01*
X179006211Y-135613071D01*
X179012510Y-135613148D01*
X179013891Y-135613165D01*
X179013895Y-135613165D01*
X179018750Y-135613224D01*
X179046338Y-135609273D01*
X179064201Y-135608000D01*
X192365543Y-135608000D01*
X192386447Y-135609746D01*
X192406211Y-135613071D01*
X192412401Y-135613147D01*
X192413886Y-135613165D01*
X192413891Y-135613165D01*
X192418750Y-135613224D01*
X192423564Y-135612535D01*
X192423573Y-135612534D01*
X192445399Y-135609408D01*
X192450900Y-135608744D01*
X192577146Y-135596309D01*
X192583070Y-135594512D01*
X192723532Y-135551904D01*
X192723535Y-135551903D01*
X192729455Y-135550107D01*
X192869823Y-135475078D01*
X192992857Y-135374107D01*
X193093828Y-135251073D01*
X193168857Y-135110705D01*
X193215059Y-134958396D01*
X193225617Y-134851199D01*
X193226756Y-134842644D01*
X193231015Y-134817332D01*
X193231015Y-134817327D01*
X193231821Y-134812539D01*
X193231974Y-134800000D01*
X193231076Y-134793730D01*
X197255564Y-134793730D01*
X197256728Y-134802631D01*
X197256728Y-134802637D01*
X197257972Y-134812147D01*
X197258429Y-134816133D01*
X197272441Y-134958396D01*
X197318643Y-135110705D01*
X197393672Y-135251073D01*
X197494643Y-135374107D01*
X197617677Y-135475078D01*
X197758045Y-135550107D01*
X197763965Y-135551903D01*
X197763968Y-135551904D01*
X197904432Y-135594513D01*
X197904436Y-135594514D01*
X197910354Y-135596309D01*
X197916517Y-135596916D01*
X198017551Y-135606867D01*
X198026106Y-135608006D01*
X198051418Y-135612265D01*
X198051423Y-135612265D01*
X198056211Y-135613071D01*
X198062510Y-135613148D01*
X198063891Y-135613165D01*
X198063895Y-135613165D01*
X198068750Y-135613224D01*
X198096338Y-135609273D01*
X198114201Y-135608000D01*
X211415543Y-135608000D01*
X211436447Y-135609746D01*
X211456211Y-135613071D01*
X211462401Y-135613147D01*
X211463886Y-135613165D01*
X211463891Y-135613165D01*
X211468750Y-135613224D01*
X211473564Y-135612535D01*
X211473573Y-135612534D01*
X211495399Y-135609408D01*
X211500900Y-135608744D01*
X211627146Y-135596309D01*
X211633070Y-135594512D01*
X211773532Y-135551904D01*
X211773535Y-135551903D01*
X211779455Y-135550107D01*
X211919823Y-135475078D01*
X212042857Y-135374107D01*
X212143828Y-135251073D01*
X212218857Y-135110705D01*
X212265059Y-134958396D01*
X212275617Y-134851199D01*
X212276756Y-134842644D01*
X212281015Y-134817332D01*
X212281015Y-134817327D01*
X212281821Y-134812539D01*
X212281974Y-134800000D01*
X212281076Y-134793730D01*
X216305564Y-134793730D01*
X216306728Y-134802631D01*
X216306728Y-134802637D01*
X216307972Y-134812147D01*
X216308429Y-134816133D01*
X216322441Y-134958396D01*
X216368643Y-135110705D01*
X216443672Y-135251073D01*
X216544643Y-135374107D01*
X216667677Y-135475078D01*
X216808045Y-135550107D01*
X216813965Y-135551903D01*
X216813968Y-135551904D01*
X216954432Y-135594513D01*
X216954436Y-135594514D01*
X216960354Y-135596309D01*
X216966517Y-135596916D01*
X217067551Y-135606867D01*
X217076106Y-135608006D01*
X217101418Y-135612265D01*
X217101423Y-135612265D01*
X217106211Y-135613071D01*
X217112510Y-135613148D01*
X217113891Y-135613165D01*
X217113895Y-135613165D01*
X217118750Y-135613224D01*
X217146338Y-135609273D01*
X217164201Y-135608000D01*
X230465543Y-135608000D01*
X230486447Y-135609746D01*
X230506211Y-135613071D01*
X230512401Y-135613147D01*
X230513886Y-135613165D01*
X230513891Y-135613165D01*
X230518750Y-135613224D01*
X230523564Y-135612535D01*
X230523573Y-135612534D01*
X230545399Y-135609408D01*
X230550900Y-135608744D01*
X230677146Y-135596309D01*
X230683070Y-135594512D01*
X230823532Y-135551904D01*
X230823535Y-135551903D01*
X230829455Y-135550107D01*
X230969823Y-135475078D01*
X231092857Y-135374107D01*
X231193828Y-135251073D01*
X231268857Y-135110705D01*
X231315059Y-134958396D01*
X231325617Y-134851199D01*
X231326756Y-134842644D01*
X231331015Y-134817332D01*
X231331015Y-134817327D01*
X231331821Y-134812539D01*
X231331974Y-134800000D01*
X231328023Y-134772412D01*
X231326750Y-134754549D01*
X231326750Y-121453207D01*
X231328496Y-121432303D01*
X231331014Y-121417335D01*
X231331821Y-121412539D01*
X231331974Y-121400000D01*
X231331285Y-121395186D01*
X231331284Y-121395177D01*
X231328158Y-121373351D01*
X231327492Y-121367837D01*
X231326434Y-121357090D01*
X231315059Y-121241604D01*
X231268857Y-121089295D01*
X231193828Y-120948927D01*
X231092857Y-120825893D01*
X230969823Y-120724922D01*
X230829455Y-120649893D01*
X230823535Y-120648097D01*
X230823532Y-120648096D01*
X230683068Y-120605487D01*
X230683064Y-120605486D01*
X230677146Y-120603691D01*
X230670983Y-120603084D01*
X230569949Y-120593133D01*
X230561394Y-120591994D01*
X230536082Y-120587735D01*
X230536077Y-120587735D01*
X230531289Y-120586929D01*
X230524990Y-120586852D01*
X230523609Y-120586835D01*
X230523605Y-120586835D01*
X230518750Y-120586776D01*
X230491162Y-120590727D01*
X230473299Y-120592000D01*
X217171957Y-120592000D01*
X217151053Y-120590254D01*
X217147887Y-120589721D01*
X217131289Y-120586929D01*
X217125099Y-120586853D01*
X217123614Y-120586835D01*
X217123609Y-120586835D01*
X217118750Y-120586776D01*
X217113936Y-120587465D01*
X217113927Y-120587466D01*
X217092101Y-120590592D01*
X217086600Y-120591256D01*
X216960354Y-120603691D01*
X216954430Y-120605488D01*
X216813968Y-120648096D01*
X216813965Y-120648097D01*
X216808045Y-120649893D01*
X216667677Y-120724922D01*
X216544643Y-120825893D01*
X216443672Y-120948927D01*
X216368643Y-121089295D01*
X216322441Y-121241604D01*
X216321834Y-121247767D01*
X216311067Y-121357090D01*
X216310176Y-121364109D01*
X216305564Y-121393730D01*
X216306728Y-121402632D01*
X216306728Y-121402635D01*
X216309686Y-121425251D01*
X216310750Y-121441589D01*
X216310750Y-134750672D01*
X216309250Y-134770056D01*
X216305564Y-134793730D01*
X212281076Y-134793730D01*
X212278023Y-134772412D01*
X212276750Y-134754549D01*
X212276750Y-121453207D01*
X212278496Y-121432303D01*
X212281014Y-121417335D01*
X212281821Y-121412539D01*
X212281974Y-121400000D01*
X212281285Y-121395186D01*
X212281284Y-121395177D01*
X212278158Y-121373351D01*
X212277492Y-121367837D01*
X212276434Y-121357090D01*
X212265059Y-121241604D01*
X212218857Y-121089295D01*
X212143828Y-120948927D01*
X212042857Y-120825893D01*
X211919823Y-120724922D01*
X211779455Y-120649893D01*
X211773535Y-120648097D01*
X211773532Y-120648096D01*
X211633068Y-120605487D01*
X211633064Y-120605486D01*
X211627146Y-120603691D01*
X211620983Y-120603084D01*
X211519949Y-120593133D01*
X211511394Y-120591994D01*
X211486082Y-120587735D01*
X211486077Y-120587735D01*
X211481289Y-120586929D01*
X211474990Y-120586852D01*
X211473609Y-120586835D01*
X211473605Y-120586835D01*
X211468750Y-120586776D01*
X211441162Y-120590727D01*
X211423299Y-120592000D01*
X198121957Y-120592000D01*
X198101053Y-120590254D01*
X198097887Y-120589721D01*
X198081289Y-120586929D01*
X198075099Y-120586853D01*
X198073614Y-120586835D01*
X198073609Y-120586835D01*
X198068750Y-120586776D01*
X198063936Y-120587465D01*
X198063927Y-120587466D01*
X198042101Y-120590592D01*
X198036600Y-120591256D01*
X197910354Y-120603691D01*
X197904430Y-120605488D01*
X197763968Y-120648096D01*
X197763965Y-120648097D01*
X197758045Y-120649893D01*
X197617677Y-120724922D01*
X197494643Y-120825893D01*
X197393672Y-120948927D01*
X197318643Y-121089295D01*
X197272441Y-121241604D01*
X197271834Y-121247767D01*
X197261067Y-121357090D01*
X197260176Y-121364109D01*
X197255564Y-121393730D01*
X197256728Y-121402632D01*
X197256728Y-121402635D01*
X197259686Y-121425251D01*
X197260750Y-121441589D01*
X197260750Y-134750672D01*
X197259250Y-134770056D01*
X197255564Y-134793730D01*
X193231076Y-134793730D01*
X193228023Y-134772412D01*
X193226750Y-134754549D01*
X193226750Y-121453207D01*
X193228496Y-121432303D01*
X193231014Y-121417335D01*
X193231821Y-121412539D01*
X193231974Y-121400000D01*
X193231285Y-121395186D01*
X193231284Y-121395177D01*
X193228158Y-121373351D01*
X193227492Y-121367837D01*
X193226434Y-121357090D01*
X193215059Y-121241604D01*
X193168857Y-121089295D01*
X193093828Y-120948927D01*
X192992857Y-120825893D01*
X192869823Y-120724922D01*
X192729455Y-120649893D01*
X192723535Y-120648097D01*
X192723532Y-120648096D01*
X192583068Y-120605487D01*
X192583064Y-120605486D01*
X192577146Y-120603691D01*
X192570983Y-120603084D01*
X192469949Y-120593133D01*
X192461394Y-120591994D01*
X192436082Y-120587735D01*
X192436077Y-120587735D01*
X192431289Y-120586929D01*
X192424990Y-120586852D01*
X192423609Y-120586835D01*
X192423605Y-120586835D01*
X192418750Y-120586776D01*
X192391162Y-120590727D01*
X192373299Y-120592000D01*
X179071957Y-120592000D01*
X179051053Y-120590254D01*
X179047887Y-120589721D01*
X179031289Y-120586929D01*
X179025099Y-120586853D01*
X179023614Y-120586835D01*
X179023609Y-120586835D01*
X179018750Y-120586776D01*
X179013936Y-120587465D01*
X179013927Y-120587466D01*
X178992101Y-120590592D01*
X178986600Y-120591256D01*
X178860354Y-120603691D01*
X178854430Y-120605488D01*
X178713968Y-120648096D01*
X178713965Y-120648097D01*
X178708045Y-120649893D01*
X178567677Y-120724922D01*
X178444643Y-120825893D01*
X178343672Y-120948927D01*
X178268643Y-121089295D01*
X178222441Y-121241604D01*
X178221834Y-121247767D01*
X178211067Y-121357090D01*
X178210176Y-121364109D01*
X178205564Y-121393730D01*
X178206728Y-121402632D01*
X178206728Y-121402635D01*
X178209686Y-121425251D01*
X178210750Y-121441589D01*
X178210750Y-134750672D01*
X178209250Y-134770056D01*
X178205564Y-134793730D01*
X174181076Y-134793730D01*
X174178023Y-134772412D01*
X174176750Y-134754549D01*
X174176750Y-121453207D01*
X174178496Y-121432303D01*
X174181014Y-121417335D01*
X174181821Y-121412539D01*
X174181974Y-121400000D01*
X174181285Y-121395186D01*
X174181284Y-121395177D01*
X174178158Y-121373351D01*
X174177492Y-121367837D01*
X174176434Y-121357090D01*
X174165059Y-121241604D01*
X174118857Y-121089295D01*
X174043828Y-120948927D01*
X173942857Y-120825893D01*
X173819823Y-120724922D01*
X173679455Y-120649893D01*
X173673535Y-120648097D01*
X173673532Y-120648096D01*
X173533068Y-120605487D01*
X173533064Y-120605486D01*
X173527146Y-120603691D01*
X173520983Y-120603084D01*
X173419949Y-120593133D01*
X173411394Y-120591994D01*
X173386082Y-120587735D01*
X173386077Y-120587735D01*
X173381289Y-120586929D01*
X173374990Y-120586852D01*
X173373609Y-120586835D01*
X173373605Y-120586835D01*
X173368750Y-120586776D01*
X173341162Y-120590727D01*
X173323299Y-120592000D01*
X160021957Y-120592000D01*
X160001053Y-120590254D01*
X159997887Y-120589721D01*
X159981289Y-120586929D01*
X159975099Y-120586853D01*
X159973614Y-120586835D01*
X159973609Y-120586835D01*
X159968750Y-120586776D01*
X159963936Y-120587465D01*
X159963927Y-120587466D01*
X159942101Y-120590592D01*
X159936600Y-120591256D01*
X159810354Y-120603691D01*
X159804430Y-120605488D01*
X159663968Y-120648096D01*
X159663965Y-120648097D01*
X159658045Y-120649893D01*
X159517677Y-120724922D01*
X159394643Y-120825893D01*
X159293672Y-120948927D01*
X159218643Y-121089295D01*
X159172441Y-121241604D01*
X159171834Y-121247767D01*
X159161067Y-121357090D01*
X159160176Y-121364109D01*
X159155564Y-121393730D01*
X159156728Y-121402632D01*
X159156728Y-121402635D01*
X159159686Y-121425251D01*
X159160750Y-121441589D01*
X159160750Y-134750672D01*
X159159250Y-134770056D01*
X159155564Y-134793730D01*
X140843576Y-134793730D01*
X140840523Y-134772412D01*
X140839250Y-134754549D01*
X140839250Y-121453207D01*
X140840996Y-121432303D01*
X140843514Y-121417335D01*
X140844321Y-121412539D01*
X140844474Y-121400000D01*
X140843785Y-121395186D01*
X140843784Y-121395177D01*
X140840658Y-121373351D01*
X140839992Y-121367837D01*
X140838934Y-121357090D01*
X140827559Y-121241604D01*
X140781357Y-121089295D01*
X140706328Y-120948927D01*
X140605357Y-120825893D01*
X140482323Y-120724922D01*
X140341955Y-120649893D01*
X140336035Y-120648097D01*
X140336032Y-120648096D01*
X140195568Y-120605487D01*
X140195564Y-120605486D01*
X140189646Y-120603691D01*
X140183483Y-120603084D01*
X140082449Y-120593133D01*
X140073894Y-120591994D01*
X140048582Y-120587735D01*
X140048577Y-120587735D01*
X140043789Y-120586929D01*
X140037490Y-120586852D01*
X140036109Y-120586835D01*
X140036105Y-120586835D01*
X140031250Y-120586776D01*
X140003662Y-120590727D01*
X139985799Y-120592000D01*
X126684457Y-120592000D01*
X126663553Y-120590254D01*
X126660387Y-120589721D01*
X126643789Y-120586929D01*
X126637599Y-120586853D01*
X126636114Y-120586835D01*
X126636109Y-120586835D01*
X126631250Y-120586776D01*
X126626436Y-120587465D01*
X126626427Y-120587466D01*
X126604601Y-120590592D01*
X126599100Y-120591256D01*
X126472854Y-120603691D01*
X126466930Y-120605488D01*
X126326468Y-120648096D01*
X126326465Y-120648097D01*
X126320545Y-120649893D01*
X126180177Y-120724922D01*
X126057143Y-120825893D01*
X125956172Y-120948927D01*
X125881143Y-121089295D01*
X125834941Y-121241604D01*
X125834334Y-121247767D01*
X125823567Y-121357090D01*
X125822676Y-121364109D01*
X125818064Y-121393730D01*
X125819228Y-121402632D01*
X125819228Y-121402635D01*
X125822186Y-121425251D01*
X125823250Y-121441589D01*
X125823250Y-134750672D01*
X125821750Y-134770056D01*
X125818064Y-134793730D01*
X121793576Y-134793730D01*
X121790523Y-134772412D01*
X121789250Y-134754549D01*
X121789250Y-121453207D01*
X121790996Y-121432303D01*
X121793514Y-121417335D01*
X121794321Y-121412539D01*
X121794474Y-121400000D01*
X121793785Y-121395186D01*
X121793784Y-121395177D01*
X121790658Y-121373351D01*
X121789992Y-121367837D01*
X121788934Y-121357090D01*
X121777559Y-121241604D01*
X121731357Y-121089295D01*
X121656328Y-120948927D01*
X121555357Y-120825893D01*
X121432323Y-120724922D01*
X121291955Y-120649893D01*
X121286035Y-120648097D01*
X121286032Y-120648096D01*
X121145568Y-120605487D01*
X121145564Y-120605486D01*
X121139646Y-120603691D01*
X121133483Y-120603084D01*
X121032449Y-120593133D01*
X121023894Y-120591994D01*
X120998582Y-120587735D01*
X120998577Y-120587735D01*
X120993789Y-120586929D01*
X120987490Y-120586852D01*
X120986109Y-120586835D01*
X120986105Y-120586835D01*
X120981250Y-120586776D01*
X120953662Y-120590727D01*
X120935799Y-120592000D01*
X107634457Y-120592000D01*
X107613553Y-120590254D01*
X107610387Y-120589721D01*
X107593789Y-120586929D01*
X107587599Y-120586853D01*
X107586114Y-120586835D01*
X107586109Y-120586835D01*
X107581250Y-120586776D01*
X107576436Y-120587465D01*
X107576427Y-120587466D01*
X107554601Y-120590592D01*
X107549100Y-120591256D01*
X107422854Y-120603691D01*
X107416930Y-120605488D01*
X107276468Y-120648096D01*
X107276465Y-120648097D01*
X107270545Y-120649893D01*
X107130177Y-120724922D01*
X107007143Y-120825893D01*
X106906172Y-120948927D01*
X106831143Y-121089295D01*
X106784941Y-121241604D01*
X106784334Y-121247767D01*
X106773567Y-121357090D01*
X106772676Y-121364109D01*
X106768064Y-121393730D01*
X106769228Y-121402632D01*
X106769228Y-121402635D01*
X106772186Y-121425251D01*
X106773250Y-121441589D01*
X106773250Y-134750672D01*
X106771750Y-134770056D01*
X106768064Y-134793730D01*
X102743576Y-134793730D01*
X102740523Y-134772412D01*
X102739250Y-134754549D01*
X102739250Y-121453207D01*
X102740996Y-121432303D01*
X102743514Y-121417335D01*
X102744321Y-121412539D01*
X102744474Y-121400000D01*
X102743785Y-121395186D01*
X102743784Y-121395177D01*
X102740658Y-121373351D01*
X102739992Y-121367837D01*
X102738934Y-121357090D01*
X102727559Y-121241604D01*
X102681357Y-121089295D01*
X102606328Y-120948927D01*
X102505357Y-120825893D01*
X102382323Y-120724922D01*
X102241955Y-120649893D01*
X102236035Y-120648097D01*
X102236032Y-120648096D01*
X102095568Y-120605487D01*
X102095564Y-120605486D01*
X102089646Y-120603691D01*
X102083483Y-120603084D01*
X101982449Y-120593133D01*
X101973894Y-120591994D01*
X101948582Y-120587735D01*
X101948577Y-120587735D01*
X101943789Y-120586929D01*
X101937490Y-120586852D01*
X101936109Y-120586835D01*
X101936105Y-120586835D01*
X101931250Y-120586776D01*
X101903662Y-120590727D01*
X101885799Y-120592000D01*
X88584457Y-120592000D01*
X88563553Y-120590254D01*
X88560387Y-120589721D01*
X88543789Y-120586929D01*
X88537599Y-120586853D01*
X88536114Y-120586835D01*
X88536109Y-120586835D01*
X88531250Y-120586776D01*
X88526436Y-120587465D01*
X88526427Y-120587466D01*
X88504601Y-120590592D01*
X88499100Y-120591256D01*
X88372854Y-120603691D01*
X88366930Y-120605488D01*
X88226468Y-120648096D01*
X88226465Y-120648097D01*
X88220545Y-120649893D01*
X88080177Y-120724922D01*
X87957143Y-120825893D01*
X87856172Y-120948927D01*
X87781143Y-121089295D01*
X87734941Y-121241604D01*
X87734334Y-121247767D01*
X87723567Y-121357090D01*
X87722676Y-121364109D01*
X87718064Y-121393730D01*
X87719228Y-121402632D01*
X87719228Y-121402635D01*
X87722186Y-121425251D01*
X87723250Y-121441589D01*
X87723250Y-134750672D01*
X87721750Y-134770056D01*
X87718064Y-134793730D01*
X83693576Y-134793730D01*
X83690523Y-134772412D01*
X83689250Y-134754549D01*
X83689250Y-121453207D01*
X83690996Y-121432303D01*
X83693514Y-121417335D01*
X83694321Y-121412539D01*
X83694474Y-121400000D01*
X83693785Y-121395186D01*
X83693784Y-121395177D01*
X83690658Y-121373351D01*
X83689992Y-121367837D01*
X83688934Y-121357090D01*
X83677559Y-121241604D01*
X83631357Y-121089295D01*
X83556328Y-120948927D01*
X83455357Y-120825893D01*
X83332323Y-120724922D01*
X83191955Y-120649893D01*
X83186035Y-120648097D01*
X83186032Y-120648096D01*
X83045568Y-120605487D01*
X83045564Y-120605486D01*
X83039646Y-120603691D01*
X83033483Y-120603084D01*
X82932449Y-120593133D01*
X82923894Y-120591994D01*
X82898582Y-120587735D01*
X82898577Y-120587735D01*
X82893789Y-120586929D01*
X82887490Y-120586852D01*
X82886109Y-120586835D01*
X82886105Y-120586835D01*
X82881250Y-120586776D01*
X82853662Y-120590727D01*
X82835799Y-120592000D01*
X69534457Y-120592000D01*
X69513553Y-120590254D01*
X69510387Y-120589721D01*
X69493789Y-120586929D01*
X69487599Y-120586853D01*
X69486114Y-120586835D01*
X69486109Y-120586835D01*
X69481250Y-120586776D01*
X69476436Y-120587465D01*
X69476427Y-120587466D01*
X69454601Y-120590592D01*
X69449100Y-120591256D01*
X69322854Y-120603691D01*
X69316930Y-120605488D01*
X69176468Y-120648096D01*
X69176465Y-120648097D01*
X69170545Y-120649893D01*
X69030177Y-120724922D01*
X68907143Y-120825893D01*
X68806172Y-120948927D01*
X68731143Y-121089295D01*
X68684941Y-121241604D01*
X68684334Y-121247767D01*
X68673567Y-121357090D01*
X68672676Y-121364109D01*
X68668064Y-121393730D01*
X68669228Y-121402632D01*
X68669228Y-121402635D01*
X68672186Y-121425251D01*
X68673250Y-121441589D01*
X68673250Y-134750672D01*
X68671750Y-134770056D01*
X68668064Y-134793730D01*
X66508000Y-134793730D01*
X66508000Y-115743730D01*
X68668064Y-115743730D01*
X68669228Y-115752631D01*
X68669228Y-115752637D01*
X68670472Y-115762147D01*
X68670929Y-115766133D01*
X68684941Y-115908396D01*
X68731143Y-116060705D01*
X68806172Y-116201073D01*
X68907143Y-116324107D01*
X69030177Y-116425078D01*
X69170545Y-116500107D01*
X69176465Y-116501903D01*
X69176468Y-116501904D01*
X69316932Y-116544513D01*
X69316936Y-116544514D01*
X69322854Y-116546309D01*
X69329017Y-116546916D01*
X69430051Y-116556867D01*
X69438606Y-116558006D01*
X69463918Y-116562265D01*
X69463923Y-116562265D01*
X69468711Y-116563071D01*
X69475010Y-116563148D01*
X69476391Y-116563165D01*
X69476395Y-116563165D01*
X69481250Y-116563224D01*
X69508838Y-116559273D01*
X69526701Y-116558000D01*
X82828043Y-116558000D01*
X82848947Y-116559746D01*
X82868711Y-116563071D01*
X82874901Y-116563147D01*
X82876386Y-116563165D01*
X82876391Y-116563165D01*
X82881250Y-116563224D01*
X82886064Y-116562535D01*
X82886073Y-116562534D01*
X82907899Y-116559408D01*
X82913400Y-116558744D01*
X83039646Y-116546309D01*
X83045570Y-116544512D01*
X83186032Y-116501904D01*
X83186035Y-116501903D01*
X83191955Y-116500107D01*
X83332323Y-116425078D01*
X83455357Y-116324107D01*
X83556328Y-116201073D01*
X83631357Y-116060705D01*
X83677559Y-115908396D01*
X83688117Y-115801199D01*
X83689256Y-115792644D01*
X83693515Y-115767332D01*
X83693515Y-115767327D01*
X83694321Y-115762539D01*
X83694474Y-115750000D01*
X83693576Y-115743730D01*
X87718064Y-115743730D01*
X87719228Y-115752631D01*
X87719228Y-115752637D01*
X87720472Y-115762147D01*
X87720929Y-115766133D01*
X87734941Y-115908396D01*
X87781143Y-116060705D01*
X87856172Y-116201073D01*
X87957143Y-116324107D01*
X88080177Y-116425078D01*
X88220545Y-116500107D01*
X88226465Y-116501903D01*
X88226468Y-116501904D01*
X88366932Y-116544513D01*
X88366936Y-116544514D01*
X88372854Y-116546309D01*
X88379017Y-116546916D01*
X88480051Y-116556867D01*
X88488606Y-116558006D01*
X88513918Y-116562265D01*
X88513923Y-116562265D01*
X88518711Y-116563071D01*
X88525010Y-116563148D01*
X88526391Y-116563165D01*
X88526395Y-116563165D01*
X88531250Y-116563224D01*
X88558838Y-116559273D01*
X88576701Y-116558000D01*
X101878043Y-116558000D01*
X101898947Y-116559746D01*
X101918711Y-116563071D01*
X101924901Y-116563147D01*
X101926386Y-116563165D01*
X101926391Y-116563165D01*
X101931250Y-116563224D01*
X101936064Y-116562535D01*
X101936073Y-116562534D01*
X101957899Y-116559408D01*
X101963400Y-116558744D01*
X102089646Y-116546309D01*
X102095570Y-116544512D01*
X102236032Y-116501904D01*
X102236035Y-116501903D01*
X102241955Y-116500107D01*
X102382323Y-116425078D01*
X102505357Y-116324107D01*
X102606328Y-116201073D01*
X102681357Y-116060705D01*
X102727559Y-115908396D01*
X102738117Y-115801199D01*
X102739256Y-115792644D01*
X102743515Y-115767332D01*
X102743515Y-115767327D01*
X102744321Y-115762539D01*
X102744474Y-115750000D01*
X102743576Y-115743730D01*
X106768064Y-115743730D01*
X106769228Y-115752631D01*
X106769228Y-115752637D01*
X106770472Y-115762147D01*
X106770929Y-115766133D01*
X106784941Y-115908396D01*
X106831143Y-116060705D01*
X106906172Y-116201073D01*
X107007143Y-116324107D01*
X107130177Y-116425078D01*
X107270545Y-116500107D01*
X107276465Y-116501903D01*
X107276468Y-116501904D01*
X107416932Y-116544513D01*
X107416936Y-116544514D01*
X107422854Y-116546309D01*
X107429017Y-116546916D01*
X107530051Y-116556867D01*
X107538606Y-116558006D01*
X107563918Y-116562265D01*
X107563923Y-116562265D01*
X107568711Y-116563071D01*
X107575010Y-116563148D01*
X107576391Y-116563165D01*
X107576395Y-116563165D01*
X107581250Y-116563224D01*
X107608838Y-116559273D01*
X107626701Y-116558000D01*
X120928043Y-116558000D01*
X120948947Y-116559746D01*
X120968711Y-116563071D01*
X120974901Y-116563147D01*
X120976386Y-116563165D01*
X120976391Y-116563165D01*
X120981250Y-116563224D01*
X120986064Y-116562535D01*
X120986073Y-116562534D01*
X121007899Y-116559408D01*
X121013400Y-116558744D01*
X121139646Y-116546309D01*
X121145570Y-116544512D01*
X121286032Y-116501904D01*
X121286035Y-116501903D01*
X121291955Y-116500107D01*
X121432323Y-116425078D01*
X121555357Y-116324107D01*
X121656328Y-116201073D01*
X121731357Y-116060705D01*
X121777559Y-115908396D01*
X121788117Y-115801199D01*
X121789256Y-115792644D01*
X121793515Y-115767332D01*
X121793515Y-115767327D01*
X121794321Y-115762539D01*
X121794474Y-115750000D01*
X121793576Y-115743730D01*
X125818064Y-115743730D01*
X125819228Y-115752631D01*
X125819228Y-115752637D01*
X125820472Y-115762147D01*
X125820929Y-115766133D01*
X125834941Y-115908396D01*
X125881143Y-116060705D01*
X125956172Y-116201073D01*
X126057143Y-116324107D01*
X126180177Y-116425078D01*
X126320545Y-116500107D01*
X126326465Y-116501903D01*
X126326468Y-116501904D01*
X126466932Y-116544513D01*
X126466936Y-116544514D01*
X126472854Y-116546309D01*
X126479017Y-116546916D01*
X126580051Y-116556867D01*
X126588606Y-116558006D01*
X126613918Y-116562265D01*
X126613923Y-116562265D01*
X126618711Y-116563071D01*
X126625010Y-116563148D01*
X126626391Y-116563165D01*
X126626395Y-116563165D01*
X126631250Y-116563224D01*
X126658838Y-116559273D01*
X126676701Y-116558000D01*
X139978043Y-116558000D01*
X139998947Y-116559746D01*
X140018711Y-116563071D01*
X140024901Y-116563147D01*
X140026386Y-116563165D01*
X140026391Y-116563165D01*
X140031250Y-116563224D01*
X140036064Y-116562535D01*
X140036073Y-116562534D01*
X140057899Y-116559408D01*
X140063400Y-116558744D01*
X140189646Y-116546309D01*
X140195570Y-116544512D01*
X140336032Y-116501904D01*
X140336035Y-116501903D01*
X140341955Y-116500107D01*
X140482323Y-116425078D01*
X140605357Y-116324107D01*
X140706328Y-116201073D01*
X140781357Y-116060705D01*
X140827559Y-115908396D01*
X140838117Y-115801199D01*
X140839256Y-115792644D01*
X140843515Y-115767332D01*
X140843515Y-115767327D01*
X140844321Y-115762539D01*
X140844474Y-115750000D01*
X140843576Y-115743730D01*
X159155564Y-115743730D01*
X159156728Y-115752631D01*
X159156728Y-115752637D01*
X159157972Y-115762147D01*
X159158429Y-115766133D01*
X159172441Y-115908396D01*
X159218643Y-116060705D01*
X159293672Y-116201073D01*
X159394643Y-116324107D01*
X159517677Y-116425078D01*
X159658045Y-116500107D01*
X159663965Y-116501903D01*
X159663968Y-116501904D01*
X159804432Y-116544513D01*
X159804436Y-116544514D01*
X159810354Y-116546309D01*
X159816517Y-116546916D01*
X159917551Y-116556867D01*
X159926106Y-116558006D01*
X159951418Y-116562265D01*
X159951423Y-116562265D01*
X159956211Y-116563071D01*
X159962510Y-116563148D01*
X159963891Y-116563165D01*
X159963895Y-116563165D01*
X159968750Y-116563224D01*
X159996338Y-116559273D01*
X160014201Y-116558000D01*
X173315543Y-116558000D01*
X173336447Y-116559746D01*
X173356211Y-116563071D01*
X173362401Y-116563147D01*
X173363886Y-116563165D01*
X173363891Y-116563165D01*
X173368750Y-116563224D01*
X173373564Y-116562535D01*
X173373573Y-116562534D01*
X173395399Y-116559408D01*
X173400900Y-116558744D01*
X173527146Y-116546309D01*
X173533070Y-116544512D01*
X173673532Y-116501904D01*
X173673535Y-116501903D01*
X173679455Y-116500107D01*
X173819823Y-116425078D01*
X173942857Y-116324107D01*
X174043828Y-116201073D01*
X174118857Y-116060705D01*
X174165059Y-115908396D01*
X174175617Y-115801199D01*
X174176756Y-115792644D01*
X174181015Y-115767332D01*
X174181015Y-115767327D01*
X174181821Y-115762539D01*
X174181974Y-115750000D01*
X174181076Y-115743730D01*
X178205564Y-115743730D01*
X178206728Y-115752631D01*
X178206728Y-115752637D01*
X178207972Y-115762147D01*
X178208429Y-115766133D01*
X178222441Y-115908396D01*
X178268643Y-116060705D01*
X178343672Y-116201073D01*
X178444643Y-116324107D01*
X178567677Y-116425078D01*
X178708045Y-116500107D01*
X178713965Y-116501903D01*
X178713968Y-116501904D01*
X178854432Y-116544513D01*
X178854436Y-116544514D01*
X178860354Y-116546309D01*
X178866517Y-116546916D01*
X178967551Y-116556867D01*
X178976106Y-116558006D01*
X179001418Y-116562265D01*
X179001423Y-116562265D01*
X179006211Y-116563071D01*
X179012510Y-116563148D01*
X179013891Y-116563165D01*
X179013895Y-116563165D01*
X179018750Y-116563224D01*
X179046338Y-116559273D01*
X179064201Y-116558000D01*
X192365543Y-116558000D01*
X192386447Y-116559746D01*
X192406211Y-116563071D01*
X192412401Y-116563147D01*
X192413886Y-116563165D01*
X192413891Y-116563165D01*
X192418750Y-116563224D01*
X192423564Y-116562535D01*
X192423573Y-116562534D01*
X192445399Y-116559408D01*
X192450900Y-116558744D01*
X192577146Y-116546309D01*
X192583070Y-116544512D01*
X192723532Y-116501904D01*
X192723535Y-116501903D01*
X192729455Y-116500107D01*
X192869823Y-116425078D01*
X192992857Y-116324107D01*
X193093828Y-116201073D01*
X193168857Y-116060705D01*
X193215059Y-115908396D01*
X193225617Y-115801199D01*
X193226756Y-115792644D01*
X193231015Y-115767332D01*
X193231015Y-115767327D01*
X193231821Y-115762539D01*
X193231974Y-115750000D01*
X193231076Y-115743730D01*
X197255564Y-115743730D01*
X197256728Y-115752631D01*
X197256728Y-115752637D01*
X197257972Y-115762147D01*
X197258429Y-115766133D01*
X197272441Y-115908396D01*
X197318643Y-116060705D01*
X197393672Y-116201073D01*
X197494643Y-116324107D01*
X197617677Y-116425078D01*
X197758045Y-116500107D01*
X197763965Y-116501903D01*
X197763968Y-116501904D01*
X197904432Y-116544513D01*
X197904436Y-116544514D01*
X197910354Y-116546309D01*
X197916517Y-116546916D01*
X198017551Y-116556867D01*
X198026106Y-116558006D01*
X198051418Y-116562265D01*
X198051423Y-116562265D01*
X198056211Y-116563071D01*
X198062510Y-116563148D01*
X198063891Y-116563165D01*
X198063895Y-116563165D01*
X198068750Y-116563224D01*
X198096338Y-116559273D01*
X198114201Y-116558000D01*
X211415543Y-116558000D01*
X211436447Y-116559746D01*
X211456211Y-116563071D01*
X211462401Y-116563147D01*
X211463886Y-116563165D01*
X211463891Y-116563165D01*
X211468750Y-116563224D01*
X211473564Y-116562535D01*
X211473573Y-116562534D01*
X211495399Y-116559408D01*
X211500900Y-116558744D01*
X211627146Y-116546309D01*
X211633070Y-116544512D01*
X211773532Y-116501904D01*
X211773535Y-116501903D01*
X211779455Y-116500107D01*
X211919823Y-116425078D01*
X212042857Y-116324107D01*
X212143828Y-116201073D01*
X212218857Y-116060705D01*
X212265059Y-115908396D01*
X212275617Y-115801199D01*
X212276756Y-115792644D01*
X212281015Y-115767332D01*
X212281015Y-115767327D01*
X212281821Y-115762539D01*
X212281974Y-115750000D01*
X212281076Y-115743730D01*
X216305564Y-115743730D01*
X216306728Y-115752631D01*
X216306728Y-115752637D01*
X216307972Y-115762147D01*
X216308429Y-115766133D01*
X216322441Y-115908396D01*
X216368643Y-116060705D01*
X216443672Y-116201073D01*
X216544643Y-116324107D01*
X216667677Y-116425078D01*
X216808045Y-116500107D01*
X216813965Y-116501903D01*
X216813968Y-116501904D01*
X216954432Y-116544513D01*
X216954436Y-116544514D01*
X216960354Y-116546309D01*
X216966517Y-116546916D01*
X217067551Y-116556867D01*
X217076106Y-116558006D01*
X217101418Y-116562265D01*
X217101423Y-116562265D01*
X217106211Y-116563071D01*
X217112510Y-116563148D01*
X217113891Y-116563165D01*
X217113895Y-116563165D01*
X217118750Y-116563224D01*
X217146338Y-116559273D01*
X217164201Y-116558000D01*
X230465543Y-116558000D01*
X230486447Y-116559746D01*
X230506211Y-116563071D01*
X230512401Y-116563147D01*
X230513886Y-116563165D01*
X230513891Y-116563165D01*
X230518750Y-116563224D01*
X230523564Y-116562535D01*
X230523573Y-116562534D01*
X230545399Y-116559408D01*
X230550900Y-116558744D01*
X230677146Y-116546309D01*
X230683070Y-116544512D01*
X230823532Y-116501904D01*
X230823535Y-116501903D01*
X230829455Y-116500107D01*
X230969823Y-116425078D01*
X231092857Y-116324107D01*
X231193828Y-116201073D01*
X231268857Y-116060705D01*
X231315059Y-115908396D01*
X231325617Y-115801199D01*
X231326756Y-115792644D01*
X231331015Y-115767332D01*
X231331015Y-115767327D01*
X231331821Y-115762539D01*
X231331974Y-115750000D01*
X231328023Y-115722412D01*
X231326750Y-115704549D01*
X231326750Y-102403207D01*
X231328496Y-102382303D01*
X231331014Y-102367335D01*
X231331821Y-102362539D01*
X231331974Y-102350000D01*
X231331285Y-102345186D01*
X231331284Y-102345177D01*
X231328158Y-102323351D01*
X231327492Y-102317837D01*
X231326434Y-102307090D01*
X231315059Y-102191604D01*
X231268857Y-102039295D01*
X231193828Y-101898927D01*
X231092857Y-101775893D01*
X230969823Y-101674922D01*
X230829455Y-101599893D01*
X230823535Y-101598097D01*
X230823532Y-101598096D01*
X230683068Y-101555487D01*
X230683064Y-101555486D01*
X230677146Y-101553691D01*
X230670983Y-101553084D01*
X230569949Y-101543133D01*
X230561394Y-101541994D01*
X230536082Y-101537735D01*
X230536077Y-101537735D01*
X230531289Y-101536929D01*
X230524990Y-101536852D01*
X230523609Y-101536835D01*
X230523605Y-101536835D01*
X230518750Y-101536776D01*
X230491162Y-101540727D01*
X230473299Y-101542000D01*
X217171957Y-101542000D01*
X217151053Y-101540254D01*
X217147887Y-101539721D01*
X217131289Y-101536929D01*
X217125099Y-101536853D01*
X217123614Y-101536835D01*
X217123609Y-101536835D01*
X217118750Y-101536776D01*
X217113936Y-101537465D01*
X217113927Y-101537466D01*
X217092101Y-101540592D01*
X217086600Y-101541256D01*
X216960354Y-101553691D01*
X216954430Y-101555488D01*
X216813968Y-101598096D01*
X216813965Y-101598097D01*
X216808045Y-101599893D01*
X216667677Y-101674922D01*
X216544643Y-101775893D01*
X216443672Y-101898927D01*
X216368643Y-102039295D01*
X216322441Y-102191604D01*
X216321834Y-102197767D01*
X216311067Y-102307090D01*
X216310176Y-102314109D01*
X216305564Y-102343730D01*
X216306728Y-102352632D01*
X216306728Y-102352635D01*
X216309686Y-102375251D01*
X216310750Y-102391589D01*
X216310750Y-115700672D01*
X216309250Y-115720056D01*
X216305564Y-115743730D01*
X212281076Y-115743730D01*
X212278023Y-115722412D01*
X212276750Y-115704549D01*
X212276750Y-102403207D01*
X212278496Y-102382303D01*
X212281014Y-102367335D01*
X212281821Y-102362539D01*
X212281974Y-102350000D01*
X212281285Y-102345186D01*
X212281284Y-102345177D01*
X212278158Y-102323351D01*
X212277492Y-102317837D01*
X212276434Y-102307090D01*
X212265059Y-102191604D01*
X212218857Y-102039295D01*
X212143828Y-101898927D01*
X212042857Y-101775893D01*
X211919823Y-101674922D01*
X211779455Y-101599893D01*
X211773535Y-101598097D01*
X211773532Y-101598096D01*
X211633068Y-101555487D01*
X211633064Y-101555486D01*
X211627146Y-101553691D01*
X211620983Y-101553084D01*
X211519949Y-101543133D01*
X211511394Y-101541994D01*
X211486082Y-101537735D01*
X211486077Y-101537735D01*
X211481289Y-101536929D01*
X211474990Y-101536852D01*
X211473609Y-101536835D01*
X211473605Y-101536835D01*
X211468750Y-101536776D01*
X211441162Y-101540727D01*
X211423299Y-101542000D01*
X198121957Y-101542000D01*
X198101053Y-101540254D01*
X198097887Y-101539721D01*
X198081289Y-101536929D01*
X198075099Y-101536853D01*
X198073614Y-101536835D01*
X198073609Y-101536835D01*
X198068750Y-101536776D01*
X198063936Y-101537465D01*
X198063927Y-101537466D01*
X198042101Y-101540592D01*
X198036600Y-101541256D01*
X197910354Y-101553691D01*
X197904430Y-101555488D01*
X197763968Y-101598096D01*
X197763965Y-101598097D01*
X197758045Y-101599893D01*
X197617677Y-101674922D01*
X197494643Y-101775893D01*
X197393672Y-101898927D01*
X197318643Y-102039295D01*
X197272441Y-102191604D01*
X197271834Y-102197767D01*
X197261067Y-102307090D01*
X197260176Y-102314109D01*
X197255564Y-102343730D01*
X197256728Y-102352632D01*
X197256728Y-102352635D01*
X197259686Y-102375251D01*
X197260750Y-102391589D01*
X197260750Y-115700672D01*
X197259250Y-115720056D01*
X197255564Y-115743730D01*
X193231076Y-115743730D01*
X193228023Y-115722412D01*
X193226750Y-115704549D01*
X193226750Y-102403207D01*
X193228496Y-102382303D01*
X193231014Y-102367335D01*
X193231821Y-102362539D01*
X193231974Y-102350000D01*
X193231285Y-102345186D01*
X193231284Y-102345177D01*
X193228158Y-102323351D01*
X193227492Y-102317837D01*
X193226434Y-102307090D01*
X193215059Y-102191604D01*
X193168857Y-102039295D01*
X193093828Y-101898927D01*
X192992857Y-101775893D01*
X192869823Y-101674922D01*
X192729455Y-101599893D01*
X192723535Y-101598097D01*
X192723532Y-101598096D01*
X192583068Y-101555487D01*
X192583064Y-101555486D01*
X192577146Y-101553691D01*
X192570983Y-101553084D01*
X192469949Y-101543133D01*
X192461394Y-101541994D01*
X192436082Y-101537735D01*
X192436077Y-101537735D01*
X192431289Y-101536929D01*
X192424990Y-101536852D01*
X192423609Y-101536835D01*
X192423605Y-101536835D01*
X192418750Y-101536776D01*
X192391162Y-101540727D01*
X192373299Y-101542000D01*
X179071957Y-101542000D01*
X179051053Y-101540254D01*
X179047887Y-101539721D01*
X179031289Y-101536929D01*
X179025099Y-101536853D01*
X179023614Y-101536835D01*
X179023609Y-101536835D01*
X179018750Y-101536776D01*
X179013936Y-101537465D01*
X179013927Y-101537466D01*
X178992101Y-101540592D01*
X178986600Y-101541256D01*
X178860354Y-101553691D01*
X178854430Y-101555488D01*
X178713968Y-101598096D01*
X178713965Y-101598097D01*
X178708045Y-101599893D01*
X178567677Y-101674922D01*
X178444643Y-101775893D01*
X178343672Y-101898927D01*
X178268643Y-102039295D01*
X178222441Y-102191604D01*
X178221834Y-102197767D01*
X178211067Y-102307090D01*
X178210176Y-102314109D01*
X178205564Y-102343730D01*
X178206728Y-102352632D01*
X178206728Y-102352635D01*
X178209686Y-102375251D01*
X178210750Y-102391589D01*
X178210750Y-115700672D01*
X178209250Y-115720056D01*
X178205564Y-115743730D01*
X174181076Y-115743730D01*
X174178023Y-115722412D01*
X174176750Y-115704549D01*
X174176750Y-102403207D01*
X174178496Y-102382303D01*
X174181014Y-102367335D01*
X174181821Y-102362539D01*
X174181974Y-102350000D01*
X174181285Y-102345186D01*
X174181284Y-102345177D01*
X174178158Y-102323351D01*
X174177492Y-102317837D01*
X174176434Y-102307090D01*
X174165059Y-102191604D01*
X174118857Y-102039295D01*
X174043828Y-101898927D01*
X173942857Y-101775893D01*
X173819823Y-101674922D01*
X173679455Y-101599893D01*
X173673535Y-101598097D01*
X173673532Y-101598096D01*
X173533068Y-101555487D01*
X173533064Y-101555486D01*
X173527146Y-101553691D01*
X173520983Y-101553084D01*
X173419949Y-101543133D01*
X173411394Y-101541994D01*
X173386082Y-101537735D01*
X173386077Y-101537735D01*
X173381289Y-101536929D01*
X173374990Y-101536852D01*
X173373609Y-101536835D01*
X173373605Y-101536835D01*
X173368750Y-101536776D01*
X173341162Y-101540727D01*
X173323299Y-101542000D01*
X160021957Y-101542000D01*
X160001053Y-101540254D01*
X159997887Y-101539721D01*
X159981289Y-101536929D01*
X159975099Y-101536853D01*
X159973614Y-101536835D01*
X159973609Y-101536835D01*
X159968750Y-101536776D01*
X159963936Y-101537465D01*
X159963927Y-101537466D01*
X159942101Y-101540592D01*
X159936600Y-101541256D01*
X159810354Y-101553691D01*
X159804430Y-101555488D01*
X159663968Y-101598096D01*
X159663965Y-101598097D01*
X159658045Y-101599893D01*
X159517677Y-101674922D01*
X159394643Y-101775893D01*
X159293672Y-101898927D01*
X159218643Y-102039295D01*
X159172441Y-102191604D01*
X159171834Y-102197767D01*
X159161067Y-102307090D01*
X159160176Y-102314109D01*
X159155564Y-102343730D01*
X159156728Y-102352632D01*
X159156728Y-102352635D01*
X159159686Y-102375251D01*
X159160750Y-102391589D01*
X159160750Y-115700672D01*
X159159250Y-115720056D01*
X159155564Y-115743730D01*
X140843576Y-115743730D01*
X140840523Y-115722412D01*
X140839250Y-115704549D01*
X140839250Y-102403207D01*
X140840996Y-102382303D01*
X140843514Y-102367335D01*
X140844321Y-102362539D01*
X140844474Y-102350000D01*
X140843785Y-102345186D01*
X140843784Y-102345177D01*
X140840658Y-102323351D01*
X140839992Y-102317837D01*
X140838934Y-102307090D01*
X140827559Y-102191604D01*
X140781357Y-102039295D01*
X140706328Y-101898927D01*
X140605357Y-101775893D01*
X140482323Y-101674922D01*
X140341955Y-101599893D01*
X140336035Y-101598097D01*
X140336032Y-101598096D01*
X140195568Y-101555487D01*
X140195564Y-101555486D01*
X140189646Y-101553691D01*
X140183483Y-101553084D01*
X140082449Y-101543133D01*
X140073894Y-101541994D01*
X140048582Y-101537735D01*
X140048577Y-101537735D01*
X140043789Y-101536929D01*
X140037490Y-101536852D01*
X140036109Y-101536835D01*
X140036105Y-101536835D01*
X140031250Y-101536776D01*
X140003662Y-101540727D01*
X139985799Y-101542000D01*
X126684457Y-101542000D01*
X126663553Y-101540254D01*
X126660387Y-101539721D01*
X126643789Y-101536929D01*
X126637599Y-101536853D01*
X126636114Y-101536835D01*
X126636109Y-101536835D01*
X126631250Y-101536776D01*
X126626436Y-101537465D01*
X126626427Y-101537466D01*
X126604601Y-101540592D01*
X126599100Y-101541256D01*
X126472854Y-101553691D01*
X126466930Y-101555488D01*
X126326468Y-101598096D01*
X126326465Y-101598097D01*
X126320545Y-101599893D01*
X126180177Y-101674922D01*
X126057143Y-101775893D01*
X125956172Y-101898927D01*
X125881143Y-102039295D01*
X125834941Y-102191604D01*
X125834334Y-102197767D01*
X125823567Y-102307090D01*
X125822676Y-102314109D01*
X125818064Y-102343730D01*
X125819228Y-102352632D01*
X125819228Y-102352635D01*
X125822186Y-102375251D01*
X125823250Y-102391589D01*
X125823250Y-115700672D01*
X125821750Y-115720056D01*
X125818064Y-115743730D01*
X121793576Y-115743730D01*
X121790523Y-115722412D01*
X121789250Y-115704549D01*
X121789250Y-102403207D01*
X121790996Y-102382303D01*
X121793514Y-102367335D01*
X121794321Y-102362539D01*
X121794474Y-102350000D01*
X121793785Y-102345186D01*
X121793784Y-102345177D01*
X121790658Y-102323351D01*
X121789992Y-102317837D01*
X121788934Y-102307090D01*
X121777559Y-102191604D01*
X121731357Y-102039295D01*
X121656328Y-101898927D01*
X121555357Y-101775893D01*
X121432323Y-101674922D01*
X121291955Y-101599893D01*
X121286035Y-101598097D01*
X121286032Y-101598096D01*
X121145568Y-101555487D01*
X121145564Y-101555486D01*
X121139646Y-101553691D01*
X121133483Y-101553084D01*
X121032449Y-101543133D01*
X121023894Y-101541994D01*
X120998582Y-101537735D01*
X120998577Y-101537735D01*
X120993789Y-101536929D01*
X120987490Y-101536852D01*
X120986109Y-101536835D01*
X120986105Y-101536835D01*
X120981250Y-101536776D01*
X120953662Y-101540727D01*
X120935799Y-101542000D01*
X107634457Y-101542000D01*
X107613553Y-101540254D01*
X107610387Y-101539721D01*
X107593789Y-101536929D01*
X107587599Y-101536853D01*
X107586114Y-101536835D01*
X107586109Y-101536835D01*
X107581250Y-101536776D01*
X107576436Y-101537465D01*
X107576427Y-101537466D01*
X107554601Y-101540592D01*
X107549100Y-101541256D01*
X107422854Y-101553691D01*
X107416930Y-101555488D01*
X107276468Y-101598096D01*
X107276465Y-101598097D01*
X107270545Y-101599893D01*
X107130177Y-101674922D01*
X107007143Y-101775893D01*
X106906172Y-101898927D01*
X106831143Y-102039295D01*
X106784941Y-102191604D01*
X106784334Y-102197767D01*
X106773567Y-102307090D01*
X106772676Y-102314109D01*
X106768064Y-102343730D01*
X106769228Y-102352632D01*
X106769228Y-102352635D01*
X106772186Y-102375251D01*
X106773250Y-102391589D01*
X106773250Y-115700672D01*
X106771750Y-115720056D01*
X106768064Y-115743730D01*
X102743576Y-115743730D01*
X102740523Y-115722412D01*
X102739250Y-115704549D01*
X102739250Y-102403207D01*
X102740996Y-102382303D01*
X102743514Y-102367335D01*
X102744321Y-102362539D01*
X102744474Y-102350000D01*
X102743785Y-102345186D01*
X102743784Y-102345177D01*
X102740658Y-102323351D01*
X102739992Y-102317837D01*
X102738934Y-102307090D01*
X102727559Y-102191604D01*
X102681357Y-102039295D01*
X102606328Y-101898927D01*
X102505357Y-101775893D01*
X102382323Y-101674922D01*
X102241955Y-101599893D01*
X102236035Y-101598097D01*
X102236032Y-101598096D01*
X102095568Y-101555487D01*
X102095564Y-101555486D01*
X102089646Y-101553691D01*
X102083483Y-101553084D01*
X101982449Y-101543133D01*
X101973894Y-101541994D01*
X101948582Y-101537735D01*
X101948577Y-101537735D01*
X101943789Y-101536929D01*
X101937490Y-101536852D01*
X101936109Y-101536835D01*
X101936105Y-101536835D01*
X101931250Y-101536776D01*
X101903662Y-101540727D01*
X101885799Y-101542000D01*
X88584457Y-101542000D01*
X88563553Y-101540254D01*
X88560387Y-101539721D01*
X88543789Y-101536929D01*
X88537599Y-101536853D01*
X88536114Y-101536835D01*
X88536109Y-101536835D01*
X88531250Y-101536776D01*
X88526436Y-101537465D01*
X88526427Y-101537466D01*
X88504601Y-101540592D01*
X88499100Y-101541256D01*
X88372854Y-101553691D01*
X88366930Y-101555488D01*
X88226468Y-101598096D01*
X88226465Y-101598097D01*
X88220545Y-101599893D01*
X88080177Y-101674922D01*
X87957143Y-101775893D01*
X87856172Y-101898927D01*
X87781143Y-102039295D01*
X87734941Y-102191604D01*
X87734334Y-102197767D01*
X87723567Y-102307090D01*
X87722676Y-102314109D01*
X87718064Y-102343730D01*
X87719228Y-102352632D01*
X87719228Y-102352635D01*
X87722186Y-102375251D01*
X87723250Y-102391589D01*
X87723250Y-115700672D01*
X87721750Y-115720056D01*
X87718064Y-115743730D01*
X83693576Y-115743730D01*
X83690523Y-115722412D01*
X83689250Y-115704549D01*
X83689250Y-102403207D01*
X83690996Y-102382303D01*
X83693514Y-102367335D01*
X83694321Y-102362539D01*
X83694474Y-102350000D01*
X83693785Y-102345186D01*
X83693784Y-102345177D01*
X83690658Y-102323351D01*
X83689992Y-102317837D01*
X83688934Y-102307090D01*
X83677559Y-102191604D01*
X83631357Y-102039295D01*
X83556328Y-101898927D01*
X83455357Y-101775893D01*
X83332323Y-101674922D01*
X83191955Y-101599893D01*
X83186035Y-101598097D01*
X83186032Y-101598096D01*
X83045568Y-101555487D01*
X83045564Y-101555486D01*
X83039646Y-101553691D01*
X83033483Y-101553084D01*
X82932449Y-101543133D01*
X82923894Y-101541994D01*
X82898582Y-101537735D01*
X82898577Y-101537735D01*
X82893789Y-101536929D01*
X82887490Y-101536852D01*
X82886109Y-101536835D01*
X82886105Y-101536835D01*
X82881250Y-101536776D01*
X82853662Y-101540727D01*
X82835799Y-101542000D01*
X69534457Y-101542000D01*
X69513553Y-101540254D01*
X69510387Y-101539721D01*
X69493789Y-101536929D01*
X69487599Y-101536853D01*
X69486114Y-101536835D01*
X69486109Y-101536835D01*
X69481250Y-101536776D01*
X69476436Y-101537465D01*
X69476427Y-101537466D01*
X69454601Y-101540592D01*
X69449100Y-101541256D01*
X69322854Y-101553691D01*
X69316930Y-101555488D01*
X69176468Y-101598096D01*
X69176465Y-101598097D01*
X69170545Y-101599893D01*
X69030177Y-101674922D01*
X68907143Y-101775893D01*
X68806172Y-101898927D01*
X68731143Y-102039295D01*
X68684941Y-102191604D01*
X68684334Y-102197767D01*
X68673567Y-102307090D01*
X68672676Y-102314109D01*
X68668064Y-102343730D01*
X68669228Y-102352632D01*
X68669228Y-102352635D01*
X68672186Y-102375251D01*
X68673250Y-102391589D01*
X68673250Y-115700672D01*
X68671750Y-115720056D01*
X68668064Y-115743730D01*
X66508000Y-115743730D01*
X66508000Y-100000000D01*
X148386526Y-100000000D01*
X148406391Y-100252403D01*
X148465495Y-100498591D01*
X148562384Y-100732502D01*
X148694672Y-100948376D01*
X148859102Y-101140898D01*
X149051624Y-101305328D01*
X149267498Y-101437616D01*
X149272068Y-101439509D01*
X149272072Y-101439511D01*
X149496836Y-101532611D01*
X149501409Y-101534505D01*
X149537348Y-101543133D01*
X149742784Y-101592454D01*
X149742790Y-101592455D01*
X149747597Y-101593609D01*
X149847416Y-101601465D01*
X149934345Y-101608307D01*
X149934352Y-101608307D01*
X149936801Y-101608500D01*
X150063199Y-101608500D01*
X150065648Y-101608307D01*
X150065655Y-101608307D01*
X150152584Y-101601465D01*
X150252403Y-101593609D01*
X150257210Y-101592455D01*
X150257216Y-101592454D01*
X150462652Y-101543133D01*
X150498591Y-101534505D01*
X150503164Y-101532611D01*
X150727928Y-101439511D01*
X150727932Y-101439509D01*
X150732502Y-101437616D01*
X150948376Y-101305328D01*
X151140898Y-101140898D01*
X151305328Y-100948376D01*
X151437616Y-100732502D01*
X151534505Y-100498591D01*
X151593609Y-100252403D01*
X151613474Y-100000000D01*
X151593609Y-99747597D01*
X151534505Y-99501409D01*
X151437616Y-99267498D01*
X151305328Y-99051624D01*
X151140898Y-98859102D01*
X150948376Y-98694672D01*
X150732502Y-98562384D01*
X150727932Y-98560491D01*
X150727928Y-98560489D01*
X150503164Y-98467389D01*
X150503162Y-98467388D01*
X150498591Y-98465495D01*
X150413968Y-98445179D01*
X150257216Y-98407546D01*
X150257210Y-98407545D01*
X150252403Y-98406391D01*
X150152584Y-98398535D01*
X150065655Y-98391693D01*
X150065648Y-98391693D01*
X150063199Y-98391500D01*
X149936801Y-98391500D01*
X149934352Y-98391693D01*
X149934345Y-98391693D01*
X149847416Y-98398535D01*
X149747597Y-98406391D01*
X149742790Y-98407545D01*
X149742784Y-98407546D01*
X149586032Y-98445179D01*
X149501409Y-98465495D01*
X149496838Y-98467388D01*
X149496836Y-98467389D01*
X149272072Y-98560489D01*
X149272068Y-98560491D01*
X149267498Y-98562384D01*
X149051624Y-98694672D01*
X148859102Y-98859102D01*
X148694672Y-99051624D01*
X148562384Y-99267498D01*
X148465495Y-99501409D01*
X148406391Y-99747597D01*
X148386526Y-100000000D01*
X66508000Y-100000000D01*
X66508000Y-96693730D01*
X68668064Y-96693730D01*
X68669228Y-96702631D01*
X68669228Y-96702637D01*
X68670472Y-96712147D01*
X68670929Y-96716133D01*
X68684941Y-96858396D01*
X68731143Y-97010705D01*
X68806172Y-97151073D01*
X68907143Y-97274107D01*
X69030177Y-97375078D01*
X69170545Y-97450107D01*
X69176465Y-97451903D01*
X69176468Y-97451904D01*
X69316932Y-97494513D01*
X69316936Y-97494514D01*
X69322854Y-97496309D01*
X69329017Y-97496916D01*
X69430051Y-97506867D01*
X69438606Y-97508006D01*
X69463918Y-97512265D01*
X69463923Y-97512265D01*
X69468711Y-97513071D01*
X69475010Y-97513148D01*
X69476391Y-97513165D01*
X69476395Y-97513165D01*
X69481250Y-97513224D01*
X69508838Y-97509273D01*
X69526701Y-97508000D01*
X82828043Y-97508000D01*
X82848947Y-97509746D01*
X82868711Y-97513071D01*
X82874901Y-97513147D01*
X82876386Y-97513165D01*
X82876391Y-97513165D01*
X82881250Y-97513224D01*
X82886064Y-97512535D01*
X82886073Y-97512534D01*
X82907899Y-97509408D01*
X82913400Y-97508744D01*
X83039646Y-97496309D01*
X83045570Y-97494512D01*
X83186032Y-97451904D01*
X83186035Y-97451903D01*
X83191955Y-97450107D01*
X83332323Y-97375078D01*
X83455357Y-97274107D01*
X83556328Y-97151073D01*
X83631357Y-97010705D01*
X83677559Y-96858396D01*
X83688117Y-96751199D01*
X83689256Y-96742644D01*
X83693515Y-96717332D01*
X83693515Y-96717327D01*
X83694321Y-96712539D01*
X83694474Y-96700000D01*
X83693576Y-96693730D01*
X87718064Y-96693730D01*
X87719228Y-96702631D01*
X87719228Y-96702637D01*
X87720472Y-96712147D01*
X87720929Y-96716133D01*
X87734941Y-96858396D01*
X87781143Y-97010705D01*
X87856172Y-97151073D01*
X87957143Y-97274107D01*
X88080177Y-97375078D01*
X88220545Y-97450107D01*
X88226465Y-97451903D01*
X88226468Y-97451904D01*
X88366932Y-97494513D01*
X88366936Y-97494514D01*
X88372854Y-97496309D01*
X88379017Y-97496916D01*
X88480051Y-97506867D01*
X88488606Y-97508006D01*
X88513918Y-97512265D01*
X88513923Y-97512265D01*
X88518711Y-97513071D01*
X88525010Y-97513148D01*
X88526391Y-97513165D01*
X88526395Y-97513165D01*
X88531250Y-97513224D01*
X88558838Y-97509273D01*
X88576701Y-97508000D01*
X101878043Y-97508000D01*
X101898947Y-97509746D01*
X101918711Y-97513071D01*
X101924901Y-97513147D01*
X101926386Y-97513165D01*
X101926391Y-97513165D01*
X101931250Y-97513224D01*
X101936064Y-97512535D01*
X101936073Y-97512534D01*
X101957899Y-97509408D01*
X101963400Y-97508744D01*
X102089646Y-97496309D01*
X102095570Y-97494512D01*
X102236032Y-97451904D01*
X102236035Y-97451903D01*
X102241955Y-97450107D01*
X102382323Y-97375078D01*
X102505357Y-97274107D01*
X102606328Y-97151073D01*
X102681357Y-97010705D01*
X102727559Y-96858396D01*
X102738117Y-96751199D01*
X102739256Y-96742644D01*
X102743515Y-96717332D01*
X102743515Y-96717327D01*
X102744321Y-96712539D01*
X102744474Y-96700000D01*
X102743576Y-96693730D01*
X106768064Y-96693730D01*
X106769228Y-96702631D01*
X106769228Y-96702637D01*
X106770472Y-96712147D01*
X106770929Y-96716133D01*
X106784941Y-96858396D01*
X106831143Y-97010705D01*
X106906172Y-97151073D01*
X107007143Y-97274107D01*
X107130177Y-97375078D01*
X107270545Y-97450107D01*
X107276465Y-97451903D01*
X107276468Y-97451904D01*
X107416932Y-97494513D01*
X107416936Y-97494514D01*
X107422854Y-97496309D01*
X107429017Y-97496916D01*
X107530051Y-97506867D01*
X107538606Y-97508006D01*
X107563918Y-97512265D01*
X107563923Y-97512265D01*
X107568711Y-97513071D01*
X107575010Y-97513148D01*
X107576391Y-97513165D01*
X107576395Y-97513165D01*
X107581250Y-97513224D01*
X107608838Y-97509273D01*
X107626701Y-97508000D01*
X120928043Y-97508000D01*
X120948947Y-97509746D01*
X120968711Y-97513071D01*
X120974901Y-97513147D01*
X120976386Y-97513165D01*
X120976391Y-97513165D01*
X120981250Y-97513224D01*
X120986064Y-97512535D01*
X120986073Y-97512534D01*
X121007899Y-97509408D01*
X121013400Y-97508744D01*
X121139646Y-97496309D01*
X121145570Y-97494512D01*
X121286032Y-97451904D01*
X121286035Y-97451903D01*
X121291955Y-97450107D01*
X121432323Y-97375078D01*
X121555357Y-97274107D01*
X121656328Y-97151073D01*
X121731357Y-97010705D01*
X121777559Y-96858396D01*
X121788117Y-96751199D01*
X121789256Y-96742644D01*
X121793515Y-96717332D01*
X121793515Y-96717327D01*
X121794321Y-96712539D01*
X121794474Y-96700000D01*
X121793576Y-96693730D01*
X125818064Y-96693730D01*
X125819228Y-96702631D01*
X125819228Y-96702637D01*
X125820472Y-96712147D01*
X125820929Y-96716133D01*
X125834941Y-96858396D01*
X125881143Y-97010705D01*
X125956172Y-97151073D01*
X126057143Y-97274107D01*
X126180177Y-97375078D01*
X126320545Y-97450107D01*
X126326465Y-97451903D01*
X126326468Y-97451904D01*
X126466932Y-97494513D01*
X126466936Y-97494514D01*
X126472854Y-97496309D01*
X126479017Y-97496916D01*
X126580051Y-97506867D01*
X126588606Y-97508006D01*
X126613918Y-97512265D01*
X126613923Y-97512265D01*
X126618711Y-97513071D01*
X126625010Y-97513148D01*
X126626391Y-97513165D01*
X126626395Y-97513165D01*
X126631250Y-97513224D01*
X126658838Y-97509273D01*
X126676701Y-97508000D01*
X139978043Y-97508000D01*
X139998947Y-97509746D01*
X140018711Y-97513071D01*
X140024901Y-97513147D01*
X140026386Y-97513165D01*
X140026391Y-97513165D01*
X140031250Y-97513224D01*
X140036064Y-97512535D01*
X140036073Y-97512534D01*
X140057899Y-97509408D01*
X140063400Y-97508744D01*
X140189646Y-97496309D01*
X140195570Y-97494512D01*
X140336032Y-97451904D01*
X140336035Y-97451903D01*
X140341955Y-97450107D01*
X140482323Y-97375078D01*
X140605357Y-97274107D01*
X140706328Y-97151073D01*
X140781357Y-97010705D01*
X140827559Y-96858396D01*
X140838117Y-96751199D01*
X140839256Y-96742644D01*
X140843515Y-96717332D01*
X140843515Y-96717327D01*
X140844321Y-96712539D01*
X140844474Y-96700000D01*
X140843576Y-96693730D01*
X159155564Y-96693730D01*
X159156728Y-96702631D01*
X159156728Y-96702637D01*
X159157972Y-96712147D01*
X159158429Y-96716133D01*
X159172441Y-96858396D01*
X159218643Y-97010705D01*
X159293672Y-97151073D01*
X159394643Y-97274107D01*
X159517677Y-97375078D01*
X159658045Y-97450107D01*
X159663965Y-97451903D01*
X159663968Y-97451904D01*
X159804432Y-97494513D01*
X159804436Y-97494514D01*
X159810354Y-97496309D01*
X159816517Y-97496916D01*
X159917551Y-97506867D01*
X159926106Y-97508006D01*
X159951418Y-97512265D01*
X159951423Y-97512265D01*
X159956211Y-97513071D01*
X159962510Y-97513148D01*
X159963891Y-97513165D01*
X159963895Y-97513165D01*
X159968750Y-97513224D01*
X159996338Y-97509273D01*
X160014201Y-97508000D01*
X173315543Y-97508000D01*
X173336447Y-97509746D01*
X173356211Y-97513071D01*
X173362401Y-97513147D01*
X173363886Y-97513165D01*
X173363891Y-97513165D01*
X173368750Y-97513224D01*
X173373564Y-97512535D01*
X173373573Y-97512534D01*
X173395399Y-97509408D01*
X173400900Y-97508744D01*
X173527146Y-97496309D01*
X173533070Y-97494512D01*
X173673532Y-97451904D01*
X173673535Y-97451903D01*
X173679455Y-97450107D01*
X173819823Y-97375078D01*
X173942857Y-97274107D01*
X174043828Y-97151073D01*
X174118857Y-97010705D01*
X174165059Y-96858396D01*
X174175617Y-96751199D01*
X174176756Y-96742644D01*
X174181015Y-96717332D01*
X174181015Y-96717327D01*
X174181821Y-96712539D01*
X174181974Y-96700000D01*
X174181076Y-96693730D01*
X178205564Y-96693730D01*
X178206728Y-96702631D01*
X178206728Y-96702637D01*
X178207972Y-96712147D01*
X178208429Y-96716133D01*
X178222441Y-96858396D01*
X178268643Y-97010705D01*
X178343672Y-97151073D01*
X178444643Y-97274107D01*
X178567677Y-97375078D01*
X178708045Y-97450107D01*
X178713965Y-97451903D01*
X178713968Y-97451904D01*
X178854432Y-97494513D01*
X178854436Y-97494514D01*
X178860354Y-97496309D01*
X178866517Y-97496916D01*
X178967551Y-97506867D01*
X178976106Y-97508006D01*
X179001418Y-97512265D01*
X179001423Y-97512265D01*
X179006211Y-97513071D01*
X179012510Y-97513148D01*
X179013891Y-97513165D01*
X179013895Y-97513165D01*
X179018750Y-97513224D01*
X179046338Y-97509273D01*
X179064201Y-97508000D01*
X192365543Y-97508000D01*
X192386447Y-97509746D01*
X192406211Y-97513071D01*
X192412401Y-97513147D01*
X192413886Y-97513165D01*
X192413891Y-97513165D01*
X192418750Y-97513224D01*
X192423564Y-97512535D01*
X192423573Y-97512534D01*
X192445399Y-97509408D01*
X192450900Y-97508744D01*
X192577146Y-97496309D01*
X192583070Y-97494512D01*
X192723532Y-97451904D01*
X192723535Y-97451903D01*
X192729455Y-97450107D01*
X192869823Y-97375078D01*
X192992857Y-97274107D01*
X193093828Y-97151073D01*
X193168857Y-97010705D01*
X193215059Y-96858396D01*
X193225617Y-96751199D01*
X193226756Y-96742644D01*
X193231015Y-96717332D01*
X193231015Y-96717327D01*
X193231821Y-96712539D01*
X193231974Y-96700000D01*
X193231076Y-96693730D01*
X197255564Y-96693730D01*
X197256728Y-96702631D01*
X197256728Y-96702637D01*
X197257972Y-96712147D01*
X197258429Y-96716133D01*
X197272441Y-96858396D01*
X197318643Y-97010705D01*
X197393672Y-97151073D01*
X197494643Y-97274107D01*
X197617677Y-97375078D01*
X197758045Y-97450107D01*
X197763965Y-97451903D01*
X197763968Y-97451904D01*
X197904432Y-97494513D01*
X197904436Y-97494514D01*
X197910354Y-97496309D01*
X197916517Y-97496916D01*
X198017551Y-97506867D01*
X198026106Y-97508006D01*
X198051418Y-97512265D01*
X198051423Y-97512265D01*
X198056211Y-97513071D01*
X198062510Y-97513148D01*
X198063891Y-97513165D01*
X198063895Y-97513165D01*
X198068750Y-97513224D01*
X198096338Y-97509273D01*
X198114201Y-97508000D01*
X211415543Y-97508000D01*
X211436447Y-97509746D01*
X211456211Y-97513071D01*
X211462401Y-97513147D01*
X211463886Y-97513165D01*
X211463891Y-97513165D01*
X211468750Y-97513224D01*
X211473564Y-97512535D01*
X211473573Y-97512534D01*
X211495399Y-97509408D01*
X211500900Y-97508744D01*
X211627146Y-97496309D01*
X211633070Y-97494512D01*
X211773532Y-97451904D01*
X211773535Y-97451903D01*
X211779455Y-97450107D01*
X211919823Y-97375078D01*
X212042857Y-97274107D01*
X212143828Y-97151073D01*
X212218857Y-97010705D01*
X212265059Y-96858396D01*
X212275617Y-96751199D01*
X212276756Y-96742644D01*
X212281015Y-96717332D01*
X212281015Y-96717327D01*
X212281821Y-96712539D01*
X212281974Y-96700000D01*
X212281076Y-96693730D01*
X216305564Y-96693730D01*
X216306728Y-96702631D01*
X216306728Y-96702637D01*
X216307972Y-96712147D01*
X216308429Y-96716133D01*
X216322441Y-96858396D01*
X216368643Y-97010705D01*
X216443672Y-97151073D01*
X216544643Y-97274107D01*
X216667677Y-97375078D01*
X216808045Y-97450107D01*
X216813965Y-97451903D01*
X216813968Y-97451904D01*
X216954432Y-97494513D01*
X216954436Y-97494514D01*
X216960354Y-97496309D01*
X216966517Y-97496916D01*
X217067551Y-97506867D01*
X217076106Y-97508006D01*
X217101418Y-97512265D01*
X217101423Y-97512265D01*
X217106211Y-97513071D01*
X217112510Y-97513148D01*
X217113891Y-97513165D01*
X217113895Y-97513165D01*
X217118750Y-97513224D01*
X217146338Y-97509273D01*
X217164201Y-97508000D01*
X230465543Y-97508000D01*
X230486447Y-97509746D01*
X230506211Y-97513071D01*
X230512401Y-97513147D01*
X230513886Y-97513165D01*
X230513891Y-97513165D01*
X230518750Y-97513224D01*
X230523564Y-97512535D01*
X230523573Y-97512534D01*
X230545399Y-97509408D01*
X230550900Y-97508744D01*
X230677146Y-97496309D01*
X230683070Y-97494512D01*
X230823532Y-97451904D01*
X230823535Y-97451903D01*
X230829455Y-97450107D01*
X230969823Y-97375078D01*
X231092857Y-97274107D01*
X231193828Y-97151073D01*
X231268857Y-97010705D01*
X231315059Y-96858396D01*
X231325617Y-96751199D01*
X231326756Y-96742644D01*
X231331015Y-96717332D01*
X231331015Y-96717327D01*
X231331821Y-96712539D01*
X231331974Y-96700000D01*
X231328023Y-96672412D01*
X231326750Y-96654549D01*
X231326750Y-83353207D01*
X231328496Y-83332303D01*
X231331014Y-83317335D01*
X231331821Y-83312539D01*
X231331974Y-83300000D01*
X231331285Y-83295186D01*
X231331284Y-83295177D01*
X231328158Y-83273351D01*
X231327492Y-83267837D01*
X231326434Y-83257090D01*
X231315059Y-83141604D01*
X231268857Y-82989295D01*
X231193828Y-82848927D01*
X231092857Y-82725893D01*
X230969823Y-82624922D01*
X230829455Y-82549893D01*
X230823535Y-82548097D01*
X230823532Y-82548096D01*
X230683068Y-82505487D01*
X230683064Y-82505486D01*
X230677146Y-82503691D01*
X230670983Y-82503084D01*
X230569949Y-82493133D01*
X230561394Y-82491994D01*
X230536082Y-82487735D01*
X230536077Y-82487735D01*
X230531289Y-82486929D01*
X230524990Y-82486852D01*
X230523609Y-82486835D01*
X230523605Y-82486835D01*
X230518750Y-82486776D01*
X230491162Y-82490727D01*
X230473299Y-82492000D01*
X217171957Y-82492000D01*
X217151053Y-82490254D01*
X217147887Y-82489721D01*
X217131289Y-82486929D01*
X217125099Y-82486853D01*
X217123614Y-82486835D01*
X217123609Y-82486835D01*
X217118750Y-82486776D01*
X217113936Y-82487465D01*
X217113927Y-82487466D01*
X217092101Y-82490592D01*
X217086600Y-82491256D01*
X216960354Y-82503691D01*
X216954430Y-82505488D01*
X216813968Y-82548096D01*
X216813965Y-82548097D01*
X216808045Y-82549893D01*
X216667677Y-82624922D01*
X216544643Y-82725893D01*
X216443672Y-82848927D01*
X216368643Y-82989295D01*
X216322441Y-83141604D01*
X216321834Y-83147767D01*
X216311067Y-83257090D01*
X216310176Y-83264109D01*
X216305564Y-83293730D01*
X216306728Y-83302632D01*
X216306728Y-83302635D01*
X216309686Y-83325251D01*
X216310750Y-83341589D01*
X216310750Y-96650672D01*
X216309250Y-96670056D01*
X216305564Y-96693730D01*
X212281076Y-96693730D01*
X212278023Y-96672412D01*
X212276750Y-96654549D01*
X212276750Y-83353207D01*
X212278496Y-83332303D01*
X212281014Y-83317335D01*
X212281821Y-83312539D01*
X212281974Y-83300000D01*
X212281285Y-83295186D01*
X212281284Y-83295177D01*
X212278158Y-83273351D01*
X212277492Y-83267837D01*
X212276434Y-83257090D01*
X212265059Y-83141604D01*
X212218857Y-82989295D01*
X212143828Y-82848927D01*
X212042857Y-82725893D01*
X211919823Y-82624922D01*
X211779455Y-82549893D01*
X211773535Y-82548097D01*
X211773532Y-82548096D01*
X211633068Y-82505487D01*
X211633064Y-82505486D01*
X211627146Y-82503691D01*
X211620983Y-82503084D01*
X211519949Y-82493133D01*
X211511394Y-82491994D01*
X211486082Y-82487735D01*
X211486077Y-82487735D01*
X211481289Y-82486929D01*
X211474990Y-82486852D01*
X211473609Y-82486835D01*
X211473605Y-82486835D01*
X211468750Y-82486776D01*
X211441162Y-82490727D01*
X211423299Y-82492000D01*
X198121957Y-82492000D01*
X198101053Y-82490254D01*
X198097887Y-82489721D01*
X198081289Y-82486929D01*
X198075099Y-82486853D01*
X198073614Y-82486835D01*
X198073609Y-82486835D01*
X198068750Y-82486776D01*
X198063936Y-82487465D01*
X198063927Y-82487466D01*
X198042101Y-82490592D01*
X198036600Y-82491256D01*
X197910354Y-82503691D01*
X197904430Y-82505488D01*
X197763968Y-82548096D01*
X197763965Y-82548097D01*
X197758045Y-82549893D01*
X197617677Y-82624922D01*
X197494643Y-82725893D01*
X197393672Y-82848927D01*
X197318643Y-82989295D01*
X197272441Y-83141604D01*
X197271834Y-83147767D01*
X197261067Y-83257090D01*
X197260176Y-83264109D01*
X197255564Y-83293730D01*
X197256728Y-83302632D01*
X197256728Y-83302635D01*
X197259686Y-83325251D01*
X197260750Y-83341589D01*
X197260750Y-96650672D01*
X197259250Y-96670056D01*
X197255564Y-96693730D01*
X193231076Y-96693730D01*
X193228023Y-96672412D01*
X193226750Y-96654549D01*
X193226750Y-83353207D01*
X193228496Y-83332303D01*
X193231014Y-83317335D01*
X193231821Y-83312539D01*
X193231974Y-83300000D01*
X193231285Y-83295186D01*
X193231284Y-83295177D01*
X193228158Y-83273351D01*
X193227492Y-83267837D01*
X193226434Y-83257090D01*
X193215059Y-83141604D01*
X193168857Y-82989295D01*
X193093828Y-82848927D01*
X192992857Y-82725893D01*
X192869823Y-82624922D01*
X192729455Y-82549893D01*
X192723535Y-82548097D01*
X192723532Y-82548096D01*
X192583068Y-82505487D01*
X192583064Y-82505486D01*
X192577146Y-82503691D01*
X192570983Y-82503084D01*
X192469949Y-82493133D01*
X192461394Y-82491994D01*
X192436082Y-82487735D01*
X192436077Y-82487735D01*
X192431289Y-82486929D01*
X192424990Y-82486852D01*
X192423609Y-82486835D01*
X192423605Y-82486835D01*
X192418750Y-82486776D01*
X192391162Y-82490727D01*
X192373299Y-82492000D01*
X179071957Y-82492000D01*
X179051053Y-82490254D01*
X179047887Y-82489721D01*
X179031289Y-82486929D01*
X179025099Y-82486853D01*
X179023614Y-82486835D01*
X179023609Y-82486835D01*
X179018750Y-82486776D01*
X179013936Y-82487465D01*
X179013927Y-82487466D01*
X178992101Y-82490592D01*
X178986600Y-82491256D01*
X178860354Y-82503691D01*
X178854430Y-82505488D01*
X178713968Y-82548096D01*
X178713965Y-82548097D01*
X178708045Y-82549893D01*
X178567677Y-82624922D01*
X178444643Y-82725893D01*
X178343672Y-82848927D01*
X178268643Y-82989295D01*
X178222441Y-83141604D01*
X178221834Y-83147767D01*
X178211067Y-83257090D01*
X178210176Y-83264109D01*
X178205564Y-83293730D01*
X178206728Y-83302632D01*
X178206728Y-83302635D01*
X178209686Y-83325251D01*
X178210750Y-83341589D01*
X178210750Y-96650672D01*
X178209250Y-96670056D01*
X178205564Y-96693730D01*
X174181076Y-96693730D01*
X174178023Y-96672412D01*
X174176750Y-96654549D01*
X174176750Y-83353207D01*
X174178496Y-83332303D01*
X174181014Y-83317335D01*
X174181821Y-83312539D01*
X174181974Y-83300000D01*
X174181285Y-83295186D01*
X174181284Y-83295177D01*
X174178158Y-83273351D01*
X174177492Y-83267837D01*
X174176434Y-83257090D01*
X174165059Y-83141604D01*
X174118857Y-82989295D01*
X174043828Y-82848927D01*
X173942857Y-82725893D01*
X173819823Y-82624922D01*
X173679455Y-82549893D01*
X173673535Y-82548097D01*
X173673532Y-82548096D01*
X173533068Y-82505487D01*
X173533064Y-82505486D01*
X173527146Y-82503691D01*
X173520983Y-82503084D01*
X173419949Y-82493133D01*
X173411394Y-82491994D01*
X173386082Y-82487735D01*
X173386077Y-82487735D01*
X173381289Y-82486929D01*
X173374990Y-82486852D01*
X173373609Y-82486835D01*
X173373605Y-82486835D01*
X173368750Y-82486776D01*
X173341162Y-82490727D01*
X173323299Y-82492000D01*
X160021957Y-82492000D01*
X160001053Y-82490254D01*
X159997887Y-82489721D01*
X159981289Y-82486929D01*
X159975099Y-82486853D01*
X159973614Y-82486835D01*
X159973609Y-82486835D01*
X159968750Y-82486776D01*
X159963936Y-82487465D01*
X159963927Y-82487466D01*
X159942101Y-82490592D01*
X159936600Y-82491256D01*
X159810354Y-82503691D01*
X159804430Y-82505488D01*
X159663968Y-82548096D01*
X159663965Y-82548097D01*
X159658045Y-82549893D01*
X159517677Y-82624922D01*
X159394643Y-82725893D01*
X159293672Y-82848927D01*
X159218643Y-82989295D01*
X159172441Y-83141604D01*
X159171834Y-83147767D01*
X159161067Y-83257090D01*
X159160176Y-83264109D01*
X159155564Y-83293730D01*
X159156728Y-83302632D01*
X159156728Y-83302635D01*
X159159686Y-83325251D01*
X159160750Y-83341589D01*
X159160750Y-96650672D01*
X159159250Y-96670056D01*
X159155564Y-96693730D01*
X140843576Y-96693730D01*
X140840523Y-96672412D01*
X140839250Y-96654549D01*
X140839250Y-83353207D01*
X140840996Y-83332303D01*
X140843514Y-83317335D01*
X140844321Y-83312539D01*
X140844474Y-83300000D01*
X140843785Y-83295186D01*
X140843784Y-83295177D01*
X140840658Y-83273351D01*
X140839992Y-83267837D01*
X140838934Y-83257090D01*
X140827559Y-83141604D01*
X140781357Y-82989295D01*
X140706328Y-82848927D01*
X140605357Y-82725893D01*
X140482323Y-82624922D01*
X140341955Y-82549893D01*
X140336035Y-82548097D01*
X140336032Y-82548096D01*
X140195568Y-82505487D01*
X140195564Y-82505486D01*
X140189646Y-82503691D01*
X140183483Y-82503084D01*
X140082449Y-82493133D01*
X140073894Y-82491994D01*
X140048582Y-82487735D01*
X140048577Y-82487735D01*
X140043789Y-82486929D01*
X140037490Y-82486852D01*
X140036109Y-82486835D01*
X140036105Y-82486835D01*
X140031250Y-82486776D01*
X140003662Y-82490727D01*
X139985799Y-82492000D01*
X126684457Y-82492000D01*
X126663553Y-82490254D01*
X126660387Y-82489721D01*
X126643789Y-82486929D01*
X126637599Y-82486853D01*
X126636114Y-82486835D01*
X126636109Y-82486835D01*
X126631250Y-82486776D01*
X126626436Y-82487465D01*
X126626427Y-82487466D01*
X126604601Y-82490592D01*
X126599100Y-82491256D01*
X126472854Y-82503691D01*
X126466930Y-82505488D01*
X126326468Y-82548096D01*
X126326465Y-82548097D01*
X126320545Y-82549893D01*
X126180177Y-82624922D01*
X126057143Y-82725893D01*
X125956172Y-82848927D01*
X125881143Y-82989295D01*
X125834941Y-83141604D01*
X125834334Y-83147767D01*
X125823567Y-83257090D01*
X125822676Y-83264109D01*
X125818064Y-83293730D01*
X125819228Y-83302632D01*
X125819228Y-83302635D01*
X125822186Y-83325251D01*
X125823250Y-83341589D01*
X125823250Y-96650672D01*
X125821750Y-96670056D01*
X125818064Y-96693730D01*
X121793576Y-96693730D01*
X121790523Y-96672412D01*
X121789250Y-96654549D01*
X121789250Y-83353207D01*
X121790996Y-83332303D01*
X121793514Y-83317335D01*
X121794321Y-83312539D01*
X121794474Y-83300000D01*
X121793785Y-83295186D01*
X121793784Y-83295177D01*
X121790658Y-83273351D01*
X121789992Y-83267837D01*
X121788934Y-83257090D01*
X121777559Y-83141604D01*
X121731357Y-82989295D01*
X121656328Y-82848927D01*
X121555357Y-82725893D01*
X121432323Y-82624922D01*
X121291955Y-82549893D01*
X121286035Y-82548097D01*
X121286032Y-82548096D01*
X121145568Y-82505487D01*
X121145564Y-82505486D01*
X121139646Y-82503691D01*
X121133483Y-82503084D01*
X121032449Y-82493133D01*
X121023894Y-82491994D01*
X120998582Y-82487735D01*
X120998577Y-82487735D01*
X120993789Y-82486929D01*
X120987490Y-82486852D01*
X120986109Y-82486835D01*
X120986105Y-82486835D01*
X120981250Y-82486776D01*
X120953662Y-82490727D01*
X120935799Y-82492000D01*
X107634457Y-82492000D01*
X107613553Y-82490254D01*
X107610387Y-82489721D01*
X107593789Y-82486929D01*
X107587599Y-82486853D01*
X107586114Y-82486835D01*
X107586109Y-82486835D01*
X107581250Y-82486776D01*
X107576436Y-82487465D01*
X107576427Y-82487466D01*
X107554601Y-82490592D01*
X107549100Y-82491256D01*
X107422854Y-82503691D01*
X107416930Y-82505488D01*
X107276468Y-82548096D01*
X107276465Y-82548097D01*
X107270545Y-82549893D01*
X107130177Y-82624922D01*
X107007143Y-82725893D01*
X106906172Y-82848927D01*
X106831143Y-82989295D01*
X106784941Y-83141604D01*
X106784334Y-83147767D01*
X106773567Y-83257090D01*
X106772676Y-83264109D01*
X106768064Y-83293730D01*
X106769228Y-83302632D01*
X106769228Y-83302635D01*
X106772186Y-83325251D01*
X106773250Y-83341589D01*
X106773250Y-96650672D01*
X106771750Y-96670056D01*
X106768064Y-96693730D01*
X102743576Y-96693730D01*
X102740523Y-96672412D01*
X102739250Y-96654549D01*
X102739250Y-83353207D01*
X102740996Y-83332303D01*
X102743514Y-83317335D01*
X102744321Y-83312539D01*
X102744474Y-83300000D01*
X102743785Y-83295186D01*
X102743784Y-83295177D01*
X102740658Y-83273351D01*
X102739992Y-83267837D01*
X102738934Y-83257090D01*
X102727559Y-83141604D01*
X102681357Y-82989295D01*
X102606328Y-82848927D01*
X102505357Y-82725893D01*
X102382323Y-82624922D01*
X102241955Y-82549893D01*
X102236035Y-82548097D01*
X102236032Y-82548096D01*
X102095568Y-82505487D01*
X102095564Y-82505486D01*
X102089646Y-82503691D01*
X102083483Y-82503084D01*
X101982449Y-82493133D01*
X101973894Y-82491994D01*
X101948582Y-82487735D01*
X101948577Y-82487735D01*
X101943789Y-82486929D01*
X101937490Y-82486852D01*
X101936109Y-82486835D01*
X101936105Y-82486835D01*
X101931250Y-82486776D01*
X101903662Y-82490727D01*
X101885799Y-82492000D01*
X88584457Y-82492000D01*
X88563553Y-82490254D01*
X88560387Y-82489721D01*
X88543789Y-82486929D01*
X88537599Y-82486853D01*
X88536114Y-82486835D01*
X88536109Y-82486835D01*
X88531250Y-82486776D01*
X88526436Y-82487465D01*
X88526427Y-82487466D01*
X88504601Y-82490592D01*
X88499100Y-82491256D01*
X88372854Y-82503691D01*
X88366930Y-82505488D01*
X88226468Y-82548096D01*
X88226465Y-82548097D01*
X88220545Y-82549893D01*
X88080177Y-82624922D01*
X87957143Y-82725893D01*
X87856172Y-82848927D01*
X87781143Y-82989295D01*
X87734941Y-83141604D01*
X87734334Y-83147767D01*
X87723567Y-83257090D01*
X87722676Y-83264109D01*
X87718064Y-83293730D01*
X87719228Y-83302632D01*
X87719228Y-83302635D01*
X87722186Y-83325251D01*
X87723250Y-83341589D01*
X87723250Y-96650672D01*
X87721750Y-96670056D01*
X87718064Y-96693730D01*
X83693576Y-96693730D01*
X83690523Y-96672412D01*
X83689250Y-96654549D01*
X83689250Y-83353207D01*
X83690996Y-83332303D01*
X83693514Y-83317335D01*
X83694321Y-83312539D01*
X83694474Y-83300000D01*
X83693785Y-83295186D01*
X83693784Y-83295177D01*
X83690658Y-83273351D01*
X83689992Y-83267837D01*
X83688934Y-83257090D01*
X83677559Y-83141604D01*
X83631357Y-82989295D01*
X83556328Y-82848927D01*
X83455357Y-82725893D01*
X83332323Y-82624922D01*
X83191955Y-82549893D01*
X83186035Y-82548097D01*
X83186032Y-82548096D01*
X83045568Y-82505487D01*
X83045564Y-82505486D01*
X83039646Y-82503691D01*
X83033483Y-82503084D01*
X82932449Y-82493133D01*
X82923894Y-82491994D01*
X82898582Y-82487735D01*
X82898577Y-82487735D01*
X82893789Y-82486929D01*
X82887490Y-82486852D01*
X82886109Y-82486835D01*
X82886105Y-82486835D01*
X82881250Y-82486776D01*
X82853662Y-82490727D01*
X82835799Y-82492000D01*
X69534457Y-82492000D01*
X69513553Y-82490254D01*
X69510387Y-82489721D01*
X69493789Y-82486929D01*
X69487599Y-82486853D01*
X69486114Y-82486835D01*
X69486109Y-82486835D01*
X69481250Y-82486776D01*
X69476436Y-82487465D01*
X69476427Y-82487466D01*
X69454601Y-82490592D01*
X69449100Y-82491256D01*
X69322854Y-82503691D01*
X69316930Y-82505488D01*
X69176468Y-82548096D01*
X69176465Y-82548097D01*
X69170545Y-82549893D01*
X69030177Y-82624922D01*
X68907143Y-82725893D01*
X68806172Y-82848927D01*
X68731143Y-82989295D01*
X68684941Y-83141604D01*
X68684334Y-83147767D01*
X68673567Y-83257090D01*
X68672676Y-83264109D01*
X68668064Y-83293730D01*
X68669228Y-83302632D01*
X68669228Y-83302635D01*
X68672186Y-83325251D01*
X68673250Y-83341589D01*
X68673250Y-96650672D01*
X68671750Y-96670056D01*
X68668064Y-96693730D01*
X66508000Y-96693730D01*
X66508000Y-77643730D01*
X68668064Y-77643730D01*
X68669228Y-77652631D01*
X68669228Y-77652637D01*
X68670472Y-77662147D01*
X68670929Y-77666133D01*
X68684941Y-77808396D01*
X68731143Y-77960705D01*
X68806172Y-78101073D01*
X68907143Y-78224107D01*
X69030177Y-78325078D01*
X69170545Y-78400107D01*
X69176465Y-78401903D01*
X69176468Y-78401904D01*
X69316932Y-78444513D01*
X69316936Y-78444514D01*
X69322854Y-78446309D01*
X69329017Y-78446916D01*
X69430051Y-78456867D01*
X69438606Y-78458006D01*
X69463918Y-78462265D01*
X69463923Y-78462265D01*
X69468711Y-78463071D01*
X69475010Y-78463148D01*
X69476391Y-78463165D01*
X69476395Y-78463165D01*
X69481250Y-78463224D01*
X69508838Y-78459273D01*
X69526701Y-78458000D01*
X82828043Y-78458000D01*
X82848947Y-78459746D01*
X82868711Y-78463071D01*
X82874901Y-78463147D01*
X82876386Y-78463165D01*
X82876391Y-78463165D01*
X82881250Y-78463224D01*
X82886064Y-78462535D01*
X82886073Y-78462534D01*
X82907899Y-78459408D01*
X82913400Y-78458744D01*
X83039646Y-78446309D01*
X83045570Y-78444512D01*
X83186032Y-78401904D01*
X83186035Y-78401903D01*
X83191955Y-78400107D01*
X83332323Y-78325078D01*
X83455357Y-78224107D01*
X83556328Y-78101073D01*
X83631357Y-77960705D01*
X83677559Y-77808396D01*
X83688117Y-77701199D01*
X83689256Y-77692644D01*
X83693515Y-77667332D01*
X83693515Y-77667327D01*
X83694321Y-77662539D01*
X83694474Y-77650000D01*
X83693576Y-77643730D01*
X87718064Y-77643730D01*
X87719228Y-77652631D01*
X87719228Y-77652637D01*
X87720472Y-77662147D01*
X87720929Y-77666133D01*
X87734941Y-77808396D01*
X87781143Y-77960705D01*
X87856172Y-78101073D01*
X87957143Y-78224107D01*
X88080177Y-78325078D01*
X88220545Y-78400107D01*
X88226465Y-78401903D01*
X88226468Y-78401904D01*
X88366932Y-78444513D01*
X88366936Y-78444514D01*
X88372854Y-78446309D01*
X88379017Y-78446916D01*
X88480051Y-78456867D01*
X88488606Y-78458006D01*
X88513918Y-78462265D01*
X88513923Y-78462265D01*
X88518711Y-78463071D01*
X88525010Y-78463148D01*
X88526391Y-78463165D01*
X88526395Y-78463165D01*
X88531250Y-78463224D01*
X88558838Y-78459273D01*
X88576701Y-78458000D01*
X101878043Y-78458000D01*
X101898947Y-78459746D01*
X101918711Y-78463071D01*
X101924901Y-78463147D01*
X101926386Y-78463165D01*
X101926391Y-78463165D01*
X101931250Y-78463224D01*
X101936064Y-78462535D01*
X101936073Y-78462534D01*
X101957899Y-78459408D01*
X101963400Y-78458744D01*
X102089646Y-78446309D01*
X102095570Y-78444512D01*
X102236032Y-78401904D01*
X102236035Y-78401903D01*
X102241955Y-78400107D01*
X102382323Y-78325078D01*
X102505357Y-78224107D01*
X102606328Y-78101073D01*
X102681357Y-77960705D01*
X102727559Y-77808396D01*
X102738117Y-77701199D01*
X102739256Y-77692644D01*
X102743515Y-77667332D01*
X102743515Y-77667327D01*
X102744321Y-77662539D01*
X102744474Y-77650000D01*
X102743576Y-77643730D01*
X106768064Y-77643730D01*
X106769228Y-77652631D01*
X106769228Y-77652637D01*
X106770472Y-77662147D01*
X106770929Y-77666133D01*
X106784941Y-77808396D01*
X106831143Y-77960705D01*
X106906172Y-78101073D01*
X107007143Y-78224107D01*
X107130177Y-78325078D01*
X107270545Y-78400107D01*
X107276465Y-78401903D01*
X107276468Y-78401904D01*
X107416932Y-78444513D01*
X107416936Y-78444514D01*
X107422854Y-78446309D01*
X107429017Y-78446916D01*
X107530051Y-78456867D01*
X107538606Y-78458006D01*
X107563918Y-78462265D01*
X107563923Y-78462265D01*
X107568711Y-78463071D01*
X107575010Y-78463148D01*
X107576391Y-78463165D01*
X107576395Y-78463165D01*
X107581250Y-78463224D01*
X107608838Y-78459273D01*
X107626701Y-78458000D01*
X120928043Y-78458000D01*
X120948947Y-78459746D01*
X120968711Y-78463071D01*
X120974901Y-78463147D01*
X120976386Y-78463165D01*
X120976391Y-78463165D01*
X120981250Y-78463224D01*
X120986064Y-78462535D01*
X120986073Y-78462534D01*
X121007899Y-78459408D01*
X121013400Y-78458744D01*
X121139646Y-78446309D01*
X121145570Y-78444512D01*
X121286032Y-78401904D01*
X121286035Y-78401903D01*
X121291955Y-78400107D01*
X121432323Y-78325078D01*
X121555357Y-78224107D01*
X121656328Y-78101073D01*
X121731357Y-77960705D01*
X121777559Y-77808396D01*
X121788117Y-77701199D01*
X121789256Y-77692644D01*
X121793515Y-77667332D01*
X121793515Y-77667327D01*
X121794321Y-77662539D01*
X121794474Y-77650000D01*
X121793576Y-77643730D01*
X125818064Y-77643730D01*
X125819228Y-77652631D01*
X125819228Y-77652637D01*
X125820472Y-77662147D01*
X125820929Y-77666133D01*
X125834941Y-77808396D01*
X125881143Y-77960705D01*
X125956172Y-78101073D01*
X126057143Y-78224107D01*
X126180177Y-78325078D01*
X126320545Y-78400107D01*
X126326465Y-78401903D01*
X126326468Y-78401904D01*
X126466932Y-78444513D01*
X126466936Y-78444514D01*
X126472854Y-78446309D01*
X126479017Y-78446916D01*
X126580051Y-78456867D01*
X126588606Y-78458006D01*
X126613918Y-78462265D01*
X126613923Y-78462265D01*
X126618711Y-78463071D01*
X126625010Y-78463148D01*
X126626391Y-78463165D01*
X126626395Y-78463165D01*
X126631250Y-78463224D01*
X126658838Y-78459273D01*
X126676701Y-78458000D01*
X139978043Y-78458000D01*
X139998947Y-78459746D01*
X140018711Y-78463071D01*
X140024901Y-78463147D01*
X140026386Y-78463165D01*
X140026391Y-78463165D01*
X140031250Y-78463224D01*
X140036064Y-78462535D01*
X140036073Y-78462534D01*
X140057899Y-78459408D01*
X140063400Y-78458744D01*
X140189646Y-78446309D01*
X140195570Y-78444512D01*
X140336032Y-78401904D01*
X140336035Y-78401903D01*
X140341955Y-78400107D01*
X140482323Y-78325078D01*
X140605357Y-78224107D01*
X140706328Y-78101073D01*
X140781357Y-77960705D01*
X140827559Y-77808396D01*
X140838117Y-77701199D01*
X140839256Y-77692644D01*
X140843515Y-77667332D01*
X140843515Y-77667327D01*
X140844321Y-77662539D01*
X140844474Y-77650000D01*
X140843576Y-77643730D01*
X159155564Y-77643730D01*
X159156728Y-77652631D01*
X159156728Y-77652637D01*
X159157972Y-77662147D01*
X159158429Y-77666133D01*
X159172441Y-77808396D01*
X159218643Y-77960705D01*
X159293672Y-78101073D01*
X159394643Y-78224107D01*
X159517677Y-78325078D01*
X159658045Y-78400107D01*
X159663965Y-78401903D01*
X159663968Y-78401904D01*
X159804432Y-78444513D01*
X159804436Y-78444514D01*
X159810354Y-78446309D01*
X159816517Y-78446916D01*
X159917551Y-78456867D01*
X159926106Y-78458006D01*
X159951418Y-78462265D01*
X159951423Y-78462265D01*
X159956211Y-78463071D01*
X159962510Y-78463148D01*
X159963891Y-78463165D01*
X159963895Y-78463165D01*
X159968750Y-78463224D01*
X159996338Y-78459273D01*
X160014201Y-78458000D01*
X173315543Y-78458000D01*
X173336447Y-78459746D01*
X173356211Y-78463071D01*
X173362401Y-78463147D01*
X173363886Y-78463165D01*
X173363891Y-78463165D01*
X173368750Y-78463224D01*
X173373564Y-78462535D01*
X173373573Y-78462534D01*
X173395399Y-78459408D01*
X173400900Y-78458744D01*
X173527146Y-78446309D01*
X173533070Y-78444512D01*
X173673532Y-78401904D01*
X173673535Y-78401903D01*
X173679455Y-78400107D01*
X173819823Y-78325078D01*
X173942857Y-78224107D01*
X174043828Y-78101073D01*
X174118857Y-77960705D01*
X174165059Y-77808396D01*
X174175617Y-77701199D01*
X174176756Y-77692644D01*
X174181015Y-77667332D01*
X174181015Y-77667327D01*
X174181821Y-77662539D01*
X174181974Y-77650000D01*
X174181076Y-77643730D01*
X178205564Y-77643730D01*
X178206728Y-77652631D01*
X178206728Y-77652637D01*
X178207972Y-77662147D01*
X178208429Y-77666133D01*
X178222441Y-77808396D01*
X178268643Y-77960705D01*
X178343672Y-78101073D01*
X178444643Y-78224107D01*
X178567677Y-78325078D01*
X178708045Y-78400107D01*
X178713965Y-78401903D01*
X178713968Y-78401904D01*
X178854432Y-78444513D01*
X178854436Y-78444514D01*
X178860354Y-78446309D01*
X178866517Y-78446916D01*
X178967551Y-78456867D01*
X178976106Y-78458006D01*
X179001418Y-78462265D01*
X179001423Y-78462265D01*
X179006211Y-78463071D01*
X179012510Y-78463148D01*
X179013891Y-78463165D01*
X179013895Y-78463165D01*
X179018750Y-78463224D01*
X179046338Y-78459273D01*
X179064201Y-78458000D01*
X192365543Y-78458000D01*
X192386447Y-78459746D01*
X192406211Y-78463071D01*
X192412401Y-78463147D01*
X192413886Y-78463165D01*
X192413891Y-78463165D01*
X192418750Y-78463224D01*
X192423564Y-78462535D01*
X192423573Y-78462534D01*
X192445399Y-78459408D01*
X192450900Y-78458744D01*
X192577146Y-78446309D01*
X192583070Y-78444512D01*
X192723532Y-78401904D01*
X192723535Y-78401903D01*
X192729455Y-78400107D01*
X192869823Y-78325078D01*
X192992857Y-78224107D01*
X193093828Y-78101073D01*
X193168857Y-77960705D01*
X193215059Y-77808396D01*
X193225617Y-77701199D01*
X193226756Y-77692644D01*
X193231015Y-77667332D01*
X193231015Y-77667327D01*
X193231821Y-77662539D01*
X193231974Y-77650000D01*
X193231076Y-77643730D01*
X197255564Y-77643730D01*
X197256728Y-77652631D01*
X197256728Y-77652637D01*
X197257972Y-77662147D01*
X197258429Y-77666133D01*
X197272441Y-77808396D01*
X197318643Y-77960705D01*
X197393672Y-78101073D01*
X197494643Y-78224107D01*
X197617677Y-78325078D01*
X197758045Y-78400107D01*
X197763965Y-78401903D01*
X197763968Y-78401904D01*
X197904432Y-78444513D01*
X197904436Y-78444514D01*
X197910354Y-78446309D01*
X197916517Y-78446916D01*
X198017551Y-78456867D01*
X198026106Y-78458006D01*
X198051418Y-78462265D01*
X198051423Y-78462265D01*
X198056211Y-78463071D01*
X198062510Y-78463148D01*
X198063891Y-78463165D01*
X198063895Y-78463165D01*
X198068750Y-78463224D01*
X198096338Y-78459273D01*
X198114201Y-78458000D01*
X211415543Y-78458000D01*
X211436447Y-78459746D01*
X211456211Y-78463071D01*
X211462401Y-78463147D01*
X211463886Y-78463165D01*
X211463891Y-78463165D01*
X211468750Y-78463224D01*
X211473564Y-78462535D01*
X211473573Y-78462534D01*
X211495399Y-78459408D01*
X211500900Y-78458744D01*
X211627146Y-78446309D01*
X211633070Y-78444512D01*
X211773532Y-78401904D01*
X211773535Y-78401903D01*
X211779455Y-78400107D01*
X211919823Y-78325078D01*
X212042857Y-78224107D01*
X212143828Y-78101073D01*
X212218857Y-77960705D01*
X212265059Y-77808396D01*
X212275617Y-77701199D01*
X212276756Y-77692644D01*
X212281015Y-77667332D01*
X212281015Y-77667327D01*
X212281821Y-77662539D01*
X212281974Y-77650000D01*
X212281076Y-77643730D01*
X216305564Y-77643730D01*
X216306728Y-77652631D01*
X216306728Y-77652637D01*
X216307972Y-77662147D01*
X216308429Y-77666133D01*
X216322441Y-77808396D01*
X216368643Y-77960705D01*
X216443672Y-78101073D01*
X216544643Y-78224107D01*
X216667677Y-78325078D01*
X216808045Y-78400107D01*
X216813965Y-78401903D01*
X216813968Y-78401904D01*
X216954432Y-78444513D01*
X216954436Y-78444514D01*
X216960354Y-78446309D01*
X216966517Y-78446916D01*
X217067551Y-78456867D01*
X217076106Y-78458006D01*
X217101418Y-78462265D01*
X217101423Y-78462265D01*
X217106211Y-78463071D01*
X217112510Y-78463148D01*
X217113891Y-78463165D01*
X217113895Y-78463165D01*
X217118750Y-78463224D01*
X217146338Y-78459273D01*
X217164201Y-78458000D01*
X230465543Y-78458000D01*
X230486447Y-78459746D01*
X230506211Y-78463071D01*
X230512401Y-78463147D01*
X230513886Y-78463165D01*
X230513891Y-78463165D01*
X230518750Y-78463224D01*
X230523564Y-78462535D01*
X230523573Y-78462534D01*
X230545399Y-78459408D01*
X230550900Y-78458744D01*
X230677146Y-78446309D01*
X230683070Y-78444512D01*
X230823532Y-78401904D01*
X230823535Y-78401903D01*
X230829455Y-78400107D01*
X230969823Y-78325078D01*
X231092857Y-78224107D01*
X231193828Y-78101073D01*
X231268857Y-77960705D01*
X231315059Y-77808396D01*
X231325617Y-77701199D01*
X231326756Y-77692644D01*
X231331015Y-77667332D01*
X231331015Y-77667327D01*
X231331821Y-77662539D01*
X231331974Y-77650000D01*
X231328023Y-77622412D01*
X231326750Y-77604549D01*
X231326750Y-64303207D01*
X231328496Y-64282303D01*
X231331014Y-64267335D01*
X231331821Y-64262539D01*
X231331974Y-64250000D01*
X231331285Y-64245186D01*
X231331284Y-64245177D01*
X231328158Y-64223351D01*
X231327492Y-64217837D01*
X231326434Y-64207090D01*
X231315059Y-64091604D01*
X231268857Y-63939295D01*
X231193828Y-63798927D01*
X231092857Y-63675893D01*
X230969823Y-63574922D01*
X230829455Y-63499893D01*
X230823535Y-63498097D01*
X230823532Y-63498096D01*
X230683068Y-63455487D01*
X230683064Y-63455486D01*
X230677146Y-63453691D01*
X230670983Y-63453084D01*
X230569949Y-63443133D01*
X230561394Y-63441994D01*
X230536082Y-63437735D01*
X230536077Y-63437735D01*
X230531289Y-63436929D01*
X230524990Y-63436852D01*
X230523609Y-63436835D01*
X230523605Y-63436835D01*
X230518750Y-63436776D01*
X230491162Y-63440727D01*
X230473299Y-63442000D01*
X217171957Y-63442000D01*
X217151053Y-63440254D01*
X217147887Y-63439721D01*
X217131289Y-63436929D01*
X217125099Y-63436853D01*
X217123614Y-63436835D01*
X217123609Y-63436835D01*
X217118750Y-63436776D01*
X217113936Y-63437465D01*
X217113927Y-63437466D01*
X217092101Y-63440592D01*
X217086600Y-63441256D01*
X216960354Y-63453691D01*
X216954430Y-63455488D01*
X216813968Y-63498096D01*
X216813965Y-63498097D01*
X216808045Y-63499893D01*
X216667677Y-63574922D01*
X216544643Y-63675893D01*
X216443672Y-63798927D01*
X216368643Y-63939295D01*
X216322441Y-64091604D01*
X216321834Y-64097767D01*
X216311067Y-64207090D01*
X216310176Y-64214109D01*
X216305564Y-64243730D01*
X216306728Y-64252632D01*
X216306728Y-64252635D01*
X216309686Y-64275251D01*
X216310750Y-64291589D01*
X216310750Y-77600672D01*
X216309250Y-77620056D01*
X216305564Y-77643730D01*
X212281076Y-77643730D01*
X212278023Y-77622412D01*
X212276750Y-77604549D01*
X212276750Y-64303207D01*
X212278496Y-64282303D01*
X212281014Y-64267335D01*
X212281821Y-64262539D01*
X212281974Y-64250000D01*
X212281285Y-64245186D01*
X212281284Y-64245177D01*
X212278158Y-64223351D01*
X212277492Y-64217837D01*
X212276434Y-64207090D01*
X212265059Y-64091604D01*
X212218857Y-63939295D01*
X212143828Y-63798927D01*
X212042857Y-63675893D01*
X211919823Y-63574922D01*
X211779455Y-63499893D01*
X211773535Y-63498097D01*
X211773532Y-63498096D01*
X211633068Y-63455487D01*
X211633064Y-63455486D01*
X211627146Y-63453691D01*
X211620983Y-63453084D01*
X211519949Y-63443133D01*
X211511394Y-63441994D01*
X211486082Y-63437735D01*
X211486077Y-63437735D01*
X211481289Y-63436929D01*
X211474990Y-63436852D01*
X211473609Y-63436835D01*
X211473605Y-63436835D01*
X211468750Y-63436776D01*
X211441162Y-63440727D01*
X211423299Y-63442000D01*
X198121957Y-63442000D01*
X198101053Y-63440254D01*
X198097887Y-63439721D01*
X198081289Y-63436929D01*
X198075099Y-63436853D01*
X198073614Y-63436835D01*
X198073609Y-63436835D01*
X198068750Y-63436776D01*
X198063936Y-63437465D01*
X198063927Y-63437466D01*
X198042101Y-63440592D01*
X198036600Y-63441256D01*
X197910354Y-63453691D01*
X197904430Y-63455488D01*
X197763968Y-63498096D01*
X197763965Y-63498097D01*
X197758045Y-63499893D01*
X197617677Y-63574922D01*
X197494643Y-63675893D01*
X197393672Y-63798927D01*
X197318643Y-63939295D01*
X197272441Y-64091604D01*
X197271834Y-64097767D01*
X197261067Y-64207090D01*
X197260176Y-64214109D01*
X197255564Y-64243730D01*
X197256728Y-64252632D01*
X197256728Y-64252635D01*
X197259686Y-64275251D01*
X197260750Y-64291589D01*
X197260750Y-77600672D01*
X197259250Y-77620056D01*
X197255564Y-77643730D01*
X193231076Y-77643730D01*
X193228023Y-77622412D01*
X193226750Y-77604549D01*
X193226750Y-64303207D01*
X193228496Y-64282303D01*
X193231014Y-64267335D01*
X193231821Y-64262539D01*
X193231974Y-64250000D01*
X193231285Y-64245186D01*
X193231284Y-64245177D01*
X193228158Y-64223351D01*
X193227492Y-64217837D01*
X193226434Y-64207090D01*
X193215059Y-64091604D01*
X193168857Y-63939295D01*
X193093828Y-63798927D01*
X192992857Y-63675893D01*
X192869823Y-63574922D01*
X192729455Y-63499893D01*
X192723535Y-63498097D01*
X192723532Y-63498096D01*
X192583068Y-63455487D01*
X192583064Y-63455486D01*
X192577146Y-63453691D01*
X192570983Y-63453084D01*
X192469949Y-63443133D01*
X192461394Y-63441994D01*
X192436082Y-63437735D01*
X192436077Y-63437735D01*
X192431289Y-63436929D01*
X192424990Y-63436852D01*
X192423609Y-63436835D01*
X192423605Y-63436835D01*
X192418750Y-63436776D01*
X192391162Y-63440727D01*
X192373299Y-63442000D01*
X179071957Y-63442000D01*
X179051053Y-63440254D01*
X179047887Y-63439721D01*
X179031289Y-63436929D01*
X179025099Y-63436853D01*
X179023614Y-63436835D01*
X179023609Y-63436835D01*
X179018750Y-63436776D01*
X179013936Y-63437465D01*
X179013927Y-63437466D01*
X178992101Y-63440592D01*
X178986600Y-63441256D01*
X178860354Y-63453691D01*
X178854430Y-63455488D01*
X178713968Y-63498096D01*
X178713965Y-63498097D01*
X178708045Y-63499893D01*
X178567677Y-63574922D01*
X178444643Y-63675893D01*
X178343672Y-63798927D01*
X178268643Y-63939295D01*
X178222441Y-64091604D01*
X178221834Y-64097767D01*
X178211067Y-64207090D01*
X178210176Y-64214109D01*
X178205564Y-64243730D01*
X178206728Y-64252632D01*
X178206728Y-64252635D01*
X178209686Y-64275251D01*
X178210750Y-64291589D01*
X178210750Y-77600672D01*
X178209250Y-77620056D01*
X178205564Y-77643730D01*
X174181076Y-77643730D01*
X174178023Y-77622412D01*
X174176750Y-77604549D01*
X174176750Y-64303207D01*
X174178496Y-64282303D01*
X174181014Y-64267335D01*
X174181821Y-64262539D01*
X174181974Y-64250000D01*
X174181285Y-64245186D01*
X174181284Y-64245177D01*
X174178158Y-64223351D01*
X174177492Y-64217837D01*
X174176434Y-64207090D01*
X174165059Y-64091604D01*
X174118857Y-63939295D01*
X174043828Y-63798927D01*
X173942857Y-63675893D01*
X173819823Y-63574922D01*
X173679455Y-63499893D01*
X173673535Y-63498097D01*
X173673532Y-63498096D01*
X173533068Y-63455487D01*
X173533064Y-63455486D01*
X173527146Y-63453691D01*
X173520983Y-63453084D01*
X173419949Y-63443133D01*
X173411394Y-63441994D01*
X173386082Y-63437735D01*
X173386077Y-63437735D01*
X173381289Y-63436929D01*
X173374990Y-63436852D01*
X173373609Y-63436835D01*
X173373605Y-63436835D01*
X173368750Y-63436776D01*
X173341162Y-63440727D01*
X173323299Y-63442000D01*
X160021957Y-63442000D01*
X160001053Y-63440254D01*
X159997887Y-63439721D01*
X159981289Y-63436929D01*
X159975099Y-63436853D01*
X159973614Y-63436835D01*
X159973609Y-63436835D01*
X159968750Y-63436776D01*
X159963936Y-63437465D01*
X159963927Y-63437466D01*
X159942101Y-63440592D01*
X159936600Y-63441256D01*
X159810354Y-63453691D01*
X159804430Y-63455488D01*
X159663968Y-63498096D01*
X159663965Y-63498097D01*
X159658045Y-63499893D01*
X159517677Y-63574922D01*
X159394643Y-63675893D01*
X159293672Y-63798927D01*
X159218643Y-63939295D01*
X159172441Y-64091604D01*
X159171834Y-64097767D01*
X159161067Y-64207090D01*
X159160176Y-64214109D01*
X159155564Y-64243730D01*
X159156728Y-64252632D01*
X159156728Y-64252635D01*
X159159686Y-64275251D01*
X159160750Y-64291589D01*
X159160750Y-77600672D01*
X159159250Y-77620056D01*
X159155564Y-77643730D01*
X140843576Y-77643730D01*
X140840523Y-77622412D01*
X140839250Y-77604549D01*
X140839250Y-64303207D01*
X140840996Y-64282303D01*
X140843514Y-64267335D01*
X140844321Y-64262539D01*
X140844474Y-64250000D01*
X140843785Y-64245186D01*
X140843784Y-64245177D01*
X140840658Y-64223351D01*
X140839992Y-64217837D01*
X140838934Y-64207090D01*
X140827559Y-64091604D01*
X140781357Y-63939295D01*
X140706328Y-63798927D01*
X140605357Y-63675893D01*
X140482323Y-63574922D01*
X140341955Y-63499893D01*
X140336035Y-63498097D01*
X140336032Y-63498096D01*
X140195568Y-63455487D01*
X140195564Y-63455486D01*
X140189646Y-63453691D01*
X140183483Y-63453084D01*
X140082449Y-63443133D01*
X140073894Y-63441994D01*
X140048582Y-63437735D01*
X140048577Y-63437735D01*
X140043789Y-63436929D01*
X140037490Y-63436852D01*
X140036109Y-63436835D01*
X140036105Y-63436835D01*
X140031250Y-63436776D01*
X140003662Y-63440727D01*
X139985799Y-63442000D01*
X126684457Y-63442000D01*
X126663553Y-63440254D01*
X126660387Y-63439721D01*
X126643789Y-63436929D01*
X126637599Y-63436853D01*
X126636114Y-63436835D01*
X126636109Y-63436835D01*
X126631250Y-63436776D01*
X126626436Y-63437465D01*
X126626427Y-63437466D01*
X126604601Y-63440592D01*
X126599100Y-63441256D01*
X126472854Y-63453691D01*
X126466930Y-63455488D01*
X126326468Y-63498096D01*
X126326465Y-63498097D01*
X126320545Y-63499893D01*
X126180177Y-63574922D01*
X126057143Y-63675893D01*
X125956172Y-63798927D01*
X125881143Y-63939295D01*
X125834941Y-64091604D01*
X125834334Y-64097767D01*
X125823567Y-64207090D01*
X125822676Y-64214109D01*
X125818064Y-64243730D01*
X125819228Y-64252632D01*
X125819228Y-64252635D01*
X125822186Y-64275251D01*
X125823250Y-64291589D01*
X125823250Y-77600672D01*
X125821750Y-77620056D01*
X125818064Y-77643730D01*
X121793576Y-77643730D01*
X121790523Y-77622412D01*
X121789250Y-77604549D01*
X121789250Y-64303207D01*
X121790996Y-64282303D01*
X121793514Y-64267335D01*
X121794321Y-64262539D01*
X121794474Y-64250000D01*
X121793785Y-64245186D01*
X121793784Y-64245177D01*
X121790658Y-64223351D01*
X121789992Y-64217837D01*
X121788934Y-64207090D01*
X121777559Y-64091604D01*
X121731357Y-63939295D01*
X121656328Y-63798927D01*
X121555357Y-63675893D01*
X121432323Y-63574922D01*
X121291955Y-63499893D01*
X121286035Y-63498097D01*
X121286032Y-63498096D01*
X121145568Y-63455487D01*
X121145564Y-63455486D01*
X121139646Y-63453691D01*
X121133483Y-63453084D01*
X121032449Y-63443133D01*
X121023894Y-63441994D01*
X120998582Y-63437735D01*
X120998577Y-63437735D01*
X120993789Y-63436929D01*
X120987490Y-63436852D01*
X120986109Y-63436835D01*
X120986105Y-63436835D01*
X120981250Y-63436776D01*
X120953662Y-63440727D01*
X120935799Y-63442000D01*
X107634457Y-63442000D01*
X107613553Y-63440254D01*
X107610387Y-63439721D01*
X107593789Y-63436929D01*
X107587599Y-63436853D01*
X107586114Y-63436835D01*
X107586109Y-63436835D01*
X107581250Y-63436776D01*
X107576436Y-63437465D01*
X107576427Y-63437466D01*
X107554601Y-63440592D01*
X107549100Y-63441256D01*
X107422854Y-63453691D01*
X107416930Y-63455488D01*
X107276468Y-63498096D01*
X107276465Y-63498097D01*
X107270545Y-63499893D01*
X107130177Y-63574922D01*
X107007143Y-63675893D01*
X106906172Y-63798927D01*
X106831143Y-63939295D01*
X106784941Y-64091604D01*
X106784334Y-64097767D01*
X106773567Y-64207090D01*
X106772676Y-64214109D01*
X106768064Y-64243730D01*
X106769228Y-64252632D01*
X106769228Y-64252635D01*
X106772186Y-64275251D01*
X106773250Y-64291589D01*
X106773250Y-77600672D01*
X106771750Y-77620056D01*
X106768064Y-77643730D01*
X102743576Y-77643730D01*
X102740523Y-77622412D01*
X102739250Y-77604549D01*
X102739250Y-64303207D01*
X102740996Y-64282303D01*
X102743514Y-64267335D01*
X102744321Y-64262539D01*
X102744474Y-64250000D01*
X102743785Y-64245186D01*
X102743784Y-64245177D01*
X102740658Y-64223351D01*
X102739992Y-64217837D01*
X102738934Y-64207090D01*
X102727559Y-64091604D01*
X102681357Y-63939295D01*
X102606328Y-63798927D01*
X102505357Y-63675893D01*
X102382323Y-63574922D01*
X102241955Y-63499893D01*
X102236035Y-63498097D01*
X102236032Y-63498096D01*
X102095568Y-63455487D01*
X102095564Y-63455486D01*
X102089646Y-63453691D01*
X102083483Y-63453084D01*
X101982449Y-63443133D01*
X101973894Y-63441994D01*
X101948582Y-63437735D01*
X101948577Y-63437735D01*
X101943789Y-63436929D01*
X101937490Y-63436852D01*
X101936109Y-63436835D01*
X101936105Y-63436835D01*
X101931250Y-63436776D01*
X101903662Y-63440727D01*
X101885799Y-63442000D01*
X88584457Y-63442000D01*
X88563553Y-63440254D01*
X88560387Y-63439721D01*
X88543789Y-63436929D01*
X88537599Y-63436853D01*
X88536114Y-63436835D01*
X88536109Y-63436835D01*
X88531250Y-63436776D01*
X88526436Y-63437465D01*
X88526427Y-63437466D01*
X88504601Y-63440592D01*
X88499100Y-63441256D01*
X88372854Y-63453691D01*
X88366930Y-63455488D01*
X88226468Y-63498096D01*
X88226465Y-63498097D01*
X88220545Y-63499893D01*
X88080177Y-63574922D01*
X87957143Y-63675893D01*
X87856172Y-63798927D01*
X87781143Y-63939295D01*
X87734941Y-64091604D01*
X87734334Y-64097767D01*
X87723567Y-64207090D01*
X87722676Y-64214109D01*
X87718064Y-64243730D01*
X87719228Y-64252632D01*
X87719228Y-64252635D01*
X87722186Y-64275251D01*
X87723250Y-64291589D01*
X87723250Y-77600672D01*
X87721750Y-77620056D01*
X87718064Y-77643730D01*
X83693576Y-77643730D01*
X83690523Y-77622412D01*
X83689250Y-77604549D01*
X83689250Y-64303207D01*
X83690996Y-64282303D01*
X83693514Y-64267335D01*
X83694321Y-64262539D01*
X83694474Y-64250000D01*
X83693785Y-64245186D01*
X83693784Y-64245177D01*
X83690658Y-64223351D01*
X83689992Y-64217837D01*
X83688934Y-64207090D01*
X83677559Y-64091604D01*
X83631357Y-63939295D01*
X83556328Y-63798927D01*
X83455357Y-63675893D01*
X83332323Y-63574922D01*
X83191955Y-63499893D01*
X83186035Y-63498097D01*
X83186032Y-63498096D01*
X83045568Y-63455487D01*
X83045564Y-63455486D01*
X83039646Y-63453691D01*
X83033483Y-63453084D01*
X82932449Y-63443133D01*
X82923894Y-63441994D01*
X82898582Y-63437735D01*
X82898577Y-63437735D01*
X82893789Y-63436929D01*
X82887490Y-63436852D01*
X82886109Y-63436835D01*
X82886105Y-63436835D01*
X82881250Y-63436776D01*
X82853662Y-63440727D01*
X82835799Y-63442000D01*
X69534457Y-63442000D01*
X69513553Y-63440254D01*
X69510387Y-63439721D01*
X69493789Y-63436929D01*
X69487599Y-63436853D01*
X69486114Y-63436835D01*
X69486109Y-63436835D01*
X69481250Y-63436776D01*
X69476436Y-63437465D01*
X69476427Y-63437466D01*
X69454601Y-63440592D01*
X69449100Y-63441256D01*
X69322854Y-63453691D01*
X69316930Y-63455488D01*
X69176468Y-63498096D01*
X69176465Y-63498097D01*
X69170545Y-63499893D01*
X69030177Y-63574922D01*
X68907143Y-63675893D01*
X68806172Y-63798927D01*
X68731143Y-63939295D01*
X68684941Y-64091604D01*
X68684334Y-64097767D01*
X68673567Y-64207090D01*
X68672676Y-64214109D01*
X68668064Y-64243730D01*
X68669228Y-64252632D01*
X68669228Y-64252635D01*
X68672186Y-64275251D01*
X68673250Y-64291589D01*
X68673250Y-77600672D01*
X68671750Y-77620056D01*
X68668064Y-77643730D01*
X66508000Y-77643730D01*
X66508000Y-51000000D01*
X73386526Y-51000000D01*
X73406391Y-51252403D01*
X73465495Y-51498591D01*
X73562384Y-51732502D01*
X73694672Y-51948376D01*
X73859102Y-52140898D01*
X74051624Y-52305328D01*
X74267498Y-52437616D01*
X74272068Y-52439509D01*
X74272072Y-52439511D01*
X74496836Y-52532611D01*
X74501409Y-52534505D01*
X74586032Y-52554821D01*
X74742784Y-52592454D01*
X74742790Y-52592455D01*
X74747597Y-52593609D01*
X74847416Y-52601465D01*
X74934345Y-52608307D01*
X74934352Y-52608307D01*
X74936801Y-52608500D01*
X75063199Y-52608500D01*
X75065648Y-52608307D01*
X75065655Y-52608307D01*
X75152584Y-52601465D01*
X75252403Y-52593609D01*
X75257210Y-52592455D01*
X75257216Y-52592454D01*
X75413968Y-52554821D01*
X75498591Y-52534505D01*
X75503164Y-52532611D01*
X75727928Y-52439511D01*
X75727932Y-52439509D01*
X75732502Y-52437616D01*
X75948376Y-52305328D01*
X76140898Y-52140898D01*
X76305328Y-51948376D01*
X76437616Y-51732502D01*
X76534505Y-51498591D01*
X76593609Y-51252403D01*
X76613474Y-51000000D01*
X223386526Y-51000000D01*
X223406391Y-51252403D01*
X223465495Y-51498591D01*
X223562384Y-51732502D01*
X223694672Y-51948376D01*
X223859102Y-52140898D01*
X224051624Y-52305328D01*
X224267498Y-52437616D01*
X224272068Y-52439509D01*
X224272072Y-52439511D01*
X224496836Y-52532611D01*
X224501409Y-52534505D01*
X224586032Y-52554821D01*
X224742784Y-52592454D01*
X224742790Y-52592455D01*
X224747597Y-52593609D01*
X224847416Y-52601465D01*
X224934345Y-52608307D01*
X224934352Y-52608307D01*
X224936801Y-52608500D01*
X225063199Y-52608500D01*
X225065648Y-52608307D01*
X225065655Y-52608307D01*
X225152584Y-52601465D01*
X225252403Y-52593609D01*
X225257210Y-52592455D01*
X225257216Y-52592454D01*
X225413968Y-52554821D01*
X225498591Y-52534505D01*
X225503164Y-52532611D01*
X225727928Y-52439511D01*
X225727932Y-52439509D01*
X225732502Y-52437616D01*
X225948376Y-52305328D01*
X226140898Y-52140898D01*
X226305328Y-51948376D01*
X226437616Y-51732502D01*
X226534505Y-51498591D01*
X226593609Y-51252403D01*
X226613474Y-51000000D01*
X226593609Y-50747597D01*
X226534505Y-50501409D01*
X226437616Y-50267498D01*
X226305328Y-50051624D01*
X226140898Y-49859102D01*
X225948376Y-49694672D01*
X225732502Y-49562384D01*
X225727932Y-49560491D01*
X225727928Y-49560489D01*
X225503164Y-49467389D01*
X225503162Y-49467388D01*
X225498591Y-49465495D01*
X225413968Y-49445179D01*
X225257216Y-49407546D01*
X225257210Y-49407545D01*
X225252403Y-49406391D01*
X225152584Y-49398535D01*
X225065655Y-49391693D01*
X225065648Y-49391693D01*
X225063199Y-49391500D01*
X224936801Y-49391500D01*
X224934352Y-49391693D01*
X224934345Y-49391693D01*
X224847416Y-49398535D01*
X224747597Y-49406391D01*
X224742790Y-49407545D01*
X224742784Y-49407546D01*
X224586032Y-49445179D01*
X224501409Y-49465495D01*
X224496838Y-49467388D01*
X224496836Y-49467389D01*
X224272072Y-49560489D01*
X224272068Y-49560491D01*
X224267498Y-49562384D01*
X224051624Y-49694672D01*
X223859102Y-49859102D01*
X223694672Y-50051624D01*
X223562384Y-50267498D01*
X223465495Y-50501409D01*
X223406391Y-50747597D01*
X223386526Y-51000000D01*
X76613474Y-51000000D01*
X76593609Y-50747597D01*
X76534505Y-50501409D01*
X76437616Y-50267498D01*
X76305328Y-50051624D01*
X76140898Y-49859102D01*
X75948376Y-49694672D01*
X75732502Y-49562384D01*
X75727932Y-49560491D01*
X75727928Y-49560489D01*
X75503164Y-49467389D01*
X75503162Y-49467388D01*
X75498591Y-49465495D01*
X75413968Y-49445179D01*
X75257216Y-49407546D01*
X75257210Y-49407545D01*
X75252403Y-49406391D01*
X75152584Y-49398535D01*
X75065655Y-49391693D01*
X75065648Y-49391693D01*
X75063199Y-49391500D01*
X74936801Y-49391500D01*
X74934352Y-49391693D01*
X74934345Y-49391693D01*
X74847416Y-49398535D01*
X74747597Y-49406391D01*
X74742790Y-49407545D01*
X74742784Y-49407546D01*
X74586032Y-49445179D01*
X74501409Y-49465495D01*
X74496838Y-49467388D01*
X74496836Y-49467389D01*
X74272072Y-49560489D01*
X74272068Y-49560491D01*
X74267498Y-49562384D01*
X74051624Y-49694672D01*
X73859102Y-49859102D01*
X73694672Y-50051624D01*
X73562384Y-50267498D01*
X73465495Y-50501409D01*
X73406391Y-50747597D01*
X73386526Y-51000000D01*
X66508000Y-51000000D01*
X66508000Y-37477874D01*
X70387190Y-37477874D01*
X70403735Y-37764820D01*
X70404560Y-37769025D01*
X70404561Y-37769033D01*
X70438919Y-37944156D01*
X70459070Y-38046865D01*
X70460457Y-38050916D01*
X70536206Y-38272161D01*
X70552171Y-38318792D01*
X70681316Y-38575567D01*
X70683742Y-38579096D01*
X70683745Y-38579102D01*
X70722587Y-38635617D01*
X70844114Y-38812439D01*
X71037553Y-39025026D01*
X71040841Y-39027775D01*
X71254761Y-39206641D01*
X71254766Y-39206645D01*
X71258053Y-39209393D01*
X71379794Y-39285761D01*
X71497895Y-39359846D01*
X71497899Y-39359848D01*
X71501535Y-39362129D01*
X71763493Y-39480407D01*
X72039079Y-39562040D01*
X72043313Y-39562688D01*
X72043318Y-39562689D01*
X72294095Y-39601063D01*
X72323195Y-39605516D01*
X72469580Y-39607815D01*
X72606291Y-39609963D01*
X72606297Y-39609963D01*
X72610582Y-39610030D01*
X72895923Y-39575500D01*
X73173937Y-39502565D01*
X73177897Y-39500925D01*
X73177902Y-39500923D01*
X73320911Y-39441686D01*
X73439481Y-39392573D01*
X73687641Y-39247560D01*
X73913823Y-39070210D01*
X74113844Y-38863804D01*
X74116377Y-38860356D01*
X74116381Y-38860351D01*
X74281464Y-38635617D01*
X74284002Y-38632162D01*
X74421149Y-38379571D01*
X74471947Y-38245137D01*
X74521227Y-38114721D01*
X74521228Y-38114718D01*
X74522745Y-38110703D01*
X74586912Y-37830534D01*
X74593661Y-37754922D01*
X74612243Y-37546715D01*
X74612463Y-37544250D01*
X74612803Y-37511804D01*
X74612900Y-37502485D01*
X74612926Y-37500000D01*
X74612488Y-37493578D01*
X74593669Y-37217520D01*
X74593668Y-37217514D01*
X74593377Y-37213243D01*
X74588841Y-37191337D01*
X74535962Y-36935998D01*
X74535091Y-36931792D01*
X74527556Y-36910512D01*
X74440579Y-36664897D01*
X74439148Y-36660856D01*
X74307321Y-36405447D01*
X74142052Y-36170293D01*
X73946397Y-35959743D01*
X73723978Y-35777695D01*
X73478910Y-35627517D01*
X73474993Y-35625798D01*
X73474990Y-35625796D01*
X73358678Y-35574739D01*
X73215728Y-35511989D01*
X73211600Y-35510813D01*
X73211597Y-35510812D01*
X73125693Y-35486342D01*
X72939302Y-35433247D01*
X72935060Y-35432643D01*
X72935054Y-35432642D01*
X72658998Y-35393353D01*
X72654747Y-35392748D01*
X72503246Y-35391955D01*
X72371614Y-35391265D01*
X72371608Y-35391265D01*
X72367328Y-35391243D01*
X72363083Y-35391802D01*
X72363081Y-35391802D01*
X72297784Y-35400399D01*
X72082365Y-35428760D01*
X71805129Y-35504603D01*
X71540752Y-35617369D01*
X71537071Y-35619572D01*
X71297806Y-35762768D01*
X71297802Y-35762771D01*
X71294124Y-35764972D01*
X71290781Y-35767650D01*
X71290777Y-35767653D01*
X71278243Y-35777695D01*
X71069811Y-35944681D01*
X70871963Y-36153170D01*
X70704240Y-36386581D01*
X70569746Y-36640596D01*
X70470971Y-36910512D01*
X70409741Y-37191337D01*
X70387698Y-37471415D01*
X70387190Y-37477874D01*
X66508000Y-37477874D01*
X66508000Y-35000000D01*
X118487416Y-35000000D01*
X118505736Y-35302859D01*
X118560427Y-35601301D01*
X118650693Y-35890975D01*
X118652255Y-35894445D01*
X118652257Y-35894451D01*
X118712955Y-36029315D01*
X118775217Y-36167656D01*
X118932184Y-36427310D01*
X118934525Y-36430298D01*
X118934527Y-36430301D01*
X118982865Y-36492000D01*
X119119304Y-36666151D01*
X119333849Y-36880696D01*
X119572690Y-37067816D01*
X119575944Y-37069783D01*
X119829083Y-37222812D01*
X119829087Y-37222814D01*
X119832344Y-37224783D01*
X119939389Y-37272960D01*
X120105549Y-37347743D01*
X120105555Y-37347745D01*
X120109025Y-37349307D01*
X120398699Y-37439573D01*
X120697141Y-37494264D01*
X120700933Y-37494493D01*
X120700938Y-37494494D01*
X120822717Y-37501860D01*
X120969220Y-37510722D01*
X120982503Y-37512237D01*
X120987461Y-37513071D01*
X120993959Y-37513150D01*
X120995141Y-37513165D01*
X120995145Y-37513165D01*
X121000000Y-37513224D01*
X121027588Y-37509273D01*
X121045451Y-37508000D01*
X126946793Y-37508000D01*
X126967697Y-37509746D01*
X126987461Y-37513071D01*
X126993651Y-37513147D01*
X126995136Y-37513165D01*
X126995141Y-37513165D01*
X127000000Y-37513224D01*
X127004810Y-37512535D01*
X127007301Y-37512373D01*
X127012890Y-37511804D01*
X127087496Y-37507291D01*
X127299062Y-37494494D01*
X127299067Y-37494493D01*
X127302859Y-37494264D01*
X127392297Y-37477874D01*
X225387190Y-37477874D01*
X225403735Y-37764820D01*
X225404560Y-37769025D01*
X225404561Y-37769033D01*
X225438919Y-37944156D01*
X225459070Y-38046865D01*
X225460457Y-38050916D01*
X225536206Y-38272161D01*
X225552171Y-38318792D01*
X225681316Y-38575567D01*
X225683742Y-38579096D01*
X225683745Y-38579102D01*
X225722587Y-38635617D01*
X225844114Y-38812439D01*
X226037553Y-39025026D01*
X226040841Y-39027775D01*
X226254761Y-39206641D01*
X226254766Y-39206645D01*
X226258053Y-39209393D01*
X226379794Y-39285761D01*
X226497895Y-39359846D01*
X226497899Y-39359848D01*
X226501535Y-39362129D01*
X226763493Y-39480407D01*
X227039079Y-39562040D01*
X227043313Y-39562688D01*
X227043318Y-39562689D01*
X227294095Y-39601063D01*
X227323195Y-39605516D01*
X227469580Y-39607815D01*
X227606291Y-39609963D01*
X227606297Y-39609963D01*
X227610582Y-39610030D01*
X227895923Y-39575500D01*
X228173937Y-39502565D01*
X228177897Y-39500925D01*
X228177902Y-39500923D01*
X228320911Y-39441686D01*
X228439481Y-39392573D01*
X228687641Y-39247560D01*
X228913823Y-39070210D01*
X229113844Y-38863804D01*
X229116377Y-38860356D01*
X229116381Y-38860351D01*
X229281464Y-38635617D01*
X229284002Y-38632162D01*
X229421149Y-38379571D01*
X229471947Y-38245137D01*
X229521227Y-38114721D01*
X229521228Y-38114718D01*
X229522745Y-38110703D01*
X229586912Y-37830534D01*
X229593661Y-37754922D01*
X229612243Y-37546715D01*
X229612463Y-37544250D01*
X229612803Y-37511804D01*
X229612900Y-37502485D01*
X229612926Y-37500000D01*
X229612488Y-37493578D01*
X229593669Y-37217520D01*
X229593668Y-37217514D01*
X229593377Y-37213243D01*
X229588841Y-37191337D01*
X229535962Y-36935998D01*
X229535091Y-36931792D01*
X229527556Y-36910512D01*
X229440579Y-36664897D01*
X229439148Y-36660856D01*
X229307321Y-36405447D01*
X229142052Y-36170293D01*
X228946397Y-35959743D01*
X228723978Y-35777695D01*
X228478910Y-35627517D01*
X228474993Y-35625798D01*
X228474990Y-35625796D01*
X228358678Y-35574739D01*
X228215728Y-35511989D01*
X228211600Y-35510813D01*
X228211597Y-35510812D01*
X228125693Y-35486342D01*
X227939302Y-35433247D01*
X227935060Y-35432643D01*
X227935054Y-35432642D01*
X227658998Y-35393353D01*
X227654747Y-35392748D01*
X227503246Y-35391955D01*
X227371614Y-35391265D01*
X227371608Y-35391265D01*
X227367328Y-35391243D01*
X227363083Y-35391802D01*
X227363081Y-35391802D01*
X227297784Y-35400399D01*
X227082365Y-35428760D01*
X226805129Y-35504603D01*
X226540752Y-35617369D01*
X226537071Y-35619572D01*
X226297806Y-35762768D01*
X226297802Y-35762771D01*
X226294124Y-35764972D01*
X226290781Y-35767650D01*
X226290777Y-35767653D01*
X226278243Y-35777695D01*
X226069811Y-35944681D01*
X225871963Y-36153170D01*
X225704240Y-36386581D01*
X225569746Y-36640596D01*
X225470971Y-36910512D01*
X225409741Y-37191337D01*
X225387698Y-37471415D01*
X225387190Y-37477874D01*
X127392297Y-37477874D01*
X127601301Y-37439573D01*
X127890975Y-37349307D01*
X127894445Y-37347745D01*
X127894451Y-37347743D01*
X128060611Y-37272960D01*
X128167656Y-37224783D01*
X128170913Y-37222814D01*
X128170917Y-37222812D01*
X128424056Y-37069783D01*
X128427310Y-37067816D01*
X128666151Y-36880696D01*
X128880696Y-36666151D01*
X129017135Y-36492000D01*
X129065473Y-36430301D01*
X129065475Y-36430298D01*
X129067816Y-36427310D01*
X129224783Y-36167656D01*
X129287045Y-36029316D01*
X129347743Y-35894451D01*
X129347745Y-35894445D01*
X129349307Y-35890975D01*
X129439573Y-35601301D01*
X129494264Y-35302859D01*
X129512584Y-35000000D01*
X129494264Y-34697141D01*
X129439573Y-34398699D01*
X129349307Y-34109025D01*
X129224783Y-33832344D01*
X129067816Y-33572690D01*
X129018420Y-33509640D01*
X129010882Y-33500019D01*
X128880696Y-33333849D01*
X128666151Y-33119304D01*
X128427310Y-32932184D01*
X128203122Y-32796657D01*
X128170917Y-32777188D01*
X128170913Y-32777186D01*
X128167656Y-32775217D01*
X128029315Y-32712955D01*
X127894451Y-32652257D01*
X127894445Y-32652255D01*
X127890975Y-32650693D01*
X127663006Y-32579655D01*
X127604934Y-32561559D01*
X127604933Y-32561559D01*
X127601301Y-32560427D01*
X127302859Y-32505736D01*
X127299067Y-32505507D01*
X127299062Y-32505506D01*
X127177283Y-32498140D01*
X127030780Y-32489278D01*
X127017497Y-32487763D01*
X127012539Y-32486929D01*
X127006041Y-32486850D01*
X127004859Y-32486835D01*
X127004855Y-32486835D01*
X127000000Y-32486776D01*
X126975715Y-32490254D01*
X126972412Y-32490727D01*
X126954549Y-32492000D01*
X121053207Y-32492000D01*
X121032303Y-32490254D01*
X121024100Y-32488874D01*
X121012539Y-32486929D01*
X121006349Y-32486853D01*
X121004864Y-32486835D01*
X121004859Y-32486835D01*
X121000000Y-32486776D01*
X120995190Y-32487465D01*
X120992699Y-32487627D01*
X120987110Y-32488196D01*
X120945264Y-32490727D01*
X120700938Y-32505506D01*
X120700933Y-32505507D01*
X120697141Y-32505736D01*
X120398699Y-32560427D01*
X120395067Y-32561559D01*
X120395066Y-32561559D01*
X120336994Y-32579655D01*
X120109025Y-32650693D01*
X120105555Y-32652255D01*
X120105549Y-32652257D01*
X119970685Y-32712955D01*
X119832344Y-32775217D01*
X119829087Y-32777186D01*
X119829083Y-32777188D01*
X119796878Y-32796657D01*
X119572690Y-32932184D01*
X119333849Y-33119304D01*
X119119304Y-33333849D01*
X118989118Y-33500019D01*
X118981581Y-33509640D01*
X118932184Y-33572690D01*
X118775217Y-33832344D01*
X118650693Y-34109025D01*
X118560427Y-34398699D01*
X118505736Y-34697141D01*
X118487416Y-35000000D01*
X66508000Y-35000000D01*
X66508000Y-33049328D01*
X66509500Y-33029943D01*
X66511805Y-33015141D01*
X66511805Y-33015139D01*
X66513186Y-33006270D01*
X66512022Y-32997366D01*
X66511195Y-32991041D01*
X66510452Y-32965713D01*
X66512683Y-32934527D01*
X66522543Y-32796657D01*
X66525101Y-32778863D01*
X66566520Y-32588462D01*
X66571586Y-32571212D01*
X66639682Y-32388642D01*
X66647149Y-32372290D01*
X66740531Y-32201271D01*
X66750248Y-32186152D01*
X66867023Y-32030158D01*
X66878796Y-32016572D01*
X67016572Y-31878796D01*
X67030158Y-31867023D01*
X67076484Y-31832344D01*
X67186152Y-31750248D01*
X67201266Y-31740534D01*
X67306980Y-31682810D01*
X67372290Y-31647149D01*
X67388642Y-31639682D01*
X67571212Y-31571586D01*
X67588460Y-31566521D01*
X67778863Y-31525101D01*
X67796658Y-31522543D01*
X67845557Y-31519046D01*
X67958631Y-31510959D01*
X67976533Y-31511703D01*
X67984858Y-31511805D01*
X67993730Y-31513186D01*
X68002632Y-31512022D01*
X68002635Y-31512022D01*
X68025251Y-31509064D01*
X68041589Y-31508000D01*
X231950672Y-31508000D01*
X231970056Y-31509500D01*
G37*
%TD.AperFunction*%
M02*
