%TF.GenerationSoftware,KiCad,Pcbnew,(6.0.1)*%
%TF.CreationDate,2022-06-19T08:52:03+09:00*%
%TF.ProjectId,yuiop32dm-topplate,7975696f-7033-4326-946d-2d746f70706c,1*%
%TF.SameCoordinates,Original*%
%TF.FileFunction,Legend,Bot*%
%TF.FilePolarity,Positive*%
%FSLAX46Y46*%
G04 Gerber Fmt 4.6, Leading zero omitted, Abs format (unit mm)*
G04 Created by KiCad (PCBNEW (6.0.1)) date 2022-06-19 08:52:03*
%MOMM*%
%LPD*%
G01*
G04 APERTURE LIST*
%ADD10C,0.150000*%
G04 APERTURE END LIST*
D10*
X86195238Y-145311904D02*
X86195238Y-145883333D01*
X86233333Y-145997619D01*
X86309523Y-146073809D01*
X86423809Y-146111904D01*
X86500000Y-146111904D01*
X85433333Y-146111904D02*
X85814285Y-146111904D01*
X85814285Y-145311904D01*
X84709523Y-146035714D02*
X84747619Y-146073809D01*
X84861904Y-146111904D01*
X84938095Y-146111904D01*
X85052380Y-146073809D01*
X85128571Y-145997619D01*
X85166666Y-145921428D01*
X85204761Y-145769047D01*
X85204761Y-145654761D01*
X85166666Y-145502380D01*
X85128571Y-145426190D01*
X85052380Y-145350000D01*
X84938095Y-145311904D01*
X84861904Y-145311904D01*
X84747619Y-145350000D01*
X84709523Y-145388095D01*
X84138095Y-145311904D02*
X84138095Y-145883333D01*
X84176190Y-145997619D01*
X84252380Y-146073809D01*
X84366666Y-146111904D01*
X84442857Y-146111904D01*
X83376190Y-146111904D02*
X83757142Y-146111904D01*
X83757142Y-145311904D01*
X82652380Y-146035714D02*
X82690476Y-146073809D01*
X82804761Y-146111904D01*
X82880952Y-146111904D01*
X82995238Y-146073809D01*
X83071428Y-145997619D01*
X83109523Y-145921428D01*
X83147619Y-145769047D01*
X83147619Y-145654761D01*
X83109523Y-145502380D01*
X83071428Y-145426190D01*
X82995238Y-145350000D01*
X82880952Y-145311904D01*
X82804761Y-145311904D01*
X82690476Y-145350000D01*
X82652380Y-145388095D01*
X82080952Y-145311904D02*
X82080952Y-145883333D01*
X82119047Y-145997619D01*
X82195238Y-146073809D01*
X82309523Y-146111904D01*
X82385714Y-146111904D01*
X81319047Y-146111904D02*
X81700000Y-146111904D01*
X81700000Y-145311904D01*
X80595238Y-146035714D02*
X80633333Y-146073809D01*
X80747619Y-146111904D01*
X80823809Y-146111904D01*
X80938095Y-146073809D01*
X81014285Y-145997619D01*
X81052380Y-145921428D01*
X81090476Y-145769047D01*
X81090476Y-145654761D01*
X81052380Y-145502380D01*
X81014285Y-145426190D01*
X80938095Y-145350000D01*
X80823809Y-145311904D01*
X80747619Y-145311904D01*
X80633333Y-145350000D01*
X80595238Y-145388095D01*
X80023809Y-145311904D02*
X80023809Y-145883333D01*
X80061904Y-145997619D01*
X80138095Y-146073809D01*
X80252380Y-146111904D01*
X80328571Y-146111904D01*
X79261904Y-146111904D02*
X79642857Y-146111904D01*
X79642857Y-145311904D01*
X78538095Y-146035714D02*
X78576190Y-146073809D01*
X78690476Y-146111904D01*
X78766666Y-146111904D01*
X78880952Y-146073809D01*
X78957142Y-145997619D01*
X78995238Y-145921428D01*
X79033333Y-145769047D01*
X79033333Y-145654761D01*
X78995238Y-145502380D01*
X78957142Y-145426190D01*
X78880952Y-145350000D01*
X78766666Y-145311904D01*
X78690476Y-145311904D01*
X78576190Y-145350000D01*
X78538095Y-145388095D01*
M02*
