%TF.GenerationSoftware,KiCad,Pcbnew,(6.0.1)*%
%TF.CreationDate,2022-06-19T08:52:03+09:00*%
%TF.ProjectId,yuiop32dm-topplate,7975696f-7033-4326-946d-2d746f70706c,1*%
%TF.SameCoordinates,Original*%
%TF.FileFunction,Profile,NP*%
%FSLAX46Y46*%
G04 Gerber Fmt 4.6, Leading zero omitted, Abs format (unit mm)*
G04 Created by KiCad (PCBNEW (6.0.1)) date 2022-06-19 08:52:03*
%MOMM*%
%LPD*%
G01*
G04 APERTURE LIST*
%TA.AperFunction,Profile*%
%ADD10C,0.050000*%
%TD*%
%TA.AperFunction,Profile*%
%ADD11C,0.100000*%
%TD*%
%TA.AperFunction,Profile*%
%ADD12C,0.120000*%
%TD*%
G04 APERTURE END LIST*
D10*
X68000000Y-31000000D02*
G75*
G03*
X66000000Y-33000000I-1J-1999999D01*
G01*
X68000000Y-31000000D02*
X232000000Y-31000000D01*
X74100000Y-37500000D02*
G75*
G03*
X74100000Y-37500000I-1600000J0D01*
G01*
X66000000Y-147000000D02*
G75*
G03*
X68000000Y-149000000I1999999J-1D01*
G01*
D11*
X121000000Y-33000000D02*
X127000000Y-33000000D01*
X127000000Y-37000000D02*
G75*
G03*
X127000000Y-33000000I0J2000000D01*
G01*
D10*
X232000000Y-149000000D02*
G75*
G03*
X234000000Y-147000000I1J1999999D01*
G01*
X74100000Y-142500000D02*
G75*
G03*
X74100000Y-142500000I-1600000J0D01*
G01*
X229100000Y-142500000D02*
G75*
G03*
X229100000Y-142500000I-1600000J0D01*
G01*
X229100000Y-37500000D02*
G75*
G03*
X229100000Y-37500000I-1600000J0D01*
G01*
X234000000Y-33000000D02*
X234000000Y-147000000D01*
D11*
X127000000Y-37000000D02*
X121000000Y-37000000D01*
D10*
X232000000Y-149000000D02*
X68000000Y-149000000D01*
X66000000Y-147000000D02*
X66000000Y-33000000D01*
X234000000Y-33000000D02*
G75*
G03*
X232000000Y-31000000I-1999999J1D01*
G01*
D11*
X121000000Y-33000000D02*
G75*
G03*
X121000000Y-37000000I0J-2000000D01*
G01*
D12*
%TO.C,KSW24*%
X83181250Y-96700000D02*
X83181250Y-83300000D01*
X82881250Y-83000000D02*
X69481250Y-83000000D01*
X69481250Y-97000000D02*
X82881250Y-97000000D01*
X69181250Y-83300000D02*
X69181250Y-96700000D01*
X69481250Y-83000000D02*
G75*
G03*
X69181250Y-83300000I0J-300000D01*
G01*
X83181250Y-83300000D02*
G75*
G03*
X82881250Y-83000000I-300000J0D01*
G01*
X82881250Y-97000000D02*
G75*
G03*
X83181250Y-96700000I0J300000D01*
G01*
X69181250Y-96700000D02*
G75*
G03*
X69481250Y-97000000I300000J0D01*
G01*
%TO.C,KSW4*%
X159968750Y-77950000D02*
X173368750Y-77950000D01*
X159668750Y-64250000D02*
X159668750Y-77650000D01*
X173368750Y-63950000D02*
X159968750Y-63950000D01*
X173668750Y-77650000D02*
X173668750Y-64250000D01*
X173668750Y-64250000D02*
G75*
G03*
X173368750Y-63950000I-300000J0D01*
G01*
X159968750Y-63950000D02*
G75*
G03*
X159668750Y-64250000I0J-300000D01*
G01*
X159668750Y-77650000D02*
G75*
G03*
X159968750Y-77950000I300000J0D01*
G01*
X173368750Y-77950000D02*
G75*
G03*
X173668750Y-77650000I0J300000D01*
G01*
%TO.C,KSW30*%
X121281250Y-134800000D02*
X121281250Y-121400000D01*
X107581250Y-135100000D02*
X120981250Y-135100000D01*
X120981250Y-121100000D02*
X107581250Y-121100000D01*
X107281250Y-121400000D02*
X107281250Y-134800000D01*
X121281250Y-121400000D02*
G75*
G03*
X120981250Y-121100000I-300000J0D01*
G01*
X107581250Y-121100000D02*
G75*
G03*
X107281250Y-121400000I0J-300000D01*
G01*
X107281250Y-134800000D02*
G75*
G03*
X107581250Y-135100000I300000J0D01*
G01*
X120981250Y-135100000D02*
G75*
G03*
X121281250Y-134800000I0J300000D01*
G01*
%TO.C,KSW12*%
X159968750Y-116050000D02*
X173368750Y-116050000D01*
X173668750Y-115750000D02*
X173668750Y-102350000D01*
X173368750Y-102050000D02*
X159968750Y-102050000D01*
X159668750Y-102350000D02*
X159668750Y-115750000D01*
X173668750Y-102350000D02*
G75*
G03*
X173368750Y-102050000I-300000J0D01*
G01*
X173368750Y-116050000D02*
G75*
G03*
X173668750Y-115750000I0J300000D01*
G01*
X159668750Y-115750000D02*
G75*
G03*
X159968750Y-116050000I300000J0D01*
G01*
X159968750Y-102050000D02*
G75*
G03*
X159668750Y-102350000I0J-300000D01*
G01*
%TO.C,KSW7*%
X192418750Y-83000000D02*
X179018750Y-83000000D01*
X178718750Y-83300000D02*
X178718750Y-96700000D01*
X179018750Y-97000000D02*
X192418750Y-97000000D01*
X192718750Y-96700000D02*
X192718750Y-83300000D01*
X178718750Y-96700000D02*
G75*
G03*
X179018750Y-97000000I300000J0D01*
G01*
X192718750Y-83300000D02*
G75*
G03*
X192418750Y-83000000I-300000J0D01*
G01*
X192418750Y-97000000D02*
G75*
G03*
X192718750Y-96700000I0J300000D01*
G01*
X179018750Y-83000000D02*
G75*
G03*
X178718750Y-83300000I0J-300000D01*
G01*
%TO.C,KSW21*%
X140331250Y-96700000D02*
X140331250Y-83300000D01*
X140031250Y-83000000D02*
X126631250Y-83000000D01*
X126331250Y-83300000D02*
X126331250Y-96700000D01*
X126631250Y-97000000D02*
X140031250Y-97000000D01*
X126331250Y-96700000D02*
G75*
G03*
X126631250Y-97000000I300000J0D01*
G01*
X140331250Y-83300000D02*
G75*
G03*
X140031250Y-83000000I-300000J0D01*
G01*
X126631250Y-83000000D02*
G75*
G03*
X126331250Y-83300000I0J-300000D01*
G01*
X140031250Y-97000000D02*
G75*
G03*
X140331250Y-96700000I0J300000D01*
G01*
%TO.C,KSW5*%
X217118750Y-97000000D02*
X230518750Y-97000000D01*
X230518750Y-83000000D02*
X217118750Y-83000000D01*
X216818750Y-83300000D02*
X216818750Y-96700000D01*
X230818750Y-96700000D02*
X230818750Y-83300000D01*
X217118750Y-83000000D02*
G75*
G03*
X216818750Y-83300000I0J-300000D01*
G01*
X216818750Y-96700000D02*
G75*
G03*
X217118750Y-97000000I300000J0D01*
G01*
X230518750Y-97000000D02*
G75*
G03*
X230818750Y-96700000I0J300000D01*
G01*
X230818750Y-83300000D02*
G75*
G03*
X230518750Y-83000000I-300000J0D01*
G01*
%TO.C,KSW23*%
X101931250Y-83000000D02*
X88531250Y-83000000D01*
X88231250Y-83300000D02*
X88231250Y-96700000D01*
X102231250Y-96700000D02*
X102231250Y-83300000D01*
X88531250Y-97000000D02*
X101931250Y-97000000D01*
X101931250Y-97000000D02*
G75*
G03*
X102231250Y-96700000I0J300000D01*
G01*
X88531250Y-83000000D02*
G75*
G03*
X88231250Y-83300000I0J-300000D01*
G01*
X102231250Y-83300000D02*
G75*
G03*
X101931250Y-83000000I-300000J0D01*
G01*
X88231250Y-96700000D02*
G75*
G03*
X88531250Y-97000000I300000J0D01*
G01*
%TO.C,KSW17*%
X140331250Y-77650000D02*
X140331250Y-64250000D01*
X140031250Y-63950000D02*
X126631250Y-63950000D01*
X126331250Y-64250000D02*
X126331250Y-77650000D01*
X126631250Y-77950000D02*
X140031250Y-77950000D01*
X126631250Y-63950000D02*
G75*
G03*
X126331250Y-64250000I0J-300000D01*
G01*
X126331250Y-77650000D02*
G75*
G03*
X126631250Y-77950000I300000J0D01*
G01*
X140031250Y-77950000D02*
G75*
G03*
X140331250Y-77650000I0J300000D01*
G01*
X140331250Y-64250000D02*
G75*
G03*
X140031250Y-63950000I-300000J0D01*
G01*
%TO.C,KSW11*%
X192418750Y-102050000D02*
X179018750Y-102050000D01*
X178718750Y-102350000D02*
X178718750Y-115750000D01*
X179018750Y-116050000D02*
X192418750Y-116050000D01*
X192718750Y-115750000D02*
X192718750Y-102350000D01*
X192718750Y-102350000D02*
G75*
G03*
X192418750Y-102050000I-300000J0D01*
G01*
X178718750Y-115750000D02*
G75*
G03*
X179018750Y-116050000I300000J0D01*
G01*
X192418750Y-116050000D02*
G75*
G03*
X192718750Y-115750000I0J300000D01*
G01*
X179018750Y-102050000D02*
G75*
G03*
X178718750Y-102350000I0J-300000D01*
G01*
%TO.C,KSW28*%
X82881250Y-102050000D02*
X69481250Y-102050000D01*
X83181250Y-115750000D02*
X83181250Y-102350000D01*
X69481250Y-116050000D02*
X82881250Y-116050000D01*
X69181250Y-102350000D02*
X69181250Y-115750000D01*
X69181250Y-115750000D02*
G75*
G03*
X69481250Y-116050000I300000J0D01*
G01*
X69481250Y-102050000D02*
G75*
G03*
X69181250Y-102350000I0J-300000D01*
G01*
X83181250Y-102350000D02*
G75*
G03*
X82881250Y-102050000I-300000J0D01*
G01*
X82881250Y-116050000D02*
G75*
G03*
X83181250Y-115750000I0J300000D01*
G01*
%TO.C,KSW9*%
X230518750Y-102050000D02*
X217118750Y-102050000D01*
X217118750Y-116050000D02*
X230518750Y-116050000D01*
X230818750Y-115750000D02*
X230818750Y-102350000D01*
X216818750Y-102350000D02*
X216818750Y-115750000D01*
X230518750Y-116050000D02*
G75*
G03*
X230818750Y-115750000I0J300000D01*
G01*
X230818750Y-102350000D02*
G75*
G03*
X230518750Y-102050000I-300000J0D01*
G01*
X217118750Y-102050000D02*
G75*
G03*
X216818750Y-102350000I0J-300000D01*
G01*
X216818750Y-115750000D02*
G75*
G03*
X217118750Y-116050000I300000J0D01*
G01*
%TO.C,KSW2*%
X197768750Y-64250000D02*
X197768750Y-77650000D01*
X211768750Y-77650000D02*
X211768750Y-64250000D01*
X211468750Y-63950000D02*
X198068750Y-63950000D01*
X198068750Y-77950000D02*
X211468750Y-77950000D01*
X197768750Y-77650000D02*
G75*
G03*
X198068750Y-77950000I300000J0D01*
G01*
X211768750Y-64250000D02*
G75*
G03*
X211468750Y-63950000I-300000J0D01*
G01*
X211468750Y-77950000D02*
G75*
G03*
X211768750Y-77650000I0J300000D01*
G01*
X198068750Y-63950000D02*
G75*
G03*
X197768750Y-64250000I0J-300000D01*
G01*
%TO.C,KSW19*%
X101931250Y-63950000D02*
X88531250Y-63950000D01*
X88231250Y-64250000D02*
X88231250Y-77650000D01*
X102231250Y-77650000D02*
X102231250Y-64250000D01*
X88531250Y-77950000D02*
X101931250Y-77950000D01*
X101931250Y-77950000D02*
G75*
G03*
X102231250Y-77650000I0J300000D01*
G01*
X102231250Y-64250000D02*
G75*
G03*
X101931250Y-63950000I-300000J0D01*
G01*
X88531250Y-63950000D02*
G75*
G03*
X88231250Y-64250000I0J-300000D01*
G01*
X88231250Y-77650000D02*
G75*
G03*
X88531250Y-77950000I300000J0D01*
G01*
%TO.C,KSW26*%
X107281250Y-102350000D02*
X107281250Y-115750000D01*
X120981250Y-102050000D02*
X107581250Y-102050000D01*
X107581250Y-116050000D02*
X120981250Y-116050000D01*
X121281250Y-115750000D02*
X121281250Y-102350000D01*
X107581250Y-102050000D02*
G75*
G03*
X107281250Y-102350000I0J-300000D01*
G01*
X107281250Y-115750000D02*
G75*
G03*
X107581250Y-116050000I300000J0D01*
G01*
X121281250Y-102350000D02*
G75*
G03*
X120981250Y-102050000I-300000J0D01*
G01*
X120981250Y-116050000D02*
G75*
G03*
X121281250Y-115750000I0J300000D01*
G01*
%TO.C,KSW3*%
X192418750Y-63950000D02*
X179018750Y-63950000D01*
X178718750Y-64250000D02*
X178718750Y-77650000D01*
X179018750Y-77950000D02*
X192418750Y-77950000D01*
X192718750Y-77650000D02*
X192718750Y-64250000D01*
X192718750Y-64250000D02*
G75*
G03*
X192418750Y-63950000I-300000J0D01*
G01*
X178718750Y-77650000D02*
G75*
G03*
X179018750Y-77950000I300000J0D01*
G01*
X179018750Y-63950000D02*
G75*
G03*
X178718750Y-64250000I0J-300000D01*
G01*
X192418750Y-77950000D02*
G75*
G03*
X192718750Y-77650000I0J300000D01*
G01*
%TO.C,KSW27*%
X88231250Y-102350000D02*
X88231250Y-115750000D01*
X102231250Y-115750000D02*
X102231250Y-102350000D01*
X88531250Y-116050000D02*
X101931250Y-116050000D01*
X101931250Y-102050000D02*
X88531250Y-102050000D01*
X88531250Y-102050000D02*
G75*
G03*
X88231250Y-102350000I0J-300000D01*
G01*
X102231250Y-102350000D02*
G75*
G03*
X101931250Y-102050000I-300000J0D01*
G01*
X101931250Y-116050000D02*
G75*
G03*
X102231250Y-115750000I0J300000D01*
G01*
X88231250Y-115750000D02*
G75*
G03*
X88531250Y-116050000I300000J0D01*
G01*
%TO.C,KSW29*%
X126631250Y-135100000D02*
X140031250Y-135100000D01*
X126331250Y-121400000D02*
X126331250Y-134800000D01*
X140031250Y-121100000D02*
X126631250Y-121100000D01*
X140331250Y-134800000D02*
X140331250Y-121400000D01*
X126331250Y-134800000D02*
G75*
G03*
X126631250Y-135100000I300000J0D01*
G01*
X140331250Y-121400000D02*
G75*
G03*
X140031250Y-121100000I-300000J0D01*
G01*
X126631250Y-121100000D02*
G75*
G03*
X126331250Y-121400000I0J-300000D01*
G01*
X140031250Y-135100000D02*
G75*
G03*
X140331250Y-134800000I0J300000D01*
G01*
%TO.C,KSW32*%
X82881250Y-121100000D02*
X69481250Y-121100000D01*
X69181250Y-121400000D02*
X69181250Y-134800000D01*
X83181250Y-134800000D02*
X83181250Y-121400000D01*
X69481250Y-135100000D02*
X82881250Y-135100000D01*
X82881250Y-135100000D02*
G75*
G03*
X83181250Y-134800000I0J300000D01*
G01*
X69481250Y-121100000D02*
G75*
G03*
X69181250Y-121400000I0J-300000D01*
G01*
X83181250Y-121400000D02*
G75*
G03*
X82881250Y-121100000I-300000J0D01*
G01*
X69181250Y-134800000D02*
G75*
G03*
X69481250Y-135100000I300000J0D01*
G01*
%TO.C,KSW14*%
X198068750Y-135100000D02*
X211468750Y-135100000D01*
X211468750Y-121100000D02*
X198068750Y-121100000D01*
X197768750Y-121400000D02*
X197768750Y-134800000D01*
X211768750Y-134800000D02*
X211768750Y-121400000D01*
X198068750Y-121100000D02*
G75*
G03*
X197768750Y-121400000I0J-300000D01*
G01*
X197768750Y-134800000D02*
G75*
G03*
X198068750Y-135100000I300000J0D01*
G01*
X211468750Y-135100000D02*
G75*
G03*
X211768750Y-134800000I0J300000D01*
G01*
X211768750Y-121400000D02*
G75*
G03*
X211468750Y-121100000I-300000J0D01*
G01*
%TO.C,KSW13*%
X230518750Y-121100000D02*
X217118750Y-121100000D01*
X217118750Y-135100000D02*
X230518750Y-135100000D01*
X230818750Y-134800000D02*
X230818750Y-121400000D01*
X216818750Y-121400000D02*
X216818750Y-134800000D01*
X230818750Y-121400000D02*
G75*
G03*
X230518750Y-121100000I-300000J0D01*
G01*
X216818750Y-134800000D02*
G75*
G03*
X217118750Y-135100000I300000J0D01*
G01*
X230518750Y-135100000D02*
G75*
G03*
X230818750Y-134800000I0J300000D01*
G01*
X217118750Y-121100000D02*
G75*
G03*
X216818750Y-121400000I0J-300000D01*
G01*
%TO.C,KSW1*%
X217118750Y-77950000D02*
X230518750Y-77950000D01*
X216818750Y-64250000D02*
X216818750Y-77650000D01*
X230518750Y-63950000D02*
X217118750Y-63950000D01*
X230818750Y-77650000D02*
X230818750Y-64250000D01*
X216818750Y-77650000D02*
G75*
G03*
X217118750Y-77950000I300000J0D01*
G01*
X230518750Y-77950000D02*
G75*
G03*
X230818750Y-77650000I0J300000D01*
G01*
X217118750Y-63950000D02*
G75*
G03*
X216818750Y-64250000I0J-300000D01*
G01*
X230818750Y-64250000D02*
G75*
G03*
X230518750Y-63950000I-300000J0D01*
G01*
%TO.C,KSW6*%
X211768750Y-96700000D02*
X211768750Y-83300000D01*
X211468750Y-83000000D02*
X198068750Y-83000000D01*
X197768750Y-83300000D02*
X197768750Y-96700000D01*
X198068750Y-97000000D02*
X211468750Y-97000000D01*
X211768750Y-83300000D02*
G75*
G03*
X211468750Y-83000000I-300000J0D01*
G01*
X197768750Y-96700000D02*
G75*
G03*
X198068750Y-97000000I300000J0D01*
G01*
X211468750Y-97000000D02*
G75*
G03*
X211768750Y-96700000I0J300000D01*
G01*
X198068750Y-83000000D02*
G75*
G03*
X197768750Y-83300000I0J-300000D01*
G01*
%TO.C,KSW18*%
X107581250Y-77950000D02*
X120981250Y-77950000D01*
X120981250Y-63950000D02*
X107581250Y-63950000D01*
X121281250Y-77650000D02*
X121281250Y-64250000D01*
X107281250Y-64250000D02*
X107281250Y-77650000D01*
X107581250Y-63950000D02*
G75*
G03*
X107281250Y-64250000I0J-300000D01*
G01*
X121281250Y-64250000D02*
G75*
G03*
X120981250Y-63950000I-300000J0D01*
G01*
X120981250Y-77950000D02*
G75*
G03*
X121281250Y-77650000I0J300000D01*
G01*
X107281250Y-77650000D02*
G75*
G03*
X107581250Y-77950000I300000J0D01*
G01*
%TO.C,KSW22*%
X107581250Y-97000000D02*
X120981250Y-97000000D01*
X120981250Y-83000000D02*
X107581250Y-83000000D01*
X107281250Y-83300000D02*
X107281250Y-96700000D01*
X121281250Y-96700000D02*
X121281250Y-83300000D01*
X121281250Y-83300000D02*
G75*
G03*
X120981250Y-83000000I-300000J0D01*
G01*
X107281250Y-96700000D02*
G75*
G03*
X107581250Y-97000000I300000J0D01*
G01*
X120981250Y-97000000D02*
G75*
G03*
X121281250Y-96700000I0J300000D01*
G01*
X107581250Y-83000000D02*
G75*
G03*
X107281250Y-83300000I0J-300000D01*
G01*
%TO.C,KSW20*%
X83181250Y-77650000D02*
X83181250Y-64250000D01*
X82881250Y-63950000D02*
X69481250Y-63950000D01*
X69481250Y-77950000D02*
X82881250Y-77950000D01*
X69181250Y-64250000D02*
X69181250Y-77650000D01*
X69481250Y-63950000D02*
G75*
G03*
X69181250Y-64250000I0J-300000D01*
G01*
X82881250Y-77950000D02*
G75*
G03*
X83181250Y-77650000I0J300000D01*
G01*
X69181250Y-77650000D02*
G75*
G03*
X69481250Y-77950000I300000J0D01*
G01*
X83181250Y-64250000D02*
G75*
G03*
X82881250Y-63950000I-300000J0D01*
G01*
%TO.C,KSW25*%
X126631250Y-116050000D02*
X140031250Y-116050000D01*
X140031250Y-102050000D02*
X126631250Y-102050000D01*
X140331250Y-115750000D02*
X140331250Y-102350000D01*
X126331250Y-102350000D02*
X126331250Y-115750000D01*
X126631250Y-102050000D02*
G75*
G03*
X126331250Y-102350000I0J-300000D01*
G01*
X140331250Y-102350000D02*
G75*
G03*
X140031250Y-102050000I-300000J0D01*
G01*
X126331250Y-115750000D02*
G75*
G03*
X126631250Y-116050000I300000J0D01*
G01*
X140031250Y-116050000D02*
G75*
G03*
X140331250Y-115750000I0J300000D01*
G01*
%TO.C,KSW16*%
X173368750Y-121100000D02*
X159968750Y-121100000D01*
X173668750Y-134800000D02*
X173668750Y-121400000D01*
X159668750Y-121400000D02*
X159668750Y-134800000D01*
X159968750Y-135100000D02*
X173368750Y-135100000D01*
X173368750Y-135100000D02*
G75*
G03*
X173668750Y-134800000I0J300000D01*
G01*
X173668750Y-121400000D02*
G75*
G03*
X173368750Y-121100000I-300000J0D01*
G01*
X159968750Y-121100000D02*
G75*
G03*
X159668750Y-121400000I0J-300000D01*
G01*
X159668750Y-134800000D02*
G75*
G03*
X159968750Y-135100000I300000J0D01*
G01*
%TO.C,KSW8*%
X159968750Y-97000000D02*
X173368750Y-97000000D01*
X173368750Y-83000000D02*
X159968750Y-83000000D01*
X159668750Y-83300000D02*
X159668750Y-96700000D01*
X173668750Y-96700000D02*
X173668750Y-83300000D01*
X173668750Y-83300000D02*
G75*
G03*
X173368750Y-83000000I-300000J0D01*
G01*
X159668750Y-96700000D02*
G75*
G03*
X159968750Y-97000000I300000J0D01*
G01*
X173368750Y-97000000D02*
G75*
G03*
X173668750Y-96700000I0J300000D01*
G01*
X159968750Y-83000000D02*
G75*
G03*
X159668750Y-83300000I0J-300000D01*
G01*
%TO.C,KSW31*%
X102231250Y-134800000D02*
X102231250Y-121400000D01*
X88531250Y-135100000D02*
X101931250Y-135100000D01*
X101931250Y-121100000D02*
X88531250Y-121100000D01*
X88231250Y-121400000D02*
X88231250Y-134800000D01*
X101931250Y-135100000D02*
G75*
G03*
X102231250Y-134800000I0J300000D01*
G01*
X88531250Y-121100000D02*
G75*
G03*
X88231250Y-121400000I0J-300000D01*
G01*
X102231250Y-121400000D02*
G75*
G03*
X101931250Y-121100000I-300000J0D01*
G01*
X88231250Y-134800000D02*
G75*
G03*
X88531250Y-135100000I300000J0D01*
G01*
%TO.C,KSW15*%
X192718750Y-134800000D02*
X192718750Y-121400000D01*
X179018750Y-135100000D02*
X192418750Y-135100000D01*
X192418750Y-121100000D02*
X179018750Y-121100000D01*
X178718750Y-121400000D02*
X178718750Y-134800000D01*
X192718750Y-121400000D02*
G75*
G03*
X192418750Y-121100000I-300000J0D01*
G01*
X192418750Y-135100000D02*
G75*
G03*
X192718750Y-134800000I0J300000D01*
G01*
X179018750Y-121100000D02*
G75*
G03*
X178718750Y-121400000I0J-300000D01*
G01*
X178718750Y-134800000D02*
G75*
G03*
X179018750Y-135100000I300000J0D01*
G01*
%TO.C,KSW10*%
X197768750Y-102350000D02*
X197768750Y-115750000D01*
X211468750Y-102050000D02*
X198068750Y-102050000D01*
X211768750Y-115750000D02*
X211768750Y-102350000D01*
X198068750Y-116050000D02*
X211468750Y-116050000D01*
X211468750Y-116050000D02*
G75*
G03*
X211768750Y-115750000I0J300000D01*
G01*
X197768750Y-115750000D02*
G75*
G03*
X198068750Y-116050000I300000J0D01*
G01*
X211768750Y-102350000D02*
G75*
G03*
X211468750Y-102050000I-300000J0D01*
G01*
X198068750Y-102050000D02*
G75*
G03*
X197768750Y-102350000I0J-300000D01*
G01*
%TD*%
M02*
