%TF.GenerationSoftware,KiCad,Pcbnew,(5.1.9)-1*%
%TF.CreationDate,2021-04-11T15:21:24+09:00*%
%TF.ProjectId,yuiop60hh3,7975696f-7036-4306-9868-332e6b696361,1*%
%TF.SameCoordinates,Original*%
%TF.FileFunction,Paste,Bot*%
%TF.FilePolarity,Positive*%
%FSLAX46Y46*%
G04 Gerber Fmt 4.6, Leading zero omitted, Abs format (unit mm)*
G04 Created by KiCad (PCBNEW (5.1.9)-1) date 2021-04-11 15:21:24*
%MOMM*%
%LPD*%
G01*
G04 APERTURE LIST*
%ADD10R,1.200000X1.400000*%
%ADD11R,2.550000X2.500000*%
%ADD12C,0.100000*%
%ADD13R,1.300000X1.550000*%
%ADD14R,0.400000X1.050000*%
%ADD15R,2.000000X1.500000*%
%ADD16R,1.600000X2.400000*%
%ADD17R,1.200000X0.900000*%
%ADD18R,0.900000X1.200000*%
G04 APERTURE END LIST*
%TO.C,R2*%
G36*
G01*
X189844000Y-182947500D02*
X189844000Y-183422500D01*
G75*
G02*
X189606500Y-183660000I-237500J0D01*
G01*
X189106500Y-183660000D01*
G75*
G02*
X188869000Y-183422500I0J237500D01*
G01*
X188869000Y-182947500D01*
G75*
G02*
X189106500Y-182710000I237500J0D01*
G01*
X189606500Y-182710000D01*
G75*
G02*
X189844000Y-182947500I0J-237500D01*
G01*
G37*
G36*
G01*
X191669000Y-182947500D02*
X191669000Y-183422500D01*
G75*
G02*
X191431500Y-183660000I-237500J0D01*
G01*
X190931500Y-183660000D01*
G75*
G02*
X190694000Y-183422500I0J237500D01*
G01*
X190694000Y-182947500D01*
G75*
G02*
X190931500Y-182710000I237500J0D01*
G01*
X191431500Y-182710000D01*
G75*
G02*
X191669000Y-182947500I0J-237500D01*
G01*
G37*
%TD*%
D10*
%TO.C,X1*%
X167089000Y-180829000D03*
X167089000Y-178429000D03*
X165189000Y-178429000D03*
X165189000Y-180829000D03*
%TD*%
%TO.C,C8*%
G36*
G01*
X166210000Y-191550500D02*
X166210000Y-191075500D01*
G75*
G02*
X166447500Y-190838000I237500J0D01*
G01*
X167047500Y-190838000D01*
G75*
G02*
X167285000Y-191075500I0J-237500D01*
G01*
X167285000Y-191550500D01*
G75*
G02*
X167047500Y-191788000I-237500J0D01*
G01*
X166447500Y-191788000D01*
G75*
G02*
X166210000Y-191550500I0J237500D01*
G01*
G37*
G36*
G01*
X164485000Y-191550500D02*
X164485000Y-191075500D01*
G75*
G02*
X164722500Y-190838000I237500J0D01*
G01*
X165322500Y-190838000D01*
G75*
G02*
X165560000Y-191075500I0J-237500D01*
G01*
X165560000Y-191550500D01*
G75*
G02*
X165322500Y-191788000I-237500J0D01*
G01*
X164722500Y-191788000D01*
G75*
G02*
X164485000Y-191550500I0J237500D01*
G01*
G37*
%TD*%
%TO.C,C7*%
G36*
G01*
X170386000Y-192345500D02*
X170386000Y-192820500D01*
G75*
G02*
X170148500Y-193058000I-237500J0D01*
G01*
X169548500Y-193058000D01*
G75*
G02*
X169311000Y-192820500I0J237500D01*
G01*
X169311000Y-192345500D01*
G75*
G02*
X169548500Y-192108000I237500J0D01*
G01*
X170148500Y-192108000D01*
G75*
G02*
X170386000Y-192345500I0J-237500D01*
G01*
G37*
G36*
G01*
X172111000Y-192345500D02*
X172111000Y-192820500D01*
G75*
G02*
X171873500Y-193058000I-237500J0D01*
G01*
X171273500Y-193058000D01*
G75*
G02*
X171036000Y-192820500I0J237500D01*
G01*
X171036000Y-192345500D01*
G75*
G02*
X171273500Y-192108000I237500J0D01*
G01*
X171873500Y-192108000D01*
G75*
G02*
X172111000Y-192345500I0J-237500D01*
G01*
G37*
%TD*%
%TO.C,C2*%
G36*
G01*
X168676000Y-178469500D02*
X168676000Y-177994500D01*
G75*
G02*
X168913500Y-177757000I237500J0D01*
G01*
X169513500Y-177757000D01*
G75*
G02*
X169751000Y-177994500I0J-237500D01*
G01*
X169751000Y-178469500D01*
G75*
G02*
X169513500Y-178707000I-237500J0D01*
G01*
X168913500Y-178707000D01*
G75*
G02*
X168676000Y-178469500I0J237500D01*
G01*
G37*
G36*
G01*
X170401000Y-178469500D02*
X170401000Y-177994500D01*
G75*
G02*
X170638500Y-177757000I237500J0D01*
G01*
X171238500Y-177757000D01*
G75*
G02*
X171476000Y-177994500I0J-237500D01*
G01*
X171476000Y-178469500D01*
G75*
G02*
X171238500Y-178707000I-237500J0D01*
G01*
X170638500Y-178707000D01*
G75*
G02*
X170401000Y-178469500I0J237500D01*
G01*
G37*
%TD*%
%TO.C,C1*%
G36*
G01*
X163328500Y-178796000D02*
X162853500Y-178796000D01*
G75*
G02*
X162616000Y-178558500I0J237500D01*
G01*
X162616000Y-177958500D01*
G75*
G02*
X162853500Y-177721000I237500J0D01*
G01*
X163328500Y-177721000D01*
G75*
G02*
X163566000Y-177958500I0J-237500D01*
G01*
X163566000Y-178558500D01*
G75*
G02*
X163328500Y-178796000I-237500J0D01*
G01*
G37*
G36*
G01*
X163328500Y-180521000D02*
X162853500Y-180521000D01*
G75*
G02*
X162616000Y-180283500I0J237500D01*
G01*
X162616000Y-179683500D01*
G75*
G02*
X162853500Y-179446000I237500J0D01*
G01*
X163328500Y-179446000D01*
G75*
G02*
X163566000Y-179683500I0J-237500D01*
G01*
X163566000Y-180283500D01*
G75*
G02*
X163328500Y-180521000I-237500J0D01*
G01*
G37*
%TD*%
D11*
%TO.C,KSW60*%
X305685000Y-188265000D03*
X292758000Y-190805000D03*
%TD*%
%TO.C,KSW59*%
X281873000Y-188265000D03*
X268946000Y-190805000D03*
%TD*%
%TO.C,KSW58*%
X210435000Y-188265000D03*
X197508000Y-190805000D03*
%TD*%
%TO.C,KSW57*%
X138997000Y-188265000D03*
X126070000Y-190805000D03*
%TD*%
%TO.C,KSW56*%
X115185000Y-188265000D03*
X102258000Y-190805000D03*
%TD*%
%TO.C,KSW55*%
X353310000Y-169215000D03*
X340383000Y-171755000D03*
%TD*%
%TO.C,KSW54*%
X327116000Y-169215000D03*
X314189000Y-171755000D03*
%TD*%
%TO.C,KSW53*%
X300923000Y-169215000D03*
X287996000Y-171755000D03*
%TD*%
%TO.C,KSW52*%
X281873000Y-169215000D03*
X268946000Y-171755000D03*
%TD*%
%TO.C,KSW51*%
X262823000Y-169215000D03*
X249896000Y-171755000D03*
%TD*%
%TO.C,KSW50*%
X243773000Y-169215000D03*
X230846000Y-171755000D03*
%TD*%
%TO.C,KSW49*%
X224723000Y-169215000D03*
X211796000Y-171755000D03*
%TD*%
%TO.C,KSW48*%
X205673000Y-169215000D03*
X192746000Y-171755000D03*
%TD*%
%TO.C,KSW47*%
X186623000Y-169215000D03*
X173696000Y-171755000D03*
%TD*%
%TO.C,KSW46*%
X167573000Y-169215000D03*
X154646000Y-171755000D03*
%TD*%
%TO.C,KSW45*%
X148523000Y-169215000D03*
X135596000Y-171755000D03*
%TD*%
%TO.C,KSW44*%
X129473000Y-169215000D03*
X116546000Y-171755000D03*
%TD*%
%TO.C,KSW43*%
X98516200Y-169215000D03*
X85589200Y-171755000D03*
%TD*%
%TO.C,KSW42*%
X341404000Y-150165000D03*
X328477000Y-152705000D03*
%TD*%
%TO.C,KSW41*%
X310447000Y-150165000D03*
X297520000Y-152705000D03*
%TD*%
%TO.C,KSW40*%
X278470000Y-152705000D03*
X291397000Y-150165000D03*
%TD*%
%TO.C,KSW39*%
X272347000Y-150165000D03*
X259420000Y-152705000D03*
%TD*%
%TO.C,KSW38*%
X253297000Y-150165000D03*
X240370000Y-152705000D03*
%TD*%
%TO.C,KSW37*%
X234247000Y-150165000D03*
X221320000Y-152705000D03*
%TD*%
%TO.C,KSW36*%
X215197000Y-150165000D03*
X202270000Y-152705000D03*
%TD*%
%TO.C,KSW35*%
X181977000Y-145085000D03*
X194904000Y-142545000D03*
%TD*%
%TO.C,KSW34*%
X177097000Y-150165000D03*
X164170000Y-152705000D03*
%TD*%
%TO.C,KSW33*%
X158047000Y-150165000D03*
X145120000Y-152705000D03*
%TD*%
%TO.C,KSW32*%
X138997000Y-150165000D03*
X126070000Y-152705000D03*
%TD*%
%TO.C,KSW31*%
X119947000Y-150165000D03*
X107020000Y-152705000D03*
%TD*%
%TO.C,KSW30*%
X93753800Y-150165000D03*
X80826800Y-152705000D03*
%TD*%
%TO.C,KSW29*%
X348547000Y-131115000D03*
X335620000Y-133655000D03*
%TD*%
%TO.C,KSW28*%
X324735000Y-131115000D03*
X311808000Y-133655000D03*
%TD*%
%TO.C,KSW27*%
X305685000Y-131115000D03*
X292758000Y-133655000D03*
%TD*%
%TO.C,KSW26*%
X286635000Y-131115000D03*
X273708000Y-133655000D03*
%TD*%
%TO.C,KSW25*%
X267585000Y-131115000D03*
X254658000Y-133655000D03*
%TD*%
%TO.C,KSW24*%
X248535000Y-131115000D03*
X235608000Y-133655000D03*
%TD*%
%TO.C,KSW23*%
X229485000Y-131115000D03*
X216558000Y-133655000D03*
%TD*%
%TO.C,KSW22*%
X210435000Y-131115000D03*
X197508000Y-133655000D03*
%TD*%
%TO.C,KSW21*%
X191385000Y-131115000D03*
X178458000Y-133655000D03*
%TD*%
%TO.C,KSW20*%
X172335000Y-131115000D03*
X159408000Y-133655000D03*
%TD*%
%TO.C,KSW19*%
X153285000Y-131115000D03*
X140358000Y-133655000D03*
%TD*%
%TO.C,KSW18*%
X134235000Y-131115000D03*
X121308000Y-133655000D03*
%TD*%
%TO.C,KSW17*%
X115185000Y-131115000D03*
X102258000Y-133655000D03*
%TD*%
%TO.C,KSW16*%
X91372500Y-131115000D03*
X78445500Y-133655000D03*
%TD*%
%TO.C,KSW15*%
X353310000Y-112065000D03*
X340383000Y-114605000D03*
%TD*%
%TO.C,KSW14*%
X334260000Y-112065000D03*
X321333000Y-114605000D03*
%TD*%
%TO.C,KSW13*%
X315210000Y-112065000D03*
X302283000Y-114605000D03*
%TD*%
%TO.C,KSW12*%
X296160000Y-112065000D03*
X283233000Y-114605000D03*
%TD*%
%TO.C,KSW11*%
X277110000Y-112065000D03*
X264183000Y-114605000D03*
%TD*%
%TO.C,KSW10*%
X258060000Y-112065000D03*
X245133000Y-114605000D03*
%TD*%
%TO.C,KSW9*%
X239010000Y-112065000D03*
X226083000Y-114605000D03*
%TD*%
%TO.C,KSW8*%
X219960000Y-112065000D03*
X207033000Y-114605000D03*
%TD*%
%TO.C,KSW7*%
X200910000Y-112065000D03*
X187983000Y-114605000D03*
%TD*%
%TO.C,KSW6*%
X181860000Y-112065000D03*
X168933000Y-114605000D03*
%TD*%
%TO.C,KSW5*%
X162810000Y-112065000D03*
X149883000Y-114605000D03*
%TD*%
%TO.C,KSW4*%
X143760000Y-112065000D03*
X130833000Y-114605000D03*
%TD*%
%TO.C,KSW3*%
X124710000Y-112065000D03*
X111783000Y-114605000D03*
%TD*%
%TO.C,KSW2*%
X105660000Y-112065000D03*
X92733000Y-114605000D03*
%TD*%
%TO.C,KSW1*%
X86610000Y-112065000D03*
X73683000Y-114605000D03*
%TD*%
D12*
%TO.C,U1*%
G36*
X176539042Y-192800720D02*
G01*
X176150134Y-192411812D01*
X177210794Y-191351152D01*
X177599702Y-191740060D01*
X176539042Y-192800720D01*
G37*
G36*
X175973357Y-192235034D02*
G01*
X175584449Y-191846126D01*
X176645109Y-190785466D01*
X177034017Y-191174374D01*
X175973357Y-192235034D01*
G37*
G36*
X175407672Y-191669349D02*
G01*
X175018764Y-191280441D01*
X176079424Y-190219781D01*
X176468332Y-190608689D01*
X175407672Y-191669349D01*
G37*
G36*
X174841986Y-191103664D02*
G01*
X174453078Y-190714756D01*
X175513738Y-189654096D01*
X175902646Y-190043004D01*
X174841986Y-191103664D01*
G37*
G36*
X174276301Y-190537978D02*
G01*
X173887393Y-190149070D01*
X174948053Y-189088410D01*
X175336961Y-189477318D01*
X174276301Y-190537978D01*
G37*
G36*
X173710615Y-189972293D02*
G01*
X173321707Y-189583385D01*
X174382367Y-188522725D01*
X174771275Y-188911633D01*
X173710615Y-189972293D01*
G37*
G36*
X173144930Y-189406607D02*
G01*
X172756022Y-189017699D01*
X173816682Y-187957039D01*
X174205590Y-188345947D01*
X173144930Y-189406607D01*
G37*
G36*
X172579244Y-188840922D02*
G01*
X172190336Y-188452014D01*
X173250996Y-187391354D01*
X173639904Y-187780262D01*
X172579244Y-188840922D01*
G37*
G36*
X172013559Y-188275236D02*
G01*
X171624651Y-187886328D01*
X172685311Y-186825668D01*
X173074219Y-187214576D01*
X172013559Y-188275236D01*
G37*
G36*
X171447874Y-187709551D02*
G01*
X171058966Y-187320643D01*
X172119626Y-186259983D01*
X172508534Y-186648891D01*
X171447874Y-187709551D01*
G37*
G36*
X170882188Y-187143866D02*
G01*
X170493280Y-186754958D01*
X171553940Y-185694298D01*
X171942848Y-186083206D01*
X170882188Y-187143866D01*
G37*
G36*
X170493280Y-183679042D02*
G01*
X170882188Y-183290134D01*
X171942848Y-184350794D01*
X171553940Y-184739702D01*
X170493280Y-183679042D01*
G37*
G36*
X171058966Y-183113357D02*
G01*
X171447874Y-182724449D01*
X172508534Y-183785109D01*
X172119626Y-184174017D01*
X171058966Y-183113357D01*
G37*
G36*
X171624651Y-182547672D02*
G01*
X172013559Y-182158764D01*
X173074219Y-183219424D01*
X172685311Y-183608332D01*
X171624651Y-182547672D01*
G37*
G36*
X172190336Y-181981986D02*
G01*
X172579244Y-181593078D01*
X173639904Y-182653738D01*
X173250996Y-183042646D01*
X172190336Y-181981986D01*
G37*
G36*
X172756022Y-181416301D02*
G01*
X173144930Y-181027393D01*
X174205590Y-182088053D01*
X173816682Y-182476961D01*
X172756022Y-181416301D01*
G37*
G36*
X173321707Y-180850615D02*
G01*
X173710615Y-180461707D01*
X174771275Y-181522367D01*
X174382367Y-181911275D01*
X173321707Y-180850615D01*
G37*
G36*
X173887393Y-180284930D02*
G01*
X174276301Y-179896022D01*
X175336961Y-180956682D01*
X174948053Y-181345590D01*
X173887393Y-180284930D01*
G37*
G36*
X174453078Y-179719244D02*
G01*
X174841986Y-179330336D01*
X175902646Y-180390996D01*
X175513738Y-180779904D01*
X174453078Y-179719244D01*
G37*
G36*
X175018764Y-179153559D02*
G01*
X175407672Y-178764651D01*
X176468332Y-179825311D01*
X176079424Y-180214219D01*
X175018764Y-179153559D01*
G37*
G36*
X175584449Y-178587874D02*
G01*
X175973357Y-178198966D01*
X177034017Y-179259626D01*
X176645109Y-179648534D01*
X175584449Y-178587874D01*
G37*
G36*
X176150134Y-178022188D02*
G01*
X176539042Y-177633280D01*
X177599702Y-178693940D01*
X177210794Y-179082848D01*
X176150134Y-178022188D01*
G37*
G36*
X178943206Y-179082848D02*
G01*
X178554298Y-178693940D01*
X179614958Y-177633280D01*
X180003866Y-178022188D01*
X178943206Y-179082848D01*
G37*
G36*
X179508891Y-179648534D02*
G01*
X179119983Y-179259626D01*
X180180643Y-178198966D01*
X180569551Y-178587874D01*
X179508891Y-179648534D01*
G37*
G36*
X180074576Y-180214219D02*
G01*
X179685668Y-179825311D01*
X180746328Y-178764651D01*
X181135236Y-179153559D01*
X180074576Y-180214219D01*
G37*
G36*
X180640262Y-180779904D02*
G01*
X180251354Y-180390996D01*
X181312014Y-179330336D01*
X181700922Y-179719244D01*
X180640262Y-180779904D01*
G37*
G36*
X181205947Y-181345590D02*
G01*
X180817039Y-180956682D01*
X181877699Y-179896022D01*
X182266607Y-180284930D01*
X181205947Y-181345590D01*
G37*
G36*
X181771633Y-181911275D02*
G01*
X181382725Y-181522367D01*
X182443385Y-180461707D01*
X182832293Y-180850615D01*
X181771633Y-181911275D01*
G37*
G36*
X182337318Y-182476961D02*
G01*
X181948410Y-182088053D01*
X183009070Y-181027393D01*
X183397978Y-181416301D01*
X182337318Y-182476961D01*
G37*
G36*
X182903004Y-183042646D02*
G01*
X182514096Y-182653738D01*
X183574756Y-181593078D01*
X183963664Y-181981986D01*
X182903004Y-183042646D01*
G37*
G36*
X183468689Y-183608332D02*
G01*
X183079781Y-183219424D01*
X184140441Y-182158764D01*
X184529349Y-182547672D01*
X183468689Y-183608332D01*
G37*
G36*
X184034374Y-184174017D02*
G01*
X183645466Y-183785109D01*
X184706126Y-182724449D01*
X185095034Y-183113357D01*
X184034374Y-184174017D01*
G37*
G36*
X184600060Y-184739702D02*
G01*
X184211152Y-184350794D01*
X185271812Y-183290134D01*
X185660720Y-183679042D01*
X184600060Y-184739702D01*
G37*
G36*
X184211152Y-186083206D02*
G01*
X184600060Y-185694298D01*
X185660720Y-186754958D01*
X185271812Y-187143866D01*
X184211152Y-186083206D01*
G37*
G36*
X183645466Y-186648891D02*
G01*
X184034374Y-186259983D01*
X185095034Y-187320643D01*
X184706126Y-187709551D01*
X183645466Y-186648891D01*
G37*
G36*
X183079781Y-187214576D02*
G01*
X183468689Y-186825668D01*
X184529349Y-187886328D01*
X184140441Y-188275236D01*
X183079781Y-187214576D01*
G37*
G36*
X182514096Y-187780262D02*
G01*
X182903004Y-187391354D01*
X183963664Y-188452014D01*
X183574756Y-188840922D01*
X182514096Y-187780262D01*
G37*
G36*
X181948410Y-188345947D02*
G01*
X182337318Y-187957039D01*
X183397978Y-189017699D01*
X183009070Y-189406607D01*
X181948410Y-188345947D01*
G37*
G36*
X181382725Y-188911633D02*
G01*
X181771633Y-188522725D01*
X182832293Y-189583385D01*
X182443385Y-189972293D01*
X181382725Y-188911633D01*
G37*
G36*
X180817039Y-189477318D02*
G01*
X181205947Y-189088410D01*
X182266607Y-190149070D01*
X181877699Y-190537978D01*
X180817039Y-189477318D01*
G37*
G36*
X180251354Y-190043004D02*
G01*
X180640262Y-189654096D01*
X181700922Y-190714756D01*
X181312014Y-191103664D01*
X180251354Y-190043004D01*
G37*
G36*
X179685668Y-190608689D02*
G01*
X180074576Y-190219781D01*
X181135236Y-191280441D01*
X180746328Y-191669349D01*
X179685668Y-190608689D01*
G37*
G36*
X179119983Y-191174374D02*
G01*
X179508891Y-190785466D01*
X180569551Y-191846126D01*
X180180643Y-192235034D01*
X179119983Y-191174374D01*
G37*
G36*
X178554298Y-191740060D02*
G01*
X178943206Y-191351152D01*
X180003866Y-192411812D01*
X179614958Y-192800720D01*
X178554298Y-191740060D01*
G37*
%TD*%
D13*
%TO.C,RSW1*%
X97264800Y-144565000D03*
X101764800Y-144565000D03*
X101764800Y-152515000D03*
X97264800Y-152515000D03*
%TD*%
%TO.C,R4*%
G36*
G01*
X86720000Y-184725500D02*
X86720000Y-185200500D01*
G75*
G02*
X86482500Y-185438000I-237500J0D01*
G01*
X85982500Y-185438000D01*
G75*
G02*
X85745000Y-185200500I0J237500D01*
G01*
X85745000Y-184725500D01*
G75*
G02*
X85982500Y-184488000I237500J0D01*
G01*
X86482500Y-184488000D01*
G75*
G02*
X86720000Y-184725500I0J-237500D01*
G01*
G37*
G36*
G01*
X88545000Y-184725500D02*
X88545000Y-185200500D01*
G75*
G02*
X88307500Y-185438000I-237500J0D01*
G01*
X87807500Y-185438000D01*
G75*
G02*
X87570000Y-185200500I0J237500D01*
G01*
X87570000Y-184725500D01*
G75*
G02*
X87807500Y-184488000I237500J0D01*
G01*
X88307500Y-184488000D01*
G75*
G02*
X88545000Y-184725500I0J-237500D01*
G01*
G37*
%TD*%
%TO.C,R3*%
G36*
G01*
X86720000Y-181804500D02*
X86720000Y-182279500D01*
G75*
G02*
X86482500Y-182517000I-237500J0D01*
G01*
X85982500Y-182517000D01*
G75*
G02*
X85745000Y-182279500I0J237500D01*
G01*
X85745000Y-181804500D01*
G75*
G02*
X85982500Y-181567000I237500J0D01*
G01*
X86482500Y-181567000D01*
G75*
G02*
X86720000Y-181804500I0J-237500D01*
G01*
G37*
G36*
G01*
X88545000Y-181804500D02*
X88545000Y-182279500D01*
G75*
G02*
X88307500Y-182517000I-237500J0D01*
G01*
X87807500Y-182517000D01*
G75*
G02*
X87570000Y-182279500I0J237500D01*
G01*
X87570000Y-181804500D01*
G75*
G02*
X87807500Y-181567000I237500J0D01*
G01*
X88307500Y-181567000D01*
G75*
G02*
X88545000Y-181804500I0J-237500D01*
G01*
G37*
%TD*%
%TO.C,R1*%
G36*
G01*
X166310000Y-188502500D02*
X166310000Y-188027500D01*
G75*
G02*
X166547500Y-187790000I237500J0D01*
G01*
X167047500Y-187790000D01*
G75*
G02*
X167285000Y-188027500I0J-237500D01*
G01*
X167285000Y-188502500D01*
G75*
G02*
X167047500Y-188740000I-237500J0D01*
G01*
X166547500Y-188740000D01*
G75*
G02*
X166310000Y-188502500I0J237500D01*
G01*
G37*
G36*
G01*
X164485000Y-188502500D02*
X164485000Y-188027500D01*
G75*
G02*
X164722500Y-187790000I237500J0D01*
G01*
X165222500Y-187790000D01*
G75*
G02*
X165460000Y-188027500I0J-237500D01*
G01*
X165460000Y-188502500D01*
G75*
G02*
X165222500Y-188740000I-237500J0D01*
G01*
X164722500Y-188740000D01*
G75*
G02*
X164485000Y-188502500I0J237500D01*
G01*
G37*
%TD*%
D14*
%TO.C,J1*%
X90350000Y-106352000D03*
X89700000Y-106352000D03*
X89050000Y-106352000D03*
X88400000Y-106352000D03*
X87750000Y-106352000D03*
D15*
X86700000Y-108127000D03*
X91400000Y-108127000D03*
D16*
X83850000Y-101727000D03*
X94250000Y-101727000D03*
D12*
G36*
X84650975Y-104822096D02*
G01*
X84651913Y-104822381D01*
X84652778Y-104822843D01*
X84653536Y-104823464D01*
X84654157Y-104824222D01*
X84654619Y-104825087D01*
X84654904Y-104826025D01*
X84655000Y-104827000D01*
X84655000Y-105822000D01*
X85600000Y-105822000D01*
X85600975Y-105822096D01*
X85601913Y-105822381D01*
X85602778Y-105822843D01*
X85603536Y-105823464D01*
X85604157Y-105824222D01*
X85604619Y-105825087D01*
X85604904Y-105826025D01*
X85605000Y-105827000D01*
X85605000Y-106927000D01*
X85604904Y-106927975D01*
X85604619Y-106928913D01*
X85604157Y-106929778D01*
X85603536Y-106930536D01*
X85303536Y-107230536D01*
X85302778Y-107231157D01*
X85301913Y-107231619D01*
X85300975Y-107231904D01*
X85300000Y-107232000D01*
X83050000Y-107232000D01*
X83049025Y-107231904D01*
X83048087Y-107231619D01*
X83047222Y-107231157D01*
X83046464Y-107230536D01*
X83045843Y-107229778D01*
X83045381Y-107228913D01*
X83045096Y-107227975D01*
X83045000Y-107227000D01*
X83045000Y-104827000D01*
X83045096Y-104826025D01*
X83045381Y-104825087D01*
X83045843Y-104824222D01*
X83046464Y-104823464D01*
X83047222Y-104822843D01*
X83048087Y-104822381D01*
X83049025Y-104822096D01*
X83050000Y-104822000D01*
X84650000Y-104822000D01*
X84650975Y-104822096D01*
G37*
G36*
X95050975Y-104822096D02*
G01*
X95051913Y-104822381D01*
X95052778Y-104822843D01*
X95053536Y-104823464D01*
X95054157Y-104824222D01*
X95054619Y-104825087D01*
X95054904Y-104826025D01*
X95055000Y-104827000D01*
X95055000Y-107227000D01*
X95054904Y-107227975D01*
X95054619Y-107228913D01*
X95054157Y-107229778D01*
X95053536Y-107230536D01*
X95052778Y-107231157D01*
X95051913Y-107231619D01*
X95050975Y-107231904D01*
X95050000Y-107232000D01*
X92800000Y-107232000D01*
X92799025Y-107231904D01*
X92798087Y-107231619D01*
X92797222Y-107231157D01*
X92796464Y-107230536D01*
X92496464Y-106930536D01*
X92495843Y-106929778D01*
X92495381Y-106928913D01*
X92495096Y-106927975D01*
X92495000Y-106927000D01*
X92495000Y-105827000D01*
X92495096Y-105826025D01*
X92495381Y-105825087D01*
X92495843Y-105824222D01*
X92496464Y-105823464D01*
X92497222Y-105822843D01*
X92498087Y-105822381D01*
X92499025Y-105822096D01*
X92500000Y-105822000D01*
X93445000Y-105822000D01*
X93445000Y-104827000D01*
X93445096Y-104826025D01*
X93445381Y-104825087D01*
X93445843Y-104824222D01*
X93446464Y-104823464D01*
X93447222Y-104822843D01*
X93448087Y-104822381D01*
X93449025Y-104822096D01*
X93450000Y-104822000D01*
X95050000Y-104822000D01*
X95050975Y-104822096D01*
G37*
%TD*%
%TO.C,F1*%
G36*
G01*
X83068000Y-187767000D02*
X83068000Y-189017000D01*
G75*
G02*
X82818000Y-189267000I-250000J0D01*
G01*
X81893000Y-189267000D01*
G75*
G02*
X81643000Y-189017000I0J250000D01*
G01*
X81643000Y-187767000D01*
G75*
G02*
X81893000Y-187517000I250000J0D01*
G01*
X82818000Y-187517000D01*
G75*
G02*
X83068000Y-187767000I0J-250000D01*
G01*
G37*
G36*
G01*
X86043000Y-187767000D02*
X86043000Y-189017000D01*
G75*
G02*
X85793000Y-189267000I-250000J0D01*
G01*
X84868000Y-189267000D01*
G75*
G02*
X84618000Y-189017000I0J250000D01*
G01*
X84618000Y-187767000D01*
G75*
G02*
X84868000Y-187517000I250000J0D01*
G01*
X85793000Y-187517000D01*
G75*
G02*
X86043000Y-187767000I0J-250000D01*
G01*
G37*
%TD*%
D17*
%TO.C,D60*%
X292600000Y-182625000D03*
X292600000Y-179325000D03*
%TD*%
%TO.C,D59*%
X268788000Y-182625000D03*
X268788000Y-179325000D03*
%TD*%
%TO.C,D58*%
X197350000Y-182625000D03*
X197350000Y-179325000D03*
%TD*%
%TO.C,D57*%
X125912000Y-182625000D03*
X125912000Y-179325000D03*
%TD*%
%TO.C,D56*%
X102100000Y-182625000D03*
X102100000Y-179325000D03*
%TD*%
%TO.C,D55*%
X340225000Y-163575000D03*
X340225000Y-160275000D03*
%TD*%
%TO.C,D54*%
X314031000Y-163575000D03*
X314031000Y-160275000D03*
%TD*%
%TO.C,D53*%
X287838000Y-163575000D03*
X287838000Y-160275000D03*
%TD*%
%TO.C,D52*%
X268788000Y-163575000D03*
X268788000Y-160275000D03*
%TD*%
%TO.C,D51*%
X249738000Y-163575000D03*
X249738000Y-160275000D03*
%TD*%
%TO.C,D50*%
X230688000Y-163575000D03*
X230688000Y-160275000D03*
%TD*%
%TO.C,D49*%
X211638000Y-163575000D03*
X211638000Y-160275000D03*
%TD*%
%TO.C,D48*%
X192588000Y-163575000D03*
X192588000Y-160275000D03*
%TD*%
%TO.C,D47*%
X173538000Y-163575000D03*
X173538000Y-160275000D03*
%TD*%
%TO.C,D46*%
X154488000Y-163575000D03*
X154488000Y-160275000D03*
%TD*%
%TO.C,D45*%
X135438000Y-163575000D03*
X135438000Y-160275000D03*
%TD*%
%TO.C,D44*%
X116388000Y-163575000D03*
X116388000Y-160275000D03*
%TD*%
%TO.C,D43*%
X85431200Y-163575000D03*
X85431200Y-160275000D03*
%TD*%
%TO.C,D42*%
X328319000Y-144525000D03*
X328319000Y-141225000D03*
%TD*%
%TO.C,D41*%
X297362000Y-144525000D03*
X297362000Y-141225000D03*
%TD*%
%TO.C,D40*%
X278312000Y-144525000D03*
X278312000Y-141225000D03*
%TD*%
%TO.C,D39*%
X259262000Y-144525000D03*
X259262000Y-141225000D03*
%TD*%
%TO.C,D38*%
X240212000Y-144525000D03*
X240212000Y-141225000D03*
%TD*%
%TO.C,D37*%
X221162000Y-144525000D03*
X221162000Y-141225000D03*
%TD*%
%TO.C,D36*%
X202112000Y-144525000D03*
X202112000Y-141225000D03*
%TD*%
%TO.C,D35*%
X195062000Y-154025000D03*
X195062000Y-150725000D03*
%TD*%
%TO.C,D34*%
X164012000Y-144525000D03*
X164012000Y-141225000D03*
%TD*%
%TO.C,D33*%
X144962000Y-144525000D03*
X144962000Y-141225000D03*
%TD*%
%TO.C,D32*%
X125912000Y-144525000D03*
X125912000Y-141225000D03*
%TD*%
%TO.C,D31*%
X106862000Y-144525000D03*
X106862000Y-141225000D03*
%TD*%
%TO.C,D30*%
X80668800Y-144525000D03*
X80668800Y-141225000D03*
%TD*%
%TO.C,D29*%
X335462000Y-125475000D03*
X335462000Y-122175000D03*
%TD*%
%TO.C,D28*%
X311650000Y-125475000D03*
X311650000Y-122175000D03*
%TD*%
%TO.C,D27*%
X292600000Y-125475000D03*
X292600000Y-122175000D03*
%TD*%
%TO.C,D26*%
X273550000Y-125475000D03*
X273550000Y-122175000D03*
%TD*%
%TO.C,D25*%
X254500000Y-125475000D03*
X254500000Y-122175000D03*
%TD*%
%TO.C,D24*%
X235450000Y-125475000D03*
X235450000Y-122175000D03*
%TD*%
%TO.C,D23*%
X216400000Y-125475000D03*
X216400000Y-122175000D03*
%TD*%
%TO.C,D22*%
X197350000Y-125475000D03*
X197350000Y-122175000D03*
%TD*%
%TO.C,D21*%
X178300000Y-125475000D03*
X178300000Y-122175000D03*
%TD*%
%TO.C,D20*%
X159250000Y-125475000D03*
X159250000Y-122175000D03*
%TD*%
%TO.C,D19*%
X140200000Y-125475000D03*
X140200000Y-122175000D03*
%TD*%
%TO.C,D18*%
X121150000Y-125475000D03*
X121150000Y-122175000D03*
%TD*%
%TO.C,D17*%
X102100000Y-125475000D03*
X102100000Y-122175000D03*
%TD*%
%TO.C,D16*%
X78287500Y-125475000D03*
X78287500Y-122175000D03*
%TD*%
%TO.C,D15*%
X340225000Y-106425000D03*
X340225000Y-103125000D03*
%TD*%
%TO.C,D14*%
X321175000Y-106425000D03*
X321175000Y-103125000D03*
%TD*%
%TO.C,D13*%
X302125000Y-106425000D03*
X302125000Y-103125000D03*
%TD*%
%TO.C,D12*%
X283075000Y-106425000D03*
X283075000Y-103125000D03*
%TD*%
%TO.C,D11*%
X264025000Y-106425000D03*
X264025000Y-103125000D03*
%TD*%
%TO.C,D10*%
X244975000Y-106425000D03*
X244975000Y-103125000D03*
%TD*%
%TO.C,D9*%
X225925000Y-106425000D03*
X225925000Y-103125000D03*
%TD*%
%TO.C,D8*%
X206875000Y-106425000D03*
X206875000Y-103125000D03*
%TD*%
%TO.C,D7*%
X187825000Y-106425000D03*
X187825000Y-103125000D03*
%TD*%
%TO.C,D6*%
X168775000Y-106425000D03*
X168775000Y-103125000D03*
%TD*%
%TO.C,D5*%
X149725000Y-106425000D03*
X149725000Y-103125000D03*
%TD*%
%TO.C,D4*%
X130675000Y-106425000D03*
X130675000Y-103125000D03*
%TD*%
%TO.C,D3*%
X111625000Y-106425000D03*
X111625000Y-103125000D03*
%TD*%
%TO.C,D2*%
X104575000Y-106425000D03*
X104575000Y-103125000D03*
%TD*%
%TO.C,D1*%
X73525000Y-106425000D03*
X73525000Y-103125000D03*
%TD*%
D18*
%TO.C,D0*%
X88543000Y-188392000D03*
X91843000Y-188392000D03*
%TD*%
%TO.C,C6*%
G36*
G01*
X185260000Y-192820500D02*
X185260000Y-192345500D01*
G75*
G02*
X185497500Y-192108000I237500J0D01*
G01*
X186097500Y-192108000D01*
G75*
G02*
X186335000Y-192345500I0J-237500D01*
G01*
X186335000Y-192820500D01*
G75*
G02*
X186097500Y-193058000I-237500J0D01*
G01*
X185497500Y-193058000D01*
G75*
G02*
X185260000Y-192820500I0J237500D01*
G01*
G37*
G36*
G01*
X183535000Y-192820500D02*
X183535000Y-192345500D01*
G75*
G02*
X183772500Y-192108000I237500J0D01*
G01*
X184372500Y-192108000D01*
G75*
G02*
X184610000Y-192345500I0J-237500D01*
G01*
X184610000Y-192820500D01*
G75*
G02*
X184372500Y-193058000I-237500J0D01*
G01*
X183772500Y-193058000D01*
G75*
G02*
X183535000Y-192820500I0J237500D01*
G01*
G37*
%TD*%
%TO.C,C5*%
G36*
G01*
X190594000Y-186724500D02*
X190594000Y-186249500D01*
G75*
G02*
X190831500Y-186012000I237500J0D01*
G01*
X191431500Y-186012000D01*
G75*
G02*
X191669000Y-186249500I0J-237500D01*
G01*
X191669000Y-186724500D01*
G75*
G02*
X191431500Y-186962000I-237500J0D01*
G01*
X190831500Y-186962000D01*
G75*
G02*
X190594000Y-186724500I0J237500D01*
G01*
G37*
G36*
G01*
X188869000Y-186724500D02*
X188869000Y-186249500D01*
G75*
G02*
X189106500Y-186012000I237500J0D01*
G01*
X189706500Y-186012000D01*
G75*
G02*
X189944000Y-186249500I0J-237500D01*
G01*
X189944000Y-186724500D01*
G75*
G02*
X189706500Y-186962000I-237500J0D01*
G01*
X189106500Y-186962000D01*
G75*
G02*
X188869000Y-186724500I0J237500D01*
G01*
G37*
%TD*%
%TO.C,C4*%
G36*
G01*
X185260000Y-178342500D02*
X185260000Y-177867500D01*
G75*
G02*
X185497500Y-177630000I237500J0D01*
G01*
X186097500Y-177630000D01*
G75*
G02*
X186335000Y-177867500I0J-237500D01*
G01*
X186335000Y-178342500D01*
G75*
G02*
X186097500Y-178580000I-237500J0D01*
G01*
X185497500Y-178580000D01*
G75*
G02*
X185260000Y-178342500I0J237500D01*
G01*
G37*
G36*
G01*
X183535000Y-178342500D02*
X183535000Y-177867500D01*
G75*
G02*
X183772500Y-177630000I237500J0D01*
G01*
X184372500Y-177630000D01*
G75*
G02*
X184610000Y-177867500I0J-237500D01*
G01*
X184610000Y-178342500D01*
G75*
G02*
X184372500Y-178580000I-237500J0D01*
G01*
X183772500Y-178580000D01*
G75*
G02*
X183535000Y-178342500I0J237500D01*
G01*
G37*
%TD*%
%TO.C,C3*%
G36*
G01*
X165560000Y-184979500D02*
X165560000Y-185454500D01*
G75*
G02*
X165322500Y-185692000I-237500J0D01*
G01*
X164722500Y-185692000D01*
G75*
G02*
X164485000Y-185454500I0J237500D01*
G01*
X164485000Y-184979500D01*
G75*
G02*
X164722500Y-184742000I237500J0D01*
G01*
X165322500Y-184742000D01*
G75*
G02*
X165560000Y-184979500I0J-237500D01*
G01*
G37*
G36*
G01*
X167285000Y-184979500D02*
X167285000Y-185454500D01*
G75*
G02*
X167047500Y-185692000I-237500J0D01*
G01*
X166447500Y-185692000D01*
G75*
G02*
X166210000Y-185454500I0J237500D01*
G01*
X166210000Y-184979500D01*
G75*
G02*
X166447500Y-184742000I237500J0D01*
G01*
X167047500Y-184742000D01*
G75*
G02*
X167285000Y-184979500I0J-237500D01*
G01*
G37*
%TD*%
M02*
