%TF.GenerationSoftware,KiCad,Pcbnew,(5.1.9)-1*%
%TF.CreationDate,2021-04-22T03:29:06+09:00*%
%TF.ProjectId,topplate,746f7070-6c61-4746-952e-6b696361645f,4*%
%TF.SameCoordinates,Original*%
%TF.FileFunction,Legend,Top*%
%TF.FilePolarity,Positive*%
%FSLAX46Y46*%
G04 Gerber Fmt 4.6, Leading zero omitted, Abs format (unit mm)*
G04 Created by KiCad (PCBNEW (5.1.9)-1) date 2021-04-22 03:29:06*
%MOMM*%
%LPD*%
G01*
G04 APERTURE LIST*
%ADD10C,0.150000*%
%ADD11C,0.400000*%
G04 APERTURE END LIST*
D10*
X88976190Y-188452380D02*
X88976190Y-187785714D01*
X88976190Y-187976190D02*
X89023809Y-187880952D01*
X89071428Y-187833333D01*
X89166666Y-187785714D01*
X89261904Y-187785714D01*
X89976190Y-188404761D02*
X89880952Y-188452380D01*
X89690476Y-188452380D01*
X89595238Y-188404761D01*
X89547619Y-188309523D01*
X89547619Y-187928571D01*
X89595238Y-187833333D01*
X89690476Y-187785714D01*
X89880952Y-187785714D01*
X89976190Y-187833333D01*
X90023809Y-187928571D01*
X90023809Y-188023809D01*
X89547619Y-188119047D01*
X90357142Y-187785714D02*
X90595238Y-188452380D01*
X90833333Y-187785714D01*
X91214285Y-188452380D02*
X91214285Y-187785714D01*
X91214285Y-187452380D02*
X91166666Y-187500000D01*
X91214285Y-187547619D01*
X91261904Y-187500000D01*
X91214285Y-187452380D01*
X91214285Y-187547619D01*
X91642857Y-188404761D02*
X91738095Y-188452380D01*
X91928571Y-188452380D01*
X92023809Y-188404761D01*
X92071428Y-188309523D01*
X92071428Y-188261904D01*
X92023809Y-188166666D01*
X91928571Y-188119047D01*
X91785714Y-188119047D01*
X91690476Y-188071428D01*
X91642857Y-187976190D01*
X91642857Y-187928571D01*
X91690476Y-187833333D01*
X91785714Y-187785714D01*
X91928571Y-187785714D01*
X92023809Y-187833333D01*
X92500000Y-188452380D02*
X92500000Y-187785714D01*
X92500000Y-187452380D02*
X92452380Y-187500000D01*
X92500000Y-187547619D01*
X92547619Y-187500000D01*
X92500000Y-187452380D01*
X92500000Y-187547619D01*
X93119047Y-188452380D02*
X93023809Y-188404761D01*
X92976190Y-188357142D01*
X92928571Y-188261904D01*
X92928571Y-187976190D01*
X92976190Y-187880952D01*
X93023809Y-187833333D01*
X93119047Y-187785714D01*
X93261904Y-187785714D01*
X93357142Y-187833333D01*
X93404761Y-187880952D01*
X93452380Y-187976190D01*
X93452380Y-188261904D01*
X93404761Y-188357142D01*
X93357142Y-188404761D01*
X93261904Y-188452380D01*
X93119047Y-188452380D01*
X93880952Y-187785714D02*
X93880952Y-188452380D01*
X93880952Y-187880952D02*
X93928571Y-187833333D01*
X94023809Y-187785714D01*
X94166666Y-187785714D01*
X94261904Y-187833333D01*
X94309523Y-187928571D01*
X94309523Y-188452380D01*
X95976190Y-187785714D02*
X95976190Y-188452380D01*
X95738095Y-187404761D02*
X95500000Y-188119047D01*
X96119047Y-188119047D01*
X75576190Y-190452380D02*
X75576190Y-189452380D01*
X75576190Y-190404761D02*
X75480952Y-190452380D01*
X75290476Y-190452380D01*
X75195238Y-190404761D01*
X75147619Y-190357142D01*
X75100000Y-190261904D01*
X75100000Y-189976190D01*
X75147619Y-189880952D01*
X75195238Y-189833333D01*
X75290476Y-189785714D01*
X75480952Y-189785714D01*
X75576190Y-189833333D01*
X76433333Y-190404761D02*
X76338095Y-190452380D01*
X76147619Y-190452380D01*
X76052380Y-190404761D01*
X76004761Y-190309523D01*
X76004761Y-189928571D01*
X76052380Y-189833333D01*
X76147619Y-189785714D01*
X76338095Y-189785714D01*
X76433333Y-189833333D01*
X76480952Y-189928571D01*
X76480952Y-190023809D01*
X76004761Y-190119047D01*
X76861904Y-190404761D02*
X76957142Y-190452380D01*
X77147619Y-190452380D01*
X77242857Y-190404761D01*
X77290476Y-190309523D01*
X77290476Y-190261904D01*
X77242857Y-190166666D01*
X77147619Y-190119047D01*
X77004761Y-190119047D01*
X76909523Y-190071428D01*
X76861904Y-189976190D01*
X76861904Y-189928571D01*
X76909523Y-189833333D01*
X77004761Y-189785714D01*
X77147619Y-189785714D01*
X77242857Y-189833333D01*
X77719047Y-190452380D02*
X77719047Y-189785714D01*
X77719047Y-189452380D02*
X77671428Y-189500000D01*
X77719047Y-189547619D01*
X77766666Y-189500000D01*
X77719047Y-189452380D01*
X77719047Y-189547619D01*
X78623809Y-189785714D02*
X78623809Y-190595238D01*
X78576190Y-190690476D01*
X78528571Y-190738095D01*
X78433333Y-190785714D01*
X78290476Y-190785714D01*
X78195238Y-190738095D01*
X78623809Y-190404761D02*
X78528571Y-190452380D01*
X78338095Y-190452380D01*
X78242857Y-190404761D01*
X78195238Y-190357142D01*
X78147619Y-190261904D01*
X78147619Y-189976190D01*
X78195238Y-189880952D01*
X78242857Y-189833333D01*
X78338095Y-189785714D01*
X78528571Y-189785714D01*
X78623809Y-189833333D01*
X79100000Y-189785714D02*
X79100000Y-190452380D01*
X79100000Y-189880952D02*
X79147619Y-189833333D01*
X79242857Y-189785714D01*
X79385714Y-189785714D01*
X79480952Y-189833333D01*
X79528571Y-189928571D01*
X79528571Y-190452380D01*
X80385714Y-190404761D02*
X80290476Y-190452380D01*
X80100000Y-190452380D01*
X80004761Y-190404761D01*
X79957142Y-190309523D01*
X79957142Y-189928571D01*
X80004761Y-189833333D01*
X80100000Y-189785714D01*
X80290476Y-189785714D01*
X80385714Y-189833333D01*
X80433333Y-189928571D01*
X80433333Y-190023809D01*
X79957142Y-190119047D01*
X81290476Y-190452380D02*
X81290476Y-189452380D01*
X81290476Y-190404761D02*
X81195238Y-190452380D01*
X81004761Y-190452380D01*
X80909523Y-190404761D01*
X80861904Y-190357142D01*
X80814285Y-190261904D01*
X80814285Y-189976190D01*
X80861904Y-189880952D01*
X80909523Y-189833333D01*
X81004761Y-189785714D01*
X81195238Y-189785714D01*
X81290476Y-189833333D01*
X82528571Y-190452380D02*
X82528571Y-189452380D01*
X82528571Y-189833333D02*
X82623809Y-189785714D01*
X82814285Y-189785714D01*
X82909523Y-189833333D01*
X82957142Y-189880952D01*
X83004761Y-189976190D01*
X83004761Y-190261904D01*
X82957142Y-190357142D01*
X82909523Y-190404761D01*
X82814285Y-190452380D01*
X82623809Y-190452380D01*
X82528571Y-190404761D01*
X83338095Y-189785714D02*
X83576190Y-190452380D01*
X83814285Y-189785714D02*
X83576190Y-190452380D01*
X83480952Y-190690476D01*
X83433333Y-190738095D01*
X83338095Y-190785714D01*
X84957142Y-190452380D02*
X84957142Y-189452380D01*
X85528571Y-190452380D02*
X85100000Y-189880952D01*
X85528571Y-189452380D02*
X84957142Y-190023809D01*
X86100000Y-190452380D02*
X86004761Y-190404761D01*
X85957142Y-190357142D01*
X85909523Y-190261904D01*
X85909523Y-189976190D01*
X85957142Y-189880952D01*
X86004761Y-189833333D01*
X86100000Y-189785714D01*
X86242857Y-189785714D01*
X86338095Y-189833333D01*
X86385714Y-189880952D01*
X86433333Y-189976190D01*
X86433333Y-190261904D01*
X86385714Y-190357142D01*
X86338095Y-190404761D01*
X86242857Y-190452380D01*
X86100000Y-190452380D01*
X87433333Y-190452380D02*
X87100000Y-189976190D01*
X86861904Y-190452380D02*
X86861904Y-189452380D01*
X87242857Y-189452380D01*
X87338095Y-189500000D01*
X87385714Y-189547619D01*
X87433333Y-189642857D01*
X87433333Y-189785714D01*
X87385714Y-189880952D01*
X87338095Y-189928571D01*
X87242857Y-189976190D01*
X86861904Y-189976190D01*
X88004761Y-190452380D02*
X87909523Y-190404761D01*
X87861904Y-190357142D01*
X87814285Y-190261904D01*
X87814285Y-189976190D01*
X87861904Y-189880952D01*
X87909523Y-189833333D01*
X88004761Y-189785714D01*
X88147619Y-189785714D01*
X88242857Y-189833333D01*
X88290476Y-189880952D01*
X88338095Y-189976190D01*
X88338095Y-190261904D01*
X88290476Y-190357142D01*
X88242857Y-190404761D01*
X88147619Y-190452380D01*
X88004761Y-190452380D01*
X88766666Y-190452380D02*
X88766666Y-189452380D01*
X89338095Y-190452380D01*
X89338095Y-189452380D01*
X90528571Y-189404761D02*
X89671428Y-190690476D01*
X90861904Y-190452380D02*
X90861904Y-189452380D01*
X91433333Y-190452380D02*
X91004761Y-189880952D01*
X91433333Y-189452380D02*
X90861904Y-190023809D01*
X92290476Y-190452380D02*
X92290476Y-189928571D01*
X92242857Y-189833333D01*
X92147619Y-189785714D01*
X91957142Y-189785714D01*
X91861904Y-189833333D01*
X92290476Y-190404761D02*
X92195238Y-190452380D01*
X91957142Y-190452380D01*
X91861904Y-190404761D01*
X91814285Y-190309523D01*
X91814285Y-190214285D01*
X91861904Y-190119047D01*
X91957142Y-190071428D01*
X92195238Y-190071428D01*
X92290476Y-190023809D01*
X92909523Y-190452380D02*
X92814285Y-190404761D01*
X92766666Y-190357142D01*
X92719047Y-190261904D01*
X92719047Y-189976190D01*
X92766666Y-189880952D01*
X92814285Y-189833333D01*
X92909523Y-189785714D01*
X93052380Y-189785714D01*
X93147619Y-189833333D01*
X93195238Y-189880952D01*
X93242857Y-189976190D01*
X93242857Y-190261904D01*
X93195238Y-190357142D01*
X93147619Y-190404761D01*
X93052380Y-190452380D01*
X92909523Y-190452380D01*
X93671428Y-190452380D02*
X93671428Y-189785714D01*
X93671428Y-189976190D02*
X93719047Y-189880952D01*
X93766666Y-189833333D01*
X93861904Y-189785714D01*
X93957142Y-189785714D01*
X94290476Y-190452380D02*
X94290476Y-189785714D01*
X94290476Y-189452380D02*
X94242857Y-189500000D01*
X94290476Y-189547619D01*
X94338095Y-189500000D01*
X94290476Y-189452380D01*
X94290476Y-189547619D01*
X94957142Y-189976190D02*
X94957142Y-190452380D01*
X94623809Y-189452380D02*
X94957142Y-189976190D01*
X95290476Y-189452380D01*
X96052380Y-190452380D02*
X96052380Y-189928571D01*
X96004761Y-189833333D01*
X95909523Y-189785714D01*
X95719047Y-189785714D01*
X95623809Y-189833333D01*
X96052380Y-190404761D02*
X95957142Y-190452380D01*
X95719047Y-190452380D01*
X95623809Y-190404761D01*
X95576190Y-190309523D01*
X95576190Y-190214285D01*
X95623809Y-190119047D01*
X95719047Y-190071428D01*
X95957142Y-190071428D01*
X96052380Y-190023809D01*
D11*
X76535714Y-184916666D02*
X76535714Y-186583333D01*
X75702380Y-183083333D02*
X76535714Y-184916666D01*
X77369047Y-183083333D01*
X78202380Y-183083333D02*
X78202380Y-185916666D01*
X78321428Y-186250000D01*
X78440476Y-186416666D01*
X78678571Y-186583333D01*
X79154761Y-186583333D01*
X79392857Y-186416666D01*
X79511904Y-186250000D01*
X79630952Y-185916666D01*
X79630952Y-183083333D01*
X80821428Y-186583333D02*
X80821428Y-183083333D01*
X82488095Y-183083333D02*
X82964285Y-183083333D01*
X83202380Y-183250000D01*
X83440476Y-183583333D01*
X83559523Y-184250000D01*
X83559523Y-185416666D01*
X83440476Y-186083333D01*
X83202380Y-186416666D01*
X82964285Y-186583333D01*
X82488095Y-186583333D01*
X82250000Y-186416666D01*
X82011904Y-186083333D01*
X81892857Y-185416666D01*
X81892857Y-184250000D01*
X82011904Y-183583333D01*
X82250000Y-183250000D01*
X82488095Y-183083333D01*
X84630952Y-186583333D02*
X84630952Y-183083333D01*
X85583333Y-183083333D01*
X85821428Y-183250000D01*
X85940476Y-183416666D01*
X86059523Y-183750000D01*
X86059523Y-184250000D01*
X85940476Y-184583333D01*
X85821428Y-184750000D01*
X85583333Y-184916666D01*
X84630952Y-184916666D01*
X88202380Y-183083333D02*
X87726190Y-183083333D01*
X87488095Y-183250000D01*
X87369047Y-183416666D01*
X87130952Y-183916666D01*
X87011904Y-184583333D01*
X87011904Y-185916666D01*
X87130952Y-186250000D01*
X87250000Y-186416666D01*
X87488095Y-186583333D01*
X87964285Y-186583333D01*
X88202380Y-186416666D01*
X88321428Y-186250000D01*
X88440476Y-185916666D01*
X88440476Y-185083333D01*
X88321428Y-184750000D01*
X88202380Y-184583333D01*
X87964285Y-184416666D01*
X87488095Y-184416666D01*
X87250000Y-184583333D01*
X87130952Y-184750000D01*
X87011904Y-185083333D01*
X89988095Y-183083333D02*
X90226190Y-183083333D01*
X90464285Y-183250000D01*
X90583333Y-183416666D01*
X90702380Y-183750000D01*
X90821428Y-184416666D01*
X90821428Y-185250000D01*
X90702380Y-185916666D01*
X90583333Y-186250000D01*
X90464285Y-186416666D01*
X90226190Y-186583333D01*
X89988095Y-186583333D01*
X89750000Y-186416666D01*
X89630952Y-186250000D01*
X89511904Y-185916666D01*
X89392857Y-185250000D01*
X89392857Y-184416666D01*
X89511904Y-183750000D01*
X89630952Y-183416666D01*
X89750000Y-183250000D01*
X89988095Y-183083333D01*
X91892857Y-186583333D02*
X91892857Y-183083333D01*
X91892857Y-184750000D02*
X93321428Y-184750000D01*
X93321428Y-186583333D02*
X93321428Y-183083333D01*
X94511904Y-186583333D02*
X94511904Y-183083333D01*
X94511904Y-184750000D02*
X95940476Y-184750000D01*
X95940476Y-186583333D02*
X95940476Y-183083333D01*
M02*
