%TF.GenerationSoftware,KiCad,Pcbnew,(5.1.9)-1*%
%TF.CreationDate,2021-05-21T21:10:52+09:00*%
%TF.ProjectId,topplate,746f7070-6c61-4746-952e-6b696361645f,1*%
%TF.SameCoordinates,Original*%
%TF.FileFunction,Profile,NP*%
%FSLAX46Y46*%
G04 Gerber Fmt 4.6, Leading zero omitted, Abs format (unit mm)*
G04 Created by KiCad (PCBNEW (5.1.9)-1) date 2021-05-21 21:10:52*
%MOMM*%
%LPD*%
G01*
G04 APERTURE LIST*
%TA.AperFunction,Profile*%
%ADD10C,0.050000*%
%TD*%
%TA.AperFunction,Profile*%
%ADD11C,0.120000*%
%TD*%
G04 APERTURE END LIST*
D10*
X111550000Y-48950000D02*
G75*
G03*
X111550000Y-48950000I-3000000J0D01*
G01*
X93000000Y-159000000D02*
G75*
G02*
X91000000Y-157000000I0J2000000D01*
G01*
X91000000Y-43000000D02*
G75*
G02*
X93000000Y-41000000I2000000J0D01*
G01*
X207000000Y-41000000D02*
G75*
G02*
X209000000Y-43000000I0J-2000000D01*
G01*
X209000000Y-157000000D02*
G75*
G02*
X207000000Y-159000000I-2000000J0D01*
G01*
X97600000Y-153500000D02*
G75*
G03*
X97600000Y-153500000I-1100000J0D01*
G01*
X204600000Y-153500000D02*
G75*
G03*
X204600000Y-153500000I-1100000J0D01*
G01*
X204600000Y-46500000D02*
G75*
G03*
X204600000Y-46500000I-1100000J0D01*
G01*
X97600000Y-46500000D02*
G75*
G03*
X97600000Y-46500000I-1100000J0D01*
G01*
X91000000Y-157000000D02*
X91000000Y-43000000D01*
X207000000Y-159000000D02*
X93000000Y-159000000D01*
X209000000Y-43000000D02*
X209000000Y-157000000D01*
X93000000Y-41000000D02*
X207000000Y-41000000D01*
D11*
%TO.C,SW31*%
X181100000Y-140925000D02*
X181100000Y-154325000D01*
X181400000Y-154625000D02*
X194800000Y-154625000D01*
X195100000Y-154325000D02*
X195100000Y-140925000D01*
X194800000Y-140625000D02*
X181400000Y-140625000D01*
X195100000Y-154325000D02*
G75*
G02*
X194800000Y-154625000I-300000J0D01*
G01*
X181400000Y-154625000D02*
G75*
G02*
X181100000Y-154325000I0J300000D01*
G01*
X181100000Y-140925000D02*
G75*
G02*
X181400000Y-140625000I300000J0D01*
G01*
X194800000Y-140625000D02*
G75*
G02*
X195100000Y-140925000I0J-300000D01*
G01*
%TO.C,SW30*%
X162050000Y-140925000D02*
X162050000Y-154325000D01*
X162350000Y-154625000D02*
X175750000Y-154625000D01*
X176050000Y-154325000D02*
X176050000Y-140925000D01*
X175750000Y-140625000D02*
X162350000Y-140625000D01*
X176050000Y-154325000D02*
G75*
G02*
X175750000Y-154625000I-300000J0D01*
G01*
X162350000Y-154625000D02*
G75*
G02*
X162050000Y-154325000I0J300000D01*
G01*
X162050000Y-140925000D02*
G75*
G02*
X162350000Y-140625000I300000J0D01*
G01*
X175750000Y-140625000D02*
G75*
G02*
X176050000Y-140925000I0J-300000D01*
G01*
%TO.C,SW29*%
X143000000Y-140925000D02*
X143000000Y-154325000D01*
X143300000Y-154625000D02*
X156700000Y-154625000D01*
X157000000Y-154325000D02*
X157000000Y-140925000D01*
X156700000Y-140625000D02*
X143300000Y-140625000D01*
X157000000Y-154325000D02*
G75*
G02*
X156700000Y-154625000I-300000J0D01*
G01*
X143300000Y-154625000D02*
G75*
G02*
X143000000Y-154325000I0J300000D01*
G01*
X143000000Y-140925000D02*
G75*
G02*
X143300000Y-140625000I300000J0D01*
G01*
X156700000Y-140625000D02*
G75*
G02*
X157000000Y-140925000I0J-300000D01*
G01*
%TO.C,SW28*%
X123950000Y-140925000D02*
X123950000Y-154325000D01*
X124250000Y-154625000D02*
X137650000Y-154625000D01*
X137950000Y-154325000D02*
X137950000Y-140925000D01*
X137650000Y-140625000D02*
X124250000Y-140625000D01*
X137950000Y-154325000D02*
G75*
G02*
X137650000Y-154625000I-300000J0D01*
G01*
X124250000Y-154625000D02*
G75*
G02*
X123950000Y-154325000I0J300000D01*
G01*
X123950000Y-140925000D02*
G75*
G02*
X124250000Y-140625000I300000J0D01*
G01*
X137650000Y-140625000D02*
G75*
G02*
X137950000Y-140925000I0J-300000D01*
G01*
%TO.C,SW27*%
X104900000Y-140925000D02*
X104900000Y-154325000D01*
X105200000Y-154625000D02*
X118600000Y-154625000D01*
X118900000Y-154325000D02*
X118900000Y-140925000D01*
X118600000Y-140625000D02*
X105200000Y-140625000D01*
X118900000Y-154325000D02*
G75*
G02*
X118600000Y-154625000I-300000J0D01*
G01*
X105200000Y-154625000D02*
G75*
G02*
X104900000Y-154325000I0J300000D01*
G01*
X104900000Y-140925000D02*
G75*
G02*
X105200000Y-140625000I300000J0D01*
G01*
X118600000Y-140625000D02*
G75*
G02*
X118900000Y-140925000I0J-300000D01*
G01*
%TO.C,SW26*%
X204625000Y-135275000D02*
X204625000Y-121875000D01*
X204325000Y-121575000D02*
X190925000Y-121575000D01*
X190625000Y-121875000D02*
X190625000Y-135275000D01*
X190925000Y-135575000D02*
X204325000Y-135575000D01*
X190625000Y-121875000D02*
G75*
G02*
X190925000Y-121575000I300000J0D01*
G01*
X204325000Y-121575000D02*
G75*
G02*
X204625000Y-121875000I0J-300000D01*
G01*
X204625000Y-135275000D02*
G75*
G02*
X204325000Y-135575000I-300000J0D01*
G01*
X190925000Y-135575000D02*
G75*
G02*
X190625000Y-135275000I0J300000D01*
G01*
%TO.C,SW25*%
X185575000Y-135275000D02*
X185575000Y-121875000D01*
X185275000Y-121575000D02*
X171875000Y-121575000D01*
X171575000Y-121875000D02*
X171575000Y-135275000D01*
X171875000Y-135575000D02*
X185275000Y-135575000D01*
X171575000Y-121875000D02*
G75*
G02*
X171875000Y-121575000I300000J0D01*
G01*
X185275000Y-121575000D02*
G75*
G02*
X185575000Y-121875000I0J-300000D01*
G01*
X185575000Y-135275000D02*
G75*
G02*
X185275000Y-135575000I-300000J0D01*
G01*
X171875000Y-135575000D02*
G75*
G02*
X171575000Y-135275000I0J300000D01*
G01*
%TO.C,SW24*%
X166525000Y-135275000D02*
X166525000Y-121875000D01*
X166225000Y-121575000D02*
X152825000Y-121575000D01*
X152525000Y-121875000D02*
X152525000Y-135275000D01*
X152825000Y-135575000D02*
X166225000Y-135575000D01*
X152525000Y-121875000D02*
G75*
G02*
X152825000Y-121575000I300000J0D01*
G01*
X166225000Y-121575000D02*
G75*
G02*
X166525000Y-121875000I0J-300000D01*
G01*
X166525000Y-135275000D02*
G75*
G02*
X166225000Y-135575000I-300000J0D01*
G01*
X152825000Y-135575000D02*
G75*
G02*
X152525000Y-135275000I0J300000D01*
G01*
%TO.C,SW23*%
X147475000Y-135275000D02*
X147475000Y-121875000D01*
X147175000Y-121575000D02*
X133775000Y-121575000D01*
X133475000Y-121875000D02*
X133475000Y-135275000D01*
X133775000Y-135575000D02*
X147175000Y-135575000D01*
X133475000Y-121875000D02*
G75*
G02*
X133775000Y-121575000I300000J0D01*
G01*
X147175000Y-121575000D02*
G75*
G02*
X147475000Y-121875000I0J-300000D01*
G01*
X147475000Y-135275000D02*
G75*
G02*
X147175000Y-135575000I-300000J0D01*
G01*
X133775000Y-135575000D02*
G75*
G02*
X133475000Y-135275000I0J300000D01*
G01*
%TO.C,SW22*%
X128425000Y-135275000D02*
X128425000Y-121875000D01*
X128125000Y-121575000D02*
X114725000Y-121575000D01*
X114425000Y-121875000D02*
X114425000Y-135275000D01*
X114725000Y-135575000D02*
X128125000Y-135575000D01*
X114425000Y-121875000D02*
G75*
G02*
X114725000Y-121575000I300000J0D01*
G01*
X128125000Y-121575000D02*
G75*
G02*
X128425000Y-121875000I0J-300000D01*
G01*
X128425000Y-135275000D02*
G75*
G02*
X128125000Y-135575000I-300000J0D01*
G01*
X114725000Y-135575000D02*
G75*
G02*
X114425000Y-135275000I0J300000D01*
G01*
%TO.C,SW21*%
X109375000Y-135275000D02*
X109375000Y-121875000D01*
X109075000Y-121575000D02*
X95675000Y-121575000D01*
X95375000Y-121875000D02*
X95375000Y-135275000D01*
X95675000Y-135575000D02*
X109075000Y-135575000D01*
X95375000Y-121875000D02*
G75*
G02*
X95675000Y-121575000I300000J0D01*
G01*
X109075000Y-121575000D02*
G75*
G02*
X109375000Y-121875000I0J-300000D01*
G01*
X109375000Y-135275000D02*
G75*
G02*
X109075000Y-135575000I-300000J0D01*
G01*
X95675000Y-135575000D02*
G75*
G02*
X95375000Y-135275000I0J300000D01*
G01*
%TO.C,SW20*%
X204625000Y-116225000D02*
X204625000Y-102825000D01*
X204325000Y-102525000D02*
X190925000Y-102525000D01*
X190625000Y-102825000D02*
X190625000Y-116225000D01*
X190925000Y-116525000D02*
X204325000Y-116525000D01*
X190625000Y-102825000D02*
G75*
G02*
X190925000Y-102525000I300000J0D01*
G01*
X204325000Y-102525000D02*
G75*
G02*
X204625000Y-102825000I0J-300000D01*
G01*
X204625000Y-116225000D02*
G75*
G02*
X204325000Y-116525000I-300000J0D01*
G01*
X190925000Y-116525000D02*
G75*
G02*
X190625000Y-116225000I0J300000D01*
G01*
%TO.C,SW19*%
X185575000Y-116225000D02*
X185575000Y-102825000D01*
X185275000Y-102525000D02*
X171875000Y-102525000D01*
X171575000Y-102825000D02*
X171575000Y-116225000D01*
X171875000Y-116525000D02*
X185275000Y-116525000D01*
X171575000Y-102825000D02*
G75*
G02*
X171875000Y-102525000I300000J0D01*
G01*
X185275000Y-102525000D02*
G75*
G02*
X185575000Y-102825000I0J-300000D01*
G01*
X185575000Y-116225000D02*
G75*
G02*
X185275000Y-116525000I-300000J0D01*
G01*
X171875000Y-116525000D02*
G75*
G02*
X171575000Y-116225000I0J300000D01*
G01*
%TO.C,SW18*%
X166525000Y-116225000D02*
X166525000Y-102825000D01*
X166225000Y-102525000D02*
X152825000Y-102525000D01*
X152525000Y-102825000D02*
X152525000Y-116225000D01*
X152825000Y-116525000D02*
X166225000Y-116525000D01*
X152525000Y-102825000D02*
G75*
G02*
X152825000Y-102525000I300000J0D01*
G01*
X166225000Y-102525000D02*
G75*
G02*
X166525000Y-102825000I0J-300000D01*
G01*
X166525000Y-116225000D02*
G75*
G02*
X166225000Y-116525000I-300000J0D01*
G01*
X152825000Y-116525000D02*
G75*
G02*
X152525000Y-116225000I0J300000D01*
G01*
%TO.C,SW17*%
X147475000Y-116225000D02*
X147475000Y-102825000D01*
X147175000Y-102525000D02*
X133775000Y-102525000D01*
X133475000Y-102825000D02*
X133475000Y-116225000D01*
X133775000Y-116525000D02*
X147175000Y-116525000D01*
X133475000Y-102825000D02*
G75*
G02*
X133775000Y-102525000I300000J0D01*
G01*
X147175000Y-102525000D02*
G75*
G02*
X147475000Y-102825000I0J-300000D01*
G01*
X147475000Y-116225000D02*
G75*
G02*
X147175000Y-116525000I-300000J0D01*
G01*
X133775000Y-116525000D02*
G75*
G02*
X133475000Y-116225000I0J300000D01*
G01*
%TO.C,SW16*%
X128425000Y-116225000D02*
X128425000Y-102825000D01*
X128125000Y-102525000D02*
X114725000Y-102525000D01*
X114425000Y-102825000D02*
X114425000Y-116225000D01*
X114725000Y-116525000D02*
X128125000Y-116525000D01*
X114425000Y-102825000D02*
G75*
G02*
X114725000Y-102525000I300000J0D01*
G01*
X128125000Y-102525000D02*
G75*
G02*
X128425000Y-102825000I0J-300000D01*
G01*
X128425000Y-116225000D02*
G75*
G02*
X128125000Y-116525000I-300000J0D01*
G01*
X114725000Y-116525000D02*
G75*
G02*
X114425000Y-116225000I0J300000D01*
G01*
%TO.C,SW15*%
X109375000Y-116225000D02*
X109375000Y-102825000D01*
X109075000Y-102525000D02*
X95675000Y-102525000D01*
X95375000Y-102825000D02*
X95375000Y-116225000D01*
X95675000Y-116525000D02*
X109075000Y-116525000D01*
X95375000Y-102825000D02*
G75*
G02*
X95675000Y-102525000I300000J0D01*
G01*
X109075000Y-102525000D02*
G75*
G02*
X109375000Y-102825000I0J-300000D01*
G01*
X109375000Y-116225000D02*
G75*
G02*
X109075000Y-116525000I-300000J0D01*
G01*
X95675000Y-116525000D02*
G75*
G02*
X95375000Y-116225000I0J300000D01*
G01*
%TO.C,SW14*%
X204625000Y-97175000D02*
X204625000Y-83775000D01*
X204325000Y-83475000D02*
X190925000Y-83475000D01*
X190625000Y-83775000D02*
X190625000Y-97175000D01*
X190925000Y-97475000D02*
X204325000Y-97475000D01*
X190625000Y-83775000D02*
G75*
G02*
X190925000Y-83475000I300000J0D01*
G01*
X204325000Y-83475000D02*
G75*
G02*
X204625000Y-83775000I0J-300000D01*
G01*
X204625000Y-97175000D02*
G75*
G02*
X204325000Y-97475000I-300000J0D01*
G01*
X190925000Y-97475000D02*
G75*
G02*
X190625000Y-97175000I0J300000D01*
G01*
%TO.C,SW13*%
X185575000Y-97175000D02*
X185575000Y-83775000D01*
X185275000Y-83475000D02*
X171875000Y-83475000D01*
X171575000Y-83775000D02*
X171575000Y-97175000D01*
X171875000Y-97475000D02*
X185275000Y-97475000D01*
X171575000Y-83775000D02*
G75*
G02*
X171875000Y-83475000I300000J0D01*
G01*
X185275000Y-83475000D02*
G75*
G02*
X185575000Y-83775000I0J-300000D01*
G01*
X185575000Y-97175000D02*
G75*
G02*
X185275000Y-97475000I-300000J0D01*
G01*
X171875000Y-97475000D02*
G75*
G02*
X171575000Y-97175000I0J300000D01*
G01*
%TO.C,SW12*%
X166525000Y-97175000D02*
X166525000Y-83775000D01*
X166225000Y-83475000D02*
X152825000Y-83475000D01*
X152525000Y-83775000D02*
X152525000Y-97175000D01*
X152825000Y-97475000D02*
X166225000Y-97475000D01*
X152525000Y-83775000D02*
G75*
G02*
X152825000Y-83475000I300000J0D01*
G01*
X166225000Y-83475000D02*
G75*
G02*
X166525000Y-83775000I0J-300000D01*
G01*
X166525000Y-97175000D02*
G75*
G02*
X166225000Y-97475000I-300000J0D01*
G01*
X152825000Y-97475000D02*
G75*
G02*
X152525000Y-97175000I0J300000D01*
G01*
%TO.C,SW11*%
X147475000Y-97175000D02*
X147475000Y-83775000D01*
X147175000Y-83475000D02*
X133775000Y-83475000D01*
X133475000Y-83775000D02*
X133475000Y-97175000D01*
X133775000Y-97475000D02*
X147175000Y-97475000D01*
X133475000Y-83775000D02*
G75*
G02*
X133775000Y-83475000I300000J0D01*
G01*
X147175000Y-83475000D02*
G75*
G02*
X147475000Y-83775000I0J-300000D01*
G01*
X147475000Y-97175000D02*
G75*
G02*
X147175000Y-97475000I-300000J0D01*
G01*
X133775000Y-97475000D02*
G75*
G02*
X133475000Y-97175000I0J300000D01*
G01*
%TO.C,SW10*%
X128425000Y-97175000D02*
X128425000Y-83775000D01*
X128125000Y-83475000D02*
X114725000Y-83475000D01*
X114425000Y-83775000D02*
X114425000Y-97175000D01*
X114725000Y-97475000D02*
X128125000Y-97475000D01*
X114425000Y-83775000D02*
G75*
G02*
X114725000Y-83475000I300000J0D01*
G01*
X128125000Y-83475000D02*
G75*
G02*
X128425000Y-83775000I0J-300000D01*
G01*
X128425000Y-97175000D02*
G75*
G02*
X128125000Y-97475000I-300000J0D01*
G01*
X114725000Y-97475000D02*
G75*
G02*
X114425000Y-97175000I0J300000D01*
G01*
%TO.C,SW9*%
X109375000Y-97175000D02*
X109375000Y-83775000D01*
X109075000Y-83475000D02*
X95675000Y-83475000D01*
X95375000Y-83775000D02*
X95375000Y-97175000D01*
X95675000Y-97475000D02*
X109075000Y-97475000D01*
X95375000Y-83775000D02*
G75*
G02*
X95675000Y-83475000I300000J0D01*
G01*
X109075000Y-83475000D02*
G75*
G02*
X109375000Y-83775000I0J-300000D01*
G01*
X109375000Y-97175000D02*
G75*
G02*
X109075000Y-97475000I-300000J0D01*
G01*
X95675000Y-97475000D02*
G75*
G02*
X95375000Y-97175000I0J300000D01*
G01*
%TO.C,SW8*%
X204625000Y-78124900D02*
X204625000Y-64724900D01*
X204325000Y-64424900D02*
X190925000Y-64424900D01*
X190625000Y-64724900D02*
X190625000Y-78124900D01*
X190925000Y-78424900D02*
X204325000Y-78424900D01*
X190625000Y-64724900D02*
G75*
G02*
X190925000Y-64424900I300000J0D01*
G01*
X204325000Y-64424900D02*
G75*
G02*
X204625000Y-64724900I0J-300000D01*
G01*
X204625000Y-78124900D02*
G75*
G02*
X204325000Y-78424900I-300000J0D01*
G01*
X190925000Y-78424900D02*
G75*
G02*
X190625000Y-78124900I0J300000D01*
G01*
%TO.C,SW7*%
X185575000Y-78124900D02*
X185575000Y-64724900D01*
X185275000Y-64424900D02*
X171875000Y-64424900D01*
X171575000Y-64724900D02*
X171575000Y-78124900D01*
X171875000Y-78424900D02*
X185275000Y-78424900D01*
X171575000Y-64724900D02*
G75*
G02*
X171875000Y-64424900I300000J0D01*
G01*
X185275000Y-64424900D02*
G75*
G02*
X185575000Y-64724900I0J-300000D01*
G01*
X185575000Y-78124900D02*
G75*
G02*
X185275000Y-78424900I-300000J0D01*
G01*
X171875000Y-78424900D02*
G75*
G02*
X171575000Y-78124900I0J300000D01*
G01*
%TO.C,SW6*%
X166525000Y-78124900D02*
X166525000Y-64724900D01*
X166225000Y-64424900D02*
X152825000Y-64424900D01*
X152525000Y-64724900D02*
X152525000Y-78124900D01*
X152825000Y-78424900D02*
X166225000Y-78424900D01*
X152525000Y-64724900D02*
G75*
G02*
X152825000Y-64424900I300000J0D01*
G01*
X166225000Y-64424900D02*
G75*
G02*
X166525000Y-64724900I0J-300000D01*
G01*
X166525000Y-78124900D02*
G75*
G02*
X166225000Y-78424900I-300000J0D01*
G01*
X152825000Y-78424900D02*
G75*
G02*
X152525000Y-78124900I0J300000D01*
G01*
%TO.C,SW5*%
X147475000Y-78124900D02*
X147475000Y-64724900D01*
X147175000Y-64424900D02*
X133775000Y-64424900D01*
X133475000Y-64724900D02*
X133475000Y-78124900D01*
X133775000Y-78424900D02*
X147175000Y-78424900D01*
X133475000Y-64724900D02*
G75*
G02*
X133775000Y-64424900I300000J0D01*
G01*
X147175000Y-64424900D02*
G75*
G02*
X147475000Y-64724900I0J-300000D01*
G01*
X147475000Y-78124900D02*
G75*
G02*
X147175000Y-78424900I-300000J0D01*
G01*
X133775000Y-78424900D02*
G75*
G02*
X133475000Y-78124900I0J300000D01*
G01*
%TO.C,SW4*%
X195100000Y-59074800D02*
X195100000Y-45674800D01*
X194800000Y-45374800D02*
X181400000Y-45374800D01*
X181100000Y-45674800D02*
X181100000Y-59074800D01*
X181400000Y-59374800D02*
X194800000Y-59374800D01*
X181100000Y-45674800D02*
G75*
G02*
X181400000Y-45374800I300000J0D01*
G01*
X194800000Y-45374800D02*
G75*
G02*
X195100000Y-45674800I0J-300000D01*
G01*
X195100000Y-59074800D02*
G75*
G02*
X194800000Y-59374800I-300000J0D01*
G01*
X181400000Y-59374800D02*
G75*
G02*
X181100000Y-59074800I0J300000D01*
G01*
%TO.C,SW3*%
X176050000Y-59074800D02*
X176050000Y-45674800D01*
X175750000Y-45374800D02*
X162350000Y-45374800D01*
X162050000Y-45674800D02*
X162050000Y-59074800D01*
X162350000Y-59374800D02*
X175750000Y-59374800D01*
X162050000Y-45674800D02*
G75*
G02*
X162350000Y-45374800I300000J0D01*
G01*
X175750000Y-45374800D02*
G75*
G02*
X176050000Y-45674800I0J-300000D01*
G01*
X176050000Y-59074800D02*
G75*
G02*
X175750000Y-59374800I-300000J0D01*
G01*
X162350000Y-59374800D02*
G75*
G02*
X162050000Y-59074800I0J300000D01*
G01*
%TO.C,SW2*%
X157000000Y-59074800D02*
X157000000Y-45674800D01*
X156700000Y-45374800D02*
X143300000Y-45374800D01*
X143000000Y-45674800D02*
X143000000Y-59074800D01*
X143300000Y-59374800D02*
X156700000Y-59374800D01*
X143000000Y-45674800D02*
G75*
G02*
X143300000Y-45374800I300000J0D01*
G01*
X156700000Y-45374800D02*
G75*
G02*
X157000000Y-45674800I0J-300000D01*
G01*
X157000000Y-59074800D02*
G75*
G02*
X156700000Y-59374800I-300000J0D01*
G01*
X143300000Y-59374800D02*
G75*
G02*
X143000000Y-59074800I0J300000D01*
G01*
%TO.C,SW1*%
X137950000Y-59074800D02*
X137950000Y-45674800D01*
X137650000Y-45374800D02*
X124250000Y-45374800D01*
X123950000Y-45674800D02*
X123950000Y-59074800D01*
X124250000Y-59374800D02*
X137650000Y-59374800D01*
X123950000Y-45674800D02*
G75*
G02*
X124250000Y-45374800I300000J0D01*
G01*
X137650000Y-45374800D02*
G75*
G02*
X137950000Y-45674800I0J-300000D01*
G01*
X137950000Y-59074800D02*
G75*
G02*
X137650000Y-59374800I-300000J0D01*
G01*
X124250000Y-59374800D02*
G75*
G02*
X123950000Y-59074800I0J300000D01*
G01*
%TD*%
M02*
