%TF.GenerationSoftware,KiCad,Pcbnew,(5.1.9)-1*%
%TF.CreationDate,2021-05-21T21:10:52+09:00*%
%TF.ProjectId,topplate,746f7070-6c61-4746-952e-6b696361645f,1*%
%TF.SameCoordinates,Original*%
%TF.FileFunction,Soldermask,Top*%
%TF.FilePolarity,Negative*%
%FSLAX46Y46*%
G04 Gerber Fmt 4.6, Leading zero omitted, Abs format (unit mm)*
G04 Created by KiCad (PCBNEW (5.1.9)-1) date 2021-05-21 21:10:52*
%MOMM*%
%LPD*%
G01*
G04 APERTURE LIST*
%ADD10C,0.150000*%
%ADD11C,0.600000*%
%ADD12C,4.000000*%
G04 APERTURE END LIST*
D10*
X106976190Y-77452380D02*
X106976190Y-76452380D01*
X106976190Y-77404761D02*
X106880952Y-77452380D01*
X106690476Y-77452380D01*
X106595238Y-77404761D01*
X106547619Y-77357142D01*
X106500000Y-77261904D01*
X106500000Y-76976190D01*
X106547619Y-76880952D01*
X106595238Y-76833333D01*
X106690476Y-76785714D01*
X106880952Y-76785714D01*
X106976190Y-76833333D01*
X107833333Y-77404761D02*
X107738095Y-77452380D01*
X107547619Y-77452380D01*
X107452380Y-77404761D01*
X107404761Y-77309523D01*
X107404761Y-76928571D01*
X107452380Y-76833333D01*
X107547619Y-76785714D01*
X107738095Y-76785714D01*
X107833333Y-76833333D01*
X107880952Y-76928571D01*
X107880952Y-77023809D01*
X107404761Y-77119047D01*
X108261904Y-77404761D02*
X108357142Y-77452380D01*
X108547619Y-77452380D01*
X108642857Y-77404761D01*
X108690476Y-77309523D01*
X108690476Y-77261904D01*
X108642857Y-77166666D01*
X108547619Y-77119047D01*
X108404761Y-77119047D01*
X108309523Y-77071428D01*
X108261904Y-76976190D01*
X108261904Y-76928571D01*
X108309523Y-76833333D01*
X108404761Y-76785714D01*
X108547619Y-76785714D01*
X108642857Y-76833333D01*
X109119047Y-77452380D02*
X109119047Y-76785714D01*
X109119047Y-76452380D02*
X109071428Y-76500000D01*
X109119047Y-76547619D01*
X109166666Y-76500000D01*
X109119047Y-76452380D01*
X109119047Y-76547619D01*
X110023809Y-76785714D02*
X110023809Y-77595238D01*
X109976190Y-77690476D01*
X109928571Y-77738095D01*
X109833333Y-77785714D01*
X109690476Y-77785714D01*
X109595238Y-77738095D01*
X110023809Y-77404761D02*
X109928571Y-77452380D01*
X109738095Y-77452380D01*
X109642857Y-77404761D01*
X109595238Y-77357142D01*
X109547619Y-77261904D01*
X109547619Y-76976190D01*
X109595238Y-76880952D01*
X109642857Y-76833333D01*
X109738095Y-76785714D01*
X109928571Y-76785714D01*
X110023809Y-76833333D01*
X110500000Y-76785714D02*
X110500000Y-77452380D01*
X110500000Y-76880952D02*
X110547619Y-76833333D01*
X110642857Y-76785714D01*
X110785714Y-76785714D01*
X110880952Y-76833333D01*
X110928571Y-76928571D01*
X110928571Y-77452380D01*
X111785714Y-77404761D02*
X111690476Y-77452380D01*
X111500000Y-77452380D01*
X111404761Y-77404761D01*
X111357142Y-77309523D01*
X111357142Y-76928571D01*
X111404761Y-76833333D01*
X111500000Y-76785714D01*
X111690476Y-76785714D01*
X111785714Y-76833333D01*
X111833333Y-76928571D01*
X111833333Y-77023809D01*
X111357142Y-77119047D01*
X112690476Y-77452380D02*
X112690476Y-76452380D01*
X112690476Y-77404761D02*
X112595238Y-77452380D01*
X112404761Y-77452380D01*
X112309523Y-77404761D01*
X112261904Y-77357142D01*
X112214285Y-77261904D01*
X112214285Y-76976190D01*
X112261904Y-76880952D01*
X112309523Y-76833333D01*
X112404761Y-76785714D01*
X112595238Y-76785714D01*
X112690476Y-76833333D01*
X113928571Y-77452380D02*
X113928571Y-76452380D01*
X113928571Y-76833333D02*
X114023809Y-76785714D01*
X114214285Y-76785714D01*
X114309523Y-76833333D01*
X114357142Y-76880952D01*
X114404761Y-76976190D01*
X114404761Y-77261904D01*
X114357142Y-77357142D01*
X114309523Y-77404761D01*
X114214285Y-77452380D01*
X114023809Y-77452380D01*
X113928571Y-77404761D01*
X114738095Y-76785714D02*
X114976190Y-77452380D01*
X115214285Y-76785714D02*
X114976190Y-77452380D01*
X114880952Y-77690476D01*
X114833333Y-77738095D01*
X114738095Y-77785714D01*
X116357142Y-77452380D02*
X116357142Y-76452380D01*
X116928571Y-77452380D02*
X116500000Y-76880952D01*
X116928571Y-76452380D02*
X116357142Y-77023809D01*
X117500000Y-77452380D02*
X117404761Y-77404761D01*
X117357142Y-77357142D01*
X117309523Y-77261904D01*
X117309523Y-76976190D01*
X117357142Y-76880952D01*
X117404761Y-76833333D01*
X117500000Y-76785714D01*
X117642857Y-76785714D01*
X117738095Y-76833333D01*
X117785714Y-76880952D01*
X117833333Y-76976190D01*
X117833333Y-77261904D01*
X117785714Y-77357142D01*
X117738095Y-77404761D01*
X117642857Y-77452380D01*
X117500000Y-77452380D01*
X118833333Y-77452380D02*
X118500000Y-76976190D01*
X118261904Y-77452380D02*
X118261904Y-76452380D01*
X118642857Y-76452380D01*
X118738095Y-76500000D01*
X118785714Y-76547619D01*
X118833333Y-76642857D01*
X118833333Y-76785714D01*
X118785714Y-76880952D01*
X118738095Y-76928571D01*
X118642857Y-76976190D01*
X118261904Y-76976190D01*
X119404761Y-77452380D02*
X119309523Y-77404761D01*
X119261904Y-77357142D01*
X119214285Y-77261904D01*
X119214285Y-76976190D01*
X119261904Y-76880952D01*
X119309523Y-76833333D01*
X119404761Y-76785714D01*
X119547619Y-76785714D01*
X119642857Y-76833333D01*
X119690476Y-76880952D01*
X119738095Y-76976190D01*
X119738095Y-77261904D01*
X119690476Y-77357142D01*
X119642857Y-77404761D01*
X119547619Y-77452380D01*
X119404761Y-77452380D01*
X120166666Y-77452380D02*
X120166666Y-76452380D01*
X120738095Y-77452380D01*
X120738095Y-76452380D01*
X121928571Y-76404761D02*
X121071428Y-77690476D01*
X122261904Y-77452380D02*
X122261904Y-76452380D01*
X122833333Y-77452380D02*
X122404761Y-76880952D01*
X122833333Y-76452380D02*
X122261904Y-77023809D01*
X123690476Y-77452380D02*
X123690476Y-76928571D01*
X123642857Y-76833333D01*
X123547619Y-76785714D01*
X123357142Y-76785714D01*
X123261904Y-76833333D01*
X123690476Y-77404761D02*
X123595238Y-77452380D01*
X123357142Y-77452380D01*
X123261904Y-77404761D01*
X123214285Y-77309523D01*
X123214285Y-77214285D01*
X123261904Y-77119047D01*
X123357142Y-77071428D01*
X123595238Y-77071428D01*
X123690476Y-77023809D01*
X124309523Y-77452380D02*
X124214285Y-77404761D01*
X124166666Y-77357142D01*
X124119047Y-77261904D01*
X124119047Y-76976190D01*
X124166666Y-76880952D01*
X124214285Y-76833333D01*
X124309523Y-76785714D01*
X124452380Y-76785714D01*
X124547619Y-76833333D01*
X124595238Y-76880952D01*
X124642857Y-76976190D01*
X124642857Y-77261904D01*
X124595238Y-77357142D01*
X124547619Y-77404761D01*
X124452380Y-77452380D01*
X124309523Y-77452380D01*
X125071428Y-77452380D02*
X125071428Y-76785714D01*
X125071428Y-76976190D02*
X125119047Y-76880952D01*
X125166666Y-76833333D01*
X125261904Y-76785714D01*
X125357142Y-76785714D01*
X125690476Y-77452380D02*
X125690476Y-76785714D01*
X125690476Y-76452380D02*
X125642857Y-76500000D01*
X125690476Y-76547619D01*
X125738095Y-76500000D01*
X125690476Y-76452380D01*
X125690476Y-76547619D01*
X126357142Y-76976190D02*
X126357142Y-77452380D01*
X126023809Y-76452380D02*
X126357142Y-76976190D01*
X126690476Y-76452380D01*
X127452380Y-77452380D02*
X127452380Y-76928571D01*
X127404761Y-76833333D01*
X127309523Y-76785714D01*
X127119047Y-76785714D01*
X127023809Y-76833333D01*
X127452380Y-77404761D02*
X127357142Y-77452380D01*
X127119047Y-77452380D01*
X127023809Y-77404761D01*
X126976190Y-77309523D01*
X126976190Y-77214285D01*
X127023809Y-77119047D01*
X127119047Y-77071428D01*
X127357142Y-77071428D01*
X127452380Y-77023809D01*
D11*
X97142857Y-71857142D02*
X97142857Y-74714285D01*
X95809523Y-68714285D02*
X97142857Y-71857142D01*
X98476190Y-68714285D01*
X99809523Y-68714285D02*
X99809523Y-73571428D01*
X100000000Y-74142857D01*
X100190476Y-74428571D01*
X100571428Y-74714285D01*
X101333333Y-74714285D01*
X101714285Y-74428571D01*
X101904761Y-74142857D01*
X102095238Y-73571428D01*
X102095238Y-68714285D01*
X104000000Y-74714285D02*
X104000000Y-68714285D01*
X106666666Y-68714285D02*
X107428571Y-68714285D01*
X107809523Y-69000000D01*
X108190476Y-69571428D01*
X108380952Y-70714285D01*
X108380952Y-72714285D01*
X108190476Y-73857142D01*
X107809523Y-74428571D01*
X107428571Y-74714285D01*
X106666666Y-74714285D01*
X106285714Y-74428571D01*
X105904761Y-73857142D01*
X105714285Y-72714285D01*
X105714285Y-70714285D01*
X105904761Y-69571428D01*
X106285714Y-69000000D01*
X106666666Y-68714285D01*
X110095238Y-74714285D02*
X110095238Y-68714285D01*
X111619047Y-68714285D01*
X112000000Y-69000000D01*
X112190476Y-69285714D01*
X112380952Y-69857142D01*
X112380952Y-70714285D01*
X112190476Y-71285714D01*
X112000000Y-71571428D01*
X111619047Y-71857142D01*
X110095238Y-71857142D01*
X113714285Y-68714285D02*
X116190476Y-68714285D01*
X114857142Y-71000000D01*
X115428571Y-71000000D01*
X115809523Y-71285714D01*
X116000000Y-71571428D01*
X116190476Y-72142857D01*
X116190476Y-73571428D01*
X116000000Y-74142857D01*
X115809523Y-74428571D01*
X115428571Y-74714285D01*
X114285714Y-74714285D01*
X113904761Y-74428571D01*
X113714285Y-74142857D01*
X120000000Y-74714285D02*
X117714285Y-74714285D01*
X118857142Y-74714285D02*
X118857142Y-68714285D01*
X118476190Y-69571428D01*
X118095238Y-70142857D01*
X117714285Y-70428571D01*
X124000000Y-74714285D02*
X122666666Y-71857142D01*
X121714285Y-74714285D02*
X121714285Y-68714285D01*
X123238095Y-68714285D01*
X123619047Y-69000000D01*
X123809523Y-69285714D01*
X124000000Y-69857142D01*
X124000000Y-70714285D01*
X123809523Y-71285714D01*
X123619047Y-71571428D01*
X123238095Y-71857142D01*
X121714285Y-71857142D01*
X125523809Y-74428571D02*
X126095238Y-74714285D01*
X127047619Y-74714285D01*
X127428571Y-74428571D01*
X127619047Y-74142857D01*
X127809523Y-73571428D01*
X127809523Y-73000000D01*
X127619047Y-72428571D01*
X127428571Y-72142857D01*
X127047619Y-71857142D01*
X126285714Y-71571428D01*
X125904761Y-71285714D01*
X125714285Y-71000000D01*
X125523809Y-70428571D01*
X125523809Y-69857142D01*
X125714285Y-69285714D01*
X125904761Y-69000000D01*
X126285714Y-68714285D01*
X127238095Y-68714285D01*
X127809523Y-69000000D01*
D12*
%TO.C,HOLE5*%
X150000000Y-100000000D03*
%TD*%
%TO.C,HOLE4*%
X200000000Y-141000000D03*
%TD*%
%TO.C,HOLE3*%
X100000000Y-141000000D03*
%TD*%
%TO.C,HOLE2*%
X200000000Y-59000000D03*
%TD*%
%TO.C,HOLE1*%
X100000000Y-59000000D03*
%TD*%
M02*
