%TF.GenerationSoftware,KiCad,Pcbnew,(5.1.9)-1*%
%TF.CreationDate,2021-04-11T15:20:34+09:00*%
%TF.ProjectId,yuiop60hh3-topplate,7975696f-7036-4306-9868-332d746f7070,1*%
%TF.SameCoordinates,Original*%
%TF.FileFunction,Legend,Bot*%
%TF.FilePolarity,Positive*%
%FSLAX46Y46*%
G04 Gerber Fmt 4.6, Leading zero omitted, Abs format (unit mm)*
G04 Created by KiCad (PCBNEW (5.1.9)-1) date 2021-04-11 15:20:34*
%MOMM*%
%LPD*%
G01*
G04 APERTURE LIST*
%ADD10C,0.150000*%
G04 APERTURE END LIST*
D10*
X81570238Y-191235064D02*
X81570238Y-191806493D01*
X81608333Y-191920779D01*
X81684523Y-191996969D01*
X81798809Y-192035064D01*
X81875000Y-192035064D01*
X80808333Y-192035064D02*
X81189285Y-192035064D01*
X81189285Y-191235064D01*
X80084523Y-191958874D02*
X80122619Y-191996969D01*
X80236904Y-192035064D01*
X80313095Y-192035064D01*
X80427380Y-191996969D01*
X80503571Y-191920779D01*
X80541666Y-191844588D01*
X80579761Y-191692207D01*
X80579761Y-191577921D01*
X80541666Y-191425540D01*
X80503571Y-191349350D01*
X80427380Y-191273160D01*
X80313095Y-191235064D01*
X80236904Y-191235064D01*
X80122619Y-191273160D01*
X80084523Y-191311255D01*
X79513095Y-191235064D02*
X79513095Y-191806493D01*
X79551190Y-191920779D01*
X79627380Y-191996969D01*
X79741666Y-192035064D01*
X79817857Y-192035064D01*
X78751190Y-192035064D02*
X79132142Y-192035064D01*
X79132142Y-191235064D01*
X78027380Y-191958874D02*
X78065476Y-191996969D01*
X78179761Y-192035064D01*
X78255952Y-192035064D01*
X78370238Y-191996969D01*
X78446428Y-191920779D01*
X78484523Y-191844588D01*
X78522619Y-191692207D01*
X78522619Y-191577921D01*
X78484523Y-191425540D01*
X78446428Y-191349350D01*
X78370238Y-191273160D01*
X78255952Y-191235064D01*
X78179761Y-191235064D01*
X78065476Y-191273160D01*
X78027380Y-191311255D01*
X77455952Y-191235064D02*
X77455952Y-191806493D01*
X77494047Y-191920779D01*
X77570238Y-191996969D01*
X77684523Y-192035064D01*
X77760714Y-192035064D01*
X76694047Y-192035064D02*
X77075000Y-192035064D01*
X77075000Y-191235064D01*
X75970238Y-191958874D02*
X76008333Y-191996969D01*
X76122619Y-192035064D01*
X76198809Y-192035064D01*
X76313095Y-191996969D01*
X76389285Y-191920779D01*
X76427380Y-191844588D01*
X76465476Y-191692207D01*
X76465476Y-191577921D01*
X76427380Y-191425540D01*
X76389285Y-191349350D01*
X76313095Y-191273160D01*
X76198809Y-191235064D01*
X76122619Y-191235064D01*
X76008333Y-191273160D01*
X75970238Y-191311255D01*
X75398809Y-191235064D02*
X75398809Y-191806493D01*
X75436904Y-191920779D01*
X75513095Y-191996969D01*
X75627380Y-192035064D01*
X75703571Y-192035064D01*
X74636904Y-192035064D02*
X75017857Y-192035064D01*
X75017857Y-191235064D01*
X73913095Y-191958874D02*
X73951190Y-191996969D01*
X74065476Y-192035064D01*
X74141666Y-192035064D01*
X74255952Y-191996969D01*
X74332142Y-191920779D01*
X74370238Y-191844588D01*
X74408333Y-191692207D01*
X74408333Y-191577921D01*
X74370238Y-191425540D01*
X74332142Y-191349350D01*
X74255952Y-191273160D01*
X74141666Y-191235064D01*
X74065476Y-191235064D01*
X73951190Y-191273160D01*
X73913095Y-191311255D01*
M02*
