G04 #@! TF.GenerationSoftware,KiCad,Pcbnew,(5.1.9)-1*
G04 #@! TF.CreationDate,2021-01-10T01:59:45+09:00*
G04 #@! TF.ProjectId,yuiop27,7975696f-7032-4372-9e6b-696361645f70,rev?*
G04 #@! TF.SameCoordinates,Original*
G04 #@! TF.FileFunction,Paste,Bot*
G04 #@! TF.FilePolarity,Positive*
%FSLAX46Y46*%
G04 Gerber Fmt 4.6, Leading zero omitted, Abs format (unit mm)*
G04 Created by KiCad (PCBNEW (5.1.9)-1) date 2021-01-10 01:59:45*
%MOMM*%
%LPD*%
G01*
G04 APERTURE LIST*
%ADD10R,2.550000X2.500000*%
%ADD11R,1.000000X1.400000*%
%ADD12R,1.400000X1.000000*%
%ADD13R,1.000000X1.700000*%
%ADD14R,1.700000X1.000000*%
%ADD15R,2.500000X2.550000*%
G04 APERTURE END LIST*
D10*
X172216750Y-129540000D03*
X159289750Y-132080000D03*
X168814750Y-93980000D03*
X181741750Y-91440000D03*
X106902250Y-113030000D03*
X119829250Y-110490000D03*
X145002250Y-93980000D03*
X157929250Y-91440000D03*
D11*
X80168750Y-68075000D03*
X80168750Y-71625000D03*
X99218750Y-68075000D03*
X99218750Y-71625000D03*
X118268750Y-71625000D03*
X118268750Y-68075000D03*
X137318750Y-68075000D03*
X137318750Y-71625000D03*
X161131250Y-68075000D03*
X161131250Y-71625000D03*
X180181250Y-71625000D03*
X180181250Y-68075000D03*
X80168750Y-90675000D03*
X80168750Y-87125000D03*
X103981250Y-90675000D03*
X103981250Y-87125000D03*
X123031250Y-87125000D03*
X123031250Y-90675000D03*
X142081250Y-90675000D03*
X142081250Y-87125000D03*
X165893750Y-90675000D03*
X165893750Y-87125000D03*
X184943750Y-87125000D03*
X184943750Y-90675000D03*
X77787500Y-106175000D03*
X77787500Y-109725000D03*
X103981250Y-109725000D03*
X103981250Y-106175000D03*
X123031250Y-109725000D03*
X123031250Y-106175000D03*
X142081250Y-106175000D03*
X142081250Y-109725000D03*
X165893750Y-106175000D03*
X165893750Y-109725000D03*
X184943750Y-106175000D03*
X184943750Y-109725000D03*
X77787500Y-125225000D03*
X77787500Y-128775000D03*
X99218750Y-125225000D03*
X99218750Y-128775000D03*
X118268750Y-125225000D03*
X118268750Y-128775000D03*
X137318750Y-125225000D03*
X137318750Y-128775000D03*
X156368750Y-128775000D03*
X156368750Y-125225000D03*
X175418750Y-128775000D03*
X175418750Y-125225000D03*
X151606250Y-144275000D03*
X151606250Y-147825000D03*
X177800000Y-144275000D03*
X177800000Y-147825000D03*
D12*
X209801000Y-152463500D03*
X206251000Y-152463500D03*
D13*
X203614250Y-146450500D03*
X202214250Y-146450500D03*
X203614250Y-140950500D03*
X202214250Y-140950500D03*
D14*
X183813000Y-141670000D03*
X183813000Y-140270000D03*
X189313000Y-141670000D03*
X189313000Y-140270000D03*
X181431750Y-122620000D03*
X181431750Y-121220000D03*
X186931750Y-122620000D03*
X186931750Y-121220000D03*
X196456750Y-102170000D03*
X196456750Y-103570000D03*
X190956750Y-102170000D03*
X190956750Y-103570000D03*
X190956750Y-84520000D03*
X190956750Y-83120000D03*
X196456750Y-84520000D03*
X196456750Y-83120000D03*
X191694250Y-64070000D03*
X191694250Y-65470000D03*
X186194250Y-64070000D03*
X186194250Y-65470000D03*
X167144250Y-65470000D03*
X167144250Y-64070000D03*
X172644250Y-65470000D03*
X172644250Y-64070000D03*
X177406750Y-83120000D03*
X177406750Y-84520000D03*
X171906750Y-83120000D03*
X171906750Y-84520000D03*
X171906750Y-103570000D03*
X171906750Y-102170000D03*
X177406750Y-103570000D03*
X177406750Y-102170000D03*
X167881750Y-121220000D03*
X167881750Y-122620000D03*
X162381750Y-121220000D03*
X162381750Y-122620000D03*
X157619250Y-141670000D03*
X157619250Y-140270000D03*
X163119250Y-141670000D03*
X163119250Y-140270000D03*
X148831750Y-121220000D03*
X148831750Y-122620000D03*
X143331750Y-121220000D03*
X143331750Y-122620000D03*
X148094250Y-103570000D03*
X148094250Y-102170000D03*
X153594250Y-103570000D03*
X153594250Y-102170000D03*
X153594250Y-83120000D03*
X153594250Y-84520000D03*
X148094250Y-83120000D03*
X148094250Y-84520000D03*
X143331750Y-65470000D03*
X143331750Y-64070000D03*
X148831750Y-65470000D03*
X148831750Y-64070000D03*
X129781750Y-64070000D03*
X129781750Y-65470000D03*
X124281750Y-64070000D03*
X124281750Y-65470000D03*
X129044250Y-84520000D03*
X129044250Y-83120000D03*
X134544250Y-84520000D03*
X134544250Y-83120000D03*
X134544250Y-102170000D03*
X134544250Y-103570000D03*
X129044250Y-102170000D03*
X129044250Y-103570000D03*
X129781750Y-121220000D03*
X129781750Y-122620000D03*
X124281750Y-121220000D03*
X124281750Y-122620000D03*
X110731750Y-121220000D03*
X110731750Y-122620000D03*
X105231750Y-121220000D03*
X105231750Y-122620000D03*
X109994250Y-103570000D03*
X109994250Y-102170000D03*
X115494250Y-103570000D03*
X115494250Y-102170000D03*
X115494250Y-83120000D03*
X115494250Y-84520000D03*
X109994250Y-83120000D03*
X109994250Y-84520000D03*
X105231750Y-65470000D03*
X105231750Y-64070000D03*
X110731750Y-65470000D03*
X110731750Y-64070000D03*
X91681750Y-64070000D03*
X91681750Y-65470000D03*
X86181750Y-64070000D03*
X86181750Y-65470000D03*
X86181750Y-84520000D03*
X86181750Y-83120000D03*
X91681750Y-84520000D03*
X91681750Y-83120000D03*
X83800500Y-103570000D03*
X83800500Y-102170000D03*
X89300500Y-103570000D03*
X89300500Y-102170000D03*
X83800500Y-122620000D03*
X83800500Y-121220000D03*
X89300500Y-122620000D03*
X89300500Y-121220000D03*
D10*
X83089750Y-74930000D03*
X96016750Y-72390000D03*
X102139750Y-74930000D03*
X115066750Y-72390000D03*
X134116750Y-72390000D03*
X121189750Y-74930000D03*
X153166750Y-72390000D03*
X140239750Y-74930000D03*
X176979250Y-72390000D03*
X164052250Y-74930000D03*
X196029250Y-72390000D03*
X183102250Y-74930000D03*
X96016750Y-91440000D03*
X83089750Y-93980000D03*
X119829250Y-91440000D03*
X106902250Y-93980000D03*
X125952250Y-93980000D03*
X138879250Y-91440000D03*
X200791750Y-91440000D03*
X187864750Y-93980000D03*
X93635500Y-110490000D03*
X80708500Y-113030000D03*
X125952250Y-113030000D03*
X138879250Y-110490000D03*
X145002250Y-113030000D03*
X157929250Y-110490000D03*
X168814750Y-113030000D03*
X181741750Y-110490000D03*
X187864750Y-113030000D03*
X200791750Y-110490000D03*
X93635500Y-129540000D03*
X80708500Y-132080000D03*
X102139750Y-132080000D03*
X115066750Y-129540000D03*
X134116750Y-129540000D03*
X121189750Y-132080000D03*
X153166750Y-129540000D03*
X140239750Y-132080000D03*
X191266750Y-129540000D03*
X178339750Y-132080000D03*
X167454250Y-148590000D03*
X154527250Y-151130000D03*
X193675000Y-148590000D03*
X180748000Y-151130000D03*
D15*
X210521550Y-136596450D03*
X213061550Y-149523450D03*
M02*
