G04 #@! TF.GenerationSoftware,KiCad,Pcbnew,(5.1.9)-1*
G04 #@! TF.CreationDate,2021-01-10T01:59:45+09:00*
G04 #@! TF.ProjectId,yuiop27,7975696f-7032-4372-9e6b-696361645f70,rev?*
G04 #@! TF.SameCoordinates,Original*
G04 #@! TF.FileFunction,Copper,L2,Bot*
G04 #@! TF.FilePolarity,Positive*
%FSLAX46Y46*%
G04 Gerber Fmt 4.6, Leading zero omitted, Abs format (unit mm)*
G04 Created by KiCad (PCBNEW (5.1.9)-1) date 2021-01-10 01:59:45*
%MOMM*%
%LPD*%
G01*
G04 APERTURE LIST*
G04 #@! TA.AperFunction,SMDPad,CuDef*
%ADD10R,2.550000X2.500000*%
G04 #@! TD*
G04 #@! TA.AperFunction,SMDPad,CuDef*
%ADD11R,1.000000X1.400000*%
G04 #@! TD*
G04 #@! TA.AperFunction,SMDPad,CuDef*
%ADD12R,1.400000X1.000000*%
G04 #@! TD*
G04 #@! TA.AperFunction,ComponentPad*
%ADD13O,2.500000X1.700000*%
G04 #@! TD*
G04 #@! TA.AperFunction,SMDPad,CuDef*
%ADD14R,1.000000X1.700000*%
G04 #@! TD*
G04 #@! TA.AperFunction,SMDPad,CuDef*
%ADD15R,1.700000X1.000000*%
G04 #@! TD*
G04 #@! TA.AperFunction,ComponentPad*
%ADD16O,1.397000X1.778000*%
G04 #@! TD*
G04 #@! TA.AperFunction,ComponentPad*
%ADD17C,2.000000*%
G04 #@! TD*
G04 #@! TA.AperFunction,SMDPad,CuDef*
%ADD18R,2.500000X2.550000*%
G04 #@! TD*
G04 #@! TA.AperFunction,ComponentPad*
%ADD19C,1.524000*%
G04 #@! TD*
G04 #@! TA.AperFunction,ViaPad*
%ADD20C,0.800000*%
G04 #@! TD*
G04 #@! TA.AperFunction,Conductor*
%ADD21C,0.250000*%
G04 #@! TD*
G04 APERTURE END LIST*
D10*
X172216750Y-129540000D03*
X159289750Y-132080000D03*
X168814750Y-93980000D03*
X181741750Y-91440000D03*
X106902250Y-113030000D03*
X119829250Y-110490000D03*
X145002250Y-93980000D03*
X157929250Y-91440000D03*
D11*
X80168750Y-68075000D03*
X80168750Y-71625000D03*
X99218750Y-68075000D03*
X99218750Y-71625000D03*
X118268750Y-71625000D03*
X118268750Y-68075000D03*
X137318750Y-68075000D03*
X137318750Y-71625000D03*
X161131250Y-68075000D03*
X161131250Y-71625000D03*
X180181250Y-71625000D03*
X180181250Y-68075000D03*
X80168750Y-90675000D03*
X80168750Y-87125000D03*
X103981250Y-90675000D03*
X103981250Y-87125000D03*
X123031250Y-87125000D03*
X123031250Y-90675000D03*
X142081250Y-90675000D03*
X142081250Y-87125000D03*
X165893750Y-90675000D03*
X165893750Y-87125000D03*
X184943750Y-87125000D03*
X184943750Y-90675000D03*
X77787500Y-106175000D03*
X77787500Y-109725000D03*
X103981250Y-109725000D03*
X103981250Y-106175000D03*
X123031250Y-109725000D03*
X123031250Y-106175000D03*
X142081250Y-106175000D03*
X142081250Y-109725000D03*
X165893750Y-106175000D03*
X165893750Y-109725000D03*
X184943750Y-106175000D03*
X184943750Y-109725000D03*
X77787500Y-125225000D03*
X77787500Y-128775000D03*
X99218750Y-125225000D03*
X99218750Y-128775000D03*
X118268750Y-125225000D03*
X118268750Y-128775000D03*
X137318750Y-125225000D03*
X137318750Y-128775000D03*
X156368750Y-128775000D03*
X156368750Y-125225000D03*
X175418750Y-128775000D03*
X175418750Y-125225000D03*
X151606250Y-144275000D03*
X151606250Y-147825000D03*
X177800000Y-144275000D03*
X177800000Y-147825000D03*
D12*
X209801000Y-152463500D03*
X206251000Y-152463500D03*
D13*
X219997750Y-108716500D03*
X216997750Y-108716500D03*
X212997750Y-108716500D03*
X211497750Y-104516500D03*
D14*
X203614250Y-146450500D03*
X202214250Y-146450500D03*
X203614250Y-140950500D03*
X202214250Y-140950500D03*
D15*
X183813000Y-141670000D03*
X183813000Y-140270000D03*
X189313000Y-141670000D03*
X189313000Y-140270000D03*
X181431750Y-122620000D03*
X181431750Y-121220000D03*
X186931750Y-122620000D03*
X186931750Y-121220000D03*
X196456750Y-102170000D03*
X196456750Y-103570000D03*
X190956750Y-102170000D03*
X190956750Y-103570000D03*
X190956750Y-84520000D03*
X190956750Y-83120000D03*
X196456750Y-84520000D03*
X196456750Y-83120000D03*
X191694250Y-64070000D03*
X191694250Y-65470000D03*
X186194250Y-64070000D03*
X186194250Y-65470000D03*
X167144250Y-65470000D03*
X167144250Y-64070000D03*
X172644250Y-65470000D03*
X172644250Y-64070000D03*
X177406750Y-83120000D03*
X177406750Y-84520000D03*
X171906750Y-83120000D03*
X171906750Y-84520000D03*
X171906750Y-103570000D03*
X171906750Y-102170000D03*
X177406750Y-103570000D03*
X177406750Y-102170000D03*
X167881750Y-121220000D03*
X167881750Y-122620000D03*
X162381750Y-121220000D03*
X162381750Y-122620000D03*
X157619250Y-141670000D03*
X157619250Y-140270000D03*
X163119250Y-141670000D03*
X163119250Y-140270000D03*
X148831750Y-121220000D03*
X148831750Y-122620000D03*
X143331750Y-121220000D03*
X143331750Y-122620000D03*
X148094250Y-103570000D03*
X148094250Y-102170000D03*
X153594250Y-103570000D03*
X153594250Y-102170000D03*
X153594250Y-83120000D03*
X153594250Y-84520000D03*
X148094250Y-83120000D03*
X148094250Y-84520000D03*
X143331750Y-65470000D03*
X143331750Y-64070000D03*
X148831750Y-65470000D03*
X148831750Y-64070000D03*
X129781750Y-64070000D03*
X129781750Y-65470000D03*
X124281750Y-64070000D03*
X124281750Y-65470000D03*
X129044250Y-84520000D03*
X129044250Y-83120000D03*
X134544250Y-84520000D03*
X134544250Y-83120000D03*
X134544250Y-102170000D03*
X134544250Y-103570000D03*
X129044250Y-102170000D03*
X129044250Y-103570000D03*
X129781750Y-121220000D03*
X129781750Y-122620000D03*
X124281750Y-121220000D03*
X124281750Y-122620000D03*
X110731750Y-121220000D03*
X110731750Y-122620000D03*
X105231750Y-121220000D03*
X105231750Y-122620000D03*
X109994250Y-103570000D03*
X109994250Y-102170000D03*
X115494250Y-103570000D03*
X115494250Y-102170000D03*
X115494250Y-83120000D03*
X115494250Y-84520000D03*
X109994250Y-83120000D03*
X109994250Y-84520000D03*
X105231750Y-65470000D03*
X105231750Y-64070000D03*
X110731750Y-65470000D03*
X110731750Y-64070000D03*
X91681750Y-64070000D03*
X91681750Y-65470000D03*
X86181750Y-64070000D03*
X86181750Y-65470000D03*
X86181750Y-84520000D03*
X86181750Y-83120000D03*
X91681750Y-84520000D03*
X91681750Y-83120000D03*
X83800500Y-103570000D03*
X83800500Y-102170000D03*
X89300500Y-103570000D03*
X89300500Y-102170000D03*
X83800500Y-122620000D03*
X83800500Y-121220000D03*
X89300500Y-122620000D03*
X89300500Y-121220000D03*
D16*
X210153250Y-98679000D03*
X212693250Y-98679000D03*
X215233250Y-98679000D03*
X217773250Y-98679000D03*
D17*
X221583250Y-95683000D03*
X221583250Y-102183000D03*
D10*
X83089750Y-74930000D03*
X96016750Y-72390000D03*
X102139750Y-74930000D03*
X115066750Y-72390000D03*
X134116750Y-72390000D03*
X121189750Y-74930000D03*
X153166750Y-72390000D03*
X140239750Y-74930000D03*
X176979250Y-72390000D03*
X164052250Y-74930000D03*
X196029250Y-72390000D03*
X183102250Y-74930000D03*
X96016750Y-91440000D03*
X83089750Y-93980000D03*
X119829250Y-91440000D03*
X106902250Y-93980000D03*
X125952250Y-93980000D03*
X138879250Y-91440000D03*
X200791750Y-91440000D03*
X187864750Y-93980000D03*
X93635500Y-110490000D03*
X80708500Y-113030000D03*
X125952250Y-113030000D03*
X138879250Y-110490000D03*
X145002250Y-113030000D03*
X157929250Y-110490000D03*
X168814750Y-113030000D03*
X181741750Y-110490000D03*
X187864750Y-113030000D03*
X200791750Y-110490000D03*
X93635500Y-129540000D03*
X80708500Y-132080000D03*
X102139750Y-132080000D03*
X115066750Y-129540000D03*
X134116750Y-129540000D03*
X121189750Y-132080000D03*
X153166750Y-129540000D03*
X140239750Y-132080000D03*
X191266750Y-129540000D03*
X178339750Y-132080000D03*
X167454250Y-148590000D03*
X154527250Y-151130000D03*
X193675000Y-148590000D03*
X180748000Y-151130000D03*
D18*
X210521550Y-136596450D03*
X213061550Y-149523450D03*
D19*
X221574650Y-64135000D03*
X221574650Y-66675000D03*
X221574650Y-69215000D03*
X221574650Y-71755000D03*
X221574650Y-74295000D03*
X221574650Y-76835000D03*
X221574650Y-79375000D03*
X221574650Y-81915000D03*
X221574650Y-84455000D03*
X221574650Y-86995000D03*
X221574650Y-89535000D03*
X221574650Y-92075000D03*
X206354650Y-92075000D03*
X206354650Y-89535000D03*
X206354650Y-86995000D03*
X206354650Y-84455000D03*
X206354650Y-81915000D03*
X206354650Y-79375000D03*
X206354650Y-76835000D03*
X206354650Y-74295000D03*
X206354650Y-71755000D03*
X206354650Y-69215000D03*
X206354650Y-66675000D03*
X206354650Y-64135000D03*
D20*
X213868000Y-124460000D03*
X216127500Y-97066902D03*
X205295500Y-150177500D03*
X203390500Y-152463500D03*
X194818000Y-143129000D03*
X222377000Y-110680500D03*
X216852500Y-71628000D03*
X203644500Y-136652000D03*
X216997750Y-117393250D03*
X216852500Y-95504000D03*
X216852500Y-78041500D03*
X181991000Y-64071500D03*
X186690000Y-83121500D03*
X177292000Y-121221500D03*
X186690000Y-102171500D03*
X167576500Y-102171500D03*
X162877500Y-64071500D03*
X167576500Y-83121500D03*
X143764000Y-102171500D03*
X139065000Y-64071500D03*
X143764000Y-83121500D03*
X139192000Y-121221500D03*
X124015500Y-102235000D03*
X119316500Y-64135000D03*
X124015500Y-83185000D03*
X119443500Y-121285000D03*
X203898500Y-71818500D03*
X79629000Y-121221500D03*
X79565500Y-102235000D03*
X82576749Y-83158251D03*
X82576749Y-64044751D03*
X101155500Y-121221500D03*
X105727500Y-102171500D03*
X105727500Y-83121500D03*
X101028500Y-64071500D03*
X153416000Y-140271500D03*
X158178500Y-121221500D03*
X179514500Y-140271500D03*
X198501000Y-146494500D03*
X197485000Y-148971000D03*
X194945000Y-138239500D03*
X202247500Y-138303000D03*
X218821000Y-111760000D03*
X189611000Y-121729500D03*
X180595500Y-141670000D03*
X178816000Y-122618500D03*
X199263000Y-101028500D03*
X188404500Y-103568500D03*
X199072500Y-83121500D03*
X188595000Y-84518500D03*
X194818000Y-64071500D03*
X178879500Y-65468500D03*
X177990500Y-62801500D03*
X164401500Y-65468500D03*
X180149500Y-83121500D03*
X169100500Y-84518500D03*
X180403500Y-102171500D03*
X169418000Y-103568500D03*
X170942000Y-121221500D03*
X159575500Y-122555000D03*
X165608000Y-140271500D03*
X151955500Y-140906500D03*
X151574500Y-121221500D03*
X140271500Y-122491500D03*
X156337000Y-102171500D03*
X145224500Y-103568500D03*
X156400500Y-83121500D03*
X145224500Y-84518500D03*
X151574500Y-64071500D03*
X135382000Y-65468500D03*
X134048500Y-62611000D03*
X121602500Y-66167000D03*
X137731500Y-83121500D03*
X125857000Y-84518500D03*
X137287000Y-102171500D03*
X126047500Y-103568500D03*
X132969000Y-121221500D03*
X116649500Y-122999500D03*
X116395500Y-118999000D03*
X102425500Y-122618500D03*
X118300500Y-102171500D03*
X107442000Y-103568500D03*
X118046500Y-83121500D03*
X107188000Y-84582000D03*
X113411000Y-64071500D03*
X97091500Y-65976500D03*
X96012000Y-62293500D03*
X83820000Y-65468500D03*
X94234000Y-83121500D03*
X83756500Y-84518500D03*
X92075000Y-102171500D03*
X80772000Y-103568500D03*
X92329000Y-121221500D03*
X209677000Y-76771500D03*
X214058500Y-75819000D03*
X214503000Y-72326500D03*
X214058500Y-84074000D03*
X219800000Y-82931000D03*
X96583500Y-128905000D03*
X98488500Y-74676000D03*
X98488500Y-92773500D03*
X96583500Y-111252000D03*
X202565000Y-73469500D03*
X115570000Y-126619000D03*
X115062000Y-75120500D03*
X202438000Y-80581500D03*
X190563500Y-80581500D03*
X187261500Y-77597000D03*
X121475500Y-113601500D03*
X121475500Y-94361000D03*
X135826500Y-126555500D03*
X136779000Y-74930000D03*
X141224000Y-93789500D03*
X141224000Y-112839500D03*
X141224000Y-85788500D03*
X157924500Y-113919000D03*
X167513000Y-136461500D03*
X167513000Y-145288000D03*
X155194000Y-132842000D03*
X160972500Y-94488000D03*
X158178500Y-73850500D03*
X177101500Y-75184000D03*
X193738500Y-135763000D03*
X193738500Y-145415000D03*
X174244000Y-135763000D03*
X183705500Y-94615000D03*
X182372000Y-113538000D03*
X200723500Y-129540000D03*
X195961000Y-74866500D03*
X204025500Y-91440000D03*
X204343000Y-109410500D03*
D21*
X98618749Y-67474999D02*
X99218750Y-68075000D01*
X87791749Y-67474999D02*
X98618749Y-67474999D01*
X87191748Y-68075000D02*
X87791749Y-67474999D01*
X80168750Y-68075000D02*
X87191748Y-68075000D01*
X117668749Y-67474999D02*
X118268750Y-68075000D01*
X99818751Y-67474999D02*
X117668749Y-67474999D01*
X99218750Y-68075000D02*
X99818751Y-67474999D01*
X136718749Y-67474999D02*
X137318750Y-68075000D01*
X125291748Y-68075000D02*
X125891749Y-67474999D01*
X125891749Y-67474999D02*
X136718749Y-67474999D01*
X118268750Y-68075000D02*
X125291748Y-68075000D01*
X160531249Y-67474999D02*
X161131250Y-68075000D01*
X137918751Y-67474999D02*
X160531249Y-67474999D01*
X137318750Y-68075000D02*
X137918751Y-67474999D01*
X179581249Y-67474999D02*
X180181250Y-68075000D01*
X168754249Y-67474999D02*
X179581249Y-67474999D01*
X168154248Y-68075000D02*
X168754249Y-67474999D01*
X161131250Y-68075000D02*
X168154248Y-68075000D01*
X221574650Y-81690648D02*
X221574650Y-81915000D01*
X206198887Y-68127999D02*
X208012001Y-68127999D01*
X205545887Y-67474999D02*
X206198887Y-68127999D01*
X180781251Y-67474999D02*
X205545887Y-67474999D01*
X208012001Y-68127999D02*
X221574650Y-81690648D01*
X180181250Y-68075000D02*
X180781251Y-67474999D01*
X83089750Y-74546000D02*
X80168750Y-71625000D01*
X83089750Y-74930000D02*
X83089750Y-74546000D01*
X102139750Y-74546000D02*
X99218750Y-71625000D01*
X102139750Y-74930000D02*
X102139750Y-74546000D01*
X121189750Y-74546000D02*
X118268750Y-71625000D01*
X121189750Y-74930000D02*
X121189750Y-74546000D01*
X140239750Y-74546000D02*
X137318750Y-71625000D01*
X140239750Y-74930000D02*
X140239750Y-74546000D01*
X161131250Y-72009000D02*
X164052250Y-74930000D01*
X161131250Y-71625000D02*
X161131250Y-72009000D01*
X180181250Y-72009000D02*
X183102250Y-74930000D01*
X180181250Y-71625000D02*
X180181250Y-72009000D01*
X80168750Y-91059000D02*
X83089750Y-93980000D01*
X80168750Y-90675000D02*
X80168750Y-91059000D01*
X103381249Y-86524999D02*
X103981250Y-87125000D01*
X87791749Y-86524999D02*
X103381249Y-86524999D01*
X87191748Y-87125000D02*
X87791749Y-86524999D01*
X80168750Y-87125000D02*
X87191748Y-87125000D01*
X122431249Y-86524999D02*
X123031250Y-87125000D01*
X104581251Y-86524999D02*
X122431249Y-86524999D01*
X103981250Y-87125000D02*
X104581251Y-86524999D01*
X141481249Y-86524999D02*
X142081250Y-87125000D01*
X130654249Y-86524999D02*
X141481249Y-86524999D01*
X130054248Y-87125000D02*
X130654249Y-86524999D01*
X123031250Y-87125000D02*
X130054248Y-87125000D01*
X165293749Y-86524999D02*
X165893750Y-87125000D01*
X149704249Y-86524999D02*
X165293749Y-86524999D01*
X149104248Y-87125000D02*
X149704249Y-86524999D01*
X142081250Y-87125000D02*
X149104248Y-87125000D01*
X184343749Y-86524999D02*
X184943750Y-87125000D01*
X172916748Y-87125000D02*
X173516749Y-86524999D01*
X173516749Y-86524999D02*
X184343749Y-86524999D01*
X165893750Y-87125000D02*
X172916748Y-87125000D01*
X220487649Y-85542001D02*
X221574650Y-84455000D01*
X205267649Y-86524999D02*
X206250647Y-85542001D01*
X185543751Y-86524999D02*
X205267649Y-86524999D01*
X206250647Y-85542001D02*
X220487649Y-85542001D01*
X184943750Y-87125000D02*
X185543751Y-86524999D01*
X106902250Y-93596000D02*
X103981250Y-90675000D01*
X106902250Y-93980000D02*
X106902250Y-93596000D01*
X123031250Y-91059000D02*
X125952250Y-93980000D01*
X123031250Y-90675000D02*
X123031250Y-91059000D01*
X142081250Y-91059000D02*
X145002250Y-93980000D01*
X165893750Y-91059000D02*
X168814750Y-93980000D01*
X165893750Y-90675000D02*
X165893750Y-91059000D01*
X184943750Y-91059000D02*
X187864750Y-93980000D01*
X184943750Y-90675000D02*
X184943750Y-91059000D01*
X80708500Y-112646000D02*
X77787500Y-109725000D01*
X80708500Y-113030000D02*
X80708500Y-112646000D01*
X103381249Y-105574999D02*
X103981250Y-106175000D01*
X85410499Y-105574999D02*
X103381249Y-105574999D01*
X84810498Y-106175000D02*
X85410499Y-105574999D01*
X77787500Y-106175000D02*
X84810498Y-106175000D01*
X122431249Y-105574999D02*
X123031250Y-106175000D01*
X111604249Y-105574999D02*
X122431249Y-105574999D01*
X111004248Y-106175000D02*
X111604249Y-105574999D01*
X103981250Y-106175000D02*
X111004248Y-106175000D01*
X141481249Y-105574999D02*
X142081250Y-106175000D01*
X130654249Y-105574999D02*
X141481249Y-105574999D01*
X130054248Y-106175000D02*
X130654249Y-105574999D01*
X123031250Y-106175000D02*
X130054248Y-106175000D01*
X165293749Y-105574999D02*
X165893750Y-106175000D01*
X149704249Y-105574999D02*
X165293749Y-105574999D01*
X149104248Y-106175000D02*
X149704249Y-105574999D01*
X142081250Y-106175000D02*
X149104248Y-106175000D01*
X184343749Y-105574999D02*
X184943750Y-106175000D01*
X173516749Y-105574999D02*
X184343749Y-105574999D01*
X172916748Y-106175000D02*
X173516749Y-105574999D01*
X165893750Y-106175000D02*
X172916748Y-106175000D01*
X217200501Y-96229001D02*
X217741500Y-95688002D01*
X209078999Y-96229001D02*
X217200501Y-96229001D01*
X199733001Y-105574999D02*
X209078999Y-96229001D01*
X185543751Y-105574999D02*
X199733001Y-105574999D01*
X184943750Y-106175000D02*
X185543751Y-105574999D01*
X217741500Y-90828150D02*
X221574650Y-86995000D01*
X217741500Y-95688002D02*
X217741500Y-90828150D01*
X106902250Y-112646000D02*
X103981250Y-109725000D01*
X106902250Y-113030000D02*
X106902250Y-112646000D01*
X125952250Y-112646000D02*
X123031250Y-109725000D01*
X125952250Y-113030000D02*
X125952250Y-112646000D01*
X145002250Y-112646000D02*
X142081250Y-109725000D01*
X145002250Y-113030000D02*
X145002250Y-112646000D01*
X168814750Y-112646000D02*
X165893750Y-109725000D01*
X168814750Y-113030000D02*
X168814750Y-112646000D01*
X187864750Y-112646000D02*
X184943750Y-109725000D01*
X187864750Y-113030000D02*
X187864750Y-112646000D01*
X98618749Y-124624999D02*
X99218750Y-125225000D01*
X85410499Y-124624999D02*
X98618749Y-124624999D01*
X84810498Y-125225000D02*
X85410499Y-124624999D01*
X77787500Y-125225000D02*
X84810498Y-125225000D01*
X117668749Y-124624999D02*
X118268750Y-125225000D01*
X106841749Y-124624999D02*
X117668749Y-124624999D01*
X106241748Y-125225000D02*
X106841749Y-124624999D01*
X99218750Y-125225000D02*
X106241748Y-125225000D01*
X136718749Y-124624999D02*
X137318750Y-125225000D01*
X125891749Y-124624999D02*
X136718749Y-124624999D01*
X125291748Y-125225000D02*
X125891749Y-124624999D01*
X118268750Y-125225000D02*
X125291748Y-125225000D01*
X155768749Y-124624999D02*
X156368750Y-125225000D01*
X144941749Y-124624999D02*
X155768749Y-124624999D01*
X144341748Y-125225000D02*
X144941749Y-124624999D01*
X137318750Y-125225000D02*
X144341748Y-125225000D01*
X174818749Y-124624999D02*
X175418750Y-125225000D01*
X163991749Y-124624999D02*
X174818749Y-124624999D01*
X163391748Y-125225000D02*
X163991749Y-124624999D01*
X156368750Y-125225000D02*
X163391748Y-125225000D01*
X216999010Y-97066902D02*
X218757500Y-95308412D01*
X216127500Y-97066902D02*
X216999010Y-97066902D01*
X218757500Y-92352150D02*
X221574650Y-89535000D01*
X218757500Y-95308412D02*
X218757500Y-92352150D01*
X213487000Y-124079000D02*
X213868000Y-124460000D01*
X176564750Y-124079000D02*
X213487000Y-124079000D01*
X175418750Y-125225000D02*
X176564750Y-124079000D01*
X77787500Y-129159000D02*
X80708500Y-132080000D01*
X77787500Y-128775000D02*
X77787500Y-129159000D01*
X99218750Y-129159000D02*
X102139750Y-132080000D01*
X99218750Y-128775000D02*
X99218750Y-129159000D01*
X118268750Y-129159000D02*
X121189750Y-132080000D01*
X118268750Y-128775000D02*
X118268750Y-129159000D01*
X137318750Y-129159000D02*
X140239750Y-132080000D01*
X137318750Y-128775000D02*
X137318750Y-129159000D01*
X156368750Y-129159000D02*
X159289750Y-132080000D01*
X156368750Y-128775000D02*
X156368750Y-129159000D01*
X175418750Y-129159000D02*
X178339750Y-132080000D01*
X175418750Y-128775000D02*
X175418750Y-129159000D01*
X177199999Y-143674999D02*
X177800000Y-144275000D01*
X159229249Y-143674999D02*
X177199999Y-143674999D01*
X158629248Y-144275000D02*
X159229249Y-143674999D01*
X151606250Y-144275000D02*
X158629248Y-144275000D01*
X203396998Y-152463500D02*
X206251000Y-152463500D01*
X184849998Y-144275000D02*
X185995998Y-143129000D01*
X177800000Y-144275000D02*
X184849998Y-144275000D01*
X206251000Y-151133000D02*
X205295500Y-150177500D01*
X206251000Y-152463500D02*
X206251000Y-151133000D01*
X203396998Y-152463500D02*
X203390500Y-152463500D01*
X194818000Y-143129000D02*
X185995998Y-143129000D01*
X151606250Y-148209000D02*
X154527250Y-151130000D01*
X151606250Y-147825000D02*
X151606250Y-148209000D01*
X177800000Y-148182000D02*
X180748000Y-151130000D01*
X177800000Y-147825000D02*
X177800000Y-148182000D01*
X212741050Y-149523450D02*
X209801000Y-152463500D01*
X213061550Y-149523450D02*
X212741050Y-149523450D01*
X220413000Y-108716500D02*
X219997750Y-108716500D01*
X222377000Y-110680500D02*
X220413000Y-108716500D01*
X221574650Y-71755000D02*
X221574650Y-69215000D01*
X206354650Y-66675000D02*
X200342500Y-60662850D01*
X94717700Y-65470000D02*
X91681750Y-65470000D01*
X99524850Y-60662850D02*
X94717700Y-65470000D01*
X114235000Y-65470000D02*
X119042150Y-60662850D01*
X110731750Y-65470000D02*
X114235000Y-65470000D01*
X119042150Y-60662850D02*
X99524850Y-60662850D01*
X133539000Y-65470000D02*
X138346150Y-60662850D01*
X129781750Y-65470000D02*
X133539000Y-65470000D01*
X138346150Y-60662850D02*
X119042150Y-60662850D01*
X152248700Y-65470000D02*
X157055850Y-60662850D01*
X157055850Y-60662850D02*
X138346150Y-60662850D01*
X148831750Y-65470000D02*
X152248700Y-65470000D01*
X176569200Y-65470000D02*
X181376350Y-60662850D01*
X172644250Y-65470000D02*
X176569200Y-65470000D01*
X195365200Y-65470000D02*
X200172350Y-60662850D01*
X191694250Y-65470000D02*
X195365200Y-65470000D01*
X200172350Y-60662850D02*
X181376350Y-60662850D01*
X200342500Y-60662850D02*
X200172350Y-60662850D01*
X181376350Y-60662850D02*
X158539150Y-60662850D01*
X158539150Y-60662850D02*
X157055850Y-60662850D01*
X168945760Y-141670000D02*
X163119250Y-141670000D01*
X174008630Y-136607130D02*
X168945760Y-141670000D01*
X193229000Y-141670000D02*
X198291870Y-136607130D01*
X189313000Y-141670000D02*
X193229000Y-141670000D01*
X203614250Y-139860250D02*
X203614250Y-140950500D01*
X93407000Y-122620000D02*
X89300500Y-122620000D01*
X98615500Y-117411500D02*
X93407000Y-122620000D01*
X114806500Y-122620000D02*
X120015000Y-117411500D01*
X110731750Y-122620000D02*
X114806500Y-122620000D01*
X120015000Y-117411500D02*
X98615500Y-117411500D01*
X134174000Y-122620000D02*
X139382500Y-117411500D01*
X129781750Y-122620000D02*
X134174000Y-122620000D01*
X139382500Y-117411500D02*
X120015000Y-117411500D01*
X153097000Y-122620000D02*
X158305500Y-117411500D01*
X148831750Y-122620000D02*
X153097000Y-122620000D01*
X158305500Y-117411500D02*
X139382500Y-117411500D01*
X167881750Y-122620000D02*
X172210500Y-122620000D01*
X172210500Y-122620000D02*
X177419000Y-117411500D01*
X177419000Y-117411500D02*
X158305500Y-117411500D01*
X186931750Y-122620000D02*
X190816000Y-122620000D01*
X196024500Y-117411500D02*
X177419000Y-117411500D01*
X190816000Y-122620000D02*
X196024500Y-117411500D01*
X94486691Y-84520000D02*
X99884463Y-79122228D01*
X99884463Y-79122228D02*
X99884463Y-79121000D01*
X91681750Y-84520000D02*
X94486691Y-84520000D01*
X119759500Y-84520000D02*
X125158500Y-79121000D01*
X125158500Y-79121000D02*
X99884463Y-79121000D01*
X115494250Y-84520000D02*
X119759500Y-84520000D01*
X138873000Y-84520000D02*
X144272000Y-79121000D01*
X134544250Y-84520000D02*
X138873000Y-84520000D01*
X144272000Y-79121000D02*
X125158500Y-79121000D01*
X157859500Y-84520000D02*
X163258500Y-79121000D01*
X153594250Y-84520000D02*
X157859500Y-84520000D01*
X163258500Y-79121000D02*
X144272000Y-79121000D01*
X181735500Y-84520000D02*
X187134500Y-79121000D01*
X177406750Y-84520000D02*
X181735500Y-84520000D01*
X187134500Y-79121000D02*
X163258500Y-79121000D01*
X95211118Y-103570000D02*
X100501809Y-98279309D01*
X89300500Y-103570000D02*
X95211118Y-103570000D01*
X115494250Y-103570000D02*
X119759500Y-103570000D01*
X125050191Y-98279309D02*
X100501809Y-98279309D01*
X119759500Y-103570000D02*
X125050191Y-98279309D01*
X138899118Y-103570000D02*
X144189809Y-98279309D01*
X134544250Y-103570000D02*
X138899118Y-103570000D01*
X144189809Y-98279309D02*
X125050191Y-98279309D01*
X156417409Y-103570000D02*
X159848191Y-100139218D01*
X153594250Y-103570000D02*
X156417409Y-103570000D01*
X159848191Y-98279309D02*
X144189809Y-98279309D01*
X159848191Y-100139218D02*
X159848191Y-98279309D01*
X181735500Y-103570000D02*
X187026191Y-98279309D01*
X177406750Y-103570000D02*
X181735500Y-103570000D01*
X203054309Y-98279309D02*
X187026191Y-98279309D01*
X216979500Y-71755000D02*
X216852500Y-71628000D01*
X221574650Y-71755000D02*
X216979500Y-71755000D01*
X198101370Y-136607130D02*
X174008630Y-136607130D01*
X198146240Y-136652000D02*
X198101370Y-136607130D01*
X203644500Y-136652000D02*
X198146240Y-136652000D01*
X198291870Y-136607130D02*
X198101370Y-136607130D01*
X203644500Y-140920250D02*
X203614250Y-140950500D01*
X203644500Y-136652000D02*
X203644500Y-140920250D01*
X211899500Y-66675000D02*
X206354650Y-66675000D01*
X216852500Y-71628000D02*
X211899500Y-66675000D01*
X216979500Y-117411500D02*
X216997750Y-117393250D01*
X196024500Y-117411500D02*
X216979500Y-117411500D01*
X205829618Y-95504000D02*
X216852500Y-95504000D01*
X203054309Y-98279309D02*
X205829618Y-95504000D01*
X197763618Y-103570000D02*
X203054309Y-98279309D01*
X196456750Y-103570000D02*
X197763618Y-103570000D01*
X204999888Y-79121000D02*
X206079388Y-78041500D01*
X187134500Y-79121000D02*
X204999888Y-79121000D01*
X206079388Y-78041500D02*
X216852500Y-78041500D01*
X199600888Y-84520000D02*
X204999888Y-79121000D01*
X196456750Y-84520000D02*
X199600888Y-84520000D01*
X160782000Y-97345500D02*
X159848191Y-98279309D01*
X186092382Y-97345500D02*
X160782000Y-97345500D01*
X187026191Y-98279309D02*
X186092382Y-97345500D01*
X203962000Y-71755000D02*
X203898500Y-71818500D01*
X206354650Y-71755000D02*
X203962000Y-71755000D01*
X145988000Y-83120000D02*
X145986500Y-83121500D01*
X107761000Y-102170000D02*
X107759500Y-102171500D01*
X126874500Y-102170000D02*
X126873000Y-102171500D01*
X145924500Y-102170000D02*
X145923000Y-102171500D01*
X83799000Y-121221500D02*
X83800500Y-121220000D01*
X79629000Y-121221500D02*
X83799000Y-121221500D01*
X79630500Y-102170000D02*
X79565500Y-102235000D01*
X83800500Y-102170000D02*
X79630500Y-102170000D01*
X82615000Y-83120000D02*
X82576749Y-83158251D01*
X86181750Y-83120000D02*
X82615000Y-83120000D01*
X82601998Y-64070000D02*
X82576749Y-64044751D01*
X86181750Y-64070000D02*
X82601998Y-64070000D01*
X105230250Y-121221500D02*
X105231750Y-121220000D01*
X101155500Y-121221500D02*
X105230250Y-121221500D01*
X105729000Y-102170000D02*
X105727500Y-102171500D01*
X109994250Y-102170000D02*
X105729000Y-102170000D01*
X105729000Y-83120000D02*
X105727500Y-83121500D01*
X109994250Y-83120000D02*
X105729000Y-83120000D01*
X101030000Y-64070000D02*
X101028500Y-64071500D01*
X105231750Y-64070000D02*
X101030000Y-64070000D01*
X124216750Y-64135000D02*
X124281750Y-64070000D01*
X119316500Y-64135000D02*
X124216750Y-64135000D01*
X124080500Y-83120000D02*
X124015500Y-83185000D01*
X129044250Y-83120000D02*
X124080500Y-83120000D01*
X124080500Y-102170000D02*
X124015500Y-102235000D01*
X129044250Y-102170000D02*
X124080500Y-102170000D01*
X119508500Y-121220000D02*
X119443500Y-121285000D01*
X124281750Y-121220000D02*
X119508500Y-121220000D01*
X139066500Y-64070000D02*
X139065000Y-64071500D01*
X143331750Y-64070000D02*
X139066500Y-64070000D01*
X143765500Y-83120000D02*
X143764000Y-83121500D01*
X148094250Y-83120000D02*
X143765500Y-83120000D01*
X143765500Y-102170000D02*
X143764000Y-102171500D01*
X148094250Y-102170000D02*
X143765500Y-102170000D01*
X139193500Y-121220000D02*
X139192000Y-121221500D01*
X143331750Y-121220000D02*
X139193500Y-121220000D01*
X162879000Y-64070000D02*
X162877500Y-64071500D01*
X167144250Y-64070000D02*
X162879000Y-64070000D01*
X167578000Y-83120000D02*
X167576500Y-83121500D01*
X171906750Y-83120000D02*
X167578000Y-83120000D01*
X158180000Y-121220000D02*
X158178500Y-121221500D01*
X162381750Y-121220000D02*
X158180000Y-121220000D01*
X167578000Y-102170000D02*
X167576500Y-102171500D01*
X171906750Y-102170000D02*
X167578000Y-102170000D01*
X181992500Y-64070000D02*
X181991000Y-64071500D01*
X186194250Y-64070000D02*
X181992500Y-64070000D01*
X186691500Y-83120000D02*
X186690000Y-83121500D01*
X190956750Y-83120000D02*
X186691500Y-83120000D01*
X186691500Y-102170000D02*
X186690000Y-102171500D01*
X190956750Y-102170000D02*
X186691500Y-102170000D01*
X180330250Y-121221500D02*
X177292000Y-121221500D01*
X180331750Y-121220000D02*
X180330250Y-121221500D01*
X181431750Y-121220000D02*
X180331750Y-121220000D01*
X153417500Y-140270000D02*
X153416000Y-140271500D01*
X157619250Y-140270000D02*
X153417500Y-140270000D01*
X183811500Y-140271500D02*
X183813000Y-140270000D01*
X179514500Y-140271500D02*
X183811500Y-140271500D01*
X202170250Y-146494500D02*
X202214250Y-146450500D01*
X198501000Y-146494500D02*
X202170250Y-146494500D01*
X203614250Y-146450500D02*
X203614250Y-147858250D01*
X202501500Y-148971000D02*
X197485000Y-148971000D01*
X203614250Y-147858250D02*
X202501500Y-148971000D01*
X192914500Y-140270000D02*
X189313000Y-140270000D01*
X194945000Y-138239500D02*
X192914500Y-140270000D01*
X202214250Y-138336250D02*
X202247500Y-138303000D01*
X202214250Y-140950500D02*
X202214250Y-138336250D01*
X223102001Y-65662351D02*
X221574650Y-64135000D01*
X223102001Y-111028501D02*
X223102001Y-65662351D01*
X222370502Y-111760000D02*
X223102001Y-111028501D01*
X218821000Y-111760000D02*
X222370502Y-111760000D01*
X183813000Y-141670000D02*
X183767500Y-141670000D01*
X189101500Y-121220000D02*
X186931750Y-121220000D01*
X189611000Y-121729500D02*
X189101500Y-121220000D01*
X183813000Y-141670000D02*
X180595500Y-141670000D01*
X178817500Y-122620000D02*
X178816000Y-122618500D01*
X181431750Y-122620000D02*
X178817500Y-122620000D01*
X198121500Y-102170000D02*
X196456750Y-102170000D01*
X199263000Y-101028500D02*
X198121500Y-102170000D01*
X188406000Y-103570000D02*
X188404500Y-103568500D01*
X190956750Y-103570000D02*
X188406000Y-103570000D01*
X196458250Y-83121500D02*
X196456750Y-83120000D01*
X199072500Y-83121500D02*
X196458250Y-83121500D01*
X188596500Y-84520000D02*
X188595000Y-84518500D01*
X190956750Y-84520000D02*
X188596500Y-84520000D01*
X191695750Y-64071500D02*
X191694250Y-64070000D01*
X194818000Y-64071500D02*
X191695750Y-64071500D01*
X186194250Y-65470000D02*
X186194250Y-65456250D01*
X186182000Y-65468500D02*
X178879500Y-65468500D01*
X186194250Y-65456250D02*
X186182000Y-65468500D01*
X176722000Y-64070000D02*
X172644250Y-64070000D01*
X177990500Y-62801500D02*
X176722000Y-64070000D01*
X164403000Y-65470000D02*
X164401500Y-65468500D01*
X167144250Y-65470000D02*
X164403000Y-65470000D01*
X177408250Y-83121500D02*
X177406750Y-83120000D01*
X180149500Y-83121500D02*
X177408250Y-83121500D01*
X169102000Y-84520000D02*
X169100500Y-84518500D01*
X171906750Y-84520000D02*
X169102000Y-84520000D01*
X177408250Y-102171500D02*
X177406750Y-102170000D01*
X180403500Y-102171500D02*
X177408250Y-102171500D01*
X169419500Y-103570000D02*
X169418000Y-103568500D01*
X171906750Y-103570000D02*
X169419500Y-103570000D01*
X167883250Y-121221500D02*
X167881750Y-121220000D01*
X170942000Y-121221500D02*
X167883250Y-121221500D01*
X159640500Y-122620000D02*
X159575500Y-122555000D01*
X162381750Y-122620000D02*
X159640500Y-122620000D01*
X163120750Y-140271500D02*
X163119250Y-140270000D01*
X165608000Y-140271500D02*
X163120750Y-140271500D01*
X152719000Y-141670000D02*
X151955500Y-140906500D01*
X157619250Y-141670000D02*
X152719000Y-141670000D01*
X148833250Y-121221500D02*
X148831750Y-121220000D01*
X151574500Y-121221500D02*
X148833250Y-121221500D01*
X140400000Y-122620000D02*
X140271500Y-122491500D01*
X143331750Y-122620000D02*
X140400000Y-122620000D01*
X153595750Y-102171500D02*
X153594250Y-102170000D01*
X156337000Y-102171500D02*
X153595750Y-102171500D01*
X148094250Y-103570000D02*
X148207500Y-103570000D01*
X148206000Y-103568500D02*
X145224500Y-103568500D01*
X148207500Y-103570000D02*
X148206000Y-103568500D01*
X153595750Y-83121500D02*
X153594250Y-83120000D01*
X156400500Y-83121500D02*
X153595750Y-83121500D01*
X145226000Y-84520000D02*
X145224500Y-84518500D01*
X148094250Y-84520000D02*
X145226000Y-84520000D01*
X148833250Y-64071500D02*
X148831750Y-64070000D01*
X151574500Y-64071500D02*
X148833250Y-64071500D01*
X135383500Y-65470000D02*
X135382000Y-65468500D01*
X143331750Y-65470000D02*
X135383500Y-65470000D01*
X132589500Y-64070000D02*
X129781750Y-64070000D01*
X134048500Y-62611000D02*
X132589500Y-64070000D01*
X122299500Y-65470000D02*
X121602500Y-66167000D01*
X124281750Y-65470000D02*
X122299500Y-65470000D01*
X134545750Y-83121500D02*
X134544250Y-83120000D01*
X137731500Y-83121500D02*
X134545750Y-83121500D01*
X125858500Y-84520000D02*
X125857000Y-84518500D01*
X129044250Y-84520000D02*
X125858500Y-84520000D01*
X134545750Y-102171500D02*
X134544250Y-102170000D01*
X137287000Y-102171500D02*
X134545750Y-102171500D01*
X126049000Y-103570000D02*
X126047500Y-103568500D01*
X129044250Y-103570000D02*
X126049000Y-103570000D01*
X129783250Y-121221500D02*
X129781750Y-121220000D01*
X132969000Y-121221500D02*
X129783250Y-121221500D01*
X117029000Y-122620000D02*
X116649500Y-122999500D01*
X124281750Y-122620000D02*
X117029000Y-122620000D01*
X114174500Y-121220000D02*
X110731750Y-121220000D01*
X116395500Y-118999000D02*
X114174500Y-121220000D01*
X102427000Y-122620000D02*
X102425500Y-122618500D01*
X105231750Y-122620000D02*
X102427000Y-122620000D01*
X115495750Y-102171500D02*
X115494250Y-102170000D01*
X118300500Y-102171500D02*
X115495750Y-102171500D01*
X107443500Y-103570000D02*
X107442000Y-103568500D01*
X109994250Y-103570000D02*
X107443500Y-103570000D01*
X115495750Y-83121500D02*
X115494250Y-83120000D01*
X118046500Y-83121500D02*
X115495750Y-83121500D01*
X107250000Y-84520000D02*
X107188000Y-84582000D01*
X109994250Y-84520000D02*
X107250000Y-84520000D01*
X110733250Y-64071500D02*
X110731750Y-64070000D01*
X113411000Y-64071500D02*
X110733250Y-64071500D01*
X97598000Y-65470000D02*
X97091500Y-65976500D01*
X105231750Y-65470000D02*
X97598000Y-65470000D01*
X94235500Y-64070000D02*
X91681750Y-64070000D01*
X96012000Y-62293500D02*
X94235500Y-64070000D01*
X83821500Y-65470000D02*
X83820000Y-65468500D01*
X86181750Y-65470000D02*
X83821500Y-65470000D01*
X91683250Y-83121500D02*
X91681750Y-83120000D01*
X94234000Y-83121500D02*
X91683250Y-83121500D01*
X83758000Y-84520000D02*
X83756500Y-84518500D01*
X86181750Y-84520000D02*
X83758000Y-84520000D01*
X89302000Y-102171500D02*
X89300500Y-102170000D01*
X92075000Y-102171500D02*
X89302000Y-102171500D01*
X80773500Y-103570000D02*
X80772000Y-103568500D01*
X83800500Y-103570000D02*
X80773500Y-103570000D01*
X89302000Y-121221500D02*
X89300500Y-121220000D01*
X92329000Y-121221500D02*
X89302000Y-121221500D01*
X210629500Y-75819000D02*
X214058500Y-75819000D01*
X209677000Y-76771500D02*
X210629500Y-75819000D01*
X216471500Y-74295000D02*
X221574650Y-74295000D01*
X214503000Y-72326500D02*
X216471500Y-74295000D01*
X215201500Y-82931000D02*
X219800000Y-82931000D01*
X214058500Y-84074000D02*
X215201500Y-82931000D01*
X95948500Y-129540000D02*
X96583500Y-128905000D01*
X93635500Y-129540000D02*
X95948500Y-129540000D01*
X96202500Y-72390000D02*
X96016750Y-72390000D01*
X98488500Y-74676000D02*
X96202500Y-72390000D01*
X95821500Y-110490000D02*
X96583500Y-111252000D01*
X93635500Y-110490000D02*
X95821500Y-110490000D01*
X97155000Y-91440000D02*
X98488500Y-92773500D01*
X96016750Y-91440000D02*
X97155000Y-91440000D01*
X202565000Y-73469500D02*
X201002081Y-73469500D01*
X201002081Y-73469500D02*
X195858581Y-78613000D01*
X102425500Y-78613000D02*
X98488500Y-74676000D01*
X195858581Y-78613000D02*
X102425500Y-78613000D01*
X115066750Y-127122250D02*
X115570000Y-126619000D01*
X115066750Y-129540000D02*
X115066750Y-127122250D01*
X119824500Y-110494750D02*
X119829250Y-110490000D01*
X119761000Y-91508250D02*
X119829250Y-91440000D01*
X115062000Y-72394750D02*
X115066750Y-72390000D01*
X115062000Y-75120500D02*
X115062000Y-72394750D01*
X202438000Y-80581500D02*
X190563500Y-80581500D01*
X117538500Y-77597000D02*
X115062000Y-75120500D01*
X187261500Y-77597000D02*
X117538500Y-77597000D01*
X121475500Y-113601500D02*
X120396000Y-113601500D01*
X119829250Y-113034750D02*
X119829250Y-110490000D01*
X120396000Y-113601500D02*
X119829250Y-113034750D01*
X119829250Y-92714750D02*
X121475500Y-94361000D01*
X119829250Y-91440000D02*
X119829250Y-92714750D01*
X134116750Y-128265250D02*
X135826500Y-126555500D01*
X134116750Y-129540000D02*
X134116750Y-128265250D01*
X134239000Y-72390000D02*
X134116750Y-72390000D01*
X136779000Y-74930000D02*
X134239000Y-72390000D01*
X138879250Y-91444750D02*
X141224000Y-93789500D01*
X138879250Y-91440000D02*
X138879250Y-91444750D01*
X138879250Y-110494750D02*
X141224000Y-112839500D01*
X138879250Y-110490000D02*
X138879250Y-110494750D01*
X141257490Y-85755010D02*
X141224000Y-85788500D01*
X205054640Y-85755010D02*
X141257490Y-85755010D01*
X206354650Y-84455000D02*
X205054640Y-85755010D01*
X203783401Y-96255011D02*
X162744261Y-96255011D01*
X207441651Y-92596761D02*
X203783401Y-96255011D01*
X207441651Y-88082001D02*
X207441651Y-92596761D01*
X206354650Y-86995000D02*
X207441651Y-88082001D01*
X157924500Y-110485250D02*
X157929250Y-110490000D01*
X153162000Y-129535250D02*
X153166750Y-129540000D01*
X156337000Y-136461500D02*
X167513000Y-136461500D01*
X167513000Y-148531250D02*
X167454250Y-148590000D01*
X167513000Y-145288000D02*
X167513000Y-148531250D01*
X155162250Y-131535500D02*
X153166750Y-129540000D01*
X155162250Y-135286750D02*
X156337000Y-136461500D01*
X155162250Y-132810250D02*
X155194000Y-132842000D01*
X155162250Y-132619750D02*
X155162250Y-132810250D01*
X155162250Y-135286750D02*
X155162250Y-132619750D01*
X155162250Y-132619750D02*
X155162250Y-131535500D01*
X162739511Y-96255011D02*
X160972500Y-94488000D01*
X162744261Y-96255011D02*
X162739511Y-96255011D01*
X157929250Y-91444750D02*
X157929250Y-91440000D01*
X160972500Y-94488000D02*
X157929250Y-91444750D01*
X156718000Y-72390000D02*
X158178500Y-73850500D01*
X153166750Y-72390000D02*
X156718000Y-72390000D01*
X157929250Y-113914250D02*
X157924500Y-113919000D01*
X157929250Y-110490000D02*
X157929250Y-113914250D01*
X177101500Y-72512250D02*
X176979250Y-72390000D01*
X177101500Y-75184000D02*
X177101500Y-72512250D01*
X181800500Y-110431250D02*
X181741750Y-110490000D01*
X172212000Y-129535250D02*
X172216750Y-129540000D01*
X175895000Y-135763000D02*
X193738500Y-135763000D01*
X193738500Y-148526500D02*
X193675000Y-148590000D01*
X193738500Y-145415000D02*
X193738500Y-148526500D01*
X174244000Y-135763000D02*
X175895000Y-135763000D01*
X172216750Y-133735750D02*
X174244000Y-135763000D01*
X172216750Y-129540000D02*
X172216750Y-133735750D01*
X192042751Y-95805001D02*
X184895501Y-95805001D01*
X192991751Y-94856001D02*
X192042751Y-95805001D01*
X192991751Y-93263997D02*
X192991751Y-94856001D01*
X196081751Y-90173997D02*
X192991751Y-93263997D01*
X184895501Y-95805001D02*
X183705500Y-94615000D01*
X196081751Y-89604749D02*
X196081751Y-90173997D01*
X198061501Y-87624999D02*
X196081751Y-89604749D01*
X204444649Y-87624999D02*
X198061501Y-87624999D01*
X206354650Y-89535000D02*
X204444649Y-87624999D01*
X181741750Y-92651250D02*
X183705500Y-94615000D01*
X181741750Y-91440000D02*
X181741750Y-92651250D01*
X181741750Y-112907750D02*
X182372000Y-113538000D01*
X181741750Y-110490000D02*
X181741750Y-112907750D01*
X205719650Y-91440000D02*
X206354650Y-92075000D01*
X200787000Y-110485250D02*
X200791750Y-110490000D01*
X200723500Y-129540000D02*
X207073500Y-129540000D01*
X210521550Y-132988050D02*
X210521550Y-136596450D01*
X207073500Y-129540000D02*
X210521550Y-132988050D01*
X195961000Y-72458250D02*
X196029250Y-72390000D01*
X195961000Y-74866500D02*
X195961000Y-72458250D01*
X192473250Y-130746500D02*
X191266750Y-129540000D01*
X199517000Y-130746500D02*
X192473250Y-130746500D01*
X200723500Y-129540000D02*
X199517000Y-130746500D01*
X203327000Y-91440000D02*
X204025500Y-91440000D01*
X200791750Y-91440000D02*
X203327000Y-91440000D01*
X203327000Y-91440000D02*
X205719650Y-91440000D01*
X203263500Y-110490000D02*
X200791750Y-110490000D01*
X204343000Y-109410500D02*
X203263500Y-110490000D01*
M02*
