M48
; DRILL file {KiCad (5.1.9)-1} date 01/10/21 02:00:51
; FORMAT={-:-/ absolute / metric / decimal}
; #@! TF.CreationDate,2021-01-10T02:00:51+09:00
; #@! TF.GenerationSoftware,Kicad,Pcbnew,(5.1.9)-1
FMAT,2
METRIC
T1C0.400
T2C0.813
T3C1.000
T4C1.300
T5C1.200
T6C1.900
T7C3.000
T8C4.100
T9C4.300
%
G90
G05
T1
X79.566Y-102.235
X79.629Y-121.221
X80.772Y-103.569
X82.577Y-64.045
X82.577Y-83.158
X83.757Y-84.519
X83.82Y-65.468
X92.075Y-102.171
X92.329Y-121.221
X94.234Y-83.121
X96.012Y-62.293
X96.584Y-111.252
X96.584Y-128.905
X97.091Y-65.977
X98.489Y-74.676
X98.489Y-92.773
X101.028Y-64.072
X101.155Y-121.221
X102.425Y-122.618
X105.727Y-83.121
X105.727Y-102.171
X107.188Y-84.582
X107.442Y-103.569
X113.411Y-64.072
X115.062Y-75.12
X115.57Y-126.619
X116.395Y-118.999
X116.649Y-122.999
X118.046Y-83.121
X118.3Y-102.171
X119.316Y-64.135
X119.444Y-121.285
X121.475Y-94.361
X121.475Y-113.602
X121.602Y-66.167
X124.015Y-83.185
X124.015Y-102.235
X125.857Y-84.519
X126.047Y-103.569
X132.969Y-121.221
X134.048Y-62.611
X135.382Y-65.468
X135.826Y-126.555
X136.779Y-74.93
X137.287Y-102.171
X137.731Y-83.121
X139.065Y-64.072
X139.192Y-121.221
X140.272Y-122.491
X141.224Y-85.788
X141.224Y-93.789
X141.224Y-112.84
X143.764Y-83.121
X143.764Y-102.171
X145.225Y-84.519
X145.225Y-103.569
X151.575Y-64.072
X151.575Y-121.221
X151.956Y-140.906
X153.416Y-140.272
X155.194Y-132.842
X156.337Y-102.171
X156.4Y-83.121
X157.924Y-113.919
X158.178Y-73.85
X158.178Y-121.221
X159.576Y-122.555
X160.972Y-94.488
X162.877Y-64.072
X164.401Y-65.468
X165.608Y-140.272
X167.513Y-136.462
X167.513Y-145.288
X167.576Y-83.121
X167.576Y-102.171
X169.1Y-84.519
X169.418Y-103.569
X170.942Y-121.221
X174.244Y-135.763
X177.101Y-75.184
X177.292Y-121.221
X177.99Y-62.801
X178.816Y-122.618
X178.879Y-65.468
X179.514Y-140.272
X180.149Y-83.121
X180.403Y-102.171
X180.595Y-141.67
X181.991Y-64.072
X182.372Y-113.538
X183.706Y-94.615
X186.69Y-83.121
X186.69Y-102.171
X187.261Y-77.597
X188.404Y-103.569
X188.595Y-84.519
X189.611Y-121.73
X190.564Y-80.581
X193.738Y-135.763
X193.738Y-145.415
X194.818Y-64.072
X194.818Y-143.129
X194.945Y-138.239
X195.961Y-74.867
X197.485Y-148.971
X198.501Y-146.494
X199.072Y-83.121
X199.263Y-101.028
X200.724Y-129.54
X202.248Y-138.303
X202.438Y-80.581
X202.565Y-73.469
X203.391Y-152.463
X203.644Y-136.652
X203.898Y-71.819
X204.025Y-91.44
X204.343Y-109.41
X205.296Y-150.177
X209.677Y-76.772
X213.868Y-124.46
X214.058Y-75.819
X214.058Y-84.074
X214.503Y-72.326
X216.127Y-97.067
X216.852Y-71.628
X216.852Y-78.041
X216.852Y-95.504
X216.998Y-117.393
X218.821Y-111.76
X219.8Y-82.931
X222.377Y-110.68
T2
X206.355Y-64.135
X206.355Y-66.675
X206.355Y-69.215
X206.355Y-71.755
X206.355Y-74.295
X206.355Y-76.835
X206.355Y-79.375
X206.355Y-81.915
X206.355Y-84.455
X206.355Y-86.995
X206.355Y-89.535
X206.355Y-92.075
X210.153Y-98.679
X212.693Y-98.679
X215.233Y-98.679
X217.773Y-98.679
X221.575Y-64.135
X221.575Y-66.675
X221.575Y-69.215
X221.575Y-71.755
X221.575Y-74.295
X221.575Y-76.835
X221.575Y-79.375
X221.575Y-81.915
X221.575Y-84.455
X221.575Y-86.995
X221.575Y-89.535
X221.575Y-92.075
T4
X221.583Y-95.683
X221.583Y-102.183
T5
X214.798Y-106.617
X221.798Y-106.617
T6
X81.471Y-107.95
X81.471Y-127.0
X83.852Y-69.85
X83.852Y-88.9
X91.63Y-107.95
X91.63Y-127.0
X94.012Y-69.85
X94.012Y-88.9
X102.902Y-69.85
X102.902Y-127.0
X107.664Y-88.9
X107.664Y-107.95
X113.062Y-69.85
X113.062Y-127.0
X117.824Y-88.9
X117.824Y-107.95
X121.952Y-69.85
X121.952Y-127.0
X126.714Y-88.9
X126.714Y-107.95
X132.112Y-69.85
X132.112Y-127.0
X136.874Y-88.9
X136.874Y-107.95
X141.002Y-69.85
X141.002Y-127.0
X145.764Y-88.9
X145.764Y-107.95
X151.162Y-69.85
X151.162Y-127.0
X155.289Y-146.05
X155.924Y-88.9
X155.924Y-107.95
X160.052Y-127.0
X164.814Y-69.85
X165.449Y-146.05
X169.577Y-88.9
X169.577Y-107.95
X170.212Y-127.0
X174.974Y-69.85
X179.102Y-127.0
X179.737Y-88.9
X179.737Y-107.95
X181.51Y-146.05
X183.864Y-69.85
X188.627Y-88.9
X188.627Y-107.95
X189.262Y-127.0
X191.67Y-146.05
X194.024Y-69.85
X198.787Y-88.9
X198.787Y-107.95
X207.982Y-138.601
X207.982Y-148.761
T7
X84.01Y-113.03
X84.01Y-132.08
X86.392Y-74.93
X86.392Y-93.98
X90.361Y-110.49
X90.361Y-129.54
X92.742Y-72.39
X92.742Y-91.44
X105.442Y-74.93
X105.442Y-132.08
X110.204Y-93.98
X110.204Y-113.03
X111.792Y-72.39
X111.792Y-129.54
X116.554Y-91.44
X116.554Y-110.49
X124.492Y-74.93
X124.492Y-132.08
X129.254Y-93.98
X129.254Y-113.03
X130.842Y-72.39
X130.842Y-129.54
X135.604Y-91.44
X135.604Y-110.49
X143.542Y-74.93
X143.542Y-132.08
X148.304Y-93.98
X148.304Y-113.03
X149.892Y-72.39
X149.892Y-129.54
X154.654Y-91.44
X154.654Y-110.49
X157.829Y-151.13
X162.592Y-132.08
X164.179Y-148.59
X167.354Y-74.93
X168.942Y-129.54
X172.117Y-93.98
X172.117Y-113.03
X173.704Y-72.39
X178.467Y-91.44
X178.467Y-110.49
X181.642Y-132.08
X184.05Y-151.13
X186.404Y-74.93
X187.992Y-129.54
X190.4Y-148.59
X191.167Y-93.98
X191.167Y-113.03
X192.754Y-72.39
X197.517Y-91.44
X197.517Y-110.49
X210.522Y-139.871
X213.062Y-146.221
T8
X86.55Y-107.95
X86.55Y-127.0
X88.932Y-69.85
X88.932Y-88.9
X107.982Y-69.85
X107.982Y-127.0
X112.744Y-88.9
X112.744Y-107.95
X127.032Y-69.85
X127.032Y-127.0
X131.794Y-88.9
X131.794Y-107.95
X146.082Y-69.85
X146.082Y-127.0
X150.844Y-88.9
X150.844Y-107.95
X160.369Y-146.05
X165.132Y-127.0
X169.894Y-69.85
X174.657Y-88.9
X174.657Y-107.95
X184.182Y-127.0
X186.59Y-146.05
X188.944Y-69.85
X193.707Y-88.9
X193.707Y-107.95
X207.982Y-143.681
T9
X100.838Y-83.407
X117.475Y-139.033
X162.75Y-100.806
X196.85Y-127.032
X201.612Y-76.486
T3
G00X211.748Y-104.516
M15
G01X211.248Y-104.516
M16
G05
G00X213.248Y-108.716
M15
G01X212.748Y-108.716
M16
G05
G00X217.248Y-108.716
M15
G01X216.748Y-108.716
M16
G05
G00X220.248Y-108.716
M15
G01X219.748Y-108.716
M16
G05
T0
M30
