G04 #@! TF.GenerationSoftware,KiCad,Pcbnew,(5.1.9)-1*
G04 #@! TF.CreationDate,2021-01-10T01:59:46+09:00*
G04 #@! TF.ProjectId,yuiop27,7975696f-7032-4372-9e6b-696361645f70,rev?*
G04 #@! TF.SameCoordinates,Original*
G04 #@! TF.FileFunction,Profile,NP*
%FSLAX46Y46*%
G04 Gerber Fmt 4.6, Leading zero omitted, Abs format (unit mm)*
G04 Created by KiCad (PCBNEW (5.1.9)-1) date 2021-01-10 01:59:46*
%MOMM*%
%LPD*%
G01*
G04 APERTURE LIST*
G04 #@! TA.AperFunction,Profile*
%ADD10C,0.050000*%
G04 #@! TD*
G04 #@! TA.AperFunction,Profile*
%ADD11C,0.120000*%
G04 #@! TD*
G04 APERTURE END LIST*
D10*
X78613807Y-59826129D02*
G75*
G02*
X78930500Y-59531250I316693J-22621D01*
G01*
X76465303Y-138203430D02*
G75*
G02*
X76200000Y-137890250I52197J313180D01*
G01*
X219138500Y-154590750D02*
G75*
G02*
X218945267Y-154793402I-256732J51347D01*
G01*
X223837500Y-59848750D02*
X223837500Y-109537500D01*
X223520000Y-59531250D02*
G75*
G02*
X223837500Y-59848750I0J-317500D01*
G01*
X78930500Y-59531250D02*
X223520000Y-59531250D01*
X76200000Y-97631250D02*
X78613807Y-59826129D01*
X76200000Y-137890250D02*
X76200000Y-97631250D01*
X150018750Y-157162500D02*
X76465303Y-138203430D01*
X195262500Y-157162500D02*
X150018750Y-157162500D01*
X218945267Y-154793402D02*
X195262500Y-157162500D01*
X223837500Y-109537500D02*
X219138500Y-154590750D01*
D11*
X201364250Y-145500500D02*
X201364250Y-141900500D01*
X204464250Y-145500500D02*
X201364250Y-145500500D01*
X204464250Y-141900500D02*
X204464250Y-145500500D01*
X201364250Y-141900500D02*
X204464250Y-141900500D01*
X184763000Y-139420000D02*
X188363000Y-139420000D01*
X184763000Y-142520000D02*
X184763000Y-139420000D01*
X188363000Y-142520000D02*
X184763000Y-142520000D01*
X188363000Y-139420000D02*
X188363000Y-142520000D01*
X182381750Y-120370000D02*
X185981750Y-120370000D01*
X182381750Y-123470000D02*
X182381750Y-120370000D01*
X185981750Y-123470000D02*
X182381750Y-123470000D01*
X185981750Y-120370000D02*
X185981750Y-123470000D01*
X195506750Y-101320000D02*
X195506750Y-104420000D01*
X195506750Y-104420000D02*
X191906750Y-104420000D01*
X191906750Y-104420000D02*
X191906750Y-101320000D01*
X191906750Y-101320000D02*
X195506750Y-101320000D01*
X191906750Y-82270000D02*
X195506750Y-82270000D01*
X191906750Y-85370000D02*
X191906750Y-82270000D01*
X195506750Y-85370000D02*
X191906750Y-85370000D01*
X195506750Y-82270000D02*
X195506750Y-85370000D01*
X190744250Y-63220000D02*
X190744250Y-66320000D01*
X190744250Y-66320000D02*
X187144250Y-66320000D01*
X187144250Y-66320000D02*
X187144250Y-63220000D01*
X187144250Y-63220000D02*
X190744250Y-63220000D01*
X168094250Y-63220000D02*
X171694250Y-63220000D01*
X168094250Y-66320000D02*
X168094250Y-63220000D01*
X171694250Y-66320000D02*
X168094250Y-66320000D01*
X171694250Y-63220000D02*
X171694250Y-66320000D01*
X176456750Y-82270000D02*
X176456750Y-85370000D01*
X176456750Y-85370000D02*
X172856750Y-85370000D01*
X172856750Y-85370000D02*
X172856750Y-82270000D01*
X172856750Y-82270000D02*
X176456750Y-82270000D01*
X172856750Y-101320000D02*
X176456750Y-101320000D01*
X172856750Y-104420000D02*
X172856750Y-101320000D01*
X176456750Y-104420000D02*
X172856750Y-104420000D01*
X176456750Y-101320000D02*
X176456750Y-104420000D01*
X166931750Y-120370000D02*
X166931750Y-123470000D01*
X166931750Y-123470000D02*
X163331750Y-123470000D01*
X163331750Y-123470000D02*
X163331750Y-120370000D01*
X163331750Y-120370000D02*
X166931750Y-120370000D01*
X158569250Y-139420000D02*
X162169250Y-139420000D01*
X158569250Y-142520000D02*
X158569250Y-139420000D01*
X162169250Y-142520000D02*
X158569250Y-142520000D01*
X162169250Y-139420000D02*
X162169250Y-142520000D01*
X147881750Y-120370000D02*
X147881750Y-123470000D01*
X147881750Y-123470000D02*
X144281750Y-123470000D01*
X144281750Y-123470000D02*
X144281750Y-120370000D01*
X144281750Y-120370000D02*
X147881750Y-120370000D01*
X149044250Y-101320000D02*
X152644250Y-101320000D01*
X149044250Y-104420000D02*
X149044250Y-101320000D01*
X152644250Y-104420000D02*
X149044250Y-104420000D01*
X152644250Y-101320000D02*
X152644250Y-104420000D01*
X152644250Y-82270000D02*
X152644250Y-85370000D01*
X152644250Y-85370000D02*
X149044250Y-85370000D01*
X149044250Y-85370000D02*
X149044250Y-82270000D01*
X149044250Y-82270000D02*
X152644250Y-82270000D01*
X144281750Y-63220000D02*
X147881750Y-63220000D01*
X144281750Y-66320000D02*
X144281750Y-63220000D01*
X147881750Y-66320000D02*
X144281750Y-66320000D01*
X147881750Y-63220000D02*
X147881750Y-66320000D01*
X128831750Y-63220000D02*
X128831750Y-66320000D01*
X128831750Y-66320000D02*
X125231750Y-66320000D01*
X125231750Y-66320000D02*
X125231750Y-63220000D01*
X125231750Y-63220000D02*
X128831750Y-63220000D01*
X129994250Y-82270000D02*
X133594250Y-82270000D01*
X129994250Y-85370000D02*
X129994250Y-82270000D01*
X133594250Y-85370000D02*
X129994250Y-85370000D01*
X133594250Y-82270000D02*
X133594250Y-85370000D01*
X133594250Y-101320000D02*
X133594250Y-104420000D01*
X133594250Y-104420000D02*
X129994250Y-104420000D01*
X129994250Y-104420000D02*
X129994250Y-101320000D01*
X129994250Y-101320000D02*
X133594250Y-101320000D01*
X128831750Y-120370000D02*
X128831750Y-123470000D01*
X128831750Y-123470000D02*
X125231750Y-123470000D01*
X125231750Y-123470000D02*
X125231750Y-120370000D01*
X125231750Y-120370000D02*
X128831750Y-120370000D01*
X109781750Y-120370000D02*
X109781750Y-123470000D01*
X109781750Y-123470000D02*
X106181750Y-123470000D01*
X106181750Y-123470000D02*
X106181750Y-120370000D01*
X106181750Y-120370000D02*
X109781750Y-120370000D01*
X110944250Y-101320000D02*
X114544250Y-101320000D01*
X110944250Y-104420000D02*
X110944250Y-101320000D01*
X114544250Y-104420000D02*
X110944250Y-104420000D01*
X114544250Y-101320000D02*
X114544250Y-104420000D01*
X114544250Y-82270000D02*
X114544250Y-85370000D01*
X114544250Y-85370000D02*
X110944250Y-85370000D01*
X110944250Y-85370000D02*
X110944250Y-82270000D01*
X110944250Y-82270000D02*
X114544250Y-82270000D01*
X106181750Y-63220000D02*
X109781750Y-63220000D01*
X106181750Y-66320000D02*
X106181750Y-63220000D01*
X109781750Y-66320000D02*
X106181750Y-66320000D01*
X109781750Y-63220000D02*
X109781750Y-66320000D01*
X90731750Y-63220000D02*
X90731750Y-66320000D01*
X90731750Y-66320000D02*
X87131750Y-66320000D01*
X87131750Y-66320000D02*
X87131750Y-63220000D01*
X87131750Y-63220000D02*
X90731750Y-63220000D01*
X87131750Y-82270000D02*
X90731750Y-82270000D01*
X87131750Y-85370000D02*
X87131750Y-82270000D01*
X90731750Y-85370000D02*
X87131750Y-85370000D01*
X90731750Y-82270000D02*
X90731750Y-85370000D01*
X84750500Y-101320000D02*
X88350500Y-101320000D01*
X84750500Y-104420000D02*
X84750500Y-101320000D01*
X88350500Y-104420000D02*
X84750500Y-104420000D01*
X88350500Y-101320000D02*
X88350500Y-104420000D01*
X84750500Y-120370000D02*
X88350500Y-120370000D01*
X84750500Y-123470000D02*
X84750500Y-120370000D01*
X88350500Y-123470000D02*
X84750500Y-123470000D01*
X88350500Y-120370000D02*
X88350500Y-123470000D01*
M02*
