G04 #@! TF.GenerationSoftware,KiCad,Pcbnew,(5.1.9)-1*
G04 #@! TF.CreationDate,2021-01-10T01:59:46+09:00*
G04 #@! TF.ProjectId,yuiop27,7975696f-7032-4372-9e6b-696361645f70,rev?*
G04 #@! TF.SameCoordinates,Original*
G04 #@! TF.FileFunction,Soldermask,Top*
G04 #@! TF.FilePolarity,Negative*
%FSLAX46Y46*%
G04 Gerber Fmt 4.6, Leading zero omitted, Abs format (unit mm)*
G04 Created by KiCad (PCBNEW (5.1.9)-1) date 2021-01-10 01:59:46*
%MOMM*%
%LPD*%
G01*
G04 APERTURE LIST*
%ADD10C,4.300000*%
%ADD11C,4.100000*%
%ADD12C,1.900000*%
%ADD13C,3.000000*%
%ADD14C,1.200000*%
G04 APERTURE END LIST*
D10*
X100838000Y-83407250D03*
X201612500Y-76485750D03*
X162750500Y-100806250D03*
X196850000Y-127031750D03*
X117475000Y-139033250D03*
D11*
X165131750Y-127000000D03*
D12*
X160051750Y-127000000D03*
X170211750Y-127000000D03*
D13*
X168941750Y-129540000D03*
X162591750Y-132080000D03*
X172116750Y-93980000D03*
X178466750Y-91440000D03*
D12*
X179736750Y-88900000D03*
X169576750Y-88900000D03*
D11*
X174656750Y-88900000D03*
D13*
X110204250Y-113030000D03*
X116554250Y-110490000D03*
D12*
X117824250Y-107950000D03*
X107664250Y-107950000D03*
D11*
X112744250Y-107950000D03*
D13*
X148304250Y-93980000D03*
X154654250Y-91440000D03*
D12*
X155924250Y-88900000D03*
X145764250Y-88900000D03*
D11*
X150844250Y-88900000D03*
D14*
X221797750Y-106616500D03*
X214797750Y-106616500D03*
D13*
X86391750Y-74930000D03*
X92741750Y-72390000D03*
D12*
X94011750Y-69850000D03*
X83851750Y-69850000D03*
D11*
X88931750Y-69850000D03*
D13*
X105441750Y-74930000D03*
X111791750Y-72390000D03*
D12*
X113061750Y-69850000D03*
X102901750Y-69850000D03*
D11*
X107981750Y-69850000D03*
X127031750Y-69850000D03*
D12*
X121951750Y-69850000D03*
X132111750Y-69850000D03*
D13*
X130841750Y-72390000D03*
X124491750Y-74930000D03*
D11*
X146081750Y-69850000D03*
D12*
X141001750Y-69850000D03*
X151161750Y-69850000D03*
D13*
X149891750Y-72390000D03*
X143541750Y-74930000D03*
D11*
X169894250Y-69850000D03*
D12*
X164814250Y-69850000D03*
X174974250Y-69850000D03*
D13*
X173704250Y-72390000D03*
X167354250Y-74930000D03*
D11*
X188944250Y-69850000D03*
D12*
X183864250Y-69850000D03*
X194024250Y-69850000D03*
D13*
X192754250Y-72390000D03*
X186404250Y-74930000D03*
D11*
X88931750Y-88900000D03*
D12*
X83851750Y-88900000D03*
X94011750Y-88900000D03*
D13*
X92741750Y-91440000D03*
X86391750Y-93980000D03*
D11*
X112744250Y-88900000D03*
D12*
X107664250Y-88900000D03*
X117824250Y-88900000D03*
D13*
X116554250Y-91440000D03*
X110204250Y-93980000D03*
X129254250Y-93980000D03*
X135604250Y-91440000D03*
D12*
X136874250Y-88900000D03*
X126714250Y-88900000D03*
D11*
X131794250Y-88900000D03*
X193706750Y-88900000D03*
D12*
X188626750Y-88900000D03*
X198786750Y-88900000D03*
D13*
X197516750Y-91440000D03*
X191166750Y-93980000D03*
D11*
X86550500Y-107950000D03*
D12*
X81470500Y-107950000D03*
X91630500Y-107950000D03*
D13*
X90360500Y-110490000D03*
X84010500Y-113030000D03*
X129254250Y-113030000D03*
X135604250Y-110490000D03*
D12*
X136874250Y-107950000D03*
X126714250Y-107950000D03*
D11*
X131794250Y-107950000D03*
D13*
X148304250Y-113030000D03*
X154654250Y-110490000D03*
D12*
X155924250Y-107950000D03*
X145764250Y-107950000D03*
D11*
X150844250Y-107950000D03*
D13*
X172116750Y-113030000D03*
X178466750Y-110490000D03*
D12*
X179736750Y-107950000D03*
X169576750Y-107950000D03*
D11*
X174656750Y-107950000D03*
D13*
X191166750Y-113030000D03*
X197516750Y-110490000D03*
D12*
X198786750Y-107950000D03*
X188626750Y-107950000D03*
D11*
X193706750Y-107950000D03*
X86550500Y-127000000D03*
D12*
X81470500Y-127000000D03*
X91630500Y-127000000D03*
D13*
X90360500Y-129540000D03*
X84010500Y-132080000D03*
X105441750Y-132080000D03*
X111791750Y-129540000D03*
D12*
X113061750Y-127000000D03*
X102901750Y-127000000D03*
D11*
X107981750Y-127000000D03*
X127031750Y-127000000D03*
D12*
X121951750Y-127000000D03*
X132111750Y-127000000D03*
D13*
X130841750Y-129540000D03*
X124491750Y-132080000D03*
D11*
X146081750Y-127000000D03*
D12*
X141001750Y-127000000D03*
X151161750Y-127000000D03*
D13*
X149891750Y-129540000D03*
X143541750Y-132080000D03*
D11*
X184181750Y-127000000D03*
D12*
X179101750Y-127000000D03*
X189261750Y-127000000D03*
D13*
X187991750Y-129540000D03*
X181641750Y-132080000D03*
D11*
X160369250Y-146050000D03*
D12*
X155289250Y-146050000D03*
X165449250Y-146050000D03*
D13*
X164179250Y-148590000D03*
X157829250Y-151130000D03*
D11*
X186590000Y-146050000D03*
D12*
X181510000Y-146050000D03*
X191670000Y-146050000D03*
D13*
X190400000Y-148590000D03*
X184050000Y-151130000D03*
D11*
X207981550Y-143681450D03*
D12*
X207981550Y-148761450D03*
X207981550Y-138601450D03*
D13*
X210521550Y-139871450D03*
X213061550Y-146221450D03*
M02*
