M48
; DRILL file {KiCad (6.0.1)} date Tue Jan 24 13:05:31 2023
; FORMAT={-:-/ absolute / metric / decimal}
; #@! TF.CreationDate,2023-01-24T13:05:31+09:00
; #@! TF.GenerationSoftware,Kicad,Pcbnew,(6.0.1)
; #@! TF.FileFunction,MixedPlating,1,2
FMAT,2
METRIC
; #@! TA.AperFunction,Plated,PTH,ViaDrill
T1C0.400
; #@! TA.AperFunction,Plated,PTH,ComponentDrill
T2C0.850
; #@! TA.AperFunction,Plated,PTH,ComponentDrill
T3C1.000
; #@! TA.AperFunction,Plated,PTH,ComponentDrill
T4C1.300
; #@! TA.AperFunction,NonPlated,NPTH,ComponentDrill
T5C1.800
; #@! TA.AperFunction,NonPlated,NPTH,ComponentDrill
T6C2.000
; #@! TA.AperFunction,NonPlated,NPTH,ComponentDrill
T7C2.100
; #@! TA.AperFunction,NonPlated,NPTH,ComponentDrill
T8C14.000
%
G90
G05
T1
X84.3Y-88.1
T2
X72.98Y-92.38
X72.98Y-107.62
X75.52Y-92.38
X75.52Y-107.62
X78.06Y-92.38
X78.06Y-107.62
X79.19Y-82.3
X80.6Y-92.38
X80.6Y-107.62
X81.73Y-82.3
X83.14Y-92.38
X83.14Y-107.62
X84.27Y-82.3
X85.68Y-92.38
X85.68Y-107.62
X86.81Y-82.3
X88.22Y-92.38
X88.22Y-107.62
X225.0Y-92.38
X225.0Y-94.92
X225.0Y-97.46
X225.0Y-100.0
X225.0Y-102.54
X225.0Y-105.08
X225.0Y-107.62
T3
X84.0Y-117.35
X86.54Y-117.35
T4
X102.5Y-93.75
X102.5Y-106.25
X107.5Y-93.75
X107.5Y-106.25
X117.5Y-93.75
X117.5Y-106.25
X122.5Y-93.75
X122.5Y-106.25
X128.75Y-87.5
X128.75Y-92.5
X128.75Y-107.5
X128.75Y-112.5
X141.25Y-87.5
X141.25Y-92.5
X141.25Y-107.5
X141.25Y-112.5
X147.5Y-93.75
X147.5Y-106.25
X152.5Y-93.75
X152.5Y-106.25
T5
X100.5Y-100.0
X109.5Y-100.0
X115.5Y-100.0
X124.5Y-100.0
X135.0Y-85.5
X135.0Y-94.5
X135.0Y-105.5
X135.0Y-114.5
X145.5Y-100.0
X154.5Y-100.0
T6
X209.0Y-91.75
X209.0Y-108.25
T7
X73.0Y-83.0
X73.0Y-117.0
X93.0Y-83.0
X93.0Y-117.0
X109.5Y-83.0
X109.5Y-117.0
X135.0Y-100.0
X145.5Y-83.0
X145.5Y-117.0
X183.0Y-83.0
X183.0Y-117.0
X227.0Y-83.0
X227.0Y-117.0
T8
X199.0Y-100.0
T0
M30
