%TF.GenerationSoftware,KiCad,Pcbnew,(6.0.1)*%
%TF.CreationDate,2023-01-24T13:05:26+09:00*%
%TF.ProjectId,yuiopPD_r2,7975696f-7050-4445-9f72-322e6b696361,2*%
%TF.SameCoordinates,Original*%
%TF.FileFunction,Legend,Top*%
%TF.FilePolarity,Positive*%
%FSLAX46Y46*%
G04 Gerber Fmt 4.6, Leading zero omitted, Abs format (unit mm)*
G04 Created by KiCad (PCBNEW (6.0.1)) date 2023-01-24 13:05:26*
%MOMM*%
%LPD*%
G01*
G04 APERTURE LIST*
%ADD10C,0.150000*%
%ADD11C,0.400000*%
%ADD12C,0.100000*%
%ADD13C,0.120000*%
%ADD14C,0.254000*%
G04 APERTURE END LIST*
D10*
X172952380Y-110023809D02*
X171952380Y-110023809D01*
X172904761Y-110023809D02*
X172952380Y-110119047D01*
X172952380Y-110309523D01*
X172904761Y-110404761D01*
X172857142Y-110452380D01*
X172761904Y-110500000D01*
X172476190Y-110500000D01*
X172380952Y-110452380D01*
X172333333Y-110404761D01*
X172285714Y-110309523D01*
X172285714Y-110119047D01*
X172333333Y-110023809D01*
X172904761Y-109166666D02*
X172952380Y-109261904D01*
X172952380Y-109452380D01*
X172904761Y-109547619D01*
X172809523Y-109595238D01*
X172428571Y-109595238D01*
X172333333Y-109547619D01*
X172285714Y-109452380D01*
X172285714Y-109261904D01*
X172333333Y-109166666D01*
X172428571Y-109119047D01*
X172523809Y-109119047D01*
X172619047Y-109595238D01*
X172904761Y-108738095D02*
X172952380Y-108642857D01*
X172952380Y-108452380D01*
X172904761Y-108357142D01*
X172809523Y-108309523D01*
X172761904Y-108309523D01*
X172666666Y-108357142D01*
X172619047Y-108452380D01*
X172619047Y-108595238D01*
X172571428Y-108690476D01*
X172476190Y-108738095D01*
X172428571Y-108738095D01*
X172333333Y-108690476D01*
X172285714Y-108595238D01*
X172285714Y-108452380D01*
X172333333Y-108357142D01*
X172952380Y-107880952D02*
X172285714Y-107880952D01*
X171952380Y-107880952D02*
X172000000Y-107928571D01*
X172047619Y-107880952D01*
X172000000Y-107833333D01*
X171952380Y-107880952D01*
X172047619Y-107880952D01*
X172285714Y-106976190D02*
X173095238Y-106976190D01*
X173190476Y-107023809D01*
X173238095Y-107071428D01*
X173285714Y-107166666D01*
X173285714Y-107309523D01*
X173238095Y-107404761D01*
X172904761Y-106976190D02*
X172952380Y-107071428D01*
X172952380Y-107261904D01*
X172904761Y-107357142D01*
X172857142Y-107404761D01*
X172761904Y-107452380D01*
X172476190Y-107452380D01*
X172380952Y-107404761D01*
X172333333Y-107357142D01*
X172285714Y-107261904D01*
X172285714Y-107071428D01*
X172333333Y-106976190D01*
X172285714Y-106500000D02*
X172952380Y-106500000D01*
X172380952Y-106500000D02*
X172333333Y-106452380D01*
X172285714Y-106357142D01*
X172285714Y-106214285D01*
X172333333Y-106119047D01*
X172428571Y-106071428D01*
X172952380Y-106071428D01*
X172904761Y-105214285D02*
X172952380Y-105309523D01*
X172952380Y-105500000D01*
X172904761Y-105595238D01*
X172809523Y-105642857D01*
X172428571Y-105642857D01*
X172333333Y-105595238D01*
X172285714Y-105500000D01*
X172285714Y-105309523D01*
X172333333Y-105214285D01*
X172428571Y-105166666D01*
X172523809Y-105166666D01*
X172619047Y-105642857D01*
X172952380Y-104309523D02*
X171952380Y-104309523D01*
X172904761Y-104309523D02*
X172952380Y-104404761D01*
X172952380Y-104595238D01*
X172904761Y-104690476D01*
X172857142Y-104738095D01*
X172761904Y-104785714D01*
X172476190Y-104785714D01*
X172380952Y-104738095D01*
X172333333Y-104690476D01*
X172285714Y-104595238D01*
X172285714Y-104404761D01*
X172333333Y-104309523D01*
X172952380Y-103071428D02*
X171952380Y-103071428D01*
X172333333Y-103071428D02*
X172285714Y-102976190D01*
X172285714Y-102785714D01*
X172333333Y-102690476D01*
X172380952Y-102642857D01*
X172476190Y-102595238D01*
X172761904Y-102595238D01*
X172857142Y-102642857D01*
X172904761Y-102690476D01*
X172952380Y-102785714D01*
X172952380Y-102976190D01*
X172904761Y-103071428D01*
X172285714Y-102261904D02*
X172952380Y-102023809D01*
X172285714Y-101785714D02*
X172952380Y-102023809D01*
X173190476Y-102119047D01*
X173238095Y-102166666D01*
X173285714Y-102261904D01*
X172952380Y-100642857D02*
X171952380Y-100642857D01*
X172952380Y-100071428D02*
X172380952Y-100500000D01*
X171952380Y-100071428D02*
X172523809Y-100642857D01*
X172952380Y-99500000D02*
X172904761Y-99595238D01*
X172857142Y-99642857D01*
X172761904Y-99690476D01*
X172476190Y-99690476D01*
X172380952Y-99642857D01*
X172333333Y-99595238D01*
X172285714Y-99500000D01*
X172285714Y-99357142D01*
X172333333Y-99261904D01*
X172380952Y-99214285D01*
X172476190Y-99166666D01*
X172761904Y-99166666D01*
X172857142Y-99214285D01*
X172904761Y-99261904D01*
X172952380Y-99357142D01*
X172952380Y-99500000D01*
X172952380Y-98166666D02*
X172476190Y-98500000D01*
X172952380Y-98738095D02*
X171952380Y-98738095D01*
X171952380Y-98357142D01*
X172000000Y-98261904D01*
X172047619Y-98214285D01*
X172142857Y-98166666D01*
X172285714Y-98166666D01*
X172380952Y-98214285D01*
X172428571Y-98261904D01*
X172476190Y-98357142D01*
X172476190Y-98738095D01*
X172952380Y-97595238D02*
X172904761Y-97690476D01*
X172857142Y-97738095D01*
X172761904Y-97785714D01*
X172476190Y-97785714D01*
X172380952Y-97738095D01*
X172333333Y-97690476D01*
X172285714Y-97595238D01*
X172285714Y-97452380D01*
X172333333Y-97357142D01*
X172380952Y-97309523D01*
X172476190Y-97261904D01*
X172761904Y-97261904D01*
X172857142Y-97309523D01*
X172904761Y-97357142D01*
X172952380Y-97452380D01*
X172952380Y-97595238D01*
X172952380Y-96833333D02*
X171952380Y-96833333D01*
X172952380Y-96261904D01*
X171952380Y-96261904D01*
X171904761Y-95071428D02*
X173190476Y-95928571D01*
X172952380Y-94738095D02*
X171952380Y-94738095D01*
X172952380Y-94166666D02*
X172380952Y-94595238D01*
X171952380Y-94166666D02*
X172523809Y-94738095D01*
X172952380Y-93309523D02*
X172428571Y-93309523D01*
X172333333Y-93357142D01*
X172285714Y-93452380D01*
X172285714Y-93642857D01*
X172333333Y-93738095D01*
X172904761Y-93309523D02*
X172952380Y-93404761D01*
X172952380Y-93642857D01*
X172904761Y-93738095D01*
X172809523Y-93785714D01*
X172714285Y-93785714D01*
X172619047Y-93738095D01*
X172571428Y-93642857D01*
X172571428Y-93404761D01*
X172523809Y-93309523D01*
X172952380Y-92690476D02*
X172904761Y-92785714D01*
X172857142Y-92833333D01*
X172761904Y-92880952D01*
X172476190Y-92880952D01*
X172380952Y-92833333D01*
X172333333Y-92785714D01*
X172285714Y-92690476D01*
X172285714Y-92547619D01*
X172333333Y-92452380D01*
X172380952Y-92404761D01*
X172476190Y-92357142D01*
X172761904Y-92357142D01*
X172857142Y-92404761D01*
X172904761Y-92452380D01*
X172952380Y-92547619D01*
X172952380Y-92690476D01*
X172952380Y-91928571D02*
X172285714Y-91928571D01*
X172476190Y-91928571D02*
X172380952Y-91880952D01*
X172333333Y-91833333D01*
X172285714Y-91738095D01*
X172285714Y-91642857D01*
X172952380Y-91309523D02*
X172285714Y-91309523D01*
X171952380Y-91309523D02*
X172000000Y-91357142D01*
X172047619Y-91309523D01*
X172000000Y-91261904D01*
X171952380Y-91309523D01*
X172047619Y-91309523D01*
X172476190Y-90642857D02*
X172952380Y-90642857D01*
X171952380Y-90976190D02*
X172476190Y-90642857D01*
X171952380Y-90309523D01*
X172952380Y-89547619D02*
X172428571Y-89547619D01*
X172333333Y-89595238D01*
X172285714Y-89690476D01*
X172285714Y-89880952D01*
X172333333Y-89976190D01*
X172904761Y-89547619D02*
X172952380Y-89642857D01*
X172952380Y-89880952D01*
X172904761Y-89976190D01*
X172809523Y-90023809D01*
X172714285Y-90023809D01*
X172619047Y-89976190D01*
X172571428Y-89880952D01*
X172571428Y-89642857D01*
X172523809Y-89547619D01*
D11*
X167116666Y-108273809D02*
X168783333Y-108273809D01*
X165283333Y-109107142D02*
X167116666Y-108273809D01*
X165283333Y-107440476D01*
X165283333Y-106607142D02*
X168116666Y-106607142D01*
X168450000Y-106488095D01*
X168616666Y-106369047D01*
X168783333Y-106130952D01*
X168783333Y-105654761D01*
X168616666Y-105416666D01*
X168450000Y-105297619D01*
X168116666Y-105178571D01*
X165283333Y-105178571D01*
X168783333Y-103988095D02*
X165283333Y-103988095D01*
X165283333Y-102321428D02*
X165283333Y-101845238D01*
X165450000Y-101607142D01*
X165783333Y-101369047D01*
X166450000Y-101250000D01*
X167616666Y-101250000D01*
X168283333Y-101369047D01*
X168616666Y-101607142D01*
X168783333Y-101845238D01*
X168783333Y-102321428D01*
X168616666Y-102559523D01*
X168283333Y-102797619D01*
X167616666Y-102916666D01*
X166450000Y-102916666D01*
X165783333Y-102797619D01*
X165450000Y-102559523D01*
X165283333Y-102321428D01*
X168783333Y-100178571D02*
X165283333Y-100178571D01*
X165283333Y-99226190D01*
X165450000Y-98988095D01*
X165616666Y-98869047D01*
X165950000Y-98750000D01*
X166450000Y-98750000D01*
X166783333Y-98869047D01*
X166950000Y-98988095D01*
X167116666Y-99226190D01*
X167116666Y-100178571D01*
X165116666Y-95892857D02*
X169616666Y-98035714D01*
X168783333Y-95059523D02*
X165283333Y-95059523D01*
X165283333Y-94107142D01*
X165450000Y-93869047D01*
X165616666Y-93750000D01*
X165950000Y-93630952D01*
X166450000Y-93630952D01*
X166783333Y-93750000D01*
X166950000Y-93869047D01*
X167116666Y-94107142D01*
X167116666Y-95059523D01*
X168783333Y-92559523D02*
X165283333Y-92559523D01*
X165283333Y-91964285D01*
X165450000Y-91607142D01*
X165783333Y-91369047D01*
X166116666Y-91250000D01*
X166783333Y-91130952D01*
X167283333Y-91130952D01*
X167950000Y-91250000D01*
X168283333Y-91369047D01*
X168616666Y-91607142D01*
X168783333Y-91964285D01*
X168783333Y-92559523D01*
D12*
X78700000Y-85057142D02*
X78652380Y-85114285D01*
X78652380Y-85200000D01*
X78700000Y-85285714D01*
X78795238Y-85342857D01*
X78890476Y-85371428D01*
X79080952Y-85400000D01*
X79223809Y-85400000D01*
X79414285Y-85371428D01*
X79509523Y-85342857D01*
X79604761Y-85285714D01*
X79652380Y-85200000D01*
X79652380Y-85142857D01*
X79604761Y-85057142D01*
X79557142Y-85028571D01*
X79223809Y-85028571D01*
X79223809Y-85142857D01*
X79652380Y-84771428D02*
X78652380Y-84771428D01*
X79652380Y-84428571D01*
X78652380Y-84428571D01*
X79652380Y-84142857D02*
X78652380Y-84142857D01*
X78652380Y-84000000D01*
X78700000Y-83914285D01*
X78795238Y-83857142D01*
X78890476Y-83828571D01*
X79080952Y-83800000D01*
X79223809Y-83800000D01*
X79414285Y-83828571D01*
X79509523Y-83857142D01*
X79604761Y-83914285D01*
X79652380Y-84000000D01*
X79652380Y-84142857D01*
D10*
X171202380Y-98023809D02*
X170535714Y-98023809D01*
X170726190Y-98023809D02*
X170630952Y-97976190D01*
X170583333Y-97928571D01*
X170535714Y-97833333D01*
X170535714Y-97738095D01*
X171154761Y-97023809D02*
X171202380Y-97119047D01*
X171202380Y-97309523D01*
X171154761Y-97404761D01*
X171059523Y-97452380D01*
X170678571Y-97452380D01*
X170583333Y-97404761D01*
X170535714Y-97309523D01*
X170535714Y-97119047D01*
X170583333Y-97023809D01*
X170678571Y-96976190D01*
X170773809Y-96976190D01*
X170869047Y-97452380D01*
X170535714Y-96642857D02*
X171202380Y-96404761D01*
X170535714Y-96166666D01*
X171202380Y-95785714D02*
X170535714Y-95785714D01*
X170202380Y-95785714D02*
X170250000Y-95833333D01*
X170297619Y-95785714D01*
X170250000Y-95738095D01*
X170202380Y-95785714D01*
X170297619Y-95785714D01*
X171154761Y-95357142D02*
X171202380Y-95261904D01*
X171202380Y-95071428D01*
X171154761Y-94976190D01*
X171059523Y-94928571D01*
X171011904Y-94928571D01*
X170916666Y-94976190D01*
X170869047Y-95071428D01*
X170869047Y-95214285D01*
X170821428Y-95309523D01*
X170726190Y-95357142D01*
X170678571Y-95357142D01*
X170583333Y-95309523D01*
X170535714Y-95214285D01*
X170535714Y-95071428D01*
X170583333Y-94976190D01*
X171202380Y-94500000D02*
X170535714Y-94500000D01*
X170202380Y-94500000D02*
X170250000Y-94547619D01*
X170297619Y-94500000D01*
X170250000Y-94452380D01*
X170202380Y-94500000D01*
X170297619Y-94500000D01*
X171202380Y-93880952D02*
X171154761Y-93976190D01*
X171107142Y-94023809D01*
X171011904Y-94071428D01*
X170726190Y-94071428D01*
X170630952Y-94023809D01*
X170583333Y-93976190D01*
X170535714Y-93880952D01*
X170535714Y-93738095D01*
X170583333Y-93642857D01*
X170630952Y-93595238D01*
X170726190Y-93547619D01*
X171011904Y-93547619D01*
X171107142Y-93595238D01*
X171154761Y-93642857D01*
X171202380Y-93738095D01*
X171202380Y-93880952D01*
X170535714Y-93119047D02*
X171202380Y-93119047D01*
X170630952Y-93119047D02*
X170583333Y-93071428D01*
X170535714Y-92976190D01*
X170535714Y-92833333D01*
X170583333Y-92738095D01*
X170678571Y-92690476D01*
X171202380Y-92690476D01*
X170297619Y-91500000D02*
X170250000Y-91452380D01*
X170202380Y-91357142D01*
X170202380Y-91119047D01*
X170250000Y-91023809D01*
X170297619Y-90976190D01*
X170392857Y-90928571D01*
X170488095Y-90928571D01*
X170630952Y-90976190D01*
X171202380Y-91547619D01*
X171202380Y-90928571D01*
D12*
X83500000Y-114957142D02*
X83452380Y-115014285D01*
X83452380Y-115100000D01*
X83500000Y-115185714D01*
X83595238Y-115242857D01*
X83690476Y-115271428D01*
X83880952Y-115300000D01*
X84023809Y-115300000D01*
X84214285Y-115271428D01*
X84309523Y-115242857D01*
X84404761Y-115185714D01*
X84452380Y-115100000D01*
X84452380Y-115042857D01*
X84404761Y-114957142D01*
X84357142Y-114928571D01*
X84023809Y-114928571D01*
X84023809Y-115042857D01*
X84452380Y-114671428D02*
X83452380Y-114671428D01*
X84452380Y-114328571D01*
X83452380Y-114328571D01*
X84452380Y-114042857D02*
X83452380Y-114042857D01*
X83452380Y-113900000D01*
X83500000Y-113814285D01*
X83595238Y-113757142D01*
X83690476Y-113728571D01*
X83880952Y-113700000D01*
X84023809Y-113700000D01*
X84214285Y-113728571D01*
X84309523Y-113757142D01*
X84404761Y-113814285D01*
X84452380Y-113900000D01*
X84452380Y-114042857D01*
D10*
X86152380Y-115261904D02*
X86152380Y-114690476D01*
X87152380Y-114976190D02*
X86152380Y-114976190D01*
X86152380Y-114452380D02*
X87152380Y-113785714D01*
X86152380Y-113785714D02*
X87152380Y-114452380D01*
%TO.C,SW5*%
X157564761Y-101163333D02*
X157612380Y-101020476D01*
X157612380Y-100782380D01*
X157564761Y-100687142D01*
X157517142Y-100639523D01*
X157421904Y-100591904D01*
X157326666Y-100591904D01*
X157231428Y-100639523D01*
X157183809Y-100687142D01*
X157136190Y-100782380D01*
X157088571Y-100972857D01*
X157040952Y-101068095D01*
X156993333Y-101115714D01*
X156898095Y-101163333D01*
X156802857Y-101163333D01*
X156707619Y-101115714D01*
X156660000Y-101068095D01*
X156612380Y-100972857D01*
X156612380Y-100734761D01*
X156660000Y-100591904D01*
X156612380Y-100258571D02*
X157612380Y-100020476D01*
X156898095Y-99830000D01*
X157612380Y-99639523D01*
X156612380Y-99401428D01*
X156612380Y-98544285D02*
X156612380Y-99020476D01*
X157088571Y-99068095D01*
X157040952Y-99020476D01*
X156993333Y-98925238D01*
X156993333Y-98687142D01*
X157040952Y-98591904D01*
X157088571Y-98544285D01*
X157183809Y-98496666D01*
X157421904Y-98496666D01*
X157517142Y-98544285D01*
X157564761Y-98591904D01*
X157612380Y-98687142D01*
X157612380Y-98925238D01*
X157564761Y-99020476D01*
X157517142Y-99068095D01*
%TO.C,SW3*%
X142904761Y-91333333D02*
X142952380Y-91190476D01*
X142952380Y-90952380D01*
X142904761Y-90857142D01*
X142857142Y-90809523D01*
X142761904Y-90761904D01*
X142666666Y-90761904D01*
X142571428Y-90809523D01*
X142523809Y-90857142D01*
X142476190Y-90952380D01*
X142428571Y-91142857D01*
X142380952Y-91238095D01*
X142333333Y-91285714D01*
X142238095Y-91333333D01*
X142142857Y-91333333D01*
X142047619Y-91285714D01*
X142000000Y-91238095D01*
X141952380Y-91142857D01*
X141952380Y-90904761D01*
X142000000Y-90761904D01*
X141952380Y-90428571D02*
X142952380Y-90190476D01*
X142238095Y-90000000D01*
X142952380Y-89809523D01*
X141952380Y-89571428D01*
X141952380Y-89285714D02*
X141952380Y-88666666D01*
X142333333Y-89000000D01*
X142333333Y-88857142D01*
X142380952Y-88761904D01*
X142428571Y-88714285D01*
X142523809Y-88666666D01*
X142761904Y-88666666D01*
X142857142Y-88714285D01*
X142904761Y-88761904D01*
X142952380Y-88857142D01*
X142952380Y-89142857D01*
X142904761Y-89238095D01*
X142857142Y-89285714D01*
D12*
%TO.C,J4*%
X88352380Y-83171428D02*
X88352380Y-83057142D01*
X88400000Y-83000000D01*
X88495238Y-82942857D01*
X88685714Y-82914285D01*
X89019047Y-82914285D01*
X89209523Y-82942857D01*
X89304761Y-83000000D01*
X89352380Y-83057142D01*
X89352380Y-83171428D01*
X89304761Y-83228571D01*
X89209523Y-83285714D01*
X89019047Y-83314285D01*
X88685714Y-83314285D01*
X88495238Y-83285714D01*
X88400000Y-83228571D01*
X88352380Y-83171428D01*
X89352380Y-82371428D02*
X89352380Y-82657142D01*
X88352380Y-82657142D01*
X88828571Y-82171428D02*
X88828571Y-81971428D01*
X89352380Y-81885714D02*
X89352380Y-82171428D01*
X88352380Y-82171428D01*
X88352380Y-81885714D01*
X89352380Y-81628571D02*
X88352380Y-81628571D01*
X88352380Y-81485714D01*
X88400000Y-81400000D01*
X88495238Y-81342857D01*
X88590476Y-81314285D01*
X88780952Y-81285714D01*
X88923809Y-81285714D01*
X89114285Y-81314285D01*
X89209523Y-81342857D01*
X89304761Y-81400000D01*
X89352380Y-81485714D01*
X89352380Y-81628571D01*
D10*
%TO.C,SW4*%
X142904761Y-111333333D02*
X142952380Y-111190476D01*
X142952380Y-110952380D01*
X142904761Y-110857142D01*
X142857142Y-110809523D01*
X142761904Y-110761904D01*
X142666666Y-110761904D01*
X142571428Y-110809523D01*
X142523809Y-110857142D01*
X142476190Y-110952380D01*
X142428571Y-111142857D01*
X142380952Y-111238095D01*
X142333333Y-111285714D01*
X142238095Y-111333333D01*
X142142857Y-111333333D01*
X142047619Y-111285714D01*
X142000000Y-111238095D01*
X141952380Y-111142857D01*
X141952380Y-110904761D01*
X142000000Y-110761904D01*
X141952380Y-110428571D02*
X142952380Y-110190476D01*
X142238095Y-110000000D01*
X142952380Y-109809523D01*
X141952380Y-109571428D01*
X142285714Y-108761904D02*
X142952380Y-108761904D01*
X141904761Y-109000000D02*
X142619047Y-109238095D01*
X142619047Y-108619047D01*
D13*
%TO.C,U1*%
X80805499Y-104179681D02*
X80843594Y-104065395D01*
X80843594Y-103874919D01*
X80805499Y-103798729D01*
X80767404Y-103760633D01*
X80691213Y-103722538D01*
X80615023Y-103722538D01*
X80538832Y-103760633D01*
X80500737Y-103798729D01*
X80462642Y-103874919D01*
X80424547Y-104027300D01*
X80386451Y-104103490D01*
X80348356Y-104141586D01*
X80272166Y-104179681D01*
X80195975Y-104179681D01*
X80119785Y-104141586D01*
X80081690Y-104103490D01*
X80043594Y-104027300D01*
X80043594Y-103836824D01*
X80081690Y-103722538D01*
X80805499Y-103074919D02*
X80843594Y-103151110D01*
X80843594Y-103303490D01*
X80805499Y-103379681D01*
X80729309Y-103417776D01*
X80424547Y-103417776D01*
X80348356Y-103379681D01*
X80310261Y-103303490D01*
X80310261Y-103151110D01*
X80348356Y-103074919D01*
X80424547Y-103036824D01*
X80500737Y-103036824D01*
X80576928Y-103417776D01*
X80805499Y-102389205D02*
X80843594Y-102465395D01*
X80843594Y-102617776D01*
X80805499Y-102693967D01*
X80729309Y-102732062D01*
X80424547Y-102732062D01*
X80348356Y-102693967D01*
X80310261Y-102617776D01*
X80310261Y-102465395D01*
X80348356Y-102389205D01*
X80424547Y-102351110D01*
X80500737Y-102351110D01*
X80576928Y-102732062D01*
X80805499Y-101703490D02*
X80843594Y-101779681D01*
X80843594Y-101932062D01*
X80805499Y-102008252D01*
X80729309Y-102046348D01*
X80424547Y-102046348D01*
X80348356Y-102008252D01*
X80310261Y-101932062D01*
X80310261Y-101779681D01*
X80348356Y-101703490D01*
X80424547Y-101665395D01*
X80500737Y-101665395D01*
X80576928Y-102046348D01*
X80843594Y-100979681D02*
X80043594Y-100979681D01*
X80805499Y-100979681D02*
X80843594Y-101055871D01*
X80843594Y-101208252D01*
X80805499Y-101284443D01*
X80767404Y-101322538D01*
X80691213Y-101360633D01*
X80462642Y-101360633D01*
X80386451Y-101322538D01*
X80348356Y-101284443D01*
X80310261Y-101208252D01*
X80310261Y-101055871D01*
X80348356Y-100979681D01*
X80310261Y-100255871D02*
X80843594Y-100255871D01*
X80310261Y-100598729D02*
X80729309Y-100598729D01*
X80805499Y-100560633D01*
X80843594Y-100484443D01*
X80843594Y-100370157D01*
X80805499Y-100293967D01*
X80767404Y-100255871D01*
X80843594Y-99874919D02*
X80310261Y-99874919D01*
X80043594Y-99874919D02*
X80081690Y-99913014D01*
X80119785Y-99874919D01*
X80081690Y-99836824D01*
X80043594Y-99874919D01*
X80119785Y-99874919D01*
X80310261Y-99493967D02*
X80843594Y-99493967D01*
X80386451Y-99493967D02*
X80348356Y-99455871D01*
X80310261Y-99379681D01*
X80310261Y-99265395D01*
X80348356Y-99189205D01*
X80424547Y-99151110D01*
X80843594Y-99151110D01*
X80843594Y-98655871D02*
X80805499Y-98732062D01*
X80767404Y-98770157D01*
X80691213Y-98808252D01*
X80462642Y-98808252D01*
X80386451Y-98770157D01*
X80348356Y-98732062D01*
X80310261Y-98655871D01*
X80310261Y-98541586D01*
X80348356Y-98465395D01*
X80386451Y-98427300D01*
X80462642Y-98389205D01*
X80691213Y-98389205D01*
X80767404Y-98427300D01*
X80805499Y-98465395D01*
X80843594Y-98541586D01*
X80843594Y-98655871D01*
X80043594Y-98122538D02*
X80843594Y-97589205D01*
X80043594Y-97589205D02*
X80843594Y-98122538D01*
X80843594Y-97284443D02*
X80043594Y-97284443D01*
X80615023Y-96941586D02*
X80615023Y-96560633D01*
X80843594Y-97017776D02*
X80043594Y-96751110D01*
X80843594Y-96484443D01*
X80043594Y-96065395D02*
X80043594Y-95913014D01*
X80081690Y-95836824D01*
X80157880Y-95760633D01*
X80310261Y-95722538D01*
X80576928Y-95722538D01*
X80729309Y-95760633D01*
X80805499Y-95836824D01*
X80843594Y-95913014D01*
X80843594Y-96065395D01*
X80805499Y-96141586D01*
X80729309Y-96217776D01*
X80576928Y-96255871D01*
X80310261Y-96255871D01*
X80157880Y-96217776D01*
X80081690Y-96141586D01*
X80043594Y-96065395D01*
D10*
%TO.C,SW2*%
X127564761Y-101163333D02*
X127612380Y-101020476D01*
X127612380Y-100782380D01*
X127564761Y-100687142D01*
X127517142Y-100639523D01*
X127421904Y-100591904D01*
X127326666Y-100591904D01*
X127231428Y-100639523D01*
X127183809Y-100687142D01*
X127136190Y-100782380D01*
X127088571Y-100972857D01*
X127040952Y-101068095D01*
X126993333Y-101115714D01*
X126898095Y-101163333D01*
X126802857Y-101163333D01*
X126707619Y-101115714D01*
X126660000Y-101068095D01*
X126612380Y-100972857D01*
X126612380Y-100734761D01*
X126660000Y-100591904D01*
X126612380Y-100258571D02*
X127612380Y-100020476D01*
X126898095Y-99830000D01*
X127612380Y-99639523D01*
X126612380Y-99401428D01*
X126707619Y-99068095D02*
X126660000Y-99020476D01*
X126612380Y-98925238D01*
X126612380Y-98687142D01*
X126660000Y-98591904D01*
X126707619Y-98544285D01*
X126802857Y-98496666D01*
X126898095Y-98496666D01*
X127040952Y-98544285D01*
X127612380Y-99115714D01*
X127612380Y-98496666D01*
%TO.C,SW1*%
X112564761Y-101163333D02*
X112612380Y-101020476D01*
X112612380Y-100782380D01*
X112564761Y-100687142D01*
X112517142Y-100639523D01*
X112421904Y-100591904D01*
X112326666Y-100591904D01*
X112231428Y-100639523D01*
X112183809Y-100687142D01*
X112136190Y-100782380D01*
X112088571Y-100972857D01*
X112040952Y-101068095D01*
X111993333Y-101115714D01*
X111898095Y-101163333D01*
X111802857Y-101163333D01*
X111707619Y-101115714D01*
X111660000Y-101068095D01*
X111612380Y-100972857D01*
X111612380Y-100734761D01*
X111660000Y-100591904D01*
X111612380Y-100258571D02*
X112612380Y-100020476D01*
X111898095Y-99830000D01*
X112612380Y-99639523D01*
X111612380Y-99401428D01*
X112612380Y-98496666D02*
X112612380Y-99068095D01*
X112612380Y-98782380D02*
X111612380Y-98782380D01*
X111755238Y-98877619D01*
X111850476Y-98972857D01*
X111898095Y-99068095D01*
%TO.C,J1*%
X220452380Y-100333333D02*
X221166666Y-100333333D01*
X221309523Y-100380952D01*
X221404761Y-100476190D01*
X221452380Y-100619047D01*
X221452380Y-100714285D01*
X221452380Y-99333333D02*
X221452380Y-99904761D01*
X221452380Y-99619047D02*
X220452380Y-99619047D01*
X220595238Y-99714285D01*
X220690476Y-99809523D01*
X220738095Y-99904761D01*
X209452380Y-102500000D02*
X208452380Y-102500000D01*
X209452380Y-101928571D02*
X208880952Y-102357142D01*
X208452380Y-101928571D02*
X209023809Y-102500000D01*
X209404761Y-101119047D02*
X209452380Y-101214285D01*
X209452380Y-101404761D01*
X209404761Y-101500000D01*
X209309523Y-101547619D01*
X208928571Y-101547619D01*
X208833333Y-101500000D01*
X208785714Y-101404761D01*
X208785714Y-101214285D01*
X208833333Y-101119047D01*
X208928571Y-101071428D01*
X209023809Y-101071428D01*
X209119047Y-101547619D01*
X208785714Y-100738095D02*
X209452380Y-100500000D01*
X208785714Y-100261904D02*
X209452380Y-100500000D01*
X209690476Y-100595238D01*
X209738095Y-100642857D01*
X209785714Y-100738095D01*
X209452380Y-99880952D02*
X208452380Y-99880952D01*
X208833333Y-99880952D02*
X208785714Y-99785714D01*
X208785714Y-99595238D01*
X208833333Y-99500000D01*
X208880952Y-99452380D01*
X208976190Y-99404761D01*
X209261904Y-99404761D01*
X209357142Y-99452380D01*
X209404761Y-99500000D01*
X209452380Y-99595238D01*
X209452380Y-99785714D01*
X209404761Y-99880952D01*
X209452380Y-98547619D02*
X208928571Y-98547619D01*
X208833333Y-98595238D01*
X208785714Y-98690476D01*
X208785714Y-98880952D01*
X208833333Y-98976190D01*
X209404761Y-98547619D02*
X209452380Y-98642857D01*
X209452380Y-98880952D01*
X209404761Y-98976190D01*
X209309523Y-99023809D01*
X209214285Y-99023809D01*
X209119047Y-98976190D01*
X209071428Y-98880952D01*
X209071428Y-98642857D01*
X209023809Y-98547619D01*
X209452380Y-97928571D02*
X209404761Y-98023809D01*
X209309523Y-98071428D01*
X208452380Y-98071428D01*
X209452380Y-97404761D02*
X209404761Y-97500000D01*
X209309523Y-97547619D01*
X208452380Y-97547619D01*
D13*
%TO.C,SW5*%
X156150000Y-93850000D02*
X156150000Y-106150000D01*
X151400000Y-106150000D02*
X148600000Y-106150000D01*
X143850000Y-93850000D02*
X146400000Y-93850000D01*
X148600000Y-93850000D02*
X151400000Y-93850000D01*
X146400000Y-106150000D02*
X143850000Y-106150000D01*
X156150000Y-106150000D02*
X153600000Y-106150000D01*
X153600000Y-93850000D02*
X156150000Y-93850000D01*
X143850000Y-106150000D02*
X143850000Y-93850000D01*
%TO.C,J2*%
X85270000Y-118680000D02*
X87870000Y-118680000D01*
X87870000Y-118680000D02*
X87870000Y-116020000D01*
X85270000Y-116020000D02*
X87870000Y-116020000D01*
X82670000Y-118680000D02*
X82670000Y-117350000D01*
X84000000Y-118680000D02*
X82670000Y-118680000D01*
X85270000Y-118680000D02*
X85270000Y-116020000D01*
%TO.C,SW3*%
X128850000Y-91400000D02*
X128850000Y-88600000D01*
X128850000Y-96150000D02*
X128850000Y-93600000D01*
X128850000Y-83850000D02*
X141150000Y-83850000D01*
X141150000Y-83850000D02*
X141150000Y-86400000D01*
X128850000Y-86400000D02*
X128850000Y-83850000D01*
X141150000Y-93600000D02*
X141150000Y-96150000D01*
X141150000Y-88600000D02*
X141150000Y-91400000D01*
X141150000Y-96150000D02*
X128850000Y-96150000D01*
D10*
%TO.C,J4*%
X87950000Y-81150000D02*
X87950000Y-83450000D01*
X78050000Y-83450000D02*
X78050000Y-81150000D01*
X87950000Y-83450000D02*
X78050000Y-83450000D01*
X87950000Y-81150000D02*
X78050000Y-81150000D01*
D13*
%TO.C,SW4*%
X128850000Y-111400000D02*
X128850000Y-108600000D01*
X141150000Y-113600000D02*
X141150000Y-116150000D01*
X141150000Y-103850000D02*
X141150000Y-106400000D01*
X141150000Y-108600000D02*
X141150000Y-111400000D01*
X128850000Y-106400000D02*
X128850000Y-103850000D01*
X128850000Y-103850000D02*
X141150000Y-103850000D01*
X128850000Y-116150000D02*
X128850000Y-113600000D01*
X141150000Y-116150000D02*
X128850000Y-116150000D01*
%TO.C,U1*%
X75930180Y-95456580D02*
X75930180Y-104455800D01*
X70100000Y-93099999D02*
X70100000Y-106899999D01*
X70100000Y-95456580D02*
X75930180Y-95456580D01*
X75930180Y-104455800D02*
X70100000Y-104455800D01*
X91100000Y-106899999D02*
X91100000Y-93099999D01*
X70100000Y-106899999D02*
G75*
G03*
X71900000Y-108899999I2011114J3D01*
G01*
X71900000Y-91099999D02*
G75*
G03*
X70100000Y-93099999I211110J-1999999D01*
G01*
X91100000Y-93099999D02*
G75*
G03*
X89300000Y-91099999I-2011114J-3D01*
G01*
X89300000Y-108899999D02*
G75*
G03*
X91100000Y-106899999I-211110J1999999D01*
G01*
D14*
X73107000Y-110160000D02*
G75*
G03*
X73107000Y-110160000I-127000J0D01*
G01*
D13*
%TO.C,SW2*%
X116400000Y-106150000D02*
X113850000Y-106150000D01*
X113850000Y-93850000D02*
X116400000Y-93850000D01*
X118600000Y-93850000D02*
X121400000Y-93850000D01*
X126150000Y-106150000D02*
X123600000Y-106150000D01*
X121400000Y-106150000D02*
X118600000Y-106150000D01*
X113850000Y-106150000D02*
X113850000Y-93850000D01*
X123600000Y-93850000D02*
X126150000Y-93850000D01*
X126150000Y-93850000D02*
X126150000Y-106150000D01*
%TO.C,SW1*%
X111150000Y-106150000D02*
X108600000Y-106150000D01*
X98850000Y-106150000D02*
X98850000Y-93850000D01*
X101400000Y-106150000D02*
X98850000Y-106150000D01*
X108600000Y-93850000D02*
X111150000Y-93850000D01*
X111150000Y-93850000D02*
X111150000Y-106150000D01*
X103600000Y-93850000D02*
X106400000Y-93850000D01*
X106400000Y-106150000D02*
X103600000Y-106150000D01*
X98850000Y-93850000D02*
X101400000Y-93850000D01*
D12*
%TO.C,J1*%
X223750000Y-89000000D02*
X222150000Y-89000000D01*
X222150000Y-89000000D02*
X222150000Y-111000000D01*
X222150000Y-111000000D02*
X223750000Y-111000000D01*
X223750000Y-111000000D02*
X223750000Y-89000000D01*
X223750000Y-108750000D02*
X226250000Y-108750000D01*
X226250000Y-108750000D02*
X226250000Y-91250000D01*
X226250000Y-91250000D02*
X223750000Y-91250000D01*
X223750000Y-91250000D02*
X223750000Y-108750000D01*
%TD*%
M02*
