%TF.GenerationSoftware,KiCad,Pcbnew,(6.0.1)*%
%TF.CreationDate,2022-02-05T13:44:02+09:00*%
%TF.ProjectId,yuiop60hh5,7975696f-7036-4306-9868-352e6b696361,5*%
%TF.SameCoordinates,Original*%
%TF.FileFunction,Soldermask,Bot*%
%TF.FilePolarity,Negative*%
%FSLAX46Y46*%
G04 Gerber Fmt 4.6, Leading zero omitted, Abs format (unit mm)*
G04 Created by KiCad (PCBNEW (6.0.1)) date 2022-02-05 13:44:02*
%MOMM*%
%LPD*%
G01*
G04 APERTURE LIST*
G04 Aperture macros list*
%AMRoundRect*
0 Rectangle with rounded corners*
0 $1 Rounding radius*
0 $2 $3 $4 $5 $6 $7 $8 $9 X,Y pos of 4 corners*
0 Add a 4 corners polygon primitive as box body*
4,1,4,$2,$3,$4,$5,$6,$7,$8,$9,$2,$3,0*
0 Add four circle primitives for the rounded corners*
1,1,$1+$1,$2,$3*
1,1,$1+$1,$4,$5*
1,1,$1+$1,$6,$7*
1,1,$1+$1,$8,$9*
0 Add four rect primitives between the rounded corners*
20,1,$1+$1,$2,$3,$4,$5,0*
20,1,$1+$1,$4,$5,$6,$7,0*
20,1,$1+$1,$6,$7,$8,$9,0*
20,1,$1+$1,$8,$9,$2,$3,0*%
%AMOutline5P*
0 Free polygon, 5 corners , with rotation*
0 The origin of the aperture is its center*
0 number of corners: always 5*
0 $1 to $10 corner X, Y*
0 $11 Rotation angle, in degrees counterclockwise*
0 create outline with 5 corners*
4,1,5,$1,$2,$3,$4,$5,$6,$7,$8,$9,$10,$1,$2,$11*%
%AMOutline6P*
0 Free polygon, 6 corners , with rotation*
0 The origin of the aperture is its center*
0 number of corners: always 6*
0 $1 to $12 corner X, Y*
0 $13 Rotation angle, in degrees counterclockwise*
0 create outline with 6 corners*
4,1,6,$1,$2,$3,$4,$5,$6,$7,$8,$9,$10,$11,$12,$1,$2,$13*%
%AMOutline7P*
0 Free polygon, 7 corners , with rotation*
0 The origin of the aperture is its center*
0 number of corners: always 7*
0 $1 to $14 corner X, Y*
0 $15 Rotation angle, in degrees counterclockwise*
0 create outline with 7 corners*
4,1,7,$1,$2,$3,$4,$5,$6,$7,$8,$9,$10,$11,$12,$13,$14,$1,$2,$15*%
%AMOutline8P*
0 Free polygon, 8 corners , with rotation*
0 The origin of the aperture is its center*
0 number of corners: always 8*
0 $1 to $16 corner X, Y*
0 $17 Rotation angle, in degrees counterclockwise*
0 create outline with 8 corners*
4,1,8,$1,$2,$3,$4,$5,$6,$7,$8,$9,$10,$11,$12,$13,$14,$15,$16,$1,$2,$17*%
G04 Aperture macros list end*
%ADD10RoundRect,0.200000X-0.650000X-0.300000X0.650000X-0.300000X0.650000X0.300000X-0.650000X0.300000X0*%
%ADD11Outline5P,-0.850000X0.170000X-0.520000X0.500000X0.850000X0.500000X0.850000X-0.500000X-0.850000X-0.500000X0.000000*%
%ADD12RoundRect,0.225000X-0.225000X-0.375000X0.225000X-0.375000X0.225000X0.375000X-0.225000X0.375000X0*%
%ADD13C,4.100000*%
%ADD14C,1.900000*%
%ADD15C,3.000000*%
%ADD16C,3.050000*%
%ADD17RoundRect,0.250000X-1.025000X-1.000000X1.025000X-1.000000X1.025000X1.000000X-1.025000X1.000000X0*%
%ADD18C,1.000000*%
%ADD19O,5.400000X4.000000*%
%ADD20C,5.000000*%
%ADD21C,2.200000*%
%ADD22O,7.000000X2.500000*%
%ADD23C,4.000000*%
%ADD24C,3.048000*%
%ADD25C,3.987800*%
%ADD26R,0.550000X1.500000*%
%ADD27R,1.500000X0.550000*%
%ADD28RoundRect,0.237500X0.300000X0.237500X-0.300000X0.237500X-0.300000X-0.237500X0.300000X-0.237500X0*%
%ADD29R,1.700000X1.700000*%
%ADD30O,1.700000X1.700000*%
%ADD31R,0.400000X1.650000*%
%ADD32R,2.000000X1.500000*%
%ADD33R,1.350000X2.000000*%
%ADD34R,1.430000X2.500000*%
%ADD35O,1.350000X1.700000*%
%ADD36O,1.100000X1.500000*%
%ADD37R,1.825000X0.700000*%
%ADD38R,1.300000X1.550000*%
%ADD39RoundRect,0.237500X0.250000X0.237500X-0.250000X0.237500X-0.250000X-0.237500X0.250000X-0.237500X0*%
%ADD40RoundRect,0.237500X-0.250000X-0.237500X0.250000X-0.237500X0.250000X0.237500X-0.250000X0.237500X0*%
%ADD41RoundRect,0.237500X-0.300000X-0.237500X0.300000X-0.237500X0.300000X0.237500X-0.300000X0.237500X0*%
%ADD42R,1.400000X1.200000*%
%ADD43R,0.900000X1.200000*%
%ADD44RoundRect,0.250000X0.462500X0.625000X-0.462500X0.625000X-0.462500X-0.625000X0.462500X-0.625000X0*%
G04 APERTURE END LIST*
D10*
%TO.C,LED1*%
X325860000Y-186141000D03*
X325860000Y-184741000D03*
D11*
X320360000Y-184741000D03*
D10*
X320360000Y-186141000D03*
%TD*%
%TO.C,LED2*%
X334427000Y-186141000D03*
X334427000Y-184741000D03*
D11*
X328927000Y-184741000D03*
D10*
X328927000Y-186141000D03*
%TD*%
D12*
%TO.C,D47*%
X182275000Y-168741250D03*
X185575000Y-168741250D03*
%TD*%
%TO.C,D44*%
X125125000Y-168741250D03*
X128425000Y-168741250D03*
%TD*%
%TO.C,D42*%
X337056250Y-149691250D03*
X340356250Y-149691250D03*
%TD*%
%TO.C,D35*%
X191800000Y-149691250D03*
X195100000Y-149691250D03*
%TD*%
%TO.C,D41*%
X306100000Y-149691250D03*
X309400000Y-149691250D03*
%TD*%
%TO.C,D40*%
X287050000Y-149691250D03*
X290350000Y-149691250D03*
%TD*%
%TO.C,D38*%
X248950000Y-149691250D03*
X252250000Y-149691250D03*
%TD*%
%TO.C,D49*%
X220375000Y-168741250D03*
X223675000Y-168741250D03*
%TD*%
%TO.C,D52*%
X277525000Y-168741250D03*
X280825000Y-168741250D03*
%TD*%
%TO.C,D59*%
X277525000Y-187791000D03*
X280825000Y-187791000D03*
%TD*%
%TO.C,D53*%
X296575000Y-168741250D03*
X299875000Y-168741250D03*
%TD*%
%TO.C,D58*%
X206087500Y-187791000D03*
X209387500Y-187791000D03*
%TD*%
%TO.C,D57*%
X134650000Y-187791000D03*
X137950000Y-187791000D03*
%TD*%
%TO.C,D50*%
X239425000Y-168741250D03*
X242725000Y-168741250D03*
%TD*%
%TO.C,D56*%
X110837500Y-187791000D03*
X114137500Y-187791000D03*
%TD*%
%TO.C,D43*%
X94168750Y-168741250D03*
X97468750Y-168741250D03*
%TD*%
%TO.C,D55*%
X348962500Y-168741250D03*
X352262500Y-168741250D03*
%TD*%
%TO.C,D54*%
X322768750Y-168741250D03*
X326068750Y-168741250D03*
%TD*%
%TO.C,D51*%
X258475000Y-168741250D03*
X261775000Y-168741250D03*
%TD*%
%TO.C,D46*%
X163225000Y-168741250D03*
X166525000Y-168741250D03*
%TD*%
%TO.C,D45*%
X144175000Y-168741250D03*
X147475000Y-168741250D03*
%TD*%
%TO.C,D39*%
X268000000Y-149691250D03*
X271300000Y-149691250D03*
%TD*%
%TO.C,D37*%
X229900000Y-149691250D03*
X233200000Y-149691250D03*
%TD*%
%TO.C,D30*%
X89406250Y-149691250D03*
X92706250Y-149691250D03*
%TD*%
%TO.C,D22*%
X206087500Y-130641250D03*
X209387500Y-130641250D03*
%TD*%
%TO.C,D15*%
X348962500Y-111591250D03*
X352262500Y-111591250D03*
%TD*%
%TO.C,D12*%
X291812500Y-111591250D03*
X295112500Y-111591250D03*
%TD*%
%TO.C,D21*%
X187037500Y-130641250D03*
X190337500Y-130641250D03*
%TD*%
%TO.C,D20*%
X167987500Y-130641250D03*
X171287500Y-130641250D03*
%TD*%
%TO.C,D3*%
X120362000Y-111591250D03*
X123662000Y-111591250D03*
%TD*%
%TO.C,D13*%
X310862500Y-111591250D03*
X314162500Y-111591250D03*
%TD*%
%TO.C,D27*%
X301337500Y-130641250D03*
X304637500Y-130641250D03*
%TD*%
%TO.C,D7*%
X196562500Y-111591250D03*
X199862500Y-111591250D03*
%TD*%
%TO.C,D5*%
X158462500Y-111591250D03*
X161762500Y-111591250D03*
%TD*%
%TO.C,D23*%
X225137500Y-130641250D03*
X228437500Y-130641250D03*
%TD*%
%TO.C,D25*%
X263237500Y-130641250D03*
X266537500Y-130641250D03*
%TD*%
%TO.C,D18*%
X129887500Y-130641250D03*
X133187500Y-130641250D03*
%TD*%
%TO.C,D31*%
X115600000Y-149691250D03*
X118900000Y-149691250D03*
%TD*%
%TO.C,D16*%
X87025000Y-130641250D03*
X90325000Y-130641250D03*
%TD*%
%TO.C,D24*%
X244187500Y-130641250D03*
X247487500Y-130641250D03*
%TD*%
%TO.C,D2*%
X101312500Y-111591250D03*
X104612500Y-111591250D03*
%TD*%
%TO.C,D19*%
X148937500Y-130641250D03*
X152237500Y-130641250D03*
%TD*%
%TO.C,D11*%
X272762500Y-111591250D03*
X276062500Y-111591250D03*
%TD*%
%TO.C,D1*%
X82262500Y-111591250D03*
X85562500Y-111591250D03*
%TD*%
%TO.C,D8*%
X215613000Y-111591250D03*
X218913000Y-111591250D03*
%TD*%
%TO.C,D10*%
X253712500Y-111591250D03*
X257012500Y-111591250D03*
%TD*%
%TO.C,D4*%
X139412500Y-111591250D03*
X142712500Y-111591250D03*
%TD*%
%TO.C,D32*%
X134650000Y-149691250D03*
X137950000Y-149691250D03*
%TD*%
%TO.C,D28*%
X320387500Y-130641250D03*
X323687500Y-130641250D03*
%TD*%
%TO.C,D26*%
X282287500Y-130641250D03*
X285587500Y-130641250D03*
%TD*%
%TO.C,D6*%
X177512500Y-111591250D03*
X180812500Y-111591250D03*
%TD*%
%TO.C,D14*%
X329912500Y-111591250D03*
X333212500Y-111591250D03*
%TD*%
%TO.C,D33*%
X153700000Y-149691250D03*
X157000000Y-149691250D03*
%TD*%
%TO.C,D34*%
X172750000Y-149691250D03*
X176050000Y-149691250D03*
%TD*%
%TO.C,D29*%
X344200000Y-130641250D03*
X347500000Y-130641250D03*
%TD*%
%TO.C,D17*%
X110837500Y-130641250D03*
X114137500Y-130641250D03*
%TD*%
%TO.C,D36*%
X210850000Y-149691250D03*
X214150000Y-149691250D03*
%TD*%
D13*
%TO.C,KSW1*%
X79150000Y-109210000D03*
D14*
X74070000Y-109210000D03*
X84230000Y-109210000D03*
D15*
X75340000Y-106670000D03*
X81690000Y-104130000D03*
%TD*%
D13*
%TO.C,KSW2*%
X98200000Y-109210000D03*
D14*
X103280000Y-109210000D03*
X93120000Y-109210000D03*
D15*
X94390000Y-106670000D03*
X100740000Y-104130000D03*
%TD*%
D16*
%TO.C,KSW3*%
X119790000Y-104130000D03*
D14*
X122330000Y-109210000D03*
D13*
X117250000Y-109210000D03*
D16*
X113440000Y-106670000D03*
D14*
X112170000Y-109210000D03*
D17*
X110165000Y-106670000D03*
D18*
X110165000Y-106670000D03*
X123092000Y-104130000D03*
D17*
X123092000Y-104130000D03*
%TD*%
D14*
%TO.C,KSW4*%
X141380000Y-109210000D03*
D16*
X138840000Y-104130000D03*
D14*
X131220000Y-109210000D03*
D16*
X132490000Y-106670000D03*
D13*
X136300000Y-109210000D03*
D18*
X129215000Y-106670000D03*
D17*
X129215000Y-106670000D03*
D18*
X142142000Y-104130000D03*
D17*
X142142000Y-104130000D03*
%TD*%
D16*
%TO.C,KSW5*%
X157890000Y-104130000D03*
D13*
X155350000Y-109210000D03*
D14*
X150270000Y-109210000D03*
D16*
X151540000Y-106670000D03*
D14*
X160430000Y-109210000D03*
D17*
X148265000Y-106670000D03*
D18*
X148265000Y-106670000D03*
X161192000Y-104130000D03*
D17*
X161192000Y-104130000D03*
%TD*%
D14*
%TO.C,KSW6*%
X179480000Y-109210000D03*
D16*
X170590000Y-106670000D03*
X176940000Y-104130000D03*
D14*
X169320000Y-109210000D03*
D13*
X174400000Y-109210000D03*
D17*
X167315000Y-106670000D03*
D18*
X167315000Y-106670000D03*
D17*
X180242000Y-104130000D03*
D18*
X180242000Y-104130000D03*
%TD*%
D13*
%TO.C,KSW7*%
X193450000Y-109210000D03*
D14*
X198530000Y-109210000D03*
X188370000Y-109210000D03*
D16*
X195990000Y-104130000D03*
X189640000Y-106670000D03*
D18*
X186365000Y-106670000D03*
D17*
X186365000Y-106670000D03*
X199292000Y-104130000D03*
D18*
X199292000Y-104130000D03*
%TD*%
D14*
%TO.C,KSW8*%
X207420000Y-109210000D03*
D16*
X208690000Y-106670000D03*
D14*
X217580000Y-109210000D03*
D16*
X215040000Y-104130000D03*
D13*
X212500000Y-109210000D03*
D18*
X205415000Y-106670000D03*
D17*
X205415000Y-106670000D03*
D18*
X218342000Y-104130000D03*
D17*
X218342000Y-104130000D03*
%TD*%
D14*
%TO.C,KSW9*%
X226470000Y-109210000D03*
D13*
X231550000Y-109210000D03*
D16*
X234090000Y-104130000D03*
D14*
X236630000Y-109210000D03*
D16*
X227740000Y-106670000D03*
D18*
X224465000Y-106670000D03*
D17*
X224465000Y-106670000D03*
X237392000Y-104130000D03*
D18*
X237392000Y-104130000D03*
%TD*%
D16*
%TO.C,KSW10*%
X246790000Y-106670000D03*
D14*
X245520000Y-109210000D03*
D16*
X253140000Y-104130000D03*
D14*
X255680000Y-109210000D03*
D13*
X250600000Y-109210000D03*
D18*
X243515000Y-106670000D03*
D17*
X243515000Y-106670000D03*
D18*
X256442000Y-104130000D03*
D17*
X256442000Y-104130000D03*
%TD*%
D16*
%TO.C,KSW11*%
X272190000Y-104130000D03*
D14*
X274730000Y-109210000D03*
D13*
X269650000Y-109210000D03*
D16*
X265840000Y-106670000D03*
D14*
X264570000Y-109210000D03*
D17*
X262565000Y-106670000D03*
D18*
X262565000Y-106670000D03*
X275492000Y-104130000D03*
D17*
X275492000Y-104130000D03*
%TD*%
D14*
%TO.C,KSW12*%
X293780000Y-109210000D03*
D16*
X284890000Y-106670000D03*
X291240000Y-104130000D03*
D14*
X283620000Y-109210000D03*
D13*
X288700000Y-109210000D03*
D17*
X281615000Y-106670000D03*
D18*
X281615000Y-106670000D03*
X294542000Y-104130000D03*
D17*
X294542000Y-104130000D03*
%TD*%
D13*
%TO.C,KSW14*%
X326800000Y-109210000D03*
D16*
X322990000Y-106670000D03*
D14*
X321720000Y-109210000D03*
X331880000Y-109210000D03*
D16*
X329340000Y-104130000D03*
D18*
X319715000Y-106670000D03*
D17*
X319715000Y-106670000D03*
D18*
X332642000Y-104130000D03*
D17*
X332642000Y-104130000D03*
%TD*%
D16*
%TO.C,KSW15*%
X348390000Y-104130000D03*
X342040000Y-106670000D03*
D14*
X350930000Y-109210000D03*
X340770000Y-109210000D03*
D13*
X345850000Y-109210000D03*
D18*
X338765000Y-106670000D03*
D17*
X338765000Y-106670000D03*
X351692000Y-104130000D03*
D18*
X351692000Y-104130000D03*
%TD*%
D13*
%TO.C,KSW16*%
X83912500Y-128260000D03*
D14*
X88992500Y-128260000D03*
D16*
X86452500Y-123180000D03*
D14*
X78832500Y-128260000D03*
D16*
X80102500Y-125720000D03*
D17*
X76827500Y-125720000D03*
D18*
X76827500Y-125720000D03*
D17*
X89754500Y-123180000D03*
D18*
X89754500Y-123180000D03*
%TD*%
D13*
%TO.C,KSW17*%
X107725000Y-128260000D03*
D16*
X110265000Y-123180000D03*
D14*
X112805000Y-128260000D03*
D16*
X103915000Y-125720000D03*
D14*
X102645000Y-128260000D03*
D17*
X100640000Y-125720000D03*
D18*
X100640000Y-125720000D03*
D17*
X113567000Y-123180000D03*
D18*
X113567000Y-123180000D03*
%TD*%
D13*
%TO.C,KSW18*%
X126775000Y-128260000D03*
D14*
X131855000Y-128260000D03*
D16*
X122965000Y-125720000D03*
X129315000Y-123180000D03*
D14*
X121695000Y-128260000D03*
D18*
X119690000Y-125720000D03*
D17*
X119690000Y-125720000D03*
X132617000Y-123180000D03*
D18*
X132617000Y-123180000D03*
%TD*%
D16*
%TO.C,KSW19*%
X142015000Y-125720000D03*
X148365000Y-123180000D03*
D14*
X150905000Y-128260000D03*
X140745000Y-128260000D03*
D13*
X145825000Y-128260000D03*
D18*
X138740000Y-125720000D03*
D17*
X138740000Y-125720000D03*
D18*
X151667000Y-123180000D03*
D17*
X151667000Y-123180000D03*
%TD*%
D13*
%TO.C,KSW20*%
X164875000Y-128260000D03*
D16*
X161065000Y-125720000D03*
D14*
X159795000Y-128260000D03*
D16*
X167415000Y-123180000D03*
D14*
X169955000Y-128260000D03*
D18*
X157790000Y-125720000D03*
D17*
X157790000Y-125720000D03*
X170717000Y-123180000D03*
D18*
X170717000Y-123180000D03*
%TD*%
D16*
%TO.C,KSW21*%
X186465000Y-123180000D03*
D14*
X189005000Y-128260000D03*
X178845000Y-128260000D03*
D13*
X183925000Y-128260000D03*
D16*
X180115000Y-125720000D03*
D18*
X176840000Y-125720000D03*
D17*
X176840000Y-125720000D03*
X189767000Y-123180000D03*
D18*
X189767000Y-123180000D03*
%TD*%
D16*
%TO.C,KSW22*%
X199165000Y-125720000D03*
D14*
X208055000Y-128260000D03*
D16*
X205515000Y-123180000D03*
D14*
X197895000Y-128260000D03*
D13*
X202975000Y-128260000D03*
D17*
X195890000Y-125720000D03*
D18*
X195890000Y-125720000D03*
D17*
X208817000Y-123180000D03*
D18*
X208817000Y-123180000D03*
%TD*%
D16*
%TO.C,KSW23*%
X218215000Y-125720000D03*
D14*
X216945000Y-128260000D03*
D13*
X222025000Y-128260000D03*
D14*
X227105000Y-128260000D03*
D16*
X224565000Y-123180000D03*
D17*
X214940000Y-125720000D03*
D18*
X214940000Y-125720000D03*
X227867000Y-123180000D03*
D17*
X227867000Y-123180000D03*
%TD*%
D16*
%TO.C,KSW24*%
X243615000Y-123180000D03*
D13*
X241075000Y-128260000D03*
D14*
X235995000Y-128260000D03*
D16*
X237265000Y-125720000D03*
D14*
X246155000Y-128260000D03*
D17*
X233990000Y-125720000D03*
D18*
X233990000Y-125720000D03*
D17*
X246917000Y-123180000D03*
D18*
X246917000Y-123180000D03*
%TD*%
D14*
%TO.C,KSW25*%
X265205000Y-128260000D03*
D16*
X262665000Y-123180000D03*
D13*
X260125000Y-128260000D03*
D14*
X255045000Y-128260000D03*
D16*
X256315000Y-125720000D03*
D18*
X253040000Y-125720000D03*
D17*
X253040000Y-125720000D03*
X265967000Y-123180000D03*
D18*
X265967000Y-123180000D03*
%TD*%
D16*
%TO.C,KSW26*%
X275365000Y-125720000D03*
X281715000Y-123180000D03*
D14*
X274095000Y-128260000D03*
D13*
X279175000Y-128260000D03*
D14*
X284255000Y-128260000D03*
D18*
X272090000Y-125720000D03*
D17*
X272090000Y-125720000D03*
D18*
X285017000Y-123180000D03*
D17*
X285017000Y-123180000D03*
%TD*%
D14*
%TO.C,KSW27*%
X293145000Y-128260000D03*
D16*
X300765000Y-123180000D03*
D13*
X298225000Y-128260000D03*
D16*
X294415000Y-125720000D03*
D14*
X303305000Y-128260000D03*
D18*
X291140000Y-125720000D03*
D17*
X291140000Y-125720000D03*
X304067000Y-123180000D03*
D18*
X304067000Y-123180000D03*
%TD*%
D14*
%TO.C,KSW28*%
X322355000Y-128260000D03*
D13*
X317275000Y-128260000D03*
D16*
X313465000Y-125720000D03*
D14*
X312195000Y-128260000D03*
D16*
X319815000Y-123180000D03*
D17*
X310190000Y-125720000D03*
D18*
X310190000Y-125720000D03*
D17*
X323117000Y-123180000D03*
D18*
X323117000Y-123180000D03*
%TD*%
D14*
%TO.C,KSW29*%
X336007000Y-128260000D03*
X346167000Y-128260000D03*
D16*
X343627000Y-123180000D03*
D13*
X341087000Y-128260000D03*
D16*
X337277000Y-125720000D03*
D18*
X334002000Y-125720000D03*
D17*
X334002000Y-125720000D03*
D18*
X346929000Y-123180000D03*
D17*
X346929000Y-123180000D03*
%TD*%
D13*
%TO.C,KSW30*%
X86293800Y-147310000D03*
D14*
X91373800Y-147310000D03*
X81213800Y-147310000D03*
D16*
X82483800Y-144770000D03*
X88833800Y-142230000D03*
D17*
X79208800Y-144770000D03*
D18*
X79208800Y-144770000D03*
D17*
X92135800Y-142230000D03*
D18*
X92135800Y-142230000D03*
%TD*%
D14*
%TO.C,KSW31*%
X107407000Y-147310000D03*
X117567000Y-147310000D03*
D16*
X115027000Y-142230000D03*
X108677000Y-144770000D03*
D13*
X112487000Y-147310000D03*
D18*
X105402000Y-144770000D03*
D17*
X105402000Y-144770000D03*
D18*
X118329000Y-142230000D03*
D17*
X118329000Y-142230000D03*
%TD*%
D16*
%TO.C,KSW32*%
X134077000Y-142230000D03*
D13*
X131537000Y-147310000D03*
D14*
X126457000Y-147310000D03*
D16*
X127727000Y-144770000D03*
D14*
X136617000Y-147310000D03*
D17*
X124452000Y-144770000D03*
D18*
X124452000Y-144770000D03*
D17*
X137379000Y-142230000D03*
D18*
X137379000Y-142230000D03*
%TD*%
D14*
%TO.C,KSW33*%
X145507000Y-147310000D03*
D16*
X146777000Y-144770000D03*
X153127000Y-142230000D03*
D13*
X150587000Y-147310000D03*
D14*
X155667000Y-147310000D03*
D18*
X143502000Y-144770000D03*
D17*
X143502000Y-144770000D03*
X156429000Y-142230000D03*
D18*
X156429000Y-142230000D03*
%TD*%
D14*
%TO.C,KSW34*%
X174717000Y-147310000D03*
D16*
X172177000Y-142230000D03*
X165827000Y-144770000D03*
D14*
X164557000Y-147310000D03*
D13*
X169637000Y-147310000D03*
D17*
X162552000Y-144770000D03*
D18*
X162552000Y-144770000D03*
X175479000Y-142230000D03*
D17*
X175479000Y-142230000D03*
%TD*%
D16*
%TO.C,KSW35*%
X191227000Y-142230000D03*
D14*
X183607000Y-147310000D03*
D13*
X188687000Y-147310000D03*
D14*
X193767000Y-147310000D03*
D16*
X184877000Y-144770000D03*
D17*
X181602000Y-144770000D03*
D18*
X181602000Y-144770000D03*
X194529000Y-142230000D03*
D17*
X194529000Y-142230000D03*
%TD*%
D13*
%TO.C,KSW36*%
X207737000Y-147310000D03*
D14*
X212817000Y-147310000D03*
D16*
X210277000Y-142230000D03*
D14*
X202657000Y-147310000D03*
D16*
X203927000Y-144770000D03*
D18*
X200652000Y-144770000D03*
D17*
X200652000Y-144770000D03*
D18*
X213579000Y-142230000D03*
D17*
X213579000Y-142230000D03*
%TD*%
D14*
%TO.C,KSW37*%
X231867000Y-147310000D03*
X221707000Y-147310000D03*
D16*
X222977000Y-144770000D03*
X229327000Y-142230000D03*
D13*
X226787000Y-147310000D03*
D18*
X219702000Y-144770000D03*
D17*
X219702000Y-144770000D03*
X232629000Y-142230000D03*
D18*
X232629000Y-142230000D03*
%TD*%
D14*
%TO.C,KSW38*%
X250917000Y-147310000D03*
D13*
X245837000Y-147310000D03*
D14*
X240757000Y-147310000D03*
D16*
X242027000Y-144770000D03*
X248377000Y-142230000D03*
D18*
X238752000Y-144770000D03*
D17*
X238752000Y-144770000D03*
X251679000Y-142230000D03*
D18*
X251679000Y-142230000D03*
%TD*%
D16*
%TO.C,KSW39*%
X267427000Y-142230000D03*
D14*
X259807000Y-147310000D03*
X269967000Y-147310000D03*
D16*
X261077000Y-144770000D03*
D13*
X264887000Y-147310000D03*
D17*
X257802000Y-144770000D03*
D18*
X257802000Y-144770000D03*
D17*
X270729000Y-142230000D03*
D18*
X270729000Y-142230000D03*
%TD*%
D14*
%TO.C,KSW40*%
X278857000Y-147310000D03*
D16*
X280127000Y-144770000D03*
D13*
X283937000Y-147310000D03*
D14*
X289017000Y-147310000D03*
D16*
X286477000Y-142230000D03*
D17*
X276852000Y-144770000D03*
D18*
X276852000Y-144770000D03*
X289779000Y-142230000D03*
D17*
X289779000Y-142230000D03*
%TD*%
D16*
%TO.C,KSW41*%
X305527000Y-142230000D03*
D14*
X297907000Y-147310000D03*
D16*
X299177000Y-144770000D03*
D14*
X308067000Y-147310000D03*
D13*
X302987000Y-147310000D03*
D17*
X295902000Y-144770000D03*
D18*
X295902000Y-144770000D03*
X308829000Y-142230000D03*
D17*
X308829000Y-142230000D03*
%TD*%
D16*
%TO.C,KSW42*%
X336484000Y-142230000D03*
X330134000Y-144770000D03*
D14*
X339024000Y-147310000D03*
D13*
X333944000Y-147310000D03*
D14*
X328864000Y-147310000D03*
D18*
X326859000Y-144770000D03*
D17*
X326859000Y-144770000D03*
X339786000Y-142230000D03*
D18*
X339786000Y-142230000D03*
%TD*%
D14*
%TO.C,KSW43*%
X96135700Y-166360000D03*
D16*
X93595700Y-161280000D03*
X87245700Y-163820000D03*
D13*
X91055700Y-166360000D03*
D14*
X85975700Y-166360000D03*
D18*
X83970700Y-163820000D03*
D17*
X83970700Y-163820000D03*
D18*
X96897700Y-161280000D03*
D17*
X96897700Y-161280000D03*
%TD*%
D14*
%TO.C,KSW44*%
X116933000Y-166360000D03*
D16*
X118203000Y-163820000D03*
D13*
X122013000Y-166360000D03*
D14*
X127093000Y-166360000D03*
D16*
X124553000Y-161280000D03*
D17*
X114928000Y-163820000D03*
D18*
X114928000Y-163820000D03*
D17*
X127855000Y-161280000D03*
D18*
X127855000Y-161280000D03*
%TD*%
D14*
%TO.C,KSW45*%
X146143000Y-166360000D03*
D13*
X141063000Y-166360000D03*
D16*
X137253000Y-163820000D03*
D14*
X135983000Y-166360000D03*
D16*
X143603000Y-161280000D03*
D17*
X133978000Y-163820000D03*
D18*
X133978000Y-163820000D03*
X146905000Y-161280000D03*
D17*
X146905000Y-161280000D03*
%TD*%
D14*
%TO.C,KSW46*%
X165193000Y-166360000D03*
D16*
X156303000Y-163820000D03*
X162653000Y-161280000D03*
D14*
X155033000Y-166360000D03*
D13*
X160113000Y-166360000D03*
D18*
X153028000Y-163820000D03*
D17*
X153028000Y-163820000D03*
D18*
X165955000Y-161280000D03*
D17*
X165955000Y-161280000D03*
%TD*%
D16*
%TO.C,KSW47*%
X175353000Y-163820000D03*
D14*
X174083000Y-166360000D03*
D16*
X181703000Y-161280000D03*
D13*
X179163000Y-166360000D03*
D14*
X184243000Y-166360000D03*
D18*
X172078000Y-163820000D03*
D17*
X172078000Y-163820000D03*
X185005000Y-161280000D03*
D18*
X185005000Y-161280000D03*
%TD*%
D14*
%TO.C,KSW50*%
X241393000Y-166360000D03*
X231233000Y-166360000D03*
D16*
X238853000Y-161280000D03*
X232503000Y-163820000D03*
D13*
X236313000Y-166360000D03*
D18*
X229228000Y-163820000D03*
D17*
X229228000Y-163820000D03*
X242155000Y-161280000D03*
D18*
X242155000Y-161280000D03*
%TD*%
D14*
%TO.C,KSW51*%
X250283000Y-166360000D03*
D13*
X255363000Y-166360000D03*
D14*
X260443000Y-166360000D03*
D16*
X257903000Y-161280000D03*
X251553000Y-163820000D03*
D18*
X248278000Y-163820000D03*
D17*
X248278000Y-163820000D03*
X261205000Y-161280000D03*
D18*
X261205000Y-161280000D03*
%TD*%
D16*
%TO.C,KSW52*%
X270603000Y-163820000D03*
X276953000Y-161280000D03*
D14*
X279493000Y-166360000D03*
D13*
X274413000Y-166360000D03*
D14*
X269333000Y-166360000D03*
D17*
X267328000Y-163820000D03*
D18*
X267328000Y-163820000D03*
X280255000Y-161280000D03*
D17*
X280255000Y-161280000D03*
%TD*%
D16*
%TO.C,KSW53*%
X289653000Y-163820000D03*
D13*
X293463000Y-166360000D03*
D16*
X296003000Y-161280000D03*
D14*
X298543000Y-166360000D03*
X288383000Y-166360000D03*
D18*
X286378000Y-163820000D03*
D17*
X286378000Y-163820000D03*
D18*
X299305000Y-161280000D03*
D17*
X299305000Y-161280000D03*
%TD*%
D14*
%TO.C,KSW54*%
X324736000Y-166360000D03*
D16*
X322196000Y-161280000D03*
D14*
X314576000Y-166360000D03*
D16*
X315846000Y-163820000D03*
D13*
X319656000Y-166360000D03*
D18*
X312571000Y-163820000D03*
D17*
X312571000Y-163820000D03*
D18*
X325498000Y-161280000D03*
D17*
X325498000Y-161280000D03*
%TD*%
D16*
%TO.C,KSW55*%
X342040000Y-163820000D03*
D14*
X340770000Y-166360000D03*
D16*
X348390000Y-161280000D03*
D13*
X345850000Y-166360000D03*
D14*
X350930000Y-166360000D03*
D17*
X338765000Y-163820000D03*
D18*
X338765000Y-163820000D03*
X351692000Y-161280000D03*
D17*
X351692000Y-161280000D03*
%TD*%
D16*
%TO.C,KSW56*%
X110265000Y-180330000D03*
D14*
X112805000Y-185410000D03*
D16*
X103915000Y-182870000D03*
D13*
X107725000Y-185410000D03*
D14*
X102645000Y-185410000D03*
D18*
X100640000Y-182870000D03*
D17*
X100640000Y-182870000D03*
X113567000Y-180330000D03*
D18*
X113567000Y-180330000D03*
%TD*%
D14*
%TO.C,KSW57*%
X126457000Y-185410000D03*
D16*
X127727000Y-182870000D03*
D14*
X136617000Y-185410000D03*
D13*
X131537000Y-185410000D03*
D16*
X134077000Y-180330000D03*
D17*
X124452000Y-182870000D03*
D18*
X124452000Y-182870000D03*
D17*
X137379000Y-180330000D03*
D18*
X137379000Y-180330000D03*
%TD*%
D14*
%TO.C,KSW58*%
X208055000Y-185410000D03*
X197895000Y-185410000D03*
D13*
X202975000Y-185410000D03*
D16*
X205515000Y-180330000D03*
X199165000Y-182870000D03*
D17*
X195890000Y-182870000D03*
D18*
X195890000Y-182870000D03*
D17*
X208817000Y-180330000D03*
D18*
X208817000Y-180330000D03*
%TD*%
D16*
%TO.C,KSW60*%
X300765000Y-180330000D03*
D13*
X298225000Y-185410000D03*
D16*
X294415000Y-182870000D03*
D14*
X303305000Y-185410000D03*
X293145000Y-185410000D03*
D17*
X291140000Y-182870000D03*
D18*
X291140000Y-182870000D03*
D17*
X304067000Y-180330000D03*
D18*
X304067000Y-180330000D03*
%TD*%
D19*
%TO.C,HOLE1*%
X95200000Y-127900000D03*
%TD*%
%TO.C,HOLE2*%
X330050000Y-127910000D03*
%TD*%
D20*
%TO.C,HOLE4*%
X260500000Y-185200000D03*
%TD*%
D21*
%TO.C,HOLE3*%
X198200000Y-147000000D03*
%TD*%
D22*
%TO.C,HOLE5*%
X71460000Y-156500000D03*
%TD*%
%TO.C,HOLE6*%
X353540000Y-156500000D03*
%TD*%
D23*
%TO.C,HOLE9*%
X317275000Y-113400000D03*
%TD*%
%TO.C,HOLE10*%
X332650000Y-170300000D03*
%TD*%
%TO.C,HOLE11*%
X222025000Y-113400000D03*
%TD*%
D24*
%TO.C,STB1*%
X102993700Y-173345000D03*
D25*
X102993700Y-158105000D03*
X79117700Y-158105000D03*
D24*
X79117700Y-173345000D03*
%TD*%
D25*
%TO.C,STB3*%
X345882000Y-139055000D03*
X322006000Y-139055000D03*
D24*
X322006000Y-154295000D03*
X345882000Y-154295000D03*
%TD*%
D10*
%TO.C,LED3*%
X342993000Y-186141000D03*
X342993000Y-184741000D03*
D11*
X337493000Y-184741000D03*
D10*
X337493000Y-186141000D03*
%TD*%
D12*
%TO.C,D60*%
X301337500Y-187791250D03*
X304637500Y-187791250D03*
%TD*%
%TO.C,D48*%
X201325000Y-168741250D03*
X204625000Y-168741250D03*
%TD*%
%TO.C,D9*%
X234662500Y-111591250D03*
X237962500Y-111591250D03*
%TD*%
D23*
%TO.C,HOLE7*%
X126775000Y-113400000D03*
%TD*%
D14*
%TO.C,KSW13*%
X302670000Y-109210000D03*
D13*
X307750000Y-109210000D03*
D16*
X310290000Y-104130000D03*
X303940000Y-106670000D03*
D14*
X312830000Y-109210000D03*
D18*
X300665000Y-106670000D03*
D17*
X300665000Y-106670000D03*
D18*
X313592000Y-104130000D03*
D17*
X313592000Y-104130000D03*
%TD*%
D14*
%TO.C,KSW59*%
X279493000Y-185410000D03*
D16*
X276953000Y-180330000D03*
D13*
X274413000Y-185410000D03*
D14*
X269333000Y-185410000D03*
D16*
X270603000Y-182870000D03*
D18*
X267328000Y-182870000D03*
D17*
X267328000Y-182870000D03*
X280255000Y-180330000D03*
D18*
X280255000Y-180330000D03*
%TD*%
D24*
%TO.C,STB2*%
X155412000Y-192395000D03*
X250538000Y-192395000D03*
D25*
X155412000Y-177155000D03*
X250538000Y-177155000D03*
%TD*%
D23*
%TO.C,HOLE12*%
X207738000Y-170300000D03*
%TD*%
D14*
%TO.C,KSW48*%
X203293000Y-166360000D03*
X193133000Y-166360000D03*
D13*
X198213000Y-166360000D03*
D16*
X194403000Y-163820000D03*
X200753000Y-161280000D03*
D17*
X191128000Y-163820000D03*
D18*
X191128000Y-163820000D03*
D17*
X204055000Y-161280000D03*
D18*
X204055000Y-161280000D03*
%TD*%
D14*
%TO.C,KSW49*%
X222343000Y-166360000D03*
D16*
X213453000Y-163820000D03*
D13*
X217263000Y-166360000D03*
D16*
X219803000Y-161280000D03*
D14*
X212183000Y-166360000D03*
D17*
X210178000Y-163820000D03*
D18*
X210178000Y-163820000D03*
X223105000Y-161280000D03*
D17*
X223105000Y-161280000D03*
%TD*%
D23*
%TO.C,HOLE8*%
X110000000Y-170300000D03*
%TD*%
D26*
%TO.C,U1*%
X169343000Y-177774000D03*
X170143000Y-177774000D03*
X170943000Y-177774000D03*
X171743000Y-177774000D03*
X172543000Y-177774000D03*
X173343000Y-177774000D03*
X174143000Y-177774000D03*
X174943000Y-177774000D03*
X175743000Y-177774000D03*
X176543000Y-177774000D03*
X177343000Y-177774000D03*
D27*
X179043000Y-179474000D03*
X179043000Y-180274000D03*
X179043000Y-181074000D03*
X179043000Y-181874000D03*
X179043000Y-182674000D03*
X179043000Y-183474000D03*
X179043000Y-184274000D03*
X179043000Y-185074000D03*
X179043000Y-185874000D03*
X179043000Y-186674000D03*
X179043000Y-187474000D03*
D26*
X177343000Y-189174000D03*
X176543000Y-189174000D03*
X175743000Y-189174000D03*
X174943000Y-189174000D03*
X174143000Y-189174000D03*
X173343000Y-189174000D03*
X172543000Y-189174000D03*
X171743000Y-189174000D03*
X170943000Y-189174000D03*
X170143000Y-189174000D03*
X169343000Y-189174000D03*
D27*
X167643000Y-187474000D03*
X167643000Y-186674000D03*
X167643000Y-185874000D03*
X167643000Y-185074000D03*
X167643000Y-184274000D03*
X167643000Y-183474000D03*
X167643000Y-182674000D03*
X167643000Y-181874000D03*
X167643000Y-181074000D03*
X167643000Y-180274000D03*
X167643000Y-179474000D03*
%TD*%
D28*
%TO.C,C2*%
X191805500Y-186874000D03*
X190080500Y-186874000D03*
%TD*%
D29*
%TO.C,J2*%
X226701000Y-182140000D03*
D30*
X224161000Y-182140000D03*
X226701000Y-184680000D03*
X224161000Y-184680000D03*
X226701000Y-187220000D03*
X224161000Y-187220000D03*
%TD*%
D31*
%TO.C,J1*%
X86875000Y-104600000D03*
X87525000Y-104600000D03*
X88175000Y-104600000D03*
X88825000Y-104600000D03*
X89475000Y-104600000D03*
D32*
X85325000Y-104700000D03*
D33*
X85445000Y-102650000D03*
D34*
X89135000Y-101450000D03*
D35*
X90905000Y-101720000D03*
D32*
X91075000Y-104720000D03*
D34*
X87215000Y-101450000D03*
D36*
X85755000Y-104720000D03*
D33*
X90925000Y-102650000D03*
D36*
X90595000Y-104720000D03*
D37*
X91175000Y-103400000D03*
X85225000Y-103400000D03*
D35*
X85445000Y-101720000D03*
%TD*%
D38*
%TO.C,RSW1*%
X101400000Y-152175000D03*
X101400000Y-144225000D03*
X96900000Y-144225000D03*
X96900000Y-152175000D03*
%TD*%
D39*
%TO.C,R1*%
X186255500Y-178274000D03*
X184430500Y-178274000D03*
%TD*%
D40*
%TO.C,R2*%
X160430500Y-189274000D03*
X162255500Y-189274000D03*
%TD*%
D41*
%TO.C,C4*%
X184480500Y-181074000D03*
X186205500Y-181074000D03*
%TD*%
%TO.C,C1*%
X190080500Y-179274000D03*
X191805500Y-179274000D03*
%TD*%
D42*
%TO.C,X1*%
X189743000Y-182143000D03*
X192143000Y-182143000D03*
X192143000Y-184043000D03*
X189743000Y-184043000D03*
%TD*%
D28*
%TO.C,C6*%
X162205500Y-180874000D03*
X160480500Y-180874000D03*
%TD*%
%TO.C,C7*%
X109805500Y-162274000D03*
X108080500Y-162274000D03*
%TD*%
D43*
%TO.C,D0*%
X110593000Y-165474000D03*
X107293000Y-165474000D03*
%TD*%
D39*
%TO.C,R4*%
X96855500Y-123674000D03*
X95030500Y-123674000D03*
%TD*%
%TO.C,R3*%
X96855500Y-120874000D03*
X95030500Y-120874000D03*
%TD*%
D44*
%TO.C,F1*%
X110430500Y-159074000D03*
X107455500Y-159074000D03*
%TD*%
D41*
%TO.C,C8*%
X160480500Y-178074000D03*
X162205500Y-178074000D03*
%TD*%
D28*
%TO.C,C5*%
X162205500Y-186474000D03*
X160480500Y-186474000D03*
%TD*%
D41*
%TO.C,C3*%
X184480500Y-189189000D03*
X186205500Y-189189000D03*
%TD*%
M02*
