M48
; DRILL file {KiCad (6.0.1)} date Sat Feb  5 13:44:40 2022
; FORMAT={-:-/ absolute / metric / decimal}
; #@! TF.CreationDate,2022-02-05T13:44:40+09:00
; #@! TF.GenerationSoftware,Kicad,Pcbnew,(6.0.1)
; #@! TF.FileFunction,MixedPlating,1,2
FMAT,2
METRIC
; #@! TA.AperFunction,Plated,PTH,ViaDrill
T1C0.400
; #@! TA.AperFunction,Plated,PTH,ComponentDrill
T2C0.400
; #@! TA.AperFunction,Plated,PTH,ComponentDrill
T3C0.650
; #@! TA.AperFunction,Plated,PTH,ComponentDrill
T4C0.700
; #@! TA.AperFunction,Plated,PTH,ComponentDrill
T5C1.000
; #@! TA.AperFunction,Plated,PTH,ComponentDrill
T6C2.000
; #@! TA.AperFunction,Plated,PTH,ComponentDrill
T7C2.200
; #@! TA.AperFunction,Plated,PTH,ComponentDrill
T8C2.300
; #@! TA.AperFunction,Plated,PTH,ComponentDrill
T9C2.500
; #@! TA.AperFunction,NonPlated,NPTH,ComponentDrill
T10C1.900
; #@! TA.AperFunction,NonPlated,NPTH,ComponentDrill
T11C2.200
; #@! TA.AperFunction,NonPlated,NPTH,ComponentDrill
T12C3.048
; #@! TA.AperFunction,NonPlated,NPTH,ComponentDrill
T13C3.050
; #@! TA.AperFunction,NonPlated,NPTH,ComponentDrill
T14C3.988
; #@! TA.AperFunction,NonPlated,NPTH,ComponentDrill
T15C4.100
%
G90
G05
T1
X83.1Y-111.61
X88.1Y-130.61
X90.075Y-149.685
X90.9Y-111.71
X93.1Y-130.61
X103.375Y-149.685
X119.5Y-183.31
X124.5Y-189.51
X129.194Y-150.616
X131.5Y-170.39
X133.1Y-170.71
X135.356Y-131.566
X139.1Y-160.31
X145.1Y-187.91
X146.094Y-112.516
X150.5Y-177.71
X153.1Y-187.31
X163.606Y-179.805
X164.364Y-187.474
X165.6Y-186.61
X165.6Y-188.51
X167.9Y-159.71
X168.7Y-168.11
X169.0Y-185.874
X169.9Y-174.71
X170.14Y-176.68
X170.3Y-119.11
X171.3Y-173.71
X171.7Y-118.71
X172.543Y-176.674
X173.79Y-173.929
X173.828Y-183.589
X174.143Y-176.674
X183.5Y-185.11
X186.9Y-153.11
X187.0Y-175.61
X187.303Y-185.867
X188.9Y-156.71
X190.3Y-157.21
X191.7Y-171.11
X193.243Y-185.467
X195.3Y-188.11
X214.6Y-173.349
X217.5Y-180.31
X219.7Y-175.51
X232.372Y-156.23
X251.422Y-156.23
X267.3Y-189.44
X291.0Y-189.44
X309.0Y-184.91
X312.5Y-186.01
X336.2Y-190.61
T2
X76.828Y-125.72
X79.209Y-144.77
X83.971Y-163.82
X89.754Y-123.18
X92.136Y-142.23
X96.898Y-161.28
X100.64Y-125.72
X100.64Y-182.87
X105.402Y-144.77
X110.165Y-106.67
X113.567Y-123.18
X113.567Y-180.33
X114.928Y-163.82
X118.329Y-142.23
X119.69Y-125.72
X123.092Y-104.13
X124.452Y-144.77
X124.452Y-182.87
X127.855Y-161.28
X129.215Y-106.67
X132.617Y-123.18
X133.978Y-163.82
X137.379Y-142.23
X137.379Y-180.33
X138.74Y-125.72
X142.142Y-104.13
X143.502Y-144.77
X146.905Y-161.28
X148.265Y-106.67
X151.667Y-123.18
X153.028Y-163.82
X156.429Y-142.23
X157.79Y-125.72
X161.192Y-104.13
X162.552Y-144.77
X165.955Y-161.28
X167.315Y-106.67
X170.717Y-123.18
X172.078Y-163.82
X175.479Y-142.23
X176.84Y-125.72
X180.242Y-104.13
X181.602Y-144.77
X185.005Y-161.28
X186.365Y-106.67
X189.767Y-123.18
X191.128Y-163.82
X194.529Y-142.23
X195.89Y-125.72
X195.89Y-182.87
X199.292Y-104.13
X200.652Y-144.77
X204.055Y-161.28
X205.415Y-106.67
X208.817Y-123.18
X208.817Y-180.33
X210.178Y-163.82
X213.579Y-142.23
X214.94Y-125.72
X218.342Y-104.13
X219.702Y-144.77
X223.105Y-161.28
X224.465Y-106.67
X227.867Y-123.18
X229.228Y-163.82
X232.629Y-142.23
X233.99Y-125.72
X237.392Y-104.13
X238.752Y-144.77
X242.155Y-161.28
X243.515Y-106.67
X246.917Y-123.18
X248.278Y-163.82
X251.679Y-142.23
X253.04Y-125.72
X256.442Y-104.13
X257.802Y-144.77
X261.205Y-161.28
X262.565Y-106.67
X265.967Y-123.18
X267.328Y-163.82
X267.328Y-182.87
X270.729Y-142.23
X272.09Y-125.72
X275.492Y-104.13
X276.852Y-144.77
X280.255Y-161.28
X280.255Y-180.33
X281.615Y-106.67
X285.017Y-123.18
X286.378Y-163.82
X289.779Y-142.23
X291.14Y-125.72
X291.14Y-182.87
X294.542Y-104.13
X295.902Y-144.77
X299.305Y-161.28
X300.665Y-106.67
X304.067Y-123.18
X304.067Y-180.33
X308.829Y-142.23
X310.19Y-125.72
X312.571Y-163.82
X313.592Y-104.13
X319.715Y-106.67
X323.117Y-123.18
X325.498Y-161.28
X326.859Y-144.77
X332.642Y-104.13
X334.002Y-125.72
X338.765Y-106.67
X338.765Y-163.82
X339.786Y-142.23
X346.929Y-123.18
X351.692Y-104.13
X351.692Y-161.28
T5
X224.161Y-182.14
X224.161Y-184.68
X224.161Y-187.22
X226.701Y-182.14
X226.701Y-184.68
X226.701Y-187.22
T6
X75.34Y-106.67
X81.69Y-104.13
X94.39Y-106.67
X100.74Y-104.13
T7
X110.0Y-170.3
X126.775Y-113.4
X207.738Y-170.3
X222.025Y-113.4
X317.275Y-113.4
X332.65Y-170.3
T8
X260.5Y-185.2
T10
X74.07Y-109.21
X78.832Y-128.26
X81.214Y-147.31
X84.23Y-109.21
X85.976Y-166.36
X88.992Y-128.26
X91.374Y-147.31
X93.12Y-109.21
X96.136Y-166.36
X102.645Y-128.26
X102.645Y-185.41
X103.28Y-109.21
X107.407Y-147.31
X112.17Y-109.21
X112.805Y-128.26
X112.805Y-185.41
X116.933Y-166.36
X117.567Y-147.31
X121.695Y-128.26
X122.33Y-109.21
X126.457Y-147.31
X126.457Y-185.41
X127.093Y-166.36
X131.22Y-109.21
X131.855Y-128.26
X135.983Y-166.36
X136.617Y-147.31
X136.617Y-185.41
X140.745Y-128.26
X141.38Y-109.21
X145.507Y-147.31
X146.143Y-166.36
X150.27Y-109.21
X150.905Y-128.26
X155.033Y-166.36
X155.667Y-147.31
X159.795Y-128.26
X160.43Y-109.21
X164.557Y-147.31
X165.193Y-166.36
X169.32Y-109.21
X169.955Y-128.26
X174.083Y-166.36
X174.717Y-147.31
X178.845Y-128.26
X179.48Y-109.21
X183.607Y-147.31
X184.243Y-166.36
X188.37Y-109.21
X189.005Y-128.26
X193.133Y-166.36
X193.767Y-147.31
X197.895Y-128.26
X197.895Y-185.41
X198.53Y-109.21
X202.657Y-147.31
X203.293Y-166.36
X207.42Y-109.21
X208.055Y-128.26
X208.055Y-185.41
X212.183Y-166.36
X212.817Y-147.31
X216.945Y-128.26
X217.58Y-109.21
X221.707Y-147.31
X222.343Y-166.36
X226.47Y-109.21
X227.105Y-128.26
X231.233Y-166.36
X231.867Y-147.31
X235.995Y-128.26
X236.63Y-109.21
X240.757Y-147.31
X241.393Y-166.36
X245.52Y-109.21
X246.155Y-128.26
X250.283Y-166.36
X250.917Y-147.31
X255.045Y-128.26
X255.68Y-109.21
X259.807Y-147.31
X260.443Y-166.36
X264.57Y-109.21
X265.205Y-128.26
X269.333Y-166.36
X269.333Y-185.41
X269.967Y-147.31
X274.095Y-128.26
X274.73Y-109.21
X278.857Y-147.31
X279.493Y-166.36
X279.493Y-185.41
X283.62Y-109.21
X284.255Y-128.26
X288.383Y-166.36
X289.017Y-147.31
X293.145Y-128.26
X293.145Y-185.41
X293.78Y-109.21
X297.907Y-147.31
X298.543Y-166.36
X302.67Y-109.21
X303.305Y-128.26
X303.305Y-185.41
X308.067Y-147.31
X312.195Y-128.26
X312.83Y-109.21
X314.576Y-166.36
X321.72Y-109.21
X322.355Y-128.26
X324.736Y-166.36
X328.864Y-147.31
X331.88Y-109.21
X336.007Y-128.26
X339.024Y-147.31
X340.77Y-109.21
X340.77Y-166.36
X346.167Y-128.26
X350.93Y-109.21
X350.93Y-166.36
T11
X198.2Y-147.0
T12
X79.118Y-173.345
X102.994Y-173.345
X155.412Y-192.395
X250.538Y-192.395
X322.006Y-154.295
X345.882Y-154.295
T13
X80.102Y-125.72
X82.484Y-144.77
X86.453Y-123.18
X87.246Y-163.82
X88.834Y-142.23
X93.596Y-161.28
X103.915Y-125.72
X103.915Y-182.87
X108.677Y-144.77
X110.265Y-123.18
X110.265Y-180.33
X113.44Y-106.67
X115.027Y-142.23
X118.203Y-163.82
X119.79Y-104.13
X122.965Y-125.72
X124.553Y-161.28
X127.727Y-144.77
X127.727Y-182.87
X129.315Y-123.18
X132.49Y-106.67
X134.077Y-142.23
X134.077Y-180.33
X137.253Y-163.82
X138.84Y-104.13
X142.015Y-125.72
X143.603Y-161.28
X146.777Y-144.77
X148.365Y-123.18
X151.54Y-106.67
X153.127Y-142.23
X156.303Y-163.82
X157.89Y-104.13
X161.065Y-125.72
X162.653Y-161.28
X165.827Y-144.77
X167.415Y-123.18
X170.59Y-106.67
X172.177Y-142.23
X175.353Y-163.82
X176.94Y-104.13
X180.115Y-125.72
X181.703Y-161.28
X184.877Y-144.77
X186.465Y-123.18
X189.64Y-106.67
X191.227Y-142.23
X194.403Y-163.82
X195.99Y-104.13
X199.165Y-125.72
X199.165Y-182.87
X200.753Y-161.28
X203.927Y-144.77
X205.515Y-123.18
X205.515Y-180.33
X208.69Y-106.67
X210.277Y-142.23
X213.453Y-163.82
X215.04Y-104.13
X218.215Y-125.72
X219.803Y-161.28
X222.977Y-144.77
X224.565Y-123.18
X227.74Y-106.67
X229.327Y-142.23
X232.503Y-163.82
X234.09Y-104.13
X237.265Y-125.72
X238.853Y-161.28
X242.027Y-144.77
X243.615Y-123.18
X246.79Y-106.67
X248.377Y-142.23
X251.553Y-163.82
X253.14Y-104.13
X256.315Y-125.72
X257.903Y-161.28
X261.077Y-144.77
X262.665Y-123.18
X265.84Y-106.67
X267.427Y-142.23
X270.603Y-163.82
X270.603Y-182.87
X272.19Y-104.13
X275.365Y-125.72
X276.953Y-161.28
X276.953Y-180.33
X280.127Y-144.77
X281.715Y-123.18
X284.89Y-106.67
X286.477Y-142.23
X289.653Y-163.82
X291.24Y-104.13
X294.415Y-125.72
X294.415Y-182.87
X296.003Y-161.28
X299.177Y-144.77
X300.765Y-123.18
X300.765Y-180.33
X303.94Y-106.67
X305.527Y-142.23
X310.29Y-104.13
X313.465Y-125.72
X315.846Y-163.82
X319.815Y-123.18
X322.196Y-161.28
X322.99Y-106.67
X329.34Y-104.13
X330.134Y-144.77
X336.484Y-142.23
X337.277Y-125.72
X342.04Y-106.67
X342.04Y-163.82
X343.627Y-123.18
X348.39Y-104.13
X348.39Y-161.28
T14
X79.118Y-158.105
X102.994Y-158.105
X155.412Y-177.155
X250.538Y-177.155
X322.006Y-139.055
X345.882Y-139.055
T15
X79.15Y-109.21
X83.912Y-128.26
X86.294Y-147.31
X91.056Y-166.36
X98.2Y-109.21
X107.725Y-128.26
X107.725Y-185.41
X112.487Y-147.31
X117.25Y-109.21
X122.013Y-166.36
X126.775Y-128.26
X131.537Y-147.31
X131.537Y-185.41
X136.3Y-109.21
X141.063Y-166.36
X145.825Y-128.26
X150.587Y-147.31
X155.35Y-109.21
X160.113Y-166.36
X164.875Y-128.26
X169.637Y-147.31
X174.4Y-109.21
X179.163Y-166.36
X183.925Y-128.26
X188.687Y-147.31
X193.45Y-109.21
X198.213Y-166.36
X202.975Y-128.26
X202.975Y-185.41
X207.737Y-147.31
X212.5Y-109.21
X217.263Y-166.36
X222.025Y-128.26
X226.787Y-147.31
X231.55Y-109.21
X236.313Y-166.36
X241.075Y-128.26
X245.837Y-147.31
X250.6Y-109.21
X255.363Y-166.36
X260.125Y-128.26
X264.887Y-147.31
X269.65Y-109.21
X274.413Y-166.36
X274.413Y-185.41
X279.175Y-128.26
X283.937Y-147.31
X288.7Y-109.21
X293.463Y-166.36
X298.225Y-128.26
X298.225Y-185.41
X302.987Y-147.31
X307.75Y-109.21
X317.275Y-128.26
X319.656Y-166.36
X326.8Y-109.21
X333.944Y-147.31
X341.087Y-128.26
X345.85Y-109.21
X345.85Y-166.36
T3
G00X85.755Y-104.52
M15
G01X85.755Y-104.92
M16
G05
G00X90.595Y-104.52
M15
G01X90.595Y-104.92
M16
G05
T4
G00X85.445Y-101.47
M15
G01X85.445Y-101.97
M16
G05
G00X90.905Y-101.47
M15
G01X90.905Y-101.97
M16
G05
T8
G00X93.85Y-127.9
M15
G01X96.55Y-127.9
M16
G05
G00X328.7Y-127.91
M15
G01X331.4Y-127.91
M16
G05
T9
G00X69.21Y-156.5
M15
G01X73.71Y-156.5
M16
G05
G00X351.29Y-156.5
M15
G01X355.79Y-156.5
M16
G05
T0
M30
