%TF.GenerationSoftware,KiCad,Pcbnew,(6.0.1)*%
%TF.CreationDate,2022-02-05T13:44:02+09:00*%
%TF.ProjectId,yuiop60hh5,7975696f-7036-4306-9868-352e6b696361,5*%
%TF.SameCoordinates,Original*%
%TF.FileFunction,Profile,NP*%
%FSLAX46Y46*%
G04 Gerber Fmt 4.6, Leading zero omitted, Abs format (unit mm)*
G04 Created by KiCad (PCBNEW (6.0.1)) date 2022-02-05 13:44:02*
%MOMM*%
%LPD*%
G01*
G04 APERTURE LIST*
%TA.AperFunction,Profile*%
%ADD10C,0.050000*%
%TD*%
%TA.AperFunction,Profile*%
%ADD11C,0.120000*%
%TD*%
G04 APERTURE END LIST*
D10*
X72000000Y-194610000D02*
X353000000Y-194610000D01*
X70000000Y-102000000D02*
X70000000Y-192610000D01*
X355000000Y-192610000D02*
X355000000Y-102010000D01*
X72000000Y-100000000D02*
G75*
G03*
X70000000Y-102000000I-1J-1999999D01*
G01*
X70000000Y-192610000D02*
G75*
G03*
X72000000Y-194610000I1999999J-1D01*
G01*
X355000000Y-102010000D02*
G75*
G03*
X353000000Y-100010000I-1999999J1D01*
G01*
X353000000Y-194610000D02*
G75*
G03*
X355000000Y-192610000I1J1999999D01*
G01*
X353000000Y-100010000D02*
X72000000Y-100000000D01*
D11*
%TO.C,LED1*%
X321310000Y-186991000D02*
X321310000Y-183891000D01*
X324910000Y-183891000D02*
X324910000Y-186991000D01*
X321310000Y-183891000D02*
X324910000Y-183891000D01*
X324910000Y-186991000D02*
X321310000Y-186991000D01*
%TO.C,LED2*%
X329877000Y-186991000D02*
X329877000Y-183891000D01*
X333477000Y-183891000D02*
X333477000Y-186991000D01*
X333477000Y-186991000D02*
X329877000Y-186991000D01*
X329877000Y-183891000D02*
X333477000Y-183891000D01*
%TO.C,LED3*%
X338443000Y-186991000D02*
X338443000Y-183891000D01*
X342043000Y-186991000D02*
X338443000Y-186991000D01*
X338443000Y-183891000D02*
X342043000Y-183891000D01*
X342043000Y-183891000D02*
X342043000Y-186991000D01*
%TD*%
M02*
