%TF.GenerationSoftware,KiCad,Pcbnew,(6.0.1)*%
%TF.CreationDate,2022-02-05T13:44:02+09:00*%
%TF.ProjectId,yuiop60hh5,7975696f-7036-4306-9868-352e6b696361,5*%
%TF.SameCoordinates,Original*%
%TF.FileFunction,Soldermask,Top*%
%TF.FilePolarity,Negative*%
%FSLAX46Y46*%
G04 Gerber Fmt 4.6, Leading zero omitted, Abs format (unit mm)*
G04 Created by KiCad (PCBNEW (6.0.1)) date 2022-02-05 13:44:02*
%MOMM*%
%LPD*%
G01*
G04 APERTURE LIST*
%ADD10C,0.150000*%
%ADD11C,0.400000*%
%ADD12C,4.100000*%
%ADD13C,1.900000*%
%ADD14C,3.050000*%
%ADD15C,1.000000*%
%ADD16O,5.400000X4.000000*%
%ADD17C,5.000000*%
%ADD18C,2.200000*%
%ADD19O,7.000000X2.500000*%
%ADD20C,4.000000*%
%ADD21C,3.048000*%
%ADD22C,3.987800*%
%ADD23R,1.700000X1.700000*%
%ADD24O,1.700000X1.700000*%
%ADD25O,1.350000X1.700000*%
%ADD26O,1.100000X1.500000*%
G04 APERTURE END LIST*
D10*
X75576190Y-190452380D02*
X75576190Y-189452380D01*
X75576190Y-190404761D02*
X75480952Y-190452380D01*
X75290476Y-190452380D01*
X75195238Y-190404761D01*
X75147619Y-190357142D01*
X75100000Y-190261904D01*
X75100000Y-189976190D01*
X75147619Y-189880952D01*
X75195238Y-189833333D01*
X75290476Y-189785714D01*
X75480952Y-189785714D01*
X75576190Y-189833333D01*
X76433333Y-190404761D02*
X76338095Y-190452380D01*
X76147619Y-190452380D01*
X76052380Y-190404761D01*
X76004761Y-190309523D01*
X76004761Y-189928571D01*
X76052380Y-189833333D01*
X76147619Y-189785714D01*
X76338095Y-189785714D01*
X76433333Y-189833333D01*
X76480952Y-189928571D01*
X76480952Y-190023809D01*
X76004761Y-190119047D01*
X76861904Y-190404761D02*
X76957142Y-190452380D01*
X77147619Y-190452380D01*
X77242857Y-190404761D01*
X77290476Y-190309523D01*
X77290476Y-190261904D01*
X77242857Y-190166666D01*
X77147619Y-190119047D01*
X77004761Y-190119047D01*
X76909523Y-190071428D01*
X76861904Y-189976190D01*
X76861904Y-189928571D01*
X76909523Y-189833333D01*
X77004761Y-189785714D01*
X77147619Y-189785714D01*
X77242857Y-189833333D01*
X77719047Y-190452380D02*
X77719047Y-189785714D01*
X77719047Y-189452380D02*
X77671428Y-189500000D01*
X77719047Y-189547619D01*
X77766666Y-189500000D01*
X77719047Y-189452380D01*
X77719047Y-189547619D01*
X78623809Y-189785714D02*
X78623809Y-190595238D01*
X78576190Y-190690476D01*
X78528571Y-190738095D01*
X78433333Y-190785714D01*
X78290476Y-190785714D01*
X78195238Y-190738095D01*
X78623809Y-190404761D02*
X78528571Y-190452380D01*
X78338095Y-190452380D01*
X78242857Y-190404761D01*
X78195238Y-190357142D01*
X78147619Y-190261904D01*
X78147619Y-189976190D01*
X78195238Y-189880952D01*
X78242857Y-189833333D01*
X78338095Y-189785714D01*
X78528571Y-189785714D01*
X78623809Y-189833333D01*
X79100000Y-189785714D02*
X79100000Y-190452380D01*
X79100000Y-189880952D02*
X79147619Y-189833333D01*
X79242857Y-189785714D01*
X79385714Y-189785714D01*
X79480952Y-189833333D01*
X79528571Y-189928571D01*
X79528571Y-190452380D01*
X80385714Y-190404761D02*
X80290476Y-190452380D01*
X80100000Y-190452380D01*
X80004761Y-190404761D01*
X79957142Y-190309523D01*
X79957142Y-189928571D01*
X80004761Y-189833333D01*
X80100000Y-189785714D01*
X80290476Y-189785714D01*
X80385714Y-189833333D01*
X80433333Y-189928571D01*
X80433333Y-190023809D01*
X79957142Y-190119047D01*
X81290476Y-190452380D02*
X81290476Y-189452380D01*
X81290476Y-190404761D02*
X81195238Y-190452380D01*
X81004761Y-190452380D01*
X80909523Y-190404761D01*
X80861904Y-190357142D01*
X80814285Y-190261904D01*
X80814285Y-189976190D01*
X80861904Y-189880952D01*
X80909523Y-189833333D01*
X81004761Y-189785714D01*
X81195238Y-189785714D01*
X81290476Y-189833333D01*
X82528571Y-190452380D02*
X82528571Y-189452380D01*
X82528571Y-189833333D02*
X82623809Y-189785714D01*
X82814285Y-189785714D01*
X82909523Y-189833333D01*
X82957142Y-189880952D01*
X83004761Y-189976190D01*
X83004761Y-190261904D01*
X82957142Y-190357142D01*
X82909523Y-190404761D01*
X82814285Y-190452380D01*
X82623809Y-190452380D01*
X82528571Y-190404761D01*
X83338095Y-189785714D02*
X83576190Y-190452380D01*
X83814285Y-189785714D02*
X83576190Y-190452380D01*
X83480952Y-190690476D01*
X83433333Y-190738095D01*
X83338095Y-190785714D01*
X84957142Y-190452380D02*
X84957142Y-189452380D01*
X85528571Y-190452380D02*
X85100000Y-189880952D01*
X85528571Y-189452380D02*
X84957142Y-190023809D01*
X86100000Y-190452380D02*
X86004761Y-190404761D01*
X85957142Y-190357142D01*
X85909523Y-190261904D01*
X85909523Y-189976190D01*
X85957142Y-189880952D01*
X86004761Y-189833333D01*
X86100000Y-189785714D01*
X86242857Y-189785714D01*
X86338095Y-189833333D01*
X86385714Y-189880952D01*
X86433333Y-189976190D01*
X86433333Y-190261904D01*
X86385714Y-190357142D01*
X86338095Y-190404761D01*
X86242857Y-190452380D01*
X86100000Y-190452380D01*
X87433333Y-190452380D02*
X87100000Y-189976190D01*
X86861904Y-190452380D02*
X86861904Y-189452380D01*
X87242857Y-189452380D01*
X87338095Y-189500000D01*
X87385714Y-189547619D01*
X87433333Y-189642857D01*
X87433333Y-189785714D01*
X87385714Y-189880952D01*
X87338095Y-189928571D01*
X87242857Y-189976190D01*
X86861904Y-189976190D01*
X88004761Y-190452380D02*
X87909523Y-190404761D01*
X87861904Y-190357142D01*
X87814285Y-190261904D01*
X87814285Y-189976190D01*
X87861904Y-189880952D01*
X87909523Y-189833333D01*
X88004761Y-189785714D01*
X88147619Y-189785714D01*
X88242857Y-189833333D01*
X88290476Y-189880952D01*
X88338095Y-189976190D01*
X88338095Y-190261904D01*
X88290476Y-190357142D01*
X88242857Y-190404761D01*
X88147619Y-190452380D01*
X88004761Y-190452380D01*
X88766666Y-190452380D02*
X88766666Y-189452380D01*
X89338095Y-190452380D01*
X89338095Y-189452380D01*
X90528571Y-189404761D02*
X89671428Y-190690476D01*
X90861904Y-190452380D02*
X90861904Y-189452380D01*
X91433333Y-190452380D02*
X91004761Y-189880952D01*
X91433333Y-189452380D02*
X90861904Y-190023809D01*
X92290476Y-190452380D02*
X92290476Y-189928571D01*
X92242857Y-189833333D01*
X92147619Y-189785714D01*
X91957142Y-189785714D01*
X91861904Y-189833333D01*
X92290476Y-190404761D02*
X92195238Y-190452380D01*
X91957142Y-190452380D01*
X91861904Y-190404761D01*
X91814285Y-190309523D01*
X91814285Y-190214285D01*
X91861904Y-190119047D01*
X91957142Y-190071428D01*
X92195238Y-190071428D01*
X92290476Y-190023809D01*
X92909523Y-190452380D02*
X92814285Y-190404761D01*
X92766666Y-190357142D01*
X92719047Y-190261904D01*
X92719047Y-189976190D01*
X92766666Y-189880952D01*
X92814285Y-189833333D01*
X92909523Y-189785714D01*
X93052380Y-189785714D01*
X93147619Y-189833333D01*
X93195238Y-189880952D01*
X93242857Y-189976190D01*
X93242857Y-190261904D01*
X93195238Y-190357142D01*
X93147619Y-190404761D01*
X93052380Y-190452380D01*
X92909523Y-190452380D01*
X93671428Y-190452380D02*
X93671428Y-189785714D01*
X93671428Y-189976190D02*
X93719047Y-189880952D01*
X93766666Y-189833333D01*
X93861904Y-189785714D01*
X93957142Y-189785714D01*
X94290476Y-190452380D02*
X94290476Y-189785714D01*
X94290476Y-189452380D02*
X94242857Y-189500000D01*
X94290476Y-189547619D01*
X94338095Y-189500000D01*
X94290476Y-189452380D01*
X94290476Y-189547619D01*
X94957142Y-189976190D02*
X94957142Y-190452380D01*
X94623809Y-189452380D02*
X94957142Y-189976190D01*
X95290476Y-189452380D01*
X96052380Y-190452380D02*
X96052380Y-189928571D01*
X96004761Y-189833333D01*
X95909523Y-189785714D01*
X95719047Y-189785714D01*
X95623809Y-189833333D01*
X96052380Y-190404761D02*
X95957142Y-190452380D01*
X95719047Y-190452380D01*
X95623809Y-190404761D01*
X95576190Y-190309523D01*
X95576190Y-190214285D01*
X95623809Y-190119047D01*
X95719047Y-190071428D01*
X95957142Y-190071428D01*
X96052380Y-190023809D01*
X88976190Y-188452380D02*
X88976190Y-187785714D01*
X88976190Y-187976190D02*
X89023809Y-187880952D01*
X89071428Y-187833333D01*
X89166666Y-187785714D01*
X89261904Y-187785714D01*
X89976190Y-188404761D02*
X89880952Y-188452380D01*
X89690476Y-188452380D01*
X89595238Y-188404761D01*
X89547619Y-188309523D01*
X89547619Y-187928571D01*
X89595238Y-187833333D01*
X89690476Y-187785714D01*
X89880952Y-187785714D01*
X89976190Y-187833333D01*
X90023809Y-187928571D01*
X90023809Y-188023809D01*
X89547619Y-188119047D01*
X90357142Y-187785714D02*
X90595238Y-188452380D01*
X90833333Y-187785714D01*
X91214285Y-188452380D02*
X91214285Y-187785714D01*
X91214285Y-187452380D02*
X91166666Y-187500000D01*
X91214285Y-187547619D01*
X91261904Y-187500000D01*
X91214285Y-187452380D01*
X91214285Y-187547619D01*
X91642857Y-188404761D02*
X91738095Y-188452380D01*
X91928571Y-188452380D01*
X92023809Y-188404761D01*
X92071428Y-188309523D01*
X92071428Y-188261904D01*
X92023809Y-188166666D01*
X91928571Y-188119047D01*
X91785714Y-188119047D01*
X91690476Y-188071428D01*
X91642857Y-187976190D01*
X91642857Y-187928571D01*
X91690476Y-187833333D01*
X91785714Y-187785714D01*
X91928571Y-187785714D01*
X92023809Y-187833333D01*
X92500000Y-188452380D02*
X92500000Y-187785714D01*
X92500000Y-187452380D02*
X92452380Y-187500000D01*
X92500000Y-187547619D01*
X92547619Y-187500000D01*
X92500000Y-187452380D01*
X92500000Y-187547619D01*
X93119047Y-188452380D02*
X93023809Y-188404761D01*
X92976190Y-188357142D01*
X92928571Y-188261904D01*
X92928571Y-187976190D01*
X92976190Y-187880952D01*
X93023809Y-187833333D01*
X93119047Y-187785714D01*
X93261904Y-187785714D01*
X93357142Y-187833333D01*
X93404761Y-187880952D01*
X93452380Y-187976190D01*
X93452380Y-188261904D01*
X93404761Y-188357142D01*
X93357142Y-188404761D01*
X93261904Y-188452380D01*
X93119047Y-188452380D01*
X93880952Y-187785714D02*
X93880952Y-188452380D01*
X93880952Y-187880952D02*
X93928571Y-187833333D01*
X94023809Y-187785714D01*
X94166666Y-187785714D01*
X94261904Y-187833333D01*
X94309523Y-187928571D01*
X94309523Y-188452380D01*
X96023809Y-187452380D02*
X95547619Y-187452380D01*
X95500000Y-187928571D01*
X95547619Y-187880952D01*
X95642857Y-187833333D01*
X95880952Y-187833333D01*
X95976190Y-187880952D01*
X96023809Y-187928571D01*
X96071428Y-188023809D01*
X96071428Y-188261904D01*
X96023809Y-188357142D01*
X95976190Y-188404761D01*
X95880952Y-188452380D01*
X95642857Y-188452380D01*
X95547619Y-188404761D01*
X95500000Y-188357142D01*
D11*
X76535714Y-184916666D02*
X76535714Y-186583333D01*
X75702380Y-183083333D02*
X76535714Y-184916666D01*
X77369047Y-183083333D01*
X78202380Y-183083333D02*
X78202380Y-185916666D01*
X78321428Y-186250000D01*
X78440476Y-186416666D01*
X78678571Y-186583333D01*
X79154761Y-186583333D01*
X79392857Y-186416666D01*
X79511904Y-186250000D01*
X79630952Y-185916666D01*
X79630952Y-183083333D01*
X80821428Y-186583333D02*
X80821428Y-183083333D01*
X82488095Y-183083333D02*
X82964285Y-183083333D01*
X83202380Y-183250000D01*
X83440476Y-183583333D01*
X83559523Y-184250000D01*
X83559523Y-185416666D01*
X83440476Y-186083333D01*
X83202380Y-186416666D01*
X82964285Y-186583333D01*
X82488095Y-186583333D01*
X82250000Y-186416666D01*
X82011904Y-186083333D01*
X81892857Y-185416666D01*
X81892857Y-184250000D01*
X82011904Y-183583333D01*
X82250000Y-183250000D01*
X82488095Y-183083333D01*
X84630952Y-186583333D02*
X84630952Y-183083333D01*
X85583333Y-183083333D01*
X85821428Y-183250000D01*
X85940476Y-183416666D01*
X86059523Y-183750000D01*
X86059523Y-184250000D01*
X85940476Y-184583333D01*
X85821428Y-184750000D01*
X85583333Y-184916666D01*
X84630952Y-184916666D01*
X88202380Y-183083333D02*
X87726190Y-183083333D01*
X87488095Y-183250000D01*
X87369047Y-183416666D01*
X87130952Y-183916666D01*
X87011904Y-184583333D01*
X87011904Y-185916666D01*
X87130952Y-186250000D01*
X87250000Y-186416666D01*
X87488095Y-186583333D01*
X87964285Y-186583333D01*
X88202380Y-186416666D01*
X88321428Y-186250000D01*
X88440476Y-185916666D01*
X88440476Y-185083333D01*
X88321428Y-184750000D01*
X88202380Y-184583333D01*
X87964285Y-184416666D01*
X87488095Y-184416666D01*
X87250000Y-184583333D01*
X87130952Y-184750000D01*
X87011904Y-185083333D01*
X89988095Y-183083333D02*
X90226190Y-183083333D01*
X90464285Y-183250000D01*
X90583333Y-183416666D01*
X90702380Y-183750000D01*
X90821428Y-184416666D01*
X90821428Y-185250000D01*
X90702380Y-185916666D01*
X90583333Y-186250000D01*
X90464285Y-186416666D01*
X90226190Y-186583333D01*
X89988095Y-186583333D01*
X89750000Y-186416666D01*
X89630952Y-186250000D01*
X89511904Y-185916666D01*
X89392857Y-185250000D01*
X89392857Y-184416666D01*
X89511904Y-183750000D01*
X89630952Y-183416666D01*
X89750000Y-183250000D01*
X89988095Y-183083333D01*
X91892857Y-186583333D02*
X91892857Y-183083333D01*
X91892857Y-184750000D02*
X93321428Y-184750000D01*
X93321428Y-186583333D02*
X93321428Y-183083333D01*
X94511904Y-186583333D02*
X94511904Y-183083333D01*
X94511904Y-184750000D02*
X95940476Y-184750000D01*
X95940476Y-186583333D02*
X95940476Y-183083333D01*
D12*
%TO.C,KSW1*%
X79150000Y-109210000D03*
D13*
X74070000Y-109210000D03*
X84230000Y-109210000D03*
%TD*%
D12*
%TO.C,KSW2*%
X98200000Y-109210000D03*
D13*
X103280000Y-109210000D03*
X93120000Y-109210000D03*
%TD*%
D14*
%TO.C,KSW3*%
X119790000Y-104130000D03*
D13*
X122330000Y-109210000D03*
D12*
X117250000Y-109210000D03*
D14*
X113440000Y-106670000D03*
D13*
X112170000Y-109210000D03*
D15*
X110165000Y-106670000D03*
X123092000Y-104130000D03*
%TD*%
D13*
%TO.C,KSW4*%
X141380000Y-109210000D03*
D14*
X138840000Y-104130000D03*
D13*
X131220000Y-109210000D03*
D14*
X132490000Y-106670000D03*
D12*
X136300000Y-109210000D03*
D15*
X129215000Y-106670000D03*
X142142000Y-104130000D03*
%TD*%
D14*
%TO.C,KSW5*%
X157890000Y-104130000D03*
D12*
X155350000Y-109210000D03*
D13*
X150270000Y-109210000D03*
D14*
X151540000Y-106670000D03*
D13*
X160430000Y-109210000D03*
D15*
X148265000Y-106670000D03*
X161192000Y-104130000D03*
%TD*%
D13*
%TO.C,KSW6*%
X179480000Y-109210000D03*
D14*
X170590000Y-106670000D03*
X176940000Y-104130000D03*
D13*
X169320000Y-109210000D03*
D12*
X174400000Y-109210000D03*
D15*
X167315000Y-106670000D03*
X180242000Y-104130000D03*
%TD*%
D12*
%TO.C,KSW7*%
X193450000Y-109210000D03*
D13*
X198530000Y-109210000D03*
X188370000Y-109210000D03*
D14*
X195990000Y-104130000D03*
X189640000Y-106670000D03*
D15*
X186365000Y-106670000D03*
X199292000Y-104130000D03*
%TD*%
D13*
%TO.C,KSW8*%
X207420000Y-109210000D03*
D14*
X208690000Y-106670000D03*
D13*
X217580000Y-109210000D03*
D14*
X215040000Y-104130000D03*
D12*
X212500000Y-109210000D03*
D15*
X205415000Y-106670000D03*
X218342000Y-104130000D03*
%TD*%
D13*
%TO.C,KSW9*%
X226470000Y-109210000D03*
D12*
X231550000Y-109210000D03*
D14*
X234090000Y-104130000D03*
D13*
X236630000Y-109210000D03*
D14*
X227740000Y-106670000D03*
D15*
X224465000Y-106670000D03*
X237392000Y-104130000D03*
%TD*%
D14*
%TO.C,KSW10*%
X246790000Y-106670000D03*
D13*
X245520000Y-109210000D03*
D14*
X253140000Y-104130000D03*
D13*
X255680000Y-109210000D03*
D12*
X250600000Y-109210000D03*
D15*
X243515000Y-106670000D03*
X256442000Y-104130000D03*
%TD*%
D14*
%TO.C,KSW11*%
X272190000Y-104130000D03*
D13*
X274730000Y-109210000D03*
D12*
X269650000Y-109210000D03*
D14*
X265840000Y-106670000D03*
D13*
X264570000Y-109210000D03*
D15*
X262565000Y-106670000D03*
X275492000Y-104130000D03*
%TD*%
D13*
%TO.C,KSW12*%
X293780000Y-109210000D03*
D14*
X284890000Y-106670000D03*
X291240000Y-104130000D03*
D13*
X283620000Y-109210000D03*
D12*
X288700000Y-109210000D03*
D15*
X281615000Y-106670000D03*
X294542000Y-104130000D03*
%TD*%
D12*
%TO.C,KSW14*%
X326800000Y-109210000D03*
D14*
X322990000Y-106670000D03*
D13*
X321720000Y-109210000D03*
X331880000Y-109210000D03*
D14*
X329340000Y-104130000D03*
D15*
X319715000Y-106670000D03*
X332642000Y-104130000D03*
%TD*%
D14*
%TO.C,KSW15*%
X348390000Y-104130000D03*
X342040000Y-106670000D03*
D13*
X350930000Y-109210000D03*
X340770000Y-109210000D03*
D12*
X345850000Y-109210000D03*
D15*
X338765000Y-106670000D03*
X351692000Y-104130000D03*
%TD*%
D12*
%TO.C,KSW16*%
X83912500Y-128260000D03*
D13*
X88992500Y-128260000D03*
D14*
X86452500Y-123180000D03*
D13*
X78832500Y-128260000D03*
D14*
X80102500Y-125720000D03*
D15*
X76827500Y-125720000D03*
X89754500Y-123180000D03*
%TD*%
D12*
%TO.C,KSW17*%
X107725000Y-128260000D03*
D14*
X110265000Y-123180000D03*
D13*
X112805000Y-128260000D03*
D14*
X103915000Y-125720000D03*
D13*
X102645000Y-128260000D03*
D15*
X100640000Y-125720000D03*
X113567000Y-123180000D03*
%TD*%
D12*
%TO.C,KSW18*%
X126775000Y-128260000D03*
D13*
X131855000Y-128260000D03*
D14*
X122965000Y-125720000D03*
X129315000Y-123180000D03*
D13*
X121695000Y-128260000D03*
D15*
X119690000Y-125720000D03*
X132617000Y-123180000D03*
%TD*%
D14*
%TO.C,KSW19*%
X142015000Y-125720000D03*
X148365000Y-123180000D03*
D13*
X150905000Y-128260000D03*
X140745000Y-128260000D03*
D12*
X145825000Y-128260000D03*
D15*
X138740000Y-125720000D03*
X151667000Y-123180000D03*
%TD*%
D12*
%TO.C,KSW20*%
X164875000Y-128260000D03*
D14*
X161065000Y-125720000D03*
D13*
X159795000Y-128260000D03*
D14*
X167415000Y-123180000D03*
D13*
X169955000Y-128260000D03*
D15*
X157790000Y-125720000D03*
X170717000Y-123180000D03*
%TD*%
D14*
%TO.C,KSW21*%
X186465000Y-123180000D03*
D13*
X189005000Y-128260000D03*
X178845000Y-128260000D03*
D12*
X183925000Y-128260000D03*
D14*
X180115000Y-125720000D03*
D15*
X176840000Y-125720000D03*
X189767000Y-123180000D03*
%TD*%
D14*
%TO.C,KSW22*%
X199165000Y-125720000D03*
D13*
X208055000Y-128260000D03*
D14*
X205515000Y-123180000D03*
D13*
X197895000Y-128260000D03*
D12*
X202975000Y-128260000D03*
D15*
X195890000Y-125720000D03*
X208817000Y-123180000D03*
%TD*%
D14*
%TO.C,KSW23*%
X218215000Y-125720000D03*
D13*
X216945000Y-128260000D03*
D12*
X222025000Y-128260000D03*
D13*
X227105000Y-128260000D03*
D14*
X224565000Y-123180000D03*
D15*
X214940000Y-125720000D03*
X227867000Y-123180000D03*
%TD*%
D14*
%TO.C,KSW24*%
X243615000Y-123180000D03*
D12*
X241075000Y-128260000D03*
D13*
X235995000Y-128260000D03*
D14*
X237265000Y-125720000D03*
D13*
X246155000Y-128260000D03*
D15*
X233990000Y-125720000D03*
X246917000Y-123180000D03*
%TD*%
D13*
%TO.C,KSW25*%
X265205000Y-128260000D03*
D14*
X262665000Y-123180000D03*
D12*
X260125000Y-128260000D03*
D13*
X255045000Y-128260000D03*
D14*
X256315000Y-125720000D03*
D15*
X253040000Y-125720000D03*
X265967000Y-123180000D03*
%TD*%
D14*
%TO.C,KSW26*%
X275365000Y-125720000D03*
X281715000Y-123180000D03*
D13*
X274095000Y-128260000D03*
D12*
X279175000Y-128260000D03*
D13*
X284255000Y-128260000D03*
D15*
X272090000Y-125720000D03*
X285017000Y-123180000D03*
%TD*%
D13*
%TO.C,KSW27*%
X293145000Y-128260000D03*
D14*
X300765000Y-123180000D03*
D12*
X298225000Y-128260000D03*
D14*
X294415000Y-125720000D03*
D13*
X303305000Y-128260000D03*
D15*
X291140000Y-125720000D03*
X304067000Y-123180000D03*
%TD*%
D13*
%TO.C,KSW28*%
X322355000Y-128260000D03*
D12*
X317275000Y-128260000D03*
D14*
X313465000Y-125720000D03*
D13*
X312195000Y-128260000D03*
D14*
X319815000Y-123180000D03*
D15*
X310190000Y-125720000D03*
X323117000Y-123180000D03*
%TD*%
D13*
%TO.C,KSW29*%
X336007000Y-128260000D03*
X346167000Y-128260000D03*
D14*
X343627000Y-123180000D03*
D12*
X341087000Y-128260000D03*
D14*
X337277000Y-125720000D03*
D15*
X334002000Y-125720000D03*
X346929000Y-123180000D03*
%TD*%
D12*
%TO.C,KSW30*%
X86293800Y-147310000D03*
D13*
X91373800Y-147310000D03*
X81213800Y-147310000D03*
D14*
X82483800Y-144770000D03*
X88833800Y-142230000D03*
D15*
X79208800Y-144770000D03*
X92135800Y-142230000D03*
%TD*%
D13*
%TO.C,KSW31*%
X107407000Y-147310000D03*
X117567000Y-147310000D03*
D14*
X115027000Y-142230000D03*
X108677000Y-144770000D03*
D12*
X112487000Y-147310000D03*
D15*
X105402000Y-144770000D03*
X118329000Y-142230000D03*
%TD*%
D14*
%TO.C,KSW32*%
X134077000Y-142230000D03*
D12*
X131537000Y-147310000D03*
D13*
X126457000Y-147310000D03*
D14*
X127727000Y-144770000D03*
D13*
X136617000Y-147310000D03*
D15*
X124452000Y-144770000D03*
X137379000Y-142230000D03*
%TD*%
D13*
%TO.C,KSW33*%
X145507000Y-147310000D03*
D14*
X146777000Y-144770000D03*
X153127000Y-142230000D03*
D12*
X150587000Y-147310000D03*
D13*
X155667000Y-147310000D03*
D15*
X143502000Y-144770000D03*
X156429000Y-142230000D03*
%TD*%
D13*
%TO.C,KSW34*%
X174717000Y-147310000D03*
D14*
X172177000Y-142230000D03*
X165827000Y-144770000D03*
D13*
X164557000Y-147310000D03*
D12*
X169637000Y-147310000D03*
D15*
X162552000Y-144770000D03*
X175479000Y-142230000D03*
%TD*%
D14*
%TO.C,KSW35*%
X191227000Y-142230000D03*
D13*
X183607000Y-147310000D03*
D12*
X188687000Y-147310000D03*
D13*
X193767000Y-147310000D03*
D14*
X184877000Y-144770000D03*
D15*
X181602000Y-144770000D03*
X194529000Y-142230000D03*
%TD*%
D12*
%TO.C,KSW36*%
X207737000Y-147310000D03*
D13*
X212817000Y-147310000D03*
D14*
X210277000Y-142230000D03*
D13*
X202657000Y-147310000D03*
D14*
X203927000Y-144770000D03*
D15*
X200652000Y-144770000D03*
X213579000Y-142230000D03*
%TD*%
D13*
%TO.C,KSW37*%
X231867000Y-147310000D03*
X221707000Y-147310000D03*
D14*
X222977000Y-144770000D03*
X229327000Y-142230000D03*
D12*
X226787000Y-147310000D03*
D15*
X219702000Y-144770000D03*
X232629000Y-142230000D03*
%TD*%
D13*
%TO.C,KSW38*%
X250917000Y-147310000D03*
D12*
X245837000Y-147310000D03*
D13*
X240757000Y-147310000D03*
D14*
X242027000Y-144770000D03*
X248377000Y-142230000D03*
D15*
X238752000Y-144770000D03*
X251679000Y-142230000D03*
%TD*%
D14*
%TO.C,KSW39*%
X267427000Y-142230000D03*
D13*
X259807000Y-147310000D03*
X269967000Y-147310000D03*
D14*
X261077000Y-144770000D03*
D12*
X264887000Y-147310000D03*
D15*
X257802000Y-144770000D03*
X270729000Y-142230000D03*
%TD*%
D13*
%TO.C,KSW40*%
X278857000Y-147310000D03*
D14*
X280127000Y-144770000D03*
D12*
X283937000Y-147310000D03*
D13*
X289017000Y-147310000D03*
D14*
X286477000Y-142230000D03*
D15*
X276852000Y-144770000D03*
X289779000Y-142230000D03*
%TD*%
D14*
%TO.C,KSW41*%
X305527000Y-142230000D03*
D13*
X297907000Y-147310000D03*
D14*
X299177000Y-144770000D03*
D13*
X308067000Y-147310000D03*
D12*
X302987000Y-147310000D03*
D15*
X295902000Y-144770000D03*
X308829000Y-142230000D03*
%TD*%
D14*
%TO.C,KSW42*%
X336484000Y-142230000D03*
X330134000Y-144770000D03*
D13*
X339024000Y-147310000D03*
D12*
X333944000Y-147310000D03*
D13*
X328864000Y-147310000D03*
D15*
X326859000Y-144770000D03*
X339786000Y-142230000D03*
%TD*%
D13*
%TO.C,KSW43*%
X96135700Y-166360000D03*
D14*
X93595700Y-161280000D03*
X87245700Y-163820000D03*
D12*
X91055700Y-166360000D03*
D13*
X85975700Y-166360000D03*
D15*
X83970700Y-163820000D03*
X96897700Y-161280000D03*
%TD*%
D13*
%TO.C,KSW44*%
X116933000Y-166360000D03*
D14*
X118203000Y-163820000D03*
D12*
X122013000Y-166360000D03*
D13*
X127093000Y-166360000D03*
D14*
X124553000Y-161280000D03*
D15*
X114928000Y-163820000D03*
X127855000Y-161280000D03*
%TD*%
D13*
%TO.C,KSW45*%
X146143000Y-166360000D03*
D12*
X141063000Y-166360000D03*
D14*
X137253000Y-163820000D03*
D13*
X135983000Y-166360000D03*
D14*
X143603000Y-161280000D03*
D15*
X133978000Y-163820000D03*
X146905000Y-161280000D03*
%TD*%
D13*
%TO.C,KSW46*%
X165193000Y-166360000D03*
D14*
X156303000Y-163820000D03*
X162653000Y-161280000D03*
D13*
X155033000Y-166360000D03*
D12*
X160113000Y-166360000D03*
D15*
X153028000Y-163820000D03*
X165955000Y-161280000D03*
%TD*%
D14*
%TO.C,KSW47*%
X175353000Y-163820000D03*
D13*
X174083000Y-166360000D03*
D14*
X181703000Y-161280000D03*
D12*
X179163000Y-166360000D03*
D13*
X184243000Y-166360000D03*
D15*
X172078000Y-163820000D03*
X185005000Y-161280000D03*
%TD*%
D13*
%TO.C,KSW50*%
X241393000Y-166360000D03*
X231233000Y-166360000D03*
D14*
X238853000Y-161280000D03*
X232503000Y-163820000D03*
D12*
X236313000Y-166360000D03*
D15*
X229228000Y-163820000D03*
X242155000Y-161280000D03*
%TD*%
D13*
%TO.C,KSW51*%
X250283000Y-166360000D03*
D12*
X255363000Y-166360000D03*
D13*
X260443000Y-166360000D03*
D14*
X257903000Y-161280000D03*
X251553000Y-163820000D03*
D15*
X248278000Y-163820000D03*
X261205000Y-161280000D03*
%TD*%
D14*
%TO.C,KSW52*%
X270603000Y-163820000D03*
X276953000Y-161280000D03*
D13*
X279493000Y-166360000D03*
D12*
X274413000Y-166360000D03*
D13*
X269333000Y-166360000D03*
D15*
X267328000Y-163820000D03*
X280255000Y-161280000D03*
%TD*%
D14*
%TO.C,KSW53*%
X289653000Y-163820000D03*
D12*
X293463000Y-166360000D03*
D14*
X296003000Y-161280000D03*
D13*
X298543000Y-166360000D03*
X288383000Y-166360000D03*
D15*
X286378000Y-163820000D03*
X299305000Y-161280000D03*
%TD*%
D13*
%TO.C,KSW54*%
X324736000Y-166360000D03*
D14*
X322196000Y-161280000D03*
D13*
X314576000Y-166360000D03*
D14*
X315846000Y-163820000D03*
D12*
X319656000Y-166360000D03*
D15*
X312571000Y-163820000D03*
X325498000Y-161280000D03*
%TD*%
D14*
%TO.C,KSW55*%
X342040000Y-163820000D03*
D13*
X340770000Y-166360000D03*
D14*
X348390000Y-161280000D03*
D12*
X345850000Y-166360000D03*
D13*
X350930000Y-166360000D03*
D15*
X338765000Y-163820000D03*
X351692000Y-161280000D03*
%TD*%
D14*
%TO.C,KSW56*%
X110265000Y-180330000D03*
D13*
X112805000Y-185410000D03*
D14*
X103915000Y-182870000D03*
D12*
X107725000Y-185410000D03*
D13*
X102645000Y-185410000D03*
D15*
X100640000Y-182870000D03*
X113567000Y-180330000D03*
%TD*%
D13*
%TO.C,KSW57*%
X126457000Y-185410000D03*
D14*
X127727000Y-182870000D03*
D13*
X136617000Y-185410000D03*
D12*
X131537000Y-185410000D03*
D14*
X134077000Y-180330000D03*
D15*
X124452000Y-182870000D03*
X137379000Y-180330000D03*
%TD*%
D13*
%TO.C,KSW58*%
X208055000Y-185410000D03*
X197895000Y-185410000D03*
D12*
X202975000Y-185410000D03*
D14*
X205515000Y-180330000D03*
X199165000Y-182870000D03*
D15*
X195890000Y-182870000D03*
X208817000Y-180330000D03*
%TD*%
D14*
%TO.C,KSW60*%
X300765000Y-180330000D03*
D12*
X298225000Y-185410000D03*
D14*
X294415000Y-182870000D03*
D13*
X303305000Y-185410000D03*
X293145000Y-185410000D03*
D15*
X291140000Y-182870000D03*
X304067000Y-180330000D03*
%TD*%
D16*
%TO.C,HOLE1*%
X95200000Y-127900000D03*
%TD*%
%TO.C,HOLE2*%
X330050000Y-127910000D03*
%TD*%
D17*
%TO.C,HOLE4*%
X260500000Y-185200000D03*
%TD*%
D18*
%TO.C,HOLE3*%
X198200000Y-147000000D03*
%TD*%
D19*
%TO.C,HOLE5*%
X71460000Y-156500000D03*
%TD*%
%TO.C,HOLE6*%
X353540000Y-156500000D03*
%TD*%
D20*
%TO.C,HOLE9*%
X317275000Y-113400000D03*
%TD*%
%TO.C,HOLE10*%
X332650000Y-170300000D03*
%TD*%
%TO.C,HOLE11*%
X222025000Y-113400000D03*
%TD*%
D21*
%TO.C,STB1*%
X102993700Y-173345000D03*
D22*
X102993700Y-158105000D03*
X79117700Y-158105000D03*
D21*
X79117700Y-173345000D03*
%TD*%
D22*
%TO.C,STB3*%
X345882000Y-139055000D03*
X322006000Y-139055000D03*
D21*
X322006000Y-154295000D03*
X345882000Y-154295000D03*
%TD*%
D20*
%TO.C,HOLE7*%
X126775000Y-113400000D03*
%TD*%
D13*
%TO.C,KSW13*%
X302670000Y-109210000D03*
D12*
X307750000Y-109210000D03*
D14*
X310290000Y-104130000D03*
X303940000Y-106670000D03*
D13*
X312830000Y-109210000D03*
D15*
X300665000Y-106670000D03*
X313592000Y-104130000D03*
%TD*%
D13*
%TO.C,KSW59*%
X279493000Y-185410000D03*
D14*
X276953000Y-180330000D03*
D12*
X274413000Y-185410000D03*
D13*
X269333000Y-185410000D03*
D14*
X270603000Y-182870000D03*
D15*
X267328000Y-182870000D03*
X280255000Y-180330000D03*
%TD*%
D21*
%TO.C,STB2*%
X155412000Y-192395000D03*
X250538000Y-192395000D03*
D22*
X155412000Y-177155000D03*
X250538000Y-177155000D03*
%TD*%
D20*
%TO.C,HOLE12*%
X207738000Y-170300000D03*
%TD*%
D13*
%TO.C,KSW48*%
X203293000Y-166360000D03*
X193133000Y-166360000D03*
D12*
X198213000Y-166360000D03*
D14*
X194403000Y-163820000D03*
X200753000Y-161280000D03*
D15*
X191128000Y-163820000D03*
X204055000Y-161280000D03*
%TD*%
D13*
%TO.C,KSW49*%
X222343000Y-166360000D03*
D14*
X213453000Y-163820000D03*
D12*
X217263000Y-166360000D03*
D14*
X219803000Y-161280000D03*
D13*
X212183000Y-166360000D03*
D15*
X210178000Y-163820000D03*
X223105000Y-161280000D03*
%TD*%
D20*
%TO.C,HOLE8*%
X110000000Y-170300000D03*
%TD*%
D23*
%TO.C,J2*%
X226701000Y-182140000D03*
D24*
X224161000Y-182140000D03*
X226701000Y-184680000D03*
X224161000Y-184680000D03*
X226701000Y-187220000D03*
X224161000Y-187220000D03*
%TD*%
D25*
%TO.C,J1*%
X90905000Y-101720000D03*
D26*
X85755000Y-104720000D03*
X90595000Y-104720000D03*
D25*
X85445000Y-101720000D03*
%TD*%
M02*
