  0
SECTION
  2
HEADER
  9
$ANGBASE
  50
0.0
  9
$ANGDIR
  70
1
  9
$MEASUREMENT
  70
1
  0
ENDSEC
  0
SECTION
  2
TABLES
  0
TABLE
  2
LTYPE
  70
4
  0
LTYPE
  5
40F
  2
CONTINUOUS
  70
0
  3
Solid line
  72
65
  73
0
  40
0.0
  0
LTYPE
  5
410
  2
DASHDOT
 70
0
  3
Dash Dot ____ _ ____ _
 72
65
 73
4
 40
2.0
 49
1.25
 49
-0.25
 49
0.25
 49
-0.25
  0
LTYPE
  5
411
  2
DASHED
 70
0
  3
Dashed __ __ __ __ __
 72
65
 73
2
 40
0.75
 49
0.5
 49
-0.25
  0
LTYPE
  5
43B
  2
DOTTED
 70
0
  3
Dotted .  .  .  .
 72
65
 73
2
 40
0.2
 49
0.0
 49
-0.2
  0
ENDTAB
  0
TABLE
  2
STYLE
  70
4
  0
STYLE
  2
KICAD
  70
0
  40
0
  41
1
  42
1
  50
0
  71
0
  3
isocp.shx
  0
STYLE
  2
KICADB
  70
0
  40
0
  41
1
  42
1
  50
0
  71
0
  3
isocp.shx
  0
STYLE
  2
KICADI
  70
0
  40
0
  41
1
  42
1
  50
15
  71
0
  3
isocp.shx
  0
STYLE
  2
KICADBI
  70
0
  40
0
  41
1
  42
1
  50
15
  71
0
  3
isocp.shx
  0
ENDTAB
  0
TABLE
  2
LAYER
  70
1
  0
LAYER
  2
BLACK
  70
0
  62
7
  6
CONTINUOUS
  0
ENDTAB
  0
ENDSEC
  0
SECTION
  2
ENTITIES
0
CIRCLE
8
BLACK
10
323.111
20
-185.441
40
0.75
0
CIRCLE
8
BLACK
10
340.243
20
-185.441
40
0.75
0
CIRCLE
8
BLACK
10
331.677
20
-185.441
40
0.75
0
CIRCLE
8
BLACK
10
348.809
20
-185.441
40
0.75
0
CIRCLE
8
BLACK
10
314.544
20
-185.441
40
0.75
0
CIRCLE
8
BLACK
10
260.5
20
-185.2
40
2.2
0
CIRCLE
8
BLACK
10
198.2
20
-147
40
2.2
0
CIRCLE
8
BLACK
10
330.05
20
-127.9
40
2.4
0
CIRCLE
8
BLACK
10
95.2
20
-127.9
40
2.4
0
CIRCLE
8
BLACK
10
110
20
-170.3
40
1.07703
0
CIRCLE
8
BLACK
10
207.738
20
-170.3
40
1.07703
0
CIRCLE
8
BLACK
10
332.65
20
-170.3
40
1.07703
0
CIRCLE
8
BLACK
10
317.275
20
-113.4
40
1.07703
0
CIRCLE
8
BLACK
10
222.025
20
-113.4
40
1.07703
0
CIRCLE
8
BLACK
10
126.775
20
-113.4
40
1.07703
0
LINE
8
BLACK
6
CONTINUOUS
10
70
20
-158.95
11
70
21
-192.61
0
ARC
8
BLACK
10
70.3
20
-158.95
40
0.3
50
90
51
180
0
ARC
8
BLACK
10
73.7
20
-156.5
40
2.15
50
-90
51
90
0
LINE
8
BLACK
6
CONTINUOUS
10
70.3
20
-158.65
11
73.7
21
-158.65
0
ARC
8
BLACK
10
70.3
20
-154.05
40
0.3
50
180
51
270
0
LINE
8
BLACK
6
CONTINUOUS
10
73.7
20
-154.35
11
70.3
21
-154.35
0
LINE
8
BLACK
6
CONTINUOUS
10
355
20
-158.95
11
355
21
-192.61
0
ARC
8
BLACK
10
354.7
20
-154.05
40
0.3
50
-90
51
-0
0
ARC
8
BLACK
10
351.3
20
-156.5
40
2.15
50
90
51
270
0
LINE
8
BLACK
6
CONTINUOUS
10
354.7
20
-154.35
11
351.3
21
-154.35
0
ARC
8
BLACK
10
354.7
20
-158.95
40
0.3
50
-0
51
90
0
LINE
8
BLACK
6
CONTINUOUS
10
351.3
20
-158.65
11
354.7
21
-158.65
0
ARC
8
BLACK
10
353
20
-192.61
40
2
50
-90
51
-0
0
ARC
8
BLACK
10
353
20
-102.01
40
2
50
-0
51
90
0
ARC
8
BLACK
10
72
20
-102
40
2
50
90
51
180
0
ARC
8
BLACK
10
72
20
-192.61
40
2
50
180
51
270
0
LINE
8
BLACK
6
CONTINUOUS
10
72
20
-194.61
11
353
21
-194.61
0
LINE
8
BLACK
6
CONTINUOUS
10
70
20
-102
11
70
21
-154.05
0
LINE
8
BLACK
6
CONTINUOUS
10
353
20
-100.01
11
72
21
-100
0
LINE
8
BLACK
6
CONTINUOUS
10
355
20
-154.05
11
355
21
-102.01
0
LINE
8
BLACK
6
CONTINUOUS
10
99.6062
20
-160.41
11
99.6062
21
-160.06
0
LINE
8
BLACK
6
CONTINUOUS
10
98.1562
20
-160.51
11
99.5062
21
-160.51
0
LINE
8
BLACK
6
CONTINUOUS
10
98.0562
20
-159.66
11
98.0562
21
-160.41
0
LINE
8
BLACK
6
CONTINUOUS
10
84.3062
20
-159.36
11
97.7562
21
-159.36
0
LINE
8
BLACK
6
CONTINUOUS
10
84.0062
20
-160.41
11
84.0062
21
-159.66
0
LINE
8
BLACK
6
CONTINUOUS
10
82.6562
20
-160.51
11
83.9062
21
-160.51
0
LINE
8
BLACK
6
CONTINUOUS
10
82.5562
20
-160.06
11
82.5562
21
-160.41
0
LINE
8
BLACK
6
CONTINUOUS
10
80.7562
20
-159.76
11
82.2562
21
-159.76
0
LINE
8
BLACK
6
CONTINUOUS
10
80.6562
20
-158.86
11
80.6562
21
-159.66
0
LINE
8
BLACK
6
CONTINUOUS
10
77.8562
20
-158.56
11
80.3562
21
-158.56
0
LINE
8
BLACK
6
CONTINUOUS
10
77.5562
20
-159.66
11
77.5562
21
-158.86
0
LINE
8
BLACK
6
CONTINUOUS
10
76.0062
20
-159.76
11
77.4562
21
-159.76
0
LINE
8
BLACK
6
CONTINUOUS
10
75.7062
20
-165.76
11
75.7062
21
-160.06
0
LINE
8
BLACK
6
CONTINUOUS
10
75.1062
20
-165.86
11
75.6062
21
-165.86
0
LINE
8
BLACK
6
CONTINUOUS
10
74.8062
20
-168.36
11
74.8062
21
-166.16
0
LINE
8
BLACK
6
CONTINUOUS
10
75.6062
20
-168.66
11
75.1062
21
-168.66
0
LINE
8
BLACK
6
CONTINUOUS
10
75.7062
20
-171.76
11
75.7062
21
-168.76
0
LINE
8
BLACK
6
CONTINUOUS
10
82.2562
20
-172.06
11
76.0062
21
-172.06
0
LINE
8
BLACK
6
CONTINUOUS
10
82.5562
20
-171.36
11
82.5562
21
-171.76
0
LINE
8
BLACK
6
CONTINUOUS
10
83.9562
20
-171.26
11
82.6562
21
-171.26
0
LINE
8
BLACK
6
CONTINUOUS
10
84.0562
20
-173.06
11
84.0562
21
-171.36
0
LINE
8
BLACK
6
CONTINUOUS
10
97.7562
20
-173.36
11
84.3562
21
-173.36
0
LINE
8
BLACK
6
CONTINUOUS
10
99.9062
20
-159.76
11
101.356
21
-159.76
0
LINE
8
BLACK
6
CONTINUOUS
10
101.456
20
-159.66
11
101.456
21
-158.86
0
LINE
8
BLACK
6
CONTINUOUS
10
101.756
20
-158.56
11
104.256
21
-158.56
0
LINE
8
BLACK
6
CONTINUOUS
10
104.556
20
-158.86
11
104.556
21
-159.66
0
LINE
8
BLACK
6
CONTINUOUS
10
104.656
20
-159.76
11
106.106
21
-159.76
0
LINE
8
BLACK
6
CONTINUOUS
10
106.406
20
-160.06
11
106.406
21
-165.76
0
LINE
8
BLACK
6
CONTINUOUS
10
106.506
20
-165.86
11
107.006
21
-165.86
0
LINE
8
BLACK
6
CONTINUOUS
10
107.306
20
-166.16
11
107.306
21
-168.36
0
LINE
8
BLACK
6
CONTINUOUS
10
107.006
20
-168.66
11
106.506
21
-168.66
0
LINE
8
BLACK
6
CONTINUOUS
10
106.406
20
-168.76
11
106.406
21
-171.76
0
LINE
8
BLACK
6
CONTINUOUS
10
106.106
20
-172.06
11
99.8562
21
-172.06
0
LINE
8
BLACK
6
CONTINUOUS
10
99.5562
20
-171.76
11
99.5562
21
-171.36
0
LINE
8
BLACK
6
CONTINUOUS
10
99.4562
20
-171.26
11
98.1562
21
-171.26
0
LINE
8
BLACK
6
CONTINUOUS
10
98.0562
20
-171.36
11
98.0562
21
-173.06
0
ARC
8
BLACK
10
97.7562
20
-173.06
40
0.3
50
-90
51
-0
0
ARC
8
BLACK
10
84.3562
20
-173.06
40
0.3
50
180
51
270
0
ARC
8
BLACK
10
83.9562
20
-171.36
40
0.1
50
-0
51
90
0
ARC
8
BLACK
10
82.6562
20
-171.36
40
0.1
50
90
51
180
0
ARC
8
BLACK
10
82.2562
20
-171.76
40
0.3
50
-90
51
-0
0
ARC
8
BLACK
10
76.0062
20
-171.76
40
0.3
50
180
51
270
0
ARC
8
BLACK
10
75.1062
20
-168.36
40
0.3
50
180
51
270
0
ARC
8
BLACK
10
75.6062
20
-168.76
40
0.1
50
-0
51
90
0
ARC
8
BLACK
10
75.1062
20
-166.16
40
0.3
50
90
51
180
0
ARC
8
BLACK
10
75.6062
20
-165.76
40
0.1
50
-90
51
-0
0
ARC
8
BLACK
10
76.0062
20
-160.06
40
0.3
50
90
51
180
0
ARC
8
BLACK
10
77.4562
20
-159.66
40
0.1
50
-90
51
-0
0
ARC
8
BLACK
10
77.8562
20
-158.86
40
0.3
50
90
51
180
0
ARC
8
BLACK
10
80.3562
20
-158.86
40
0.3
50
-0
51
90
0
ARC
8
BLACK
10
80.7562
20
-159.66
40
0.1
50
180
51
270
0
ARC
8
BLACK
10
82.2562
20
-160.06
40
0.3
50
-0
51
90
0
ARC
8
BLACK
10
82.6562
20
-160.41
40
0.1
50
180
51
270
0
ARC
8
BLACK
10
83.9062
20
-160.41
40
0.1
50
-90
51
-0
0
ARC
8
BLACK
10
84.3062
20
-159.66
40
0.3
50
90
51
180
0
ARC
8
BLACK
10
97.7562
20
-159.66
40
0.3
50
-0
51
90
0
ARC
8
BLACK
10
99.9062
20
-160.06
40
0.3
50
90
51
180
0
ARC
8
BLACK
10
98.1562
20
-160.41
40
0.1
50
180
51
270
0
ARC
8
BLACK
10
99.5062
20
-160.41
40
0.1
50
-90
51
-0
0
ARC
8
BLACK
10
101.356
20
-159.66
40
0.1
50
-90
51
-0
0
ARC
8
BLACK
10
101.756
20
-158.86
40
0.3
50
90
51
180
0
ARC
8
BLACK
10
104.256
20
-158.86
40
0.3
50
-0
51
90
0
ARC
8
BLACK
10
104.656
20
-159.66
40
0.1
50
180
51
270
0
ARC
8
BLACK
10
106.106
20
-160.06
40
0.3
50
-0
51
90
0
ARC
8
BLACK
10
106.506
20
-165.76
40
0.1
50
180
51
270
0
ARC
8
BLACK
10
107.006
20
-166.16
40
0.3
50
-0
51
90
0
ARC
8
BLACK
10
107.006
20
-168.36
40
0.3
50
-90
51
-0
0
ARC
8
BLACK
10
106.506
20
-168.76
40
0.1
50
90
51
180
0
ARC
8
BLACK
10
106.106
20
-171.76
40
0.3
50
-90
51
-0
0
ARC
8
BLACK
10
99.8562
20
-171.76
40
0.3
50
180
51
270
0
ARC
8
BLACK
10
99.4562
20
-171.36
40
0.1
50
-0
51
90
0
ARC
8
BLACK
10
98.1562
20
-171.36
40
0.1
50
90
51
180
0
LINE
8
BLACK
6
CONTINUOUS
10
342.494
20
-141.36
11
342.494
21
-141.01
0
LINE
8
BLACK
6
CONTINUOUS
10
341.044
20
-141.46
11
342.394
21
-141.46
0
LINE
8
BLACK
6
CONTINUOUS
10
340.944
20
-140.61
11
340.944
21
-141.36
0
LINE
8
BLACK
6
CONTINUOUS
10
327.194
20
-140.31
11
340.644
21
-140.31
0
LINE
8
BLACK
6
CONTINUOUS
10
326.894
20
-141.36
11
326.894
21
-140.61
0
LINE
8
BLACK
6
CONTINUOUS
10
325.544
20
-141.46
11
326.794
21
-141.46
0
LINE
8
BLACK
6
CONTINUOUS
10
325.444
20
-141.01
11
325.444
21
-141.36
0
LINE
8
BLACK
6
CONTINUOUS
10
323.644
20
-140.71
11
325.144
21
-140.71
0
LINE
8
BLACK
6
CONTINUOUS
10
323.544
20
-139.81
11
323.544
21
-140.61
0
LINE
8
BLACK
6
CONTINUOUS
10
320.744
20
-139.51
11
323.244
21
-139.51
0
LINE
8
BLACK
6
CONTINUOUS
10
320.444
20
-140.61
11
320.444
21
-139.81
0
LINE
8
BLACK
6
CONTINUOUS
10
318.894
20
-140.71
11
320.344
21
-140.71
0
LINE
8
BLACK
6
CONTINUOUS
10
318.594
20
-146.71
11
318.594
21
-141.01
0
LINE
8
BLACK
6
CONTINUOUS
10
317.994
20
-146.81
11
318.494
21
-146.81
0
LINE
8
BLACK
6
CONTINUOUS
10
317.694
20
-149.31
11
317.694
21
-147.11
0
LINE
8
BLACK
6
CONTINUOUS
10
318.494
20
-149.61
11
317.994
21
-149.61
0
LINE
8
BLACK
6
CONTINUOUS
10
318.594
20
-152.71
11
318.594
21
-149.71
0
LINE
8
BLACK
6
CONTINUOUS
10
325.144
20
-153.01
11
318.894
21
-153.01
0
LINE
8
BLACK
6
CONTINUOUS
10
325.444
20
-152.31
11
325.444
21
-152.71
0
LINE
8
BLACK
6
CONTINUOUS
10
326.844
20
-152.21
11
325.544
21
-152.21
0
LINE
8
BLACK
6
CONTINUOUS
10
326.944
20
-154.01
11
326.944
21
-152.31
0
LINE
8
BLACK
6
CONTINUOUS
10
340.644
20
-154.31
11
327.244
21
-154.31
0
LINE
8
BLACK
6
CONTINUOUS
10
342.794
20
-140.71
11
344.244
21
-140.71
0
LINE
8
BLACK
6
CONTINUOUS
10
344.344
20
-140.61
11
344.344
21
-139.81
0
LINE
8
BLACK
6
CONTINUOUS
10
344.644
20
-139.51
11
347.144
21
-139.51
0
LINE
8
BLACK
6
CONTINUOUS
10
347.444
20
-139.81
11
347.444
21
-140.61
0
LINE
8
BLACK
6
CONTINUOUS
10
347.544
20
-140.71
11
348.994
21
-140.71
0
LINE
8
BLACK
6
CONTINUOUS
10
349.294
20
-141.01
11
349.294
21
-146.71
0
LINE
8
BLACK
6
CONTINUOUS
10
349.394
20
-146.81
11
349.894
21
-146.81
0
LINE
8
BLACK
6
CONTINUOUS
10
350.194
20
-147.11
11
350.194
21
-149.31
0
LINE
8
BLACK
6
CONTINUOUS
10
349.894
20
-149.61
11
349.394
21
-149.61
0
LINE
8
BLACK
6
CONTINUOUS
10
349.294
20
-149.71
11
349.294
21
-152.71
0
LINE
8
BLACK
6
CONTINUOUS
10
348.994
20
-153.01
11
342.744
21
-153.01
0
LINE
8
BLACK
6
CONTINUOUS
10
342.444
20
-152.71
11
342.444
21
-152.31
0
LINE
8
BLACK
6
CONTINUOUS
10
342.344
20
-152.21
11
341.044
21
-152.21
0
LINE
8
BLACK
6
CONTINUOUS
10
340.944
20
-152.31
11
340.944
21
-154.01
0
ARC
8
BLACK
10
340.644
20
-154.01
40
0.3
50
-90
51
-0
0
ARC
8
BLACK
10
327.244
20
-154.01
40
0.3
50
180
51
270
0
ARC
8
BLACK
10
326.844
20
-152.31
40
0.1
50
-0
51
90
0
ARC
8
BLACK
10
325.544
20
-152.31
40
0.1
50
90
51
180
0
ARC
8
BLACK
10
325.144
20
-152.71
40
0.3
50
-90
51
-0
0
ARC
8
BLACK
10
318.894
20
-152.71
40
0.3
50
180
51
270
0
ARC
8
BLACK
10
317.994
20
-149.31
40
0.3
50
180
51
270
0
ARC
8
BLACK
10
318.494
20
-149.71
40
0.1
50
-0
51
90
0
ARC
8
BLACK
10
317.994
20
-147.11
40
0.3
50
90
51
180
0
ARC
8
BLACK
10
318.494
20
-146.71
40
0.1
50
-90
51
-0
0
ARC
8
BLACK
10
318.894
20
-141.01
40
0.3
50
90
51
180
0
ARC
8
BLACK
10
320.344
20
-140.61
40
0.1
50
-90
51
-0
0
ARC
8
BLACK
10
320.744
20
-139.81
40
0.3
50
90
51
180
0
ARC
8
BLACK
10
323.244
20
-139.81
40
0.3
50
-0
51
90
0
ARC
8
BLACK
10
323.644
20
-140.61
40
0.1
50
180
51
270
0
ARC
8
BLACK
10
325.144
20
-141.01
40
0.3
50
-0
51
90
0
ARC
8
BLACK
10
325.544
20
-141.36
40
0.1
50
180
51
270
0
ARC
8
BLACK
10
326.794
20
-141.36
40
0.1
50
-90
51
-0
0
ARC
8
BLACK
10
327.194
20
-140.61
40
0.3
50
90
51
180
0
ARC
8
BLACK
10
340.644
20
-140.61
40
0.3
50
-0
51
90
0
ARC
8
BLACK
10
342.794
20
-141.01
40
0.3
50
90
51
180
0
ARC
8
BLACK
10
341.044
20
-141.36
40
0.1
50
180
51
270
0
ARC
8
BLACK
10
342.394
20
-141.36
40
0.1
50
-90
51
-0
0
ARC
8
BLACK
10
344.244
20
-140.61
40
0.1
50
-90
51
-0
0
ARC
8
BLACK
10
344.644
20
-139.81
40
0.3
50
90
51
180
0
ARC
8
BLACK
10
347.144
20
-139.81
40
0.3
50
-0
51
90
0
ARC
8
BLACK
10
347.544
20
-140.61
40
0.1
50
180
51
270
0
ARC
8
BLACK
10
348.994
20
-141.01
40
0.3
50
-0
51
90
0
ARC
8
BLACK
10
349.394
20
-146.71
40
0.1
50
180
51
270
0
ARC
8
BLACK
10
349.894
20
-147.11
40
0.3
50
-0
51
90
0
ARC
8
BLACK
10
349.894
20
-149.31
40
0.3
50
-90
51
-0
0
ARC
8
BLACK
10
349.394
20
-149.71
40
0.1
50
90
51
180
0
ARC
8
BLACK
10
348.994
20
-152.71
40
0.3
50
-90
51
-0
0
ARC
8
BLACK
10
342.744
20
-152.71
40
0.3
50
180
51
270
0
ARC
8
BLACK
10
342.344
20
-152.31
40
0.1
50
-0
51
90
0
ARC
8
BLACK
10
341.044
20
-152.31
40
0.1
50
90
51
180
0
LINE
8
BLACK
6
CONTINUOUS
10
158.975
20
-182.91
11
195.825
21
-182.91
0
LINE
8
BLACK
6
CONTINUOUS
10
195.875
20
-187.91
11
158.975
21
-187.91
0
LINE
8
BLACK
6
CONTINUOUS
10
210.075
20
-182.91
11
246.975
21
-182.91
0
LINE
8
BLACK
6
CONTINUOUS
10
246.975
20
-187.91
11
210.075
21
-187.91
0
LINE
8
BLACK
6
CONTINUOUS
10
209.975
20
-188.01
11
209.975
21
-192.11
0
LINE
8
BLACK
6
CONTINUOUS
10
247.075
20
-190.81
11
247.075
21
-188.01
0
LINE
8
BLACK
6
CONTINUOUS
10
253.625
20
-191.11
11
247.375
21
-191.11
0
LINE
8
BLACK
6
CONTINUOUS
10
253.925
20
-187.81
11
253.925
21
-190.81
0
LINE
8
BLACK
6
CONTINUOUS
10
254.525
20
-187.71
11
254.025
21
-187.71
0
LINE
8
BLACK
6
CONTINUOUS
10
254.825
20
-185.21
11
254.825
21
-187.41
0
LINE
8
BLACK
6
CONTINUOUS
10
254.025
20
-184.91
11
254.525
21
-184.91
0
LINE
8
BLACK
6
CONTINUOUS
10
253.925
20
-179.11
11
253.925
21
-184.81
0
LINE
8
BLACK
6
CONTINUOUS
10
252.175
20
-178.81
11
253.625
21
-178.81
0
LINE
8
BLACK
6
CONTINUOUS
10
252.075
20
-177.91
11
252.075
21
-178.71
0
LINE
8
BLACK
6
CONTINUOUS
10
249.275
20
-177.61
11
251.775
21
-177.61
0
LINE
8
BLACK
6
CONTINUOUS
10
248.975
20
-178.71
11
248.975
21
-177.91
0
LINE
8
BLACK
6
CONTINUOUS
10
247.375
20
-178.81
11
248.875
21
-178.81
0
LINE
8
BLACK
6
CONTINUOUS
10
209.675
20
-192.41
11
196.275
21
-192.41
0
LINE
8
BLACK
6
CONTINUOUS
10
195.975
20
-192.11
11
195.975
21
-188.01
0
LINE
8
BLACK
6
CONTINUOUS
10
158.875
20
-188.01
11
158.875
21
-190.81
0
LINE
8
BLACK
6
CONTINUOUS
10
158.575
20
-191.11
11
152.325
21
-191.11
0
LINE
8
BLACK
6
CONTINUOUS
10
152.025
20
-190.81
11
152.025
21
-187.81
0
LINE
8
BLACK
6
CONTINUOUS
10
151.925
20
-187.71
11
151.425
21
-187.71
0
LINE
8
BLACK
6
CONTINUOUS
10
151.125
20
-187.41
11
151.125
21
-185.21
0
LINE
8
BLACK
6
CONTINUOUS
10
151.425
20
-184.91
11
151.925
21
-184.91
0
LINE
8
BLACK
6
CONTINUOUS
10
152.025
20
-184.81
11
152.025
21
-179.11
0
LINE
8
BLACK
6
CONTINUOUS
10
152.325
20
-178.81
11
153.775
21
-178.81
0
LINE
8
BLACK
6
CONTINUOUS
10
153.875
20
-178.71
11
153.875
21
-177.91
0
LINE
8
BLACK
6
CONTINUOUS
10
154.175
20
-177.61
11
156.675
21
-177.61
0
LINE
8
BLACK
6
CONTINUOUS
10
156.975
20
-177.91
11
156.975
21
-178.71
0
LINE
8
BLACK
6
CONTINUOUS
10
157.075
20
-178.81
11
158.575
21
-178.81
0
LINE
8
BLACK
6
CONTINUOUS
10
158.875
20
-179.11
11
158.875
21
-182.81
0
LINE
8
BLACK
6
CONTINUOUS
10
195.925
20
-182.81
11
195.925
21
-178.71
0
LINE
8
BLACK
6
CONTINUOUS
10
196.225
20
-178.41
11
209.675
21
-178.41
0
LINE
8
BLACK
6
CONTINUOUS
10
209.975
20
-178.71
11
209.975
21
-182.81
0
LINE
8
BLACK
6
CONTINUOUS
10
247.075
20
-182.81
11
247.075
21
-179.11
0
ARC
8
BLACK
10
210.075
20
-188.01
40
0.1
50
90
51
180
0
ARC
8
BLACK
10
246.975
20
-188.01
40
0.1
50
-0
51
90
0
ARC
8
BLACK
10
247.375
20
-190.81
40
0.3
50
180
51
270
0
ARC
8
BLACK
10
253.625
20
-190.81
40
0.3
50
-90
51
-0
0
ARC
8
BLACK
10
254.025
20
-187.81
40
0.1
50
90
51
180
0
ARC
8
BLACK
10
254.525
20
-187.41
40
0.3
50
-90
51
-0
0
ARC
8
BLACK
10
254.525
20
-185.21
40
0.3
50
-0
51
90
0
ARC
8
BLACK
10
254.025
20
-184.81
40
0.1
50
180
51
270
0
ARC
8
BLACK
10
253.625
20
-179.11
40
0.3
50
-0
51
90
0
ARC
8
BLACK
10
252.175
20
-178.71
40
0.1
50
180
51
270
0
ARC
8
BLACK
10
251.775
20
-177.91
40
0.3
50
-0
51
90
0
ARC
8
BLACK
10
249.275
20
-177.91
40
0.3
50
90
51
180
0
ARC
8
BLACK
10
248.875
20
-178.71
40
0.1
50
-90
51
-0
0
ARC
8
BLACK
10
246.975
20
-182.81
40
0.1
50
-90
51
-0
0
ARC
8
BLACK
10
210.075
20
-182.81
40
0.1
50
180
51
270
0
ARC
8
BLACK
10
247.375
20
-179.11
40
0.3
50
90
51
180
0
ARC
8
BLACK
10
209.675
20
-178.71
40
0.3
50
-0
51
90
0
ARC
8
BLACK
10
196.225
20
-178.71
40
0.3
50
90
51
180
0
ARC
8
BLACK
10
195.825
20
-182.81
40
0.1
50
-90
51
-0
0
ARC
8
BLACK
10
158.975
20
-182.81
40
0.1
50
180
51
270
0
ARC
8
BLACK
10
158.575
20
-179.11
40
0.3
50
-0
51
90
0
ARC
8
BLACK
10
157.075
20
-178.71
40
0.1
50
180
51
270
0
ARC
8
BLACK
10
156.675
20
-177.91
40
0.3
50
-0
51
90
0
ARC
8
BLACK
10
154.175
20
-177.91
40
0.3
50
90
51
180
0
ARC
8
BLACK
10
153.775
20
-178.71
40
0.1
50
-90
51
-0
0
ARC
8
BLACK
10
152.325
20
-179.11
40
0.3
50
90
51
180
0
ARC
8
BLACK
10
151.925
20
-184.81
40
0.1
50
-90
51
-0
0
ARC
8
BLACK
10
151.425
20
-185.21
40
0.3
50
90
51
180
0
ARC
8
BLACK
10
151.925
20
-187.81
40
0.1
50
-0
51
90
0
ARC
8
BLACK
10
151.425
20
-187.41
40
0.3
50
180
51
270
0
ARC
8
BLACK
10
152.325
20
-190.81
40
0.3
50
180
51
270
0
ARC
8
BLACK
10
158.575
20
-190.81
40
0.3
50
-90
51
-0
0
ARC
8
BLACK
10
158.975
20
-188.01
40
0.1
50
90
51
180
0
ARC
8
BLACK
10
195.875
20
-188.01
40
0.1
50
-0
51
90
0
ARC
8
BLACK
10
196.275
20
-192.11
40
0.3
50
180
51
270
0
ARC
8
BLACK
10
209.675
20
-192.11
40
0.3
50
-90
51
-0
0
LINE
8
BLACK
6
CONTINUOUS
10
85.85
20
-102.21
11
72.45
21
-102.21
0
LINE
8
BLACK
6
CONTINUOUS
10
86.15
20
-115.91
11
86.15
21
-102.51
0
LINE
8
BLACK
6
CONTINUOUS
10
72.45
20
-116.21
11
85.85
21
-116.21
0
LINE
8
BLACK
6
CONTINUOUS
10
72.15
20
-102.51
11
72.15
21
-115.91
0
ARC
8
BLACK
10
85.85
20
-115.91
40
0.3
50
-90
51
-0
0
ARC
8
BLACK
10
72.45
20
-115.91
40
0.3
50
180
51
270
0
ARC
8
BLACK
10
72.45
20
-102.51
40
0.3
50
90
51
180
0
ARC
8
BLACK
10
85.85
20
-102.51
40
0.3
50
-0
51
90
0
LINE
8
BLACK
6
CONTINUOUS
10
104.9
20
-102.21
11
91.5
21
-102.21
0
LINE
8
BLACK
6
CONTINUOUS
10
105.2
20
-115.91
11
105.2
21
-102.51
0
LINE
8
BLACK
6
CONTINUOUS
10
91.5
20
-116.21
11
104.9
21
-116.21
0
LINE
8
BLACK
6
CONTINUOUS
10
91.2
20
-102.51
11
91.2
21
-115.91
0
ARC
8
BLACK
10
104.9
20
-115.91
40
0.3
50
-90
51
-0
0
ARC
8
BLACK
10
91.5
20
-115.91
40
0.3
50
180
51
270
0
ARC
8
BLACK
10
91.5
20
-102.51
40
0.3
50
90
51
180
0
ARC
8
BLACK
10
104.9
20
-102.51
40
0.3
50
-0
51
90
0
LINE
8
BLACK
6
CONTINUOUS
10
123.95
20
-102.21
11
110.55
21
-102.21
0
LINE
8
BLACK
6
CONTINUOUS
10
124.25
20
-115.91
11
124.25
21
-102.51
0
LINE
8
BLACK
6
CONTINUOUS
10
110.55
20
-116.21
11
123.95
21
-116.21
0
LINE
8
BLACK
6
CONTINUOUS
10
110.25
20
-102.51
11
110.25
21
-115.91
0
ARC
8
BLACK
10
123.95
20
-115.91
40
0.3
50
-90
51
-0
0
ARC
8
BLACK
10
110.55
20
-115.91
40
0.3
50
180
51
270
0
ARC
8
BLACK
10
110.55
20
-102.51
40
0.3
50
90
51
180
0
ARC
8
BLACK
10
123.95
20
-102.51
40
0.3
50
-0
51
90
0
LINE
8
BLACK
6
CONTINUOUS
10
143
20
-102.21
11
129.6
21
-102.21
0
LINE
8
BLACK
6
CONTINUOUS
10
143.3
20
-115.91
11
143.3
21
-102.51
0
LINE
8
BLACK
6
CONTINUOUS
10
129.6
20
-116.21
11
143
21
-116.21
0
LINE
8
BLACK
6
CONTINUOUS
10
129.3
20
-102.51
11
129.3
21
-115.91
0
ARC
8
BLACK
10
143
20
-115.91
40
0.3
50
-90
51
-0
0
ARC
8
BLACK
10
129.6
20
-115.91
40
0.3
50
180
51
270
0
ARC
8
BLACK
10
129.6
20
-102.51
40
0.3
50
90
51
180
0
ARC
8
BLACK
10
143
20
-102.51
40
0.3
50
-0
51
90
0
LINE
8
BLACK
6
CONTINUOUS
10
162.05
20
-102.21
11
148.65
21
-102.21
0
LINE
8
BLACK
6
CONTINUOUS
10
162.35
20
-115.91
11
162.35
21
-102.51
0
LINE
8
BLACK
6
CONTINUOUS
10
148.65
20
-116.21
11
162.05
21
-116.21
0
LINE
8
BLACK
6
CONTINUOUS
10
148.35
20
-102.51
11
148.35
21
-115.91
0
ARC
8
BLACK
10
162.05
20
-115.91
40
0.3
50
-90
51
-0
0
ARC
8
BLACK
10
148.65
20
-115.91
40
0.3
50
180
51
270
0
ARC
8
BLACK
10
148.65
20
-102.51
40
0.3
50
90
51
180
0
ARC
8
BLACK
10
162.05
20
-102.51
40
0.3
50
-0
51
90
0
LINE
8
BLACK
6
CONTINUOUS
10
181.1
20
-102.21
11
167.7
21
-102.21
0
LINE
8
BLACK
6
CONTINUOUS
10
181.4
20
-115.91
11
181.4
21
-102.51
0
LINE
8
BLACK
6
CONTINUOUS
10
167.7
20
-116.21
11
181.1
21
-116.21
0
LINE
8
BLACK
6
CONTINUOUS
10
167.4
20
-102.51
11
167.4
21
-115.91
0
ARC
8
BLACK
10
181.1
20
-115.91
40
0.3
50
-90
51
-0
0
ARC
8
BLACK
10
167.7
20
-115.91
40
0.3
50
180
51
270
0
ARC
8
BLACK
10
167.7
20
-102.51
40
0.3
50
90
51
180
0
ARC
8
BLACK
10
181.1
20
-102.51
40
0.3
50
-0
51
90
0
LINE
8
BLACK
6
CONTINUOUS
10
200.15
20
-102.21
11
186.75
21
-102.21
0
LINE
8
BLACK
6
CONTINUOUS
10
200.45
20
-115.91
11
200.45
21
-102.51
0
LINE
8
BLACK
6
CONTINUOUS
10
186.75
20
-116.21
11
200.15
21
-116.21
0
LINE
8
BLACK
6
CONTINUOUS
10
186.45
20
-102.51
11
186.45
21
-115.91
0
ARC
8
BLACK
10
200.15
20
-115.91
40
0.3
50
-90
51
-0
0
ARC
8
BLACK
10
186.75
20
-115.91
40
0.3
50
180
51
270
0
ARC
8
BLACK
10
186.75
20
-102.51
40
0.3
50
90
51
180
0
ARC
8
BLACK
10
200.15
20
-102.51
40
0.3
50
-0
51
90
0
LINE
8
BLACK
6
CONTINUOUS
10
219.2
20
-102.21
11
205.8
21
-102.21
0
LINE
8
BLACK
6
CONTINUOUS
10
219.5
20
-115.91
11
219.5
21
-102.51
0
LINE
8
BLACK
6
CONTINUOUS
10
205.8
20
-116.21
11
219.2
21
-116.21
0
LINE
8
BLACK
6
CONTINUOUS
10
205.5
20
-102.51
11
205.5
21
-115.91
0
ARC
8
BLACK
10
219.2
20
-115.91
40
0.3
50
-90
51
-0
0
ARC
8
BLACK
10
205.8
20
-115.91
40
0.3
50
180
51
270
0
ARC
8
BLACK
10
205.8
20
-102.51
40
0.3
50
90
51
180
0
ARC
8
BLACK
10
219.2
20
-102.51
40
0.3
50
-0
51
90
0
LINE
8
BLACK
6
CONTINUOUS
10
238.25
20
-102.21
11
224.85
21
-102.21
0
LINE
8
BLACK
6
CONTINUOUS
10
238.55
20
-115.91
11
238.55
21
-102.51
0
LINE
8
BLACK
6
CONTINUOUS
10
224.85
20
-116.21
11
238.25
21
-116.21
0
LINE
8
BLACK
6
CONTINUOUS
10
224.55
20
-102.51
11
224.55
21
-115.91
0
ARC
8
BLACK
10
238.25
20
-115.91
40
0.3
50
-90
51
-0
0
ARC
8
BLACK
10
224.85
20
-115.91
40
0.3
50
180
51
270
0
ARC
8
BLACK
10
224.85
20
-102.51
40
0.3
50
90
51
180
0
ARC
8
BLACK
10
238.25
20
-102.51
40
0.3
50
-0
51
90
0
LINE
8
BLACK
6
CONTINUOUS
10
257.3
20
-102.21
11
243.9
21
-102.21
0
LINE
8
BLACK
6
CONTINUOUS
10
257.6
20
-115.91
11
257.6
21
-102.51
0
LINE
8
BLACK
6
CONTINUOUS
10
243.9
20
-116.21
11
257.3
21
-116.21
0
LINE
8
BLACK
6
CONTINUOUS
10
243.6
20
-102.51
11
243.6
21
-115.91
0
ARC
8
BLACK
10
257.3
20
-115.91
40
0.3
50
-90
51
-0
0
ARC
8
BLACK
10
243.9
20
-115.91
40
0.3
50
180
51
270
0
ARC
8
BLACK
10
243.9
20
-102.51
40
0.3
50
90
51
180
0
ARC
8
BLACK
10
257.3
20
-102.51
40
0.3
50
-0
51
90
0
LINE
8
BLACK
6
CONTINUOUS
10
276.35
20
-102.21
11
262.95
21
-102.21
0
LINE
8
BLACK
6
CONTINUOUS
10
276.65
20
-115.91
11
276.65
21
-102.51
0
LINE
8
BLACK
6
CONTINUOUS
10
262.95
20
-116.21
11
276.35
21
-116.21
0
LINE
8
BLACK
6
CONTINUOUS
10
262.65
20
-102.51
11
262.65
21
-115.91
0
ARC
8
BLACK
10
276.35
20
-115.91
40
0.3
50
-90
51
-0
0
ARC
8
BLACK
10
262.95
20
-115.91
40
0.3
50
180
51
270
0
ARC
8
BLACK
10
262.95
20
-102.51
40
0.3
50
90
51
180
0
ARC
8
BLACK
10
276.35
20
-102.51
40
0.3
50
-0
51
90
0
LINE
8
BLACK
6
CONTINUOUS
10
295.4
20
-102.21
11
282
21
-102.21
0
LINE
8
BLACK
6
CONTINUOUS
10
295.7
20
-115.91
11
295.7
21
-102.51
0
LINE
8
BLACK
6
CONTINUOUS
10
282
20
-116.21
11
295.4
21
-116.21
0
LINE
8
BLACK
6
CONTINUOUS
10
281.7
20
-102.51
11
281.7
21
-115.91
0
ARC
8
BLACK
10
295.4
20
-115.91
40
0.3
50
-90
51
-0
0
ARC
8
BLACK
10
282
20
-115.91
40
0.3
50
180
51
270
0
ARC
8
BLACK
10
282
20
-102.51
40
0.3
50
90
51
180
0
ARC
8
BLACK
10
295.4
20
-102.51
40
0.3
50
-0
51
90
0
LINE
8
BLACK
6
CONTINUOUS
10
314.45
20
-102.21
11
301.05
21
-102.21
0
LINE
8
BLACK
6
CONTINUOUS
10
314.75
20
-115.91
11
314.75
21
-102.51
0
LINE
8
BLACK
6
CONTINUOUS
10
301.05
20
-116.21
11
314.45
21
-116.21
0
LINE
8
BLACK
6
CONTINUOUS
10
300.75
20
-102.51
11
300.75
21
-115.91
0
ARC
8
BLACK
10
314.45
20
-115.91
40
0.3
50
-90
51
-0
0
ARC
8
BLACK
10
301.05
20
-115.91
40
0.3
50
180
51
270
0
ARC
8
BLACK
10
301.05
20
-102.51
40
0.3
50
90
51
180
0
ARC
8
BLACK
10
314.45
20
-102.51
40
0.3
50
-0
51
90
0
LINE
8
BLACK
6
CONTINUOUS
10
352.55
20
-102.21
11
339.15
21
-102.21
0
LINE
8
BLACK
6
CONTINUOUS
10
352.85
20
-115.91
11
352.85
21
-102.51
0
LINE
8
BLACK
6
CONTINUOUS
10
339.15
20
-116.21
11
352.55
21
-116.21
0
LINE
8
BLACK
6
CONTINUOUS
10
338.85
20
-102.51
11
338.85
21
-115.91
0
ARC
8
BLACK
10
352.55
20
-115.91
40
0.3
50
-90
51
-0
0
ARC
8
BLACK
10
339.15
20
-115.91
40
0.3
50
180
51
270
0
ARC
8
BLACK
10
339.15
20
-102.51
40
0.3
50
90
51
180
0
ARC
8
BLACK
10
352.55
20
-102.51
40
0.3
50
-0
51
90
0
LINE
8
BLACK
6
CONTINUOUS
10
90.6125
20
-121.26
11
77.2125
21
-121.26
0
LINE
8
BLACK
6
CONTINUOUS
10
90.9125
20
-134.96
11
90.9125
21
-121.56
0
LINE
8
BLACK
6
CONTINUOUS
10
77.2125
20
-135.26
11
90.6125
21
-135.26
0
LINE
8
BLACK
6
CONTINUOUS
10
76.9125
20
-121.56
11
76.9125
21
-134.96
0
ARC
8
BLACK
10
90.6125
20
-134.96
40
0.3
50
-90
51
-0
0
ARC
8
BLACK
10
77.2125
20
-134.96
40
0.3
50
180
51
270
0
ARC
8
BLACK
10
77.2125
20
-121.56
40
0.3
50
90
51
180
0
ARC
8
BLACK
10
90.6125
20
-121.56
40
0.3
50
-0
51
90
0
LINE
8
BLACK
6
CONTINUOUS
10
114.425
20
-121.26
11
101.025
21
-121.26
0
LINE
8
BLACK
6
CONTINUOUS
10
114.725
20
-134.96
11
114.725
21
-121.56
0
LINE
8
BLACK
6
CONTINUOUS
10
101.025
20
-135.26
11
114.425
21
-135.26
0
LINE
8
BLACK
6
CONTINUOUS
10
100.725
20
-121.56
11
100.725
21
-134.96
0
ARC
8
BLACK
10
114.425
20
-134.96
40
0.3
50
-90
51
-0
0
ARC
8
BLACK
10
101.025
20
-134.96
40
0.3
50
180
51
270
0
ARC
8
BLACK
10
101.025
20
-121.56
40
0.3
50
90
51
180
0
ARC
8
BLACK
10
114.425
20
-121.56
40
0.3
50
-0
51
90
0
LINE
8
BLACK
6
CONTINUOUS
10
133.475
20
-121.26
11
120.075
21
-121.26
0
LINE
8
BLACK
6
CONTINUOUS
10
133.775
20
-134.96
11
133.775
21
-121.56
0
LINE
8
BLACK
6
CONTINUOUS
10
120.075
20
-135.26
11
133.475
21
-135.26
0
LINE
8
BLACK
6
CONTINUOUS
10
119.775
20
-121.56
11
119.775
21
-134.96
0
ARC
8
BLACK
10
133.475
20
-134.96
40
0.3
50
-90
51
-0
0
ARC
8
BLACK
10
120.075
20
-134.96
40
0.3
50
180
51
270
0
ARC
8
BLACK
10
120.075
20
-121.56
40
0.3
50
90
51
180
0
ARC
8
BLACK
10
133.475
20
-121.56
40
0.3
50
-0
51
90
0
LINE
8
BLACK
6
CONTINUOUS
10
152.525
20
-121.26
11
139.125
21
-121.26
0
LINE
8
BLACK
6
CONTINUOUS
10
152.825
20
-134.96
11
152.825
21
-121.56
0
LINE
8
BLACK
6
CONTINUOUS
10
139.125
20
-135.26
11
152.525
21
-135.26
0
LINE
8
BLACK
6
CONTINUOUS
10
138.825
20
-121.56
11
138.825
21
-134.96
0
ARC
8
BLACK
10
152.525
20
-134.96
40
0.3
50
-90
51
-0
0
ARC
8
BLACK
10
139.125
20
-134.96
40
0.3
50
180
51
270
0
ARC
8
BLACK
10
139.125
20
-121.56
40
0.3
50
90
51
180
0
ARC
8
BLACK
10
152.525
20
-121.56
40
0.3
50
-0
51
90
0
LINE
8
BLACK
6
CONTINUOUS
10
171.575
20
-121.26
11
158.175
21
-121.26
0
LINE
8
BLACK
6
CONTINUOUS
10
171.875
20
-134.96
11
171.875
21
-121.56
0
LINE
8
BLACK
6
CONTINUOUS
10
158.175
20
-135.26
11
171.575
21
-135.26
0
LINE
8
BLACK
6
CONTINUOUS
10
157.875
20
-121.56
11
157.875
21
-134.96
0
ARC
8
BLACK
10
171.575
20
-134.96
40
0.3
50
-90
51
-0
0
ARC
8
BLACK
10
158.175
20
-134.96
40
0.3
50
180
51
270
0
ARC
8
BLACK
10
158.175
20
-121.56
40
0.3
50
90
51
180
0
ARC
8
BLACK
10
171.575
20
-121.56
40
0.3
50
-0
51
90
0
LINE
8
BLACK
6
CONTINUOUS
10
190.625
20
-121.26
11
177.225
21
-121.26
0
LINE
8
BLACK
6
CONTINUOUS
10
190.925
20
-134.96
11
190.925
21
-121.56
0
LINE
8
BLACK
6
CONTINUOUS
10
177.225
20
-135.26
11
190.625
21
-135.26
0
LINE
8
BLACK
6
CONTINUOUS
10
176.925
20
-121.56
11
176.925
21
-134.96
0
ARC
8
BLACK
10
190.625
20
-134.96
40
0.3
50
-90
51
-0
0
ARC
8
BLACK
10
177.225
20
-134.96
40
0.3
50
180
51
270
0
ARC
8
BLACK
10
177.225
20
-121.56
40
0.3
50
90
51
180
0
ARC
8
BLACK
10
190.625
20
-121.56
40
0.3
50
-0
51
90
0
LINE
8
BLACK
6
CONTINUOUS
10
209.675
20
-121.26
11
196.275
21
-121.26
0
LINE
8
BLACK
6
CONTINUOUS
10
209.975
20
-134.96
11
209.975
21
-121.56
0
LINE
8
BLACK
6
CONTINUOUS
10
196.275
20
-135.26
11
209.675
21
-135.26
0
LINE
8
BLACK
6
CONTINUOUS
10
195.975
20
-121.56
11
195.975
21
-134.96
0
ARC
8
BLACK
10
209.675
20
-134.96
40
0.3
50
-90
51
-0
0
ARC
8
BLACK
10
196.275
20
-134.96
40
0.3
50
180
51
270
0
ARC
8
BLACK
10
196.275
20
-121.56
40
0.3
50
90
51
180
0
ARC
8
BLACK
10
209.675
20
-121.56
40
0.3
50
-0
51
90
0
LINE
8
BLACK
6
CONTINUOUS
10
228.725
20
-121.26
11
215.325
21
-121.26
0
LINE
8
BLACK
6
CONTINUOUS
10
229.025
20
-134.96
11
229.025
21
-121.56
0
LINE
8
BLACK
6
CONTINUOUS
10
215.325
20
-135.26
11
228.725
21
-135.26
0
LINE
8
BLACK
6
CONTINUOUS
10
215.025
20
-121.56
11
215.025
21
-134.96
0
ARC
8
BLACK
10
228.725
20
-134.96
40
0.3
50
-90
51
-0
0
ARC
8
BLACK
10
215.325
20
-134.96
40
0.3
50
180
51
270
0
ARC
8
BLACK
10
215.325
20
-121.56
40
0.3
50
90
51
180
0
ARC
8
BLACK
10
228.725
20
-121.56
40
0.3
50
-0
51
90
0
LINE
8
BLACK
6
CONTINUOUS
10
247.775
20
-121.26
11
234.375
21
-121.26
0
LINE
8
BLACK
6
CONTINUOUS
10
248.075
20
-134.96
11
248.075
21
-121.56
0
LINE
8
BLACK
6
CONTINUOUS
10
234.375
20
-135.26
11
247.775
21
-135.26
0
LINE
8
BLACK
6
CONTINUOUS
10
234.075
20
-121.56
11
234.075
21
-134.96
0
ARC
8
BLACK
10
247.775
20
-134.96
40
0.3
50
-90
51
-0
0
ARC
8
BLACK
10
234.375
20
-134.96
40
0.3
50
180
51
270
0
ARC
8
BLACK
10
234.375
20
-121.56
40
0.3
50
90
51
180
0
ARC
8
BLACK
10
247.775
20
-121.56
40
0.3
50
-0
51
90
0
LINE
8
BLACK
6
CONTINUOUS
10
266.825
20
-121.26
11
253.425
21
-121.26
0
LINE
8
BLACK
6
CONTINUOUS
10
267.125
20
-134.96
11
267.125
21
-121.56
0
LINE
8
BLACK
6
CONTINUOUS
10
253.425
20
-135.26
11
266.825
21
-135.26
0
LINE
8
BLACK
6
CONTINUOUS
10
253.125
20
-121.56
11
253.125
21
-134.96
0
ARC
8
BLACK
10
266.825
20
-134.96
40
0.3
50
-90
51
-0
0
ARC
8
BLACK
10
253.425
20
-134.96
40
0.3
50
180
51
270
0
ARC
8
BLACK
10
253.425
20
-121.56
40
0.3
50
90
51
180
0
ARC
8
BLACK
10
266.825
20
-121.56
40
0.3
50
-0
51
90
0
LINE
8
BLACK
6
CONTINUOUS
10
285.875
20
-121.26
11
272.475
21
-121.26
0
LINE
8
BLACK
6
CONTINUOUS
10
286.175
20
-134.96
11
286.175
21
-121.56
0
LINE
8
BLACK
6
CONTINUOUS
10
272.475
20
-135.26
11
285.875
21
-135.26
0
LINE
8
BLACK
6
CONTINUOUS
10
272.175
20
-121.56
11
272.175
21
-134.96
0
ARC
8
BLACK
10
285.875
20
-134.96
40
0.3
50
-90
51
-0
0
ARC
8
BLACK
10
272.475
20
-134.96
40
0.3
50
180
51
270
0
ARC
8
BLACK
10
272.475
20
-121.56
40
0.3
50
90
51
180
0
ARC
8
BLACK
10
285.875
20
-121.56
40
0.3
50
-0
51
90
0
LINE
8
BLACK
6
CONTINUOUS
10
304.925
20
-121.26
11
291.525
21
-121.26
0
LINE
8
BLACK
6
CONTINUOUS
10
305.225
20
-134.96
11
305.225
21
-121.56
0
LINE
8
BLACK
6
CONTINUOUS
10
291.525
20
-135.26
11
304.925
21
-135.26
0
LINE
8
BLACK
6
CONTINUOUS
10
291.225
20
-121.56
11
291.225
21
-134.96
0
ARC
8
BLACK
10
304.925
20
-134.96
40
0.3
50
-90
51
-0
0
ARC
8
BLACK
10
291.525
20
-134.96
40
0.3
50
180
51
270
0
ARC
8
BLACK
10
291.525
20
-121.56
40
0.3
50
90
51
180
0
ARC
8
BLACK
10
304.925
20
-121.56
40
0.3
50
-0
51
90
0
LINE
8
BLACK
6
CONTINUOUS
10
323.975
20
-121.26
11
310.575
21
-121.26
0
LINE
8
BLACK
6
CONTINUOUS
10
324.275
20
-134.96
11
324.275
21
-121.56
0
LINE
8
BLACK
6
CONTINUOUS
10
310.575
20
-135.26
11
323.975
21
-135.26
0
LINE
8
BLACK
6
CONTINUOUS
10
310.275
20
-121.56
11
310.275
21
-134.96
0
ARC
8
BLACK
10
323.975
20
-134.96
40
0.3
50
-90
51
-0
0
ARC
8
BLACK
10
310.575
20
-134.96
40
0.3
50
180
51
270
0
ARC
8
BLACK
10
310.575
20
-121.56
40
0.3
50
90
51
180
0
ARC
8
BLACK
10
323.975
20
-121.56
40
0.3
50
-0
51
90
0
LINE
8
BLACK
6
CONTINUOUS
10
347.787
20
-121.26
11
334.387
21
-121.26
0
LINE
8
BLACK
6
CONTINUOUS
10
348.087
20
-134.96
11
348.087
21
-121.56
0
LINE
8
BLACK
6
CONTINUOUS
10
334.387
20
-135.26
11
347.787
21
-135.26
0
LINE
8
BLACK
6
CONTINUOUS
10
334.087
20
-121.56
11
334.087
21
-134.96
0
ARC
8
BLACK
10
347.787
20
-134.96
40
0.3
50
-90
51
-0
0
ARC
8
BLACK
10
334.387
20
-134.96
40
0.3
50
180
51
270
0
ARC
8
BLACK
10
334.387
20
-121.56
40
0.3
50
90
51
180
0
ARC
8
BLACK
10
347.787
20
-121.56
40
0.3
50
-0
51
90
0
LINE
8
BLACK
6
CONTINUOUS
10
92.9938
20
-140.31
11
79.5938
21
-140.31
0
LINE
8
BLACK
6
CONTINUOUS
10
93.2938
20
-154.01
11
93.2938
21
-140.61
0
LINE
8
BLACK
6
CONTINUOUS
10
79.5938
20
-154.31
11
92.9938
21
-154.31
0
LINE
8
BLACK
6
CONTINUOUS
10
79.2938
20
-140.61
11
79.2938
21
-154.01
0
ARC
8
BLACK
10
92.9938
20
-154.01
40
0.3
50
-90
51
-0
0
ARC
8
BLACK
10
79.5938
20
-154.01
40
0.3
50
180
51
270
0
ARC
8
BLACK
10
79.5938
20
-140.61
40
0.3
50
90
51
180
0
ARC
8
BLACK
10
92.9938
20
-140.61
40
0.3
50
-0
51
90
0
LINE
8
BLACK
6
CONTINUOUS
10
119.187
20
-140.31
11
105.787
21
-140.31
0
LINE
8
BLACK
6
CONTINUOUS
10
119.487
20
-154.01
11
119.487
21
-140.61
0
LINE
8
BLACK
6
CONTINUOUS
10
105.787
20
-154.31
11
119.187
21
-154.31
0
LINE
8
BLACK
6
CONTINUOUS
10
105.487
20
-140.61
11
105.487
21
-154.01
0
ARC
8
BLACK
10
119.187
20
-154.01
40
0.3
50
-90
51
-0
0
ARC
8
BLACK
10
105.787
20
-154.01
40
0.3
50
180
51
270
0
ARC
8
BLACK
10
105.787
20
-140.61
40
0.3
50
90
51
180
0
ARC
8
BLACK
10
119.187
20
-140.61
40
0.3
50
-0
51
90
0
LINE
8
BLACK
6
CONTINUOUS
10
138.237
20
-140.31
11
124.837
21
-140.31
0
LINE
8
BLACK
6
CONTINUOUS
10
138.537
20
-154.01
11
138.537
21
-140.61
0
LINE
8
BLACK
6
CONTINUOUS
10
124.837
20
-154.31
11
138.237
21
-154.31
0
LINE
8
BLACK
6
CONTINUOUS
10
124.537
20
-140.61
11
124.537
21
-154.01
0
ARC
8
BLACK
10
138.237
20
-154.01
40
0.3
50
-90
51
-0
0
ARC
8
BLACK
10
124.837
20
-154.01
40
0.3
50
180
51
270
0
ARC
8
BLACK
10
124.837
20
-140.61
40
0.3
50
90
51
180
0
ARC
8
BLACK
10
138.237
20
-140.61
40
0.3
50
-0
51
90
0
LINE
8
BLACK
6
CONTINUOUS
10
157.287
20
-140.31
11
143.887
21
-140.31
0
LINE
8
BLACK
6
CONTINUOUS
10
157.587
20
-154.01
11
157.587
21
-140.61
0
LINE
8
BLACK
6
CONTINUOUS
10
143.887
20
-154.31
11
157.287
21
-154.31
0
LINE
8
BLACK
6
CONTINUOUS
10
143.587
20
-140.61
11
143.587
21
-154.01
0
ARC
8
BLACK
10
157.287
20
-154.01
40
0.3
50
-90
51
-0
0
ARC
8
BLACK
10
143.887
20
-154.01
40
0.3
50
180
51
270
0
ARC
8
BLACK
10
143.887
20
-140.61
40
0.3
50
90
51
180
0
ARC
8
BLACK
10
157.287
20
-140.61
40
0.3
50
-0
51
90
0
LINE
8
BLACK
6
CONTINUOUS
10
176.337
20
-140.31
11
162.937
21
-140.31
0
LINE
8
BLACK
6
CONTINUOUS
10
176.637
20
-154.01
11
176.637
21
-140.61
0
LINE
8
BLACK
6
CONTINUOUS
10
162.937
20
-154.31
11
176.337
21
-154.31
0
LINE
8
BLACK
6
CONTINUOUS
10
162.637
20
-140.61
11
162.637
21
-154.01
0
ARC
8
BLACK
10
176.337
20
-154.01
40
0.3
50
-90
51
-0
0
ARC
8
BLACK
10
162.937
20
-154.01
40
0.3
50
180
51
270
0
ARC
8
BLACK
10
162.937
20
-140.61
40
0.3
50
90
51
180
0
ARC
8
BLACK
10
176.337
20
-140.61
40
0.3
50
-0
51
90
0
LINE
8
BLACK
6
CONTINUOUS
10
181.987
20
-154.31
11
195.387
21
-154.31
0
LINE
8
BLACK
6
CONTINUOUS
10
181.687
20
-140.61
11
181.687
21
-154.01
0
LINE
8
BLACK
6
CONTINUOUS
10
195.387
20
-140.31
11
181.987
21
-140.31
0
LINE
8
BLACK
6
CONTINUOUS
10
195.687
20
-154.01
11
195.687
21
-140.61
0
ARC
8
BLACK
10
181.987
20
-140.61
40
0.3
50
90
51
180
0
ARC
8
BLACK
10
195.387
20
-140.61
40
0.3
50
-0
51
90
0
ARC
8
BLACK
10
195.387
20
-154.01
40
0.3
50
-90
51
-0
0
ARC
8
BLACK
10
181.987
20
-154.01
40
0.3
50
180
51
270
0
LINE
8
BLACK
6
CONTINUOUS
10
214.437
20
-140.31
11
201.037
21
-140.31
0
LINE
8
BLACK
6
CONTINUOUS
10
214.737
20
-154.01
11
214.737
21
-140.61
0
LINE
8
BLACK
6
CONTINUOUS
10
201.037
20
-154.31
11
214.437
21
-154.31
0
LINE
8
BLACK
6
CONTINUOUS
10
200.737
20
-140.61
11
200.737
21
-154.01
0
ARC
8
BLACK
10
214.437
20
-154.01
40
0.3
50
-90
51
-0
0
ARC
8
BLACK
10
201.037
20
-154.01
40
0.3
50
180
51
270
0
ARC
8
BLACK
10
201.037
20
-140.61
40
0.3
50
90
51
180
0
ARC
8
BLACK
10
214.437
20
-140.61
40
0.3
50
-0
51
90
0
LINE
8
BLACK
6
CONTINUOUS
10
233.487
20
-140.31
11
220.087
21
-140.31
0
LINE
8
BLACK
6
CONTINUOUS
10
233.787
20
-154.01
11
233.787
21
-140.61
0
LINE
8
BLACK
6
CONTINUOUS
10
220.087
20
-154.31
11
233.487
21
-154.31
0
LINE
8
BLACK
6
CONTINUOUS
10
219.787
20
-140.61
11
219.787
21
-154.01
0
ARC
8
BLACK
10
233.487
20
-154.01
40
0.3
50
-90
51
-0
0
ARC
8
BLACK
10
220.087
20
-154.01
40
0.3
50
180
51
270
0
ARC
8
BLACK
10
220.087
20
-140.61
40
0.3
50
90
51
180
0
ARC
8
BLACK
10
233.487
20
-140.61
40
0.3
50
-0
51
90
0
LINE
8
BLACK
6
CONTINUOUS
10
252.537
20
-140.31
11
239.137
21
-140.31
0
LINE
8
BLACK
6
CONTINUOUS
10
252.837
20
-154.01
11
252.837
21
-140.61
0
LINE
8
BLACK
6
CONTINUOUS
10
239.137
20
-154.31
11
252.537
21
-154.31
0
LINE
8
BLACK
6
CONTINUOUS
10
238.837
20
-140.61
11
238.837
21
-154.01
0
ARC
8
BLACK
10
252.537
20
-154.01
40
0.3
50
-90
51
-0
0
ARC
8
BLACK
10
239.137
20
-154.01
40
0.3
50
180
51
270
0
ARC
8
BLACK
10
239.137
20
-140.61
40
0.3
50
90
51
180
0
ARC
8
BLACK
10
252.537
20
-140.61
40
0.3
50
-0
51
90
0
LINE
8
BLACK
6
CONTINUOUS
10
271.587
20
-140.31
11
258.187
21
-140.31
0
LINE
8
BLACK
6
CONTINUOUS
10
271.887
20
-154.01
11
271.887
21
-140.61
0
LINE
8
BLACK
6
CONTINUOUS
10
258.187
20
-154.31
11
271.587
21
-154.31
0
LINE
8
BLACK
6
CONTINUOUS
10
257.887
20
-140.61
11
257.887
21
-154.01
0
ARC
8
BLACK
10
271.587
20
-154.01
40
0.3
50
-90
51
-0
0
ARC
8
BLACK
10
258.187
20
-154.01
40
0.3
50
180
51
270
0
ARC
8
BLACK
10
258.187
20
-140.61
40
0.3
50
90
51
180
0
ARC
8
BLACK
10
271.587
20
-140.61
40
0.3
50
-0
51
90
0
LINE
8
BLACK
6
CONTINUOUS
10
290.637
20
-140.31
11
277.237
21
-140.31
0
LINE
8
BLACK
6
CONTINUOUS
10
290.937
20
-154.01
11
290.937
21
-140.61
0
LINE
8
BLACK
6
CONTINUOUS
10
277.237
20
-154.31
11
290.637
21
-154.31
0
LINE
8
BLACK
6
CONTINUOUS
10
276.937
20
-140.61
11
276.937
21
-154.01
0
ARC
8
BLACK
10
290.637
20
-154.01
40
0.3
50
-90
51
-0
0
ARC
8
BLACK
10
277.237
20
-154.01
40
0.3
50
180
51
270
0
ARC
8
BLACK
10
277.237
20
-140.61
40
0.3
50
90
51
180
0
ARC
8
BLACK
10
290.637
20
-140.61
40
0.3
50
-0
51
90
0
LINE
8
BLACK
6
CONTINUOUS
10
309.687
20
-140.31
11
296.287
21
-140.31
0
LINE
8
BLACK
6
CONTINUOUS
10
309.987
20
-154.01
11
309.987
21
-140.61
0
LINE
8
BLACK
6
CONTINUOUS
10
296.287
20
-154.31
11
309.687
21
-154.31
0
LINE
8
BLACK
6
CONTINUOUS
10
295.987
20
-140.61
11
295.987
21
-154.01
0
ARC
8
BLACK
10
309.687
20
-154.01
40
0.3
50
-90
51
-0
0
ARC
8
BLACK
10
296.287
20
-154.01
40
0.3
50
180
51
270
0
ARC
8
BLACK
10
296.287
20
-140.61
40
0.3
50
90
51
180
0
ARC
8
BLACK
10
309.687
20
-140.61
40
0.3
50
-0
51
90
0
LINE
8
BLACK
6
CONTINUOUS
10
128.713
20
-159.36
11
115.313
21
-159.36
0
LINE
8
BLACK
6
CONTINUOUS
10
129.013
20
-173.06
11
129.013
21
-159.66
0
LINE
8
BLACK
6
CONTINUOUS
10
115.313
20
-173.36
11
128.713
21
-173.36
0
LINE
8
BLACK
6
CONTINUOUS
10
115.013
20
-159.66
11
115.013
21
-173.06
0
ARC
8
BLACK
10
128.713
20
-173.06
40
0.3
50
-90
51
-0
0
ARC
8
BLACK
10
115.313
20
-173.06
40
0.3
50
180
51
270
0
ARC
8
BLACK
10
115.313
20
-159.66
40
0.3
50
90
51
180
0
ARC
8
BLACK
10
128.713
20
-159.66
40
0.3
50
-0
51
90
0
LINE
8
BLACK
6
CONTINUOUS
10
147.763
20
-159.36
11
134.363
21
-159.36
0
LINE
8
BLACK
6
CONTINUOUS
10
148.063
20
-173.06
11
148.063
21
-159.66
0
LINE
8
BLACK
6
CONTINUOUS
10
134.363
20
-173.36
11
147.763
21
-173.36
0
LINE
8
BLACK
6
CONTINUOUS
10
134.063
20
-159.66
11
134.063
21
-173.06
0
ARC
8
BLACK
10
147.763
20
-173.06
40
0.3
50
-90
51
-0
0
ARC
8
BLACK
10
134.363
20
-173.06
40
0.3
50
180
51
270
0
ARC
8
BLACK
10
134.363
20
-159.66
40
0.3
50
90
51
180
0
ARC
8
BLACK
10
147.763
20
-159.66
40
0.3
50
-0
51
90
0
LINE
8
BLACK
6
CONTINUOUS
10
166.813
20
-159.36
11
153.413
21
-159.36
0
LINE
8
BLACK
6
CONTINUOUS
10
167.113
20
-173.06
11
167.113
21
-159.66
0
LINE
8
BLACK
6
CONTINUOUS
10
153.413
20
-173.36
11
166.813
21
-173.36
0
LINE
8
BLACK
6
CONTINUOUS
10
153.113
20
-159.66
11
153.113
21
-173.06
0
ARC
8
BLACK
10
166.813
20
-173.06
40
0.3
50
-90
51
-0
0
ARC
8
BLACK
10
153.413
20
-173.06
40
0.3
50
180
51
270
0
ARC
8
BLACK
10
153.413
20
-159.66
40
0.3
50
90
51
180
0
ARC
8
BLACK
10
166.813
20
-159.66
40
0.3
50
-0
51
90
0
LINE
8
BLACK
6
CONTINUOUS
10
185.863
20
-159.36
11
172.463
21
-159.36
0
LINE
8
BLACK
6
CONTINUOUS
10
186.163
20
-173.06
11
186.163
21
-159.66
0
LINE
8
BLACK
6
CONTINUOUS
10
172.463
20
-173.36
11
185.863
21
-173.36
0
LINE
8
BLACK
6
CONTINUOUS
10
172.163
20
-159.66
11
172.163
21
-173.06
0
ARC
8
BLACK
10
185.863
20
-173.06
40
0.3
50
-90
51
-0
0
ARC
8
BLACK
10
172.463
20
-173.06
40
0.3
50
180
51
270
0
ARC
8
BLACK
10
172.463
20
-159.66
40
0.3
50
90
51
180
0
ARC
8
BLACK
10
185.863
20
-159.66
40
0.3
50
-0
51
90
0
LINE
8
BLACK
6
CONTINUOUS
10
204.913
20
-159.36
11
191.513
21
-159.36
0
LINE
8
BLACK
6
CONTINUOUS
10
205.213
20
-173.06
11
205.213
21
-159.66
0
LINE
8
BLACK
6
CONTINUOUS
10
191.513
20
-173.36
11
204.913
21
-173.36
0
LINE
8
BLACK
6
CONTINUOUS
10
191.213
20
-159.66
11
191.213
21
-173.06
0
ARC
8
BLACK
10
204.913
20
-173.06
40
0.3
50
-90
51
-0
0
ARC
8
BLACK
10
191.513
20
-173.06
40
0.3
50
180
51
270
0
ARC
8
BLACK
10
191.513
20
-159.66
40
0.3
50
90
51
180
0
ARC
8
BLACK
10
204.913
20
-159.66
40
0.3
50
-0
51
90
0
LINE
8
BLACK
6
CONTINUOUS
10
223.963
20
-159.36
11
210.563
21
-159.36
0
LINE
8
BLACK
6
CONTINUOUS
10
224.263
20
-173.06
11
224.263
21
-159.66
0
LINE
8
BLACK
6
CONTINUOUS
10
210.563
20
-173.36
11
223.963
21
-173.36
0
LINE
8
BLACK
6
CONTINUOUS
10
210.263
20
-159.66
11
210.263
21
-173.06
0
ARC
8
BLACK
10
223.963
20
-173.06
40
0.3
50
-90
51
-0
0
ARC
8
BLACK
10
210.563
20
-173.06
40
0.3
50
180
51
270
0
ARC
8
BLACK
10
210.563
20
-159.66
40
0.3
50
90
51
180
0
ARC
8
BLACK
10
223.963
20
-159.66
40
0.3
50
-0
51
90
0
LINE
8
BLACK
6
CONTINUOUS
10
243.013
20
-159.36
11
229.613
21
-159.36
0
LINE
8
BLACK
6
CONTINUOUS
10
243.313
20
-173.06
11
243.313
21
-159.66
0
LINE
8
BLACK
6
CONTINUOUS
10
229.613
20
-173.36
11
243.013
21
-173.36
0
LINE
8
BLACK
6
CONTINUOUS
10
229.313
20
-159.66
11
229.313
21
-173.06
0
ARC
8
BLACK
10
243.013
20
-173.06
40
0.3
50
-90
51
-0
0
ARC
8
BLACK
10
229.613
20
-173.06
40
0.3
50
180
51
270
0
ARC
8
BLACK
10
229.613
20
-159.66
40
0.3
50
90
51
180
0
ARC
8
BLACK
10
243.013
20
-159.66
40
0.3
50
-0
51
90
0
LINE
8
BLACK
6
CONTINUOUS
10
262.063
20
-159.36
11
248.663
21
-159.36
0
LINE
8
BLACK
6
CONTINUOUS
10
262.363
20
-173.06
11
262.363
21
-159.66
0
LINE
8
BLACK
6
CONTINUOUS
10
248.663
20
-173.36
11
262.063
21
-173.36
0
LINE
8
BLACK
6
CONTINUOUS
10
248.363
20
-159.66
11
248.363
21
-173.06
0
ARC
8
BLACK
10
262.063
20
-173.06
40
0.3
50
-90
51
-0
0
ARC
8
BLACK
10
248.663
20
-173.06
40
0.3
50
180
51
270
0
ARC
8
BLACK
10
248.663
20
-159.66
40
0.3
50
90
51
180
0
ARC
8
BLACK
10
262.063
20
-159.66
40
0.3
50
-0
51
90
0
LINE
8
BLACK
6
CONTINUOUS
10
281.113
20
-159.36
11
267.713
21
-159.36
0
LINE
8
BLACK
6
CONTINUOUS
10
281.413
20
-173.06
11
281.413
21
-159.66
0
LINE
8
BLACK
6
CONTINUOUS
10
267.713
20
-173.36
11
281.113
21
-173.36
0
LINE
8
BLACK
6
CONTINUOUS
10
267.413
20
-159.66
11
267.413
21
-173.06
0
ARC
8
BLACK
10
281.113
20
-173.06
40
0.3
50
-90
51
-0
0
ARC
8
BLACK
10
267.713
20
-173.06
40
0.3
50
180
51
270
0
ARC
8
BLACK
10
267.713
20
-159.66
40
0.3
50
90
51
180
0
ARC
8
BLACK
10
281.113
20
-159.66
40
0.3
50
-0
51
90
0
LINE
8
BLACK
6
CONTINUOUS
10
300.163
20
-159.36
11
286.763
21
-159.36
0
LINE
8
BLACK
6
CONTINUOUS
10
300.463
20
-173.06
11
300.463
21
-159.66
0
LINE
8
BLACK
6
CONTINUOUS
10
286.763
20
-173.36
11
300.163
21
-173.36
0
LINE
8
BLACK
6
CONTINUOUS
10
286.463
20
-159.66
11
286.463
21
-173.06
0
ARC
8
BLACK
10
300.163
20
-173.06
40
0.3
50
-90
51
-0
0
ARC
8
BLACK
10
286.763
20
-173.06
40
0.3
50
180
51
270
0
ARC
8
BLACK
10
286.763
20
-159.66
40
0.3
50
90
51
180
0
ARC
8
BLACK
10
300.163
20
-159.66
40
0.3
50
-0
51
90
0
LINE
8
BLACK
6
CONTINUOUS
10
326.356
20
-159.36
11
312.956
21
-159.36
0
LINE
8
BLACK
6
CONTINUOUS
10
326.656
20
-173.06
11
326.656
21
-159.66
0
LINE
8
BLACK
6
CONTINUOUS
10
312.956
20
-173.36
11
326.356
21
-173.36
0
LINE
8
BLACK
6
CONTINUOUS
10
312.656
20
-159.66
11
312.656
21
-173.06
0
ARC
8
BLACK
10
326.356
20
-173.06
40
0.3
50
-90
51
-0
0
ARC
8
BLACK
10
312.956
20
-173.06
40
0.3
50
180
51
270
0
ARC
8
BLACK
10
312.956
20
-159.66
40
0.3
50
90
51
180
0
ARC
8
BLACK
10
326.356
20
-159.66
40
0.3
50
-0
51
90
0
LINE
8
BLACK
6
CONTINUOUS
10
352.55
20
-159.36
11
339.15
21
-159.36
0
LINE
8
BLACK
6
CONTINUOUS
10
352.85
20
-173.06
11
352.85
21
-159.66
0
LINE
8
BLACK
6
CONTINUOUS
10
339.15
20
-173.36
11
352.55
21
-173.36
0
LINE
8
BLACK
6
CONTINUOUS
10
338.85
20
-159.66
11
338.85
21
-173.06
0
ARC
8
BLACK
10
352.55
20
-173.06
40
0.3
50
-90
51
-0
0
ARC
8
BLACK
10
339.15
20
-173.06
40
0.3
50
180
51
270
0
ARC
8
BLACK
10
339.15
20
-159.66
40
0.3
50
90
51
180
0
ARC
8
BLACK
10
352.55
20
-159.66
40
0.3
50
-0
51
90
0
LINE
8
BLACK
6
CONTINUOUS
10
114.425
20
-178.41
11
101.025
21
-178.41
0
LINE
8
BLACK
6
CONTINUOUS
10
114.725
20
-192.11
11
114.725
21
-178.71
0
LINE
8
BLACK
6
CONTINUOUS
10
101.025
20
-192.41
11
114.425
21
-192.41
0
LINE
8
BLACK
6
CONTINUOUS
10
100.725
20
-178.71
11
100.725
21
-192.11
0
ARC
8
BLACK
10
114.425
20
-192.11
40
0.3
50
-90
51
-0
0
ARC
8
BLACK
10
101.025
20
-192.11
40
0.3
50
180
51
270
0
ARC
8
BLACK
10
101.025
20
-178.71
40
0.3
50
90
51
180
0
ARC
8
BLACK
10
114.425
20
-178.71
40
0.3
50
-0
51
90
0
LINE
8
BLACK
6
CONTINUOUS
10
138.237
20
-178.41
11
124.837
21
-178.41
0
LINE
8
BLACK
6
CONTINUOUS
10
138.537
20
-192.11
11
138.537
21
-178.71
0
LINE
8
BLACK
6
CONTINUOUS
10
124.837
20
-192.41
11
138.237
21
-192.41
0
LINE
8
BLACK
6
CONTINUOUS
10
124.537
20
-178.71
11
124.537
21
-192.11
0
ARC
8
BLACK
10
138.237
20
-192.11
40
0.3
50
-90
51
-0
0
ARC
8
BLACK
10
124.837
20
-192.11
40
0.3
50
180
51
270
0
ARC
8
BLACK
10
124.837
20
-178.71
40
0.3
50
90
51
180
0
ARC
8
BLACK
10
138.237
20
-178.71
40
0.3
50
-0
51
90
0
LINE
8
BLACK
6
CONTINUOUS
10
281.113
20
-178.41
11
267.713
21
-178.41
0
LINE
8
BLACK
6
CONTINUOUS
10
281.413
20
-192.11
11
281.413
21
-178.71
0
LINE
8
BLACK
6
CONTINUOUS
10
267.713
20
-192.41
11
281.113
21
-192.41
0
LINE
8
BLACK
6
CONTINUOUS
10
267.413
20
-178.71
11
267.413
21
-192.11
0
ARC
8
BLACK
10
281.113
20
-192.11
40
0.3
50
-90
51
-0
0
ARC
8
BLACK
10
267.713
20
-192.11
40
0.3
50
180
51
270
0
ARC
8
BLACK
10
267.713
20
-178.71
40
0.3
50
90
51
180
0
ARC
8
BLACK
10
281.113
20
-178.71
40
0.3
50
-0
51
90
0
LINE
8
BLACK
6
CONTINUOUS
10
304.925
20
-178.41
11
291.525
21
-178.41
0
LINE
8
BLACK
6
CONTINUOUS
10
305.225
20
-192.11
11
305.225
21
-178.71
0
LINE
8
BLACK
6
CONTINUOUS
10
291.525
20
-192.41
11
304.925
21
-192.41
0
LINE
8
BLACK
6
CONTINUOUS
10
291.225
20
-178.71
11
291.225
21
-192.11
0
ARC
8
BLACK
10
304.925
20
-192.11
40
0.3
50
-90
51
-0
0
ARC
8
BLACK
10
291.525
20
-192.11
40
0.3
50
180
51
270
0
ARC
8
BLACK
10
291.525
20
-178.71
40
0.3
50
90
51
180
0
ARC
8
BLACK
10
304.925
20
-178.71
40
0.3
50
-0
51
90
0
LINE
8
BLACK
6
CONTINUOUS
10
333.5
20
-102.21
11
320.1
21
-102.21
0
LINE
8
BLACK
6
CONTINUOUS
10
333.8
20
-115.91
11
333.8
21
-102.51
0
LINE
8
BLACK
6
CONTINUOUS
10
320.1
20
-116.21
11
333.5
21
-116.21
0
LINE
8
BLACK
6
CONTINUOUS
10
319.8
20
-102.51
11
319.8
21
-115.91
0
ARC
8
BLACK
10
333.5
20
-115.91
40
0.3
50
-90
51
-0
0
ARC
8
BLACK
10
320.1
20
-115.91
40
0.3
50
180
51
270
0
ARC
8
BLACK
10
320.1
20
-102.51
40
0.3
50
90
51
180
0
ARC
8
BLACK
10
333.5
20
-102.51
40
0.3
50
-0
51
90
  0
ENDSEC
  0
EOF
