G04 #@! TF.GenerationSoftware,KiCad,Pcbnew,(5.1.9)-1*
G04 #@! TF.CreationDate,2021-01-19T21:28:49+09:00*
G04 #@! TF.ProjectId,yuiop47,7975696f-7034-4372-9e6b-696361645f70,1*
G04 #@! TF.SameCoordinates,Original*
G04 #@! TF.FileFunction,Paste,Bot*
G04 #@! TF.FilePolarity,Positive*
%FSLAX46Y46*%
G04 Gerber Fmt 4.6, Leading zero omitted, Abs format (unit mm)*
G04 Created by KiCad (PCBNEW (5.1.9)-1) date 2021-01-19 21:28:49*
%MOMM*%
%LPD*%
G01*
G04 APERTURE LIST*
%ADD10R,1.000000X1.400000*%
%ADD11R,1.700000X1.000000*%
G04 APERTURE END LIST*
D10*
X60703100Y-79628100D03*
X60703100Y-76078100D03*
X79753100Y-76078100D03*
X79753100Y-79628100D03*
X98803100Y-79628100D03*
X98803100Y-76078100D03*
X122616000Y-76078100D03*
X122616000Y-79628100D03*
X141666000Y-79628100D03*
X141666000Y-76078100D03*
X175003000Y-76078100D03*
X175003000Y-79628100D03*
X194053000Y-79628100D03*
X194053000Y-76078100D03*
X217866000Y-76078100D03*
X217866000Y-79628100D03*
X236916000Y-79628100D03*
X236916000Y-76078100D03*
X252394000Y-76078100D03*
X252394000Y-79628100D03*
X60703100Y-98678100D03*
X60703100Y-95128100D03*
X84515600Y-95128100D03*
X84515600Y-98678100D03*
X103566000Y-98678100D03*
X103566000Y-95128100D03*
X127378000Y-95128100D03*
X127378000Y-98678100D03*
X146428000Y-98678100D03*
X146428000Y-95128100D03*
X170241000Y-98678100D03*
X170241000Y-95128100D03*
X189291000Y-95128100D03*
X189291000Y-98678100D03*
X213103000Y-95128100D03*
X213103000Y-98678100D03*
X232153000Y-98678100D03*
X232153000Y-95128100D03*
X252394000Y-95128100D03*
X252394000Y-98678100D03*
X60703100Y-117728000D03*
X60703100Y-114178000D03*
X84515600Y-114178000D03*
X84515600Y-117728000D03*
X103566000Y-117728000D03*
X103566000Y-114178000D03*
X127378000Y-117728000D03*
X127378000Y-114178000D03*
X146428000Y-114178000D03*
X146428000Y-117728000D03*
X170241000Y-117728000D03*
X170241000Y-114178000D03*
X189291000Y-114178000D03*
X189291000Y-117728000D03*
X213103000Y-117728000D03*
X213103000Y-114178000D03*
X232153000Y-114178000D03*
X232153000Y-117728000D03*
X252394000Y-114178000D03*
X252394000Y-117728000D03*
X60703100Y-136778000D03*
X60703100Y-133228000D03*
X79753100Y-133228000D03*
X79753100Y-136778000D03*
X98803100Y-136778000D03*
X98803100Y-133228000D03*
X117853000Y-133228000D03*
X117853000Y-136778000D03*
X136903000Y-133228000D03*
X136903000Y-136778000D03*
X179766000Y-133228000D03*
X179766000Y-136778000D03*
X198816000Y-133228000D03*
X198816000Y-136778000D03*
X217866000Y-133228000D03*
X217866000Y-136778000D03*
X236916000Y-133228000D03*
X236916000Y-136778000D03*
X252394000Y-136778000D03*
X252394000Y-133228000D03*
X101184000Y-152256000D03*
X101184000Y-148706000D03*
X122616000Y-152256000D03*
X122616000Y-148706000D03*
X144047000Y-152256000D03*
X144047000Y-148706000D03*
X158334000Y-139159000D03*
X158334000Y-135609000D03*
X170241000Y-152256000D03*
X170241000Y-148706000D03*
X196434000Y-152256000D03*
X196434000Y-148706000D03*
X217866000Y-148706000D03*
X217866000Y-152256000D03*
D11*
X152750000Y-77362500D03*
X152750000Y-75962500D03*
X147250000Y-77362500D03*
X147250000Y-75962500D03*
M02*
