G04 #@! TF.GenerationSoftware,KiCad,Pcbnew,(5.1.9)-1*
G04 #@! TF.CreationDate,2021-01-19T21:28:49+09:00*
G04 #@! TF.ProjectId,yuiop47,7975696f-7034-4372-9e6b-696361645f70,1*
G04 #@! TF.SameCoordinates,Original*
G04 #@! TF.FileFunction,Copper,L1,Top*
G04 #@! TF.FilePolarity,Positive*
%FSLAX46Y46*%
G04 Gerber Fmt 4.6, Leading zero omitted, Abs format (unit mm)*
G04 Created by KiCad (PCBNEW (5.1.9)-1) date 2021-01-19 21:28:49*
%MOMM*%
%LPD*%
G01*
G04 APERTURE LIST*
G04 #@! TA.AperFunction,ComponentPad*
%ADD10C,4.000000*%
G04 #@! TD*
G04 #@! TA.AperFunction,ComponentPad*
%ADD11C,2.000000*%
G04 #@! TD*
G04 #@! TA.AperFunction,ComponentPad*
%ADD12C,1.397000*%
G04 #@! TD*
G04 #@! TA.AperFunction,ComponentPad*
%ADD13C,2.400000*%
G04 #@! TD*
G04 #@! TA.AperFunction,ComponentPad*
%ADD14O,2.200000X1.600000*%
G04 #@! TD*
G04 #@! TA.AperFunction,ComponentPad*
%ADD15O,2.200000X1.500000*%
G04 #@! TD*
G04 #@! TA.AperFunction,ComponentPad*
%ADD16C,1.524000*%
G04 #@! TD*
G04 #@! TA.AperFunction,ViaPad*
%ADD17C,0.800000*%
G04 #@! TD*
G04 #@! TA.AperFunction,Conductor*
%ADD18C,0.250000*%
G04 #@! TD*
G04 APERTURE END LIST*
D10*
X235750000Y-117250000D03*
X64250000Y-117250000D03*
X197750000Y-140750000D03*
X107000000Y-140750000D03*
X150000000Y-117250000D03*
X150000000Y-83500000D03*
X235750000Y-83750000D03*
X64250000Y-83750000D03*
D11*
X153250000Y-68538800D03*
X146750000Y-68538800D03*
X153250000Y-73038800D03*
X146750000Y-73038800D03*
D12*
X220500000Y-144440000D03*
X220500000Y-146980000D03*
X220500000Y-149520000D03*
X220500000Y-152060000D03*
D13*
X54908800Y-66820000D03*
G04 #@! TA.AperFunction,ComponentPad*
G36*
G01*
X54068926Y-66378797D02*
X54068926Y-66378797D01*
G75*
G02*
X54812352Y-65622281I749971J6545D01*
G01*
X57712242Y-65596975D01*
G75*
G02*
X58468758Y-66340401I6545J-749971D01*
G01*
X58468758Y-66340401D01*
G75*
G02*
X57725332Y-67096917I-749971J-6545D01*
G01*
X54825442Y-67122223D01*
G75*
G02*
X54068926Y-66378797I-6545J749971D01*
G01*
G37*
G04 #@! TD.AperFunction*
D14*
X47268800Y-75800000D03*
D15*
X52368800Y-77800000D03*
D13*
X48558800Y-69360000D03*
X67608800Y-69360000D03*
D15*
X71418800Y-77800000D03*
D14*
X66318800Y-75800000D03*
G04 #@! TA.AperFunction,ComponentPad*
G36*
G01*
X73118926Y-66378797D02*
X73118926Y-66378797D01*
G75*
G02*
X73862352Y-65622281I749971J6545D01*
G01*
X76762242Y-65596975D01*
G75*
G02*
X77518758Y-66340401I6545J-749971D01*
G01*
X77518758Y-66340401D01*
G75*
G02*
X76775332Y-67096917I-749971J-6545D01*
G01*
X73875442Y-67122223D01*
G75*
G02*
X73118926Y-66378797I-6545J749971D01*
G01*
G37*
G04 #@! TD.AperFunction*
D13*
X73958800Y-66820000D03*
X93008800Y-66820000D03*
G04 #@! TA.AperFunction,ComponentPad*
G36*
G01*
X92168926Y-66378797D02*
X92168926Y-66378797D01*
G75*
G02*
X92912352Y-65622281I749971J6545D01*
G01*
X95812242Y-65596975D01*
G75*
G02*
X96568758Y-66340401I6545J-749971D01*
G01*
X96568758Y-66340401D01*
G75*
G02*
X95825332Y-67096917I-749971J-6545D01*
G01*
X92925442Y-67122223D01*
G75*
G02*
X92168926Y-66378797I-6545J749971D01*
G01*
G37*
G04 #@! TD.AperFunction*
D14*
X85368800Y-75800000D03*
D15*
X90468800Y-77800000D03*
D13*
X86658800Y-69360000D03*
X110471000Y-69360000D03*
D15*
X114281000Y-77800000D03*
D14*
X109181000Y-75800000D03*
G04 #@! TA.AperFunction,ComponentPad*
G36*
G01*
X115981126Y-66378797D02*
X115981126Y-66378797D01*
G75*
G02*
X116724552Y-65622281I749971J6545D01*
G01*
X119624442Y-65596975D01*
G75*
G02*
X120380958Y-66340401I6545J-749971D01*
G01*
X120380958Y-66340401D01*
G75*
G02*
X119637532Y-67096917I-749971J-6545D01*
G01*
X116737642Y-67122223D01*
G75*
G02*
X115981126Y-66378797I-6545J749971D01*
G01*
G37*
G04 #@! TD.AperFunction*
D13*
X116821000Y-66820000D03*
X135871000Y-66820000D03*
G04 #@! TA.AperFunction,ComponentPad*
G36*
G01*
X135031126Y-66378797D02*
X135031126Y-66378797D01*
G75*
G02*
X135774552Y-65622281I749971J6545D01*
G01*
X138674442Y-65596975D01*
G75*
G02*
X139430958Y-66340401I6545J-749971D01*
G01*
X139430958Y-66340401D01*
G75*
G02*
X138687532Y-67096917I-749971J-6545D01*
G01*
X135787642Y-67122223D01*
G75*
G02*
X135031126Y-66378797I-6545J749971D01*
G01*
G37*
G04 #@! TD.AperFunction*
D14*
X128231000Y-75800000D03*
D15*
X133331000Y-77800000D03*
D13*
X129521000Y-69360000D03*
X169209000Y-66820000D03*
G04 #@! TA.AperFunction,ComponentPad*
G36*
G01*
X168369126Y-66378797D02*
X168369126Y-66378797D01*
G75*
G02*
X169112552Y-65622281I749971J6545D01*
G01*
X172012442Y-65596975D01*
G75*
G02*
X172768958Y-66340401I6545J-749971D01*
G01*
X172768958Y-66340401D01*
G75*
G02*
X172025532Y-67096917I-749971J-6545D01*
G01*
X169125642Y-67122223D01*
G75*
G02*
X168369126Y-66378797I-6545J749971D01*
G01*
G37*
G04 #@! TD.AperFunction*
D14*
X161569000Y-75800000D03*
D15*
X166669000Y-77800000D03*
D13*
X162859000Y-69360000D03*
X181909000Y-69360000D03*
D15*
X185719000Y-77800000D03*
D14*
X180619000Y-75800000D03*
G04 #@! TA.AperFunction,ComponentPad*
G36*
G01*
X187419126Y-66378797D02*
X187419126Y-66378797D01*
G75*
G02*
X188162552Y-65622281I749971J6545D01*
G01*
X191062442Y-65596975D01*
G75*
G02*
X191818958Y-66340401I6545J-749971D01*
G01*
X191818958Y-66340401D01*
G75*
G02*
X191075532Y-67096917I-749971J-6545D01*
G01*
X188175642Y-67122223D01*
G75*
G02*
X187419126Y-66378797I-6545J749971D01*
G01*
G37*
G04 #@! TD.AperFunction*
D13*
X188259000Y-66820000D03*
X205721000Y-69360000D03*
D15*
X209531000Y-77800000D03*
D14*
X204431000Y-75800000D03*
G04 #@! TA.AperFunction,ComponentPad*
G36*
G01*
X211231126Y-66378797D02*
X211231126Y-66378797D01*
G75*
G02*
X211974552Y-65622281I749971J6545D01*
G01*
X214874442Y-65596975D01*
G75*
G02*
X215630958Y-66340401I6545J-749971D01*
G01*
X215630958Y-66340401D01*
G75*
G02*
X214887532Y-67096917I-749971J-6545D01*
G01*
X211987642Y-67122223D01*
G75*
G02*
X211231126Y-66378797I-6545J749971D01*
G01*
G37*
G04 #@! TD.AperFunction*
D13*
X212071000Y-66820000D03*
X231121000Y-66820000D03*
G04 #@! TA.AperFunction,ComponentPad*
G36*
G01*
X230281126Y-66378797D02*
X230281126Y-66378797D01*
G75*
G02*
X231024552Y-65622281I749971J6545D01*
G01*
X233924442Y-65596975D01*
G75*
G02*
X234680958Y-66340401I6545J-749971D01*
G01*
X234680958Y-66340401D01*
G75*
G02*
X233937532Y-67096917I-749971J-6545D01*
G01*
X231037642Y-67122223D01*
G75*
G02*
X230281126Y-66378797I-6545J749971D01*
G01*
G37*
G04 #@! TD.AperFunction*
D14*
X223481000Y-75800000D03*
D15*
X228581000Y-77800000D03*
D13*
X224771000Y-69360000D03*
X243821000Y-69360000D03*
D15*
X247631000Y-77800000D03*
D14*
X242531000Y-75800000D03*
G04 #@! TA.AperFunction,ComponentPad*
G36*
G01*
X249331126Y-66378797D02*
X249331126Y-66378797D01*
G75*
G02*
X250074552Y-65622281I749971J6545D01*
G01*
X252974442Y-65596975D01*
G75*
G02*
X253730958Y-66340401I6545J-749971D01*
G01*
X253730958Y-66340401D01*
G75*
G02*
X252987532Y-67096917I-749971J-6545D01*
G01*
X250087642Y-67122223D01*
G75*
G02*
X249331126Y-66378797I-6545J749971D01*
G01*
G37*
G04 #@! TD.AperFunction*
D13*
X250171000Y-66820000D03*
X48558800Y-88410000D03*
D15*
X52368800Y-96850000D03*
D14*
X47268800Y-94850000D03*
G04 #@! TA.AperFunction,ComponentPad*
G36*
G01*
X54068926Y-85428797D02*
X54068926Y-85428797D01*
G75*
G02*
X54812352Y-84672281I749971J6545D01*
G01*
X57712242Y-84646975D01*
G75*
G02*
X58468758Y-85390401I6545J-749971D01*
G01*
X58468758Y-85390401D01*
G75*
G02*
X57725332Y-86146917I-749971J-6545D01*
G01*
X54825442Y-86172223D01*
G75*
G02*
X54068926Y-85428797I-6545J749971D01*
G01*
G37*
G04 #@! TD.AperFunction*
D13*
X54908800Y-85870000D03*
X72371200Y-88410000D03*
D15*
X76181200Y-96850000D03*
D14*
X71081200Y-94850000D03*
G04 #@! TA.AperFunction,ComponentPad*
G36*
G01*
X77881326Y-85428797D02*
X77881326Y-85428797D01*
G75*
G02*
X78624752Y-84672281I749971J6545D01*
G01*
X81524642Y-84646975D01*
G75*
G02*
X82281158Y-85390401I6545J-749971D01*
G01*
X82281158Y-85390401D01*
G75*
G02*
X81537732Y-86146917I-749971J-6545D01*
G01*
X78637842Y-86172223D01*
G75*
G02*
X77881326Y-85428797I-6545J749971D01*
G01*
G37*
G04 #@! TD.AperFunction*
D13*
X78721200Y-85870000D03*
X97771200Y-85870000D03*
G04 #@! TA.AperFunction,ComponentPad*
G36*
G01*
X96931326Y-85428797D02*
X96931326Y-85428797D01*
G75*
G02*
X97674752Y-84672281I749971J6545D01*
G01*
X100574642Y-84646975D01*
G75*
G02*
X101331158Y-85390401I6545J-749971D01*
G01*
X101331158Y-85390401D01*
G75*
G02*
X100587732Y-86146917I-749971J-6545D01*
G01*
X97687842Y-86172223D01*
G75*
G02*
X96931326Y-85428797I-6545J749971D01*
G01*
G37*
G04 #@! TD.AperFunction*
D14*
X90131200Y-94850000D03*
D15*
X95231200Y-96850000D03*
D13*
X91421200Y-88410000D03*
X121584000Y-85870000D03*
G04 #@! TA.AperFunction,ComponentPad*
G36*
G01*
X120744126Y-85428797D02*
X120744126Y-85428797D01*
G75*
G02*
X121487552Y-84672281I749971J6545D01*
G01*
X124387442Y-84646975D01*
G75*
G02*
X125143958Y-85390401I6545J-749971D01*
G01*
X125143958Y-85390401D01*
G75*
G02*
X124400532Y-86146917I-749971J-6545D01*
G01*
X121500642Y-86172223D01*
G75*
G02*
X120744126Y-85428797I-6545J749971D01*
G01*
G37*
G04 #@! TD.AperFunction*
D14*
X113944000Y-94850000D03*
D15*
X119044000Y-96850000D03*
D13*
X115234000Y-88410000D03*
X140634000Y-85870000D03*
G04 #@! TA.AperFunction,ComponentPad*
G36*
G01*
X139794126Y-85428797D02*
X139794126Y-85428797D01*
G75*
G02*
X140537552Y-84672281I749971J6545D01*
G01*
X143437442Y-84646975D01*
G75*
G02*
X144193958Y-85390401I6545J-749971D01*
G01*
X144193958Y-85390401D01*
G75*
G02*
X143450532Y-86146917I-749971J-6545D01*
G01*
X140550642Y-86172223D01*
G75*
G02*
X139794126Y-85428797I-6545J749971D01*
G01*
G37*
G04 #@! TD.AperFunction*
D14*
X132994000Y-94850000D03*
D15*
X138094000Y-96850000D03*
D13*
X134284000Y-88410000D03*
X158096000Y-88410000D03*
D15*
X161906000Y-96850000D03*
D14*
X156806000Y-94850000D03*
G04 #@! TA.AperFunction,ComponentPad*
G36*
G01*
X163606126Y-85428797D02*
X163606126Y-85428797D01*
G75*
G02*
X164349552Y-84672281I749971J6545D01*
G01*
X167249442Y-84646975D01*
G75*
G02*
X168005958Y-85390401I6545J-749971D01*
G01*
X168005958Y-85390401D01*
G75*
G02*
X167262532Y-86146917I-749971J-6545D01*
G01*
X164362642Y-86172223D01*
G75*
G02*
X163606126Y-85428797I-6545J749971D01*
G01*
G37*
G04 #@! TD.AperFunction*
D13*
X164446000Y-85870000D03*
X177146000Y-88410000D03*
D15*
X180956000Y-96850000D03*
D14*
X175856000Y-94850000D03*
G04 #@! TA.AperFunction,ComponentPad*
G36*
G01*
X182656126Y-85428797D02*
X182656126Y-85428797D01*
G75*
G02*
X183399552Y-84672281I749971J6545D01*
G01*
X186299442Y-84646975D01*
G75*
G02*
X187055958Y-85390401I6545J-749971D01*
G01*
X187055958Y-85390401D01*
G75*
G02*
X186312532Y-86146917I-749971J-6545D01*
G01*
X183412642Y-86172223D01*
G75*
G02*
X182656126Y-85428797I-6545J749971D01*
G01*
G37*
G04 #@! TD.AperFunction*
D13*
X183496000Y-85870000D03*
X207309000Y-85870000D03*
G04 #@! TA.AperFunction,ComponentPad*
G36*
G01*
X206469126Y-85428797D02*
X206469126Y-85428797D01*
G75*
G02*
X207212552Y-84672281I749971J6545D01*
G01*
X210112442Y-84646975D01*
G75*
G02*
X210868958Y-85390401I6545J-749971D01*
G01*
X210868958Y-85390401D01*
G75*
G02*
X210125532Y-86146917I-749971J-6545D01*
G01*
X207225642Y-86172223D01*
G75*
G02*
X206469126Y-85428797I-6545J749971D01*
G01*
G37*
G04 #@! TD.AperFunction*
D14*
X199669000Y-94850000D03*
D15*
X204769000Y-96850000D03*
D13*
X200959000Y-88410000D03*
X226359000Y-85870000D03*
G04 #@! TA.AperFunction,ComponentPad*
G36*
G01*
X225519126Y-85428797D02*
X225519126Y-85428797D01*
G75*
G02*
X226262552Y-84672281I749971J6545D01*
G01*
X229162442Y-84646975D01*
G75*
G02*
X229918958Y-85390401I6545J-749971D01*
G01*
X229918958Y-85390401D01*
G75*
G02*
X229175532Y-86146917I-749971J-6545D01*
G01*
X226275642Y-86172223D01*
G75*
G02*
X225519126Y-85428797I-6545J749971D01*
G01*
G37*
G04 #@! TD.AperFunction*
D14*
X218719000Y-94850000D03*
D15*
X223819000Y-96850000D03*
D13*
X220009000Y-88410000D03*
X243821000Y-88410000D03*
D15*
X247631000Y-96850000D03*
D14*
X242531000Y-94850000D03*
G04 #@! TA.AperFunction,ComponentPad*
G36*
G01*
X249331126Y-85428797D02*
X249331126Y-85428797D01*
G75*
G02*
X250074552Y-84672281I749971J6545D01*
G01*
X252974442Y-84646975D01*
G75*
G02*
X253730958Y-85390401I6545J-749971D01*
G01*
X253730958Y-85390401D01*
G75*
G02*
X252987532Y-86146917I-749971J-6545D01*
G01*
X250087642Y-86172223D01*
G75*
G02*
X249331126Y-85428797I-6545J749971D01*
G01*
G37*
G04 #@! TD.AperFunction*
D13*
X250171000Y-85870000D03*
X48558800Y-107460000D03*
D15*
X52368800Y-115900000D03*
D14*
X47268800Y-113900000D03*
G04 #@! TA.AperFunction,ComponentPad*
G36*
G01*
X54068926Y-104478797D02*
X54068926Y-104478797D01*
G75*
G02*
X54812352Y-103722281I749971J6545D01*
G01*
X57712242Y-103696975D01*
G75*
G02*
X58468758Y-104440401I6545J-749971D01*
G01*
X58468758Y-104440401D01*
G75*
G02*
X57725332Y-105196917I-749971J-6545D01*
G01*
X54825442Y-105222223D01*
G75*
G02*
X54068926Y-104478797I-6545J749971D01*
G01*
G37*
G04 #@! TD.AperFunction*
D13*
X54908800Y-104920000D03*
X78721200Y-104920000D03*
G04 #@! TA.AperFunction,ComponentPad*
G36*
G01*
X77881326Y-104478797D02*
X77881326Y-104478797D01*
G75*
G02*
X78624752Y-103722281I749971J6545D01*
G01*
X81524642Y-103696975D01*
G75*
G02*
X82281158Y-104440401I6545J-749971D01*
G01*
X82281158Y-104440401D01*
G75*
G02*
X81537732Y-105196917I-749971J-6545D01*
G01*
X78637842Y-105222223D01*
G75*
G02*
X77881326Y-104478797I-6545J749971D01*
G01*
G37*
G04 #@! TD.AperFunction*
D14*
X71081200Y-113900000D03*
D15*
X76181200Y-115900000D03*
D13*
X72371200Y-107460000D03*
X97771200Y-104920000D03*
G04 #@! TA.AperFunction,ComponentPad*
G36*
G01*
X96931326Y-104478797D02*
X96931326Y-104478797D01*
G75*
G02*
X97674752Y-103722281I749971J6545D01*
G01*
X100574642Y-103696975D01*
G75*
G02*
X101331158Y-104440401I6545J-749971D01*
G01*
X101331158Y-104440401D01*
G75*
G02*
X100587732Y-105196917I-749971J-6545D01*
G01*
X97687842Y-105222223D01*
G75*
G02*
X96931326Y-104478797I-6545J749971D01*
G01*
G37*
G04 #@! TD.AperFunction*
D14*
X90131200Y-113900000D03*
D15*
X95231200Y-115900000D03*
D13*
X91421200Y-107460000D03*
X115234000Y-107460000D03*
D15*
X119044000Y-115900000D03*
D14*
X113944000Y-113900000D03*
G04 #@! TA.AperFunction,ComponentPad*
G36*
G01*
X120744126Y-104478797D02*
X120744126Y-104478797D01*
G75*
G02*
X121487552Y-103722281I749971J6545D01*
G01*
X124387442Y-103696975D01*
G75*
G02*
X125143958Y-104440401I6545J-749971D01*
G01*
X125143958Y-104440401D01*
G75*
G02*
X124400532Y-105196917I-749971J-6545D01*
G01*
X121500642Y-105222223D01*
G75*
G02*
X120744126Y-104478797I-6545J749971D01*
G01*
G37*
G04 #@! TD.AperFunction*
D13*
X121584000Y-104920000D03*
X134284000Y-107460000D03*
D15*
X138094000Y-115900000D03*
D14*
X132994000Y-113900000D03*
G04 #@! TA.AperFunction,ComponentPad*
G36*
G01*
X139794126Y-104478797D02*
X139794126Y-104478797D01*
G75*
G02*
X140537552Y-103722281I749971J6545D01*
G01*
X143437442Y-103696975D01*
G75*
G02*
X144193958Y-104440401I6545J-749971D01*
G01*
X144193958Y-104440401D01*
G75*
G02*
X143450532Y-105196917I-749971J-6545D01*
G01*
X140550642Y-105222223D01*
G75*
G02*
X139794126Y-104478797I-6545J749971D01*
G01*
G37*
G04 #@! TD.AperFunction*
D13*
X140634000Y-104920000D03*
X164446000Y-104920000D03*
G04 #@! TA.AperFunction,ComponentPad*
G36*
G01*
X163606126Y-104478797D02*
X163606126Y-104478797D01*
G75*
G02*
X164349552Y-103722281I749971J6545D01*
G01*
X167249442Y-103696975D01*
G75*
G02*
X168005958Y-104440401I6545J-749971D01*
G01*
X168005958Y-104440401D01*
G75*
G02*
X167262532Y-105196917I-749971J-6545D01*
G01*
X164362642Y-105222223D01*
G75*
G02*
X163606126Y-104478797I-6545J749971D01*
G01*
G37*
G04 #@! TD.AperFunction*
D14*
X156806000Y-113900000D03*
D15*
X161906000Y-115900000D03*
D13*
X158096000Y-107460000D03*
X183496000Y-104920000D03*
G04 #@! TA.AperFunction,ComponentPad*
G36*
G01*
X182656126Y-104478797D02*
X182656126Y-104478797D01*
G75*
G02*
X183399552Y-103722281I749971J6545D01*
G01*
X186299442Y-103696975D01*
G75*
G02*
X187055958Y-104440401I6545J-749971D01*
G01*
X187055958Y-104440401D01*
G75*
G02*
X186312532Y-105196917I-749971J-6545D01*
G01*
X183412642Y-105222223D01*
G75*
G02*
X182656126Y-104478797I-6545J749971D01*
G01*
G37*
G04 #@! TD.AperFunction*
D14*
X175856000Y-113900000D03*
D15*
X180956000Y-115900000D03*
D13*
X177146000Y-107460000D03*
X200959000Y-107460000D03*
D15*
X204769000Y-115900000D03*
D14*
X199669000Y-113900000D03*
G04 #@! TA.AperFunction,ComponentPad*
G36*
G01*
X206469126Y-104478797D02*
X206469126Y-104478797D01*
G75*
G02*
X207212552Y-103722281I749971J6545D01*
G01*
X210112442Y-103696975D01*
G75*
G02*
X210868958Y-104440401I6545J-749971D01*
G01*
X210868958Y-104440401D01*
G75*
G02*
X210125532Y-105196917I-749971J-6545D01*
G01*
X207225642Y-105222223D01*
G75*
G02*
X206469126Y-104478797I-6545J749971D01*
G01*
G37*
G04 #@! TD.AperFunction*
D13*
X207309000Y-104920000D03*
X220009000Y-107460000D03*
D15*
X223819000Y-115900000D03*
D14*
X218719000Y-113900000D03*
G04 #@! TA.AperFunction,ComponentPad*
G36*
G01*
X225519126Y-104478797D02*
X225519126Y-104478797D01*
G75*
G02*
X226262552Y-103722281I749971J6545D01*
G01*
X229162442Y-103696975D01*
G75*
G02*
X229918958Y-104440401I6545J-749971D01*
G01*
X229918958Y-104440401D01*
G75*
G02*
X229175532Y-105196917I-749971J-6545D01*
G01*
X226275642Y-105222223D01*
G75*
G02*
X225519126Y-104478797I-6545J749971D01*
G01*
G37*
G04 #@! TD.AperFunction*
D13*
X226359000Y-104920000D03*
X250171000Y-104920000D03*
G04 #@! TA.AperFunction,ComponentPad*
G36*
G01*
X249331126Y-104478797D02*
X249331126Y-104478797D01*
G75*
G02*
X250074552Y-103722281I749971J6545D01*
G01*
X252974442Y-103696975D01*
G75*
G02*
X253730958Y-104440401I6545J-749971D01*
G01*
X253730958Y-104440401D01*
G75*
G02*
X252987532Y-105196917I-749971J-6545D01*
G01*
X250087642Y-105222223D01*
G75*
G02*
X249331126Y-104478797I-6545J749971D01*
G01*
G37*
G04 #@! TD.AperFunction*
D14*
X242531000Y-113900000D03*
D15*
X247631000Y-115900000D03*
D13*
X243821000Y-107460000D03*
X54908800Y-123970000D03*
G04 #@! TA.AperFunction,ComponentPad*
G36*
G01*
X54068926Y-123528797D02*
X54068926Y-123528797D01*
G75*
G02*
X54812352Y-122772281I749971J6545D01*
G01*
X57712242Y-122746975D01*
G75*
G02*
X58468758Y-123490401I6545J-749971D01*
G01*
X58468758Y-123490401D01*
G75*
G02*
X57725332Y-124246917I-749971J-6545D01*
G01*
X54825442Y-124272223D01*
G75*
G02*
X54068926Y-123528797I-6545J749971D01*
G01*
G37*
G04 #@! TD.AperFunction*
D14*
X47268800Y-132950000D03*
D15*
X52368800Y-134950000D03*
D13*
X48558800Y-126510000D03*
X67608800Y-126510000D03*
D15*
X71418800Y-134950000D03*
D14*
X66318800Y-132950000D03*
G04 #@! TA.AperFunction,ComponentPad*
G36*
G01*
X73118926Y-123528797D02*
X73118926Y-123528797D01*
G75*
G02*
X73862352Y-122772281I749971J6545D01*
G01*
X76762242Y-122746975D01*
G75*
G02*
X77518758Y-123490401I6545J-749971D01*
G01*
X77518758Y-123490401D01*
G75*
G02*
X76775332Y-124246917I-749971J-6545D01*
G01*
X73875442Y-124272223D01*
G75*
G02*
X73118926Y-123528797I-6545J749971D01*
G01*
G37*
G04 #@! TD.AperFunction*
D13*
X73958800Y-123970000D03*
X93008800Y-123970000D03*
G04 #@! TA.AperFunction,ComponentPad*
G36*
G01*
X92168926Y-123528797D02*
X92168926Y-123528797D01*
G75*
G02*
X92912352Y-122772281I749971J6545D01*
G01*
X95812242Y-122746975D01*
G75*
G02*
X96568758Y-123490401I6545J-749971D01*
G01*
X96568758Y-123490401D01*
G75*
G02*
X95825332Y-124246917I-749971J-6545D01*
G01*
X92925442Y-124272223D01*
G75*
G02*
X92168926Y-123528797I-6545J749971D01*
G01*
G37*
G04 #@! TD.AperFunction*
D14*
X85368800Y-132950000D03*
D15*
X90468800Y-134950000D03*
D13*
X86658800Y-126510000D03*
X105470000Y-126510000D03*
D15*
X109280000Y-134950000D03*
D14*
X104180000Y-132950000D03*
G04 #@! TA.AperFunction,ComponentPad*
G36*
G01*
X110980126Y-123528797D02*
X110980126Y-123528797D01*
G75*
G02*
X111723552Y-122772281I749971J6545D01*
G01*
X114623442Y-122746975D01*
G75*
G02*
X115379958Y-123490401I6545J-749971D01*
G01*
X115379958Y-123490401D01*
G75*
G02*
X114636532Y-124246917I-749971J-6545D01*
G01*
X111736642Y-124272223D01*
G75*
G02*
X110980126Y-123528797I-6545J749971D01*
G01*
G37*
G04 #@! TD.AperFunction*
D13*
X111820000Y-123970000D03*
X131109000Y-123970000D03*
G04 #@! TA.AperFunction,ComponentPad*
G36*
G01*
X130269126Y-123528797D02*
X130269126Y-123528797D01*
G75*
G02*
X131012552Y-122772281I749971J6545D01*
G01*
X133912442Y-122746975D01*
G75*
G02*
X134668958Y-123490401I6545J-749971D01*
G01*
X134668958Y-123490401D01*
G75*
G02*
X133925532Y-124246917I-749971J-6545D01*
G01*
X131025642Y-124272223D01*
G75*
G02*
X130269126Y-123528797I-6545J749971D01*
G01*
G37*
G04 #@! TD.AperFunction*
D14*
X123469000Y-132950000D03*
D15*
X128569000Y-134950000D03*
D13*
X124759000Y-126510000D03*
X167621000Y-126510000D03*
D15*
X171431000Y-134950000D03*
D14*
X166331000Y-132950000D03*
G04 #@! TA.AperFunction,ComponentPad*
G36*
G01*
X173131126Y-123528797D02*
X173131126Y-123528797D01*
G75*
G02*
X173874552Y-122772281I749971J6545D01*
G01*
X176774442Y-122746975D01*
G75*
G02*
X177530958Y-123490401I6545J-749971D01*
G01*
X177530958Y-123490401D01*
G75*
G02*
X176787532Y-124246917I-749971J-6545D01*
G01*
X173887642Y-124272223D01*
G75*
G02*
X173131126Y-123528797I-6545J749971D01*
G01*
G37*
G04 #@! TD.AperFunction*
D13*
X173971000Y-123970000D03*
X193021000Y-123970000D03*
G04 #@! TA.AperFunction,ComponentPad*
G36*
G01*
X192181126Y-123528797D02*
X192181126Y-123528797D01*
G75*
G02*
X192924552Y-122772281I749971J6545D01*
G01*
X195824442Y-122746975D01*
G75*
G02*
X196580958Y-123490401I6545J-749971D01*
G01*
X196580958Y-123490401D01*
G75*
G02*
X195837532Y-124246917I-749971J-6545D01*
G01*
X192937642Y-124272223D01*
G75*
G02*
X192181126Y-123528797I-6545J749971D01*
G01*
G37*
G04 #@! TD.AperFunction*
D14*
X185381000Y-132950000D03*
D15*
X190481000Y-134950000D03*
D13*
X186671000Y-126510000D03*
X205721000Y-126510000D03*
D15*
X209531000Y-134950000D03*
D14*
X204431000Y-132950000D03*
G04 #@! TA.AperFunction,ComponentPad*
G36*
G01*
X211231126Y-123528797D02*
X211231126Y-123528797D01*
G75*
G02*
X211974552Y-122772281I749971J6545D01*
G01*
X214874442Y-122746975D01*
G75*
G02*
X215630958Y-123490401I6545J-749971D01*
G01*
X215630958Y-123490401D01*
G75*
G02*
X214887532Y-124246917I-749971J-6545D01*
G01*
X211987642Y-124272223D01*
G75*
G02*
X211231126Y-123528797I-6545J749971D01*
G01*
G37*
G04 #@! TD.AperFunction*
D13*
X212071000Y-123970000D03*
X231121000Y-123970000D03*
G04 #@! TA.AperFunction,ComponentPad*
G36*
G01*
X230281126Y-123528797D02*
X230281126Y-123528797D01*
G75*
G02*
X231024552Y-122772281I749971J6545D01*
G01*
X233924442Y-122746975D01*
G75*
G02*
X234680958Y-123490401I6545J-749971D01*
G01*
X234680958Y-123490401D01*
G75*
G02*
X233937532Y-124246917I-749971J-6545D01*
G01*
X231037642Y-124272223D01*
G75*
G02*
X230281126Y-123528797I-6545J749971D01*
G01*
G37*
G04 #@! TD.AperFunction*
D14*
X223481000Y-132950000D03*
D15*
X228581000Y-134950000D03*
D13*
X224771000Y-126510000D03*
X243821000Y-126510000D03*
D15*
X247631000Y-134950000D03*
D14*
X242531000Y-132950000D03*
G04 #@! TA.AperFunction,ComponentPad*
G36*
G01*
X249331126Y-123528797D02*
X249331126Y-123528797D01*
G75*
G02*
X250074552Y-122772281I749971J6545D01*
G01*
X252974442Y-122746975D01*
G75*
G02*
X253730958Y-123490401I6545J-749971D01*
G01*
X253730958Y-123490401D01*
G75*
G02*
X252987532Y-124246917I-749971J-6545D01*
G01*
X250087642Y-124272223D01*
G75*
G02*
X249331126Y-123528797I-6545J749971D01*
G01*
G37*
G04 #@! TD.AperFunction*
D13*
X250171000Y-123970000D03*
X89040000Y-145560000D03*
D15*
X92850000Y-154000000D03*
D14*
X87750000Y-152000000D03*
G04 #@! TA.AperFunction,ComponentPad*
G36*
G01*
X94550126Y-142578797D02*
X94550126Y-142578797D01*
G75*
G02*
X95293552Y-141822281I749971J6545D01*
G01*
X98193442Y-141796975D01*
G75*
G02*
X98949958Y-142540401I6545J-749971D01*
G01*
X98949958Y-142540401D01*
G75*
G02*
X98206532Y-143296917I-749971J-6545D01*
G01*
X95306642Y-143322223D01*
G75*
G02*
X94550126Y-142578797I-6545J749971D01*
G01*
G37*
G04 #@! TD.AperFunction*
D13*
X95390000Y-143020000D03*
X116821000Y-143020000D03*
G04 #@! TA.AperFunction,ComponentPad*
G36*
G01*
X115981126Y-142578797D02*
X115981126Y-142578797D01*
G75*
G02*
X116724552Y-141822281I749971J6545D01*
G01*
X119624442Y-141796975D01*
G75*
G02*
X120380958Y-142540401I6545J-749971D01*
G01*
X120380958Y-142540401D01*
G75*
G02*
X119637532Y-143296917I-749971J-6545D01*
G01*
X116737642Y-143322223D01*
G75*
G02*
X115981126Y-142578797I-6545J749971D01*
G01*
G37*
G04 #@! TD.AperFunction*
D14*
X109181000Y-152000000D03*
D15*
X114281000Y-154000000D03*
D13*
X110471000Y-145560000D03*
X138252000Y-143020000D03*
G04 #@! TA.AperFunction,ComponentPad*
G36*
G01*
X137412126Y-142578797D02*
X137412126Y-142578797D01*
G75*
G02*
X138155552Y-141822281I749971J6545D01*
G01*
X141055442Y-141796975D01*
G75*
G02*
X141811958Y-142540401I6545J-749971D01*
G01*
X141811958Y-142540401D01*
G75*
G02*
X141068532Y-143296917I-749971J-6545D01*
G01*
X138168642Y-143322223D01*
G75*
G02*
X137412126Y-142578797I-6545J749971D01*
G01*
G37*
G04 #@! TD.AperFunction*
D14*
X130612000Y-152000000D03*
D15*
X135712000Y-154000000D03*
D13*
X131902000Y-145560000D03*
X146190000Y-126510000D03*
D15*
X150000000Y-134950000D03*
D14*
X144900000Y-132950000D03*
G04 #@! TA.AperFunction,ComponentPad*
G36*
G01*
X151700126Y-123528797D02*
X151700126Y-123528797D01*
G75*
G02*
X152443552Y-122772281I749971J6545D01*
G01*
X155343442Y-122746975D01*
G75*
G02*
X156099958Y-123490401I6545J-749971D01*
G01*
X156099958Y-123490401D01*
G75*
G02*
X155356532Y-124246917I-749971J-6545D01*
G01*
X152456642Y-124272223D01*
G75*
G02*
X151700126Y-123528797I-6545J749971D01*
G01*
G37*
G04 #@! TD.AperFunction*
D13*
X152540000Y-123970000D03*
X158096000Y-145560000D03*
D15*
X161906000Y-154000000D03*
D14*
X156806000Y-152000000D03*
G04 #@! TA.AperFunction,ComponentPad*
G36*
G01*
X163606126Y-142578797D02*
X163606126Y-142578797D01*
G75*
G02*
X164349552Y-141822281I749971J6545D01*
G01*
X167249442Y-141796975D01*
G75*
G02*
X168005958Y-142540401I6545J-749971D01*
G01*
X168005958Y-142540401D01*
G75*
G02*
X167262532Y-143296917I-749971J-6545D01*
G01*
X164362642Y-143322223D01*
G75*
G02*
X163606126Y-142578797I-6545J749971D01*
G01*
G37*
G04 #@! TD.AperFunction*
D13*
X164446000Y-143020000D03*
X190640000Y-143020000D03*
G04 #@! TA.AperFunction,ComponentPad*
G36*
G01*
X189800126Y-142578797D02*
X189800126Y-142578797D01*
G75*
G02*
X190543552Y-141822281I749971J6545D01*
G01*
X193443442Y-141796975D01*
G75*
G02*
X194199958Y-142540401I6545J-749971D01*
G01*
X194199958Y-142540401D01*
G75*
G02*
X193456532Y-143296917I-749971J-6545D01*
G01*
X190556642Y-143322223D01*
G75*
G02*
X189800126Y-142578797I-6545J749971D01*
G01*
G37*
G04 #@! TD.AperFunction*
D14*
X183000000Y-152000000D03*
D15*
X188100000Y-154000000D03*
D13*
X184290000Y-145560000D03*
X205721000Y-145560000D03*
D15*
X209531000Y-154000000D03*
D14*
X204431000Y-152000000D03*
G04 #@! TA.AperFunction,ComponentPad*
G36*
G01*
X211231126Y-142578797D02*
X211231126Y-142578797D01*
G75*
G02*
X211974552Y-141822281I749971J6545D01*
G01*
X214874442Y-141796975D01*
G75*
G02*
X215630958Y-142540401I6545J-749971D01*
G01*
X215630958Y-142540401D01*
G75*
G02*
X214887532Y-143296917I-749971J-6545D01*
G01*
X211987642Y-143322223D01*
G75*
G02*
X211231126Y-142578797I-6545J749971D01*
G01*
G37*
G04 #@! TD.AperFunction*
D13*
X212071000Y-143020000D03*
D16*
X47222000Y-155808600D03*
X49762000Y-155808600D03*
X52302000Y-155808600D03*
X54842000Y-155808600D03*
X57382000Y-155808600D03*
X59922000Y-155808600D03*
X62462000Y-155808600D03*
X65002000Y-155808600D03*
X67542000Y-155808600D03*
X70082000Y-155808600D03*
X72622000Y-155808600D03*
X75162000Y-155808600D03*
X75162000Y-140588600D03*
X72622000Y-140588600D03*
X70082000Y-140588600D03*
X67542000Y-140588600D03*
X65002000Y-140588600D03*
X62462000Y-140588600D03*
X59922000Y-140588600D03*
X57382000Y-140588600D03*
X54842000Y-140588600D03*
X52302000Y-140588600D03*
X49762000Y-140588600D03*
X47222000Y-140588600D03*
D11*
X146750000Y-65700000D03*
X153250000Y-65700000D03*
D17*
X62972900Y-139047800D03*
X147275900Y-74750600D03*
X115826800Y-135970500D03*
D18*
X57368800Y-66350000D02*
X55378800Y-66350000D01*
X55378800Y-66350000D02*
X54908800Y-66820000D01*
X73958800Y-66820000D02*
X75948800Y-66820000D01*
X75948800Y-66820000D02*
X76418800Y-66350000D01*
X95468800Y-66350000D02*
X93478800Y-66350000D01*
X93478800Y-66350000D02*
X93008800Y-66820000D01*
X116821000Y-66820000D02*
X118811000Y-66820000D01*
X118811000Y-66820000D02*
X119281000Y-66350000D01*
X138331000Y-66350000D02*
X136341000Y-66350000D01*
X136341000Y-66350000D02*
X135871000Y-66820000D01*
X171669000Y-66350000D02*
X169679000Y-66350000D01*
X169679000Y-66350000D02*
X169209000Y-66820000D01*
X188259000Y-66820000D02*
X190249000Y-66820000D01*
X190249000Y-66820000D02*
X190719000Y-66350000D01*
X212071000Y-66820000D02*
X214061000Y-66820000D01*
X214061000Y-66820000D02*
X214531000Y-66350000D01*
X233581000Y-66350000D02*
X231591000Y-66350000D01*
X231591000Y-66350000D02*
X231121000Y-66820000D01*
X250171000Y-66820000D02*
X252161000Y-66820000D01*
X252161000Y-66820000D02*
X252631000Y-66350000D01*
X54908800Y-85870000D02*
X56898800Y-85870000D01*
X56898800Y-85870000D02*
X57368800Y-85400000D01*
X78721200Y-85870000D02*
X80711200Y-85870000D01*
X80711200Y-85870000D02*
X81181200Y-85400000D01*
X100231200Y-85400000D02*
X98241200Y-85400000D01*
X98241200Y-85400000D02*
X97771200Y-85870000D01*
X124044000Y-85400000D02*
X122054000Y-85400000D01*
X122054000Y-85400000D02*
X121584000Y-85870000D01*
X143094000Y-85400000D02*
X141104000Y-85400000D01*
X141104000Y-85400000D02*
X140634000Y-85870000D01*
X164446000Y-85870000D02*
X166436000Y-85870000D01*
X166436000Y-85870000D02*
X166906000Y-85400000D01*
X183496000Y-85870000D02*
X185486000Y-85870000D01*
X185486000Y-85870000D02*
X185956000Y-85400000D01*
X209769000Y-85400000D02*
X207779000Y-85400000D01*
X207779000Y-85400000D02*
X207309000Y-85870000D01*
X228819000Y-85400000D02*
X226829000Y-85400000D01*
X226829000Y-85400000D02*
X226359000Y-85870000D01*
X250171000Y-85870000D02*
X252161000Y-85870000D01*
X252161000Y-85870000D02*
X252631000Y-85400000D01*
X54908800Y-104920000D02*
X56898800Y-104920000D01*
X56898800Y-104920000D02*
X57368800Y-104450000D01*
X78721200Y-104920000D02*
X80711200Y-104920000D01*
X80711200Y-104920000D02*
X81181200Y-104450000D01*
X100231200Y-104450000D02*
X98241200Y-104450000D01*
X98241200Y-104450000D02*
X97771200Y-104920000D01*
X121584000Y-104920000D02*
X123574000Y-104920000D01*
X123574000Y-104920000D02*
X124044000Y-104450000D01*
X140634000Y-104920000D02*
X142624000Y-104920000D01*
X142624000Y-104920000D02*
X143094000Y-104450000D01*
X166906000Y-104450000D02*
X164916000Y-104450000D01*
X164916000Y-104450000D02*
X164446000Y-104920000D01*
X185956000Y-104450000D02*
X183966000Y-104450000D01*
X183966000Y-104450000D02*
X183496000Y-104920000D01*
X207309000Y-104920000D02*
X209299000Y-104920000D01*
X209299000Y-104920000D02*
X209769000Y-104450000D01*
X226359000Y-104920000D02*
X228349000Y-104920000D01*
X228349000Y-104920000D02*
X228819000Y-104450000D01*
X252631000Y-104450000D02*
X250641000Y-104450000D01*
X250641000Y-104450000D02*
X250171000Y-104920000D01*
X70082000Y-140588600D02*
X68541200Y-139047800D01*
X68541200Y-139047800D02*
X62972900Y-139047800D01*
X57368800Y-123500000D02*
X55378800Y-123500000D01*
X55378800Y-123500000D02*
X54908800Y-123970000D01*
X95468800Y-123500000D02*
X93478800Y-123500000D01*
X93478800Y-123500000D02*
X93008800Y-123970000D01*
X111820000Y-123970000D02*
X113810000Y-123970000D01*
X113810000Y-123970000D02*
X114280000Y-123500000D01*
X133569000Y-123500000D02*
X131579000Y-123500000D01*
X131579000Y-123500000D02*
X131109000Y-123970000D01*
X173971000Y-123970000D02*
X175961000Y-123970000D01*
X175961000Y-123970000D02*
X176431000Y-123500000D01*
X195481000Y-123500000D02*
X193491000Y-123500000D01*
X193491000Y-123500000D02*
X193021000Y-123970000D01*
X212071000Y-123970000D02*
X214061000Y-123970000D01*
X214061000Y-123970000D02*
X214531000Y-123500000D01*
X233581000Y-123500000D02*
X231591000Y-123500000D01*
X231591000Y-123500000D02*
X231121000Y-123970000D01*
X250171000Y-123970000D02*
X252161000Y-123970000D01*
X252161000Y-123970000D02*
X252631000Y-123500000D01*
X95390000Y-143020000D02*
X97380000Y-143020000D01*
X97380000Y-143020000D02*
X97850000Y-142550000D01*
X119281000Y-142550000D02*
X117291000Y-142550000D01*
X117291000Y-142550000D02*
X116821000Y-143020000D01*
X140712000Y-142550000D02*
X138722000Y-142550000D01*
X138722000Y-142550000D02*
X138252000Y-143020000D01*
X152540000Y-123970000D02*
X154530000Y-123970000D01*
X154530000Y-123970000D02*
X155000000Y-123500000D01*
X164446000Y-143020000D02*
X166436000Y-143020000D01*
X166436000Y-143020000D02*
X166906000Y-142550000D01*
X193100000Y-142550000D02*
X191110000Y-142550000D01*
X191110000Y-142550000D02*
X190640000Y-143020000D01*
X212071000Y-143020000D02*
X214061000Y-143020000D01*
X214061000Y-143020000D02*
X214531000Y-142550000D01*
X204992999Y-150875001D02*
X219144999Y-150875001D01*
X200992997Y-146874999D02*
X204992999Y-150875001D01*
X183557999Y-144034999D02*
X189397997Y-144034999D01*
X182764999Y-144827999D02*
X183557999Y-144034999D01*
X163996997Y-144827999D02*
X182764999Y-144827999D01*
X163203997Y-144034999D02*
X163996997Y-144827999D01*
X156570999Y-144827999D02*
X157363999Y-144034999D01*
X137802997Y-144827999D02*
X156570999Y-144827999D01*
X136974998Y-144000000D02*
X137802997Y-144827999D01*
X157363999Y-144034999D02*
X163203997Y-144034999D01*
X131204998Y-144000000D02*
X136974998Y-144000000D01*
X116088999Y-144545001D02*
X130659997Y-144545001D01*
X192237997Y-146874999D02*
X200992997Y-146874999D01*
X115543998Y-144000000D02*
X116088999Y-144545001D01*
X130659997Y-144545001D02*
X131204998Y-144000000D01*
X109228997Y-144545001D02*
X109773998Y-144000000D01*
X189397997Y-144034999D02*
X192237997Y-146874999D01*
X94657999Y-144545001D02*
X109228997Y-144545001D01*
X94112998Y-144000000D02*
X94657999Y-144545001D01*
X88342998Y-144000000D02*
X94112998Y-144000000D01*
X87766588Y-144576410D02*
X88342998Y-144000000D01*
X219144999Y-150875001D02*
X220500000Y-149520000D01*
X66074190Y-144576410D02*
X87766588Y-144576410D01*
X109773998Y-144000000D02*
X115543998Y-144000000D01*
X54842000Y-155808600D02*
X66074190Y-144576410D01*
X47222000Y-140588600D02*
X51111400Y-136699200D01*
X51111400Y-136699200D02*
X54667400Y-136699200D01*
X54667400Y-136699200D02*
X71788800Y-119577800D01*
X71788800Y-119577800D02*
X82235700Y-119577800D01*
X82235700Y-119577800D02*
X91731900Y-110081600D01*
X91731900Y-110081600D02*
X91731900Y-109574300D01*
X91731900Y-109574300D02*
X94792200Y-106514000D01*
X94792200Y-106514000D02*
X100062300Y-106514000D01*
X100062300Y-106514000D02*
X115544700Y-91031600D01*
X115544700Y-91031600D02*
X115544700Y-90524300D01*
X115544700Y-90524300D02*
X119043700Y-87025300D01*
X119043700Y-87025300D02*
X119043700Y-83052900D01*
X119043700Y-83052900D02*
X127456600Y-74640000D01*
X127456600Y-74640000D02*
X132041900Y-74640000D01*
X132041900Y-74640000D02*
X132152500Y-74750600D01*
X132152500Y-74750600D02*
X147275900Y-74750600D01*
X50092200Y-142798400D02*
X52302000Y-140588600D01*
X50092200Y-155808600D02*
X50092200Y-142798400D01*
X50092200Y-142798400D02*
X47868900Y-142798400D01*
X47868900Y-142798400D02*
X46094500Y-141024000D01*
X46094500Y-141024000D02*
X46094500Y-139249400D01*
X46094500Y-139249400D02*
X56186700Y-129157200D01*
X56186700Y-129157200D02*
X56186700Y-127368800D01*
X56186700Y-127368800D02*
X64250000Y-119305500D01*
X64250000Y-119305500D02*
X64250000Y-117250000D01*
X54842000Y-140588600D02*
X52302000Y-140588600D01*
X107000000Y-140750000D02*
X81011000Y-140750000D01*
X81011000Y-140750000D02*
X77634600Y-144126400D01*
X77634600Y-144126400D02*
X64986400Y-144126400D01*
X64986400Y-144126400D02*
X53393500Y-155719300D01*
X53393500Y-155719300D02*
X53393500Y-156305300D01*
X53393500Y-156305300D02*
X52798800Y-156900000D01*
X52798800Y-156900000D02*
X51183600Y-156900000D01*
X51183600Y-156900000D02*
X50092200Y-155808600D01*
X50092200Y-155808600D02*
X49762000Y-155808600D01*
X150000000Y-117250000D02*
X134223000Y-133027000D01*
X134223000Y-133027000D02*
X125952000Y-133027000D01*
X125952000Y-133027000D02*
X123008500Y-135970500D01*
X123008500Y-135970500D02*
X115826800Y-135970500D01*
X153357500Y-111654100D02*
X150000000Y-115011600D01*
X150000000Y-115011600D02*
X150000000Y-117250000D01*
X153357500Y-111654100D02*
X156482100Y-111654100D01*
X156482100Y-111654100D02*
X159059900Y-114231900D01*
X159059900Y-114231900D02*
X159059900Y-114936600D01*
X159059900Y-114936600D02*
X169618700Y-125495400D01*
X169618700Y-125495400D02*
X179626200Y-125495400D01*
X179626200Y-125495400D02*
X185026100Y-130895300D01*
X185026100Y-130895300D02*
X188297200Y-130895300D01*
X188297200Y-130895300D02*
X193438700Y-136036800D01*
X193438700Y-136036800D02*
X222934500Y-136036800D01*
X150000000Y-83500000D02*
X150000000Y-108296600D01*
X150000000Y-108296600D02*
X153357500Y-111654100D01*
X235750000Y-117250000D02*
X235750000Y-83750000D01*
X222934500Y-136036800D02*
X225369100Y-133602200D01*
X225369100Y-133602200D02*
X225369100Y-128203000D01*
X225369100Y-128203000D02*
X228105400Y-125466700D01*
X228105400Y-125466700D02*
X228105400Y-124828400D01*
X228105400Y-124828400D02*
X235683800Y-117250000D01*
X235683800Y-117250000D02*
X235750000Y-117250000D01*
X222934500Y-136036800D02*
X222934500Y-149625500D01*
X222934500Y-149625500D02*
X220500000Y-152060000D01*
X146750000Y-73038800D02*
X153250000Y-73038800D01*
X64250000Y-83750000D02*
X64250000Y-117250000D01*
X220500000Y-144440000D02*
X213537400Y-137477400D01*
X213537400Y-137477400D02*
X60493200Y-137477400D01*
X60493200Y-137477400D02*
X57382000Y-140588600D01*
X220500000Y-146980000D02*
X218909100Y-145389100D01*
X218909100Y-145389100D02*
X211607200Y-145389100D01*
X211607200Y-145389100D02*
X204184500Y-137966400D01*
X204184500Y-137966400D02*
X62544200Y-137966400D01*
X62544200Y-137966400D02*
X59922000Y-140588600D01*
X71081200Y-107460000D02*
X71081200Y-94850000D01*
X71081200Y-112774700D02*
X69429500Y-111123000D01*
X69429500Y-111123000D02*
X69429500Y-109111700D01*
X69429500Y-109111700D02*
X71081200Y-107460000D01*
X71081200Y-107460000D02*
X72371200Y-107460000D01*
X71081200Y-113900000D02*
X71081200Y-112774700D01*
X70679000Y-88410000D02*
X70679000Y-81285500D01*
X70679000Y-81285500D02*
X66318800Y-76925300D01*
X71081200Y-93724700D02*
X69429500Y-92073000D01*
X69429500Y-92073000D02*
X69429500Y-89659500D01*
X69429500Y-89659500D02*
X70679000Y-88410000D01*
X70679000Y-88410000D02*
X72371200Y-88410000D01*
X66318800Y-75800000D02*
X66318800Y-76925300D01*
X71081200Y-94850000D02*
X71081200Y-93724700D01*
X90499800Y-88410000D02*
X91421200Y-88410000D01*
X90131200Y-93724700D02*
X88454600Y-92048100D01*
X88454600Y-92048100D02*
X88454600Y-90455200D01*
X88454600Y-90455200D02*
X90499800Y-88410000D01*
X90499800Y-88410000D02*
X85368800Y-83279000D01*
X85368800Y-83279000D02*
X85368800Y-75800000D01*
X90131200Y-94850000D02*
X90131200Y-93724700D01*
X85368800Y-132950000D02*
X85368800Y-131824700D01*
X85368800Y-131824700D02*
X83702300Y-130158200D01*
X83702300Y-130158200D02*
X83702300Y-128553700D01*
X83702300Y-128553700D02*
X85746000Y-126510000D01*
X85746000Y-126510000D02*
X86658800Y-126510000D01*
X59922000Y-155808600D02*
X61011200Y-156897800D01*
X61011200Y-156897800D02*
X65475900Y-156897800D01*
X65475900Y-156897800D02*
X66272000Y-156101700D01*
X66272000Y-156101700D02*
X66272000Y-155522800D01*
X66272000Y-155522800D02*
X69794800Y-152000000D01*
X69794800Y-152000000D02*
X87750000Y-152000000D01*
X86658800Y-126510000D02*
X86658800Y-118497700D01*
X86658800Y-118497700D02*
X90131200Y-115025300D01*
X90131200Y-113900000D02*
X90131200Y-115025300D01*
X109181000Y-152000000D02*
X90813400Y-152000000D01*
X90813400Y-152000000D02*
X89232400Y-150419000D01*
X89232400Y-150419000D02*
X67851600Y-150419000D01*
X67851600Y-150419000D02*
X62462000Y-155808600D01*
X113944000Y-94850000D02*
X113944000Y-95975300D01*
X115234000Y-107460000D02*
X115234000Y-97265300D01*
X115234000Y-97265300D02*
X113944000Y-95975300D01*
X115234000Y-88410000D02*
X109181000Y-82357000D01*
X109181000Y-82357000D02*
X109181000Y-75800000D01*
X113944000Y-113900000D02*
X113944000Y-115025300D01*
X105470000Y-126510000D02*
X105470000Y-123499300D01*
X105470000Y-123499300D02*
X113944000Y-115025300D01*
X65002000Y-155808600D02*
X69936000Y-150874600D01*
X69936000Y-150874600D02*
X88781200Y-150874600D01*
X88781200Y-150874600D02*
X90357000Y-152450400D01*
X90357000Y-152450400D02*
X104830200Y-152450400D01*
X104830200Y-152450400D02*
X105529700Y-153149900D01*
X105529700Y-153149900D02*
X110062800Y-153149900D01*
X110062800Y-153149900D02*
X111212700Y-152000000D01*
X111212700Y-152000000D02*
X130612000Y-152000000D01*
X128231000Y-75800000D02*
X128231000Y-76925300D01*
X134284000Y-88410000D02*
X134284000Y-82978300D01*
X134284000Y-82978300D02*
X128231000Y-76925300D01*
X132994000Y-94850000D02*
X132994000Y-95975300D01*
X134284000Y-107460000D02*
X134284000Y-97265300D01*
X134284000Y-97265300D02*
X132994000Y-95975300D01*
X130612000Y-152000000D02*
X130612000Y-150874700D01*
X131902000Y-145560000D02*
X131902000Y-149584700D01*
X131902000Y-149584700D02*
X130612000Y-150874700D01*
X132994000Y-113900000D02*
X132994000Y-115025300D01*
X124759000Y-126510000D02*
X124759000Y-123260300D01*
X124759000Y-123260300D02*
X132994000Y-115025300D01*
X158096000Y-107460000D02*
X156806000Y-106170000D01*
X156806000Y-106170000D02*
X156806000Y-94850000D01*
X161569000Y-75800000D02*
X161569000Y-76925300D01*
X158096000Y-88410000D02*
X158096000Y-80398300D01*
X158096000Y-80398300D02*
X161569000Y-76925300D01*
X156806000Y-118068100D02*
X159179100Y-118068100D01*
X159179100Y-118068100D02*
X167621000Y-126510000D01*
X146190000Y-126510000D02*
X154631900Y-118068100D01*
X154631900Y-118068100D02*
X156806000Y-118068100D01*
X156806000Y-118068100D02*
X156806000Y-113900000D01*
X70082000Y-155808600D02*
X72765200Y-153125400D01*
X72765200Y-153125400D02*
X91674400Y-153125400D01*
X91674400Y-153125400D02*
X91898400Y-152901400D01*
X91898400Y-152901400D02*
X104644300Y-152901400D01*
X104644300Y-152901400D02*
X105343100Y-153600200D01*
X105343100Y-153600200D02*
X110567600Y-153600200D01*
X110567600Y-153600200D02*
X111266400Y-152901400D01*
X111266400Y-152901400D02*
X129332600Y-152901400D01*
X129332600Y-152901400D02*
X129564200Y-153133000D01*
X129564200Y-153133000D02*
X134604100Y-153133000D01*
X134604100Y-153133000D02*
X135737100Y-152000000D01*
X135737100Y-152000000D02*
X155149300Y-152000000D01*
X155149300Y-152000000D02*
X156806000Y-152000000D01*
X155149300Y-152000000D02*
X155149300Y-147617000D01*
X155149300Y-147617000D02*
X157206300Y-145560000D01*
X157206300Y-145560000D02*
X158096000Y-145560000D01*
X180619000Y-75800000D02*
X180619000Y-76925300D01*
X177146000Y-88410000D02*
X177146000Y-80398300D01*
X177146000Y-80398300D02*
X180619000Y-76925300D01*
X175856000Y-94850000D02*
X175856000Y-95975300D01*
X177146000Y-107460000D02*
X177146000Y-97265300D01*
X177146000Y-97265300D02*
X175856000Y-95975300D01*
X175856000Y-113900000D02*
X175856000Y-115695000D01*
X175856000Y-115695000D02*
X186671000Y-126510000D01*
X183000000Y-153125300D02*
X181046400Y-155078900D01*
X181046400Y-155078900D02*
X81346000Y-155078900D01*
X81346000Y-155078900D02*
X79886900Y-153619800D01*
X79886900Y-153619800D02*
X74810800Y-153619800D01*
X74810800Y-153619800D02*
X72622000Y-155808600D01*
X205721000Y-126510000D02*
X199669000Y-120458000D01*
X199669000Y-120458000D02*
X199669000Y-113900000D01*
X204431000Y-75800000D02*
X204431000Y-76925300D01*
X200959000Y-88410000D02*
X200959000Y-80397300D01*
X200959000Y-80397300D02*
X204431000Y-76925300D01*
X200959000Y-107460000D02*
X199669000Y-106170000D01*
X199669000Y-106170000D02*
X199669000Y-94850000D01*
X183000000Y-152000000D02*
X183000000Y-153125300D01*
X204431000Y-152000000D02*
X204431000Y-153125300D01*
X75162000Y-155808600D02*
X76900400Y-154070200D01*
X76900400Y-154070200D02*
X79104700Y-154070200D01*
X79104700Y-154070200D02*
X80606100Y-155571600D01*
X80606100Y-155571600D02*
X201984700Y-155571600D01*
X201984700Y-155571600D02*
X204431000Y-153125300D01*
X220009000Y-107460000D02*
X218719000Y-106170000D01*
X218719000Y-106170000D02*
X218719000Y-94850000D01*
X223481000Y-75800000D02*
X223481000Y-76925300D01*
X220009000Y-88410000D02*
X220009000Y-80397300D01*
X220009000Y-80397300D02*
X223481000Y-76925300D01*
X224771000Y-126510000D02*
X218719000Y-120458000D01*
X218719000Y-120458000D02*
X218719000Y-113900000D01*
X75162000Y-140588600D02*
X77333800Y-138416800D01*
X77333800Y-138416800D02*
X203772900Y-138416800D01*
X203772900Y-138416800D02*
X211907200Y-146551100D01*
X211907200Y-146551100D02*
X217837100Y-146551100D01*
X217837100Y-146551100D02*
X219536000Y-148250000D01*
X219536000Y-148250000D02*
X220679500Y-148250000D01*
X220679500Y-148250000D02*
X221524000Y-149094500D01*
X221524000Y-149094500D02*
X221524000Y-149944100D01*
X221524000Y-149944100D02*
X220865900Y-150602200D01*
X220865900Y-150602200D02*
X220500100Y-150602200D01*
X220500100Y-150602200D02*
X219436700Y-151665600D01*
X219436700Y-151665600D02*
X219436700Y-152446000D01*
X219436700Y-152446000D02*
X220110800Y-153120100D01*
X220110800Y-153120100D02*
X223486200Y-153120100D01*
X223486200Y-153120100D02*
X242531000Y-134075300D01*
X242531000Y-94850000D02*
X242531000Y-93724700D01*
X242531000Y-93724700D02*
X240879300Y-92073000D01*
X240879300Y-92073000D02*
X240879300Y-90429400D01*
X240879300Y-90429400D02*
X242898700Y-88410000D01*
X242898700Y-88410000D02*
X243821000Y-88410000D01*
X243821000Y-126510000D02*
X242531000Y-125220000D01*
X242531000Y-125220000D02*
X242531000Y-113900000D01*
X242531000Y-132950000D02*
X242531000Y-134075300D01*
X243821000Y-88410000D02*
X242531000Y-87120000D01*
X242531000Y-87120000D02*
X242531000Y-75800000D01*
X153250000Y-68538800D02*
X154615800Y-69904600D01*
X154615800Y-69904600D02*
X154615800Y-75862600D01*
X154615800Y-75862600D02*
X150136400Y-80342000D01*
X150136400Y-80342000D02*
X143952700Y-80342000D01*
X143952700Y-80342000D02*
X136189700Y-88105000D01*
X136189700Y-88105000D02*
X136189700Y-88795500D01*
X136189700Y-88795500D02*
X134673500Y-90311700D01*
X134673500Y-90311700D02*
X134673500Y-91037100D01*
X134673500Y-91037100D02*
X122545100Y-103165500D01*
X122545100Y-103165500D02*
X121167900Y-103165500D01*
X121167900Y-103165500D02*
X117139700Y-107193700D01*
X117139700Y-107193700D02*
X117139700Y-107845500D01*
X117139700Y-107845500D02*
X115226100Y-109759100D01*
X115226100Y-109759100D02*
X115226100Y-110484500D01*
X115226100Y-110484500D02*
X100215200Y-125495400D01*
X100215200Y-125495400D02*
X97441200Y-125495400D01*
X97441200Y-125495400D02*
X93968200Y-128968400D01*
X93968200Y-128968400D02*
X93968200Y-129503300D01*
X93968200Y-129503300D02*
X87397600Y-136073900D01*
X87397600Y-136073900D02*
X60350700Y-136073900D01*
X60350700Y-136073900D02*
X55990400Y-140434200D01*
X55990400Y-140434200D02*
X55990400Y-152120200D01*
X55990400Y-152120200D02*
X52302000Y-155808600D01*
X146750000Y-68538800D02*
X153250000Y-68538800D01*
M02*
