G04 #@! TF.GenerationSoftware,KiCad,Pcbnew,(5.1.9)-1*
G04 #@! TF.CreationDate,2021-01-19T21:28:49+09:00*
G04 #@! TF.ProjectId,yuiop47,7975696f-7034-4372-9e6b-696361645f70,1*
G04 #@! TF.SameCoordinates,Original*
G04 #@! TF.FileFunction,Legend,Top*
G04 #@! TF.FilePolarity,Positive*
%FSLAX46Y46*%
G04 Gerber Fmt 4.6, Leading zero omitted, Abs format (unit mm)*
G04 Created by KiCad (PCBNEW (5.1.9)-1) date 2021-01-19 21:28:49*
%MOMM*%
%LPD*%
G01*
G04 APERTURE LIST*
%ADD10C,0.150000*%
%ADD11C,0.125000*%
G04 APERTURE END LIST*
D10*
X153250000Y-68538800D02*
X146750000Y-68538800D01*
X146750000Y-73038800D02*
X153250000Y-73038800D01*
X153250000Y-73038800D02*
X153250000Y-68538800D01*
X146750000Y-68538800D02*
X146750000Y-73038800D01*
X76300000Y-139450000D02*
X76300000Y-140310000D01*
X76300000Y-156950000D02*
X76300000Y-156100000D01*
X75450000Y-139450000D02*
X76300000Y-139450000D01*
X75400000Y-156950000D02*
X76300000Y-156950000D01*
X46100000Y-139450000D02*
X46100000Y-140250000D01*
X46100000Y-156950000D02*
X46100000Y-156100000D01*
X46100000Y-139450000D02*
X46950000Y-139450000D01*
X46100000Y-156950000D02*
X46950000Y-156950000D01*
X40500000Y-151950000D02*
X41800000Y-151950000D01*
X41800000Y-151950000D02*
X41800000Y-144450000D01*
X41800000Y-144450000D02*
X40500000Y-144450000D01*
X40500000Y-144450000D02*
X40500000Y-151950000D01*
X40850000Y-148700000D02*
X40850000Y-147700000D01*
X40850000Y-147700000D02*
X41500000Y-148200000D01*
X41500000Y-148200000D02*
X40850000Y-148700000D01*
X41000000Y-148550000D02*
X41000000Y-147850000D01*
X41150000Y-148450000D02*
X41150000Y-147950000D01*
X41300000Y-148350000D02*
X41300000Y-148050000D01*
X147150000Y-67300000D02*
X147150000Y-67050000D01*
X152850000Y-67300000D02*
X147150000Y-67300000D01*
X152850000Y-67300000D02*
X152850000Y-67050000D01*
X152850000Y-64100000D02*
X152850000Y-64350000D01*
X147150000Y-64100000D02*
X147150000Y-64350000D01*
X152850000Y-64100000D02*
X147150000Y-64100000D01*
X148547619Y-71241180D02*
X148214285Y-70764990D01*
X147976190Y-71241180D02*
X147976190Y-70241180D01*
X148357142Y-70241180D01*
X148452380Y-70288800D01*
X148500000Y-70336419D01*
X148547619Y-70431657D01*
X148547619Y-70574514D01*
X148500000Y-70669752D01*
X148452380Y-70717371D01*
X148357142Y-70764990D01*
X147976190Y-70764990D01*
X148976190Y-70717371D02*
X149309523Y-70717371D01*
X149452380Y-71241180D02*
X148976190Y-71241180D01*
X148976190Y-70241180D01*
X149452380Y-70241180D01*
X149833333Y-71193561D02*
X149976190Y-71241180D01*
X150214285Y-71241180D01*
X150309523Y-71193561D01*
X150357142Y-71145942D01*
X150404761Y-71050704D01*
X150404761Y-70955466D01*
X150357142Y-70860228D01*
X150309523Y-70812609D01*
X150214285Y-70764990D01*
X150023809Y-70717371D01*
X149928571Y-70669752D01*
X149880952Y-70622133D01*
X149833333Y-70526895D01*
X149833333Y-70431657D01*
X149880952Y-70336419D01*
X149928571Y-70288800D01*
X150023809Y-70241180D01*
X150261904Y-70241180D01*
X150404761Y-70288800D01*
X150833333Y-70717371D02*
X151166666Y-70717371D01*
X151309523Y-71241180D02*
X150833333Y-71241180D01*
X150833333Y-70241180D01*
X151309523Y-70241180D01*
X151595238Y-70241180D02*
X152166666Y-70241180D01*
X151880952Y-71241180D02*
X151880952Y-70241180D01*
X221502380Y-149702380D02*
X221502380Y-149511904D01*
X221550000Y-149416666D01*
X221645238Y-149321428D01*
X221835714Y-149273809D01*
X222169047Y-149273809D01*
X222359523Y-149321428D01*
X222454761Y-149416666D01*
X222502380Y-149511904D01*
X222502380Y-149702380D01*
X222454761Y-149797619D01*
X222359523Y-149892857D01*
X222169047Y-149940476D01*
X221835714Y-149940476D01*
X221645238Y-149892857D01*
X221550000Y-149797619D01*
X221502380Y-149702380D01*
X222502380Y-148369047D02*
X222502380Y-148845238D01*
X221502380Y-148845238D01*
X221978571Y-148035714D02*
X221978571Y-147702380D01*
X222502380Y-147559523D02*
X222502380Y-148035714D01*
X221502380Y-148035714D01*
X221502380Y-147559523D01*
X222502380Y-147130952D02*
X221502380Y-147130952D01*
X221502380Y-146892857D01*
X221550000Y-146750000D01*
X221645238Y-146654761D01*
X221740476Y-146607142D01*
X221930952Y-146559523D01*
X222073809Y-146559523D01*
X222264285Y-146607142D01*
X222359523Y-146654761D01*
X222454761Y-146750000D01*
X222502380Y-146892857D01*
X222502380Y-147130952D01*
D11*
X47539285Y-153657619D02*
X47182142Y-153880952D01*
X47539285Y-154040476D02*
X46789285Y-154040476D01*
X46789285Y-153785238D01*
X46825000Y-153721428D01*
X46860714Y-153689523D01*
X46932142Y-153657619D01*
X47039285Y-153657619D01*
X47110714Y-153689523D01*
X47146428Y-153721428D01*
X47182142Y-153785238D01*
X47182142Y-154040476D01*
X47325000Y-153402380D02*
X47325000Y-153083333D01*
X47539285Y-153466190D02*
X46789285Y-153242857D01*
X47539285Y-153019523D01*
X46789285Y-152860000D02*
X47539285Y-152700476D01*
X47003571Y-152572857D01*
X47539285Y-152445238D01*
X46789285Y-152285714D01*
X49375000Y-153705476D02*
X49339285Y-153769285D01*
X49339285Y-153865000D01*
X49375000Y-153960714D01*
X49446428Y-154024523D01*
X49517857Y-154056428D01*
X49660714Y-154088333D01*
X49767857Y-154088333D01*
X49910714Y-154056428D01*
X49982142Y-154024523D01*
X50053571Y-153960714D01*
X50089285Y-153865000D01*
X50089285Y-153801190D01*
X50053571Y-153705476D01*
X50017857Y-153673571D01*
X49767857Y-153673571D01*
X49767857Y-153801190D01*
X50089285Y-153386428D02*
X49339285Y-153386428D01*
X50089285Y-153003571D01*
X49339285Y-153003571D01*
X50089285Y-152684523D02*
X49339285Y-152684523D01*
X49339285Y-152525000D01*
X49375000Y-152429285D01*
X49446428Y-152365476D01*
X49517857Y-152333571D01*
X49660714Y-152301666D01*
X49767857Y-152301666D01*
X49910714Y-152333571D01*
X49982142Y-152365476D01*
X50053571Y-152429285D01*
X50089285Y-152525000D01*
X50089285Y-152684523D01*
X52639285Y-153561904D02*
X52282142Y-153785238D01*
X52639285Y-153944761D02*
X51889285Y-153944761D01*
X51889285Y-153689523D01*
X51925000Y-153625714D01*
X51960714Y-153593809D01*
X52032142Y-153561904D01*
X52139285Y-153561904D01*
X52210714Y-153593809D01*
X52246428Y-153625714D01*
X52282142Y-153689523D01*
X52282142Y-153944761D01*
X52603571Y-153306666D02*
X52639285Y-153210952D01*
X52639285Y-153051428D01*
X52603571Y-152987619D01*
X52567857Y-152955714D01*
X52496428Y-152923809D01*
X52425000Y-152923809D01*
X52353571Y-152955714D01*
X52317857Y-152987619D01*
X52282142Y-153051428D01*
X52246428Y-153179047D01*
X52210714Y-153242857D01*
X52175000Y-153274761D01*
X52103571Y-153306666D01*
X52032142Y-153306666D01*
X51960714Y-153274761D01*
X51925000Y-153242857D01*
X51889285Y-153179047D01*
X51889285Y-153019523D01*
X51925000Y-152923809D01*
X51889285Y-152732380D02*
X51889285Y-152349523D01*
X52639285Y-152540952D02*
X51889285Y-152540952D01*
X54339285Y-154088333D02*
X55089285Y-153865000D01*
X54339285Y-153641666D01*
X55017857Y-153035476D02*
X55053571Y-153067380D01*
X55089285Y-153163095D01*
X55089285Y-153226904D01*
X55053571Y-153322619D01*
X54982142Y-153386428D01*
X54910714Y-153418333D01*
X54767857Y-153450238D01*
X54660714Y-153450238D01*
X54517857Y-153418333D01*
X54446428Y-153386428D01*
X54375000Y-153322619D01*
X54339285Y-153226904D01*
X54339285Y-153163095D01*
X54375000Y-153067380D01*
X54410714Y-153035476D01*
X55017857Y-152365476D02*
X55053571Y-152397380D01*
X55089285Y-152493095D01*
X55089285Y-152556904D01*
X55053571Y-152652619D01*
X54982142Y-152716428D01*
X54910714Y-152748333D01*
X54767857Y-152780238D01*
X54660714Y-152780238D01*
X54517857Y-152748333D01*
X54446428Y-152716428D01*
X54375000Y-152652619D01*
X54339285Y-152556904D01*
X54339285Y-152493095D01*
X54375000Y-152397380D01*
X54410714Y-152365476D01*
X57575000Y-154030714D02*
X57575000Y-153711666D01*
X57789285Y-154094523D02*
X57039285Y-153871190D01*
X57789285Y-153647857D01*
X57039285Y-153488333D02*
X57039285Y-153073571D01*
X57325000Y-153296904D01*
X57325000Y-153201190D01*
X57360714Y-153137380D01*
X57396428Y-153105476D01*
X57467857Y-153073571D01*
X57646428Y-153073571D01*
X57717857Y-153105476D01*
X57753571Y-153137380D01*
X57789285Y-153201190D01*
X57789285Y-153392619D01*
X57753571Y-153456428D01*
X57717857Y-153488333D01*
X57003571Y-152307857D02*
X57967857Y-152882142D01*
X57396428Y-151861190D02*
X57396428Y-152084523D01*
X57789285Y-152084523D02*
X57039285Y-152084523D01*
X57039285Y-151765476D01*
X57289285Y-151223095D02*
X57789285Y-151223095D01*
X57003571Y-151382619D02*
X57539285Y-151542142D01*
X57539285Y-151127380D01*
X60075000Y-154030714D02*
X60075000Y-153711666D01*
X60289285Y-154094523D02*
X59539285Y-153871190D01*
X60289285Y-153647857D01*
X59610714Y-153456428D02*
X59575000Y-153424523D01*
X59539285Y-153360714D01*
X59539285Y-153201190D01*
X59575000Y-153137380D01*
X59610714Y-153105476D01*
X59682142Y-153073571D01*
X59753571Y-153073571D01*
X59860714Y-153105476D01*
X60289285Y-153488333D01*
X60289285Y-153073571D01*
X59503571Y-152307857D02*
X60467857Y-152882142D01*
X59896428Y-151861190D02*
X59896428Y-152084523D01*
X60289285Y-152084523D02*
X59539285Y-152084523D01*
X59539285Y-151765476D01*
X59539285Y-151191190D02*
X59539285Y-151510238D01*
X59896428Y-151542142D01*
X59860714Y-151510238D01*
X59825000Y-151446428D01*
X59825000Y-151286904D01*
X59860714Y-151223095D01*
X59896428Y-151191190D01*
X59967857Y-151159285D01*
X60146428Y-151159285D01*
X60217857Y-151191190D01*
X60253571Y-151223095D01*
X60289285Y-151286904D01*
X60289285Y-151446428D01*
X60253571Y-151510238D01*
X60217857Y-151542142D01*
X62575000Y-154030714D02*
X62575000Y-153711666D01*
X62789285Y-154094523D02*
X62039285Y-153871190D01*
X62789285Y-153647857D01*
X62789285Y-153073571D02*
X62789285Y-153456428D01*
X62789285Y-153265000D02*
X62039285Y-153265000D01*
X62146428Y-153328809D01*
X62217857Y-153392619D01*
X62253571Y-153456428D01*
X62003571Y-152307857D02*
X62967857Y-152882142D01*
X62396428Y-151861190D02*
X62396428Y-152084523D01*
X62789285Y-152084523D02*
X62039285Y-152084523D01*
X62039285Y-151765476D01*
X62039285Y-151223095D02*
X62039285Y-151350714D01*
X62075000Y-151414523D01*
X62110714Y-151446428D01*
X62217857Y-151510238D01*
X62360714Y-151542142D01*
X62646428Y-151542142D01*
X62717857Y-151510238D01*
X62753571Y-151478333D01*
X62789285Y-151414523D01*
X62789285Y-151286904D01*
X62753571Y-151223095D01*
X62717857Y-151191190D01*
X62646428Y-151159285D01*
X62467857Y-151159285D01*
X62396428Y-151191190D01*
X62360714Y-151223095D01*
X62325000Y-151286904D01*
X62325000Y-151414523D01*
X62360714Y-151478333D01*
X62396428Y-151510238D01*
X62467857Y-151542142D01*
X65125000Y-154030714D02*
X65125000Y-153711666D01*
X65339285Y-154094523D02*
X64589285Y-153871190D01*
X65339285Y-153647857D01*
X64589285Y-153296904D02*
X64589285Y-153233095D01*
X64625000Y-153169285D01*
X64660714Y-153137380D01*
X64732142Y-153105476D01*
X64875000Y-153073571D01*
X65053571Y-153073571D01*
X65196428Y-153105476D01*
X65267857Y-153137380D01*
X65303571Y-153169285D01*
X65339285Y-153233095D01*
X65339285Y-153296904D01*
X65303571Y-153360714D01*
X65267857Y-153392619D01*
X65196428Y-153424523D01*
X65053571Y-153456428D01*
X64875000Y-153456428D01*
X64732142Y-153424523D01*
X64660714Y-153392619D01*
X64625000Y-153360714D01*
X64589285Y-153296904D01*
X64553571Y-152307857D02*
X65517857Y-152882142D01*
X64946428Y-151861190D02*
X64946428Y-152084523D01*
X65339285Y-152084523D02*
X64589285Y-152084523D01*
X64589285Y-151765476D01*
X64589285Y-151574047D02*
X64589285Y-151127380D01*
X65339285Y-151414523D01*
X67889285Y-153727619D02*
X67889285Y-154110476D01*
X67889285Y-153919047D02*
X67139285Y-153919047D01*
X67246428Y-153982857D01*
X67317857Y-154046666D01*
X67353571Y-154110476D01*
X67139285Y-153121428D02*
X67139285Y-153440476D01*
X67496428Y-153472380D01*
X67460714Y-153440476D01*
X67425000Y-153376666D01*
X67425000Y-153217142D01*
X67460714Y-153153333D01*
X67496428Y-153121428D01*
X67567857Y-153089523D01*
X67746428Y-153089523D01*
X67817857Y-153121428D01*
X67853571Y-153153333D01*
X67889285Y-153217142D01*
X67889285Y-153376666D01*
X67853571Y-153440476D01*
X67817857Y-153472380D01*
X67103571Y-152323809D02*
X68067857Y-152898095D01*
X67496428Y-151877142D02*
X67532142Y-151781428D01*
X67567857Y-151749523D01*
X67639285Y-151717619D01*
X67746428Y-151717619D01*
X67817857Y-151749523D01*
X67853571Y-151781428D01*
X67889285Y-151845238D01*
X67889285Y-152100476D01*
X67139285Y-152100476D01*
X67139285Y-151877142D01*
X67175000Y-151813333D01*
X67210714Y-151781428D01*
X67282142Y-151749523D01*
X67353571Y-151749523D01*
X67425000Y-151781428D01*
X67460714Y-151813333D01*
X67496428Y-151877142D01*
X67496428Y-152100476D01*
X67889285Y-151079523D02*
X67889285Y-151462380D01*
X67889285Y-151270952D02*
X67139285Y-151270952D01*
X67246428Y-151334761D01*
X67317857Y-151398571D01*
X67353571Y-151462380D01*
X70439285Y-153727619D02*
X70439285Y-154110476D01*
X70439285Y-153919047D02*
X69689285Y-153919047D01*
X69796428Y-153982857D01*
X69867857Y-154046666D01*
X69903571Y-154110476D01*
X69939285Y-153153333D02*
X70439285Y-153153333D01*
X69653571Y-153312857D02*
X70189285Y-153472380D01*
X70189285Y-153057619D01*
X69653571Y-152323809D02*
X70617857Y-152898095D01*
X70046428Y-151877142D02*
X70082142Y-151781428D01*
X70117857Y-151749523D01*
X70189285Y-151717619D01*
X70296428Y-151717619D01*
X70367857Y-151749523D01*
X70403571Y-151781428D01*
X70439285Y-151845238D01*
X70439285Y-152100476D01*
X69689285Y-152100476D01*
X69689285Y-151877142D01*
X69725000Y-151813333D01*
X69760714Y-151781428D01*
X69832142Y-151749523D01*
X69903571Y-151749523D01*
X69975000Y-151781428D01*
X70010714Y-151813333D01*
X70046428Y-151877142D01*
X70046428Y-152100476D01*
X69689285Y-151494285D02*
X69689285Y-151079523D01*
X69975000Y-151302857D01*
X69975000Y-151207142D01*
X70010714Y-151143333D01*
X70046428Y-151111428D01*
X70117857Y-151079523D01*
X70296428Y-151079523D01*
X70367857Y-151111428D01*
X70403571Y-151143333D01*
X70439285Y-151207142D01*
X70439285Y-151398571D01*
X70403571Y-151462380D01*
X70367857Y-151494285D01*
X75489285Y-153727619D02*
X75489285Y-154110476D01*
X75489285Y-153919047D02*
X74739285Y-153919047D01*
X74846428Y-153982857D01*
X74917857Y-154046666D01*
X74953571Y-154110476D01*
X74739285Y-153312857D02*
X74739285Y-153249047D01*
X74775000Y-153185238D01*
X74810714Y-153153333D01*
X74882142Y-153121428D01*
X75025000Y-153089523D01*
X75203571Y-153089523D01*
X75346428Y-153121428D01*
X75417857Y-153153333D01*
X75453571Y-153185238D01*
X75489285Y-153249047D01*
X75489285Y-153312857D01*
X75453571Y-153376666D01*
X75417857Y-153408571D01*
X75346428Y-153440476D01*
X75203571Y-153472380D01*
X75025000Y-153472380D01*
X74882142Y-153440476D01*
X74810714Y-153408571D01*
X74775000Y-153376666D01*
X74739285Y-153312857D01*
X74703571Y-152323809D02*
X75667857Y-152898095D01*
X75096428Y-151877142D02*
X75132142Y-151781428D01*
X75167857Y-151749523D01*
X75239285Y-151717619D01*
X75346428Y-151717619D01*
X75417857Y-151749523D01*
X75453571Y-151781428D01*
X75489285Y-151845238D01*
X75489285Y-152100476D01*
X74739285Y-152100476D01*
X74739285Y-151877142D01*
X74775000Y-151813333D01*
X74810714Y-151781428D01*
X74882142Y-151749523D01*
X74953571Y-151749523D01*
X75025000Y-151781428D01*
X75060714Y-151813333D01*
X75096428Y-151877142D01*
X75096428Y-152100476D01*
X74739285Y-151143333D02*
X74739285Y-151270952D01*
X74775000Y-151334761D01*
X74810714Y-151366666D01*
X74917857Y-151430476D01*
X75060714Y-151462380D01*
X75346428Y-151462380D01*
X75417857Y-151430476D01*
X75453571Y-151398571D01*
X75489285Y-151334761D01*
X75489285Y-151207142D01*
X75453571Y-151143333D01*
X75417857Y-151111428D01*
X75346428Y-151079523D01*
X75167857Y-151079523D01*
X75096428Y-151111428D01*
X75060714Y-151143333D01*
X75025000Y-151207142D01*
X75025000Y-151334761D01*
X75060714Y-151398571D01*
X75096428Y-151430476D01*
X75167857Y-151462380D01*
X72989285Y-153727619D02*
X72989285Y-154110476D01*
X72989285Y-153919047D02*
X72239285Y-153919047D01*
X72346428Y-153982857D01*
X72417857Y-154046666D01*
X72453571Y-154110476D01*
X72239285Y-153153333D02*
X72239285Y-153280952D01*
X72275000Y-153344761D01*
X72310714Y-153376666D01*
X72417857Y-153440476D01*
X72560714Y-153472380D01*
X72846428Y-153472380D01*
X72917857Y-153440476D01*
X72953571Y-153408571D01*
X72989285Y-153344761D01*
X72989285Y-153217142D01*
X72953571Y-153153333D01*
X72917857Y-153121428D01*
X72846428Y-153089523D01*
X72667857Y-153089523D01*
X72596428Y-153121428D01*
X72560714Y-153153333D01*
X72525000Y-153217142D01*
X72525000Y-153344761D01*
X72560714Y-153408571D01*
X72596428Y-153440476D01*
X72667857Y-153472380D01*
X72203571Y-152323809D02*
X73167857Y-152898095D01*
X72596428Y-151877142D02*
X72632142Y-151781428D01*
X72667857Y-151749523D01*
X72739285Y-151717619D01*
X72846428Y-151717619D01*
X72917857Y-151749523D01*
X72953571Y-151781428D01*
X72989285Y-151845238D01*
X72989285Y-152100476D01*
X72239285Y-152100476D01*
X72239285Y-151877142D01*
X72275000Y-151813333D01*
X72310714Y-151781428D01*
X72382142Y-151749523D01*
X72453571Y-151749523D01*
X72525000Y-151781428D01*
X72560714Y-151813333D01*
X72596428Y-151877142D01*
X72596428Y-152100476D01*
X72310714Y-151462380D02*
X72275000Y-151430476D01*
X72239285Y-151366666D01*
X72239285Y-151207142D01*
X72275000Y-151143333D01*
X72310714Y-151111428D01*
X72382142Y-151079523D01*
X72453571Y-151079523D01*
X72560714Y-151111428D01*
X72989285Y-151494285D01*
X72989285Y-151079523D01*
X69896428Y-144627619D02*
X69896428Y-144404285D01*
X70289285Y-144308571D02*
X70289285Y-144627619D01*
X69539285Y-144627619D01*
X69539285Y-144308571D01*
X69539285Y-143734285D02*
X69539285Y-143861904D01*
X69575000Y-143925714D01*
X69610714Y-143957619D01*
X69717857Y-144021428D01*
X69860714Y-144053333D01*
X70146428Y-144053333D01*
X70217857Y-144021428D01*
X70253571Y-143989523D01*
X70289285Y-143925714D01*
X70289285Y-143798095D01*
X70253571Y-143734285D01*
X70217857Y-143702380D01*
X70146428Y-143670476D01*
X69967857Y-143670476D01*
X69896428Y-143702380D01*
X69860714Y-143734285D01*
X69825000Y-143798095D01*
X69825000Y-143925714D01*
X69860714Y-143989523D01*
X69896428Y-144021428D01*
X69967857Y-144053333D01*
X69503571Y-142904761D02*
X70467857Y-143479047D01*
X69539285Y-142745238D02*
X69539285Y-142298571D01*
X70289285Y-142585714D01*
X67739285Y-144659523D02*
X66989285Y-144659523D01*
X66989285Y-144500000D01*
X67025000Y-144404285D01*
X67096428Y-144340476D01*
X67167857Y-144308571D01*
X67310714Y-144276666D01*
X67417857Y-144276666D01*
X67560714Y-144308571D01*
X67632142Y-144340476D01*
X67703571Y-144404285D01*
X67739285Y-144500000D01*
X67739285Y-144659523D01*
X66989285Y-144053333D02*
X66989285Y-143606666D01*
X67739285Y-143893809D01*
X66953571Y-142872857D02*
X67917857Y-143447142D01*
X66989285Y-142362380D02*
X66989285Y-142490000D01*
X67025000Y-142553809D01*
X67060714Y-142585714D01*
X67167857Y-142649523D01*
X67310714Y-142681428D01*
X67596428Y-142681428D01*
X67667857Y-142649523D01*
X67703571Y-142617619D01*
X67739285Y-142553809D01*
X67739285Y-142426190D01*
X67703571Y-142362380D01*
X67667857Y-142330476D01*
X67596428Y-142298571D01*
X67417857Y-142298571D01*
X67346428Y-142330476D01*
X67310714Y-142362380D01*
X67275000Y-142426190D01*
X67275000Y-142553809D01*
X67310714Y-142617619D01*
X67346428Y-142649523D01*
X67417857Y-142681428D01*
X51975000Y-143755476D02*
X51939285Y-143819285D01*
X51939285Y-143915000D01*
X51975000Y-144010714D01*
X52046428Y-144074523D01*
X52117857Y-144106428D01*
X52260714Y-144138333D01*
X52367857Y-144138333D01*
X52510714Y-144106428D01*
X52582142Y-144074523D01*
X52653571Y-144010714D01*
X52689285Y-143915000D01*
X52689285Y-143851190D01*
X52653571Y-143755476D01*
X52617857Y-143723571D01*
X52367857Y-143723571D01*
X52367857Y-143851190D01*
X52689285Y-143436428D02*
X51939285Y-143436428D01*
X52689285Y-143053571D01*
X51939285Y-143053571D01*
X52689285Y-142734523D02*
X51939285Y-142734523D01*
X51939285Y-142575000D01*
X51975000Y-142479285D01*
X52046428Y-142415476D01*
X52117857Y-142383571D01*
X52260714Y-142351666D01*
X52367857Y-142351666D01*
X52510714Y-142383571D01*
X52582142Y-142415476D01*
X52653571Y-142479285D01*
X52689285Y-142575000D01*
X52689285Y-142734523D01*
X54425000Y-143755476D02*
X54389285Y-143819285D01*
X54389285Y-143915000D01*
X54425000Y-144010714D01*
X54496428Y-144074523D01*
X54567857Y-144106428D01*
X54710714Y-144138333D01*
X54817857Y-144138333D01*
X54960714Y-144106428D01*
X55032142Y-144074523D01*
X55103571Y-144010714D01*
X55139285Y-143915000D01*
X55139285Y-143851190D01*
X55103571Y-143755476D01*
X55067857Y-143723571D01*
X54817857Y-143723571D01*
X54817857Y-143851190D01*
X55139285Y-143436428D02*
X54389285Y-143436428D01*
X55139285Y-143053571D01*
X54389285Y-143053571D01*
X55139285Y-142734523D02*
X54389285Y-142734523D01*
X54389285Y-142575000D01*
X54425000Y-142479285D01*
X54496428Y-142415476D01*
X54567857Y-142383571D01*
X54710714Y-142351666D01*
X54817857Y-142351666D01*
X54960714Y-142383571D01*
X55032142Y-142415476D01*
X55103571Y-142479285D01*
X55139285Y-142575000D01*
X55139285Y-142734523D01*
X47589285Y-145783809D02*
X46839285Y-145783809D01*
X46839285Y-145624285D01*
X46875000Y-145528571D01*
X46946428Y-145464761D01*
X47017857Y-145432857D01*
X47160714Y-145400952D01*
X47267857Y-145400952D01*
X47410714Y-145432857D01*
X47482142Y-145464761D01*
X47553571Y-145528571D01*
X47589285Y-145624285D01*
X47589285Y-145783809D01*
X46839285Y-145177619D02*
X46839285Y-144762857D01*
X47125000Y-144986190D01*
X47125000Y-144890476D01*
X47160714Y-144826666D01*
X47196428Y-144794761D01*
X47267857Y-144762857D01*
X47446428Y-144762857D01*
X47517857Y-144794761D01*
X47553571Y-144826666D01*
X47589285Y-144890476D01*
X47589285Y-145081904D01*
X47553571Y-145145714D01*
X47517857Y-145177619D01*
X46803571Y-143997142D02*
X47767857Y-144571428D01*
X46839285Y-143869523D02*
X46839285Y-143486666D01*
X47589285Y-143678095D02*
X46839285Y-143678095D01*
X46839285Y-143327142D02*
X47589285Y-142880476D01*
X46839285Y-142880476D02*
X47589285Y-143327142D01*
X46839285Y-142497619D02*
X46839285Y-142433809D01*
X46875000Y-142370000D01*
X46910714Y-142338095D01*
X46982142Y-142306190D01*
X47125000Y-142274285D01*
X47303571Y-142274285D01*
X47446428Y-142306190D01*
X47517857Y-142338095D01*
X47553571Y-142370000D01*
X47589285Y-142433809D01*
X47589285Y-142497619D01*
X47553571Y-142561428D01*
X47517857Y-142593333D01*
X47446428Y-142625238D01*
X47303571Y-142657142D01*
X47125000Y-142657142D01*
X46982142Y-142625238D01*
X46910714Y-142593333D01*
X46875000Y-142561428D01*
X46839285Y-142497619D01*
X62639285Y-144659523D02*
X61889285Y-144659523D01*
X61889285Y-144500000D01*
X61925000Y-144404285D01*
X61996428Y-144340476D01*
X62067857Y-144308571D01*
X62210714Y-144276666D01*
X62317857Y-144276666D01*
X62460714Y-144308571D01*
X62532142Y-144340476D01*
X62603571Y-144404285D01*
X62639285Y-144500000D01*
X62639285Y-144659523D01*
X62139285Y-143702380D02*
X62639285Y-143702380D01*
X61853571Y-143861904D02*
X62389285Y-144021428D01*
X62389285Y-143606666D01*
X61853571Y-142872857D02*
X62817857Y-143447142D01*
X62139285Y-142362380D02*
X62639285Y-142362380D01*
X61853571Y-142521904D02*
X62389285Y-142681428D01*
X62389285Y-142266666D01*
X57603571Y-147233571D02*
X57639285Y-147137857D01*
X57639285Y-146978333D01*
X57603571Y-146914523D01*
X57567857Y-146882619D01*
X57496428Y-146850714D01*
X57425000Y-146850714D01*
X57353571Y-146882619D01*
X57317857Y-146914523D01*
X57282142Y-146978333D01*
X57246428Y-147105952D01*
X57210714Y-147169761D01*
X57175000Y-147201666D01*
X57103571Y-147233571D01*
X57032142Y-147233571D01*
X56960714Y-147201666D01*
X56925000Y-147169761D01*
X56889285Y-147105952D01*
X56889285Y-146946428D01*
X56925000Y-146850714D01*
X57639285Y-146563571D02*
X56889285Y-146563571D01*
X56889285Y-146404047D01*
X56925000Y-146308333D01*
X56996428Y-146244523D01*
X57067857Y-146212619D01*
X57210714Y-146180714D01*
X57317857Y-146180714D01*
X57460714Y-146212619D01*
X57532142Y-146244523D01*
X57603571Y-146308333D01*
X57639285Y-146404047D01*
X57639285Y-146563571D01*
X57425000Y-145925476D02*
X57425000Y-145606428D01*
X57639285Y-145989285D02*
X56889285Y-145765952D01*
X57639285Y-145542619D01*
X56853571Y-144840714D02*
X57817857Y-145415000D01*
X57639285Y-144617380D02*
X56889285Y-144617380D01*
X56889285Y-144457857D01*
X56925000Y-144362142D01*
X56996428Y-144298333D01*
X57067857Y-144266428D01*
X57210714Y-144234523D01*
X57317857Y-144234523D01*
X57460714Y-144266428D01*
X57532142Y-144298333D01*
X57603571Y-144362142D01*
X57639285Y-144457857D01*
X57639285Y-144617380D01*
X57639285Y-143596428D02*
X57639285Y-143979285D01*
X57639285Y-143787857D02*
X56889285Y-143787857D01*
X56996428Y-143851666D01*
X57067857Y-143915476D01*
X57103571Y-143979285D01*
X56853571Y-142830714D02*
X57817857Y-143405000D01*
X56960714Y-142639285D02*
X56925000Y-142607380D01*
X56889285Y-142543571D01*
X56889285Y-142384047D01*
X56925000Y-142320238D01*
X56960714Y-142288333D01*
X57032142Y-142256428D01*
X57103571Y-142256428D01*
X57210714Y-142288333D01*
X57639285Y-142671190D01*
X57639285Y-142256428D01*
X60103571Y-147217619D02*
X60139285Y-147121904D01*
X60139285Y-146962380D01*
X60103571Y-146898571D01*
X60067857Y-146866666D01*
X59996428Y-146834761D01*
X59925000Y-146834761D01*
X59853571Y-146866666D01*
X59817857Y-146898571D01*
X59782142Y-146962380D01*
X59746428Y-147090000D01*
X59710714Y-147153809D01*
X59675000Y-147185714D01*
X59603571Y-147217619D01*
X59532142Y-147217619D01*
X59460714Y-147185714D01*
X59425000Y-147153809D01*
X59389285Y-147090000D01*
X59389285Y-146930476D01*
X59425000Y-146834761D01*
X60067857Y-146164761D02*
X60103571Y-146196666D01*
X60139285Y-146292380D01*
X60139285Y-146356190D01*
X60103571Y-146451904D01*
X60032142Y-146515714D01*
X59960714Y-146547619D01*
X59817857Y-146579523D01*
X59710714Y-146579523D01*
X59567857Y-146547619D01*
X59496428Y-146515714D01*
X59425000Y-146451904D01*
X59389285Y-146356190D01*
X59389285Y-146292380D01*
X59425000Y-146196666D01*
X59460714Y-146164761D01*
X60139285Y-145558571D02*
X60139285Y-145877619D01*
X59389285Y-145877619D01*
X59353571Y-144856666D02*
X60317857Y-145430952D01*
X60139285Y-144633333D02*
X59389285Y-144633333D01*
X59389285Y-144473809D01*
X59425000Y-144378095D01*
X59496428Y-144314285D01*
X59567857Y-144282380D01*
X59710714Y-144250476D01*
X59817857Y-144250476D01*
X59960714Y-144282380D01*
X60032142Y-144314285D01*
X60103571Y-144378095D01*
X60139285Y-144473809D01*
X60139285Y-144633333D01*
X59389285Y-143835714D02*
X59389285Y-143771904D01*
X59425000Y-143708095D01*
X59460714Y-143676190D01*
X59532142Y-143644285D01*
X59675000Y-143612380D01*
X59853571Y-143612380D01*
X59996428Y-143644285D01*
X60067857Y-143676190D01*
X60103571Y-143708095D01*
X60139285Y-143771904D01*
X60139285Y-143835714D01*
X60103571Y-143899523D01*
X60067857Y-143931428D01*
X59996428Y-143963333D01*
X59853571Y-143995238D01*
X59675000Y-143995238D01*
X59532142Y-143963333D01*
X59460714Y-143931428D01*
X59425000Y-143899523D01*
X59389285Y-143835714D01*
X59353571Y-142846666D02*
X60317857Y-143420952D01*
X59389285Y-142687142D02*
X59389285Y-142272380D01*
X59675000Y-142495714D01*
X59675000Y-142400000D01*
X59710714Y-142336190D01*
X59746428Y-142304285D01*
X59817857Y-142272380D01*
X59996428Y-142272380D01*
X60067857Y-142304285D01*
X60103571Y-142336190D01*
X60139285Y-142400000D01*
X60139285Y-142591428D01*
X60103571Y-142655238D01*
X60067857Y-142687142D01*
X65117857Y-144276666D02*
X65153571Y-144308571D01*
X65189285Y-144404285D01*
X65189285Y-144468095D01*
X65153571Y-144563809D01*
X65082142Y-144627619D01*
X65010714Y-144659523D01*
X64867857Y-144691428D01*
X64760714Y-144691428D01*
X64617857Y-144659523D01*
X64546428Y-144627619D01*
X64475000Y-144563809D01*
X64439285Y-144468095D01*
X64439285Y-144404285D01*
X64475000Y-144308571D01*
X64510714Y-144276666D01*
X64439285Y-143702380D02*
X64439285Y-143830000D01*
X64475000Y-143893809D01*
X64510714Y-143925714D01*
X64617857Y-143989523D01*
X64760714Y-144021428D01*
X65046428Y-144021428D01*
X65117857Y-143989523D01*
X65153571Y-143957619D01*
X65189285Y-143893809D01*
X65189285Y-143766190D01*
X65153571Y-143702380D01*
X65117857Y-143670476D01*
X65046428Y-143638571D01*
X64867857Y-143638571D01*
X64796428Y-143670476D01*
X64760714Y-143702380D01*
X64725000Y-143766190D01*
X64725000Y-143893809D01*
X64760714Y-143957619D01*
X64796428Y-143989523D01*
X64867857Y-144021428D01*
X64403571Y-142872857D02*
X65367857Y-143447142D01*
X64439285Y-142330476D02*
X64439285Y-142649523D01*
X64796428Y-142681428D01*
X64760714Y-142649523D01*
X64725000Y-142585714D01*
X64725000Y-142426190D01*
X64760714Y-142362380D01*
X64796428Y-142330476D01*
X64867857Y-142298571D01*
X65046428Y-142298571D01*
X65117857Y-142330476D01*
X65153571Y-142362380D01*
X65189285Y-142426190D01*
X65189285Y-142585714D01*
X65153571Y-142649523D01*
X65117857Y-142681428D01*
X74946428Y-144436190D02*
X74982142Y-144340476D01*
X75017857Y-144308571D01*
X75089285Y-144276666D01*
X75196428Y-144276666D01*
X75267857Y-144308571D01*
X75303571Y-144340476D01*
X75339285Y-144404285D01*
X75339285Y-144659523D01*
X74589285Y-144659523D01*
X74589285Y-144436190D01*
X74625000Y-144372380D01*
X74660714Y-144340476D01*
X74732142Y-144308571D01*
X74803571Y-144308571D01*
X74875000Y-144340476D01*
X74910714Y-144372380D01*
X74946428Y-144436190D01*
X74946428Y-144659523D01*
X74589285Y-143670476D02*
X74589285Y-143989523D01*
X74946428Y-144021428D01*
X74910714Y-143989523D01*
X74875000Y-143925714D01*
X74875000Y-143766190D01*
X74910714Y-143702380D01*
X74946428Y-143670476D01*
X75017857Y-143638571D01*
X75196428Y-143638571D01*
X75267857Y-143670476D01*
X75303571Y-143702380D01*
X75339285Y-143766190D01*
X75339285Y-143925714D01*
X75303571Y-143989523D01*
X75267857Y-144021428D01*
X74553571Y-142872857D02*
X75517857Y-143447142D01*
X75339285Y-142617619D02*
X75339285Y-142490000D01*
X75303571Y-142426190D01*
X75267857Y-142394285D01*
X75160714Y-142330476D01*
X75017857Y-142298571D01*
X74732142Y-142298571D01*
X74660714Y-142330476D01*
X74625000Y-142362380D01*
X74589285Y-142426190D01*
X74589285Y-142553809D01*
X74625000Y-142617619D01*
X74660714Y-142649523D01*
X74732142Y-142681428D01*
X74910714Y-142681428D01*
X74982142Y-142649523D01*
X75017857Y-142617619D01*
X75053571Y-142553809D01*
X75053571Y-142426190D01*
X75017857Y-142362380D01*
X74982142Y-142330476D01*
X74910714Y-142298571D01*
X50139285Y-145863571D02*
X49389285Y-145863571D01*
X49389285Y-145704047D01*
X49425000Y-145608333D01*
X49496428Y-145544523D01*
X49567857Y-145512619D01*
X49710714Y-145480714D01*
X49817857Y-145480714D01*
X49960714Y-145512619D01*
X50032142Y-145544523D01*
X50103571Y-145608333D01*
X50139285Y-145704047D01*
X50139285Y-145863571D01*
X49460714Y-145225476D02*
X49425000Y-145193571D01*
X49389285Y-145129761D01*
X49389285Y-144970238D01*
X49425000Y-144906428D01*
X49460714Y-144874523D01*
X49532142Y-144842619D01*
X49603571Y-144842619D01*
X49710714Y-144874523D01*
X50139285Y-145257380D01*
X50139285Y-144842619D01*
X49353571Y-144076904D02*
X50317857Y-144651190D01*
X50139285Y-143470714D02*
X49782142Y-143694047D01*
X50139285Y-143853571D02*
X49389285Y-143853571D01*
X49389285Y-143598333D01*
X49425000Y-143534523D01*
X49460714Y-143502619D01*
X49532142Y-143470714D01*
X49639285Y-143470714D01*
X49710714Y-143502619D01*
X49746428Y-143534523D01*
X49782142Y-143598333D01*
X49782142Y-143853571D01*
X49389285Y-143247380D02*
X50139285Y-142800714D01*
X49389285Y-142800714D02*
X50139285Y-143247380D01*
X50139285Y-142194523D02*
X50139285Y-142577380D01*
X50139285Y-142385952D02*
X49389285Y-142385952D01*
X49496428Y-142449761D01*
X49567857Y-142513571D01*
X49603571Y-142577380D01*
X72446428Y-144436190D02*
X72482142Y-144340476D01*
X72517857Y-144308571D01*
X72589285Y-144276666D01*
X72696428Y-144276666D01*
X72767857Y-144308571D01*
X72803571Y-144340476D01*
X72839285Y-144404285D01*
X72839285Y-144659523D01*
X72089285Y-144659523D01*
X72089285Y-144436190D01*
X72125000Y-144372380D01*
X72160714Y-144340476D01*
X72232142Y-144308571D01*
X72303571Y-144308571D01*
X72375000Y-144340476D01*
X72410714Y-144372380D01*
X72446428Y-144436190D01*
X72446428Y-144659523D01*
X72339285Y-143702380D02*
X72839285Y-143702380D01*
X72053571Y-143861904D02*
X72589285Y-144021428D01*
X72589285Y-143606666D01*
X72053571Y-142872857D02*
X73017857Y-143447142D01*
X72410714Y-142553809D02*
X72375000Y-142617619D01*
X72339285Y-142649523D01*
X72267857Y-142681428D01*
X72232142Y-142681428D01*
X72160714Y-142649523D01*
X72125000Y-142617619D01*
X72089285Y-142553809D01*
X72089285Y-142426190D01*
X72125000Y-142362380D01*
X72160714Y-142330476D01*
X72232142Y-142298571D01*
X72267857Y-142298571D01*
X72339285Y-142330476D01*
X72375000Y-142362380D01*
X72410714Y-142426190D01*
X72410714Y-142553809D01*
X72446428Y-142617619D01*
X72482142Y-142649523D01*
X72553571Y-142681428D01*
X72696428Y-142681428D01*
X72767857Y-142649523D01*
X72803571Y-142617619D01*
X72839285Y-142553809D01*
X72839285Y-142426190D01*
X72803571Y-142362380D01*
X72767857Y-142330476D01*
X72696428Y-142298571D01*
X72553571Y-142298571D01*
X72482142Y-142330476D01*
X72446428Y-142362380D01*
X72410714Y-142426190D01*
M02*
