M48
; DRILL file {KiCad (5.1.9)-1} date 01/19/21 21:28:59
; FORMAT={-:-/ absolute / metric / decimal}
; #@! TF.CreationDate,2021-01-19T21:28:59+09:00
; #@! TF.GenerationSoftware,Kicad,Pcbnew,(5.1.9)-1
FMAT,2
METRIC
T1C0.300
T2C0.400
T3C0.813
T4C1.200
T5C1.300
T6C2.200
T7C1.700
T8C1.800
T9C4.900
%
G90
G05
T2
X62.973Y-139.048
X115.827Y-135.97
X147.276Y-74.751
T3
X47.222Y-140.589
X47.222Y-155.809
X49.762Y-140.589
X49.762Y-155.809
X52.302Y-140.589
X52.302Y-155.809
X54.842Y-140.589
X54.842Y-155.809
X57.382Y-140.589
X57.382Y-155.809
X59.922Y-140.589
X59.922Y-155.809
X62.462Y-140.589
X62.462Y-155.809
X65.002Y-140.589
X65.002Y-155.809
X67.542Y-140.589
X67.542Y-155.809
X70.082Y-140.589
X70.082Y-155.809
X72.622Y-140.589
X72.622Y-155.809
X75.162Y-140.589
X75.162Y-155.809
X220.5Y-144.44
X220.5Y-146.98
X220.5Y-149.52
X220.5Y-152.06
T4
X48.559Y-69.36
X48.559Y-88.41
X48.559Y-107.46
X48.559Y-126.51
X54.909Y-66.82
X54.909Y-85.87
X54.909Y-104.92
X54.909Y-123.97
X67.609Y-69.36
X67.609Y-126.51
X72.371Y-88.41
X72.371Y-107.46
X73.959Y-66.82
X73.959Y-123.97
X78.721Y-85.87
X78.721Y-104.92
X86.659Y-69.36
X86.659Y-126.51
X89.04Y-145.56
X91.421Y-88.41
X91.421Y-107.46
X93.009Y-66.82
X93.009Y-123.97
X95.39Y-143.02
X97.771Y-85.87
X97.771Y-104.92
X105.47Y-126.51
X110.471Y-69.36
X110.471Y-145.56
X111.82Y-123.97
X115.234Y-88.41
X115.234Y-107.46
X116.821Y-66.82
X116.821Y-143.02
X121.584Y-85.87
X121.584Y-104.92
X124.759Y-126.51
X129.521Y-69.36
X131.109Y-123.97
X131.902Y-145.56
X134.284Y-88.41
X134.284Y-107.46
X135.871Y-66.82
X138.252Y-143.02
X140.634Y-85.87
X140.634Y-104.92
X146.19Y-126.51
X152.54Y-123.97
X158.096Y-88.41
X158.096Y-107.46
X158.096Y-145.56
X162.859Y-69.36
X164.446Y-85.87
X164.446Y-104.92
X164.446Y-143.02
X167.621Y-126.51
X169.209Y-66.82
X173.971Y-123.97
X177.146Y-88.41
X177.146Y-107.46
X181.909Y-69.36
X183.496Y-85.87
X183.496Y-104.92
X184.29Y-145.56
X186.671Y-126.51
X188.259Y-66.82
X190.64Y-143.02
X193.021Y-123.97
X200.959Y-88.41
X200.959Y-107.46
X205.721Y-69.36
X205.721Y-126.51
X205.721Y-145.56
X207.309Y-85.87
X207.309Y-104.92
X212.071Y-66.82
X212.071Y-123.97
X212.071Y-143.02
X220.009Y-88.41
X220.009Y-107.46
X224.771Y-69.36
X224.771Y-126.51
X226.359Y-85.87
X226.359Y-104.92
X231.121Y-66.82
X231.121Y-123.97
X243.821Y-69.36
X243.821Y-88.41
X243.821Y-107.46
X243.821Y-126.51
X250.171Y-66.82
X250.171Y-85.87
X250.171Y-104.92
X250.171Y-123.97
T5
X146.75Y-65.7
X146.75Y-68.539
X146.75Y-73.039
X153.25Y-65.7
X153.25Y-68.539
X153.25Y-73.039
T6
X64.25Y-83.75
X64.25Y-117.25
X107.0Y-140.75
X150.0Y-83.5
X150.0Y-117.25
X197.75Y-140.75
X235.75Y-83.75
X235.75Y-117.25
T7
X47.289Y-71.9
X47.289Y-90.95
X47.289Y-110.0
X47.289Y-129.05
X57.449Y-71.9
X57.449Y-90.95
X57.449Y-110.0
X57.449Y-129.05
X66.339Y-71.9
X66.339Y-129.05
X71.101Y-90.95
X71.101Y-110.0
X76.499Y-71.9
X76.499Y-129.05
X81.261Y-90.95
X81.261Y-110.0
X85.389Y-71.9
X85.389Y-129.05
X87.77Y-148.1
X90.151Y-90.95
X90.151Y-110.0
X95.549Y-71.9
X95.549Y-129.05
X97.93Y-148.1
X100.311Y-90.95
X100.311Y-110.0
X104.2Y-129.05
X109.201Y-71.9
X109.201Y-148.1
X113.964Y-90.95
X113.964Y-110.0
X114.36Y-129.05
X119.361Y-71.9
X119.361Y-148.1
X123.489Y-129.05
X124.124Y-90.95
X124.124Y-110.0
X128.251Y-71.9
X130.632Y-148.1
X133.014Y-90.95
X133.014Y-110.0
X133.649Y-129.05
X138.411Y-71.9
X140.792Y-148.1
X143.174Y-90.95
X143.174Y-110.0
X144.92Y-129.05
X155.08Y-129.05
X156.826Y-90.95
X156.826Y-110.0
X156.826Y-148.1
X161.589Y-71.9
X166.351Y-129.05
X166.986Y-90.95
X166.986Y-110.0
X166.986Y-148.1
X171.749Y-71.9
X175.876Y-90.95
X175.876Y-110.0
X176.511Y-129.05
X180.639Y-71.9
X183.02Y-148.1
X185.401Y-129.05
X186.036Y-90.95
X186.036Y-110.0
X190.799Y-71.9
X193.18Y-148.1
X195.561Y-129.05
X199.689Y-90.95
X199.689Y-110.0
X204.451Y-71.9
X204.451Y-129.05
X204.451Y-148.1
X209.849Y-90.95
X209.849Y-110.0
X214.611Y-71.9
X214.611Y-129.05
X214.611Y-148.1
X218.739Y-90.95
X218.739Y-110.0
X223.501Y-71.9
X223.501Y-129.05
X228.899Y-90.95
X228.899Y-110.0
X233.661Y-71.9
X233.661Y-129.05
X242.551Y-71.9
X242.551Y-90.95
X242.551Y-110.0
X242.551Y-129.05
X252.711Y-71.9
X252.711Y-90.95
X252.711Y-110.0
X252.711Y-129.05
T8
X46.869Y-71.9
X46.869Y-90.95
X46.869Y-110.0
X46.869Y-129.05
X57.869Y-71.9
X57.869Y-90.95
X57.869Y-110.0
X57.869Y-129.05
X65.919Y-71.9
X65.919Y-129.05
X70.681Y-90.95
X70.681Y-110.0
X76.919Y-71.9
X76.919Y-129.05
X81.681Y-90.95
X81.681Y-110.0
X84.969Y-71.9
X84.969Y-129.05
X87.35Y-148.1
X89.731Y-90.95
X89.731Y-110.0
X95.969Y-71.9
X95.969Y-129.05
X98.35Y-148.1
X100.731Y-90.95
X100.731Y-110.0
X103.78Y-129.05
X108.781Y-71.9
X108.781Y-148.1
X113.544Y-90.95
X113.544Y-110.0
X114.78Y-129.05
X119.781Y-71.9
X119.781Y-148.1
X123.069Y-129.05
X124.544Y-90.95
X124.544Y-110.0
X127.831Y-71.9
X130.212Y-148.1
X132.594Y-90.95
X132.594Y-110.0
X134.069Y-129.05
X138.831Y-71.9
X141.212Y-148.1
X143.594Y-90.95
X143.594Y-110.0
X144.5Y-129.05
X155.5Y-129.05
X156.406Y-90.95
X156.406Y-110.0
X156.406Y-148.1
X161.169Y-71.9
X165.931Y-129.05
X167.406Y-90.95
X167.406Y-110.0
X167.406Y-148.1
X172.169Y-71.9
X175.456Y-90.95
X175.456Y-110.0
X176.931Y-129.05
X180.219Y-71.9
X182.6Y-148.1
X184.981Y-129.05
X186.456Y-90.95
X186.456Y-110.0
X191.219Y-71.9
X193.6Y-148.1
X195.981Y-129.05
X199.269Y-90.95
X199.269Y-110.0
X204.031Y-71.9
X204.031Y-129.05
X204.031Y-148.1
X210.269Y-90.95
X210.269Y-110.0
X215.031Y-71.9
X215.031Y-129.05
X215.031Y-148.1
X218.319Y-90.95
X218.319Y-110.0
X223.081Y-71.9
X223.081Y-129.05
X229.319Y-90.95
X229.319Y-110.0
X234.081Y-71.9
X234.081Y-129.05
X242.131Y-71.9
X242.131Y-90.95
X242.131Y-110.0
X242.131Y-129.05
X253.131Y-71.9
X253.131Y-90.95
X253.131Y-110.0
X253.131Y-129.05
T9
X52.369Y-71.9
X52.369Y-90.95
X52.369Y-110.0
X52.369Y-129.05
X71.419Y-71.9
X71.419Y-129.05
X76.181Y-90.95
X76.181Y-110.0
X90.469Y-71.9
X90.469Y-129.05
X92.85Y-148.1
X95.231Y-90.95
X95.231Y-110.0
X109.28Y-129.05
X114.281Y-71.9
X114.281Y-148.1
X119.044Y-90.95
X119.044Y-110.0
X128.569Y-129.05
X133.331Y-71.9
X135.712Y-148.1
X138.094Y-90.95
X138.094Y-110.0
X150.0Y-129.05
X161.906Y-90.95
X161.906Y-110.0
X161.906Y-148.1
X166.669Y-71.9
X171.431Y-129.05
X180.956Y-90.95
X180.956Y-110.0
X185.719Y-71.9
X188.1Y-148.1
X190.481Y-129.05
X204.769Y-90.95
X204.769Y-110.0
X209.531Y-71.9
X209.531Y-129.05
X209.531Y-148.1
X223.819Y-90.95
X223.819Y-110.0
X228.581Y-71.9
X228.581Y-129.05
X247.631Y-71.9
X247.631Y-90.95
X247.631Y-110.0
X247.631Y-129.05
T1
G00X52.019Y-77.8
M15
G01X52.719Y-77.8
M16
G05
G00X52.019Y-96.85
M15
G01X52.719Y-96.85
M16
G05
G00X52.019Y-115.9
M15
G01X52.719Y-115.9
M16
G05
G00X52.019Y-134.95
M15
G01X52.719Y-134.95
M16
G05
G00X57.019Y-66.353
M15
G01X57.719Y-66.347
M16
G05
G00X57.019Y-85.403
M15
G01X57.719Y-85.397
M16
G05
G00X57.019Y-104.453
M15
G01X57.719Y-104.447
M16
G05
G00X57.019Y-123.503
M15
G01X57.719Y-123.497
M16
G05
G00X71.069Y-77.8
M15
G01X71.769Y-77.8
M16
G05
G00X71.069Y-134.95
M15
G01X71.769Y-134.95
M16
G05
G00X75.831Y-96.85
M15
G01X76.531Y-96.85
M16
G05
G00X75.831Y-115.9
M15
G01X76.531Y-115.9
M16
G05
G00X76.069Y-66.353
M15
G01X76.769Y-66.347
M16
G05
G00X76.069Y-123.503
M15
G01X76.769Y-123.497
M16
G05
G00X80.831Y-85.403
M15
G01X81.531Y-85.397
M16
G05
G00X80.831Y-104.453
M15
G01X81.531Y-104.447
M16
G05
G00X90.119Y-77.8
M15
G01X90.819Y-77.8
M16
G05
G00X90.119Y-134.95
M15
G01X90.819Y-134.95
M16
G05
G00X92.5Y-154.0
M15
G01X93.2Y-154.0
M16
G05
G00X94.881Y-96.85
M15
G01X95.581Y-96.85
M16
G05
G00X94.881Y-115.9
M15
G01X95.581Y-115.9
M16
G05
G00X95.119Y-66.353
M15
G01X95.819Y-66.347
M16
G05
G00X95.119Y-123.503
M15
G01X95.819Y-123.497
M16
G05
G00X97.5Y-142.553
M15
G01X98.2Y-142.547
M16
G05
G00X99.881Y-85.403
M15
G01X100.581Y-85.397
M16
G05
G00X99.881Y-104.453
M15
G01X100.581Y-104.447
M16
G05
G00X108.93Y-134.95
M15
G01X109.63Y-134.95
M16
G05
G00X113.93Y-123.503
M15
G01X114.63Y-123.497
M16
G05
G00X113.931Y-77.8
M15
G01X114.631Y-77.8
M16
G05
G00X113.931Y-154.0
M15
G01X114.631Y-154.0
M16
G05
G00X118.694Y-96.85
M15
G01X119.394Y-96.85
M16
G05
G00X118.694Y-115.9
M15
G01X119.394Y-115.9
M16
G05
G00X118.931Y-66.353
M15
G01X119.631Y-66.347
M16
G05
G00X118.931Y-142.553
M15
G01X119.631Y-142.547
M16
G05
G00X123.694Y-85.403
M15
G01X124.394Y-85.397
M16
G05
G00X123.694Y-104.453
M15
G01X124.394Y-104.447
M16
G05
G00X128.219Y-134.95
M15
G01X128.919Y-134.95
M16
G05
G00X132.981Y-77.8
M15
G01X133.681Y-77.8
M16
G05
G00X133.219Y-123.503
M15
G01X133.919Y-123.497
M16
G05
G00X135.362Y-154.0
M15
G01X136.062Y-154.0
M16
G05
G00X137.744Y-96.85
M15
G01X138.444Y-96.85
M16
G05
G00X137.744Y-115.9
M15
G01X138.444Y-115.9
M16
G05
G00X137.981Y-66.353
M15
G01X138.681Y-66.347
M16
G05
G00X140.362Y-142.553
M15
G01X141.062Y-142.547
M16
G05
G00X142.744Y-85.403
M15
G01X143.444Y-85.397
M16
G05
G00X142.744Y-104.453
M15
G01X143.444Y-104.447
M16
G05
G00X149.65Y-134.95
M15
G01X150.35Y-134.95
M16
G05
G00X154.65Y-123.503
M15
G01X155.35Y-123.497
M16
G05
G00X161.556Y-96.85
M15
G01X162.256Y-96.85
M16
G05
G00X161.556Y-115.9
M15
G01X162.256Y-115.9
M16
G05
G00X161.556Y-154.0
M15
G01X162.256Y-154.0
M16
G05
G00X166.319Y-77.8
M15
G01X167.019Y-77.8
M16
G05
G00X166.556Y-85.403
M15
G01X167.256Y-85.397
M16
G05
G00X166.556Y-104.453
M15
G01X167.256Y-104.447
M16
G05
G00X166.556Y-142.553
M15
G01X167.256Y-142.547
M16
G05
G00X171.081Y-134.95
M15
G01X171.781Y-134.95
M16
G05
G00X171.319Y-66.353
M15
G01X172.019Y-66.347
M16
G05
G00X176.081Y-123.503
M15
G01X176.781Y-123.497
M16
G05
G00X180.606Y-96.85
M15
G01X181.306Y-96.85
M16
G05
G00X180.606Y-115.9
M15
G01X181.306Y-115.9
M16
G05
G00X185.369Y-77.8
M15
G01X186.069Y-77.8
M16
G05
G00X185.606Y-85.403
M15
G01X186.306Y-85.397
M16
G05
G00X185.606Y-104.453
M15
G01X186.306Y-104.447
M16
G05
G00X187.75Y-154.0
M15
G01X188.45Y-154.0
M16
G05
G00X190.131Y-134.95
M15
G01X190.831Y-134.95
M16
G05
G00X190.369Y-66.353
M15
G01X191.069Y-66.347
M16
G05
G00X192.75Y-142.553
M15
G01X193.45Y-142.547
M16
G05
G00X195.131Y-123.503
M15
G01X195.831Y-123.497
M16
G05
G00X204.419Y-96.85
M15
G01X205.119Y-96.85
M16
G05
G00X204.419Y-115.9
M15
G01X205.119Y-115.9
M16
G05
G00X209.181Y-77.8
M15
G01X209.881Y-77.8
M16
G05
G00X209.181Y-134.95
M15
G01X209.881Y-134.95
M16
G05
G00X209.181Y-154.0
M15
G01X209.881Y-154.0
M16
G05
G00X209.419Y-85.403
M15
G01X210.119Y-85.397
M16
G05
G00X209.419Y-104.453
M15
G01X210.119Y-104.447
M16
G05
G00X214.181Y-66.353
M15
G01X214.881Y-66.347
M16
G05
G00X214.181Y-123.503
M15
G01X214.881Y-123.497
M16
G05
G00X214.181Y-142.553
M15
G01X214.881Y-142.547
M16
G05
G00X223.469Y-96.85
M15
G01X224.169Y-96.85
M16
G05
G00X223.469Y-115.9
M15
G01X224.169Y-115.9
M16
G05
G00X228.231Y-77.8
M15
G01X228.931Y-77.8
M16
G05
G00X228.231Y-134.95
M15
G01X228.931Y-134.95
M16
G05
G00X228.469Y-85.403
M15
G01X229.169Y-85.397
M16
G05
G00X228.469Y-104.453
M15
G01X229.169Y-104.447
M16
G05
G00X233.231Y-66.353
M15
G01X233.931Y-66.347
M16
G05
G00X233.231Y-123.503
M15
G01X233.931Y-123.497
M16
G05
G00X247.281Y-77.8
M15
G01X247.981Y-77.8
M16
G05
G00X247.281Y-96.85
M15
G01X247.981Y-96.85
M16
G05
G00X247.281Y-115.9
M15
G01X247.981Y-115.9
M16
G05
G00X247.281Y-134.95
M15
G01X247.981Y-134.95
M16
G05
G00X252.281Y-66.353
M15
G01X252.981Y-66.347
M16
G05
G00X252.281Y-85.403
M15
G01X252.981Y-85.397
M16
G05
G00X252.281Y-104.453
M15
G01X252.981Y-104.447
M16
G05
G00X252.281Y-123.503
M15
G01X252.981Y-123.497
M16
G05
T2
G00X46.969Y-75.8
M15
G01X47.569Y-75.8
M16
G05
G00X46.969Y-94.85
M15
G01X47.569Y-94.85
M16
G05
G00X46.969Y-113.9
M15
G01X47.569Y-113.9
M16
G05
G00X46.969Y-132.95
M15
G01X47.569Y-132.95
M16
G05
G00X66.019Y-75.8
M15
G01X66.619Y-75.8
M16
G05
G00X66.019Y-132.95
M15
G01X66.619Y-132.95
M16
G05
G00X70.781Y-94.85
M15
G01X71.381Y-94.85
M16
G05
G00X70.781Y-113.9
M15
G01X71.381Y-113.9
M16
G05
G00X85.069Y-75.8
M15
G01X85.669Y-75.8
M16
G05
G00X85.069Y-132.95
M15
G01X85.669Y-132.95
M16
G05
G00X87.45Y-152.0
M15
G01X88.05Y-152.0
M16
G05
G00X89.831Y-94.85
M15
G01X90.431Y-94.85
M16
G05
G00X89.831Y-113.9
M15
G01X90.431Y-113.9
M16
G05
G00X103.88Y-132.95
M15
G01X104.48Y-132.95
M16
G05
G00X108.881Y-75.8
M15
G01X109.481Y-75.8
M16
G05
G00X108.881Y-152.0
M15
G01X109.481Y-152.0
M16
G05
G00X113.644Y-94.85
M15
G01X114.244Y-94.85
M16
G05
G00X113.644Y-113.9
M15
G01X114.244Y-113.9
M16
G05
G00X123.169Y-132.95
M15
G01X123.769Y-132.95
M16
G05
G00X127.931Y-75.8
M15
G01X128.531Y-75.8
M16
G05
G00X130.312Y-152.0
M15
G01X130.912Y-152.0
M16
G05
G00X132.694Y-94.85
M15
G01X133.294Y-94.85
M16
G05
G00X132.694Y-113.9
M15
G01X133.294Y-113.9
M16
G05
G00X144.6Y-132.95
M15
G01X145.2Y-132.95
M16
G05
G00X156.506Y-94.85
M15
G01X157.106Y-94.85
M16
G05
G00X156.506Y-113.9
M15
G01X157.106Y-113.9
M16
G05
G00X156.506Y-152.0
M15
G01X157.106Y-152.0
M16
G05
G00X161.269Y-75.8
M15
G01X161.869Y-75.8
M16
G05
G00X166.031Y-132.95
M15
G01X166.631Y-132.95
M16
G05
G00X175.556Y-94.85
M15
G01X176.156Y-94.85
M16
G05
G00X175.556Y-113.9
M15
G01X176.156Y-113.9
M16
G05
G00X180.319Y-75.8
M15
G01X180.919Y-75.8
M16
G05
G00X182.7Y-152.0
M15
G01X183.3Y-152.0
M16
G05
G00X185.081Y-132.95
M15
G01X185.681Y-132.95
M16
G05
G00X199.369Y-94.85
M15
G01X199.969Y-94.85
M16
G05
G00X199.369Y-113.9
M15
G01X199.969Y-113.9
M16
G05
G00X204.131Y-75.8
M15
G01X204.731Y-75.8
M16
G05
G00X204.131Y-132.95
M15
G01X204.731Y-132.95
M16
G05
G00X204.131Y-152.0
M15
G01X204.731Y-152.0
M16
G05
G00X218.419Y-94.85
M15
G01X219.019Y-94.85
M16
G05
G00X218.419Y-113.9
M15
G01X219.019Y-113.9
M16
G05
G00X223.181Y-75.8
M15
G01X223.781Y-75.8
M16
G05
G00X223.181Y-132.95
M15
G01X223.781Y-132.95
M16
G05
G00X242.231Y-75.8
M15
G01X242.831Y-75.8
M16
G05
G00X242.231Y-94.85
M15
G01X242.831Y-94.85
M16
G05
G00X242.231Y-113.9
M15
G01X242.831Y-113.9
M16
G05
G00X242.231Y-132.95
M15
G01X242.831Y-132.95
M16
G05
T0
M30
