G04 #@! TF.GenerationSoftware,KiCad,Pcbnew,(5.1.9)-1*
G04 #@! TF.CreationDate,2021-01-19T21:28:49+09:00*
G04 #@! TF.ProjectId,yuiop47,7975696f-7034-4372-9e6b-696361645f70,1*
G04 #@! TF.SameCoordinates,Original*
G04 #@! TF.FileFunction,Legend,Bot*
G04 #@! TF.FilePolarity,Positive*
%FSLAX46Y46*%
G04 Gerber Fmt 4.6, Leading zero omitted, Abs format (unit mm)*
G04 Created by KiCad (PCBNEW (5.1.9)-1) date 2021-01-19 21:28:49*
%MOMM*%
%LPD*%
G01*
G04 APERTURE LIST*
%ADD10C,0.150000*%
%ADD11C,0.120000*%
%ADD12C,0.125000*%
G04 APERTURE END LIST*
D10*
X59953100Y-80553100D02*
X59953100Y-75153100D01*
X61203100Y-77353100D02*
X60203100Y-77353100D01*
X60203100Y-77353100D02*
X60703100Y-78253100D01*
X61453100Y-75153100D02*
X61453100Y-80553100D01*
X60703100Y-78253100D02*
X61203100Y-77353100D01*
X61453100Y-75153100D02*
X59953100Y-75153100D01*
X61203100Y-78353100D02*
X60203100Y-78353100D01*
X61453100Y-80553100D02*
X59953100Y-80553100D01*
X80503100Y-80553100D02*
X79003100Y-80553100D01*
X80253100Y-78353100D02*
X79253100Y-78353100D01*
X80503100Y-75153100D02*
X79003100Y-75153100D01*
X79753100Y-78253100D02*
X80253100Y-77353100D01*
X80503100Y-75153100D02*
X80503100Y-80553100D01*
X79253100Y-77353100D02*
X79753100Y-78253100D01*
X80253100Y-77353100D02*
X79253100Y-77353100D01*
X79003100Y-80553100D02*
X79003100Y-75153100D01*
X98053100Y-80553100D02*
X98053100Y-75153100D01*
X99303100Y-77353100D02*
X98303100Y-77353100D01*
X98303100Y-77353100D02*
X98803100Y-78253100D01*
X99553100Y-75153100D02*
X99553100Y-80553100D01*
X98803100Y-78253100D02*
X99303100Y-77353100D01*
X99553100Y-75153100D02*
X98053100Y-75153100D01*
X99303100Y-78353100D02*
X98303100Y-78353100D01*
X99553100Y-80553100D02*
X98053100Y-80553100D01*
X123366000Y-80553100D02*
X121866000Y-80553100D01*
X123116000Y-78353100D02*
X122116000Y-78353100D01*
X123366000Y-75153100D02*
X121866000Y-75153100D01*
X122616000Y-78253100D02*
X123116000Y-77353100D01*
X123366000Y-75153100D02*
X123366000Y-80553100D01*
X122116000Y-77353100D02*
X122616000Y-78253100D01*
X123116000Y-77353100D02*
X122116000Y-77353100D01*
X121866000Y-80553100D02*
X121866000Y-75153100D01*
X140916000Y-80553100D02*
X140916000Y-75153100D01*
X142166000Y-77353100D02*
X141166000Y-77353100D01*
X141166000Y-77353100D02*
X141666000Y-78253100D01*
X142416000Y-75153100D02*
X142416000Y-80553100D01*
X141666000Y-78253100D02*
X142166000Y-77353100D01*
X142416000Y-75153100D02*
X140916000Y-75153100D01*
X142166000Y-78353100D02*
X141166000Y-78353100D01*
X142416000Y-80553100D02*
X140916000Y-80553100D01*
X175753000Y-80553100D02*
X174253000Y-80553100D01*
X175503000Y-78353100D02*
X174503000Y-78353100D01*
X175753000Y-75153100D02*
X174253000Y-75153100D01*
X175003000Y-78253100D02*
X175503000Y-77353100D01*
X175753000Y-75153100D02*
X175753000Y-80553100D01*
X174503000Y-77353100D02*
X175003000Y-78253100D01*
X175503000Y-77353100D02*
X174503000Y-77353100D01*
X174253000Y-80553100D02*
X174253000Y-75153100D01*
X193303000Y-80553100D02*
X193303000Y-75153100D01*
X194553000Y-77353100D02*
X193553000Y-77353100D01*
X193553000Y-77353100D02*
X194053000Y-78253100D01*
X194803000Y-75153100D02*
X194803000Y-80553100D01*
X194053000Y-78253100D02*
X194553000Y-77353100D01*
X194803000Y-75153100D02*
X193303000Y-75153100D01*
X194553000Y-78353100D02*
X193553000Y-78353100D01*
X194803000Y-80553100D02*
X193303000Y-80553100D01*
X218616000Y-80553100D02*
X217116000Y-80553100D01*
X218366000Y-78353100D02*
X217366000Y-78353100D01*
X218616000Y-75153100D02*
X217116000Y-75153100D01*
X217866000Y-78253100D02*
X218366000Y-77353100D01*
X218616000Y-75153100D02*
X218616000Y-80553100D01*
X217366000Y-77353100D02*
X217866000Y-78253100D01*
X218366000Y-77353100D02*
X217366000Y-77353100D01*
X217116000Y-80553100D02*
X217116000Y-75153100D01*
X236166000Y-80553100D02*
X236166000Y-75153100D01*
X237416000Y-77353100D02*
X236416000Y-77353100D01*
X236416000Y-77353100D02*
X236916000Y-78253100D01*
X237666000Y-75153100D02*
X237666000Y-80553100D01*
X236916000Y-78253100D02*
X237416000Y-77353100D01*
X237666000Y-75153100D02*
X236166000Y-75153100D01*
X237416000Y-78353100D02*
X236416000Y-78353100D01*
X237666000Y-80553100D02*
X236166000Y-80553100D01*
X253144000Y-80553100D02*
X251644000Y-80553100D01*
X252894000Y-78353100D02*
X251894000Y-78353100D01*
X253144000Y-75153100D02*
X251644000Y-75153100D01*
X252394000Y-78253100D02*
X252894000Y-77353100D01*
X253144000Y-75153100D02*
X253144000Y-80553100D01*
X251894000Y-77353100D02*
X252394000Y-78253100D01*
X252894000Y-77353100D02*
X251894000Y-77353100D01*
X251644000Y-80553100D02*
X251644000Y-75153100D01*
X59953100Y-99603100D02*
X59953100Y-94203100D01*
X61203100Y-96403100D02*
X60203100Y-96403100D01*
X60203100Y-96403100D02*
X60703100Y-97303100D01*
X61453100Y-94203100D02*
X61453100Y-99603100D01*
X60703100Y-97303100D02*
X61203100Y-96403100D01*
X61453100Y-94203100D02*
X59953100Y-94203100D01*
X61203100Y-97403100D02*
X60203100Y-97403100D01*
X61453100Y-99603100D02*
X59953100Y-99603100D01*
X85265600Y-99603100D02*
X83765600Y-99603100D01*
X85015600Y-97403100D02*
X84015600Y-97403100D01*
X85265600Y-94203100D02*
X83765600Y-94203100D01*
X84515600Y-97303100D02*
X85015600Y-96403100D01*
X85265600Y-94203100D02*
X85265600Y-99603100D01*
X84015600Y-96403100D02*
X84515600Y-97303100D01*
X85015600Y-96403100D02*
X84015600Y-96403100D01*
X83765600Y-99603100D02*
X83765600Y-94203100D01*
X102816000Y-99603100D02*
X102816000Y-94203100D01*
X104066000Y-96403100D02*
X103066000Y-96403100D01*
X103066000Y-96403100D02*
X103566000Y-97303100D01*
X104316000Y-94203100D02*
X104316000Y-99603100D01*
X103566000Y-97303100D02*
X104066000Y-96403100D01*
X104316000Y-94203100D02*
X102816000Y-94203100D01*
X104066000Y-97403100D02*
X103066000Y-97403100D01*
X104316000Y-99603100D02*
X102816000Y-99603100D01*
X128128000Y-99603100D02*
X126628000Y-99603100D01*
X127878000Y-97403100D02*
X126878000Y-97403100D01*
X128128000Y-94203100D02*
X126628000Y-94203100D01*
X127378000Y-97303100D02*
X127878000Y-96403100D01*
X128128000Y-94203100D02*
X128128000Y-99603100D01*
X126878000Y-96403100D02*
X127378000Y-97303100D01*
X127878000Y-96403100D02*
X126878000Y-96403100D01*
X126628000Y-99603100D02*
X126628000Y-94203100D01*
X145678000Y-99603100D02*
X145678000Y-94203100D01*
X146928000Y-96403100D02*
X145928000Y-96403100D01*
X145928000Y-96403100D02*
X146428000Y-97303100D01*
X147178000Y-94203100D02*
X147178000Y-99603100D01*
X146428000Y-97303100D02*
X146928000Y-96403100D01*
X147178000Y-94203100D02*
X145678000Y-94203100D01*
X146928000Y-97403100D02*
X145928000Y-97403100D01*
X147178000Y-99603100D02*
X145678000Y-99603100D01*
X169491000Y-99603100D02*
X169491000Y-94203100D01*
X170741000Y-96403100D02*
X169741000Y-96403100D01*
X169741000Y-96403100D02*
X170241000Y-97303100D01*
X170991000Y-94203100D02*
X170991000Y-99603100D01*
X170241000Y-97303100D02*
X170741000Y-96403100D01*
X170991000Y-94203100D02*
X169491000Y-94203100D01*
X170741000Y-97403100D02*
X169741000Y-97403100D01*
X170991000Y-99603100D02*
X169491000Y-99603100D01*
X190041000Y-99603100D02*
X188541000Y-99603100D01*
X189791000Y-97403100D02*
X188791000Y-97403100D01*
X190041000Y-94203100D02*
X188541000Y-94203100D01*
X189291000Y-97303100D02*
X189791000Y-96403100D01*
X190041000Y-94203100D02*
X190041000Y-99603100D01*
X188791000Y-96403100D02*
X189291000Y-97303100D01*
X189791000Y-96403100D02*
X188791000Y-96403100D01*
X188541000Y-99603100D02*
X188541000Y-94203100D01*
X213853000Y-99603100D02*
X212353000Y-99603100D01*
X213603000Y-97403100D02*
X212603000Y-97403100D01*
X213853000Y-94203100D02*
X212353000Y-94203100D01*
X213103000Y-97303100D02*
X213603000Y-96403100D01*
X213853000Y-94203100D02*
X213853000Y-99603100D01*
X212603000Y-96403100D02*
X213103000Y-97303100D01*
X213603000Y-96403100D02*
X212603000Y-96403100D01*
X212353000Y-99603100D02*
X212353000Y-94203100D01*
X231403000Y-99603100D02*
X231403000Y-94203100D01*
X232653000Y-96403100D02*
X231653000Y-96403100D01*
X231653000Y-96403100D02*
X232153000Y-97303100D01*
X232903000Y-94203100D02*
X232903000Y-99603100D01*
X232153000Y-97303100D02*
X232653000Y-96403100D01*
X232903000Y-94203100D02*
X231403000Y-94203100D01*
X232653000Y-97403100D02*
X231653000Y-97403100D01*
X232903000Y-99603100D02*
X231403000Y-99603100D01*
X253144000Y-99603100D02*
X251644000Y-99603100D01*
X252894000Y-97403100D02*
X251894000Y-97403100D01*
X253144000Y-94203100D02*
X251644000Y-94203100D01*
X252394000Y-97303100D02*
X252894000Y-96403100D01*
X253144000Y-94203100D02*
X253144000Y-99603100D01*
X251894000Y-96403100D02*
X252394000Y-97303100D01*
X252894000Y-96403100D02*
X251894000Y-96403100D01*
X251644000Y-99603100D02*
X251644000Y-94203100D01*
X59953100Y-118653000D02*
X59953100Y-113253000D01*
X61203100Y-115453000D02*
X60203100Y-115453000D01*
X60203100Y-115453000D02*
X60703100Y-116353000D01*
X61453100Y-113253000D02*
X61453100Y-118653000D01*
X60703100Y-116353000D02*
X61203100Y-115453000D01*
X61453100Y-113253000D02*
X59953100Y-113253000D01*
X61203100Y-116453000D02*
X60203100Y-116453000D01*
X61453100Y-118653000D02*
X59953100Y-118653000D01*
X85265600Y-118653000D02*
X83765600Y-118653000D01*
X85015600Y-116453000D02*
X84015600Y-116453000D01*
X85265600Y-113253000D02*
X83765600Y-113253000D01*
X84515600Y-116353000D02*
X85015600Y-115453000D01*
X85265600Y-113253000D02*
X85265600Y-118653000D01*
X84015600Y-115453000D02*
X84515600Y-116353000D01*
X85015600Y-115453000D02*
X84015600Y-115453000D01*
X83765600Y-118653000D02*
X83765600Y-113253000D01*
X102816000Y-118653000D02*
X102816000Y-113253000D01*
X104066000Y-115453000D02*
X103066000Y-115453000D01*
X103066000Y-115453000D02*
X103566000Y-116353000D01*
X104316000Y-113253000D02*
X104316000Y-118653000D01*
X103566000Y-116353000D02*
X104066000Y-115453000D01*
X104316000Y-113253000D02*
X102816000Y-113253000D01*
X104066000Y-116453000D02*
X103066000Y-116453000D01*
X104316000Y-118653000D02*
X102816000Y-118653000D01*
X126628000Y-118653000D02*
X126628000Y-113253000D01*
X127878000Y-115453000D02*
X126878000Y-115453000D01*
X126878000Y-115453000D02*
X127378000Y-116353000D01*
X128128000Y-113253000D02*
X128128000Y-118653000D01*
X127378000Y-116353000D02*
X127878000Y-115453000D01*
X128128000Y-113253000D02*
X126628000Y-113253000D01*
X127878000Y-116453000D02*
X126878000Y-116453000D01*
X128128000Y-118653000D02*
X126628000Y-118653000D01*
X147178000Y-118653000D02*
X145678000Y-118653000D01*
X146928000Y-116453000D02*
X145928000Y-116453000D01*
X147178000Y-113253000D02*
X145678000Y-113253000D01*
X146428000Y-116353000D02*
X146928000Y-115453000D01*
X147178000Y-113253000D02*
X147178000Y-118653000D01*
X145928000Y-115453000D02*
X146428000Y-116353000D01*
X146928000Y-115453000D02*
X145928000Y-115453000D01*
X145678000Y-118653000D02*
X145678000Y-113253000D01*
X169491000Y-118653000D02*
X169491000Y-113253000D01*
X170741000Y-115453000D02*
X169741000Y-115453000D01*
X169741000Y-115453000D02*
X170241000Y-116353000D01*
X170991000Y-113253000D02*
X170991000Y-118653000D01*
X170241000Y-116353000D02*
X170741000Y-115453000D01*
X170991000Y-113253000D02*
X169491000Y-113253000D01*
X170741000Y-116453000D02*
X169741000Y-116453000D01*
X170991000Y-118653000D02*
X169491000Y-118653000D01*
X190041000Y-118653000D02*
X188541000Y-118653000D01*
X189791000Y-116453000D02*
X188791000Y-116453000D01*
X190041000Y-113253000D02*
X188541000Y-113253000D01*
X189291000Y-116353000D02*
X189791000Y-115453000D01*
X190041000Y-113253000D02*
X190041000Y-118653000D01*
X188791000Y-115453000D02*
X189291000Y-116353000D01*
X189791000Y-115453000D02*
X188791000Y-115453000D01*
X188541000Y-118653000D02*
X188541000Y-113253000D01*
X212353000Y-118653000D02*
X212353000Y-113253000D01*
X213603000Y-115453000D02*
X212603000Y-115453000D01*
X212603000Y-115453000D02*
X213103000Y-116353000D01*
X213853000Y-113253000D02*
X213853000Y-118653000D01*
X213103000Y-116353000D02*
X213603000Y-115453000D01*
X213853000Y-113253000D02*
X212353000Y-113253000D01*
X213603000Y-116453000D02*
X212603000Y-116453000D01*
X213853000Y-118653000D02*
X212353000Y-118653000D01*
X232903000Y-118653000D02*
X231403000Y-118653000D01*
X232653000Y-116453000D02*
X231653000Y-116453000D01*
X232903000Y-113253000D02*
X231403000Y-113253000D01*
X232153000Y-116353000D02*
X232653000Y-115453000D01*
X232903000Y-113253000D02*
X232903000Y-118653000D01*
X231653000Y-115453000D02*
X232153000Y-116353000D01*
X232653000Y-115453000D02*
X231653000Y-115453000D01*
X231403000Y-118653000D02*
X231403000Y-113253000D01*
X253144000Y-118653000D02*
X251644000Y-118653000D01*
X252894000Y-116453000D02*
X251894000Y-116453000D01*
X253144000Y-113253000D02*
X251644000Y-113253000D01*
X252394000Y-116353000D02*
X252894000Y-115453000D01*
X253144000Y-113253000D02*
X253144000Y-118653000D01*
X251894000Y-115453000D02*
X252394000Y-116353000D01*
X252894000Y-115453000D02*
X251894000Y-115453000D01*
X251644000Y-118653000D02*
X251644000Y-113253000D01*
X59953100Y-137703000D02*
X59953100Y-132303000D01*
X61203100Y-134503000D02*
X60203100Y-134503000D01*
X60203100Y-134503000D02*
X60703100Y-135403000D01*
X61453100Y-132303000D02*
X61453100Y-137703000D01*
X60703100Y-135403000D02*
X61203100Y-134503000D01*
X61453100Y-132303000D02*
X59953100Y-132303000D01*
X61203100Y-135503000D02*
X60203100Y-135503000D01*
X61453100Y-137703000D02*
X59953100Y-137703000D01*
X80503100Y-137703000D02*
X79003100Y-137703000D01*
X80253100Y-135503000D02*
X79253100Y-135503000D01*
X80503100Y-132303000D02*
X79003100Y-132303000D01*
X79753100Y-135403000D02*
X80253100Y-134503000D01*
X80503100Y-132303000D02*
X80503100Y-137703000D01*
X79253100Y-134503000D02*
X79753100Y-135403000D01*
X80253100Y-134503000D02*
X79253100Y-134503000D01*
X79003100Y-137703000D02*
X79003100Y-132303000D01*
X98053100Y-137703000D02*
X98053100Y-132303000D01*
X99303100Y-134503000D02*
X98303100Y-134503000D01*
X98303100Y-134503000D02*
X98803100Y-135403000D01*
X99553100Y-132303000D02*
X99553100Y-137703000D01*
X98803100Y-135403000D02*
X99303100Y-134503000D01*
X99553100Y-132303000D02*
X98053100Y-132303000D01*
X99303100Y-135503000D02*
X98303100Y-135503000D01*
X99553100Y-137703000D02*
X98053100Y-137703000D01*
X118603000Y-137703000D02*
X117103000Y-137703000D01*
X118353000Y-135503000D02*
X117353000Y-135503000D01*
X118603000Y-132303000D02*
X117103000Y-132303000D01*
X117853000Y-135403000D02*
X118353000Y-134503000D01*
X118603000Y-132303000D02*
X118603000Y-137703000D01*
X117353000Y-134503000D02*
X117853000Y-135403000D01*
X118353000Y-134503000D02*
X117353000Y-134503000D01*
X117103000Y-137703000D02*
X117103000Y-132303000D01*
X137653000Y-137703000D02*
X136153000Y-137703000D01*
X137403000Y-135503000D02*
X136403000Y-135503000D01*
X137653000Y-132303000D02*
X136153000Y-132303000D01*
X136903000Y-135403000D02*
X137403000Y-134503000D01*
X137653000Y-132303000D02*
X137653000Y-137703000D01*
X136403000Y-134503000D02*
X136903000Y-135403000D01*
X137403000Y-134503000D02*
X136403000Y-134503000D01*
X136153000Y-137703000D02*
X136153000Y-132303000D01*
X180516000Y-137703000D02*
X179016000Y-137703000D01*
X180266000Y-135503000D02*
X179266000Y-135503000D01*
X180516000Y-132303000D02*
X179016000Y-132303000D01*
X179766000Y-135403000D02*
X180266000Y-134503000D01*
X180516000Y-132303000D02*
X180516000Y-137703000D01*
X179266000Y-134503000D02*
X179766000Y-135403000D01*
X180266000Y-134503000D02*
X179266000Y-134503000D01*
X179016000Y-137703000D02*
X179016000Y-132303000D01*
X199566000Y-137703000D02*
X198066000Y-137703000D01*
X199316000Y-135503000D02*
X198316000Y-135503000D01*
X199566000Y-132303000D02*
X198066000Y-132303000D01*
X198816000Y-135403000D02*
X199316000Y-134503000D01*
X199566000Y-132303000D02*
X199566000Y-137703000D01*
X198316000Y-134503000D02*
X198816000Y-135403000D01*
X199316000Y-134503000D02*
X198316000Y-134503000D01*
X198066000Y-137703000D02*
X198066000Y-132303000D01*
X218616000Y-137703000D02*
X217116000Y-137703000D01*
X218366000Y-135503000D02*
X217366000Y-135503000D01*
X218616000Y-132303000D02*
X217116000Y-132303000D01*
X217866000Y-135403000D02*
X218366000Y-134503000D01*
X218616000Y-132303000D02*
X218616000Y-137703000D01*
X217366000Y-134503000D02*
X217866000Y-135403000D01*
X218366000Y-134503000D02*
X217366000Y-134503000D01*
X217116000Y-137703000D02*
X217116000Y-132303000D01*
X237666000Y-137703000D02*
X236166000Y-137703000D01*
X237416000Y-135503000D02*
X236416000Y-135503000D01*
X237666000Y-132303000D02*
X236166000Y-132303000D01*
X236916000Y-135403000D02*
X237416000Y-134503000D01*
X237666000Y-132303000D02*
X237666000Y-137703000D01*
X236416000Y-134503000D02*
X236916000Y-135403000D01*
X237416000Y-134503000D02*
X236416000Y-134503000D01*
X236166000Y-137703000D02*
X236166000Y-132303000D01*
X251644000Y-137703000D02*
X251644000Y-132303000D01*
X252894000Y-134503000D02*
X251894000Y-134503000D01*
X251894000Y-134503000D02*
X252394000Y-135403000D01*
X253144000Y-132303000D02*
X253144000Y-137703000D01*
X252394000Y-135403000D02*
X252894000Y-134503000D01*
X253144000Y-132303000D02*
X251644000Y-132303000D01*
X252894000Y-135503000D02*
X251894000Y-135503000D01*
X253144000Y-137703000D02*
X251644000Y-137703000D01*
X100434000Y-153181000D02*
X100434000Y-147781000D01*
X101684000Y-149981000D02*
X100684000Y-149981000D01*
X100684000Y-149981000D02*
X101184000Y-150881000D01*
X101934000Y-147781000D02*
X101934000Y-153181000D01*
X101184000Y-150881000D02*
X101684000Y-149981000D01*
X101934000Y-147781000D02*
X100434000Y-147781000D01*
X101684000Y-150981000D02*
X100684000Y-150981000D01*
X101934000Y-153181000D02*
X100434000Y-153181000D01*
X121866000Y-153181000D02*
X121866000Y-147781000D01*
X123116000Y-149981000D02*
X122116000Y-149981000D01*
X122116000Y-149981000D02*
X122616000Y-150881000D01*
X123366000Y-147781000D02*
X123366000Y-153181000D01*
X122616000Y-150881000D02*
X123116000Y-149981000D01*
X123366000Y-147781000D02*
X121866000Y-147781000D01*
X123116000Y-150981000D02*
X122116000Y-150981000D01*
X123366000Y-153181000D02*
X121866000Y-153181000D01*
X143297000Y-153181000D02*
X143297000Y-147781000D01*
X144547000Y-149981000D02*
X143547000Y-149981000D01*
X143547000Y-149981000D02*
X144047000Y-150881000D01*
X144797000Y-147781000D02*
X144797000Y-153181000D01*
X144047000Y-150881000D02*
X144547000Y-149981000D01*
X144797000Y-147781000D02*
X143297000Y-147781000D01*
X144547000Y-150981000D02*
X143547000Y-150981000D01*
X144797000Y-153181000D02*
X143297000Y-153181000D01*
X157584000Y-140084000D02*
X157584000Y-134684000D01*
X158834000Y-136884000D02*
X157834000Y-136884000D01*
X157834000Y-136884000D02*
X158334000Y-137784000D01*
X159084000Y-134684000D02*
X159084000Y-140084000D01*
X158334000Y-137784000D02*
X158834000Y-136884000D01*
X159084000Y-134684000D02*
X157584000Y-134684000D01*
X158834000Y-137884000D02*
X157834000Y-137884000D01*
X159084000Y-140084000D02*
X157584000Y-140084000D01*
X169491000Y-153181000D02*
X169491000Y-147781000D01*
X170741000Y-149981000D02*
X169741000Y-149981000D01*
X169741000Y-149981000D02*
X170241000Y-150881000D01*
X170991000Y-147781000D02*
X170991000Y-153181000D01*
X170241000Y-150881000D02*
X170741000Y-149981000D01*
X170991000Y-147781000D02*
X169491000Y-147781000D01*
X170741000Y-150981000D02*
X169741000Y-150981000D01*
X170991000Y-153181000D02*
X169491000Y-153181000D01*
X195684000Y-153181000D02*
X195684000Y-147781000D01*
X196934000Y-149981000D02*
X195934000Y-149981000D01*
X195934000Y-149981000D02*
X196434000Y-150881000D01*
X197184000Y-147781000D02*
X197184000Y-153181000D01*
X196434000Y-150881000D02*
X196934000Y-149981000D01*
X197184000Y-147781000D02*
X195684000Y-147781000D01*
X196934000Y-150981000D02*
X195934000Y-150981000D01*
X197184000Y-153181000D02*
X195684000Y-153181000D01*
X218616000Y-153181000D02*
X217116000Y-153181000D01*
X218366000Y-150981000D02*
X217366000Y-150981000D01*
X218616000Y-147781000D02*
X217116000Y-147781000D01*
X217866000Y-150881000D02*
X218366000Y-149981000D01*
X218616000Y-147781000D02*
X218616000Y-153181000D01*
X217366000Y-149981000D02*
X217866000Y-150881000D01*
X218366000Y-149981000D02*
X217366000Y-149981000D01*
X217116000Y-153181000D02*
X217116000Y-147781000D01*
D11*
X146100000Y-74812500D02*
X153900000Y-74812500D01*
X153900000Y-76912500D02*
X153900000Y-78512500D01*
X153900000Y-78512500D02*
X146100000Y-78512500D01*
D12*
X150559523Y-74388690D02*
X150797619Y-74388690D01*
X150797619Y-73888690D01*
X150392857Y-74126785D02*
X150226190Y-74126785D01*
X150154761Y-74388690D02*
X150392857Y-74388690D01*
X150392857Y-73888690D01*
X150154761Y-73888690D01*
X149940476Y-74388690D02*
X149940476Y-73888690D01*
X149821428Y-73888690D01*
X149750000Y-73912500D01*
X149702380Y-73960119D01*
X149678571Y-74007738D01*
X149654761Y-74102976D01*
X149654761Y-74174404D01*
X149678571Y-74269642D01*
X149702380Y-74317261D01*
X149750000Y-74364880D01*
X149821428Y-74388690D01*
X149940476Y-74388690D01*
X149178571Y-74388690D02*
X149464285Y-74388690D01*
X149321428Y-74388690D02*
X149321428Y-73888690D01*
X149369047Y-73960119D01*
X149416666Y-74007738D01*
X149464285Y-74031547D01*
M02*
