G04 #@! TF.GenerationSoftware,KiCad,Pcbnew,(5.1.9)-1*
G04 #@! TF.CreationDate,2021-01-19T21:28:49+09:00*
G04 #@! TF.ProjectId,yuiop47,7975696f-7034-4372-9e6b-696361645f70,1*
G04 #@! TF.SameCoordinates,Original*
G04 #@! TF.FileFunction,Soldermask,Bot*
G04 #@! TF.FilePolarity,Negative*
%FSLAX46Y46*%
G04 Gerber Fmt 4.6, Leading zero omitted, Abs format (unit mm)*
G04 Created by KiCad (PCBNEW (5.1.9)-1) date 2021-01-19 21:28:49*
%MOMM*%
%LPD*%
G01*
G04 APERTURE LIST*
%ADD10C,4.000000*%
%ADD11C,2.000000*%
%ADD12R,1.000000X1.400000*%
%ADD13R,1.700000X1.000000*%
%ADD14C,1.397000*%
%ADD15C,2.400000*%
%ADD16O,2.200000X1.600000*%
%ADD17C,4.900000*%
%ADD18C,1.800000*%
%ADD19O,2.200000X1.500000*%
%ADD20C,1.700000*%
%ADD21C,1.524000*%
G04 APERTURE END LIST*
D10*
X235750000Y-117250000D03*
X64250000Y-117250000D03*
X197750000Y-140750000D03*
X107000000Y-140750000D03*
X150000000Y-117250000D03*
X150000000Y-83500000D03*
X235750000Y-83750000D03*
X64250000Y-83750000D03*
D11*
X153250000Y-68538800D03*
X146750000Y-68538800D03*
X153250000Y-73038800D03*
X146750000Y-73038800D03*
D12*
X60703100Y-79628100D03*
X60703100Y-76078100D03*
X79753100Y-76078100D03*
X79753100Y-79628100D03*
X98803100Y-79628100D03*
X98803100Y-76078100D03*
X122616000Y-76078100D03*
X122616000Y-79628100D03*
X141666000Y-79628100D03*
X141666000Y-76078100D03*
X175003000Y-76078100D03*
X175003000Y-79628100D03*
X194053000Y-79628100D03*
X194053000Y-76078100D03*
X217866000Y-76078100D03*
X217866000Y-79628100D03*
X236916000Y-79628100D03*
X236916000Y-76078100D03*
X252394000Y-76078100D03*
X252394000Y-79628100D03*
X60703100Y-98678100D03*
X60703100Y-95128100D03*
X84515600Y-95128100D03*
X84515600Y-98678100D03*
X103566000Y-98678100D03*
X103566000Y-95128100D03*
X127378000Y-95128100D03*
X127378000Y-98678100D03*
X146428000Y-98678100D03*
X146428000Y-95128100D03*
X170241000Y-98678100D03*
X170241000Y-95128100D03*
X189291000Y-95128100D03*
X189291000Y-98678100D03*
X213103000Y-95128100D03*
X213103000Y-98678100D03*
X232153000Y-98678100D03*
X232153000Y-95128100D03*
X252394000Y-95128100D03*
X252394000Y-98678100D03*
X60703100Y-117728000D03*
X60703100Y-114178000D03*
X84515600Y-114178000D03*
X84515600Y-117728000D03*
X103566000Y-117728000D03*
X103566000Y-114178000D03*
X127378000Y-117728000D03*
X127378000Y-114178000D03*
X146428000Y-114178000D03*
X146428000Y-117728000D03*
X170241000Y-117728000D03*
X170241000Y-114178000D03*
X189291000Y-114178000D03*
X189291000Y-117728000D03*
X213103000Y-117728000D03*
X213103000Y-114178000D03*
X232153000Y-114178000D03*
X232153000Y-117728000D03*
X252394000Y-114178000D03*
X252394000Y-117728000D03*
X60703100Y-136778000D03*
X60703100Y-133228000D03*
X79753100Y-133228000D03*
X79753100Y-136778000D03*
X98803100Y-136778000D03*
X98803100Y-133228000D03*
X117853000Y-133228000D03*
X117853000Y-136778000D03*
X136903000Y-133228000D03*
X136903000Y-136778000D03*
X179766000Y-133228000D03*
X179766000Y-136778000D03*
X198816000Y-133228000D03*
X198816000Y-136778000D03*
X217866000Y-133228000D03*
X217866000Y-136778000D03*
X236916000Y-133228000D03*
X236916000Y-136778000D03*
X252394000Y-136778000D03*
X252394000Y-133228000D03*
X101184000Y-152256000D03*
X101184000Y-148706000D03*
X122616000Y-152256000D03*
X122616000Y-148706000D03*
X144047000Y-152256000D03*
X144047000Y-148706000D03*
X158334000Y-139159000D03*
X158334000Y-135609000D03*
X170241000Y-152256000D03*
X170241000Y-148706000D03*
X196434000Y-152256000D03*
X196434000Y-148706000D03*
X217866000Y-148706000D03*
X217866000Y-152256000D03*
D13*
X152750000Y-77362500D03*
X152750000Y-75962500D03*
X147250000Y-77362500D03*
X147250000Y-75962500D03*
D14*
X220500000Y-144440000D03*
X220500000Y-146980000D03*
X220500000Y-149520000D03*
X220500000Y-152060000D03*
D15*
X54908800Y-66820000D03*
G36*
G01*
X54068926Y-66378797D02*
X54068926Y-66378797D01*
G75*
G02*
X54812352Y-65622281I749971J6545D01*
G01*
X57712242Y-65596975D01*
G75*
G02*
X58468758Y-66340401I6545J-749971D01*
G01*
X58468758Y-66340401D01*
G75*
G02*
X57725332Y-67096917I-749971J-6545D01*
G01*
X54825442Y-67122223D01*
G75*
G02*
X54068926Y-66378797I-6545J749971D01*
G01*
G37*
D16*
X47268800Y-75800000D03*
D17*
X52368800Y-71900000D03*
D18*
X46868800Y-71900000D03*
X57868800Y-71900000D03*
D19*
X52368800Y-77800000D03*
D15*
X48558800Y-69360000D03*
D20*
X57448800Y-71900000D03*
X47288800Y-71900000D03*
X66338800Y-71900000D03*
X76498800Y-71900000D03*
D15*
X67608800Y-69360000D03*
D19*
X71418800Y-77800000D03*
D18*
X76918800Y-71900000D03*
X65918800Y-71900000D03*
D17*
X71418800Y-71900000D03*
D16*
X66318800Y-75800000D03*
G36*
G01*
X73118926Y-66378797D02*
X73118926Y-66378797D01*
G75*
G02*
X73862352Y-65622281I749971J6545D01*
G01*
X76762242Y-65596975D01*
G75*
G02*
X77518758Y-66340401I6545J-749971D01*
G01*
X77518758Y-66340401D01*
G75*
G02*
X76775332Y-67096917I-749971J-6545D01*
G01*
X73875442Y-67122223D01*
G75*
G02*
X73118926Y-66378797I-6545J749971D01*
G01*
G37*
D15*
X73958800Y-66820000D03*
X93008800Y-66820000D03*
G36*
G01*
X92168926Y-66378797D02*
X92168926Y-66378797D01*
G75*
G02*
X92912352Y-65622281I749971J6545D01*
G01*
X95812242Y-65596975D01*
G75*
G02*
X96568758Y-66340401I6545J-749971D01*
G01*
X96568758Y-66340401D01*
G75*
G02*
X95825332Y-67096917I-749971J-6545D01*
G01*
X92925442Y-67122223D01*
G75*
G02*
X92168926Y-66378797I-6545J749971D01*
G01*
G37*
D16*
X85368800Y-75800000D03*
D17*
X90468800Y-71900000D03*
D18*
X84968800Y-71900000D03*
X95968800Y-71900000D03*
D19*
X90468800Y-77800000D03*
D15*
X86658800Y-69360000D03*
D20*
X95548800Y-71900000D03*
X85388800Y-71900000D03*
X109201000Y-71900000D03*
X119361000Y-71900000D03*
D15*
X110471000Y-69360000D03*
D19*
X114281000Y-77800000D03*
D18*
X119781000Y-71900000D03*
X108781000Y-71900000D03*
D17*
X114281000Y-71900000D03*
D16*
X109181000Y-75800000D03*
G36*
G01*
X115981126Y-66378797D02*
X115981126Y-66378797D01*
G75*
G02*
X116724552Y-65622281I749971J6545D01*
G01*
X119624442Y-65596975D01*
G75*
G02*
X120380958Y-66340401I6545J-749971D01*
G01*
X120380958Y-66340401D01*
G75*
G02*
X119637532Y-67096917I-749971J-6545D01*
G01*
X116737642Y-67122223D01*
G75*
G02*
X115981126Y-66378797I-6545J749971D01*
G01*
G37*
D15*
X116821000Y-66820000D03*
X135871000Y-66820000D03*
G36*
G01*
X135031126Y-66378797D02*
X135031126Y-66378797D01*
G75*
G02*
X135774552Y-65622281I749971J6545D01*
G01*
X138674442Y-65596975D01*
G75*
G02*
X139430958Y-66340401I6545J-749971D01*
G01*
X139430958Y-66340401D01*
G75*
G02*
X138687532Y-67096917I-749971J-6545D01*
G01*
X135787642Y-67122223D01*
G75*
G02*
X135031126Y-66378797I-6545J749971D01*
G01*
G37*
D16*
X128231000Y-75800000D03*
D17*
X133331000Y-71900000D03*
D18*
X127831000Y-71900000D03*
X138831000Y-71900000D03*
D19*
X133331000Y-77800000D03*
D15*
X129521000Y-69360000D03*
D20*
X138411000Y-71900000D03*
X128251000Y-71900000D03*
D15*
X169209000Y-66820000D03*
G36*
G01*
X168369126Y-66378797D02*
X168369126Y-66378797D01*
G75*
G02*
X169112552Y-65622281I749971J6545D01*
G01*
X172012442Y-65596975D01*
G75*
G02*
X172768958Y-66340401I6545J-749971D01*
G01*
X172768958Y-66340401D01*
G75*
G02*
X172025532Y-67096917I-749971J-6545D01*
G01*
X169125642Y-67122223D01*
G75*
G02*
X168369126Y-66378797I-6545J749971D01*
G01*
G37*
D16*
X161569000Y-75800000D03*
D17*
X166669000Y-71900000D03*
D18*
X161169000Y-71900000D03*
X172169000Y-71900000D03*
D19*
X166669000Y-77800000D03*
D15*
X162859000Y-69360000D03*
D20*
X171749000Y-71900000D03*
X161589000Y-71900000D03*
X180639000Y-71900000D03*
X190799000Y-71900000D03*
D15*
X181909000Y-69360000D03*
D19*
X185719000Y-77800000D03*
D18*
X191219000Y-71900000D03*
X180219000Y-71900000D03*
D17*
X185719000Y-71900000D03*
D16*
X180619000Y-75800000D03*
G36*
G01*
X187419126Y-66378797D02*
X187419126Y-66378797D01*
G75*
G02*
X188162552Y-65622281I749971J6545D01*
G01*
X191062442Y-65596975D01*
G75*
G02*
X191818958Y-66340401I6545J-749971D01*
G01*
X191818958Y-66340401D01*
G75*
G02*
X191075532Y-67096917I-749971J-6545D01*
G01*
X188175642Y-67122223D01*
G75*
G02*
X187419126Y-66378797I-6545J749971D01*
G01*
G37*
D15*
X188259000Y-66820000D03*
D20*
X204451000Y-71900000D03*
X214611000Y-71900000D03*
D15*
X205721000Y-69360000D03*
D19*
X209531000Y-77800000D03*
D18*
X215031000Y-71900000D03*
X204031000Y-71900000D03*
D17*
X209531000Y-71900000D03*
D16*
X204431000Y-75800000D03*
G36*
G01*
X211231126Y-66378797D02*
X211231126Y-66378797D01*
G75*
G02*
X211974552Y-65622281I749971J6545D01*
G01*
X214874442Y-65596975D01*
G75*
G02*
X215630958Y-66340401I6545J-749971D01*
G01*
X215630958Y-66340401D01*
G75*
G02*
X214887532Y-67096917I-749971J-6545D01*
G01*
X211987642Y-67122223D01*
G75*
G02*
X211231126Y-66378797I-6545J749971D01*
G01*
G37*
D15*
X212071000Y-66820000D03*
X231121000Y-66820000D03*
G36*
G01*
X230281126Y-66378797D02*
X230281126Y-66378797D01*
G75*
G02*
X231024552Y-65622281I749971J6545D01*
G01*
X233924442Y-65596975D01*
G75*
G02*
X234680958Y-66340401I6545J-749971D01*
G01*
X234680958Y-66340401D01*
G75*
G02*
X233937532Y-67096917I-749971J-6545D01*
G01*
X231037642Y-67122223D01*
G75*
G02*
X230281126Y-66378797I-6545J749971D01*
G01*
G37*
D16*
X223481000Y-75800000D03*
D17*
X228581000Y-71900000D03*
D18*
X223081000Y-71900000D03*
X234081000Y-71900000D03*
D19*
X228581000Y-77800000D03*
D15*
X224771000Y-69360000D03*
D20*
X233661000Y-71900000D03*
X223501000Y-71900000D03*
X242551000Y-71900000D03*
X252711000Y-71900000D03*
D15*
X243821000Y-69360000D03*
D19*
X247631000Y-77800000D03*
D18*
X253131000Y-71900000D03*
X242131000Y-71900000D03*
D17*
X247631000Y-71900000D03*
D16*
X242531000Y-75800000D03*
G36*
G01*
X249331126Y-66378797D02*
X249331126Y-66378797D01*
G75*
G02*
X250074552Y-65622281I749971J6545D01*
G01*
X252974442Y-65596975D01*
G75*
G02*
X253730958Y-66340401I6545J-749971D01*
G01*
X253730958Y-66340401D01*
G75*
G02*
X252987532Y-67096917I-749971J-6545D01*
G01*
X250087642Y-67122223D01*
G75*
G02*
X249331126Y-66378797I-6545J749971D01*
G01*
G37*
D15*
X250171000Y-66820000D03*
D20*
X47288800Y-90950000D03*
X57448800Y-90950000D03*
D15*
X48558800Y-88410000D03*
D19*
X52368800Y-96850000D03*
D18*
X57868800Y-90950000D03*
X46868800Y-90950000D03*
D17*
X52368800Y-90950000D03*
D16*
X47268800Y-94850000D03*
G36*
G01*
X54068926Y-85428797D02*
X54068926Y-85428797D01*
G75*
G02*
X54812352Y-84672281I749971J6545D01*
G01*
X57712242Y-84646975D01*
G75*
G02*
X58468758Y-85390401I6545J-749971D01*
G01*
X58468758Y-85390401D01*
G75*
G02*
X57725332Y-86146917I-749971J-6545D01*
G01*
X54825442Y-86172223D01*
G75*
G02*
X54068926Y-85428797I-6545J749971D01*
G01*
G37*
D15*
X54908800Y-85870000D03*
D20*
X71101200Y-90950000D03*
X81261200Y-90950000D03*
D15*
X72371200Y-88410000D03*
D19*
X76181200Y-96850000D03*
D18*
X81681200Y-90950000D03*
X70681200Y-90950000D03*
D17*
X76181200Y-90950000D03*
D16*
X71081200Y-94850000D03*
G36*
G01*
X77881326Y-85428797D02*
X77881326Y-85428797D01*
G75*
G02*
X78624752Y-84672281I749971J6545D01*
G01*
X81524642Y-84646975D01*
G75*
G02*
X82281158Y-85390401I6545J-749971D01*
G01*
X82281158Y-85390401D01*
G75*
G02*
X81537732Y-86146917I-749971J-6545D01*
G01*
X78637842Y-86172223D01*
G75*
G02*
X77881326Y-85428797I-6545J749971D01*
G01*
G37*
D15*
X78721200Y-85870000D03*
X97771200Y-85870000D03*
G36*
G01*
X96931326Y-85428797D02*
X96931326Y-85428797D01*
G75*
G02*
X97674752Y-84672281I749971J6545D01*
G01*
X100574642Y-84646975D01*
G75*
G02*
X101331158Y-85390401I6545J-749971D01*
G01*
X101331158Y-85390401D01*
G75*
G02*
X100587732Y-86146917I-749971J-6545D01*
G01*
X97687842Y-86172223D01*
G75*
G02*
X96931326Y-85428797I-6545J749971D01*
G01*
G37*
D16*
X90131200Y-94850000D03*
D17*
X95231200Y-90950000D03*
D18*
X89731200Y-90950000D03*
X100731200Y-90950000D03*
D19*
X95231200Y-96850000D03*
D15*
X91421200Y-88410000D03*
D20*
X100311200Y-90950000D03*
X90151200Y-90950000D03*
D15*
X121584000Y-85870000D03*
G36*
G01*
X120744126Y-85428797D02*
X120744126Y-85428797D01*
G75*
G02*
X121487552Y-84672281I749971J6545D01*
G01*
X124387442Y-84646975D01*
G75*
G02*
X125143958Y-85390401I6545J-749971D01*
G01*
X125143958Y-85390401D01*
G75*
G02*
X124400532Y-86146917I-749971J-6545D01*
G01*
X121500642Y-86172223D01*
G75*
G02*
X120744126Y-85428797I-6545J749971D01*
G01*
G37*
D16*
X113944000Y-94850000D03*
D17*
X119044000Y-90950000D03*
D18*
X113544000Y-90950000D03*
X124544000Y-90950000D03*
D19*
X119044000Y-96850000D03*
D15*
X115234000Y-88410000D03*
D20*
X124124000Y-90950000D03*
X113964000Y-90950000D03*
D15*
X140634000Y-85870000D03*
G36*
G01*
X139794126Y-85428797D02*
X139794126Y-85428797D01*
G75*
G02*
X140537552Y-84672281I749971J6545D01*
G01*
X143437442Y-84646975D01*
G75*
G02*
X144193958Y-85390401I6545J-749971D01*
G01*
X144193958Y-85390401D01*
G75*
G02*
X143450532Y-86146917I-749971J-6545D01*
G01*
X140550642Y-86172223D01*
G75*
G02*
X139794126Y-85428797I-6545J749971D01*
G01*
G37*
D16*
X132994000Y-94850000D03*
D17*
X138094000Y-90950000D03*
D18*
X132594000Y-90950000D03*
X143594000Y-90950000D03*
D19*
X138094000Y-96850000D03*
D15*
X134284000Y-88410000D03*
D20*
X143174000Y-90950000D03*
X133014000Y-90950000D03*
X156826000Y-90950000D03*
X166986000Y-90950000D03*
D15*
X158096000Y-88410000D03*
D19*
X161906000Y-96850000D03*
D18*
X167406000Y-90950000D03*
X156406000Y-90950000D03*
D17*
X161906000Y-90950000D03*
D16*
X156806000Y-94850000D03*
G36*
G01*
X163606126Y-85428797D02*
X163606126Y-85428797D01*
G75*
G02*
X164349552Y-84672281I749971J6545D01*
G01*
X167249442Y-84646975D01*
G75*
G02*
X168005958Y-85390401I6545J-749971D01*
G01*
X168005958Y-85390401D01*
G75*
G02*
X167262532Y-86146917I-749971J-6545D01*
G01*
X164362642Y-86172223D01*
G75*
G02*
X163606126Y-85428797I-6545J749971D01*
G01*
G37*
D15*
X164446000Y-85870000D03*
D20*
X175876000Y-90950000D03*
X186036000Y-90950000D03*
D15*
X177146000Y-88410000D03*
D19*
X180956000Y-96850000D03*
D18*
X186456000Y-90950000D03*
X175456000Y-90950000D03*
D17*
X180956000Y-90950000D03*
D16*
X175856000Y-94850000D03*
G36*
G01*
X182656126Y-85428797D02*
X182656126Y-85428797D01*
G75*
G02*
X183399552Y-84672281I749971J6545D01*
G01*
X186299442Y-84646975D01*
G75*
G02*
X187055958Y-85390401I6545J-749971D01*
G01*
X187055958Y-85390401D01*
G75*
G02*
X186312532Y-86146917I-749971J-6545D01*
G01*
X183412642Y-86172223D01*
G75*
G02*
X182656126Y-85428797I-6545J749971D01*
G01*
G37*
D15*
X183496000Y-85870000D03*
X207309000Y-85870000D03*
G36*
G01*
X206469126Y-85428797D02*
X206469126Y-85428797D01*
G75*
G02*
X207212552Y-84672281I749971J6545D01*
G01*
X210112442Y-84646975D01*
G75*
G02*
X210868958Y-85390401I6545J-749971D01*
G01*
X210868958Y-85390401D01*
G75*
G02*
X210125532Y-86146917I-749971J-6545D01*
G01*
X207225642Y-86172223D01*
G75*
G02*
X206469126Y-85428797I-6545J749971D01*
G01*
G37*
D16*
X199669000Y-94850000D03*
D17*
X204769000Y-90950000D03*
D18*
X199269000Y-90950000D03*
X210269000Y-90950000D03*
D19*
X204769000Y-96850000D03*
D15*
X200959000Y-88410000D03*
D20*
X209849000Y-90950000D03*
X199689000Y-90950000D03*
D15*
X226359000Y-85870000D03*
G36*
G01*
X225519126Y-85428797D02*
X225519126Y-85428797D01*
G75*
G02*
X226262552Y-84672281I749971J6545D01*
G01*
X229162442Y-84646975D01*
G75*
G02*
X229918958Y-85390401I6545J-749971D01*
G01*
X229918958Y-85390401D01*
G75*
G02*
X229175532Y-86146917I-749971J-6545D01*
G01*
X226275642Y-86172223D01*
G75*
G02*
X225519126Y-85428797I-6545J749971D01*
G01*
G37*
D16*
X218719000Y-94850000D03*
D17*
X223819000Y-90950000D03*
D18*
X218319000Y-90950000D03*
X229319000Y-90950000D03*
D19*
X223819000Y-96850000D03*
D15*
X220009000Y-88410000D03*
D20*
X228899000Y-90950000D03*
X218739000Y-90950000D03*
X242551000Y-90950000D03*
X252711000Y-90950000D03*
D15*
X243821000Y-88410000D03*
D19*
X247631000Y-96850000D03*
D18*
X253131000Y-90950000D03*
X242131000Y-90950000D03*
D17*
X247631000Y-90950000D03*
D16*
X242531000Y-94850000D03*
G36*
G01*
X249331126Y-85428797D02*
X249331126Y-85428797D01*
G75*
G02*
X250074552Y-84672281I749971J6545D01*
G01*
X252974442Y-84646975D01*
G75*
G02*
X253730958Y-85390401I6545J-749971D01*
G01*
X253730958Y-85390401D01*
G75*
G02*
X252987532Y-86146917I-749971J-6545D01*
G01*
X250087642Y-86172223D01*
G75*
G02*
X249331126Y-85428797I-6545J749971D01*
G01*
G37*
D15*
X250171000Y-85870000D03*
D20*
X47288800Y-110000000D03*
X57448800Y-110000000D03*
D15*
X48558800Y-107460000D03*
D19*
X52368800Y-115900000D03*
D18*
X57868800Y-110000000D03*
X46868800Y-110000000D03*
D17*
X52368800Y-110000000D03*
D16*
X47268800Y-113900000D03*
G36*
G01*
X54068926Y-104478797D02*
X54068926Y-104478797D01*
G75*
G02*
X54812352Y-103722281I749971J6545D01*
G01*
X57712242Y-103696975D01*
G75*
G02*
X58468758Y-104440401I6545J-749971D01*
G01*
X58468758Y-104440401D01*
G75*
G02*
X57725332Y-105196917I-749971J-6545D01*
G01*
X54825442Y-105222223D01*
G75*
G02*
X54068926Y-104478797I-6545J749971D01*
G01*
G37*
D15*
X54908800Y-104920000D03*
X78721200Y-104920000D03*
G36*
G01*
X77881326Y-104478797D02*
X77881326Y-104478797D01*
G75*
G02*
X78624752Y-103722281I749971J6545D01*
G01*
X81524642Y-103696975D01*
G75*
G02*
X82281158Y-104440401I6545J-749971D01*
G01*
X82281158Y-104440401D01*
G75*
G02*
X81537732Y-105196917I-749971J-6545D01*
G01*
X78637842Y-105222223D01*
G75*
G02*
X77881326Y-104478797I-6545J749971D01*
G01*
G37*
D16*
X71081200Y-113900000D03*
D17*
X76181200Y-110000000D03*
D18*
X70681200Y-110000000D03*
X81681200Y-110000000D03*
D19*
X76181200Y-115900000D03*
D15*
X72371200Y-107460000D03*
D20*
X81261200Y-110000000D03*
X71101200Y-110000000D03*
D15*
X97771200Y-104920000D03*
G36*
G01*
X96931326Y-104478797D02*
X96931326Y-104478797D01*
G75*
G02*
X97674752Y-103722281I749971J6545D01*
G01*
X100574642Y-103696975D01*
G75*
G02*
X101331158Y-104440401I6545J-749971D01*
G01*
X101331158Y-104440401D01*
G75*
G02*
X100587732Y-105196917I-749971J-6545D01*
G01*
X97687842Y-105222223D01*
G75*
G02*
X96931326Y-104478797I-6545J749971D01*
G01*
G37*
D16*
X90131200Y-113900000D03*
D17*
X95231200Y-110000000D03*
D18*
X89731200Y-110000000D03*
X100731200Y-110000000D03*
D19*
X95231200Y-115900000D03*
D15*
X91421200Y-107460000D03*
D20*
X100311200Y-110000000D03*
X90151200Y-110000000D03*
X113964000Y-110000000D03*
X124124000Y-110000000D03*
D15*
X115234000Y-107460000D03*
D19*
X119044000Y-115900000D03*
D18*
X124544000Y-110000000D03*
X113544000Y-110000000D03*
D17*
X119044000Y-110000000D03*
D16*
X113944000Y-113900000D03*
G36*
G01*
X120744126Y-104478797D02*
X120744126Y-104478797D01*
G75*
G02*
X121487552Y-103722281I749971J6545D01*
G01*
X124387442Y-103696975D01*
G75*
G02*
X125143958Y-104440401I6545J-749971D01*
G01*
X125143958Y-104440401D01*
G75*
G02*
X124400532Y-105196917I-749971J-6545D01*
G01*
X121500642Y-105222223D01*
G75*
G02*
X120744126Y-104478797I-6545J749971D01*
G01*
G37*
D15*
X121584000Y-104920000D03*
D20*
X133014000Y-110000000D03*
X143174000Y-110000000D03*
D15*
X134284000Y-107460000D03*
D19*
X138094000Y-115900000D03*
D18*
X143594000Y-110000000D03*
X132594000Y-110000000D03*
D17*
X138094000Y-110000000D03*
D16*
X132994000Y-113900000D03*
G36*
G01*
X139794126Y-104478797D02*
X139794126Y-104478797D01*
G75*
G02*
X140537552Y-103722281I749971J6545D01*
G01*
X143437442Y-103696975D01*
G75*
G02*
X144193958Y-104440401I6545J-749971D01*
G01*
X144193958Y-104440401D01*
G75*
G02*
X143450532Y-105196917I-749971J-6545D01*
G01*
X140550642Y-105222223D01*
G75*
G02*
X139794126Y-104478797I-6545J749971D01*
G01*
G37*
D15*
X140634000Y-104920000D03*
X164446000Y-104920000D03*
G36*
G01*
X163606126Y-104478797D02*
X163606126Y-104478797D01*
G75*
G02*
X164349552Y-103722281I749971J6545D01*
G01*
X167249442Y-103696975D01*
G75*
G02*
X168005958Y-104440401I6545J-749971D01*
G01*
X168005958Y-104440401D01*
G75*
G02*
X167262532Y-105196917I-749971J-6545D01*
G01*
X164362642Y-105222223D01*
G75*
G02*
X163606126Y-104478797I-6545J749971D01*
G01*
G37*
D16*
X156806000Y-113900000D03*
D17*
X161906000Y-110000000D03*
D18*
X156406000Y-110000000D03*
X167406000Y-110000000D03*
D19*
X161906000Y-115900000D03*
D15*
X158096000Y-107460000D03*
D20*
X166986000Y-110000000D03*
X156826000Y-110000000D03*
D15*
X183496000Y-104920000D03*
G36*
G01*
X182656126Y-104478797D02*
X182656126Y-104478797D01*
G75*
G02*
X183399552Y-103722281I749971J6545D01*
G01*
X186299442Y-103696975D01*
G75*
G02*
X187055958Y-104440401I6545J-749971D01*
G01*
X187055958Y-104440401D01*
G75*
G02*
X186312532Y-105196917I-749971J-6545D01*
G01*
X183412642Y-105222223D01*
G75*
G02*
X182656126Y-104478797I-6545J749971D01*
G01*
G37*
D16*
X175856000Y-113900000D03*
D17*
X180956000Y-110000000D03*
D18*
X175456000Y-110000000D03*
X186456000Y-110000000D03*
D19*
X180956000Y-115900000D03*
D15*
X177146000Y-107460000D03*
D20*
X186036000Y-110000000D03*
X175876000Y-110000000D03*
X199689000Y-110000000D03*
X209849000Y-110000000D03*
D15*
X200959000Y-107460000D03*
D19*
X204769000Y-115900000D03*
D18*
X210269000Y-110000000D03*
X199269000Y-110000000D03*
D17*
X204769000Y-110000000D03*
D16*
X199669000Y-113900000D03*
G36*
G01*
X206469126Y-104478797D02*
X206469126Y-104478797D01*
G75*
G02*
X207212552Y-103722281I749971J6545D01*
G01*
X210112442Y-103696975D01*
G75*
G02*
X210868958Y-104440401I6545J-749971D01*
G01*
X210868958Y-104440401D01*
G75*
G02*
X210125532Y-105196917I-749971J-6545D01*
G01*
X207225642Y-105222223D01*
G75*
G02*
X206469126Y-104478797I-6545J749971D01*
G01*
G37*
D15*
X207309000Y-104920000D03*
D20*
X218739000Y-110000000D03*
X228899000Y-110000000D03*
D15*
X220009000Y-107460000D03*
D19*
X223819000Y-115900000D03*
D18*
X229319000Y-110000000D03*
X218319000Y-110000000D03*
D17*
X223819000Y-110000000D03*
D16*
X218719000Y-113900000D03*
G36*
G01*
X225519126Y-104478797D02*
X225519126Y-104478797D01*
G75*
G02*
X226262552Y-103722281I749971J6545D01*
G01*
X229162442Y-103696975D01*
G75*
G02*
X229918958Y-104440401I6545J-749971D01*
G01*
X229918958Y-104440401D01*
G75*
G02*
X229175532Y-105196917I-749971J-6545D01*
G01*
X226275642Y-105222223D01*
G75*
G02*
X225519126Y-104478797I-6545J749971D01*
G01*
G37*
D15*
X226359000Y-104920000D03*
X250171000Y-104920000D03*
G36*
G01*
X249331126Y-104478797D02*
X249331126Y-104478797D01*
G75*
G02*
X250074552Y-103722281I749971J6545D01*
G01*
X252974442Y-103696975D01*
G75*
G02*
X253730958Y-104440401I6545J-749971D01*
G01*
X253730958Y-104440401D01*
G75*
G02*
X252987532Y-105196917I-749971J-6545D01*
G01*
X250087642Y-105222223D01*
G75*
G02*
X249331126Y-104478797I-6545J749971D01*
G01*
G37*
D16*
X242531000Y-113900000D03*
D17*
X247631000Y-110000000D03*
D18*
X242131000Y-110000000D03*
X253131000Y-110000000D03*
D19*
X247631000Y-115900000D03*
D15*
X243821000Y-107460000D03*
D20*
X252711000Y-110000000D03*
X242551000Y-110000000D03*
D15*
X54908800Y-123970000D03*
G36*
G01*
X54068926Y-123528797D02*
X54068926Y-123528797D01*
G75*
G02*
X54812352Y-122772281I749971J6545D01*
G01*
X57712242Y-122746975D01*
G75*
G02*
X58468758Y-123490401I6545J-749971D01*
G01*
X58468758Y-123490401D01*
G75*
G02*
X57725332Y-124246917I-749971J-6545D01*
G01*
X54825442Y-124272223D01*
G75*
G02*
X54068926Y-123528797I-6545J749971D01*
G01*
G37*
D16*
X47268800Y-132950000D03*
D17*
X52368800Y-129050000D03*
D18*
X46868800Y-129050000D03*
X57868800Y-129050000D03*
D19*
X52368800Y-134950000D03*
D15*
X48558800Y-126510000D03*
D20*
X57448800Y-129050000D03*
X47288800Y-129050000D03*
X66338800Y-129050000D03*
X76498800Y-129050000D03*
D15*
X67608800Y-126510000D03*
D19*
X71418800Y-134950000D03*
D18*
X76918800Y-129050000D03*
X65918800Y-129050000D03*
D17*
X71418800Y-129050000D03*
D16*
X66318800Y-132950000D03*
G36*
G01*
X73118926Y-123528797D02*
X73118926Y-123528797D01*
G75*
G02*
X73862352Y-122772281I749971J6545D01*
G01*
X76762242Y-122746975D01*
G75*
G02*
X77518758Y-123490401I6545J-749971D01*
G01*
X77518758Y-123490401D01*
G75*
G02*
X76775332Y-124246917I-749971J-6545D01*
G01*
X73875442Y-124272223D01*
G75*
G02*
X73118926Y-123528797I-6545J749971D01*
G01*
G37*
D15*
X73958800Y-123970000D03*
X93008800Y-123970000D03*
G36*
G01*
X92168926Y-123528797D02*
X92168926Y-123528797D01*
G75*
G02*
X92912352Y-122772281I749971J6545D01*
G01*
X95812242Y-122746975D01*
G75*
G02*
X96568758Y-123490401I6545J-749971D01*
G01*
X96568758Y-123490401D01*
G75*
G02*
X95825332Y-124246917I-749971J-6545D01*
G01*
X92925442Y-124272223D01*
G75*
G02*
X92168926Y-123528797I-6545J749971D01*
G01*
G37*
D16*
X85368800Y-132950000D03*
D17*
X90468800Y-129050000D03*
D18*
X84968800Y-129050000D03*
X95968800Y-129050000D03*
D19*
X90468800Y-134950000D03*
D15*
X86658800Y-126510000D03*
D20*
X95548800Y-129050000D03*
X85388800Y-129050000D03*
X104200000Y-129050000D03*
X114360000Y-129050000D03*
D15*
X105470000Y-126510000D03*
D19*
X109280000Y-134950000D03*
D18*
X114780000Y-129050000D03*
X103780000Y-129050000D03*
D17*
X109280000Y-129050000D03*
D16*
X104180000Y-132950000D03*
G36*
G01*
X110980126Y-123528797D02*
X110980126Y-123528797D01*
G75*
G02*
X111723552Y-122772281I749971J6545D01*
G01*
X114623442Y-122746975D01*
G75*
G02*
X115379958Y-123490401I6545J-749971D01*
G01*
X115379958Y-123490401D01*
G75*
G02*
X114636532Y-124246917I-749971J-6545D01*
G01*
X111736642Y-124272223D01*
G75*
G02*
X110980126Y-123528797I-6545J749971D01*
G01*
G37*
D15*
X111820000Y-123970000D03*
X131109000Y-123970000D03*
G36*
G01*
X130269126Y-123528797D02*
X130269126Y-123528797D01*
G75*
G02*
X131012552Y-122772281I749971J6545D01*
G01*
X133912442Y-122746975D01*
G75*
G02*
X134668958Y-123490401I6545J-749971D01*
G01*
X134668958Y-123490401D01*
G75*
G02*
X133925532Y-124246917I-749971J-6545D01*
G01*
X131025642Y-124272223D01*
G75*
G02*
X130269126Y-123528797I-6545J749971D01*
G01*
G37*
D16*
X123469000Y-132950000D03*
D17*
X128569000Y-129050000D03*
D18*
X123069000Y-129050000D03*
X134069000Y-129050000D03*
D19*
X128569000Y-134950000D03*
D15*
X124759000Y-126510000D03*
D20*
X133649000Y-129050000D03*
X123489000Y-129050000D03*
X166351000Y-129050000D03*
X176511000Y-129050000D03*
D15*
X167621000Y-126510000D03*
D19*
X171431000Y-134950000D03*
D18*
X176931000Y-129050000D03*
X165931000Y-129050000D03*
D17*
X171431000Y-129050000D03*
D16*
X166331000Y-132950000D03*
G36*
G01*
X173131126Y-123528797D02*
X173131126Y-123528797D01*
G75*
G02*
X173874552Y-122772281I749971J6545D01*
G01*
X176774442Y-122746975D01*
G75*
G02*
X177530958Y-123490401I6545J-749971D01*
G01*
X177530958Y-123490401D01*
G75*
G02*
X176787532Y-124246917I-749971J-6545D01*
G01*
X173887642Y-124272223D01*
G75*
G02*
X173131126Y-123528797I-6545J749971D01*
G01*
G37*
D15*
X173971000Y-123970000D03*
X193021000Y-123970000D03*
G36*
G01*
X192181126Y-123528797D02*
X192181126Y-123528797D01*
G75*
G02*
X192924552Y-122772281I749971J6545D01*
G01*
X195824442Y-122746975D01*
G75*
G02*
X196580958Y-123490401I6545J-749971D01*
G01*
X196580958Y-123490401D01*
G75*
G02*
X195837532Y-124246917I-749971J-6545D01*
G01*
X192937642Y-124272223D01*
G75*
G02*
X192181126Y-123528797I-6545J749971D01*
G01*
G37*
D16*
X185381000Y-132950000D03*
D17*
X190481000Y-129050000D03*
D18*
X184981000Y-129050000D03*
X195981000Y-129050000D03*
D19*
X190481000Y-134950000D03*
D15*
X186671000Y-126510000D03*
D20*
X195561000Y-129050000D03*
X185401000Y-129050000D03*
X204451000Y-129050000D03*
X214611000Y-129050000D03*
D15*
X205721000Y-126510000D03*
D19*
X209531000Y-134950000D03*
D18*
X215031000Y-129050000D03*
X204031000Y-129050000D03*
D17*
X209531000Y-129050000D03*
D16*
X204431000Y-132950000D03*
G36*
G01*
X211231126Y-123528797D02*
X211231126Y-123528797D01*
G75*
G02*
X211974552Y-122772281I749971J6545D01*
G01*
X214874442Y-122746975D01*
G75*
G02*
X215630958Y-123490401I6545J-749971D01*
G01*
X215630958Y-123490401D01*
G75*
G02*
X214887532Y-124246917I-749971J-6545D01*
G01*
X211987642Y-124272223D01*
G75*
G02*
X211231126Y-123528797I-6545J749971D01*
G01*
G37*
D15*
X212071000Y-123970000D03*
X231121000Y-123970000D03*
G36*
G01*
X230281126Y-123528797D02*
X230281126Y-123528797D01*
G75*
G02*
X231024552Y-122772281I749971J6545D01*
G01*
X233924442Y-122746975D01*
G75*
G02*
X234680958Y-123490401I6545J-749971D01*
G01*
X234680958Y-123490401D01*
G75*
G02*
X233937532Y-124246917I-749971J-6545D01*
G01*
X231037642Y-124272223D01*
G75*
G02*
X230281126Y-123528797I-6545J749971D01*
G01*
G37*
D16*
X223481000Y-132950000D03*
D17*
X228581000Y-129050000D03*
D18*
X223081000Y-129050000D03*
X234081000Y-129050000D03*
D19*
X228581000Y-134950000D03*
D15*
X224771000Y-126510000D03*
D20*
X233661000Y-129050000D03*
X223501000Y-129050000D03*
X242551000Y-129050000D03*
X252711000Y-129050000D03*
D15*
X243821000Y-126510000D03*
D19*
X247631000Y-134950000D03*
D18*
X253131000Y-129050000D03*
X242131000Y-129050000D03*
D17*
X247631000Y-129050000D03*
D16*
X242531000Y-132950000D03*
G36*
G01*
X249331126Y-123528797D02*
X249331126Y-123528797D01*
G75*
G02*
X250074552Y-122772281I749971J6545D01*
G01*
X252974442Y-122746975D01*
G75*
G02*
X253730958Y-123490401I6545J-749971D01*
G01*
X253730958Y-123490401D01*
G75*
G02*
X252987532Y-124246917I-749971J-6545D01*
G01*
X250087642Y-124272223D01*
G75*
G02*
X249331126Y-123528797I-6545J749971D01*
G01*
G37*
D15*
X250171000Y-123970000D03*
D20*
X87770000Y-148100000D03*
X97930000Y-148100000D03*
D15*
X89040000Y-145560000D03*
D19*
X92850000Y-154000000D03*
D18*
X98350000Y-148100000D03*
X87350000Y-148100000D03*
D17*
X92850000Y-148100000D03*
D16*
X87750000Y-152000000D03*
G36*
G01*
X94550126Y-142578797D02*
X94550126Y-142578797D01*
G75*
G02*
X95293552Y-141822281I749971J6545D01*
G01*
X98193442Y-141796975D01*
G75*
G02*
X98949958Y-142540401I6545J-749971D01*
G01*
X98949958Y-142540401D01*
G75*
G02*
X98206532Y-143296917I-749971J-6545D01*
G01*
X95306642Y-143322223D01*
G75*
G02*
X94550126Y-142578797I-6545J749971D01*
G01*
G37*
D15*
X95390000Y-143020000D03*
X116821000Y-143020000D03*
G36*
G01*
X115981126Y-142578797D02*
X115981126Y-142578797D01*
G75*
G02*
X116724552Y-141822281I749971J6545D01*
G01*
X119624442Y-141796975D01*
G75*
G02*
X120380958Y-142540401I6545J-749971D01*
G01*
X120380958Y-142540401D01*
G75*
G02*
X119637532Y-143296917I-749971J-6545D01*
G01*
X116737642Y-143322223D01*
G75*
G02*
X115981126Y-142578797I-6545J749971D01*
G01*
G37*
D16*
X109181000Y-152000000D03*
D17*
X114281000Y-148100000D03*
D18*
X108781000Y-148100000D03*
X119781000Y-148100000D03*
D19*
X114281000Y-154000000D03*
D15*
X110471000Y-145560000D03*
D20*
X119361000Y-148100000D03*
X109201000Y-148100000D03*
D15*
X138252000Y-143020000D03*
G36*
G01*
X137412126Y-142578797D02*
X137412126Y-142578797D01*
G75*
G02*
X138155552Y-141822281I749971J6545D01*
G01*
X141055442Y-141796975D01*
G75*
G02*
X141811958Y-142540401I6545J-749971D01*
G01*
X141811958Y-142540401D01*
G75*
G02*
X141068532Y-143296917I-749971J-6545D01*
G01*
X138168642Y-143322223D01*
G75*
G02*
X137412126Y-142578797I-6545J749971D01*
G01*
G37*
D16*
X130612000Y-152000000D03*
D17*
X135712000Y-148100000D03*
D18*
X130212000Y-148100000D03*
X141212000Y-148100000D03*
D19*
X135712000Y-154000000D03*
D15*
X131902000Y-145560000D03*
D20*
X140792000Y-148100000D03*
X130632000Y-148100000D03*
X144920000Y-129050000D03*
X155080000Y-129050000D03*
D15*
X146190000Y-126510000D03*
D19*
X150000000Y-134950000D03*
D18*
X155500000Y-129050000D03*
X144500000Y-129050000D03*
D17*
X150000000Y-129050000D03*
D16*
X144900000Y-132950000D03*
G36*
G01*
X151700126Y-123528797D02*
X151700126Y-123528797D01*
G75*
G02*
X152443552Y-122772281I749971J6545D01*
G01*
X155343442Y-122746975D01*
G75*
G02*
X156099958Y-123490401I6545J-749971D01*
G01*
X156099958Y-123490401D01*
G75*
G02*
X155356532Y-124246917I-749971J-6545D01*
G01*
X152456642Y-124272223D01*
G75*
G02*
X151700126Y-123528797I-6545J749971D01*
G01*
G37*
D15*
X152540000Y-123970000D03*
D20*
X156826000Y-148100000D03*
X166986000Y-148100000D03*
D15*
X158096000Y-145560000D03*
D19*
X161906000Y-154000000D03*
D18*
X167406000Y-148100000D03*
X156406000Y-148100000D03*
D17*
X161906000Y-148100000D03*
D16*
X156806000Y-152000000D03*
G36*
G01*
X163606126Y-142578797D02*
X163606126Y-142578797D01*
G75*
G02*
X164349552Y-141822281I749971J6545D01*
G01*
X167249442Y-141796975D01*
G75*
G02*
X168005958Y-142540401I6545J-749971D01*
G01*
X168005958Y-142540401D01*
G75*
G02*
X167262532Y-143296917I-749971J-6545D01*
G01*
X164362642Y-143322223D01*
G75*
G02*
X163606126Y-142578797I-6545J749971D01*
G01*
G37*
D15*
X164446000Y-143020000D03*
X190640000Y-143020000D03*
G36*
G01*
X189800126Y-142578797D02*
X189800126Y-142578797D01*
G75*
G02*
X190543552Y-141822281I749971J6545D01*
G01*
X193443442Y-141796975D01*
G75*
G02*
X194199958Y-142540401I6545J-749971D01*
G01*
X194199958Y-142540401D01*
G75*
G02*
X193456532Y-143296917I-749971J-6545D01*
G01*
X190556642Y-143322223D01*
G75*
G02*
X189800126Y-142578797I-6545J749971D01*
G01*
G37*
D16*
X183000000Y-152000000D03*
D17*
X188100000Y-148100000D03*
D18*
X182600000Y-148100000D03*
X193600000Y-148100000D03*
D19*
X188100000Y-154000000D03*
D15*
X184290000Y-145560000D03*
D20*
X193180000Y-148100000D03*
X183020000Y-148100000D03*
X204451000Y-148100000D03*
X214611000Y-148100000D03*
D15*
X205721000Y-145560000D03*
D19*
X209531000Y-154000000D03*
D18*
X215031000Y-148100000D03*
X204031000Y-148100000D03*
D17*
X209531000Y-148100000D03*
D16*
X204431000Y-152000000D03*
G36*
G01*
X211231126Y-142578797D02*
X211231126Y-142578797D01*
G75*
G02*
X211974552Y-141822281I749971J6545D01*
G01*
X214874442Y-141796975D01*
G75*
G02*
X215630958Y-142540401I6545J-749971D01*
G01*
X215630958Y-142540401D01*
G75*
G02*
X214887532Y-143296917I-749971J-6545D01*
G01*
X211987642Y-143322223D01*
G75*
G02*
X211231126Y-142578797I-6545J749971D01*
G01*
G37*
D15*
X212071000Y-143020000D03*
D21*
X47222000Y-155808600D03*
X49762000Y-155808600D03*
X52302000Y-155808600D03*
X54842000Y-155808600D03*
X57382000Y-155808600D03*
X59922000Y-155808600D03*
X62462000Y-155808600D03*
X65002000Y-155808600D03*
X67542000Y-155808600D03*
X70082000Y-155808600D03*
X72622000Y-155808600D03*
X75162000Y-155808600D03*
X75162000Y-140588600D03*
X72622000Y-140588600D03*
X70082000Y-140588600D03*
X67542000Y-140588600D03*
X65002000Y-140588600D03*
X62462000Y-140588600D03*
X59922000Y-140588600D03*
X57382000Y-140588600D03*
X54842000Y-140588600D03*
X52302000Y-140588600D03*
X49762000Y-140588600D03*
X47222000Y-140588600D03*
D11*
X146750000Y-65700000D03*
X153250000Y-65700000D03*
M02*
