%TF.GenerationSoftware,KiCad,Pcbnew,8.0.4*%
%TF.CreationDate,2024-09-16T13:52:17+09:00*%
%TF.ProjectId,yuiop29re-topplate,7975696f-7032-4397-9265-2d746f70706c,1*%
%TF.SameCoordinates,Original*%
%TF.FileFunction,Legend,Bot*%
%TF.FilePolarity,Positive*%
%FSLAX46Y46*%
G04 Gerber Fmt 4.6, Leading zero omitted, Abs format (unit mm)*
G04 Created by KiCad (PCBNEW 8.0.4) date 2024-09-16 13:52:17*
%MOMM*%
%LPD*%
G01*
G04 APERTURE LIST*
%ADD10C,0.150000*%
G04 APERTURE END LIST*
D10*
X100682268Y-156494295D02*
X100682268Y-157065723D01*
X100682268Y-157065723D02*
X100720363Y-157180009D01*
X100720363Y-157180009D02*
X100796554Y-157256200D01*
X100796554Y-157256200D02*
X100910839Y-157294295D01*
X100910839Y-157294295D02*
X100987030Y-157294295D01*
X99920363Y-157294295D02*
X100301315Y-157294295D01*
X100301315Y-157294295D02*
X100301315Y-156494295D01*
X99196553Y-157218104D02*
X99234649Y-157256200D01*
X99234649Y-157256200D02*
X99348934Y-157294295D01*
X99348934Y-157294295D02*
X99425125Y-157294295D01*
X99425125Y-157294295D02*
X99539411Y-157256200D01*
X99539411Y-157256200D02*
X99615601Y-157180009D01*
X99615601Y-157180009D02*
X99653696Y-157103819D01*
X99653696Y-157103819D02*
X99691792Y-156951438D01*
X99691792Y-156951438D02*
X99691792Y-156837152D01*
X99691792Y-156837152D02*
X99653696Y-156684771D01*
X99653696Y-156684771D02*
X99615601Y-156608580D01*
X99615601Y-156608580D02*
X99539411Y-156532390D01*
X99539411Y-156532390D02*
X99425125Y-156494295D01*
X99425125Y-156494295D02*
X99348934Y-156494295D01*
X99348934Y-156494295D02*
X99234649Y-156532390D01*
X99234649Y-156532390D02*
X99196553Y-156570485D01*
X98625125Y-156494295D02*
X98625125Y-157065723D01*
X98625125Y-157065723D02*
X98663220Y-157180009D01*
X98663220Y-157180009D02*
X98739411Y-157256200D01*
X98739411Y-157256200D02*
X98853696Y-157294295D01*
X98853696Y-157294295D02*
X98929887Y-157294295D01*
X97863220Y-157294295D02*
X98244172Y-157294295D01*
X98244172Y-157294295D02*
X98244172Y-156494295D01*
X97139410Y-157218104D02*
X97177506Y-157256200D01*
X97177506Y-157256200D02*
X97291791Y-157294295D01*
X97291791Y-157294295D02*
X97367982Y-157294295D01*
X97367982Y-157294295D02*
X97482268Y-157256200D01*
X97482268Y-157256200D02*
X97558458Y-157180009D01*
X97558458Y-157180009D02*
X97596553Y-157103819D01*
X97596553Y-157103819D02*
X97634649Y-156951438D01*
X97634649Y-156951438D02*
X97634649Y-156837152D01*
X97634649Y-156837152D02*
X97596553Y-156684771D01*
X97596553Y-156684771D02*
X97558458Y-156608580D01*
X97558458Y-156608580D02*
X97482268Y-156532390D01*
X97482268Y-156532390D02*
X97367982Y-156494295D01*
X97367982Y-156494295D02*
X97291791Y-156494295D01*
X97291791Y-156494295D02*
X97177506Y-156532390D01*
X97177506Y-156532390D02*
X97139410Y-156570485D01*
X96567982Y-156494295D02*
X96567982Y-157065723D01*
X96567982Y-157065723D02*
X96606077Y-157180009D01*
X96606077Y-157180009D02*
X96682268Y-157256200D01*
X96682268Y-157256200D02*
X96796553Y-157294295D01*
X96796553Y-157294295D02*
X96872744Y-157294295D01*
X95806077Y-157294295D02*
X96187029Y-157294295D01*
X96187029Y-157294295D02*
X96187029Y-156494295D01*
X95082267Y-157218104D02*
X95120363Y-157256200D01*
X95120363Y-157256200D02*
X95234648Y-157294295D01*
X95234648Y-157294295D02*
X95310839Y-157294295D01*
X95310839Y-157294295D02*
X95425125Y-157256200D01*
X95425125Y-157256200D02*
X95501315Y-157180009D01*
X95501315Y-157180009D02*
X95539410Y-157103819D01*
X95539410Y-157103819D02*
X95577506Y-156951438D01*
X95577506Y-156951438D02*
X95577506Y-156837152D01*
X95577506Y-156837152D02*
X95539410Y-156684771D01*
X95539410Y-156684771D02*
X95501315Y-156608580D01*
X95501315Y-156608580D02*
X95425125Y-156532390D01*
X95425125Y-156532390D02*
X95310839Y-156494295D01*
X95310839Y-156494295D02*
X95234648Y-156494295D01*
X95234648Y-156494295D02*
X95120363Y-156532390D01*
X95120363Y-156532390D02*
X95082267Y-156570485D01*
X94510839Y-156494295D02*
X94510839Y-157065723D01*
X94510839Y-157065723D02*
X94548934Y-157180009D01*
X94548934Y-157180009D02*
X94625125Y-157256200D01*
X94625125Y-157256200D02*
X94739410Y-157294295D01*
X94739410Y-157294295D02*
X94815601Y-157294295D01*
X93748934Y-157294295D02*
X94129886Y-157294295D01*
X94129886Y-157294295D02*
X94129886Y-156494295D01*
X93025124Y-157218104D02*
X93063220Y-157256200D01*
X93063220Y-157256200D02*
X93177505Y-157294295D01*
X93177505Y-157294295D02*
X93253696Y-157294295D01*
X93253696Y-157294295D02*
X93367982Y-157256200D01*
X93367982Y-157256200D02*
X93444172Y-157180009D01*
X93444172Y-157180009D02*
X93482267Y-157103819D01*
X93482267Y-157103819D02*
X93520363Y-156951438D01*
X93520363Y-156951438D02*
X93520363Y-156837152D01*
X93520363Y-156837152D02*
X93482267Y-156684771D01*
X93482267Y-156684771D02*
X93444172Y-156608580D01*
X93444172Y-156608580D02*
X93367982Y-156532390D01*
X93367982Y-156532390D02*
X93253696Y-156494295D01*
X93253696Y-156494295D02*
X93177505Y-156494295D01*
X93177505Y-156494295D02*
X93063220Y-156532390D01*
X93063220Y-156532390D02*
X93025124Y-156570485D01*
M02*
