%TF.GenerationSoftware,KiCad,Pcbnew,(5.1.9)-1*%
%TF.CreationDate,2021-02-13T03:00:00+09:00*%
%TF.ProjectId,yuiop63hhs,7975696f-7036-4336-9868-732e6b696361,1*%
%TF.SameCoordinates,Original*%
%TF.FileFunction,Paste,Bot*%
%TF.FilePolarity,Positive*%
%FSLAX46Y46*%
G04 Gerber Fmt 4.6, Leading zero omitted, Abs format (unit mm)*
G04 Created by KiCad (PCBNEW (5.1.9)-1) date 2021-02-13 03:00:00*
%MOMM*%
%LPD*%
G01*
G04 APERTURE LIST*
%ADD10R,1.000000X1.400000*%
G04 APERTURE END LIST*
D10*
%TO.C,D1*%
X66525000Y-116300000D03*
X66525000Y-112750000D03*
%TD*%
%TO.C,D2*%
X85575000Y-112750000D03*
X85575000Y-116300000D03*
%TD*%
%TO.C,D3*%
X104625000Y-116300000D03*
X104625000Y-112750000D03*
%TD*%
%TO.C,D4*%
X123675000Y-112750000D03*
X123675000Y-116300000D03*
%TD*%
%TO.C,D5*%
X142725000Y-116300000D03*
X142725000Y-112750000D03*
%TD*%
%TO.C,D6*%
X161775000Y-112750000D03*
X161775000Y-116300000D03*
%TD*%
%TO.C,D7*%
X180825000Y-116300000D03*
X180825000Y-112750000D03*
%TD*%
%TO.C,D8*%
X233212000Y-112750000D03*
X233212000Y-116300000D03*
%TD*%
%TO.C,D9*%
X252262000Y-116300000D03*
X252262000Y-112750000D03*
%TD*%
%TO.C,D10*%
X271312000Y-112750000D03*
X271312000Y-116300000D03*
%TD*%
%TO.C,D11*%
X290362000Y-116300000D03*
X290362000Y-112750000D03*
%TD*%
%TO.C,D12*%
X309412000Y-112750000D03*
X309412000Y-116300000D03*
%TD*%
%TO.C,D13*%
X328462000Y-116300000D03*
X328462000Y-112750000D03*
%TD*%
%TO.C,D14*%
X347512000Y-112750000D03*
X347512000Y-116300000D03*
%TD*%
%TO.C,D15*%
X366562000Y-116300000D03*
X366562000Y-112750000D03*
%TD*%
%TO.C,D16*%
X71287500Y-131800000D03*
X71287500Y-135350000D03*
%TD*%
%TO.C,D17*%
X95100000Y-135350000D03*
X95100000Y-131800000D03*
%TD*%
%TO.C,D18*%
X114150000Y-135350000D03*
X114150000Y-131800000D03*
%TD*%
%TO.C,D19*%
X133200000Y-135350000D03*
X133200000Y-131800000D03*
%TD*%
%TO.C,D20*%
X152250000Y-131800000D03*
X152250000Y-135350000D03*
%TD*%
%TO.C,D21*%
X171300000Y-135350000D03*
X171300000Y-131800000D03*
%TD*%
%TO.C,D22*%
X223688000Y-131800000D03*
X223688000Y-135350000D03*
%TD*%
%TO.C,D23*%
X242738000Y-135350000D03*
X242738000Y-131800000D03*
%TD*%
%TO.C,D24*%
X261788000Y-131800000D03*
X261788000Y-135350000D03*
%TD*%
%TO.C,D25*%
X280838000Y-131800000D03*
X280838000Y-135350000D03*
%TD*%
%TO.C,D26*%
X299888000Y-135350000D03*
X299888000Y-131800000D03*
%TD*%
%TO.C,D27*%
X318938000Y-131800000D03*
X318938000Y-135350000D03*
%TD*%
%TO.C,D28*%
X337988000Y-131800000D03*
X337988000Y-135350000D03*
%TD*%
%TO.C,D29*%
X361800000Y-135350000D03*
X361800000Y-131800000D03*
%TD*%
%TO.C,D30*%
X73668800Y-150850000D03*
X73668800Y-154400000D03*
%TD*%
%TO.C,D31*%
X99862500Y-154400000D03*
X99862500Y-150850000D03*
%TD*%
%TO.C,D32*%
X118912000Y-150850000D03*
X118912000Y-154400000D03*
%TD*%
%TO.C,D33*%
X137962000Y-154400000D03*
X137962000Y-150850000D03*
%TD*%
%TO.C,D34*%
X157012000Y-150850000D03*
X157012000Y-154400000D03*
%TD*%
%TO.C,D35*%
X176062000Y-154400000D03*
X176062000Y-150850000D03*
%TD*%
%TO.C,D36*%
X228450000Y-150850000D03*
X228450000Y-154400000D03*
%TD*%
%TO.C,D37*%
X247500000Y-150850000D03*
X247500000Y-154400000D03*
%TD*%
%TO.C,D38*%
X266550000Y-150850000D03*
X266550000Y-154400000D03*
%TD*%
%TO.C,D39*%
X285600000Y-150850000D03*
X285600000Y-154400000D03*
%TD*%
%TO.C,D40*%
X304650000Y-154400000D03*
X304650000Y-150850000D03*
%TD*%
%TO.C,D41*%
X323700000Y-154400000D03*
X323700000Y-150850000D03*
%TD*%
%TO.C,D42*%
X354656000Y-150850000D03*
X354656000Y-154400000D03*
%TD*%
%TO.C,D43*%
X78431200Y-169900000D03*
X78431200Y-173450000D03*
%TD*%
%TO.C,D44*%
X109388000Y-169900000D03*
X109388000Y-173450000D03*
%TD*%
%TO.C,D45*%
X128438000Y-169900000D03*
X128438000Y-173450000D03*
%TD*%
%TO.C,D46*%
X147488000Y-173450000D03*
X147488000Y-169900000D03*
%TD*%
%TO.C,D47*%
X166538000Y-169900000D03*
X166538000Y-173450000D03*
%TD*%
%TO.C,D48*%
X185588000Y-173450000D03*
X185588000Y-169900000D03*
%TD*%
%TO.C,D49*%
X237975000Y-173450000D03*
X237975000Y-169900000D03*
%TD*%
%TO.C,D50*%
X257025000Y-173450000D03*
X257025000Y-169900000D03*
%TD*%
%TO.C,D51*%
X276075000Y-169900000D03*
X276075000Y-173450000D03*
%TD*%
%TO.C,D52*%
X295125000Y-173450000D03*
X295125000Y-169900000D03*
%TD*%
%TO.C,D53*%
X314175000Y-173450000D03*
X314175000Y-169900000D03*
%TD*%
%TO.C,D54*%
X340369000Y-169900000D03*
X340369000Y-173450000D03*
%TD*%
%TO.C,D55*%
X366562000Y-173450000D03*
X366562000Y-169900000D03*
%TD*%
%TO.C,D56*%
X95100000Y-188950000D03*
X95100000Y-192500000D03*
%TD*%
%TO.C,D57*%
X118912000Y-192500000D03*
X118912000Y-188950000D03*
%TD*%
%TO.C,D58*%
X152250000Y-188950000D03*
X152250000Y-192500000D03*
%TD*%
%TO.C,D59*%
X183206000Y-192500000D03*
X183206000Y-188950000D03*
%TD*%
%TO.C,D60*%
X230831000Y-188950000D03*
X230831000Y-192500000D03*
%TD*%
%TO.C,D61*%
X261788000Y-192500000D03*
X261788000Y-188950000D03*
%TD*%
%TO.C,D62*%
X295125000Y-188950000D03*
X295125000Y-192500000D03*
%TD*%
%TO.C,D63*%
X318938000Y-192500000D03*
X318938000Y-188950000D03*
%TD*%
%TO.C,D64*%
X322200000Y-192475000D03*
X322200000Y-188925000D03*
%TD*%
M02*
