%TF.GenerationSoftware,KiCad,Pcbnew,(5.1.9)-1*%
%TF.CreationDate,2021-02-13T03:00:00+09:00*%
%TF.ProjectId,yuiop63hhs,7975696f-7036-4336-9868-732e6b696361,1*%
%TF.SameCoordinates,Original*%
%TF.FileFunction,Soldermask,Bot*%
%TF.FilePolarity,Negative*%
%FSLAX46Y46*%
G04 Gerber Fmt 4.6, Leading zero omitted, Abs format (unit mm)*
G04 Created by KiCad (PCBNEW (5.1.9)-1) date 2021-02-13 03:00:00*
%MOMM*%
%LPD*%
G01*
G04 APERTURE LIST*
%ADD10O,2.500000X1.700000*%
%ADD11C,1.200000*%
%ADD12C,3.048000*%
%ADD13C,3.987800*%
%ADD14C,2.400000*%
%ADD15C,4.100000*%
%ADD16C,1.900000*%
%ADD17R,1.000000X1.400000*%
%ADD18C,2.000000*%
%ADD19C,1.524000*%
G04 APERTURE END LIST*
D10*
%TO.C,J2*%
X218800000Y-169100000D03*
X217300000Y-164900000D03*
X213300000Y-164900000D03*
X210300000Y-164900000D03*
D11*
X215500000Y-167000000D03*
X208500000Y-167000000D03*
%TD*%
D12*
%TO.C,STB4*%
X359595000Y-154610000D03*
D13*
X359595000Y-139370000D03*
X335719000Y-139370000D03*
D12*
X335719000Y-154610000D03*
%TD*%
%TO.C,STB3*%
X266726000Y-192710000D03*
D13*
X266726000Y-177470000D03*
X242850000Y-177470000D03*
D12*
X242850000Y-192710000D03*
%TD*%
%TO.C,STB1*%
X83369600Y-173660000D03*
D13*
X83369600Y-158420000D03*
X59493600Y-158420000D03*
D12*
X59493600Y-173660000D03*
%TD*%
%TO.C,STB2*%
X133312000Y-192710000D03*
D13*
X133312000Y-177470000D03*
X157188000Y-177470000D03*
D12*
X157188000Y-192710000D03*
%TD*%
D14*
%TO.C,SW63*%
X309398000Y-190805000D03*
X315748000Y-188265000D03*
D15*
X311938000Y-185725000D03*
D16*
X306858000Y-185725000D03*
X317018000Y-185725000D03*
%TD*%
D14*
%TO.C,SW62*%
X285585000Y-190805000D03*
X291935000Y-188265000D03*
D15*
X288125000Y-185725000D03*
D16*
X283045000Y-185725000D03*
X293205000Y-185725000D03*
%TD*%
D14*
%TO.C,SW61*%
X252248000Y-190805000D03*
X258598000Y-188265000D03*
D15*
X254788000Y-185725000D03*
D16*
X249708000Y-185725000D03*
X259868000Y-185725000D03*
%TD*%
D14*
%TO.C,SW60*%
X221291000Y-190805000D03*
X227641000Y-188265000D03*
D15*
X223831000Y-185725000D03*
D16*
X218751000Y-185725000D03*
X228911000Y-185725000D03*
%TD*%
D14*
%TO.C,SW59*%
X173666000Y-190805000D03*
X180016000Y-188265000D03*
D15*
X176206000Y-185725000D03*
D16*
X171126000Y-185725000D03*
X181286000Y-185725000D03*
%TD*%
D14*
%TO.C,SW58*%
X142710000Y-190805000D03*
X149060000Y-188265000D03*
D15*
X145250000Y-185725000D03*
D16*
X140170000Y-185725000D03*
X150330000Y-185725000D03*
%TD*%
D14*
%TO.C,SW57*%
X109372000Y-190805000D03*
X115722000Y-188265000D03*
D15*
X111912000Y-185725000D03*
D16*
X106832000Y-185725000D03*
X116992000Y-185725000D03*
%TD*%
D14*
%TO.C,SW56*%
X85560000Y-190805000D03*
X91910000Y-188265000D03*
D15*
X88100000Y-185725000D03*
D16*
X83020000Y-185725000D03*
X93180000Y-185725000D03*
%TD*%
D14*
%TO.C,SW55*%
X357022000Y-171755000D03*
X363372000Y-169215000D03*
D15*
X359562000Y-166675000D03*
D16*
X354482000Y-166675000D03*
X364642000Y-166675000D03*
%TD*%
D14*
%TO.C,SW54*%
X330829000Y-171755000D03*
X337179000Y-169215000D03*
D15*
X333369000Y-166675000D03*
D16*
X328289000Y-166675000D03*
X338449000Y-166675000D03*
%TD*%
D14*
%TO.C,SW53*%
X304635000Y-171755000D03*
X310985000Y-169215000D03*
D15*
X307175000Y-166675000D03*
D16*
X302095000Y-166675000D03*
X312255000Y-166675000D03*
%TD*%
D14*
%TO.C,SW52*%
X285585000Y-171755000D03*
X291935000Y-169215000D03*
D15*
X288125000Y-166675000D03*
D16*
X283045000Y-166675000D03*
X293205000Y-166675000D03*
%TD*%
D14*
%TO.C,SW51*%
X266535000Y-171755000D03*
X272885000Y-169215000D03*
D15*
X269075000Y-166675000D03*
D16*
X263995000Y-166675000D03*
X274155000Y-166675000D03*
%TD*%
D14*
%TO.C,SW50*%
X247485000Y-171755000D03*
X253835000Y-169215000D03*
D15*
X250025000Y-166675000D03*
D16*
X244945000Y-166675000D03*
X255105000Y-166675000D03*
%TD*%
D14*
%TO.C,SW49*%
X228435000Y-171755000D03*
X234785000Y-169215000D03*
D15*
X230975000Y-166675000D03*
D16*
X225895000Y-166675000D03*
X236055000Y-166675000D03*
%TD*%
D14*
%TO.C,SW48*%
X176048000Y-171755000D03*
X182398000Y-169215000D03*
D15*
X178588000Y-166675000D03*
D16*
X173508000Y-166675000D03*
X183668000Y-166675000D03*
%TD*%
D14*
%TO.C,SW47*%
X156998000Y-171755000D03*
X163348000Y-169215000D03*
D15*
X159538000Y-166675000D03*
D16*
X154458000Y-166675000D03*
X164618000Y-166675000D03*
%TD*%
D14*
%TO.C,SW46*%
X137948000Y-171755000D03*
X144298000Y-169215000D03*
D15*
X140488000Y-166675000D03*
D16*
X135408000Y-166675000D03*
X145568000Y-166675000D03*
%TD*%
D14*
%TO.C,SW45*%
X118898000Y-171755000D03*
X125248000Y-169215000D03*
D15*
X121438000Y-166675000D03*
D16*
X116358000Y-166675000D03*
X126518000Y-166675000D03*
%TD*%
D14*
%TO.C,SW44*%
X99848000Y-171755000D03*
X106198000Y-169215000D03*
D15*
X102388000Y-166675000D03*
D16*
X97308000Y-166675000D03*
X107468000Y-166675000D03*
%TD*%
D14*
%TO.C,SW43*%
X68891200Y-171755000D03*
X75241200Y-169215000D03*
D15*
X71431200Y-166675000D03*
D16*
X66351200Y-166675000D03*
X76511200Y-166675000D03*
%TD*%
D14*
%TO.C,SW42*%
X345116000Y-152705000D03*
X351466000Y-150165000D03*
D15*
X347656000Y-147625000D03*
D16*
X342576000Y-147625000D03*
X352736000Y-147625000D03*
%TD*%
D14*
%TO.C,SW41*%
X314160000Y-152705000D03*
X320510000Y-150165000D03*
D15*
X316700000Y-147625000D03*
D16*
X311620000Y-147625000D03*
X321780000Y-147625000D03*
%TD*%
D14*
%TO.C,SW40*%
X295110000Y-152705000D03*
X301460000Y-150165000D03*
D15*
X297650000Y-147625000D03*
D16*
X292570000Y-147625000D03*
X302730000Y-147625000D03*
%TD*%
D14*
%TO.C,SW39*%
X276060000Y-152705000D03*
X282410000Y-150165000D03*
D15*
X278600000Y-147625000D03*
D16*
X273520000Y-147625000D03*
X283680000Y-147625000D03*
%TD*%
D14*
%TO.C,SW38*%
X257010000Y-152705000D03*
X263360000Y-150165000D03*
D15*
X259550000Y-147625000D03*
D16*
X254470000Y-147625000D03*
X264630000Y-147625000D03*
%TD*%
D14*
%TO.C,SW37*%
X237960000Y-152705000D03*
X244310000Y-150165000D03*
D15*
X240500000Y-147625000D03*
D16*
X235420000Y-147625000D03*
X245580000Y-147625000D03*
%TD*%
D14*
%TO.C,SW36*%
X218910000Y-152705000D03*
X225260000Y-150165000D03*
D15*
X221450000Y-147625000D03*
D16*
X216370000Y-147625000D03*
X226530000Y-147625000D03*
%TD*%
D14*
%TO.C,SW35*%
X166522000Y-152705000D03*
X172872000Y-150165000D03*
D15*
X169062000Y-147625000D03*
D16*
X163982000Y-147625000D03*
X174142000Y-147625000D03*
%TD*%
D14*
%TO.C,SW34*%
X147472000Y-152705000D03*
X153822000Y-150165000D03*
D15*
X150012000Y-147625000D03*
D16*
X144932000Y-147625000D03*
X155092000Y-147625000D03*
%TD*%
D14*
%TO.C,SW33*%
X128422000Y-152705000D03*
X134772000Y-150165000D03*
D15*
X130962000Y-147625000D03*
D16*
X125882000Y-147625000D03*
X136042000Y-147625000D03*
%TD*%
D14*
%TO.C,SW32*%
X109372000Y-152705000D03*
X115722000Y-150165000D03*
D15*
X111912000Y-147625000D03*
D16*
X106832000Y-147625000D03*
X116992000Y-147625000D03*
%TD*%
D14*
%TO.C,SW31*%
X90322500Y-152705000D03*
X96672500Y-150165000D03*
D15*
X92862500Y-147625000D03*
D16*
X87782500Y-147625000D03*
X97942500Y-147625000D03*
%TD*%
D14*
%TO.C,SW30*%
X64128800Y-152705000D03*
X70478800Y-150165000D03*
D15*
X66668800Y-147625000D03*
D16*
X61588800Y-147625000D03*
X71748800Y-147625000D03*
%TD*%
D14*
%TO.C,SW29*%
X352260000Y-133655000D03*
X358610000Y-131115000D03*
D15*
X354800000Y-128575000D03*
D16*
X349720000Y-128575000D03*
X359880000Y-128575000D03*
%TD*%
D14*
%TO.C,SW28*%
X328448000Y-133655000D03*
X334798000Y-131115000D03*
D15*
X330988000Y-128575000D03*
D16*
X325908000Y-128575000D03*
X336068000Y-128575000D03*
%TD*%
D14*
%TO.C,SW27*%
X309398000Y-133655000D03*
X315748000Y-131115000D03*
D15*
X311938000Y-128575000D03*
D16*
X306858000Y-128575000D03*
X317018000Y-128575000D03*
%TD*%
D14*
%TO.C,SW26*%
X290348000Y-133655000D03*
X296698000Y-131115000D03*
D15*
X292888000Y-128575000D03*
D16*
X287808000Y-128575000D03*
X297968000Y-128575000D03*
%TD*%
D14*
%TO.C,SW25*%
X271298000Y-133655000D03*
X277648000Y-131115000D03*
D15*
X273838000Y-128575000D03*
D16*
X268758000Y-128575000D03*
X278918000Y-128575000D03*
%TD*%
D14*
%TO.C,SW24*%
X252248000Y-133655000D03*
X258598000Y-131115000D03*
D15*
X254788000Y-128575000D03*
D16*
X249708000Y-128575000D03*
X259868000Y-128575000D03*
%TD*%
D14*
%TO.C,SW23*%
X233198000Y-133655000D03*
X239548000Y-131115000D03*
D15*
X235738000Y-128575000D03*
D16*
X230658000Y-128575000D03*
X240818000Y-128575000D03*
%TD*%
D14*
%TO.C,SW22*%
X214148000Y-133655000D03*
X220498000Y-131115000D03*
D15*
X216688000Y-128575000D03*
D16*
X211608000Y-128575000D03*
X221768000Y-128575000D03*
%TD*%
D14*
%TO.C,SW21*%
X161760000Y-133655000D03*
X168110000Y-131115000D03*
D15*
X164300000Y-128575000D03*
D16*
X159220000Y-128575000D03*
X169380000Y-128575000D03*
%TD*%
D14*
%TO.C,SW20*%
X142710000Y-133655000D03*
X149060000Y-131115000D03*
D15*
X145250000Y-128575000D03*
D16*
X140170000Y-128575000D03*
X150330000Y-128575000D03*
%TD*%
D14*
%TO.C,SW19*%
X123660000Y-133655000D03*
X130010000Y-131115000D03*
D15*
X126200000Y-128575000D03*
D16*
X121120000Y-128575000D03*
X131280000Y-128575000D03*
%TD*%
D14*
%TO.C,SW18*%
X104610000Y-133655000D03*
X110960000Y-131115000D03*
D15*
X107150000Y-128575000D03*
D16*
X102070000Y-128575000D03*
X112230000Y-128575000D03*
%TD*%
D14*
%TO.C,SW17*%
X85560000Y-133655000D03*
X91910000Y-131115000D03*
D15*
X88100000Y-128575000D03*
D16*
X83020000Y-128575000D03*
X93180000Y-128575000D03*
%TD*%
D14*
%TO.C,SW16*%
X61747500Y-133655000D03*
X68097500Y-131115000D03*
D15*
X64287500Y-128575000D03*
D16*
X59207500Y-128575000D03*
X69367500Y-128575000D03*
%TD*%
D14*
%TO.C,SW15*%
X357022000Y-114605000D03*
X363372000Y-112065000D03*
D15*
X359562000Y-109525000D03*
D16*
X354482000Y-109525000D03*
X364642000Y-109525000D03*
%TD*%
D14*
%TO.C,SW14*%
X337972000Y-114605000D03*
X344322000Y-112065000D03*
D15*
X340512000Y-109525000D03*
D16*
X335432000Y-109525000D03*
X345592000Y-109525000D03*
%TD*%
D14*
%TO.C,SW13*%
X318922000Y-114605000D03*
X325272000Y-112065000D03*
D15*
X321462000Y-109525000D03*
D16*
X316382000Y-109525000D03*
X326542000Y-109525000D03*
%TD*%
D14*
%TO.C,SW12*%
X299872000Y-114605000D03*
X306222000Y-112065000D03*
D15*
X302412000Y-109525000D03*
D16*
X297332000Y-109525000D03*
X307492000Y-109525000D03*
%TD*%
D14*
%TO.C,SW11*%
X280822000Y-114605000D03*
X287172000Y-112065000D03*
D15*
X283362000Y-109525000D03*
D16*
X278282000Y-109525000D03*
X288442000Y-109525000D03*
%TD*%
D14*
%TO.C,SW10*%
X261772000Y-114605000D03*
X268122000Y-112065000D03*
D15*
X264312000Y-109525000D03*
D16*
X259232000Y-109525000D03*
X269392000Y-109525000D03*
%TD*%
D14*
%TO.C,SW9*%
X242722000Y-114605000D03*
X249072000Y-112065000D03*
D15*
X245262000Y-109525000D03*
D16*
X240182000Y-109525000D03*
X250342000Y-109525000D03*
%TD*%
D14*
%TO.C,SW8*%
X223672000Y-114605000D03*
X230022000Y-112065000D03*
D15*
X226212000Y-109525000D03*
D16*
X221132000Y-109525000D03*
X231292000Y-109525000D03*
%TD*%
D14*
%TO.C,SW7*%
X171285000Y-114605000D03*
X177635000Y-112065000D03*
D15*
X173825000Y-109525000D03*
D16*
X168745000Y-109525000D03*
X178905000Y-109525000D03*
%TD*%
D14*
%TO.C,SW6*%
X152235000Y-114605000D03*
X158585000Y-112065000D03*
D15*
X154775000Y-109525000D03*
D16*
X149695000Y-109525000D03*
X159855000Y-109525000D03*
%TD*%
D14*
%TO.C,SW5*%
X133185000Y-114605000D03*
X139535000Y-112065000D03*
D15*
X135725000Y-109525000D03*
D16*
X130645000Y-109525000D03*
X140805000Y-109525000D03*
%TD*%
D14*
%TO.C,SW4*%
X114135000Y-114605000D03*
X120485000Y-112065000D03*
D15*
X116675000Y-109525000D03*
D16*
X111595000Y-109525000D03*
X121755000Y-109525000D03*
%TD*%
D14*
%TO.C,SW3*%
X95085000Y-114605000D03*
X101435000Y-112065000D03*
D15*
X97625000Y-109525000D03*
D16*
X92545000Y-109525000D03*
X102705000Y-109525000D03*
%TD*%
D14*
%TO.C,SW2*%
X76035000Y-114605000D03*
X82385000Y-112065000D03*
D15*
X78575000Y-109525000D03*
D16*
X73495000Y-109525000D03*
X83655000Y-109525000D03*
%TD*%
D14*
%TO.C,SW1*%
X56985000Y-114605000D03*
X63335000Y-112065000D03*
D15*
X59525000Y-109525000D03*
D16*
X54445000Y-109525000D03*
X64605000Y-109525000D03*
%TD*%
D17*
%TO.C,D1*%
X66525000Y-116300000D03*
X66525000Y-112750000D03*
%TD*%
%TO.C,D2*%
X85575000Y-112750000D03*
X85575000Y-116300000D03*
%TD*%
%TO.C,D3*%
X104625000Y-116300000D03*
X104625000Y-112750000D03*
%TD*%
%TO.C,D4*%
X123675000Y-112750000D03*
X123675000Y-116300000D03*
%TD*%
%TO.C,D5*%
X142725000Y-116300000D03*
X142725000Y-112750000D03*
%TD*%
%TO.C,D6*%
X161775000Y-112750000D03*
X161775000Y-116300000D03*
%TD*%
%TO.C,D7*%
X180825000Y-116300000D03*
X180825000Y-112750000D03*
%TD*%
%TO.C,D8*%
X233212000Y-112750000D03*
X233212000Y-116300000D03*
%TD*%
%TO.C,D9*%
X252262000Y-116300000D03*
X252262000Y-112750000D03*
%TD*%
%TO.C,D10*%
X271312000Y-112750000D03*
X271312000Y-116300000D03*
%TD*%
%TO.C,D11*%
X290362000Y-116300000D03*
X290362000Y-112750000D03*
%TD*%
%TO.C,D12*%
X309412000Y-112750000D03*
X309412000Y-116300000D03*
%TD*%
%TO.C,D13*%
X328462000Y-116300000D03*
X328462000Y-112750000D03*
%TD*%
%TO.C,D14*%
X347512000Y-112750000D03*
X347512000Y-116300000D03*
%TD*%
%TO.C,D15*%
X366562000Y-116300000D03*
X366562000Y-112750000D03*
%TD*%
%TO.C,D16*%
X71287500Y-131800000D03*
X71287500Y-135350000D03*
%TD*%
%TO.C,D17*%
X95100000Y-135350000D03*
X95100000Y-131800000D03*
%TD*%
%TO.C,D18*%
X114150000Y-135350000D03*
X114150000Y-131800000D03*
%TD*%
%TO.C,D19*%
X133200000Y-135350000D03*
X133200000Y-131800000D03*
%TD*%
%TO.C,D20*%
X152250000Y-131800000D03*
X152250000Y-135350000D03*
%TD*%
%TO.C,D21*%
X171300000Y-135350000D03*
X171300000Y-131800000D03*
%TD*%
%TO.C,D22*%
X223688000Y-131800000D03*
X223688000Y-135350000D03*
%TD*%
%TO.C,D23*%
X242738000Y-135350000D03*
X242738000Y-131800000D03*
%TD*%
%TO.C,D24*%
X261788000Y-131800000D03*
X261788000Y-135350000D03*
%TD*%
%TO.C,D25*%
X280838000Y-131800000D03*
X280838000Y-135350000D03*
%TD*%
%TO.C,D26*%
X299888000Y-135350000D03*
X299888000Y-131800000D03*
%TD*%
%TO.C,D27*%
X318938000Y-131800000D03*
X318938000Y-135350000D03*
%TD*%
%TO.C,D28*%
X337988000Y-131800000D03*
X337988000Y-135350000D03*
%TD*%
%TO.C,D29*%
X361800000Y-135350000D03*
X361800000Y-131800000D03*
%TD*%
%TO.C,D30*%
X73668800Y-150850000D03*
X73668800Y-154400000D03*
%TD*%
%TO.C,D31*%
X99862500Y-154400000D03*
X99862500Y-150850000D03*
%TD*%
%TO.C,D32*%
X118912000Y-150850000D03*
X118912000Y-154400000D03*
%TD*%
%TO.C,D33*%
X137962000Y-154400000D03*
X137962000Y-150850000D03*
%TD*%
%TO.C,D34*%
X157012000Y-150850000D03*
X157012000Y-154400000D03*
%TD*%
%TO.C,D35*%
X176062000Y-154400000D03*
X176062000Y-150850000D03*
%TD*%
%TO.C,D36*%
X228450000Y-150850000D03*
X228450000Y-154400000D03*
%TD*%
%TO.C,D37*%
X247500000Y-150850000D03*
X247500000Y-154400000D03*
%TD*%
%TO.C,D38*%
X266550000Y-150850000D03*
X266550000Y-154400000D03*
%TD*%
%TO.C,D39*%
X285600000Y-150850000D03*
X285600000Y-154400000D03*
%TD*%
%TO.C,D40*%
X304650000Y-154400000D03*
X304650000Y-150850000D03*
%TD*%
%TO.C,D41*%
X323700000Y-154400000D03*
X323700000Y-150850000D03*
%TD*%
%TO.C,D42*%
X354656000Y-150850000D03*
X354656000Y-154400000D03*
%TD*%
%TO.C,D43*%
X78431200Y-169900000D03*
X78431200Y-173450000D03*
%TD*%
%TO.C,D44*%
X109388000Y-169900000D03*
X109388000Y-173450000D03*
%TD*%
%TO.C,D45*%
X128438000Y-169900000D03*
X128438000Y-173450000D03*
%TD*%
%TO.C,D46*%
X147488000Y-173450000D03*
X147488000Y-169900000D03*
%TD*%
%TO.C,D47*%
X166538000Y-169900000D03*
X166538000Y-173450000D03*
%TD*%
%TO.C,D48*%
X185588000Y-173450000D03*
X185588000Y-169900000D03*
%TD*%
%TO.C,D49*%
X237975000Y-173450000D03*
X237975000Y-169900000D03*
%TD*%
%TO.C,D50*%
X257025000Y-173450000D03*
X257025000Y-169900000D03*
%TD*%
%TO.C,D51*%
X276075000Y-169900000D03*
X276075000Y-173450000D03*
%TD*%
%TO.C,D52*%
X295125000Y-173450000D03*
X295125000Y-169900000D03*
%TD*%
%TO.C,D53*%
X314175000Y-173450000D03*
X314175000Y-169900000D03*
%TD*%
%TO.C,D54*%
X340369000Y-169900000D03*
X340369000Y-173450000D03*
%TD*%
%TO.C,D55*%
X366562000Y-173450000D03*
X366562000Y-169900000D03*
%TD*%
%TO.C,D56*%
X95100000Y-188950000D03*
X95100000Y-192500000D03*
%TD*%
%TO.C,D57*%
X118912000Y-192500000D03*
X118912000Y-188950000D03*
%TD*%
%TO.C,D58*%
X152250000Y-188950000D03*
X152250000Y-192500000D03*
%TD*%
%TO.C,D59*%
X183206000Y-192500000D03*
X183206000Y-188950000D03*
%TD*%
%TO.C,D60*%
X230831000Y-188950000D03*
X230831000Y-192500000D03*
%TD*%
%TO.C,D61*%
X261788000Y-192500000D03*
X261788000Y-188950000D03*
%TD*%
%TO.C,D62*%
X295125000Y-188950000D03*
X295125000Y-192500000D03*
%TD*%
%TO.C,D63*%
X318938000Y-192500000D03*
X318938000Y-188950000D03*
%TD*%
%TO.C,D64*%
X322200000Y-192475000D03*
X322200000Y-188925000D03*
%TD*%
D18*
%TO.C,SW_RST1*%
X200500000Y-145250000D03*
X200500000Y-138750000D03*
%TD*%
%TO.C,SW_RST2*%
X332250000Y-193500000D03*
X325750000Y-193500000D03*
%TD*%
D19*
%TO.C,U1*%
X185391400Y-105522000D03*
X185391400Y-108062000D03*
X185391400Y-110602000D03*
X185391400Y-113142000D03*
X185391400Y-115682000D03*
X185391400Y-118222000D03*
X185391400Y-120762000D03*
X185391400Y-123302000D03*
X185391400Y-125842000D03*
X185391400Y-128382000D03*
X185391400Y-130922000D03*
X185391400Y-133462000D03*
X200611400Y-133462000D03*
X200611400Y-130922000D03*
X200611400Y-128382000D03*
X200611400Y-125842000D03*
X200611400Y-123302000D03*
X200611400Y-120762000D03*
X200611400Y-118222000D03*
X200611400Y-115682000D03*
X200611400Y-113142000D03*
X200611400Y-110602000D03*
X200611400Y-108062000D03*
X200611400Y-105522000D03*
%TD*%
%TO.C,U2*%
X363978000Y-193611400D03*
X361438000Y-193611400D03*
X358898000Y-193611400D03*
X356358000Y-193611400D03*
X353818000Y-193611400D03*
X351278000Y-193611400D03*
X348738000Y-193611400D03*
X346198000Y-193611400D03*
X343658000Y-193611400D03*
X341118000Y-193611400D03*
X338578000Y-193611400D03*
X336038000Y-193611400D03*
X336038000Y-178391400D03*
X338578000Y-178391400D03*
X341118000Y-178391400D03*
X343658000Y-178391400D03*
X346198000Y-178391400D03*
X348738000Y-178391400D03*
X351278000Y-178391400D03*
X353818000Y-178391400D03*
X356358000Y-178391400D03*
X358898000Y-178391400D03*
X361438000Y-178391400D03*
X363978000Y-178391400D03*
%TD*%
D11*
%TO.C,J1*%
X201000000Y-167000000D03*
X194000000Y-167000000D03*
D10*
X199200000Y-169100000D03*
X196200000Y-169100000D03*
X192200000Y-169100000D03*
X190700000Y-164900000D03*
%TD*%
M02*
