M48
; DRILL file {KiCad (5.1.9)-1} date 02/13/21 03:00:11
; FORMAT={-:-/ absolute / metric / decimal}
; #@! TF.CreationDate,2021-02-13T03:00:11+09:00
; #@! TF.GenerationSoftware,Kicad,Pcbnew,(5.1.9)-1
FMAT,2
METRIC
T1C0.400
T2C0.813
T3C1.000
T4C1.200
T5C1.300
T6C1.200
T7C1.900
T8C3.048
T9C3.988
T10C4.100
%
G90
G05
T1
X177.0Y-120.5
X180.0Y-130.0
X214.0Y-107.5
X259.5Y-176.5
X321.5Y-168.0
X324.5Y-159.5
X328.5Y-143.5
X335.0Y-187.5
X344.0Y-185.0
T2
X185.391Y-105.522
X185.391Y-108.062
X185.391Y-110.602
X185.391Y-113.142
X185.391Y-115.682
X185.391Y-118.222
X185.391Y-120.762
X185.391Y-123.302
X185.391Y-125.842
X185.391Y-128.382
X185.391Y-130.922
X185.391Y-133.462
X200.611Y-105.522
X200.611Y-108.062
X200.611Y-110.602
X200.611Y-113.142
X200.611Y-115.682
X200.611Y-118.222
X200.611Y-120.762
X200.611Y-123.302
X200.611Y-125.842
X200.611Y-128.382
X200.611Y-130.922
X200.611Y-133.462
X336.038Y-178.391
X336.038Y-193.611
X338.578Y-178.391
X338.578Y-193.611
X341.118Y-178.391
X341.118Y-193.611
X343.658Y-178.391
X343.658Y-193.611
X346.198Y-178.391
X346.198Y-193.611
X348.738Y-178.391
X348.738Y-193.611
X351.278Y-178.391
X351.278Y-193.611
X353.818Y-178.391
X353.818Y-193.611
X356.358Y-178.391
X356.358Y-193.611
X358.898Y-178.391
X358.898Y-193.611
X361.438Y-178.391
X361.438Y-193.611
X363.978Y-178.391
X363.978Y-193.611
T4
X56.985Y-114.605
X61.747Y-133.655
X63.335Y-112.065
X64.129Y-152.705
X68.097Y-131.115
X68.891Y-171.755
X70.479Y-150.165
X75.241Y-169.215
X76.035Y-114.605
X82.385Y-112.065
X85.56Y-133.655
X85.56Y-190.805
X90.322Y-152.705
X91.91Y-131.115
X91.91Y-188.265
X95.085Y-114.605
X96.672Y-150.165
X99.848Y-171.755
X101.435Y-112.065
X104.61Y-133.655
X106.198Y-169.215
X109.372Y-152.705
X109.372Y-190.805
X110.96Y-131.115
X114.135Y-114.605
X115.722Y-150.165
X115.722Y-188.265
X118.898Y-171.755
X120.485Y-112.065
X123.66Y-133.655
X125.248Y-169.215
X128.422Y-152.705
X130.01Y-131.115
X133.185Y-114.605
X134.772Y-150.165
X137.948Y-171.755
X139.535Y-112.065
X142.71Y-133.655
X142.71Y-190.805
X144.298Y-169.215
X147.472Y-152.705
X149.06Y-131.115
X149.06Y-188.265
X152.235Y-114.605
X153.822Y-150.165
X156.998Y-171.755
X158.585Y-112.065
X161.76Y-133.655
X163.348Y-169.215
X166.522Y-152.705
X168.11Y-131.115
X171.285Y-114.605
X172.872Y-150.165
X173.666Y-190.805
X176.048Y-171.755
X177.635Y-112.065
X180.016Y-188.265
X182.398Y-169.215
X214.148Y-133.655
X218.91Y-152.705
X220.498Y-131.115
X221.291Y-190.805
X223.672Y-114.605
X225.26Y-150.165
X227.641Y-188.265
X228.435Y-171.755
X230.022Y-112.065
X233.198Y-133.655
X234.785Y-169.215
X237.96Y-152.705
X239.548Y-131.115
X242.722Y-114.605
X244.31Y-150.165
X247.485Y-171.755
X249.072Y-112.065
X252.248Y-133.655
X252.248Y-190.805
X253.835Y-169.215
X257.01Y-152.705
X258.598Y-131.115
X258.598Y-188.265
X261.772Y-114.605
X263.36Y-150.165
X266.535Y-171.755
X268.122Y-112.065
X271.298Y-133.655
X272.885Y-169.215
X276.06Y-152.705
X277.648Y-131.115
X280.822Y-114.605
X282.41Y-150.165
X285.585Y-171.755
X285.585Y-190.805
X287.172Y-112.065
X290.348Y-133.655
X291.935Y-169.215
X291.935Y-188.265
X295.11Y-152.705
X296.698Y-131.115
X299.872Y-114.605
X301.46Y-150.165
X304.635Y-171.755
X306.222Y-112.065
X309.398Y-133.655
X309.398Y-190.805
X310.985Y-169.215
X314.16Y-152.705
X315.748Y-131.115
X315.748Y-188.265
X318.922Y-114.605
X320.51Y-150.165
X325.272Y-112.065
X328.448Y-133.655
X330.829Y-171.755
X334.798Y-131.115
X337.179Y-169.215
X337.972Y-114.605
X344.322Y-112.065
X345.116Y-152.705
X351.466Y-150.165
X352.26Y-133.655
X357.022Y-114.605
X357.022Y-171.755
X358.61Y-131.115
X363.372Y-112.065
X363.372Y-169.215
T5
X200.5Y-138.75
X200.5Y-145.25
X325.75Y-193.5
X332.25Y-193.5
T6
X194.0Y-167.0
X201.0Y-167.0
X208.5Y-167.0
X215.5Y-167.0
T7
X54.445Y-109.525
X59.207Y-128.575
X61.589Y-147.625
X64.605Y-109.525
X66.351Y-166.675
X69.367Y-128.575
X71.749Y-147.625
X73.495Y-109.525
X76.511Y-166.675
X83.02Y-128.575
X83.02Y-185.725
X83.655Y-109.525
X87.782Y-147.625
X92.545Y-109.525
X93.18Y-128.575
X93.18Y-185.725
X97.308Y-166.675
X97.942Y-147.625
X102.07Y-128.575
X102.705Y-109.525
X106.832Y-147.625
X106.832Y-185.725
X107.468Y-166.675
X111.595Y-109.525
X112.23Y-128.575
X116.358Y-166.675
X116.992Y-147.625
X116.992Y-185.725
X121.12Y-128.575
X121.755Y-109.525
X125.882Y-147.625
X126.518Y-166.675
X130.645Y-109.525
X131.28Y-128.575
X135.408Y-166.675
X136.042Y-147.625
X140.17Y-128.575
X140.17Y-185.725
X140.805Y-109.525
X144.932Y-147.625
X145.568Y-166.675
X149.695Y-109.525
X150.33Y-128.575
X150.33Y-185.725
X154.458Y-166.675
X155.092Y-147.625
X159.22Y-128.575
X159.855Y-109.525
X163.982Y-147.625
X164.618Y-166.675
X168.745Y-109.525
X169.38Y-128.575
X171.126Y-185.725
X173.508Y-166.675
X174.142Y-147.625
X178.905Y-109.525
X181.286Y-185.725
X183.668Y-166.675
X211.608Y-128.575
X216.37Y-147.625
X218.751Y-185.725
X221.132Y-109.525
X221.768Y-128.575
X225.895Y-166.675
X226.53Y-147.625
X228.911Y-185.725
X230.658Y-128.575
X231.292Y-109.525
X235.42Y-147.625
X236.055Y-166.675
X240.182Y-109.525
X240.818Y-128.575
X244.945Y-166.675
X245.58Y-147.625
X249.708Y-128.575
X249.708Y-185.725
X250.342Y-109.525
X254.47Y-147.625
X255.105Y-166.675
X259.232Y-109.525
X259.868Y-128.575
X259.868Y-185.725
X263.995Y-166.675
X264.63Y-147.625
X268.758Y-128.575
X269.392Y-109.525
X273.52Y-147.625
X274.155Y-166.675
X278.282Y-109.525
X278.918Y-128.575
X283.045Y-166.675
X283.045Y-185.725
X283.68Y-147.625
X287.808Y-128.575
X288.442Y-109.525
X292.57Y-147.625
X293.205Y-166.675
X293.205Y-185.725
X297.332Y-109.525
X297.968Y-128.575
X302.095Y-166.675
X302.73Y-147.625
X306.858Y-128.575
X306.858Y-185.725
X307.492Y-109.525
X311.62Y-147.625
X312.255Y-166.675
X316.382Y-109.525
X317.018Y-128.575
X317.018Y-185.725
X321.78Y-147.625
X325.908Y-128.575
X326.542Y-109.525
X328.289Y-166.675
X335.432Y-109.525
X336.068Y-128.575
X338.449Y-166.675
X342.576Y-147.625
X345.592Y-109.525
X349.72Y-128.575
X352.736Y-147.625
X354.482Y-109.525
X354.482Y-166.675
X359.88Y-128.575
X364.642Y-109.525
X364.642Y-166.675
T8
X59.494Y-173.66
X83.37Y-173.66
X133.312Y-192.71
X157.188Y-192.71
X242.85Y-192.71
X266.726Y-192.71
X335.719Y-154.61
X359.595Y-154.61
T9
X59.494Y-158.42
X83.37Y-158.42
X133.312Y-177.47
X157.188Y-177.47
X242.85Y-177.47
X266.726Y-177.47
X335.719Y-139.37
X359.595Y-139.37
T10
X59.525Y-109.525
X64.287Y-128.575
X66.669Y-147.625
X71.431Y-166.675
X78.575Y-109.525
X88.1Y-128.575
X88.1Y-185.725
X92.862Y-147.625
X97.625Y-109.525
X102.388Y-166.675
X107.15Y-128.575
X111.912Y-147.625
X111.912Y-185.725
X116.675Y-109.525
X121.438Y-166.675
X126.2Y-128.575
X130.962Y-147.625
X135.725Y-109.525
X140.488Y-166.675
X145.25Y-128.575
X145.25Y-185.725
X150.012Y-147.625
X154.775Y-109.525
X159.538Y-166.675
X164.3Y-128.575
X169.062Y-147.625
X173.825Y-109.525
X176.206Y-185.725
X178.588Y-166.675
X216.688Y-128.575
X221.45Y-147.625
X223.831Y-185.725
X226.212Y-109.525
X230.975Y-166.675
X235.738Y-128.575
X240.5Y-147.625
X245.262Y-109.525
X250.025Y-166.675
X254.788Y-128.575
X254.788Y-185.725
X259.55Y-147.625
X264.312Y-109.525
X269.075Y-166.675
X273.838Y-128.575
X278.6Y-147.625
X283.362Y-109.525
X288.125Y-166.675
X288.125Y-185.725
X292.888Y-128.575
X297.65Y-147.625
X302.412Y-109.525
X307.175Y-166.675
X311.938Y-128.575
X311.938Y-185.725
X316.7Y-147.625
X321.462Y-109.525
X330.988Y-128.575
X333.369Y-166.675
X340.512Y-109.525
X347.656Y-147.625
X354.8Y-128.575
X359.562Y-109.525
X359.562Y-166.675
T3
G00X190.95Y-164.9
M15
G01X190.45Y-164.9
M16
G05
G00X192.45Y-169.1
M15
G01X191.95Y-169.1
M16
G05
G00X196.45Y-169.1
M15
G01X195.95Y-169.1
M16
G05
G00X199.45Y-169.1
M15
G01X198.95Y-169.1
M16
G05
G00X210.05Y-164.9
M15
G01X210.55Y-164.9
M16
G05
G00X213.05Y-164.9
M15
G01X213.55Y-164.9
M16
G05
G00X217.05Y-164.9
M15
G01X217.55Y-164.9
M16
G05
G00X218.55Y-169.1
M15
G01X219.05Y-169.1
M16
G05
T0
M30
