%TF.GenerationSoftware,KiCad,Pcbnew,(5.1.9)-1*%
%TF.CreationDate,2021-02-13T03:00:00+09:00*%
%TF.ProjectId,yuiop63hhs,7975696f-7036-4336-9868-732e6b696361,1*%
%TF.SameCoordinates,Original*%
%TF.FileFunction,Profile,NP*%
%FSLAX46Y46*%
G04 Gerber Fmt 4.6, Leading zero omitted, Abs format (unit mm)*
G04 Created by KiCad (PCBNEW (5.1.9)-1) date 2021-02-13 03:00:00*
%MOMM*%
%LPD*%
G01*
G04 APERTURE LIST*
%TA.AperFunction,Profile*%
%ADD10C,0.050000*%
%TD*%
G04 APERTURE END LIST*
D10*
X367600000Y-121000000D02*
G75*
G03*
X367600000Y-121000000I-1100000J0D01*
G01*
X212600000Y-105000000D02*
G75*
G03*
X212600000Y-105000000I-1100000J0D01*
G01*
X349100000Y-175000000D02*
G75*
G03*
X349100000Y-175000000I-1100000J0D01*
G01*
X212600000Y-191000000D02*
G75*
G03*
X212600000Y-191000000I-1100000J0D01*
G01*
X199100000Y-191000000D02*
G75*
G03*
X199100000Y-191000000I-1100000J0D01*
G01*
X55600000Y-191000000D02*
G75*
G03*
X55600000Y-191000000I-1100000J0D01*
G01*
X183100000Y-121000000D02*
G75*
G03*
X183100000Y-121000000I-1100000J0D01*
G01*
X53600000Y-121000000D02*
G75*
G03*
X53600000Y-121000000I-1100000J0D01*
G01*
X207000000Y-191000000D02*
G75*
G03*
X207000000Y-191000000I-250000J0D01*
G01*
X207000000Y-191750000D02*
G75*
G03*
X207000000Y-191750000I-250000J0D01*
G01*
X207000000Y-190250000D02*
G75*
G03*
X207000000Y-190250000I-250000J0D01*
G01*
X207000000Y-188750000D02*
G75*
G03*
X207000000Y-188750000I-250000J0D01*
G01*
X207000000Y-189500000D02*
G75*
G03*
X207000000Y-189500000I-250000J0D01*
G01*
X207000000Y-192500000D02*
G75*
G03*
X207000000Y-192500000I-250000J0D01*
G01*
X203000000Y-191000000D02*
G75*
G03*
X203000000Y-191000000I-250000J0D01*
G01*
X203000000Y-191750000D02*
G75*
G03*
X203000000Y-191750000I-250000J0D01*
G01*
X203000000Y-190250000D02*
G75*
G03*
X203000000Y-190250000I-250000J0D01*
G01*
X203000000Y-188750000D02*
G75*
G03*
X203000000Y-188750000I-250000J0D01*
G01*
X203000000Y-189500000D02*
G75*
G03*
X203000000Y-189500000I-250000J0D01*
G01*
X203000000Y-192500000D02*
G75*
G03*
X203000000Y-192500000I-250000J0D01*
G01*
X207000000Y-107250000D02*
G75*
G03*
X207000000Y-107250000I-250000J0D01*
G01*
X207000000Y-106500000D02*
G75*
G03*
X207000000Y-106500000I-250000J0D01*
G01*
X207000000Y-105750000D02*
G75*
G03*
X207000000Y-105750000I-250000J0D01*
G01*
X207000000Y-105000000D02*
G75*
G03*
X207000000Y-105000000I-250000J0D01*
G01*
X207000000Y-104250000D02*
G75*
G03*
X207000000Y-104250000I-250000J0D01*
G01*
X207000000Y-103500000D02*
G75*
G03*
X207000000Y-103500000I-250000J0D01*
G01*
X203000000Y-107250000D02*
G75*
G03*
X203000000Y-107250000I-250000J0D01*
G01*
X203000000Y-106500000D02*
G75*
G03*
X203000000Y-106500000I-250000J0D01*
G01*
X203000000Y-105750000D02*
G75*
G03*
X203000000Y-105750000I-250000J0D01*
G01*
X203000000Y-105000000D02*
G75*
G03*
X203000000Y-105000000I-250000J0D01*
G01*
X203000000Y-104250000D02*
G75*
G03*
X203000000Y-104250000I-250000J0D01*
G01*
X203000000Y-103500000D02*
G75*
G03*
X203000000Y-103500000I-250000J0D01*
G01*
X202500000Y-108250000D02*
G75*
G02*
X203000000Y-107750000I500000J0D01*
G01*
X206500000Y-107750000D02*
G75*
G02*
X207000000Y-108250000I0J-500000D01*
G01*
X203000000Y-188250000D02*
X206500000Y-188250000D01*
X203000000Y-188250000D02*
G75*
G02*
X202500000Y-187750000I0J500000D01*
G01*
X207000000Y-187750000D02*
G75*
G02*
X206500000Y-188250000I-500000J0D01*
G01*
X203000000Y-193000000D02*
X206500000Y-193000000D01*
X203000000Y-103000000D02*
X206500000Y-103000000D01*
X203000000Y-103000000D02*
G75*
G02*
X202500000Y-102500000I0J500000D01*
G01*
X207000000Y-102500000D02*
G75*
G02*
X206500000Y-103000000I-500000J0D01*
G01*
X206500000Y-193000000D02*
G75*
G02*
X207000000Y-193500000I0J-500000D01*
G01*
X202500000Y-193500000D02*
G75*
G02*
X203000000Y-193000000I500000J0D01*
G01*
X200500000Y-100500000D02*
X52000000Y-100500000D01*
X367000000Y-100500000D02*
X209000000Y-100500000D01*
X209000000Y-195500000D02*
X367000000Y-195500000D01*
X52000000Y-195500000D02*
X200500000Y-195500000D01*
X207000000Y-102500000D02*
G75*
G02*
X209000000Y-100500000I2000000J0D01*
G01*
X200500000Y-100500000D02*
G75*
G02*
X202500000Y-102500000I0J-2000000D01*
G01*
X202500000Y-108250000D02*
X202500000Y-187750000D01*
X209000000Y-195500000D02*
G75*
G02*
X207000000Y-193500000I0J2000000D01*
G01*
X202500000Y-193500000D02*
G75*
G02*
X200500000Y-195500000I-2000000J0D01*
G01*
X369000000Y-193500000D02*
G75*
G02*
X367000000Y-195500000I-2000000J0D01*
G01*
X367000000Y-100500000D02*
G75*
G02*
X369000000Y-102500000I0J-2000000D01*
G01*
X50000000Y-102500000D02*
G75*
G02*
X52000000Y-100500000I2000000J0D01*
G01*
X52000000Y-195500000D02*
G75*
G02*
X50000000Y-193500000I0J2000000D01*
G01*
X206500000Y-107750000D02*
X203000000Y-107750000D01*
X207000000Y-187750000D02*
X207000000Y-108250000D01*
X50000000Y-193500000D02*
X50000000Y-102500000D01*
X369000000Y-102500000D02*
X369000000Y-193500000D01*
M02*
