%TF.GenerationSoftware,KiCad,Pcbnew,(5.1.9)-1*%
%TF.CreationDate,2021-05-21T21:09:54+09:00*%
%TF.ProjectId,yuiop31rs,7975696f-7033-4317-9273-2e6b69636164,1*%
%TF.SameCoordinates,Original*%
%TF.FileFunction,Profile,NP*%
%FSLAX46Y46*%
G04 Gerber Fmt 4.6, Leading zero omitted, Abs format (unit mm)*
G04 Created by KiCad (PCBNEW (5.1.9)-1) date 2021-05-21 21:09:54*
%MOMM*%
%LPD*%
G01*
G04 APERTURE LIST*
%TA.AperFunction,Profile*%
%ADD10C,0.050000*%
%TD*%
%TA.AperFunction,Profile*%
%ADD11C,0.120000*%
%TD*%
G04 APERTURE END LIST*
D10*
X197750000Y-41750000D02*
G75*
G02*
X199750000Y-43750000I0J-2000000D01*
G01*
X206250000Y-50250000D02*
G75*
G02*
X208250000Y-52250000I0J-2000000D01*
G01*
X208250000Y-147750000D02*
G75*
G02*
X206250000Y-149750000I-2000000J0D01*
G01*
X199750000Y-156250000D02*
G75*
G02*
X197750000Y-158250000I-2000000J0D01*
G01*
X102250000Y-158250000D02*
G75*
G02*
X100250000Y-156250000I0J2000000D01*
G01*
X93750000Y-149750000D02*
G75*
G02*
X91750000Y-147750000I0J2000000D01*
G01*
X91750000Y-51750000D02*
G75*
G02*
X93250000Y-50250000I1500000J0D01*
G01*
X100250000Y-43750000D02*
G75*
G02*
X102250000Y-41750000I2000000J0D01*
G01*
X96250000Y-149750000D02*
G75*
G02*
X100250000Y-153750000I0J-4000000D01*
G01*
X100250000Y-46250000D02*
G75*
G02*
X96250000Y-50250000I-4000000J0D01*
G01*
X203750000Y-50250000D02*
G75*
G02*
X199750000Y-46250000I0J4000000D01*
G01*
X199750000Y-153750000D02*
G75*
G02*
X203750000Y-149750000I4000000J0D01*
G01*
X199750000Y-46250000D02*
X199750000Y-43750000D01*
X206250000Y-50250000D02*
X203750000Y-50250000D01*
X199750000Y-153750000D02*
X199750000Y-156250000D01*
X206250000Y-149750000D02*
X203750000Y-149750000D01*
X100250000Y-153750000D02*
X100250000Y-156250000D01*
X93750000Y-149750000D02*
X96250000Y-149750000D01*
X96250000Y-50250000D02*
X93250000Y-50250000D01*
X100250000Y-43750000D02*
X100250000Y-46250000D01*
X91750000Y-147750000D02*
X91750000Y-51750000D01*
X197750000Y-158250000D02*
X102250000Y-158250000D01*
X208250000Y-52250000D02*
X208250000Y-147750000D01*
X102250000Y-41750000D02*
X197750000Y-41750000D01*
D11*
%TO.C,LED9*%
X102975000Y-97478100D02*
X101775000Y-97478100D01*
X101625000Y-97328100D02*
X101625000Y-95528100D01*
X101775000Y-95378100D02*
X102975000Y-95378100D01*
X103125000Y-95528100D02*
X103125000Y-97328100D01*
X101775000Y-97478100D02*
G75*
G02*
X101625000Y-97328100I0J150000D01*
G01*
X101625000Y-95528100D02*
G75*
G02*
X101775000Y-95378100I150000J0D01*
G01*
X102975000Y-95378100D02*
G75*
G02*
X103125000Y-95528100I0J-150000D01*
G01*
X103125000Y-97328100D02*
G75*
G02*
X102975000Y-97478100I-150000J0D01*
G01*
%TO.C,LED31*%
X111300000Y-140622000D02*
X112500000Y-140622000D01*
X112650000Y-140772000D02*
X112650000Y-142572000D01*
X112500000Y-142722000D02*
X111300000Y-142722000D01*
X111150000Y-142572000D02*
X111150000Y-140772000D01*
X112500000Y-140622000D02*
G75*
G02*
X112650000Y-140772000I0J-150000D01*
G01*
X112650000Y-142572000D02*
G75*
G02*
X112500000Y-142722000I-150000J0D01*
G01*
X111300000Y-142722000D02*
G75*
G02*
X111150000Y-142572000I0J150000D01*
G01*
X111150000Y-140772000D02*
G75*
G02*
X111300000Y-140622000I150000J0D01*
G01*
%TO.C,LED30*%
X130350000Y-140622000D02*
X131550000Y-140622000D01*
X131700000Y-140772000D02*
X131700000Y-142572000D01*
X131550000Y-142722000D02*
X130350000Y-142722000D01*
X130200000Y-142572000D02*
X130200000Y-140772000D01*
X131550000Y-140622000D02*
G75*
G02*
X131700000Y-140772000I0J-150000D01*
G01*
X131700000Y-142572000D02*
G75*
G02*
X131550000Y-142722000I-150000J0D01*
G01*
X130350000Y-142722000D02*
G75*
G02*
X130200000Y-142572000I0J150000D01*
G01*
X130200000Y-140772000D02*
G75*
G02*
X130350000Y-140622000I150000J0D01*
G01*
%TO.C,LED29*%
X149400000Y-140622000D02*
X150600000Y-140622000D01*
X150750000Y-140772000D02*
X150750000Y-142572000D01*
X150600000Y-142722000D02*
X149400000Y-142722000D01*
X149250000Y-142572000D02*
X149250000Y-140772000D01*
X150600000Y-140622000D02*
G75*
G02*
X150750000Y-140772000I0J-150000D01*
G01*
X150750000Y-142572000D02*
G75*
G02*
X150600000Y-142722000I-150000J0D01*
G01*
X149400000Y-142722000D02*
G75*
G02*
X149250000Y-142572000I0J150000D01*
G01*
X149250000Y-140772000D02*
G75*
G02*
X149400000Y-140622000I150000J0D01*
G01*
%TO.C,LED28*%
X168450000Y-140622000D02*
X169650000Y-140622000D01*
X169800000Y-140772000D02*
X169800000Y-142572000D01*
X169650000Y-142722000D02*
X168450000Y-142722000D01*
X168300000Y-142572000D02*
X168300000Y-140772000D01*
X169650000Y-140622000D02*
G75*
G02*
X169800000Y-140772000I0J-150000D01*
G01*
X169800000Y-142572000D02*
G75*
G02*
X169650000Y-142722000I-150000J0D01*
G01*
X168450000Y-142722000D02*
G75*
G02*
X168300000Y-142572000I0J150000D01*
G01*
X168300000Y-140772000D02*
G75*
G02*
X168450000Y-140622000I150000J0D01*
G01*
%TO.C,LED27*%
X187500000Y-140622000D02*
X188700000Y-140622000D01*
X188850000Y-140772000D02*
X188850000Y-142572000D01*
X188700000Y-142722000D02*
X187500000Y-142722000D01*
X187350000Y-142572000D02*
X187350000Y-140772000D01*
X188700000Y-140622000D02*
G75*
G02*
X188850000Y-140772000I0J-150000D01*
G01*
X188850000Y-142572000D02*
G75*
G02*
X188700000Y-142722000I-150000J0D01*
G01*
X187500000Y-142722000D02*
G75*
G02*
X187350000Y-142572000I0J150000D01*
G01*
X187350000Y-140772000D02*
G75*
G02*
X187500000Y-140622000I150000J0D01*
G01*
%TO.C,LED26*%
X198225000Y-135578000D02*
X197025000Y-135578000D01*
X196875000Y-135428000D02*
X196875000Y-133628000D01*
X197025000Y-133478000D02*
X198225000Y-133478000D01*
X198375000Y-133628000D02*
X198375000Y-135428000D01*
X197025000Y-135578000D02*
G75*
G02*
X196875000Y-135428000I0J150000D01*
G01*
X196875000Y-133628000D02*
G75*
G02*
X197025000Y-133478000I150000J0D01*
G01*
X198225000Y-133478000D02*
G75*
G02*
X198375000Y-133628000I0J-150000D01*
G01*
X198375000Y-135428000D02*
G75*
G02*
X198225000Y-135578000I-150000J0D01*
G01*
%TO.C,LED25*%
X179175000Y-135578000D02*
X177975000Y-135578000D01*
X177825000Y-135428000D02*
X177825000Y-133628000D01*
X177975000Y-133478000D02*
X179175000Y-133478000D01*
X179325000Y-133628000D02*
X179325000Y-135428000D01*
X177975000Y-135578000D02*
G75*
G02*
X177825000Y-135428000I0J150000D01*
G01*
X177825000Y-133628000D02*
G75*
G02*
X177975000Y-133478000I150000J0D01*
G01*
X179175000Y-133478000D02*
G75*
G02*
X179325000Y-133628000I0J-150000D01*
G01*
X179325000Y-135428000D02*
G75*
G02*
X179175000Y-135578000I-150000J0D01*
G01*
%TO.C,LED24*%
X160125000Y-135578000D02*
X158925000Y-135578000D01*
X158775000Y-135428000D02*
X158775000Y-133628000D01*
X158925000Y-133478000D02*
X160125000Y-133478000D01*
X160275000Y-133628000D02*
X160275000Y-135428000D01*
X158925000Y-135578000D02*
G75*
G02*
X158775000Y-135428000I0J150000D01*
G01*
X158775000Y-133628000D02*
G75*
G02*
X158925000Y-133478000I150000J0D01*
G01*
X160125000Y-133478000D02*
G75*
G02*
X160275000Y-133628000I0J-150000D01*
G01*
X160275000Y-135428000D02*
G75*
G02*
X160125000Y-135578000I-150000J0D01*
G01*
%TO.C,LED23*%
X141075000Y-135578000D02*
X139875000Y-135578000D01*
X139725000Y-135428000D02*
X139725000Y-133628000D01*
X139875000Y-133478000D02*
X141075000Y-133478000D01*
X141225000Y-133628000D02*
X141225000Y-135428000D01*
X139875000Y-135578000D02*
G75*
G02*
X139725000Y-135428000I0J150000D01*
G01*
X139725000Y-133628000D02*
G75*
G02*
X139875000Y-133478000I150000J0D01*
G01*
X141075000Y-133478000D02*
G75*
G02*
X141225000Y-133628000I0J-150000D01*
G01*
X141225000Y-135428000D02*
G75*
G02*
X141075000Y-135578000I-150000J0D01*
G01*
%TO.C,LED22*%
X122025000Y-135578000D02*
X120825000Y-135578000D01*
X120675000Y-135428000D02*
X120675000Y-133628000D01*
X120825000Y-133478000D02*
X122025000Y-133478000D01*
X122175000Y-133628000D02*
X122175000Y-135428000D01*
X120825000Y-135578000D02*
G75*
G02*
X120675000Y-135428000I0J150000D01*
G01*
X120675000Y-133628000D02*
G75*
G02*
X120825000Y-133478000I150000J0D01*
G01*
X122025000Y-133478000D02*
G75*
G02*
X122175000Y-133628000I0J-150000D01*
G01*
X122175000Y-135428000D02*
G75*
G02*
X122025000Y-135578000I-150000J0D01*
G01*
%TO.C,LED21*%
X102975000Y-135578000D02*
X101775000Y-135578000D01*
X101625000Y-135428000D02*
X101625000Y-133628000D01*
X101775000Y-133478000D02*
X102975000Y-133478000D01*
X103125000Y-133628000D02*
X103125000Y-135428000D01*
X101775000Y-135578000D02*
G75*
G02*
X101625000Y-135428000I0J150000D01*
G01*
X101625000Y-133628000D02*
G75*
G02*
X101775000Y-133478000I150000J0D01*
G01*
X102975000Y-133478000D02*
G75*
G02*
X103125000Y-133628000I0J-150000D01*
G01*
X103125000Y-135428000D02*
G75*
G02*
X102975000Y-135578000I-150000J0D01*
G01*
%TO.C,LED20*%
X101775000Y-114428000D02*
X102975000Y-114428000D01*
X103125000Y-114578000D02*
X103125000Y-116378000D01*
X102975000Y-116528000D02*
X101775000Y-116528000D01*
X101625000Y-116378000D02*
X101625000Y-114578000D01*
X102975000Y-114428000D02*
G75*
G02*
X103125000Y-114578000I0J-150000D01*
G01*
X103125000Y-116378000D02*
G75*
G02*
X102975000Y-116528000I-150000J0D01*
G01*
X101775000Y-116528000D02*
G75*
G02*
X101625000Y-116378000I0J150000D01*
G01*
X101625000Y-114578000D02*
G75*
G02*
X101775000Y-114428000I150000J0D01*
G01*
%TO.C,LED19*%
X120769000Y-114428000D02*
X121969000Y-114428000D01*
X122119000Y-114578000D02*
X122119000Y-116378000D01*
X121969000Y-116528000D02*
X120769000Y-116528000D01*
X120619000Y-116378000D02*
X120619000Y-114578000D01*
X121969000Y-114428000D02*
G75*
G02*
X122119000Y-114578000I0J-150000D01*
G01*
X122119000Y-116378000D02*
G75*
G02*
X121969000Y-116528000I-150000J0D01*
G01*
X120769000Y-116528000D02*
G75*
G02*
X120619000Y-116378000I0J150000D01*
G01*
X120619000Y-114578000D02*
G75*
G02*
X120769000Y-114428000I150000J0D01*
G01*
%TO.C,LED18*%
X139875000Y-114428000D02*
X141075000Y-114428000D01*
X141225000Y-114578000D02*
X141225000Y-116378000D01*
X141075000Y-116528000D02*
X139875000Y-116528000D01*
X139725000Y-116378000D02*
X139725000Y-114578000D01*
X141075000Y-114428000D02*
G75*
G02*
X141225000Y-114578000I0J-150000D01*
G01*
X141225000Y-116378000D02*
G75*
G02*
X141075000Y-116528000I-150000J0D01*
G01*
X139875000Y-116528000D02*
G75*
G02*
X139725000Y-116378000I0J150000D01*
G01*
X139725000Y-114578000D02*
G75*
G02*
X139875000Y-114428000I150000J0D01*
G01*
%TO.C,LED17*%
X158925000Y-114428000D02*
X160125000Y-114428000D01*
X160275000Y-114578000D02*
X160275000Y-116378000D01*
X160125000Y-116528000D02*
X158925000Y-116528000D01*
X158775000Y-116378000D02*
X158775000Y-114578000D01*
X160125000Y-114428000D02*
G75*
G02*
X160275000Y-114578000I0J-150000D01*
G01*
X160275000Y-116378000D02*
G75*
G02*
X160125000Y-116528000I-150000J0D01*
G01*
X158925000Y-116528000D02*
G75*
G02*
X158775000Y-116378000I0J150000D01*
G01*
X158775000Y-114578000D02*
G75*
G02*
X158925000Y-114428000I150000J0D01*
G01*
%TO.C,LED16*%
X177975000Y-114428000D02*
X179175000Y-114428000D01*
X179325000Y-114578000D02*
X179325000Y-116378000D01*
X179175000Y-116528000D02*
X177975000Y-116528000D01*
X177825000Y-116378000D02*
X177825000Y-114578000D01*
X179175000Y-114428000D02*
G75*
G02*
X179325000Y-114578000I0J-150000D01*
G01*
X179325000Y-116378000D02*
G75*
G02*
X179175000Y-116528000I-150000J0D01*
G01*
X177975000Y-116528000D02*
G75*
G02*
X177825000Y-116378000I0J150000D01*
G01*
X177825000Y-114578000D02*
G75*
G02*
X177975000Y-114428000I150000J0D01*
G01*
%TO.C,LED15*%
X197025000Y-114428000D02*
X198225000Y-114428000D01*
X198375000Y-114578000D02*
X198375000Y-116378000D01*
X198225000Y-116528000D02*
X197025000Y-116528000D01*
X196875000Y-116378000D02*
X196875000Y-114578000D01*
X198225000Y-114428000D02*
G75*
G02*
X198375000Y-114578000I0J-150000D01*
G01*
X198375000Y-116378000D02*
G75*
G02*
X198225000Y-116528000I-150000J0D01*
G01*
X197025000Y-116528000D02*
G75*
G02*
X196875000Y-116378000I0J150000D01*
G01*
X196875000Y-114578000D02*
G75*
G02*
X197025000Y-114428000I150000J0D01*
G01*
%TO.C,LED14*%
X198225000Y-97478100D02*
X197025000Y-97478100D01*
X196875000Y-97328100D02*
X196875000Y-95528100D01*
X197025000Y-95378100D02*
X198225000Y-95378100D01*
X198375000Y-95528100D02*
X198375000Y-97328100D01*
X197025000Y-97478100D02*
G75*
G02*
X196875000Y-97328100I0J150000D01*
G01*
X196875000Y-95528100D02*
G75*
G02*
X197025000Y-95378100I150000J0D01*
G01*
X198225000Y-95378100D02*
G75*
G02*
X198375000Y-95528100I0J-150000D01*
G01*
X198375000Y-97328100D02*
G75*
G02*
X198225000Y-97478100I-150000J0D01*
G01*
%TO.C,LED13*%
X179175000Y-97478100D02*
X177975000Y-97478100D01*
X177825000Y-97328100D02*
X177825000Y-95528100D01*
X177975000Y-95378100D02*
X179175000Y-95378100D01*
X179325000Y-95528100D02*
X179325000Y-97328100D01*
X177975000Y-97478100D02*
G75*
G02*
X177825000Y-97328100I0J150000D01*
G01*
X177825000Y-95528100D02*
G75*
G02*
X177975000Y-95378100I150000J0D01*
G01*
X179175000Y-95378100D02*
G75*
G02*
X179325000Y-95528100I0J-150000D01*
G01*
X179325000Y-97328100D02*
G75*
G02*
X179175000Y-97478100I-150000J0D01*
G01*
%TO.C,LED12*%
X160125000Y-97478100D02*
X158925000Y-97478100D01*
X158775000Y-97328100D02*
X158775000Y-95528100D01*
X158925000Y-95378100D02*
X160125000Y-95378100D01*
X160275000Y-95528100D02*
X160275000Y-97328100D01*
X158925000Y-97478100D02*
G75*
G02*
X158775000Y-97328100I0J150000D01*
G01*
X158775000Y-95528100D02*
G75*
G02*
X158925000Y-95378100I150000J0D01*
G01*
X160125000Y-95378100D02*
G75*
G02*
X160275000Y-95528100I0J-150000D01*
G01*
X160275000Y-97328100D02*
G75*
G02*
X160125000Y-97478100I-150000J0D01*
G01*
%TO.C,LED11*%
X141075000Y-97478100D02*
X139875000Y-97478100D01*
X139725000Y-97328100D02*
X139725000Y-95528100D01*
X139875000Y-95378100D02*
X141075000Y-95378100D01*
X141225000Y-95528100D02*
X141225000Y-97328100D01*
X139875000Y-97478100D02*
G75*
G02*
X139725000Y-97328100I0J150000D01*
G01*
X139725000Y-95528100D02*
G75*
G02*
X139875000Y-95378100I150000J0D01*
G01*
X141075000Y-95378100D02*
G75*
G02*
X141225000Y-95528100I0J-150000D01*
G01*
X141225000Y-97328100D02*
G75*
G02*
X141075000Y-97478100I-150000J0D01*
G01*
%TO.C,LED10*%
X122025000Y-97478100D02*
X120825000Y-97478100D01*
X120675000Y-97328100D02*
X120675000Y-95528100D01*
X120825000Y-95378100D02*
X122025000Y-95378100D01*
X122175000Y-95528100D02*
X122175000Y-97328100D01*
X120825000Y-97478100D02*
G75*
G02*
X120675000Y-97328100I0J150000D01*
G01*
X120675000Y-95528100D02*
G75*
G02*
X120825000Y-95378100I150000J0D01*
G01*
X122025000Y-95378100D02*
G75*
G02*
X122175000Y-95528100I0J-150000D01*
G01*
X122175000Y-97328100D02*
G75*
G02*
X122025000Y-97478100I-150000J0D01*
G01*
%TO.C,LED8*%
X139875000Y-76328000D02*
X141075000Y-76328000D01*
X141225000Y-76478000D02*
X141225000Y-78278000D01*
X141075000Y-78428000D02*
X139875000Y-78428000D01*
X139725000Y-78278000D02*
X139725000Y-76478000D01*
X141075000Y-76328000D02*
G75*
G02*
X141225000Y-76478000I0J-150000D01*
G01*
X141225000Y-78278000D02*
G75*
G02*
X141075000Y-78428000I-150000J0D01*
G01*
X139875000Y-78428000D02*
G75*
G02*
X139725000Y-78278000I0J150000D01*
G01*
X139725000Y-76478000D02*
G75*
G02*
X139875000Y-76328000I150000J0D01*
G01*
%TO.C,LED7*%
X158925000Y-76328000D02*
X160125000Y-76328000D01*
X160275000Y-76478000D02*
X160275000Y-78278000D01*
X160125000Y-78428000D02*
X158925000Y-78428000D01*
X158775000Y-78278000D02*
X158775000Y-76478000D01*
X160125000Y-76328000D02*
G75*
G02*
X160275000Y-76478000I0J-150000D01*
G01*
X160275000Y-78278000D02*
G75*
G02*
X160125000Y-78428000I-150000J0D01*
G01*
X158925000Y-78428000D02*
G75*
G02*
X158775000Y-78278000I0J150000D01*
G01*
X158775000Y-76478000D02*
G75*
G02*
X158925000Y-76328000I150000J0D01*
G01*
%TO.C,LED6*%
X177975000Y-76328000D02*
X179175000Y-76328000D01*
X179325000Y-76478000D02*
X179325000Y-78278000D01*
X179175000Y-78428000D02*
X177975000Y-78428000D01*
X177825000Y-78278000D02*
X177825000Y-76478000D01*
X179175000Y-76328000D02*
G75*
G02*
X179325000Y-76478000I0J-150000D01*
G01*
X179325000Y-78278000D02*
G75*
G02*
X179175000Y-78428000I-150000J0D01*
G01*
X177975000Y-78428000D02*
G75*
G02*
X177825000Y-78278000I0J150000D01*
G01*
X177825000Y-76478000D02*
G75*
G02*
X177975000Y-76328000I150000J0D01*
G01*
%TO.C,LED5*%
X197025000Y-76328000D02*
X198225000Y-76328000D01*
X198375000Y-76478000D02*
X198375000Y-78278000D01*
X198225000Y-78428000D02*
X197025000Y-78428000D01*
X196875000Y-78278000D02*
X196875000Y-76478000D01*
X198225000Y-76328000D02*
G75*
G02*
X198375000Y-76478000I0J-150000D01*
G01*
X198375000Y-78278000D02*
G75*
G02*
X198225000Y-78428000I-150000J0D01*
G01*
X197025000Y-78428000D02*
G75*
G02*
X196875000Y-78278000I0J150000D01*
G01*
X196875000Y-76478000D02*
G75*
G02*
X197025000Y-76328000I150000J0D01*
G01*
%TO.C,LED4*%
X188700000Y-59377900D02*
X187500000Y-59377900D01*
X187350000Y-59227900D02*
X187350000Y-57427900D01*
X187500000Y-57277900D02*
X188700000Y-57277900D01*
X188850000Y-57427900D02*
X188850000Y-59227900D01*
X187500000Y-59377900D02*
G75*
G02*
X187350000Y-59227900I0J150000D01*
G01*
X187350000Y-57427900D02*
G75*
G02*
X187500000Y-57277900I150000J0D01*
G01*
X188700000Y-57277900D02*
G75*
G02*
X188850000Y-57427900I0J-150000D01*
G01*
X188850000Y-59227900D02*
G75*
G02*
X188700000Y-59377900I-150000J0D01*
G01*
%TO.C,LED3*%
X169650000Y-59377900D02*
X168450000Y-59377900D01*
X168300000Y-59227900D02*
X168300000Y-57427900D01*
X168450000Y-57277900D02*
X169650000Y-57277900D01*
X169800000Y-57427900D02*
X169800000Y-59227900D01*
X168450000Y-59377900D02*
G75*
G02*
X168300000Y-59227900I0J150000D01*
G01*
X168300000Y-57427900D02*
G75*
G02*
X168450000Y-57277900I150000J0D01*
G01*
X169650000Y-57277900D02*
G75*
G02*
X169800000Y-57427900I0J-150000D01*
G01*
X169800000Y-59227900D02*
G75*
G02*
X169650000Y-59377900I-150000J0D01*
G01*
%TO.C,LED2*%
X150600000Y-59377900D02*
X149400000Y-59377900D01*
X149250000Y-59227900D02*
X149250000Y-57427900D01*
X149400000Y-57277900D02*
X150600000Y-57277900D01*
X150750000Y-57427900D02*
X150750000Y-59227900D01*
X149400000Y-59377900D02*
G75*
G02*
X149250000Y-59227900I0J150000D01*
G01*
X149250000Y-57427900D02*
G75*
G02*
X149400000Y-57277900I150000J0D01*
G01*
X150600000Y-57277900D02*
G75*
G02*
X150750000Y-57427900I0J-150000D01*
G01*
X150750000Y-59227900D02*
G75*
G02*
X150600000Y-59377900I-150000J0D01*
G01*
%TO.C,LED1*%
X131550000Y-59377900D02*
X130350000Y-59377900D01*
X130200000Y-59227900D02*
X130200000Y-57427900D01*
X130350000Y-57277900D02*
X131550000Y-57277900D01*
X131700000Y-57427900D02*
X131700000Y-59227900D01*
X130350000Y-59377900D02*
G75*
G02*
X130200000Y-59227900I0J150000D01*
G01*
X130200000Y-57427900D02*
G75*
G02*
X130350000Y-57277900I150000J0D01*
G01*
X131550000Y-57277900D02*
G75*
G02*
X131700000Y-57427900I0J-150000D01*
G01*
X131700000Y-59227900D02*
G75*
G02*
X131550000Y-59377900I-150000J0D01*
G01*
%TD*%
M02*
