M48
; DRILL file {KiCad (5.1.9)-1} date 05/21/21 21:10:17
; FORMAT={-:-/ absolute / metric / decimal}
; #@! TF.CreationDate,2021-05-21T21:10:17+09:00
; #@! TF.GenerationSoftware,Kicad,Pcbnew,(5.1.9)-1
FMAT,2
METRIC
T1C0.400
T2C0.813
T3C1.000
T4C1.300
T5C2.200
T6C1.900
T7C3.000
T8C4.100
%
G90
G05
T1
X105.876Y-95.053
X107.136Y-130.322
X109.77Y-141.0
X114.027Y-104.812
X114.34Y-124.062
X115.226Y-143.806
X124.917Y-132.165
X126.068Y-149.572
X131.476Y-106.901
X132.085Y-60.239
X136.79Y-73.34
X139.803Y-105.639
X141.961Y-93.707
X143.371Y-145.035
X149.257Y-60.239
X152.44Y-90.275
X152.44Y-128.182
X152.945Y-100.477
X161.564Y-112.268
X161.965Y-54.935
X162.651Y-145.043
X171.395Y-70.764
X171.49Y-128.174
X172.625Y-84.701
X180.588Y-112.268
X181.701Y-143.843
X190.248Y-71.452
X190.248Y-90.703
X190.54Y-124.13
X190.607Y-104.812
X195.36Y-114.473
T2
X95.522Y-63.813
X95.522Y-79.033
X98.062Y-63.813
X98.062Y-79.033
X100.602Y-63.813
X100.602Y-79.033
X103.142Y-63.813
X103.142Y-79.033
X105.682Y-63.813
X105.682Y-79.033
X108.222Y-63.813
X108.222Y-79.033
X110.762Y-63.813
X110.762Y-79.033
X113.302Y-63.813
X113.302Y-79.033
X115.842Y-63.813
X115.842Y-79.033
X118.382Y-63.813
X118.382Y-79.033
X120.922Y-63.813
X120.922Y-79.033
X123.462Y-63.813
X123.462Y-79.033
T3
X104.756Y-46.422
X104.756Y-48.962
X104.756Y-51.502
X112.376Y-46.422
X112.376Y-48.962
X112.376Y-51.502
T4
X94.04Y-53.887
X94.04Y-60.387
T5
X100.0Y-59.0
X100.0Y-141.0
X150.0Y-100.0
X200.0Y-59.0
X200.0Y-141.0
T6
X97.295Y-90.475
X97.295Y-109.525
X97.295Y-128.575
X106.82Y-147.625
X107.455Y-90.475
X107.455Y-109.525
X107.455Y-128.575
X116.345Y-90.475
X116.345Y-109.525
X116.345Y-128.575
X116.98Y-147.625
X125.87Y-52.375
X125.87Y-147.625
X126.505Y-90.475
X126.505Y-109.525
X126.505Y-128.575
X135.395Y-71.425
X135.395Y-90.475
X135.395Y-109.525
X135.395Y-128.575
X136.03Y-52.375
X136.03Y-147.625
X144.92Y-52.375
X144.92Y-147.625
X145.555Y-71.425
X145.555Y-90.475
X145.555Y-109.525
X145.555Y-128.575
X154.445Y-71.425
X154.445Y-90.475
X154.445Y-109.525
X154.445Y-128.575
X155.08Y-52.375
X155.08Y-147.625
X163.97Y-52.375
X163.97Y-147.625
X164.605Y-71.425
X164.605Y-90.475
X164.605Y-109.525
X164.605Y-128.575
X173.495Y-71.425
X173.495Y-90.475
X173.495Y-109.525
X173.495Y-128.575
X174.13Y-52.375
X174.13Y-147.625
X183.02Y-52.375
X183.02Y-147.625
X183.655Y-71.425
X183.655Y-90.475
X183.655Y-109.525
X183.655Y-128.575
X192.545Y-71.425
X192.545Y-90.475
X192.545Y-109.525
X192.545Y-128.575
X193.18Y-52.375
X193.18Y-147.625
X202.705Y-71.425
X202.705Y-90.475
X202.705Y-109.525
X202.705Y-128.575
T7
X98.565Y-87.935
X98.565Y-106.985
X98.565Y-126.035
X104.915Y-85.395
X104.915Y-104.445
X104.915Y-123.495
X109.36Y-152.705
X115.71Y-150.165
X117.615Y-87.935
X117.615Y-106.985
X117.615Y-126.035
X123.965Y-85.395
X123.965Y-104.445
X123.965Y-123.495
X127.14Y-49.835
X128.41Y-152.705
X133.49Y-47.295
X134.76Y-150.165
X136.665Y-68.885
X136.665Y-87.935
X136.665Y-106.985
X136.665Y-126.035
X143.015Y-66.345
X143.015Y-85.395
X143.015Y-104.445
X143.015Y-123.495
X146.19Y-49.835
X147.46Y-152.705
X152.54Y-47.295
X153.81Y-150.165
X155.715Y-68.885
X155.715Y-87.935
X155.715Y-106.985
X155.715Y-126.035
X162.065Y-66.345
X162.065Y-85.395
X162.065Y-104.445
X162.065Y-123.495
X165.24Y-49.835
X166.51Y-152.705
X171.59Y-47.295
X172.86Y-150.165
X174.765Y-68.885
X174.765Y-87.935
X174.765Y-106.985
X174.765Y-126.035
X181.115Y-66.345
X181.115Y-85.395
X181.115Y-104.445
X181.115Y-123.495
X184.29Y-49.835
X185.56Y-152.705
X190.64Y-47.295
X191.91Y-150.165
X193.815Y-68.885
X193.815Y-87.935
X193.815Y-106.985
X193.815Y-126.035
X200.165Y-66.345
X200.165Y-85.395
X200.165Y-104.445
X200.165Y-123.495
T8
X102.375Y-90.475
X102.375Y-109.525
X102.375Y-128.575
X111.9Y-147.625
X121.425Y-90.475
X121.425Y-109.525
X121.425Y-128.575
X130.95Y-52.375
X130.95Y-147.625
X140.475Y-71.425
X140.475Y-90.475
X140.475Y-109.525
X140.475Y-128.575
X150.0Y-52.375
X150.0Y-147.625
X159.525Y-71.425
X159.525Y-90.475
X159.525Y-109.525
X159.525Y-128.575
X169.05Y-52.375
X169.05Y-147.625
X178.575Y-71.425
X178.575Y-90.475
X178.575Y-109.525
X178.575Y-128.575
X188.1Y-52.375
X188.1Y-147.625
X197.625Y-71.425
X197.625Y-90.475
X197.625Y-109.525
X197.625Y-128.575
T0
M30
