%TF.GenerationSoftware,KiCad,Pcbnew,(5.1.9)-1*%
%TF.CreationDate,2021-05-21T21:09:54+09:00*%
%TF.ProjectId,yuiop31rs,7975696f-7033-4317-9273-2e6b69636164,1*%
%TF.SameCoordinates,Original*%
%TF.FileFunction,Legend,Top*%
%TF.FilePolarity,Positive*%
%FSLAX46Y46*%
G04 Gerber Fmt 4.6, Leading zero omitted, Abs format (unit mm)*
G04 Created by KiCad (PCBNEW (5.1.9)-1) date 2021-05-21 21:09:54*
%MOMM*%
%LPD*%
G01*
G04 APERTURE LIST*
%ADD10C,0.150000*%
%ADD11C,0.120000*%
%ADD12C,0.125000*%
G04 APERTURE END LIST*
D10*
X190304761Y-155561904D02*
X190304761Y-156133333D01*
X190266666Y-156247619D01*
X190190476Y-156323809D01*
X190076190Y-156361904D01*
X190000000Y-156361904D01*
X191066666Y-156361904D02*
X190685714Y-156361904D01*
X190685714Y-155561904D01*
X191790476Y-156285714D02*
X191752380Y-156323809D01*
X191638095Y-156361904D01*
X191561904Y-156361904D01*
X191447619Y-156323809D01*
X191371428Y-156247619D01*
X191333333Y-156171428D01*
X191295238Y-156019047D01*
X191295238Y-155904761D01*
X191333333Y-155752380D01*
X191371428Y-155676190D01*
X191447619Y-155600000D01*
X191561904Y-155561904D01*
X191638095Y-155561904D01*
X191752380Y-155600000D01*
X191790476Y-155638095D01*
X192361904Y-155561904D02*
X192361904Y-156133333D01*
X192323809Y-156247619D01*
X192247619Y-156323809D01*
X192133333Y-156361904D01*
X192057142Y-156361904D01*
X193123809Y-156361904D02*
X192742857Y-156361904D01*
X192742857Y-155561904D01*
X193847619Y-156285714D02*
X193809523Y-156323809D01*
X193695238Y-156361904D01*
X193619047Y-156361904D01*
X193504761Y-156323809D01*
X193428571Y-156247619D01*
X193390476Y-156171428D01*
X193352380Y-156019047D01*
X193352380Y-155904761D01*
X193390476Y-155752380D01*
X193428571Y-155676190D01*
X193504761Y-155600000D01*
X193619047Y-155561904D01*
X193695238Y-155561904D01*
X193809523Y-155600000D01*
X193847619Y-155638095D01*
X194419047Y-155561904D02*
X194419047Y-156133333D01*
X194380952Y-156247619D01*
X194304761Y-156323809D01*
X194190476Y-156361904D01*
X194114285Y-156361904D01*
X195180952Y-156361904D02*
X194800000Y-156361904D01*
X194800000Y-155561904D01*
X195904761Y-156285714D02*
X195866666Y-156323809D01*
X195752380Y-156361904D01*
X195676190Y-156361904D01*
X195561904Y-156323809D01*
X195485714Y-156247619D01*
X195447619Y-156171428D01*
X195409523Y-156019047D01*
X195409523Y-155904761D01*
X195447619Y-155752380D01*
X195485714Y-155676190D01*
X195561904Y-155600000D01*
X195676190Y-155561904D01*
X195752380Y-155561904D01*
X195866666Y-155600000D01*
X195904761Y-155638095D01*
X196476190Y-155561904D02*
X196476190Y-156133333D01*
X196438095Y-156247619D01*
X196361904Y-156323809D01*
X196247619Y-156361904D01*
X196171428Y-156361904D01*
X197238095Y-156361904D02*
X196857142Y-156361904D01*
X196857142Y-155561904D01*
X197961904Y-156285714D02*
X197923809Y-156323809D01*
X197809523Y-156361904D01*
X197733333Y-156361904D01*
X197619047Y-156323809D01*
X197542857Y-156247619D01*
X197504761Y-156171428D01*
X197466666Y-156019047D01*
X197466666Y-155904761D01*
X197504761Y-155752380D01*
X197542857Y-155676190D01*
X197619047Y-155600000D01*
X197733333Y-155561904D01*
X197809523Y-155561904D01*
X197923809Y-155600000D01*
X197961904Y-155638095D01*
%TO.C,U1*%
X89600000Y-71574900D02*
X89600000Y-71274900D01*
X89450000Y-71674900D02*
X89450000Y-71174900D01*
X89300000Y-71774900D02*
X89300000Y-71074900D01*
X89800000Y-71424900D02*
X89150000Y-71924900D01*
X89150000Y-70924900D02*
X89800000Y-71424900D01*
X89150000Y-71924900D02*
X89150000Y-70924900D01*
X88800000Y-67674900D02*
X88800000Y-75174900D01*
X90100000Y-67674900D02*
X88800000Y-67674900D01*
X90100000Y-75174900D02*
X90100000Y-67674900D01*
X88800000Y-75174900D02*
X90100000Y-75174900D01*
X94400000Y-80174900D02*
X95250000Y-80174900D01*
X94400000Y-62674900D02*
X95250000Y-62674900D01*
X94400000Y-80174900D02*
X94400000Y-79324900D01*
X94400000Y-62674900D02*
X94400000Y-63474900D01*
X123700000Y-80174900D02*
X124600000Y-80174900D01*
X123750000Y-62674900D02*
X124600000Y-62674900D01*
X124600000Y-80174900D02*
X124600000Y-79324900D01*
X124600000Y-62674900D02*
X124600000Y-63534900D01*
D11*
%TO.C,ROT_SW1*%
X111126000Y-48961700D02*
G75*
G03*
X111126000Y-48961700I-2560000J0D01*
G01*
X104896000Y-45271700D02*
X104896000Y-45191700D01*
X104896000Y-45191700D02*
X112236000Y-45191700D01*
X112236000Y-45191700D02*
X112236000Y-45271700D01*
X104896000Y-52651700D02*
X104896000Y-52731700D01*
X104896000Y-52731700D02*
X112236000Y-52731700D01*
X112236000Y-52731700D02*
X112236000Y-52651700D01*
X104896000Y-47571700D02*
X104896000Y-47811700D01*
X104896000Y-50111700D02*
X104896000Y-50351700D01*
X112236000Y-47571700D02*
X112236000Y-47811700D01*
X112236000Y-50111700D02*
X112236000Y-50351700D01*
X103336000Y-46311700D02*
X103336000Y-44941700D01*
X103336000Y-44941700D02*
X104706000Y-44941700D01*
X108566000Y-47041700D02*
X108566000Y-50881700D01*
X107286000Y-48321700D02*
X108566000Y-47041700D01*
X108566000Y-47041700D02*
X109846000Y-48321700D01*
D10*
%TO.C,RESET_SW1*%
X92440400Y-54287300D02*
X92690400Y-54287300D01*
X92440400Y-59987300D02*
X92440400Y-54287300D01*
X92440400Y-59987300D02*
X92690400Y-59987300D01*
X95640400Y-59987300D02*
X95390400Y-59987300D01*
X95640400Y-54287300D02*
X95390400Y-54287300D01*
X95640400Y-59987300D02*
X95640400Y-54287300D01*
%TO.C,U1*%
D12*
X95839285Y-76882519D02*
X95482142Y-77105852D01*
X95839285Y-77265376D02*
X95089285Y-77265376D01*
X95089285Y-77010138D01*
X95125000Y-76946328D01*
X95160714Y-76914423D01*
X95232142Y-76882519D01*
X95339285Y-76882519D01*
X95410714Y-76914423D01*
X95446428Y-76946328D01*
X95482142Y-77010138D01*
X95482142Y-77265376D01*
X95625000Y-76627280D02*
X95625000Y-76308233D01*
X95839285Y-76691090D02*
X95089285Y-76467757D01*
X95839285Y-76244423D01*
X95089285Y-76084900D02*
X95839285Y-75925376D01*
X95303571Y-75797757D01*
X95839285Y-75670138D01*
X95089285Y-75510614D01*
X97675000Y-76930376D02*
X97639285Y-76994185D01*
X97639285Y-77089900D01*
X97675000Y-77185614D01*
X97746428Y-77249423D01*
X97817857Y-77281328D01*
X97960714Y-77313233D01*
X98067857Y-77313233D01*
X98210714Y-77281328D01*
X98282142Y-77249423D01*
X98353571Y-77185614D01*
X98389285Y-77089900D01*
X98389285Y-77026090D01*
X98353571Y-76930376D01*
X98317857Y-76898471D01*
X98067857Y-76898471D01*
X98067857Y-77026090D01*
X98389285Y-76611328D02*
X97639285Y-76611328D01*
X98389285Y-76228471D01*
X97639285Y-76228471D01*
X98389285Y-75909423D02*
X97639285Y-75909423D01*
X97639285Y-75749900D01*
X97675000Y-75654185D01*
X97746428Y-75590376D01*
X97817857Y-75558471D01*
X97960714Y-75526566D01*
X98067857Y-75526566D01*
X98210714Y-75558471D01*
X98282142Y-75590376D01*
X98353571Y-75654185D01*
X98389285Y-75749900D01*
X98389285Y-75909423D01*
X100939285Y-76786804D02*
X100582142Y-77010138D01*
X100939285Y-77169661D02*
X100189285Y-77169661D01*
X100189285Y-76914423D01*
X100225000Y-76850614D01*
X100260714Y-76818709D01*
X100332142Y-76786804D01*
X100439285Y-76786804D01*
X100510714Y-76818709D01*
X100546428Y-76850614D01*
X100582142Y-76914423D01*
X100582142Y-77169661D01*
X100903571Y-76531566D02*
X100939285Y-76435852D01*
X100939285Y-76276328D01*
X100903571Y-76212519D01*
X100867857Y-76180614D01*
X100796428Y-76148709D01*
X100725000Y-76148709D01*
X100653571Y-76180614D01*
X100617857Y-76212519D01*
X100582142Y-76276328D01*
X100546428Y-76403947D01*
X100510714Y-76467757D01*
X100475000Y-76499661D01*
X100403571Y-76531566D01*
X100332142Y-76531566D01*
X100260714Y-76499661D01*
X100225000Y-76467757D01*
X100189285Y-76403947D01*
X100189285Y-76244423D01*
X100225000Y-76148709D01*
X100189285Y-75957280D02*
X100189285Y-75574423D01*
X100939285Y-75765852D02*
X100189285Y-75765852D01*
X102639285Y-77313233D02*
X103389285Y-77089900D01*
X102639285Y-76866566D01*
X103317857Y-76260376D02*
X103353571Y-76292280D01*
X103389285Y-76387995D01*
X103389285Y-76451804D01*
X103353571Y-76547519D01*
X103282142Y-76611328D01*
X103210714Y-76643233D01*
X103067857Y-76675138D01*
X102960714Y-76675138D01*
X102817857Y-76643233D01*
X102746428Y-76611328D01*
X102675000Y-76547519D01*
X102639285Y-76451804D01*
X102639285Y-76387995D01*
X102675000Y-76292280D01*
X102710714Y-76260376D01*
X103317857Y-75590376D02*
X103353571Y-75622280D01*
X103389285Y-75717995D01*
X103389285Y-75781804D01*
X103353571Y-75877519D01*
X103282142Y-75941328D01*
X103210714Y-75973233D01*
X103067857Y-76005138D01*
X102960714Y-76005138D01*
X102817857Y-75973233D01*
X102746428Y-75941328D01*
X102675000Y-75877519D01*
X102639285Y-75781804D01*
X102639285Y-75717995D01*
X102675000Y-75622280D01*
X102710714Y-75590376D01*
X105875000Y-77255614D02*
X105875000Y-76936566D01*
X106089285Y-77319423D02*
X105339285Y-77096090D01*
X106089285Y-76872757D01*
X105339285Y-76713233D02*
X105339285Y-76298471D01*
X105625000Y-76521804D01*
X105625000Y-76426090D01*
X105660714Y-76362280D01*
X105696428Y-76330376D01*
X105767857Y-76298471D01*
X105946428Y-76298471D01*
X106017857Y-76330376D01*
X106053571Y-76362280D01*
X106089285Y-76426090D01*
X106089285Y-76617519D01*
X106053571Y-76681328D01*
X106017857Y-76713233D01*
X105303571Y-75532757D02*
X106267857Y-76107042D01*
X105696428Y-75086090D02*
X105696428Y-75309423D01*
X106089285Y-75309423D02*
X105339285Y-75309423D01*
X105339285Y-74990376D01*
X105589285Y-74447995D02*
X106089285Y-74447995D01*
X105303571Y-74607519D02*
X105839285Y-74767042D01*
X105839285Y-74352280D01*
X108375000Y-77255614D02*
X108375000Y-76936566D01*
X108589285Y-77319423D02*
X107839285Y-77096090D01*
X108589285Y-76872757D01*
X107910714Y-76681328D02*
X107875000Y-76649423D01*
X107839285Y-76585614D01*
X107839285Y-76426090D01*
X107875000Y-76362280D01*
X107910714Y-76330376D01*
X107982142Y-76298471D01*
X108053571Y-76298471D01*
X108160714Y-76330376D01*
X108589285Y-76713233D01*
X108589285Y-76298471D01*
X107803571Y-75532757D02*
X108767857Y-76107042D01*
X108196428Y-75086090D02*
X108196428Y-75309423D01*
X108589285Y-75309423D02*
X107839285Y-75309423D01*
X107839285Y-74990376D01*
X107839285Y-74416090D02*
X107839285Y-74735138D01*
X108196428Y-74767042D01*
X108160714Y-74735138D01*
X108125000Y-74671328D01*
X108125000Y-74511804D01*
X108160714Y-74447995D01*
X108196428Y-74416090D01*
X108267857Y-74384185D01*
X108446428Y-74384185D01*
X108517857Y-74416090D01*
X108553571Y-74447995D01*
X108589285Y-74511804D01*
X108589285Y-74671328D01*
X108553571Y-74735138D01*
X108517857Y-74767042D01*
X110875000Y-77255614D02*
X110875000Y-76936566D01*
X111089285Y-77319423D02*
X110339285Y-77096090D01*
X111089285Y-76872757D01*
X111089285Y-76298471D02*
X111089285Y-76681328D01*
X111089285Y-76489900D02*
X110339285Y-76489900D01*
X110446428Y-76553709D01*
X110517857Y-76617519D01*
X110553571Y-76681328D01*
X110303571Y-75532757D02*
X111267857Y-76107042D01*
X110696428Y-75086090D02*
X110696428Y-75309423D01*
X111089285Y-75309423D02*
X110339285Y-75309423D01*
X110339285Y-74990376D01*
X110339285Y-74447995D02*
X110339285Y-74575614D01*
X110375000Y-74639423D01*
X110410714Y-74671328D01*
X110517857Y-74735138D01*
X110660714Y-74767042D01*
X110946428Y-74767042D01*
X111017857Y-74735138D01*
X111053571Y-74703233D01*
X111089285Y-74639423D01*
X111089285Y-74511804D01*
X111053571Y-74447995D01*
X111017857Y-74416090D01*
X110946428Y-74384185D01*
X110767857Y-74384185D01*
X110696428Y-74416090D01*
X110660714Y-74447995D01*
X110625000Y-74511804D01*
X110625000Y-74639423D01*
X110660714Y-74703233D01*
X110696428Y-74735138D01*
X110767857Y-74767042D01*
X113425000Y-77255614D02*
X113425000Y-76936566D01*
X113639285Y-77319423D02*
X112889285Y-77096090D01*
X113639285Y-76872757D01*
X112889285Y-76521804D02*
X112889285Y-76457995D01*
X112925000Y-76394185D01*
X112960714Y-76362280D01*
X113032142Y-76330376D01*
X113175000Y-76298471D01*
X113353571Y-76298471D01*
X113496428Y-76330376D01*
X113567857Y-76362280D01*
X113603571Y-76394185D01*
X113639285Y-76457995D01*
X113639285Y-76521804D01*
X113603571Y-76585614D01*
X113567857Y-76617519D01*
X113496428Y-76649423D01*
X113353571Y-76681328D01*
X113175000Y-76681328D01*
X113032142Y-76649423D01*
X112960714Y-76617519D01*
X112925000Y-76585614D01*
X112889285Y-76521804D01*
X112853571Y-75532757D02*
X113817857Y-76107042D01*
X113246428Y-75086090D02*
X113246428Y-75309423D01*
X113639285Y-75309423D02*
X112889285Y-75309423D01*
X112889285Y-74990376D01*
X112889285Y-74798947D02*
X112889285Y-74352280D01*
X113639285Y-74639423D01*
X116189285Y-76952519D02*
X116189285Y-77335376D01*
X116189285Y-77143947D02*
X115439285Y-77143947D01*
X115546428Y-77207757D01*
X115617857Y-77271566D01*
X115653571Y-77335376D01*
X115439285Y-76346328D02*
X115439285Y-76665376D01*
X115796428Y-76697280D01*
X115760714Y-76665376D01*
X115725000Y-76601566D01*
X115725000Y-76442042D01*
X115760714Y-76378233D01*
X115796428Y-76346328D01*
X115867857Y-76314423D01*
X116046428Y-76314423D01*
X116117857Y-76346328D01*
X116153571Y-76378233D01*
X116189285Y-76442042D01*
X116189285Y-76601566D01*
X116153571Y-76665376D01*
X116117857Y-76697280D01*
X115403571Y-75548709D02*
X116367857Y-76122995D01*
X115796428Y-75102042D02*
X115832142Y-75006328D01*
X115867857Y-74974423D01*
X115939285Y-74942519D01*
X116046428Y-74942519D01*
X116117857Y-74974423D01*
X116153571Y-75006328D01*
X116189285Y-75070138D01*
X116189285Y-75325376D01*
X115439285Y-75325376D01*
X115439285Y-75102042D01*
X115475000Y-75038233D01*
X115510714Y-75006328D01*
X115582142Y-74974423D01*
X115653571Y-74974423D01*
X115725000Y-75006328D01*
X115760714Y-75038233D01*
X115796428Y-75102042D01*
X115796428Y-75325376D01*
X116189285Y-74304423D02*
X116189285Y-74687280D01*
X116189285Y-74495852D02*
X115439285Y-74495852D01*
X115546428Y-74559661D01*
X115617857Y-74623471D01*
X115653571Y-74687280D01*
X118739285Y-76952519D02*
X118739285Y-77335376D01*
X118739285Y-77143947D02*
X117989285Y-77143947D01*
X118096428Y-77207757D01*
X118167857Y-77271566D01*
X118203571Y-77335376D01*
X118239285Y-76378233D02*
X118739285Y-76378233D01*
X117953571Y-76537757D02*
X118489285Y-76697280D01*
X118489285Y-76282519D01*
X117953571Y-75548709D02*
X118917857Y-76122995D01*
X118346428Y-75102042D02*
X118382142Y-75006328D01*
X118417857Y-74974423D01*
X118489285Y-74942519D01*
X118596428Y-74942519D01*
X118667857Y-74974423D01*
X118703571Y-75006328D01*
X118739285Y-75070138D01*
X118739285Y-75325376D01*
X117989285Y-75325376D01*
X117989285Y-75102042D01*
X118025000Y-75038233D01*
X118060714Y-75006328D01*
X118132142Y-74974423D01*
X118203571Y-74974423D01*
X118275000Y-75006328D01*
X118310714Y-75038233D01*
X118346428Y-75102042D01*
X118346428Y-75325376D01*
X117989285Y-74719185D02*
X117989285Y-74304423D01*
X118275000Y-74527757D01*
X118275000Y-74432042D01*
X118310714Y-74368233D01*
X118346428Y-74336328D01*
X118417857Y-74304423D01*
X118596428Y-74304423D01*
X118667857Y-74336328D01*
X118703571Y-74368233D01*
X118739285Y-74432042D01*
X118739285Y-74623471D01*
X118703571Y-74687280D01*
X118667857Y-74719185D01*
X123789285Y-76952519D02*
X123789285Y-77335376D01*
X123789285Y-77143947D02*
X123039285Y-77143947D01*
X123146428Y-77207757D01*
X123217857Y-77271566D01*
X123253571Y-77335376D01*
X123039285Y-76537757D02*
X123039285Y-76473947D01*
X123075000Y-76410138D01*
X123110714Y-76378233D01*
X123182142Y-76346328D01*
X123325000Y-76314423D01*
X123503571Y-76314423D01*
X123646428Y-76346328D01*
X123717857Y-76378233D01*
X123753571Y-76410138D01*
X123789285Y-76473947D01*
X123789285Y-76537757D01*
X123753571Y-76601566D01*
X123717857Y-76633471D01*
X123646428Y-76665376D01*
X123503571Y-76697280D01*
X123325000Y-76697280D01*
X123182142Y-76665376D01*
X123110714Y-76633471D01*
X123075000Y-76601566D01*
X123039285Y-76537757D01*
X123003571Y-75548709D02*
X123967857Y-76122995D01*
X123396428Y-75102042D02*
X123432142Y-75006328D01*
X123467857Y-74974423D01*
X123539285Y-74942519D01*
X123646428Y-74942519D01*
X123717857Y-74974423D01*
X123753571Y-75006328D01*
X123789285Y-75070138D01*
X123789285Y-75325376D01*
X123039285Y-75325376D01*
X123039285Y-75102042D01*
X123075000Y-75038233D01*
X123110714Y-75006328D01*
X123182142Y-74974423D01*
X123253571Y-74974423D01*
X123325000Y-75006328D01*
X123360714Y-75038233D01*
X123396428Y-75102042D01*
X123396428Y-75325376D01*
X123039285Y-74368233D02*
X123039285Y-74495852D01*
X123075000Y-74559661D01*
X123110714Y-74591566D01*
X123217857Y-74655376D01*
X123360714Y-74687280D01*
X123646428Y-74687280D01*
X123717857Y-74655376D01*
X123753571Y-74623471D01*
X123789285Y-74559661D01*
X123789285Y-74432042D01*
X123753571Y-74368233D01*
X123717857Y-74336328D01*
X123646428Y-74304423D01*
X123467857Y-74304423D01*
X123396428Y-74336328D01*
X123360714Y-74368233D01*
X123325000Y-74432042D01*
X123325000Y-74559661D01*
X123360714Y-74623471D01*
X123396428Y-74655376D01*
X123467857Y-74687280D01*
X121289285Y-76952519D02*
X121289285Y-77335376D01*
X121289285Y-77143947D02*
X120539285Y-77143947D01*
X120646428Y-77207757D01*
X120717857Y-77271566D01*
X120753571Y-77335376D01*
X120539285Y-76378233D02*
X120539285Y-76505852D01*
X120575000Y-76569661D01*
X120610714Y-76601566D01*
X120717857Y-76665376D01*
X120860714Y-76697280D01*
X121146428Y-76697280D01*
X121217857Y-76665376D01*
X121253571Y-76633471D01*
X121289285Y-76569661D01*
X121289285Y-76442042D01*
X121253571Y-76378233D01*
X121217857Y-76346328D01*
X121146428Y-76314423D01*
X120967857Y-76314423D01*
X120896428Y-76346328D01*
X120860714Y-76378233D01*
X120825000Y-76442042D01*
X120825000Y-76569661D01*
X120860714Y-76633471D01*
X120896428Y-76665376D01*
X120967857Y-76697280D01*
X120503571Y-75548709D02*
X121467857Y-76122995D01*
X120896428Y-75102042D02*
X120932142Y-75006328D01*
X120967857Y-74974423D01*
X121039285Y-74942519D01*
X121146428Y-74942519D01*
X121217857Y-74974423D01*
X121253571Y-75006328D01*
X121289285Y-75070138D01*
X121289285Y-75325376D01*
X120539285Y-75325376D01*
X120539285Y-75102042D01*
X120575000Y-75038233D01*
X120610714Y-75006328D01*
X120682142Y-74974423D01*
X120753571Y-74974423D01*
X120825000Y-75006328D01*
X120860714Y-75038233D01*
X120896428Y-75102042D01*
X120896428Y-75325376D01*
X120610714Y-74687280D02*
X120575000Y-74655376D01*
X120539285Y-74591566D01*
X120539285Y-74432042D01*
X120575000Y-74368233D01*
X120610714Y-74336328D01*
X120682142Y-74304423D01*
X120753571Y-74304423D01*
X120860714Y-74336328D01*
X121289285Y-74719185D01*
X121289285Y-74304423D01*
X118196428Y-67852519D02*
X118196428Y-67629185D01*
X118589285Y-67533471D02*
X118589285Y-67852519D01*
X117839285Y-67852519D01*
X117839285Y-67533471D01*
X117839285Y-66959185D02*
X117839285Y-67086804D01*
X117875000Y-67150614D01*
X117910714Y-67182519D01*
X118017857Y-67246328D01*
X118160714Y-67278233D01*
X118446428Y-67278233D01*
X118517857Y-67246328D01*
X118553571Y-67214423D01*
X118589285Y-67150614D01*
X118589285Y-67022995D01*
X118553571Y-66959185D01*
X118517857Y-66927280D01*
X118446428Y-66895376D01*
X118267857Y-66895376D01*
X118196428Y-66927280D01*
X118160714Y-66959185D01*
X118125000Y-67022995D01*
X118125000Y-67150614D01*
X118160714Y-67214423D01*
X118196428Y-67246328D01*
X118267857Y-67278233D01*
X117803571Y-66129661D02*
X118767857Y-66703947D01*
X117839285Y-65970138D02*
X117839285Y-65523471D01*
X118589285Y-65810614D01*
X116039285Y-67884423D02*
X115289285Y-67884423D01*
X115289285Y-67724900D01*
X115325000Y-67629185D01*
X115396428Y-67565376D01*
X115467857Y-67533471D01*
X115610714Y-67501566D01*
X115717857Y-67501566D01*
X115860714Y-67533471D01*
X115932142Y-67565376D01*
X116003571Y-67629185D01*
X116039285Y-67724900D01*
X116039285Y-67884423D01*
X115289285Y-67278233D02*
X115289285Y-66831566D01*
X116039285Y-67118709D01*
X115253571Y-66097757D02*
X116217857Y-66672042D01*
X115289285Y-65587280D02*
X115289285Y-65714900D01*
X115325000Y-65778709D01*
X115360714Y-65810614D01*
X115467857Y-65874423D01*
X115610714Y-65906328D01*
X115896428Y-65906328D01*
X115967857Y-65874423D01*
X116003571Y-65842519D01*
X116039285Y-65778709D01*
X116039285Y-65651090D01*
X116003571Y-65587280D01*
X115967857Y-65555376D01*
X115896428Y-65523471D01*
X115717857Y-65523471D01*
X115646428Y-65555376D01*
X115610714Y-65587280D01*
X115575000Y-65651090D01*
X115575000Y-65778709D01*
X115610714Y-65842519D01*
X115646428Y-65874423D01*
X115717857Y-65906328D01*
X100275000Y-66980376D02*
X100239285Y-67044185D01*
X100239285Y-67139900D01*
X100275000Y-67235614D01*
X100346428Y-67299423D01*
X100417857Y-67331328D01*
X100560714Y-67363233D01*
X100667857Y-67363233D01*
X100810714Y-67331328D01*
X100882142Y-67299423D01*
X100953571Y-67235614D01*
X100989285Y-67139900D01*
X100989285Y-67076090D01*
X100953571Y-66980376D01*
X100917857Y-66948471D01*
X100667857Y-66948471D01*
X100667857Y-67076090D01*
X100989285Y-66661328D02*
X100239285Y-66661328D01*
X100989285Y-66278471D01*
X100239285Y-66278471D01*
X100989285Y-65959423D02*
X100239285Y-65959423D01*
X100239285Y-65799900D01*
X100275000Y-65704185D01*
X100346428Y-65640376D01*
X100417857Y-65608471D01*
X100560714Y-65576566D01*
X100667857Y-65576566D01*
X100810714Y-65608471D01*
X100882142Y-65640376D01*
X100953571Y-65704185D01*
X100989285Y-65799900D01*
X100989285Y-65959423D01*
X102725000Y-66980376D02*
X102689285Y-67044185D01*
X102689285Y-67139900D01*
X102725000Y-67235614D01*
X102796428Y-67299423D01*
X102867857Y-67331328D01*
X103010714Y-67363233D01*
X103117857Y-67363233D01*
X103260714Y-67331328D01*
X103332142Y-67299423D01*
X103403571Y-67235614D01*
X103439285Y-67139900D01*
X103439285Y-67076090D01*
X103403571Y-66980376D01*
X103367857Y-66948471D01*
X103117857Y-66948471D01*
X103117857Y-67076090D01*
X103439285Y-66661328D02*
X102689285Y-66661328D01*
X103439285Y-66278471D01*
X102689285Y-66278471D01*
X103439285Y-65959423D02*
X102689285Y-65959423D01*
X102689285Y-65799900D01*
X102725000Y-65704185D01*
X102796428Y-65640376D01*
X102867857Y-65608471D01*
X103010714Y-65576566D01*
X103117857Y-65576566D01*
X103260714Y-65608471D01*
X103332142Y-65640376D01*
X103403571Y-65704185D01*
X103439285Y-65799900D01*
X103439285Y-65959423D01*
X95889285Y-69008709D02*
X95139285Y-69008709D01*
X95139285Y-68849185D01*
X95175000Y-68753471D01*
X95246428Y-68689661D01*
X95317857Y-68657757D01*
X95460714Y-68625852D01*
X95567857Y-68625852D01*
X95710714Y-68657757D01*
X95782142Y-68689661D01*
X95853571Y-68753471D01*
X95889285Y-68849185D01*
X95889285Y-69008709D01*
X95139285Y-68402519D02*
X95139285Y-67987757D01*
X95425000Y-68211090D01*
X95425000Y-68115376D01*
X95460714Y-68051566D01*
X95496428Y-68019661D01*
X95567857Y-67987757D01*
X95746428Y-67987757D01*
X95817857Y-68019661D01*
X95853571Y-68051566D01*
X95889285Y-68115376D01*
X95889285Y-68306804D01*
X95853571Y-68370614D01*
X95817857Y-68402519D01*
X95103571Y-67222042D02*
X96067857Y-67796328D01*
X95139285Y-67094423D02*
X95139285Y-66711566D01*
X95889285Y-66902995D02*
X95139285Y-66902995D01*
X95139285Y-66552042D02*
X95889285Y-66105376D01*
X95139285Y-66105376D02*
X95889285Y-66552042D01*
X95139285Y-65722519D02*
X95139285Y-65658709D01*
X95175000Y-65594900D01*
X95210714Y-65562995D01*
X95282142Y-65531090D01*
X95425000Y-65499185D01*
X95603571Y-65499185D01*
X95746428Y-65531090D01*
X95817857Y-65562995D01*
X95853571Y-65594900D01*
X95889285Y-65658709D01*
X95889285Y-65722519D01*
X95853571Y-65786328D01*
X95817857Y-65818233D01*
X95746428Y-65850138D01*
X95603571Y-65882042D01*
X95425000Y-65882042D01*
X95282142Y-65850138D01*
X95210714Y-65818233D01*
X95175000Y-65786328D01*
X95139285Y-65722519D01*
X110939285Y-67884423D02*
X110189285Y-67884423D01*
X110189285Y-67724900D01*
X110225000Y-67629185D01*
X110296428Y-67565376D01*
X110367857Y-67533471D01*
X110510714Y-67501566D01*
X110617857Y-67501566D01*
X110760714Y-67533471D01*
X110832142Y-67565376D01*
X110903571Y-67629185D01*
X110939285Y-67724900D01*
X110939285Y-67884423D01*
X110439285Y-66927280D02*
X110939285Y-66927280D01*
X110153571Y-67086804D02*
X110689285Y-67246328D01*
X110689285Y-66831566D01*
X110153571Y-66097757D02*
X111117857Y-66672042D01*
X110439285Y-65587280D02*
X110939285Y-65587280D01*
X110153571Y-65746804D02*
X110689285Y-65906328D01*
X110689285Y-65491566D01*
X105903571Y-70458471D02*
X105939285Y-70362757D01*
X105939285Y-70203233D01*
X105903571Y-70139423D01*
X105867857Y-70107519D01*
X105796428Y-70075614D01*
X105725000Y-70075614D01*
X105653571Y-70107519D01*
X105617857Y-70139423D01*
X105582142Y-70203233D01*
X105546428Y-70330852D01*
X105510714Y-70394661D01*
X105475000Y-70426566D01*
X105403571Y-70458471D01*
X105332142Y-70458471D01*
X105260714Y-70426566D01*
X105225000Y-70394661D01*
X105189285Y-70330852D01*
X105189285Y-70171328D01*
X105225000Y-70075614D01*
X105939285Y-69788471D02*
X105189285Y-69788471D01*
X105189285Y-69628947D01*
X105225000Y-69533233D01*
X105296428Y-69469423D01*
X105367857Y-69437519D01*
X105510714Y-69405614D01*
X105617857Y-69405614D01*
X105760714Y-69437519D01*
X105832142Y-69469423D01*
X105903571Y-69533233D01*
X105939285Y-69628947D01*
X105939285Y-69788471D01*
X105725000Y-69150376D02*
X105725000Y-68831328D01*
X105939285Y-69214185D02*
X105189285Y-68990852D01*
X105939285Y-68767519D01*
X105153571Y-68065614D02*
X106117857Y-68639900D01*
X105939285Y-67842280D02*
X105189285Y-67842280D01*
X105189285Y-67682757D01*
X105225000Y-67587042D01*
X105296428Y-67523233D01*
X105367857Y-67491328D01*
X105510714Y-67459423D01*
X105617857Y-67459423D01*
X105760714Y-67491328D01*
X105832142Y-67523233D01*
X105903571Y-67587042D01*
X105939285Y-67682757D01*
X105939285Y-67842280D01*
X105939285Y-66821328D02*
X105939285Y-67204185D01*
X105939285Y-67012757D02*
X105189285Y-67012757D01*
X105296428Y-67076566D01*
X105367857Y-67140376D01*
X105403571Y-67204185D01*
X105153571Y-66055614D02*
X106117857Y-66629900D01*
X105260714Y-65864185D02*
X105225000Y-65832280D01*
X105189285Y-65768471D01*
X105189285Y-65608947D01*
X105225000Y-65545138D01*
X105260714Y-65513233D01*
X105332142Y-65481328D01*
X105403571Y-65481328D01*
X105510714Y-65513233D01*
X105939285Y-65896090D01*
X105939285Y-65481328D01*
X108403571Y-70442519D02*
X108439285Y-70346804D01*
X108439285Y-70187280D01*
X108403571Y-70123471D01*
X108367857Y-70091566D01*
X108296428Y-70059661D01*
X108225000Y-70059661D01*
X108153571Y-70091566D01*
X108117857Y-70123471D01*
X108082142Y-70187280D01*
X108046428Y-70314900D01*
X108010714Y-70378709D01*
X107975000Y-70410614D01*
X107903571Y-70442519D01*
X107832142Y-70442519D01*
X107760714Y-70410614D01*
X107725000Y-70378709D01*
X107689285Y-70314900D01*
X107689285Y-70155376D01*
X107725000Y-70059661D01*
X108367857Y-69389661D02*
X108403571Y-69421566D01*
X108439285Y-69517280D01*
X108439285Y-69581090D01*
X108403571Y-69676804D01*
X108332142Y-69740614D01*
X108260714Y-69772519D01*
X108117857Y-69804423D01*
X108010714Y-69804423D01*
X107867857Y-69772519D01*
X107796428Y-69740614D01*
X107725000Y-69676804D01*
X107689285Y-69581090D01*
X107689285Y-69517280D01*
X107725000Y-69421566D01*
X107760714Y-69389661D01*
X108439285Y-68783471D02*
X108439285Y-69102519D01*
X107689285Y-69102519D01*
X107653571Y-68081566D02*
X108617857Y-68655852D01*
X108439285Y-67858233D02*
X107689285Y-67858233D01*
X107689285Y-67698709D01*
X107725000Y-67602995D01*
X107796428Y-67539185D01*
X107867857Y-67507280D01*
X108010714Y-67475376D01*
X108117857Y-67475376D01*
X108260714Y-67507280D01*
X108332142Y-67539185D01*
X108403571Y-67602995D01*
X108439285Y-67698709D01*
X108439285Y-67858233D01*
X107689285Y-67060614D02*
X107689285Y-66996804D01*
X107725000Y-66932995D01*
X107760714Y-66901090D01*
X107832142Y-66869185D01*
X107975000Y-66837280D01*
X108153571Y-66837280D01*
X108296428Y-66869185D01*
X108367857Y-66901090D01*
X108403571Y-66932995D01*
X108439285Y-66996804D01*
X108439285Y-67060614D01*
X108403571Y-67124423D01*
X108367857Y-67156328D01*
X108296428Y-67188233D01*
X108153571Y-67220138D01*
X107975000Y-67220138D01*
X107832142Y-67188233D01*
X107760714Y-67156328D01*
X107725000Y-67124423D01*
X107689285Y-67060614D01*
X107653571Y-66071566D02*
X108617857Y-66645852D01*
X107689285Y-65912042D02*
X107689285Y-65497280D01*
X107975000Y-65720614D01*
X107975000Y-65624900D01*
X108010714Y-65561090D01*
X108046428Y-65529185D01*
X108117857Y-65497280D01*
X108296428Y-65497280D01*
X108367857Y-65529185D01*
X108403571Y-65561090D01*
X108439285Y-65624900D01*
X108439285Y-65816328D01*
X108403571Y-65880138D01*
X108367857Y-65912042D01*
X113417857Y-67501566D02*
X113453571Y-67533471D01*
X113489285Y-67629185D01*
X113489285Y-67692995D01*
X113453571Y-67788709D01*
X113382142Y-67852519D01*
X113310714Y-67884423D01*
X113167857Y-67916328D01*
X113060714Y-67916328D01*
X112917857Y-67884423D01*
X112846428Y-67852519D01*
X112775000Y-67788709D01*
X112739285Y-67692995D01*
X112739285Y-67629185D01*
X112775000Y-67533471D01*
X112810714Y-67501566D01*
X112739285Y-66927280D02*
X112739285Y-67054900D01*
X112775000Y-67118709D01*
X112810714Y-67150614D01*
X112917857Y-67214423D01*
X113060714Y-67246328D01*
X113346428Y-67246328D01*
X113417857Y-67214423D01*
X113453571Y-67182519D01*
X113489285Y-67118709D01*
X113489285Y-66991090D01*
X113453571Y-66927280D01*
X113417857Y-66895376D01*
X113346428Y-66863471D01*
X113167857Y-66863471D01*
X113096428Y-66895376D01*
X113060714Y-66927280D01*
X113025000Y-66991090D01*
X113025000Y-67118709D01*
X113060714Y-67182519D01*
X113096428Y-67214423D01*
X113167857Y-67246328D01*
X112703571Y-66097757D02*
X113667857Y-66672042D01*
X112739285Y-65555376D02*
X112739285Y-65874423D01*
X113096428Y-65906328D01*
X113060714Y-65874423D01*
X113025000Y-65810614D01*
X113025000Y-65651090D01*
X113060714Y-65587280D01*
X113096428Y-65555376D01*
X113167857Y-65523471D01*
X113346428Y-65523471D01*
X113417857Y-65555376D01*
X113453571Y-65587280D01*
X113489285Y-65651090D01*
X113489285Y-65810614D01*
X113453571Y-65874423D01*
X113417857Y-65906328D01*
X123246428Y-67661090D02*
X123282142Y-67565376D01*
X123317857Y-67533471D01*
X123389285Y-67501566D01*
X123496428Y-67501566D01*
X123567857Y-67533471D01*
X123603571Y-67565376D01*
X123639285Y-67629185D01*
X123639285Y-67884423D01*
X122889285Y-67884423D01*
X122889285Y-67661090D01*
X122925000Y-67597280D01*
X122960714Y-67565376D01*
X123032142Y-67533471D01*
X123103571Y-67533471D01*
X123175000Y-67565376D01*
X123210714Y-67597280D01*
X123246428Y-67661090D01*
X123246428Y-67884423D01*
X122889285Y-66895376D02*
X122889285Y-67214423D01*
X123246428Y-67246328D01*
X123210714Y-67214423D01*
X123175000Y-67150614D01*
X123175000Y-66991090D01*
X123210714Y-66927280D01*
X123246428Y-66895376D01*
X123317857Y-66863471D01*
X123496428Y-66863471D01*
X123567857Y-66895376D01*
X123603571Y-66927280D01*
X123639285Y-66991090D01*
X123639285Y-67150614D01*
X123603571Y-67214423D01*
X123567857Y-67246328D01*
X122853571Y-66097757D02*
X123817857Y-66672042D01*
X123639285Y-65842519D02*
X123639285Y-65714900D01*
X123603571Y-65651090D01*
X123567857Y-65619185D01*
X123460714Y-65555376D01*
X123317857Y-65523471D01*
X123032142Y-65523471D01*
X122960714Y-65555376D01*
X122925000Y-65587280D01*
X122889285Y-65651090D01*
X122889285Y-65778709D01*
X122925000Y-65842519D01*
X122960714Y-65874423D01*
X123032142Y-65906328D01*
X123210714Y-65906328D01*
X123282142Y-65874423D01*
X123317857Y-65842519D01*
X123353571Y-65778709D01*
X123353571Y-65651090D01*
X123317857Y-65587280D01*
X123282142Y-65555376D01*
X123210714Y-65523471D01*
X98439285Y-69088471D02*
X97689285Y-69088471D01*
X97689285Y-68928947D01*
X97725000Y-68833233D01*
X97796428Y-68769423D01*
X97867857Y-68737519D01*
X98010714Y-68705614D01*
X98117857Y-68705614D01*
X98260714Y-68737519D01*
X98332142Y-68769423D01*
X98403571Y-68833233D01*
X98439285Y-68928947D01*
X98439285Y-69088471D01*
X97760714Y-68450376D02*
X97725000Y-68418471D01*
X97689285Y-68354661D01*
X97689285Y-68195138D01*
X97725000Y-68131328D01*
X97760714Y-68099423D01*
X97832142Y-68067519D01*
X97903571Y-68067519D01*
X98010714Y-68099423D01*
X98439285Y-68482280D01*
X98439285Y-68067519D01*
X97653571Y-67301804D02*
X98617857Y-67876090D01*
X98439285Y-66695614D02*
X98082142Y-66918947D01*
X98439285Y-67078471D02*
X97689285Y-67078471D01*
X97689285Y-66823233D01*
X97725000Y-66759423D01*
X97760714Y-66727519D01*
X97832142Y-66695614D01*
X97939285Y-66695614D01*
X98010714Y-66727519D01*
X98046428Y-66759423D01*
X98082142Y-66823233D01*
X98082142Y-67078471D01*
X97689285Y-66472280D02*
X98439285Y-66025614D01*
X97689285Y-66025614D02*
X98439285Y-66472280D01*
X98439285Y-65419423D02*
X98439285Y-65802280D01*
X98439285Y-65610852D02*
X97689285Y-65610852D01*
X97796428Y-65674661D01*
X97867857Y-65738471D01*
X97903571Y-65802280D01*
X120746428Y-67661090D02*
X120782142Y-67565376D01*
X120817857Y-67533471D01*
X120889285Y-67501566D01*
X120996428Y-67501566D01*
X121067857Y-67533471D01*
X121103571Y-67565376D01*
X121139285Y-67629185D01*
X121139285Y-67884423D01*
X120389285Y-67884423D01*
X120389285Y-67661090D01*
X120425000Y-67597280D01*
X120460714Y-67565376D01*
X120532142Y-67533471D01*
X120603571Y-67533471D01*
X120675000Y-67565376D01*
X120710714Y-67597280D01*
X120746428Y-67661090D01*
X120746428Y-67884423D01*
X120639285Y-66927280D02*
X121139285Y-66927280D01*
X120353571Y-67086804D02*
X120889285Y-67246328D01*
X120889285Y-66831566D01*
X120353571Y-66097757D02*
X121317857Y-66672042D01*
X120710714Y-65778709D02*
X120675000Y-65842519D01*
X120639285Y-65874423D01*
X120567857Y-65906328D01*
X120532142Y-65906328D01*
X120460714Y-65874423D01*
X120425000Y-65842519D01*
X120389285Y-65778709D01*
X120389285Y-65651090D01*
X120425000Y-65587280D01*
X120460714Y-65555376D01*
X120532142Y-65523471D01*
X120567857Y-65523471D01*
X120639285Y-65555376D01*
X120675000Y-65587280D01*
X120710714Y-65651090D01*
X120710714Y-65778709D01*
X120746428Y-65842519D01*
X120782142Y-65874423D01*
X120853571Y-65906328D01*
X120996428Y-65906328D01*
X121067857Y-65874423D01*
X121103571Y-65842519D01*
X121139285Y-65778709D01*
X121139285Y-65651090D01*
X121103571Y-65587280D01*
X121067857Y-65555376D01*
X120996428Y-65523471D01*
X120853571Y-65523471D01*
X120782142Y-65555376D01*
X120746428Y-65587280D01*
X120710714Y-65651090D01*
%TO.C,ROT_SW1*%
D10*
X106066000Y-44514080D02*
X105732666Y-44037890D01*
X105494571Y-44514080D02*
X105494571Y-43514080D01*
X105875523Y-43514080D01*
X105970761Y-43561700D01*
X106018380Y-43609319D01*
X106066000Y-43704557D01*
X106066000Y-43847414D01*
X106018380Y-43942652D01*
X105970761Y-43990271D01*
X105875523Y-44037890D01*
X105494571Y-44037890D01*
X106685047Y-43514080D02*
X106875523Y-43514080D01*
X106970761Y-43561700D01*
X107066000Y-43656938D01*
X107113619Y-43847414D01*
X107113619Y-44180747D01*
X107066000Y-44371223D01*
X106970761Y-44466461D01*
X106875523Y-44514080D01*
X106685047Y-44514080D01*
X106589809Y-44466461D01*
X106494571Y-44371223D01*
X106446952Y-44180747D01*
X106446952Y-43847414D01*
X106494571Y-43656938D01*
X106589809Y-43561700D01*
X106685047Y-43514080D01*
X107399333Y-43514080D02*
X107970761Y-43514080D01*
X107685047Y-44514080D02*
X107685047Y-43514080D01*
X108066000Y-44609319D02*
X108827904Y-44609319D01*
X109018380Y-44466461D02*
X109161238Y-44514080D01*
X109399333Y-44514080D01*
X109494571Y-44466461D01*
X109542190Y-44418842D01*
X109589809Y-44323604D01*
X109589809Y-44228366D01*
X109542190Y-44133128D01*
X109494571Y-44085509D01*
X109399333Y-44037890D01*
X109208857Y-43990271D01*
X109113619Y-43942652D01*
X109066000Y-43895033D01*
X109018380Y-43799795D01*
X109018380Y-43704557D01*
X109066000Y-43609319D01*
X109113619Y-43561700D01*
X109208857Y-43514080D01*
X109446952Y-43514080D01*
X109589809Y-43561700D01*
X109923142Y-43514080D02*
X110161238Y-44514080D01*
X110351714Y-43799795D01*
X110542190Y-44514080D01*
X110780285Y-43514080D01*
X111685047Y-44514080D02*
X111113619Y-44514080D01*
X111399333Y-44514080D02*
X111399333Y-43514080D01*
X111304095Y-43656938D01*
X111208857Y-43752176D01*
X111113619Y-43799795D01*
%TO.C,RESET_SW1*%
X94492780Y-58589680D02*
X94016590Y-58923014D01*
X94492780Y-59161109D02*
X93492780Y-59161109D01*
X93492780Y-58780157D01*
X93540400Y-58684919D01*
X93588019Y-58637300D01*
X93683257Y-58589680D01*
X93826114Y-58589680D01*
X93921352Y-58637300D01*
X93968971Y-58684919D01*
X94016590Y-58780157D01*
X94016590Y-59161109D01*
X93968971Y-58161109D02*
X93968971Y-57827776D01*
X94492780Y-57684919D02*
X94492780Y-58161109D01*
X93492780Y-58161109D01*
X93492780Y-57684919D01*
X94445161Y-57303966D02*
X94492780Y-57161109D01*
X94492780Y-56923014D01*
X94445161Y-56827776D01*
X94397542Y-56780157D01*
X94302304Y-56732538D01*
X94207066Y-56732538D01*
X94111828Y-56780157D01*
X94064209Y-56827776D01*
X94016590Y-56923014D01*
X93968971Y-57113490D01*
X93921352Y-57208728D01*
X93873733Y-57256347D01*
X93778495Y-57303966D01*
X93683257Y-57303966D01*
X93588019Y-57256347D01*
X93540400Y-57208728D01*
X93492780Y-57113490D01*
X93492780Y-56875395D01*
X93540400Y-56732538D01*
X93968971Y-56303966D02*
X93968971Y-55970633D01*
X94492780Y-55827776D02*
X94492780Y-56303966D01*
X93492780Y-56303966D01*
X93492780Y-55827776D01*
X93492780Y-55542061D02*
X93492780Y-54970633D01*
X94492780Y-55256347D02*
X93492780Y-55256347D01*
%TD*%
M02*
