%TF.GenerationSoftware,KiCad,Pcbnew,(5.1.9)-1*%
%TF.CreationDate,2021-05-21T21:09:54+09:00*%
%TF.ProjectId,yuiop31rs,7975696f-7033-4317-9273-2e6b69636164,1*%
%TF.SameCoordinates,Original*%
%TF.FileFunction,Soldermask,Top*%
%TF.FilePolarity,Negative*%
%FSLAX46Y46*%
G04 Gerber Fmt 4.6, Leading zero omitted, Abs format (unit mm)*
G04 Created by KiCad (PCBNEW (5.1.9)-1) date 2021-05-21 21:09:54*
%MOMM*%
%LPD*%
G01*
G04 APERTURE LIST*
%ADD10C,4.000000*%
%ADD11C,3.000000*%
%ADD12C,4.100000*%
%ADD13C,1.900000*%
%ADD14O,2.100000X1.900000*%
%ADD15R,2.100000X1.900000*%
G04 APERTURE END LIST*
D10*
%TO.C,HOLE5*%
X150000000Y-100000000D03*
%TD*%
%TO.C,HOLE4*%
X200000000Y-141000000D03*
%TD*%
%TO.C,HOLE3*%
X100000000Y-141000000D03*
%TD*%
%TO.C,HOLE2*%
X200000000Y-59000000D03*
%TD*%
%TO.C,HOLE1*%
X100000000Y-59000000D03*
%TD*%
D11*
%TO.C,SW31*%
X191910000Y-150165000D03*
X185560000Y-152705000D03*
D12*
X188100000Y-147625000D03*
D13*
X183020000Y-147625000D03*
X193180000Y-147625000D03*
%TD*%
D11*
%TO.C,SW30*%
X172860000Y-150165000D03*
X166510000Y-152705000D03*
D12*
X169050000Y-147625000D03*
D13*
X163970000Y-147625000D03*
X174130000Y-147625000D03*
%TD*%
D11*
%TO.C,SW29*%
X153810000Y-150165000D03*
X147460000Y-152705000D03*
D12*
X150000000Y-147625000D03*
D13*
X144920000Y-147625000D03*
X155080000Y-147625000D03*
%TD*%
D11*
%TO.C,SW28*%
X134760000Y-150165000D03*
X128410000Y-152705000D03*
D12*
X130950000Y-147625000D03*
D13*
X125870000Y-147625000D03*
X136030000Y-147625000D03*
%TD*%
D11*
%TO.C,SW27*%
X115710000Y-150165000D03*
X109360000Y-152705000D03*
D12*
X111900000Y-147625000D03*
D13*
X106820000Y-147625000D03*
X116980000Y-147625000D03*
%TD*%
D11*
%TO.C,SW26*%
X193815000Y-126035000D03*
X200165000Y-123495000D03*
D12*
X197625000Y-128575000D03*
D13*
X202705000Y-128575000D03*
X192545000Y-128575000D03*
%TD*%
D11*
%TO.C,SW25*%
X174765000Y-126035000D03*
X181115000Y-123495000D03*
D12*
X178575000Y-128575000D03*
D13*
X183655000Y-128575000D03*
X173495000Y-128575000D03*
%TD*%
D11*
%TO.C,SW24*%
X155715000Y-126035000D03*
X162065000Y-123495000D03*
D12*
X159525000Y-128575000D03*
D13*
X164605000Y-128575000D03*
X154445000Y-128575000D03*
%TD*%
D11*
%TO.C,SW23*%
X136665000Y-126035000D03*
X143015000Y-123495000D03*
D12*
X140475000Y-128575000D03*
D13*
X145555000Y-128575000D03*
X135395000Y-128575000D03*
%TD*%
D11*
%TO.C,SW22*%
X117615000Y-126035000D03*
X123965000Y-123495000D03*
D12*
X121425000Y-128575000D03*
D13*
X126505000Y-128575000D03*
X116345000Y-128575000D03*
%TD*%
D11*
%TO.C,SW21*%
X98565000Y-126035000D03*
X104915000Y-123495000D03*
D12*
X102375000Y-128575000D03*
D13*
X107455000Y-128575000D03*
X97295000Y-128575000D03*
%TD*%
D11*
%TO.C,SW20*%
X193815000Y-106985000D03*
X200165000Y-104445000D03*
D12*
X197625000Y-109525000D03*
D13*
X202705000Y-109525000D03*
X192545000Y-109525000D03*
%TD*%
D11*
%TO.C,SW19*%
X174765000Y-106985000D03*
X181115000Y-104445000D03*
D12*
X178575000Y-109525000D03*
D13*
X183655000Y-109525000D03*
X173495000Y-109525000D03*
%TD*%
D11*
%TO.C,SW18*%
X155715000Y-106985000D03*
X162065000Y-104445000D03*
D12*
X159525000Y-109525000D03*
D13*
X164605000Y-109525000D03*
X154445000Y-109525000D03*
%TD*%
D11*
%TO.C,SW17*%
X136665000Y-106985000D03*
X143015000Y-104445000D03*
D12*
X140475000Y-109525000D03*
D13*
X145555000Y-109525000D03*
X135395000Y-109525000D03*
%TD*%
D11*
%TO.C,SW16*%
X117615000Y-106985000D03*
X123965000Y-104445000D03*
D12*
X121425000Y-109525000D03*
D13*
X126505000Y-109525000D03*
X116345000Y-109525000D03*
%TD*%
D11*
%TO.C,SW15*%
X98565000Y-106985000D03*
X104915000Y-104445000D03*
D12*
X102375000Y-109525000D03*
D13*
X107455000Y-109525000D03*
X97295000Y-109525000D03*
%TD*%
D11*
%TO.C,SW14*%
X193815000Y-87935000D03*
X200165000Y-85395000D03*
D12*
X197625000Y-90475000D03*
D13*
X202705000Y-90475000D03*
X192545000Y-90475000D03*
%TD*%
D11*
%TO.C,SW13*%
X174765000Y-87935000D03*
X181115000Y-85395000D03*
D12*
X178575000Y-90475000D03*
D13*
X183655000Y-90475000D03*
X173495000Y-90475000D03*
%TD*%
D11*
%TO.C,SW12*%
X155715000Y-87935000D03*
X162065000Y-85395000D03*
D12*
X159525000Y-90475000D03*
D13*
X164605000Y-90475000D03*
X154445000Y-90475000D03*
%TD*%
D11*
%TO.C,SW11*%
X136665000Y-87935000D03*
X143015000Y-85395000D03*
D12*
X140475000Y-90475000D03*
D13*
X145555000Y-90475000D03*
X135395000Y-90475000D03*
%TD*%
D11*
%TO.C,SW10*%
X117615000Y-87935000D03*
X123965000Y-85395000D03*
D12*
X121425000Y-90475000D03*
D13*
X126505000Y-90475000D03*
X116345000Y-90475000D03*
%TD*%
D11*
%TO.C,SW9*%
X98565000Y-87935000D03*
X104915000Y-85395000D03*
D12*
X102375000Y-90475000D03*
D13*
X107455000Y-90475000D03*
X97295000Y-90475000D03*
%TD*%
D11*
%TO.C,SW8*%
X193815000Y-68884900D03*
X200165000Y-66344900D03*
D12*
X197625000Y-71424900D03*
D13*
X202705000Y-71424900D03*
X192545000Y-71424900D03*
%TD*%
D11*
%TO.C,SW7*%
X174765000Y-68884900D03*
X181115000Y-66344900D03*
D12*
X178575000Y-71424900D03*
D13*
X183655000Y-71424900D03*
X173495000Y-71424900D03*
%TD*%
D11*
%TO.C,SW6*%
X155715000Y-68884900D03*
X162065000Y-66344900D03*
D12*
X159525000Y-71424900D03*
D13*
X164605000Y-71424900D03*
X154445000Y-71424900D03*
%TD*%
D11*
%TO.C,SW5*%
X136665000Y-68884900D03*
X143015000Y-66344900D03*
D12*
X140475000Y-71424900D03*
D13*
X145555000Y-71424900D03*
X135395000Y-71424900D03*
%TD*%
D11*
%TO.C,SW4*%
X184290000Y-49834800D03*
X190640000Y-47294800D03*
D12*
X188100000Y-52374800D03*
D13*
X193180000Y-52374800D03*
X183020000Y-52374800D03*
%TD*%
D11*
%TO.C,SW3*%
X165240000Y-49834800D03*
X171590000Y-47294800D03*
D12*
X169050000Y-52374800D03*
D13*
X174130000Y-52374800D03*
X163970000Y-52374800D03*
%TD*%
D11*
%TO.C,SW2*%
X146190000Y-49834800D03*
X152540000Y-47294800D03*
D12*
X150000000Y-52374800D03*
D13*
X155080000Y-52374800D03*
X144920000Y-52374800D03*
%TD*%
D11*
%TO.C,SW1*%
X127140000Y-49834800D03*
X133490000Y-47294800D03*
D12*
X130950000Y-52374800D03*
D13*
X136030000Y-52374800D03*
X125870000Y-52374800D03*
%TD*%
D14*
%TO.C,ROT_SW1*%
X112376000Y-51501700D03*
X104756000Y-51501700D03*
X112376000Y-48961700D03*
X104756000Y-48961700D03*
X112376000Y-46421700D03*
D15*
X104756000Y-46421700D03*
%TD*%
M02*
