M48
; DRILL file {KiCad (5.1.9)-1} date 04/22/21 03:28:15
; FORMAT={-:-/ absolute / metric / decimal}
; #@! TF.CreationDate,2021-04-22T03:28:15+09:00
; #@! TF.GenerationSoftware,Kicad,Pcbnew,(5.1.9)-1
FMAT,2
METRIC
T1C0.400
T2C0.650
T3C0.700
T4C1.000
T5C2.200
T6C2.300
T7C2.500
T8C1.900
T9C3.000
T10C3.048
T11C3.988
T12C4.100
%
G90
G05
T1
X73.818Y-120.523
X83.764Y-141.378
X87.725Y-121.626
X88.844Y-179.538
X92.691Y-104.647
X93.397Y-178.616
X96.758Y-121.156
X103.57Y-141.378
X104.414Y-169.476
X108.756Y-167.678
X112.28Y-167.767
X117.223Y-159.513
X143.357Y-141.378
X150.872Y-185.462
X153.633Y-161.131
X162.175Y-183.449
X163.089Y-179.283
X166.906Y-121.669
X168.413Y-185.462
X168.707Y-174.432
X169.344Y-181.337
X170.285Y-180.011
X172.381Y-161.118
X172.63Y-158.895
X172.659Y-179.823
X173.417Y-180.593
X175.775Y-121.669
X176.372Y-180.392
X176.982Y-181.61
X181.735Y-182.497
X182.788Y-184.829
X193.45Y-149.36
X202.928Y-168.422
X211.231Y-186.34
X228.639Y-183.505
X241.05Y-141.342
X249.119Y-161.011
X267.242Y-161.131
X282.536Y-186.617
X296.987Y-139.853
X307.17Y-187.873
X310.161Y-186.016
X313.261Y-161.131
X317.475Y-187.258
X326.55Y-141.378
T4
X224.161Y-182.14
X224.161Y-184.68
X224.161Y-187.22
X226.701Y-182.14
X226.701Y-184.68
X226.701Y-187.22
T5
X110.0Y-170.3
X126.775Y-113.4
X198.2Y-147.0
X207.738Y-170.3
X222.025Y-113.4
X317.275Y-113.4
X332.65Y-170.3
T6
X260.5Y-185.2
T8
X74.07Y-109.21
X78.832Y-128.26
X81.214Y-147.31
X84.23Y-109.21
X85.976Y-166.36
X88.992Y-128.26
X91.374Y-147.31
X93.12Y-109.21
X96.136Y-166.36
X102.645Y-128.26
X102.645Y-185.41
X103.28Y-109.21
X107.407Y-147.31
X112.17Y-109.21
X112.805Y-128.26
X112.805Y-185.41
X116.933Y-166.36
X117.567Y-147.31
X121.695Y-128.26
X122.33Y-109.21
X126.457Y-147.31
X126.457Y-185.41
X127.093Y-166.36
X131.22Y-109.21
X131.855Y-128.26
X135.983Y-166.36
X136.617Y-147.31
X136.617Y-185.41
X140.745Y-128.26
X141.38Y-109.21
X145.507Y-147.31
X146.143Y-166.36
X150.27Y-109.21
X150.905Y-128.26
X155.033Y-166.36
X155.667Y-147.31
X159.795Y-128.26
X160.43Y-109.21
X164.557Y-147.31
X165.193Y-166.36
X169.32Y-109.21
X169.955Y-128.26
X174.083Y-166.36
X174.717Y-147.31
X178.845Y-128.26
X179.48Y-109.21
X183.607Y-147.31
X184.243Y-166.36
X188.37Y-109.21
X189.005Y-128.26
X193.133Y-166.36
X193.767Y-147.31
X197.895Y-128.26
X197.895Y-185.41
X198.53Y-109.21
X202.657Y-147.31
X203.293Y-166.36
X207.42Y-109.21
X208.055Y-128.26
X208.055Y-185.41
X212.183Y-166.36
X212.817Y-147.31
X216.945Y-128.26
X217.58Y-109.21
X221.707Y-147.31
X222.343Y-166.36
X226.47Y-109.21
X227.105Y-128.26
X231.233Y-166.36
X231.867Y-147.31
X235.995Y-128.26
X236.63Y-109.21
X240.757Y-147.31
X241.393Y-166.36
X245.52Y-109.21
X246.155Y-128.26
X250.283Y-166.36
X250.917Y-147.31
X255.045Y-128.26
X255.68Y-109.21
X259.807Y-147.31
X260.443Y-166.36
X264.57Y-109.21
X265.205Y-128.26
X269.333Y-166.36
X269.333Y-185.41
X269.967Y-147.31
X274.095Y-128.26
X274.73Y-109.21
X278.857Y-147.31
X279.493Y-166.36
X279.493Y-185.41
X283.62Y-109.21
X284.255Y-128.26
X288.383Y-166.36
X289.017Y-147.31
X293.145Y-128.26
X293.145Y-185.41
X293.78Y-109.21
X297.907Y-147.31
X298.543Y-166.36
X302.67Y-109.21
X303.305Y-128.26
X303.305Y-185.41
X308.067Y-147.31
X312.195Y-128.26
X312.83Y-109.21
X314.576Y-166.36
X321.72Y-109.21
X322.355Y-128.26
X324.736Y-166.36
X328.864Y-147.31
X331.88Y-109.21
X336.007Y-128.26
X339.024Y-147.31
X340.77Y-109.21
X340.77Y-166.36
X346.167Y-128.26
X350.93Y-109.21
X350.93Y-166.36
T9
X76.61Y-114.29
X81.373Y-133.34
X82.96Y-111.75
X83.754Y-152.39
X87.722Y-130.8
X88.516Y-171.44
X90.104Y-149.85
X94.866Y-168.9
X95.66Y-114.29
X102.01Y-111.75
X103.915Y-182.87
X105.185Y-133.34
X109.947Y-152.39
X110.265Y-180.33
X111.535Y-130.8
X113.44Y-106.67
X116.297Y-149.85
X119.473Y-171.44
X119.79Y-104.13
X124.235Y-133.34
X125.823Y-168.9
X127.727Y-182.87
X128.997Y-152.39
X130.585Y-130.8
X133.76Y-114.29
X134.077Y-180.33
X135.347Y-149.85
X138.523Y-171.44
X140.11Y-111.75
X143.285Y-133.34
X144.873Y-168.9
X148.047Y-152.39
X149.635Y-130.8
X152.81Y-114.29
X154.397Y-149.85
X157.573Y-171.44
X159.16Y-111.75
X162.335Y-133.34
X163.923Y-168.9
X167.097Y-152.39
X168.685Y-130.8
X171.86Y-114.29
X173.447Y-149.85
X176.623Y-171.44
X178.21Y-111.75
X181.385Y-133.34
X182.973Y-168.9
X184.877Y-144.77
X187.735Y-130.8
X190.91Y-114.29
X191.227Y-142.23
X194.403Y-163.82
X197.26Y-111.75
X199.165Y-182.87
X200.435Y-133.34
X200.753Y-161.28
X205.197Y-152.39
X205.515Y-180.33
X206.785Y-130.8
X208.69Y-106.67
X211.547Y-149.85
X214.723Y-171.44
X215.04Y-104.13
X219.485Y-133.34
X221.073Y-168.9
X224.247Y-152.39
X225.835Y-130.8
X229.01Y-114.29
X230.597Y-149.85
X233.773Y-171.44
X235.36Y-111.75
X238.535Y-133.34
X240.123Y-168.9
X243.297Y-152.39
X244.885Y-130.8
X248.06Y-114.29
X249.647Y-149.85
X252.823Y-171.44
X254.41Y-111.75
X257.585Y-133.34
X259.173Y-168.9
X262.347Y-152.39
X263.935Y-130.8
X267.11Y-114.29
X268.697Y-149.85
X270.603Y-182.87
X271.873Y-171.44
X273.46Y-111.75
X276.635Y-133.34
X276.953Y-180.33
X278.223Y-168.9
X281.397Y-152.39
X282.985Y-130.8
X286.16Y-114.29
X287.747Y-149.85
X290.923Y-171.44
X292.51Y-111.75
X294.415Y-182.87
X295.685Y-133.34
X297.273Y-168.9
X300.447Y-152.39
X300.765Y-180.33
X302.035Y-130.8
X303.94Y-106.67
X306.797Y-149.85
X310.29Y-104.13
X314.735Y-133.34
X317.116Y-171.44
X321.085Y-130.8
X323.466Y-168.9
X324.26Y-114.29
X330.61Y-111.75
X331.404Y-152.39
X337.754Y-149.85
X338.547Y-133.34
X343.31Y-114.29
X343.31Y-171.44
X344.897Y-130.8
X349.66Y-111.75
X349.66Y-168.9
T10
X79.118Y-173.345
X102.994Y-173.345
X155.412Y-192.395
X250.538Y-192.395
X322.006Y-154.295
X345.882Y-154.295
T11
X79.118Y-158.105
X102.994Y-158.105
X155.412Y-177.155
X250.538Y-177.155
X322.006Y-139.055
X345.882Y-139.055
T12
X79.15Y-109.21
X83.912Y-128.26
X86.294Y-147.31
X91.056Y-166.36
X98.2Y-109.21
X107.725Y-128.26
X107.725Y-185.41
X112.487Y-147.31
X117.25Y-109.21
X122.013Y-166.36
X126.775Y-128.26
X131.537Y-147.31
X131.537Y-185.41
X136.3Y-109.21
X141.063Y-166.36
X145.825Y-128.26
X150.587Y-147.31
X155.35Y-109.21
X160.113Y-166.36
X164.875Y-128.26
X169.637Y-147.31
X174.4Y-109.21
X179.163Y-166.36
X183.925Y-128.26
X188.687Y-147.31
X193.45Y-109.21
X198.213Y-166.36
X202.975Y-128.26
X202.975Y-185.41
X207.737Y-147.31
X212.5Y-109.21
X217.263Y-166.36
X222.025Y-128.26
X226.787Y-147.31
X231.55Y-109.21
X236.313Y-166.36
X241.075Y-128.26
X245.837Y-147.31
X250.6Y-109.21
X255.363Y-166.36
X260.125Y-128.26
X264.887Y-147.31
X269.65Y-109.21
X274.413Y-166.36
X274.413Y-185.41
X279.175Y-128.26
X283.937Y-147.31
X288.7Y-109.21
X293.463Y-166.36
X298.225Y-128.26
X298.225Y-185.41
X302.987Y-147.31
X307.75Y-109.21
X317.275Y-128.26
X319.656Y-166.36
X326.8Y-109.21
X333.944Y-147.31
X341.087Y-128.26
X345.85Y-109.21
X345.85Y-166.36
T2
G00X85.755Y-104.52
M15
G01X85.755Y-104.92
M16
G05
G00X90.595Y-104.52
M15
G01X90.595Y-104.92
M16
G05
T3
G00X85.445Y-101.47
M15
G01X85.445Y-101.97
M16
G05
G00X90.905Y-101.47
M15
G01X90.905Y-101.97
M16
G05
T6
G00X93.85Y-127.9
M15
G01X96.55Y-127.9
M16
G05
G00X328.7Y-127.91
M15
G01X331.4Y-127.91
M16
G05
T7
G00X69.21Y-156.5
M15
G01X73.71Y-156.5
M16
G05
G00X351.29Y-156.5
M15
G01X355.79Y-156.5
M16
G05
T0
M30
