%TF.GenerationSoftware,KiCad,Pcbnew,(5.1.9)-1*%
%TF.CreationDate,2021-04-22T03:27:36+09:00*%
%TF.ProjectId,yuiop60hh4,7975696f-7036-4306-9868-342e6b696361,4*%
%TF.SameCoordinates,Original*%
%TF.FileFunction,Legend,Bot*%
%TF.FilePolarity,Positive*%
%FSLAX46Y46*%
G04 Gerber Fmt 4.6, Leading zero omitted, Abs format (unit mm)*
G04 Created by KiCad (PCBNEW (5.1.9)-1) date 2021-04-22 03:27:36*
%MOMM*%
%LPD*%
G01*
G04 APERTURE LIST*
%ADD10C,0.150000*%
%ADD11C,0.120000*%
G04 APERTURE END LIST*
D10*
X81320238Y-191246744D02*
X81320238Y-191818173D01*
X81358333Y-191932459D01*
X81434523Y-192008649D01*
X81548809Y-192046744D01*
X81625000Y-192046744D01*
X80558333Y-192046744D02*
X80939285Y-192046744D01*
X80939285Y-191246744D01*
X79834523Y-191970554D02*
X79872619Y-192008649D01*
X79986904Y-192046744D01*
X80063095Y-192046744D01*
X80177380Y-192008649D01*
X80253571Y-191932459D01*
X80291666Y-191856268D01*
X80329761Y-191703887D01*
X80329761Y-191589601D01*
X80291666Y-191437220D01*
X80253571Y-191361030D01*
X80177380Y-191284840D01*
X80063095Y-191246744D01*
X79986904Y-191246744D01*
X79872619Y-191284840D01*
X79834523Y-191322935D01*
X79263095Y-191246744D02*
X79263095Y-191818173D01*
X79301190Y-191932459D01*
X79377380Y-192008649D01*
X79491666Y-192046744D01*
X79567857Y-192046744D01*
X78501190Y-192046744D02*
X78882142Y-192046744D01*
X78882142Y-191246744D01*
X77777380Y-191970554D02*
X77815476Y-192008649D01*
X77929761Y-192046744D01*
X78005952Y-192046744D01*
X78120238Y-192008649D01*
X78196428Y-191932459D01*
X78234523Y-191856268D01*
X78272619Y-191703887D01*
X78272619Y-191589601D01*
X78234523Y-191437220D01*
X78196428Y-191361030D01*
X78120238Y-191284840D01*
X78005952Y-191246744D01*
X77929761Y-191246744D01*
X77815476Y-191284840D01*
X77777380Y-191322935D01*
X77205952Y-191246744D02*
X77205952Y-191818173D01*
X77244047Y-191932459D01*
X77320238Y-192008649D01*
X77434523Y-192046744D01*
X77510714Y-192046744D01*
X76444047Y-192046744D02*
X76825000Y-192046744D01*
X76825000Y-191246744D01*
X75720238Y-191970554D02*
X75758333Y-192008649D01*
X75872619Y-192046744D01*
X75948809Y-192046744D01*
X76063095Y-192008649D01*
X76139285Y-191932459D01*
X76177380Y-191856268D01*
X76215476Y-191703887D01*
X76215476Y-191589601D01*
X76177380Y-191437220D01*
X76139285Y-191361030D01*
X76063095Y-191284840D01*
X75948809Y-191246744D01*
X75872619Y-191246744D01*
X75758333Y-191284840D01*
X75720238Y-191322935D01*
X75148809Y-191246744D02*
X75148809Y-191818173D01*
X75186904Y-191932459D01*
X75263095Y-192008649D01*
X75377380Y-192046744D01*
X75453571Y-192046744D01*
X74386904Y-192046744D02*
X74767857Y-192046744D01*
X74767857Y-191246744D01*
X73663095Y-191970554D02*
X73701190Y-192008649D01*
X73815476Y-192046744D01*
X73891666Y-192046744D01*
X74005952Y-192008649D01*
X74082142Y-191932459D01*
X74120238Y-191856268D01*
X74158333Y-191703887D01*
X74158333Y-191589601D01*
X74120238Y-191437220D01*
X74082142Y-191361030D01*
X74005952Y-191284840D01*
X73891666Y-191246744D01*
X73815476Y-191246744D01*
X73701190Y-191284840D01*
X73663095Y-191322935D01*
X222573333Y-181602380D02*
X222240000Y-182602380D01*
X221906666Y-181602380D01*
X221001904Y-182507142D02*
X221049523Y-182554761D01*
X221192380Y-182602380D01*
X221287619Y-182602380D01*
X221430476Y-182554761D01*
X221525714Y-182459523D01*
X221573333Y-182364285D01*
X221620952Y-182173809D01*
X221620952Y-182030952D01*
X221573333Y-181840476D01*
X221525714Y-181745238D01*
X221430476Y-181650000D01*
X221287619Y-181602380D01*
X221192380Y-181602380D01*
X221049523Y-181650000D01*
X221001904Y-181697619D01*
X220001904Y-182507142D02*
X220049523Y-182554761D01*
X220192380Y-182602380D01*
X220287619Y-182602380D01*
X220430476Y-182554761D01*
X220525714Y-182459523D01*
X220573333Y-182364285D01*
X220620952Y-182173809D01*
X220620952Y-182030952D01*
X220573333Y-181840476D01*
X220525714Y-181745238D01*
X220430476Y-181650000D01*
X220287619Y-181602380D01*
X220192380Y-181602380D01*
X220049523Y-181650000D01*
X220001904Y-181697619D01*
X230992380Y-185104761D02*
X230878095Y-185152380D01*
X230687619Y-185152380D01*
X230611428Y-185104761D01*
X230573333Y-185057142D01*
X230535238Y-184961904D01*
X230535238Y-184866666D01*
X230573333Y-184771428D01*
X230611428Y-184723809D01*
X230687619Y-184676190D01*
X230840000Y-184628571D01*
X230916190Y-184580952D01*
X230954285Y-184533333D01*
X230992380Y-184438095D01*
X230992380Y-184342857D01*
X230954285Y-184247619D01*
X230916190Y-184200000D01*
X230840000Y-184152380D01*
X230649523Y-184152380D01*
X230535238Y-184200000D01*
X229735238Y-185057142D02*
X229773333Y-185104761D01*
X229887619Y-185152380D01*
X229963809Y-185152380D01*
X230078095Y-185104761D01*
X230154285Y-185009523D01*
X230192380Y-184914285D01*
X230230476Y-184723809D01*
X230230476Y-184580952D01*
X230192380Y-184390476D01*
X230154285Y-184295238D01*
X230078095Y-184200000D01*
X229963809Y-184152380D01*
X229887619Y-184152380D01*
X229773333Y-184200000D01*
X229735238Y-184247619D01*
X229011428Y-185152380D02*
X229392380Y-185152380D01*
X229392380Y-184152380D01*
X228744761Y-185152380D02*
X228744761Y-184152380D01*
X228287619Y-185152380D02*
X228630476Y-184580952D01*
X228287619Y-184152380D02*
X228744761Y-184723809D01*
X230634047Y-187652380D02*
X230850714Y-187176190D01*
X231005476Y-187652380D02*
X231005476Y-186652380D01*
X230757857Y-186652380D01*
X230695952Y-186700000D01*
X230665000Y-186747619D01*
X230634047Y-186842857D01*
X230634047Y-186985714D01*
X230665000Y-187080952D01*
X230695952Y-187128571D01*
X230757857Y-187176190D01*
X231005476Y-187176190D01*
X230355476Y-187128571D02*
X230138809Y-187128571D01*
X230045952Y-187652380D02*
X230355476Y-187652380D01*
X230355476Y-186652380D01*
X230045952Y-186652380D01*
X229798333Y-187604761D02*
X229705476Y-187652380D01*
X229550714Y-187652380D01*
X229488809Y-187604761D01*
X229457857Y-187557142D01*
X229426904Y-187461904D01*
X229426904Y-187366666D01*
X229457857Y-187271428D01*
X229488809Y-187223809D01*
X229550714Y-187176190D01*
X229674523Y-187128571D01*
X229736428Y-187080952D01*
X229767380Y-187033333D01*
X229798333Y-186938095D01*
X229798333Y-186842857D01*
X229767380Y-186747619D01*
X229736428Y-186700000D01*
X229674523Y-186652380D01*
X229519761Y-186652380D01*
X229426904Y-186700000D01*
X229148333Y-187128571D02*
X228931666Y-187128571D01*
X228838809Y-187652380D02*
X229148333Y-187652380D01*
X229148333Y-186652380D01*
X228838809Y-186652380D01*
X228653095Y-186652380D02*
X228281666Y-186652380D01*
X228467380Y-187652380D02*
X228467380Y-186652380D01*
X222547142Y-185152380D02*
X222547142Y-184152380D01*
X222280476Y-184866666D01*
X222013809Y-184152380D01*
X222013809Y-185152380D01*
X221480476Y-184152380D02*
X221328095Y-184152380D01*
X221251904Y-184200000D01*
X221175714Y-184295238D01*
X221137619Y-184485714D01*
X221137619Y-184819047D01*
X221175714Y-185009523D01*
X221251904Y-185104761D01*
X221328095Y-185152380D01*
X221480476Y-185152380D01*
X221556666Y-185104761D01*
X221632857Y-185009523D01*
X221670952Y-184819047D01*
X221670952Y-184485714D01*
X221632857Y-184295238D01*
X221556666Y-184200000D01*
X221480476Y-184152380D01*
X220832857Y-185104761D02*
X220718571Y-185152380D01*
X220528095Y-185152380D01*
X220451904Y-185104761D01*
X220413809Y-185057142D01*
X220375714Y-184961904D01*
X220375714Y-184866666D01*
X220413809Y-184771428D01*
X220451904Y-184723809D01*
X220528095Y-184676190D01*
X220680476Y-184628571D01*
X220756666Y-184580952D01*
X220794761Y-184533333D01*
X220832857Y-184438095D01*
X220832857Y-184342857D01*
X220794761Y-184247619D01*
X220756666Y-184200000D01*
X220680476Y-184152380D01*
X220490000Y-184152380D01*
X220375714Y-184200000D01*
X220032857Y-185152380D02*
X220032857Y-184152380D01*
X222001904Y-186750000D02*
X222097142Y-186702380D01*
X222240000Y-186702380D01*
X222382857Y-186750000D01*
X222478095Y-186845238D01*
X222525714Y-186940476D01*
X222573333Y-187130952D01*
X222573333Y-187273809D01*
X222525714Y-187464285D01*
X222478095Y-187559523D01*
X222382857Y-187654761D01*
X222240000Y-187702380D01*
X222144761Y-187702380D01*
X222001904Y-187654761D01*
X221954285Y-187607142D01*
X221954285Y-187273809D01*
X222144761Y-187273809D01*
X221525714Y-187702380D02*
X221525714Y-186702380D01*
X220954285Y-187702380D01*
X220954285Y-186702380D01*
X220478095Y-187702380D02*
X220478095Y-186702380D01*
X220240000Y-186702380D01*
X220097142Y-186750000D01*
X220001904Y-186845238D01*
X219954285Y-186940476D01*
X219906666Y-187130952D01*
X219906666Y-187273809D01*
X219954285Y-187464285D01*
X220001904Y-187559523D01*
X220097142Y-187654761D01*
X220240000Y-187702380D01*
X220478095Y-187702380D01*
X230847142Y-182602380D02*
X230847142Y-181602380D01*
X230580476Y-182316666D01*
X230313809Y-181602380D01*
X230313809Y-182602380D01*
X229932857Y-182602380D02*
X229932857Y-181602380D01*
X229590000Y-182554761D02*
X229475714Y-182602380D01*
X229285238Y-182602380D01*
X229209047Y-182554761D01*
X229170952Y-182507142D01*
X229132857Y-182411904D01*
X229132857Y-182316666D01*
X229170952Y-182221428D01*
X229209047Y-182173809D01*
X229285238Y-182126190D01*
X229437619Y-182078571D01*
X229513809Y-182030952D01*
X229551904Y-181983333D01*
X229590000Y-181888095D01*
X229590000Y-181792857D01*
X229551904Y-181697619D01*
X229513809Y-181650000D01*
X229437619Y-181602380D01*
X229247142Y-181602380D01*
X229132857Y-181650000D01*
X228637619Y-181602380D02*
X228485238Y-181602380D01*
X228409047Y-181650000D01*
X228332857Y-181745238D01*
X228294761Y-181935714D01*
X228294761Y-182269047D01*
X228332857Y-182459523D01*
X228409047Y-182554761D01*
X228485238Y-182602380D01*
X228637619Y-182602380D01*
X228713809Y-182554761D01*
X228790000Y-182459523D01*
X228828095Y-182269047D01*
X228828095Y-181935714D01*
X228790000Y-181745238D01*
X228713809Y-181650000D01*
X228637619Y-181602380D01*
D11*
%TO.C,J1*%
X86875000Y-105700000D02*
X86475000Y-106150000D01*
X86475000Y-106150000D02*
X87275000Y-106150000D01*
X87275000Y-106150000D02*
X86875000Y-105700000D01*
X92025000Y-100100000D02*
X92025000Y-102900000D01*
X92025000Y-102900000D02*
X92325000Y-102900000D01*
X92325000Y-102900000D02*
X92325000Y-104450000D01*
X84325000Y-100100000D02*
X84325000Y-102900000D01*
X84025000Y-102900000D02*
X84325000Y-102900000D01*
X84025000Y-102900000D02*
X84025000Y-104450000D01*
%TO.C,KSW60*%
X292525000Y-181460000D02*
X292525000Y-184310000D01*
D10*
X297825000Y-182410000D02*
X302625000Y-182410000D01*
X292525000Y-184310000D02*
X295605000Y-184310000D01*
X302625000Y-178810000D02*
X294424999Y-178810000D01*
X292325000Y-180710000D02*
X292325000Y-181460000D01*
X302625000Y-182410000D02*
X302625000Y-178810000D01*
X292325000Y-181460000D02*
X292525000Y-181460000D01*
X292325000Y-180710001D02*
G75*
G02*
X294424999Y-178810000I2000000J-99999D01*
G01*
X295608682Y-184288529D02*
G75*
G02*
X297825000Y-182410000I2151318J-291471D01*
G01*
D11*
%TO.C,KSW59*%
X268713000Y-181460000D02*
X268713000Y-184310000D01*
D10*
X274013000Y-182410000D02*
X278813000Y-182410000D01*
X268713000Y-184310000D02*
X271793000Y-184310000D01*
X278813000Y-178810000D02*
X270612999Y-178810000D01*
X268513000Y-180710000D02*
X268513000Y-181460000D01*
X278813000Y-182410000D02*
X278813000Y-178810000D01*
X268513000Y-181460000D02*
X268713000Y-181460000D01*
X268513000Y-180710001D02*
G75*
G02*
X270612999Y-178810000I2000000J-99999D01*
G01*
X271796682Y-184288529D02*
G75*
G02*
X274013000Y-182410000I2151318J-291471D01*
G01*
D11*
%TO.C,KSW58*%
X197275000Y-181460000D02*
X197275000Y-184310000D01*
D10*
X202575000Y-182410000D02*
X207375000Y-182410000D01*
X197275000Y-184310000D02*
X200355000Y-184310000D01*
X207375000Y-178810000D02*
X199174999Y-178810000D01*
X197075000Y-180710000D02*
X197075000Y-181460000D01*
X207375000Y-182410000D02*
X207375000Y-178810000D01*
X197075000Y-181460000D02*
X197275000Y-181460000D01*
X197075000Y-180710001D02*
G75*
G02*
X199174999Y-178810000I2000000J-99999D01*
G01*
X200358682Y-184288529D02*
G75*
G02*
X202575000Y-182410000I2151318J-291471D01*
G01*
D11*
%TO.C,KSW57*%
X125837000Y-181460000D02*
X125837000Y-184310000D01*
D10*
X131137000Y-182410000D02*
X135937000Y-182410000D01*
X125837000Y-184310000D02*
X128917000Y-184310000D01*
X135937000Y-178810000D02*
X127736999Y-178810000D01*
X125637000Y-180710000D02*
X125637000Y-181460000D01*
X135937000Y-182410000D02*
X135937000Y-178810000D01*
X125637000Y-181460000D02*
X125837000Y-181460000D01*
X125637000Y-180710001D02*
G75*
G02*
X127736999Y-178810000I2000000J-99999D01*
G01*
X128920682Y-184288529D02*
G75*
G02*
X131137000Y-182410000I2151318J-291471D01*
G01*
D11*
%TO.C,KSW56*%
X102025000Y-181460000D02*
X102025000Y-184310000D01*
D10*
X107325000Y-182410000D02*
X112125000Y-182410000D01*
X102025000Y-184310000D02*
X105105000Y-184310000D01*
X112125000Y-178810000D02*
X103924999Y-178810000D01*
X101825000Y-180710000D02*
X101825000Y-181460000D01*
X112125000Y-182410000D02*
X112125000Y-178810000D01*
X101825000Y-181460000D02*
X102025000Y-181460000D01*
X101825000Y-180710001D02*
G75*
G02*
X103924999Y-178810000I2000000J-99999D01*
G01*
X105108682Y-184288529D02*
G75*
G02*
X107325000Y-182410000I2151318J-291471D01*
G01*
D11*
%TO.C,KSW55*%
X351550000Y-170310000D02*
X351550000Y-167460000D01*
D10*
X346250000Y-169360000D02*
X341450000Y-169360000D01*
X351550000Y-167460000D02*
X348470000Y-167460000D01*
X341450000Y-172960000D02*
X349650001Y-172960000D01*
X351750000Y-171060000D02*
X351750000Y-170310000D01*
X341450000Y-169360000D02*
X341450000Y-172960000D01*
X351750000Y-170310000D02*
X351550000Y-170310000D01*
X351750000Y-171059999D02*
G75*
G02*
X349650001Y-172960000I-2000000J99999D01*
G01*
X348466318Y-167481471D02*
G75*
G02*
X346250000Y-169360000I-2151318J291471D01*
G01*
D11*
%TO.C,KSW54*%
X325356000Y-170310000D02*
X325356000Y-167460000D01*
D10*
X320056000Y-169360000D02*
X315256000Y-169360000D01*
X325356000Y-167460000D02*
X322276000Y-167460000D01*
X315256000Y-172960000D02*
X323456001Y-172960000D01*
X325556000Y-171060000D02*
X325556000Y-170310000D01*
X315256000Y-169360000D02*
X315256000Y-172960000D01*
X325556000Y-170310000D02*
X325356000Y-170310000D01*
X325556000Y-171059999D02*
G75*
G02*
X323456001Y-172960000I-2000000J99999D01*
G01*
X322272318Y-167481471D02*
G75*
G02*
X320056000Y-169360000I-2151318J291471D01*
G01*
D11*
%TO.C,KSW53*%
X299163000Y-170310000D02*
X299163000Y-167460000D01*
D10*
X293863000Y-169360000D02*
X289063000Y-169360000D01*
X299163000Y-167460000D02*
X296083000Y-167460000D01*
X289063000Y-172960000D02*
X297263001Y-172960000D01*
X299363000Y-171060000D02*
X299363000Y-170310000D01*
X289063000Y-169360000D02*
X289063000Y-172960000D01*
X299363000Y-170310000D02*
X299163000Y-170310000D01*
X299363000Y-171059999D02*
G75*
G02*
X297263001Y-172960000I-2000000J99999D01*
G01*
X296079318Y-167481471D02*
G75*
G02*
X293863000Y-169360000I-2151318J291471D01*
G01*
D11*
%TO.C,KSW52*%
X280113000Y-170310000D02*
X280113000Y-167460000D01*
D10*
X274813000Y-169360000D02*
X270013000Y-169360000D01*
X280113000Y-167460000D02*
X277033000Y-167460000D01*
X270013000Y-172960000D02*
X278213001Y-172960000D01*
X280313000Y-171060000D02*
X280313000Y-170310000D01*
X270013000Y-169360000D02*
X270013000Y-172960000D01*
X280313000Y-170310000D02*
X280113000Y-170310000D01*
X280313000Y-171059999D02*
G75*
G02*
X278213001Y-172960000I-2000000J99999D01*
G01*
X277029318Y-167481471D02*
G75*
G02*
X274813000Y-169360000I-2151318J291471D01*
G01*
D11*
%TO.C,KSW51*%
X261063000Y-170310000D02*
X261063000Y-167460000D01*
D10*
X255763000Y-169360000D02*
X250963000Y-169360000D01*
X261063000Y-167460000D02*
X257983000Y-167460000D01*
X250963000Y-172960000D02*
X259163001Y-172960000D01*
X261263000Y-171060000D02*
X261263000Y-170310000D01*
X250963000Y-169360000D02*
X250963000Y-172960000D01*
X261263000Y-170310000D02*
X261063000Y-170310000D01*
X261263000Y-171059999D02*
G75*
G02*
X259163001Y-172960000I-2000000J99999D01*
G01*
X257979318Y-167481471D02*
G75*
G02*
X255763000Y-169360000I-2151318J291471D01*
G01*
D11*
%TO.C,KSW50*%
X242013000Y-170310000D02*
X242013000Y-167460000D01*
D10*
X236713000Y-169360000D02*
X231913000Y-169360000D01*
X242013000Y-167460000D02*
X238933000Y-167460000D01*
X231913000Y-172960000D02*
X240113001Y-172960000D01*
X242213000Y-171060000D02*
X242213000Y-170310000D01*
X231913000Y-169360000D02*
X231913000Y-172960000D01*
X242213000Y-170310000D02*
X242013000Y-170310000D01*
X242213000Y-171059999D02*
G75*
G02*
X240113001Y-172960000I-2000000J99999D01*
G01*
X238929318Y-167481471D02*
G75*
G02*
X236713000Y-169360000I-2151318J291471D01*
G01*
D11*
%TO.C,KSW49*%
X222963000Y-170310000D02*
X222963000Y-167460000D01*
D10*
X217663000Y-169360000D02*
X212863000Y-169360000D01*
X222963000Y-167460000D02*
X219883000Y-167460000D01*
X212863000Y-172960000D02*
X221063001Y-172960000D01*
X223163000Y-171060000D02*
X223163000Y-170310000D01*
X212863000Y-169360000D02*
X212863000Y-172960000D01*
X223163000Y-170310000D02*
X222963000Y-170310000D01*
X223163000Y-171059999D02*
G75*
G02*
X221063001Y-172960000I-2000000J99999D01*
G01*
X219879318Y-167481471D02*
G75*
G02*
X217663000Y-169360000I-2151318J291471D01*
G01*
D11*
%TO.C,KSW48*%
X192513000Y-162410000D02*
X192513000Y-165260000D01*
D10*
X197813000Y-163360000D02*
X202613000Y-163360000D01*
X192513000Y-165260000D02*
X195593000Y-165260000D01*
X202613000Y-159760000D02*
X194412999Y-159760000D01*
X192313000Y-161660000D02*
X192313000Y-162410000D01*
X202613000Y-163360000D02*
X202613000Y-159760000D01*
X192313000Y-162410000D02*
X192513000Y-162410000D01*
X192313000Y-161660001D02*
G75*
G02*
X194412999Y-159760000I2000000J-99999D01*
G01*
X195596682Y-165238529D02*
G75*
G02*
X197813000Y-163360000I2151318J-291471D01*
G01*
D11*
%TO.C,KSW47*%
X184863000Y-170310000D02*
X184863000Y-167460000D01*
D10*
X179563000Y-169360000D02*
X174763000Y-169360000D01*
X184863000Y-167460000D02*
X181783000Y-167460000D01*
X174763000Y-172960000D02*
X182963001Y-172960000D01*
X185063000Y-171060000D02*
X185063000Y-170310000D01*
X174763000Y-169360000D02*
X174763000Y-172960000D01*
X185063000Y-170310000D02*
X184863000Y-170310000D01*
X185063000Y-171059999D02*
G75*
G02*
X182963001Y-172960000I-2000000J99999D01*
G01*
X181779318Y-167481471D02*
G75*
G02*
X179563000Y-169360000I-2151318J291471D01*
G01*
D11*
%TO.C,KSW46*%
X165813000Y-170310000D02*
X165813000Y-167460000D01*
D10*
X160513000Y-169360000D02*
X155713000Y-169360000D01*
X165813000Y-167460000D02*
X162733000Y-167460000D01*
X155713000Y-172960000D02*
X163913001Y-172960000D01*
X166013000Y-171060000D02*
X166013000Y-170310000D01*
X155713000Y-169360000D02*
X155713000Y-172960000D01*
X166013000Y-170310000D02*
X165813000Y-170310000D01*
X166013000Y-171059999D02*
G75*
G02*
X163913001Y-172960000I-2000000J99999D01*
G01*
X162729318Y-167481471D02*
G75*
G02*
X160513000Y-169360000I-2151318J291471D01*
G01*
D11*
%TO.C,KSW45*%
X146763000Y-170310000D02*
X146763000Y-167460000D01*
D10*
X141463000Y-169360000D02*
X136663000Y-169360000D01*
X146763000Y-167460000D02*
X143683000Y-167460000D01*
X136663000Y-172960000D02*
X144863001Y-172960000D01*
X146963000Y-171060000D02*
X146963000Y-170310000D01*
X136663000Y-169360000D02*
X136663000Y-172960000D01*
X146963000Y-170310000D02*
X146763000Y-170310000D01*
X146963000Y-171059999D02*
G75*
G02*
X144863001Y-172960000I-2000000J99999D01*
G01*
X143679318Y-167481471D02*
G75*
G02*
X141463000Y-169360000I-2151318J291471D01*
G01*
D11*
%TO.C,KSW44*%
X127713000Y-170310000D02*
X127713000Y-167460000D01*
D10*
X122413000Y-169360000D02*
X117613000Y-169360000D01*
X127713000Y-167460000D02*
X124633000Y-167460000D01*
X117613000Y-172960000D02*
X125813001Y-172960000D01*
X127913000Y-171060000D02*
X127913000Y-170310000D01*
X117613000Y-169360000D02*
X117613000Y-172960000D01*
X127913000Y-170310000D02*
X127713000Y-170310000D01*
X127913000Y-171059999D02*
G75*
G02*
X125813001Y-172960000I-2000000J99999D01*
G01*
X124629318Y-167481471D02*
G75*
G02*
X122413000Y-169360000I-2151318J291471D01*
G01*
D11*
%TO.C,KSW43*%
X96756200Y-170310000D02*
X96756200Y-167460000D01*
D10*
X91456200Y-169360000D02*
X86656200Y-169360000D01*
X96756200Y-167460000D02*
X93676200Y-167460000D01*
X86656200Y-172960000D02*
X94856201Y-172960000D01*
X96956200Y-171060000D02*
X96956200Y-170310000D01*
X86656200Y-169360000D02*
X86656200Y-172960000D01*
X96956200Y-170310000D02*
X96756200Y-170310000D01*
X96956200Y-171059999D02*
G75*
G02*
X94856201Y-172960000I-2000000J99999D01*
G01*
X93672518Y-167481471D02*
G75*
G02*
X91456200Y-169360000I-2151318J291471D01*
G01*
D11*
%TO.C,KSW42*%
X339644000Y-151260000D02*
X339644000Y-148410000D01*
D10*
X334344000Y-150310000D02*
X329544000Y-150310000D01*
X339644000Y-148410000D02*
X336564000Y-148410000D01*
X329544000Y-153910000D02*
X337744001Y-153910000D01*
X339844000Y-152010000D02*
X339844000Y-151260000D01*
X329544000Y-150310000D02*
X329544000Y-153910000D01*
X339844000Y-151260000D02*
X339644000Y-151260000D01*
X339844000Y-152009999D02*
G75*
G02*
X337744001Y-153910000I-2000000J99999D01*
G01*
X336560318Y-148431471D02*
G75*
G02*
X334344000Y-150310000I-2151318J291471D01*
G01*
D11*
%TO.C,KSW41*%
X308687000Y-151260000D02*
X308687000Y-148410000D01*
D10*
X303387000Y-150310000D02*
X298587000Y-150310000D01*
X308687000Y-148410000D02*
X305607000Y-148410000D01*
X298587000Y-153910000D02*
X306787001Y-153910000D01*
X308887000Y-152010000D02*
X308887000Y-151260000D01*
X298587000Y-150310000D02*
X298587000Y-153910000D01*
X308887000Y-151260000D02*
X308687000Y-151260000D01*
X308887000Y-152009999D02*
G75*
G02*
X306787001Y-153910000I-2000000J99999D01*
G01*
X305603318Y-148431471D02*
G75*
G02*
X303387000Y-150310000I-2151318J291471D01*
G01*
D11*
%TO.C,KSW40*%
X289637000Y-151260000D02*
X289637000Y-148410000D01*
D10*
X284337000Y-150310000D02*
X279537000Y-150310000D01*
X289637000Y-148410000D02*
X286557000Y-148410000D01*
X279537000Y-153910000D02*
X287737001Y-153910000D01*
X289837000Y-152010000D02*
X289837000Y-151260000D01*
X279537000Y-150310000D02*
X279537000Y-153910000D01*
X289837000Y-151260000D02*
X289637000Y-151260000D01*
X289837000Y-152009999D02*
G75*
G02*
X287737001Y-153910000I-2000000J99999D01*
G01*
X286553318Y-148431471D02*
G75*
G02*
X284337000Y-150310000I-2151318J291471D01*
G01*
D11*
%TO.C,KSW39*%
X270587000Y-151260000D02*
X270587000Y-148410000D01*
D10*
X265287000Y-150310000D02*
X260487000Y-150310000D01*
X270587000Y-148410000D02*
X267507000Y-148410000D01*
X260487000Y-153910000D02*
X268687001Y-153910000D01*
X270787000Y-152010000D02*
X270787000Y-151260000D01*
X260487000Y-150310000D02*
X260487000Y-153910000D01*
X270787000Y-151260000D02*
X270587000Y-151260000D01*
X270787000Y-152009999D02*
G75*
G02*
X268687001Y-153910000I-2000000J99999D01*
G01*
X267503318Y-148431471D02*
G75*
G02*
X265287000Y-150310000I-2151318J291471D01*
G01*
D11*
%TO.C,KSW38*%
X251537000Y-151260000D02*
X251537000Y-148410000D01*
D10*
X246237000Y-150310000D02*
X241437000Y-150310000D01*
X251537000Y-148410000D02*
X248457000Y-148410000D01*
X241437000Y-153910000D02*
X249637001Y-153910000D01*
X251737000Y-152010000D02*
X251737000Y-151260000D01*
X241437000Y-150310000D02*
X241437000Y-153910000D01*
X251737000Y-151260000D02*
X251537000Y-151260000D01*
X251737000Y-152009999D02*
G75*
G02*
X249637001Y-153910000I-2000000J99999D01*
G01*
X248453318Y-148431471D02*
G75*
G02*
X246237000Y-150310000I-2151318J291471D01*
G01*
D11*
%TO.C,KSW37*%
X232487000Y-151260000D02*
X232487000Y-148410000D01*
D10*
X227187000Y-150310000D02*
X222387000Y-150310000D01*
X232487000Y-148410000D02*
X229407000Y-148410000D01*
X222387000Y-153910000D02*
X230587001Y-153910000D01*
X232687000Y-152010000D02*
X232687000Y-151260000D01*
X222387000Y-150310000D02*
X222387000Y-153910000D01*
X232687000Y-151260000D02*
X232487000Y-151260000D01*
X232687000Y-152009999D02*
G75*
G02*
X230587001Y-153910000I-2000000J99999D01*
G01*
X229403318Y-148431471D02*
G75*
G02*
X227187000Y-150310000I-2151318J291471D01*
G01*
D11*
%TO.C,KSW36*%
X213437000Y-151260000D02*
X213437000Y-148410000D01*
D10*
X208137000Y-150310000D02*
X203337000Y-150310000D01*
X213437000Y-148410000D02*
X210357000Y-148410000D01*
X203337000Y-153910000D02*
X211537001Y-153910000D01*
X213637000Y-152010000D02*
X213637000Y-151260000D01*
X203337000Y-150310000D02*
X203337000Y-153910000D01*
X213637000Y-151260000D02*
X213437000Y-151260000D01*
X213637000Y-152009999D02*
G75*
G02*
X211537001Y-153910000I-2000000J99999D01*
G01*
X210353318Y-148431471D02*
G75*
G02*
X208137000Y-150310000I-2151318J291471D01*
G01*
D11*
%TO.C,KSW35*%
X182987000Y-143360000D02*
X182987000Y-146210000D01*
D10*
X188287000Y-144310000D02*
X193087000Y-144310000D01*
X182987000Y-146210000D02*
X186067000Y-146210000D01*
X193087000Y-140710000D02*
X184886999Y-140710000D01*
X182787000Y-142610000D02*
X182787000Y-143360000D01*
X193087000Y-144310000D02*
X193087000Y-140710000D01*
X182787000Y-143360000D02*
X182987000Y-143360000D01*
X182787000Y-142610001D02*
G75*
G02*
X184886999Y-140710000I2000000J-99999D01*
G01*
X186070682Y-146188529D02*
G75*
G02*
X188287000Y-144310000I2151318J-291471D01*
G01*
D11*
%TO.C,KSW34*%
X175337000Y-151260000D02*
X175337000Y-148410000D01*
D10*
X170037000Y-150310000D02*
X165237000Y-150310000D01*
X175337000Y-148410000D02*
X172257000Y-148410000D01*
X165237000Y-153910000D02*
X173437001Y-153910000D01*
X175537000Y-152010000D02*
X175537000Y-151260000D01*
X165237000Y-150310000D02*
X165237000Y-153910000D01*
X175537000Y-151260000D02*
X175337000Y-151260000D01*
X175537000Y-152009999D02*
G75*
G02*
X173437001Y-153910000I-2000000J99999D01*
G01*
X172253318Y-148431471D02*
G75*
G02*
X170037000Y-150310000I-2151318J291471D01*
G01*
D11*
%TO.C,KSW33*%
X156287000Y-151260000D02*
X156287000Y-148410000D01*
D10*
X150987000Y-150310000D02*
X146187000Y-150310000D01*
X156287000Y-148410000D02*
X153207000Y-148410000D01*
X146187000Y-153910000D02*
X154387001Y-153910000D01*
X156487000Y-152010000D02*
X156487000Y-151260000D01*
X146187000Y-150310000D02*
X146187000Y-153910000D01*
X156487000Y-151260000D02*
X156287000Y-151260000D01*
X156487000Y-152009999D02*
G75*
G02*
X154387001Y-153910000I-2000000J99999D01*
G01*
X153203318Y-148431471D02*
G75*
G02*
X150987000Y-150310000I-2151318J291471D01*
G01*
D11*
%TO.C,KSW32*%
X137237000Y-151260000D02*
X137237000Y-148410000D01*
D10*
X131937000Y-150310000D02*
X127137000Y-150310000D01*
X137237000Y-148410000D02*
X134157000Y-148410000D01*
X127137000Y-153910000D02*
X135337001Y-153910000D01*
X137437000Y-152010000D02*
X137437000Y-151260000D01*
X127137000Y-150310000D02*
X127137000Y-153910000D01*
X137437000Y-151260000D02*
X137237000Y-151260000D01*
X137437000Y-152009999D02*
G75*
G02*
X135337001Y-153910000I-2000000J99999D01*
G01*
X134153318Y-148431471D02*
G75*
G02*
X131937000Y-150310000I-2151318J291471D01*
G01*
D11*
%TO.C,KSW31*%
X118187000Y-151260000D02*
X118187000Y-148410000D01*
D10*
X112887000Y-150310000D02*
X108087000Y-150310000D01*
X118187000Y-148410000D02*
X115107000Y-148410000D01*
X108087000Y-153910000D02*
X116287001Y-153910000D01*
X118387000Y-152010000D02*
X118387000Y-151260000D01*
X108087000Y-150310000D02*
X108087000Y-153910000D01*
X118387000Y-151260000D02*
X118187000Y-151260000D01*
X118387000Y-152009999D02*
G75*
G02*
X116287001Y-153910000I-2000000J99999D01*
G01*
X115103318Y-148431471D02*
G75*
G02*
X112887000Y-150310000I-2151318J291471D01*
G01*
D11*
%TO.C,KSW30*%
X91993800Y-151260000D02*
X91993800Y-148410000D01*
D10*
X86693800Y-150310000D02*
X81893800Y-150310000D01*
X91993800Y-148410000D02*
X88913800Y-148410000D01*
X81893800Y-153910000D02*
X90093801Y-153910000D01*
X92193800Y-152010000D02*
X92193800Y-151260000D01*
X81893800Y-150310000D02*
X81893800Y-153910000D01*
X92193800Y-151260000D02*
X91993800Y-151260000D01*
X92193800Y-152009999D02*
G75*
G02*
X90093801Y-153910000I-2000000J99999D01*
G01*
X88910118Y-148431471D02*
G75*
G02*
X86693800Y-150310000I-2151318J291471D01*
G01*
D11*
%TO.C,KSW29*%
X346787000Y-132210000D02*
X346787000Y-129360000D01*
D10*
X341487000Y-131260000D02*
X336687000Y-131260000D01*
X346787000Y-129360000D02*
X343707000Y-129360000D01*
X336687000Y-134860000D02*
X344887001Y-134860000D01*
X346987000Y-132960000D02*
X346987000Y-132210000D01*
X336687000Y-131260000D02*
X336687000Y-134860000D01*
X346987000Y-132210000D02*
X346787000Y-132210000D01*
X346987000Y-132959999D02*
G75*
G02*
X344887001Y-134860000I-2000000J99999D01*
G01*
X343703318Y-129381471D02*
G75*
G02*
X341487000Y-131260000I-2151318J291471D01*
G01*
D11*
%TO.C,KSW28*%
X322975000Y-132210000D02*
X322975000Y-129360000D01*
D10*
X317675000Y-131260000D02*
X312875000Y-131260000D01*
X322975000Y-129360000D02*
X319895000Y-129360000D01*
X312875000Y-134860000D02*
X321075001Y-134860000D01*
X323175000Y-132960000D02*
X323175000Y-132210000D01*
X312875000Y-131260000D02*
X312875000Y-134860000D01*
X323175000Y-132210000D02*
X322975000Y-132210000D01*
X323175000Y-132959999D02*
G75*
G02*
X321075001Y-134860000I-2000000J99999D01*
G01*
X319891318Y-129381471D02*
G75*
G02*
X317675000Y-131260000I-2151318J291471D01*
G01*
D11*
%TO.C,KSW27*%
X303925000Y-132210000D02*
X303925000Y-129360000D01*
D10*
X298625000Y-131260000D02*
X293825000Y-131260000D01*
X303925000Y-129360000D02*
X300845000Y-129360000D01*
X293825000Y-134860000D02*
X302025001Y-134860000D01*
X304125000Y-132960000D02*
X304125000Y-132210000D01*
X293825000Y-131260000D02*
X293825000Y-134860000D01*
X304125000Y-132210000D02*
X303925000Y-132210000D01*
X304125000Y-132959999D02*
G75*
G02*
X302025001Y-134860000I-2000000J99999D01*
G01*
X300841318Y-129381471D02*
G75*
G02*
X298625000Y-131260000I-2151318J291471D01*
G01*
D11*
%TO.C,KSW26*%
X284875000Y-132210000D02*
X284875000Y-129360000D01*
D10*
X279575000Y-131260000D02*
X274775000Y-131260000D01*
X284875000Y-129360000D02*
X281795000Y-129360000D01*
X274775000Y-134860000D02*
X282975001Y-134860000D01*
X285075000Y-132960000D02*
X285075000Y-132210000D01*
X274775000Y-131260000D02*
X274775000Y-134860000D01*
X285075000Y-132210000D02*
X284875000Y-132210000D01*
X285075000Y-132959999D02*
G75*
G02*
X282975001Y-134860000I-2000000J99999D01*
G01*
X281791318Y-129381471D02*
G75*
G02*
X279575000Y-131260000I-2151318J291471D01*
G01*
D11*
%TO.C,KSW25*%
X265825000Y-132210000D02*
X265825000Y-129360000D01*
D10*
X260525000Y-131260000D02*
X255725000Y-131260000D01*
X265825000Y-129360000D02*
X262745000Y-129360000D01*
X255725000Y-134860000D02*
X263925001Y-134860000D01*
X266025000Y-132960000D02*
X266025000Y-132210000D01*
X255725000Y-131260000D02*
X255725000Y-134860000D01*
X266025000Y-132210000D02*
X265825000Y-132210000D01*
X266025000Y-132959999D02*
G75*
G02*
X263925001Y-134860000I-2000000J99999D01*
G01*
X262741318Y-129381471D02*
G75*
G02*
X260525000Y-131260000I-2151318J291471D01*
G01*
D11*
%TO.C,KSW24*%
X246775000Y-132210000D02*
X246775000Y-129360000D01*
D10*
X241475000Y-131260000D02*
X236675000Y-131260000D01*
X246775000Y-129360000D02*
X243695000Y-129360000D01*
X236675000Y-134860000D02*
X244875001Y-134860000D01*
X246975000Y-132960000D02*
X246975000Y-132210000D01*
X236675000Y-131260000D02*
X236675000Y-134860000D01*
X246975000Y-132210000D02*
X246775000Y-132210000D01*
X246975000Y-132959999D02*
G75*
G02*
X244875001Y-134860000I-2000000J99999D01*
G01*
X243691318Y-129381471D02*
G75*
G02*
X241475000Y-131260000I-2151318J291471D01*
G01*
D11*
%TO.C,KSW23*%
X227725000Y-132210000D02*
X227725000Y-129360000D01*
D10*
X222425000Y-131260000D02*
X217625000Y-131260000D01*
X227725000Y-129360000D02*
X224645000Y-129360000D01*
X217625000Y-134860000D02*
X225825001Y-134860000D01*
X227925000Y-132960000D02*
X227925000Y-132210000D01*
X217625000Y-131260000D02*
X217625000Y-134860000D01*
X227925000Y-132210000D02*
X227725000Y-132210000D01*
X227925000Y-132959999D02*
G75*
G02*
X225825001Y-134860000I-2000000J99999D01*
G01*
X224641318Y-129381471D02*
G75*
G02*
X222425000Y-131260000I-2151318J291471D01*
G01*
D11*
%TO.C,KSW22*%
X208675000Y-132210000D02*
X208675000Y-129360000D01*
D10*
X203375000Y-131260000D02*
X198575000Y-131260000D01*
X208675000Y-129360000D02*
X205595000Y-129360000D01*
X198575000Y-134860000D02*
X206775001Y-134860000D01*
X208875000Y-132960000D02*
X208875000Y-132210000D01*
X198575000Y-131260000D02*
X198575000Y-134860000D01*
X208875000Y-132210000D02*
X208675000Y-132210000D01*
X208875000Y-132959999D02*
G75*
G02*
X206775001Y-134860000I-2000000J99999D01*
G01*
X205591318Y-129381471D02*
G75*
G02*
X203375000Y-131260000I-2151318J291471D01*
G01*
D11*
%TO.C,KSW21*%
X189625000Y-132210000D02*
X189625000Y-129360000D01*
D10*
X184325000Y-131260000D02*
X179525000Y-131260000D01*
X189625000Y-129360000D02*
X186545000Y-129360000D01*
X179525000Y-134860000D02*
X187725001Y-134860000D01*
X189825000Y-132960000D02*
X189825000Y-132210000D01*
X179525000Y-131260000D02*
X179525000Y-134860000D01*
X189825000Y-132210000D02*
X189625000Y-132210000D01*
X189825000Y-132959999D02*
G75*
G02*
X187725001Y-134860000I-2000000J99999D01*
G01*
X186541318Y-129381471D02*
G75*
G02*
X184325000Y-131260000I-2151318J291471D01*
G01*
D11*
%TO.C,KSW20*%
X170575000Y-132210000D02*
X170575000Y-129360000D01*
D10*
X165275000Y-131260000D02*
X160475000Y-131260000D01*
X170575000Y-129360000D02*
X167495000Y-129360000D01*
X160475000Y-134860000D02*
X168675001Y-134860000D01*
X170775000Y-132960000D02*
X170775000Y-132210000D01*
X160475000Y-131260000D02*
X160475000Y-134860000D01*
X170775000Y-132210000D02*
X170575000Y-132210000D01*
X170775000Y-132959999D02*
G75*
G02*
X168675001Y-134860000I-2000000J99999D01*
G01*
X167491318Y-129381471D02*
G75*
G02*
X165275000Y-131260000I-2151318J291471D01*
G01*
D11*
%TO.C,KSW19*%
X151525000Y-132210000D02*
X151525000Y-129360000D01*
D10*
X146225000Y-131260000D02*
X141425000Y-131260000D01*
X151525000Y-129360000D02*
X148445000Y-129360000D01*
X141425000Y-134860000D02*
X149625001Y-134860000D01*
X151725000Y-132960000D02*
X151725000Y-132210000D01*
X141425000Y-131260000D02*
X141425000Y-134860000D01*
X151725000Y-132210000D02*
X151525000Y-132210000D01*
X151725000Y-132959999D02*
G75*
G02*
X149625001Y-134860000I-2000000J99999D01*
G01*
X148441318Y-129381471D02*
G75*
G02*
X146225000Y-131260000I-2151318J291471D01*
G01*
D11*
%TO.C,KSW18*%
X132475000Y-132210000D02*
X132475000Y-129360000D01*
D10*
X127175000Y-131260000D02*
X122375000Y-131260000D01*
X132475000Y-129360000D02*
X129395000Y-129360000D01*
X122375000Y-134860000D02*
X130575001Y-134860000D01*
X132675000Y-132960000D02*
X132675000Y-132210000D01*
X122375000Y-131260000D02*
X122375000Y-134860000D01*
X132675000Y-132210000D02*
X132475000Y-132210000D01*
X132675000Y-132959999D02*
G75*
G02*
X130575001Y-134860000I-2000000J99999D01*
G01*
X129391318Y-129381471D02*
G75*
G02*
X127175000Y-131260000I-2151318J291471D01*
G01*
D11*
%TO.C,KSW17*%
X113425000Y-132210000D02*
X113425000Y-129360000D01*
D10*
X108125000Y-131260000D02*
X103325000Y-131260000D01*
X113425000Y-129360000D02*
X110345000Y-129360000D01*
X103325000Y-134860000D02*
X111525001Y-134860000D01*
X113625000Y-132960000D02*
X113625000Y-132210000D01*
X103325000Y-131260000D02*
X103325000Y-134860000D01*
X113625000Y-132210000D02*
X113425000Y-132210000D01*
X113625000Y-132959999D02*
G75*
G02*
X111525001Y-134860000I-2000000J99999D01*
G01*
X110341318Y-129381471D02*
G75*
G02*
X108125000Y-131260000I-2151318J291471D01*
G01*
D11*
%TO.C,KSW16*%
X89612500Y-132210000D02*
X89612500Y-129360000D01*
D10*
X84312500Y-131260000D02*
X79512500Y-131260000D01*
X89612500Y-129360000D02*
X86532500Y-129360000D01*
X79512500Y-134860000D02*
X87712501Y-134860000D01*
X89812500Y-132960000D02*
X89812500Y-132210000D01*
X79512500Y-131260000D02*
X79512500Y-134860000D01*
X89812500Y-132210000D02*
X89612500Y-132210000D01*
X89812500Y-132959999D02*
G75*
G02*
X87712501Y-134860000I-2000000J99999D01*
G01*
X86528818Y-129381471D02*
G75*
G02*
X84312500Y-131260000I-2151318J291471D01*
G01*
D11*
%TO.C,KSW15*%
X351550000Y-113160000D02*
X351550000Y-110310000D01*
D10*
X346250000Y-112210000D02*
X341450000Y-112210000D01*
X351550000Y-110310000D02*
X348470000Y-110310000D01*
X341450000Y-115810000D02*
X349650001Y-115810000D01*
X351750000Y-113910000D02*
X351750000Y-113160000D01*
X341450000Y-112210000D02*
X341450000Y-115810000D01*
X351750000Y-113160000D02*
X351550000Y-113160000D01*
X351750000Y-113909999D02*
G75*
G02*
X349650001Y-115810000I-2000000J99999D01*
G01*
X348466318Y-110331471D02*
G75*
G02*
X346250000Y-112210000I-2151318J291471D01*
G01*
D11*
%TO.C,KSW14*%
X332500000Y-113160000D02*
X332500000Y-110310000D01*
D10*
X327200000Y-112210000D02*
X322400000Y-112210000D01*
X332500000Y-110310000D02*
X329420000Y-110310000D01*
X322400000Y-115810000D02*
X330600001Y-115810000D01*
X332700000Y-113910000D02*
X332700000Y-113160000D01*
X322400000Y-112210000D02*
X322400000Y-115810000D01*
X332700000Y-113160000D02*
X332500000Y-113160000D01*
X332700000Y-113909999D02*
G75*
G02*
X330600001Y-115810000I-2000000J99999D01*
G01*
X329416318Y-110331471D02*
G75*
G02*
X327200000Y-112210000I-2151318J291471D01*
G01*
D11*
%TO.C,KSW13*%
X302050000Y-105260000D02*
X302050000Y-108110000D01*
D10*
X307350000Y-106210000D02*
X312150000Y-106210000D01*
X302050000Y-108110000D02*
X305130000Y-108110000D01*
X312150000Y-102610000D02*
X303949999Y-102610000D01*
X301850000Y-104510000D02*
X301850000Y-105260000D01*
X312150000Y-106210000D02*
X312150000Y-102610000D01*
X301850000Y-105260000D02*
X302050000Y-105260000D01*
X301850000Y-104510001D02*
G75*
G02*
X303949999Y-102610000I2000000J-99999D01*
G01*
X305133682Y-108088529D02*
G75*
G02*
X307350000Y-106210000I2151318J-291471D01*
G01*
D11*
%TO.C,KSW12*%
X294400000Y-113160000D02*
X294400000Y-110310000D01*
D10*
X289100000Y-112210000D02*
X284300000Y-112210000D01*
X294400000Y-110310000D02*
X291320000Y-110310000D01*
X284300000Y-115810000D02*
X292500001Y-115810000D01*
X294600000Y-113910000D02*
X294600000Y-113160000D01*
X284300000Y-112210000D02*
X284300000Y-115810000D01*
X294600000Y-113160000D02*
X294400000Y-113160000D01*
X294600000Y-113909999D02*
G75*
G02*
X292500001Y-115810000I-2000000J99999D01*
G01*
X291316318Y-110331471D02*
G75*
G02*
X289100000Y-112210000I-2151318J291471D01*
G01*
D11*
%TO.C,KSW11*%
X275350000Y-113160000D02*
X275350000Y-110310000D01*
D10*
X270050000Y-112210000D02*
X265250000Y-112210000D01*
X275350000Y-110310000D02*
X272270000Y-110310000D01*
X265250000Y-115810000D02*
X273450001Y-115810000D01*
X275550000Y-113910000D02*
X275550000Y-113160000D01*
X265250000Y-112210000D02*
X265250000Y-115810000D01*
X275550000Y-113160000D02*
X275350000Y-113160000D01*
X275550000Y-113909999D02*
G75*
G02*
X273450001Y-115810000I-2000000J99999D01*
G01*
X272266318Y-110331471D02*
G75*
G02*
X270050000Y-112210000I-2151318J291471D01*
G01*
D11*
%TO.C,KSW10*%
X256300000Y-113160000D02*
X256300000Y-110310000D01*
D10*
X251000000Y-112210000D02*
X246200000Y-112210000D01*
X256300000Y-110310000D02*
X253220000Y-110310000D01*
X246200000Y-115810000D02*
X254400001Y-115810000D01*
X256500000Y-113910000D02*
X256500000Y-113160000D01*
X246200000Y-112210000D02*
X246200000Y-115810000D01*
X256500000Y-113160000D02*
X256300000Y-113160000D01*
X256500000Y-113909999D02*
G75*
G02*
X254400001Y-115810000I-2000000J99999D01*
G01*
X253216318Y-110331471D02*
G75*
G02*
X251000000Y-112210000I-2151318J291471D01*
G01*
D11*
%TO.C,KSW9*%
X237250000Y-113160000D02*
X237250000Y-110310000D01*
D10*
X231950000Y-112210000D02*
X227150000Y-112210000D01*
X237250000Y-110310000D02*
X234170000Y-110310000D01*
X227150000Y-115810000D02*
X235350001Y-115810000D01*
X237450000Y-113910000D02*
X237450000Y-113160000D01*
X227150000Y-112210000D02*
X227150000Y-115810000D01*
X237450000Y-113160000D02*
X237250000Y-113160000D01*
X237450000Y-113909999D02*
G75*
G02*
X235350001Y-115810000I-2000000J99999D01*
G01*
X234166318Y-110331471D02*
G75*
G02*
X231950000Y-112210000I-2151318J291471D01*
G01*
D11*
%TO.C,KSW8*%
X206800000Y-105260000D02*
X206800000Y-108110000D01*
D10*
X212100000Y-106210000D02*
X216900000Y-106210000D01*
X206800000Y-108110000D02*
X209880000Y-108110000D01*
X216900000Y-102610000D02*
X208699999Y-102610000D01*
X206600000Y-104510000D02*
X206600000Y-105260000D01*
X216900000Y-106210000D02*
X216900000Y-102610000D01*
X206600000Y-105260000D02*
X206800000Y-105260000D01*
X206600000Y-104510001D02*
G75*
G02*
X208699999Y-102610000I2000000J-99999D01*
G01*
X209883682Y-108088529D02*
G75*
G02*
X212100000Y-106210000I2151318J-291471D01*
G01*
D11*
%TO.C,KSW7*%
X199150000Y-113160000D02*
X199150000Y-110310000D01*
D10*
X193850000Y-112210000D02*
X189050000Y-112210000D01*
X199150000Y-110310000D02*
X196070000Y-110310000D01*
X189050000Y-115810000D02*
X197250001Y-115810000D01*
X199350000Y-113910000D02*
X199350000Y-113160000D01*
X189050000Y-112210000D02*
X189050000Y-115810000D01*
X199350000Y-113160000D02*
X199150000Y-113160000D01*
X199350000Y-113909999D02*
G75*
G02*
X197250001Y-115810000I-2000000J99999D01*
G01*
X196066318Y-110331471D02*
G75*
G02*
X193850000Y-112210000I-2151318J291471D01*
G01*
D11*
%TO.C,KSW6*%
X180100000Y-113160000D02*
X180100000Y-110310000D01*
D10*
X174800000Y-112210000D02*
X170000000Y-112210000D01*
X180100000Y-110310000D02*
X177020000Y-110310000D01*
X170000000Y-115810000D02*
X178200001Y-115810000D01*
X180300000Y-113910000D02*
X180300000Y-113160000D01*
X170000000Y-112210000D02*
X170000000Y-115810000D01*
X180300000Y-113160000D02*
X180100000Y-113160000D01*
X180300000Y-113909999D02*
G75*
G02*
X178200001Y-115810000I-2000000J99999D01*
G01*
X177016318Y-110331471D02*
G75*
G02*
X174800000Y-112210000I-2151318J291471D01*
G01*
D11*
%TO.C,KSW5*%
X161050000Y-113160000D02*
X161050000Y-110310000D01*
D10*
X155750000Y-112210000D02*
X150950000Y-112210000D01*
X161050000Y-110310000D02*
X157970000Y-110310000D01*
X150950000Y-115810000D02*
X159150001Y-115810000D01*
X161250000Y-113910000D02*
X161250000Y-113160000D01*
X150950000Y-112210000D02*
X150950000Y-115810000D01*
X161250000Y-113160000D02*
X161050000Y-113160000D01*
X161250000Y-113909999D02*
G75*
G02*
X159150001Y-115810000I-2000000J99999D01*
G01*
X157966318Y-110331471D02*
G75*
G02*
X155750000Y-112210000I-2151318J291471D01*
G01*
D11*
%TO.C,KSW4*%
X142000000Y-113160000D02*
X142000000Y-110310000D01*
D10*
X136700000Y-112210000D02*
X131900000Y-112210000D01*
X142000000Y-110310000D02*
X138920000Y-110310000D01*
X131900000Y-115810000D02*
X140100001Y-115810000D01*
X142200000Y-113910000D02*
X142200000Y-113160000D01*
X131900000Y-112210000D02*
X131900000Y-115810000D01*
X142200000Y-113160000D02*
X142000000Y-113160000D01*
X142200000Y-113909999D02*
G75*
G02*
X140100001Y-115810000I-2000000J99999D01*
G01*
X138916318Y-110331471D02*
G75*
G02*
X136700000Y-112210000I-2151318J291471D01*
G01*
D11*
%TO.C,KSW3*%
X111550000Y-105260000D02*
X111550000Y-108110000D01*
D10*
X116850000Y-106210000D02*
X121650000Y-106210000D01*
X111550000Y-108110000D02*
X114630000Y-108110000D01*
X121650000Y-102610000D02*
X113449999Y-102610000D01*
X111350000Y-104510000D02*
X111350000Y-105260000D01*
X121650000Y-106210000D02*
X121650000Y-102610000D01*
X111350000Y-105260000D02*
X111550000Y-105260000D01*
X111350000Y-104510001D02*
G75*
G02*
X113449999Y-102610000I2000000J-99999D01*
G01*
X114633682Y-108088529D02*
G75*
G02*
X116850000Y-106210000I2151318J-291471D01*
G01*
D11*
%TO.C,KSW2*%
X103900000Y-113160000D02*
X103900000Y-110310000D01*
D10*
X98600000Y-112210000D02*
X93800000Y-112210000D01*
X103900000Y-110310000D02*
X100820000Y-110310000D01*
X93800000Y-115810000D02*
X102000001Y-115810000D01*
X104100000Y-113910000D02*
X104100000Y-113160000D01*
X93800000Y-112210000D02*
X93800000Y-115810000D01*
X104100000Y-113160000D02*
X103900000Y-113160000D01*
X104100000Y-113909999D02*
G75*
G02*
X102000001Y-115810000I-2000000J99999D01*
G01*
X100816318Y-110331471D02*
G75*
G02*
X98600000Y-112210000I-2151318J291471D01*
G01*
D11*
%TO.C,KSW1*%
X84850000Y-113160000D02*
X84850000Y-110310000D01*
D10*
X79550000Y-112210000D02*
X74750000Y-112210000D01*
X84850000Y-110310000D02*
X81770000Y-110310000D01*
X74750000Y-115810000D02*
X82950001Y-115810000D01*
X85050000Y-113910000D02*
X85050000Y-113160000D01*
X74750000Y-112210000D02*
X74750000Y-115810000D01*
X85050000Y-113160000D02*
X84850000Y-113160000D01*
X85050000Y-113909999D02*
G75*
G02*
X82950001Y-115810000I-2000000J99999D01*
G01*
X81766318Y-110331471D02*
G75*
G02*
X79550000Y-112210000I-2151318J291471D01*
G01*
%TO.C,U1*%
X168143000Y-178899000D02*
X168143000Y-177624000D01*
X167568000Y-189249000D02*
X167568000Y-188574000D01*
X177918000Y-189249000D02*
X177918000Y-188574000D01*
X177918000Y-178899000D02*
X177918000Y-179574000D01*
X167568000Y-178899000D02*
X167568000Y-179574000D01*
X177918000Y-178899000D02*
X177243000Y-178899000D01*
X177918000Y-189249000D02*
X177243000Y-189249000D01*
X167568000Y-189249000D02*
X168243000Y-189249000D01*
X167568000Y-178899000D02*
X168143000Y-178899000D01*
D11*
%TO.C,LED5*%
X352709000Y-187291000D02*
X344909000Y-187291000D01*
X344909000Y-185191000D02*
X344909000Y-183591000D01*
X344909000Y-183591000D02*
X352709000Y-183591000D01*
%TO.C,LED4*%
X344143000Y-187291000D02*
X336343000Y-187291000D01*
X336343000Y-185191000D02*
X336343000Y-183591000D01*
X336343000Y-183591000D02*
X344143000Y-183591000D01*
%TO.C,LED3*%
X335577000Y-187291000D02*
X327777000Y-187291000D01*
X327777000Y-185191000D02*
X327777000Y-183591000D01*
X327777000Y-183591000D02*
X335577000Y-183591000D01*
%TO.C,LED2*%
X327011000Y-187291000D02*
X319211000Y-187291000D01*
X319211000Y-185191000D02*
X319211000Y-183591000D01*
X319211000Y-183591000D02*
X327011000Y-183591000D01*
%TO.C,LED1*%
X318444000Y-187291000D02*
X310644000Y-187291000D01*
X310644000Y-185191000D02*
X310644000Y-183591000D01*
X310644000Y-183591000D02*
X318444000Y-183591000D01*
%TO.C,C5*%
X183778733Y-182848000D02*
X184071267Y-182848000D01*
X183778733Y-181828000D02*
X184071267Y-181828000D01*
%TO.C,R2*%
X161058276Y-190565500D02*
X161567724Y-190565500D01*
X161058276Y-189520500D02*
X161567724Y-189520500D01*
%TO.C,X1*%
X187661000Y-181943000D02*
X191861000Y-181943000D01*
X187661000Y-185443000D02*
X187661000Y-181943000D01*
%TO.C,C8*%
X161172733Y-178935000D02*
X161465267Y-178935000D01*
X161172733Y-177915000D02*
X161465267Y-177915000D01*
%TO.C,C7*%
X161459267Y-181788000D02*
X161166733Y-181788000D01*
X161459267Y-182808000D02*
X161166733Y-182808000D01*
%TO.C,C2*%
X189907267Y-187120000D02*
X189614733Y-187120000D01*
X189907267Y-188140000D02*
X189614733Y-188140000D01*
%TO.C,C1*%
X189614733Y-179119000D02*
X189907267Y-179119000D01*
X189614733Y-180139000D02*
X189907267Y-180139000D01*
%TO.C,RSW1*%
X95920000Y-151430000D02*
X95920000Y-144970000D01*
X100450000Y-151430000D02*
X97850000Y-151430000D01*
X102380000Y-151430000D02*
X102380000Y-144970000D01*
X100450000Y-144970000D02*
X97850000Y-144970000D01*
X102350000Y-151430000D02*
X102380000Y-151430000D01*
X95920000Y-151430000D02*
X95950000Y-151430000D01*
X95920000Y-144970000D02*
X95950000Y-144970000D01*
X102380000Y-144970000D02*
X102350000Y-144970000D01*
%TO.C,R4*%
X103534724Y-168660500D02*
X103025276Y-168660500D01*
X103534724Y-167615500D02*
X103025276Y-167615500D01*
%TO.C,R3*%
X103534724Y-165358500D02*
X103025276Y-165358500D01*
X103534724Y-164313500D02*
X103025276Y-164313500D01*
%TO.C,R1*%
X184173724Y-178090500D02*
X183664276Y-178090500D01*
X184173724Y-179135500D02*
X183664276Y-179135500D01*
%TO.C,J2*%
X228031000Y-180810000D02*
X226701000Y-180810000D01*
X228031000Y-182140000D02*
X228031000Y-180810000D01*
X225431000Y-180810000D02*
X222831000Y-180810000D01*
X225431000Y-183410000D02*
X225431000Y-180810000D01*
X228031000Y-183410000D02*
X225431000Y-183410000D01*
X222831000Y-180810000D02*
X222831000Y-188550000D01*
X228031000Y-183410000D02*
X228031000Y-188550000D01*
X228031000Y-188550000D02*
X222831000Y-188550000D01*
%TO.C,F1*%
X83435064Y-180478000D02*
X82230936Y-180478000D01*
X83435064Y-178658000D02*
X82230936Y-178658000D01*
%TO.C,D60*%
X287700000Y-185541000D02*
X287700000Y-189441000D01*
X289700000Y-185541000D02*
X289700000Y-189441000D01*
X287700000Y-185541000D02*
X289700000Y-185541000D01*
%TO.C,D59*%
X282938000Y-185541000D02*
X282938000Y-189441000D01*
X284938000Y-185541000D02*
X284938000Y-189441000D01*
X282938000Y-185541000D02*
X284938000Y-185541000D01*
%TO.C,D58*%
X211500000Y-185541000D02*
X211500000Y-189441000D01*
X213500000Y-185541000D02*
X213500000Y-189441000D01*
X211500000Y-185541000D02*
X213500000Y-185541000D01*
%TO.C,D57*%
X121012000Y-185541000D02*
X121012000Y-189441000D01*
X123012000Y-185541000D02*
X123012000Y-189441000D01*
X121012000Y-185541000D02*
X123012000Y-185541000D01*
%TO.C,D56*%
X116250000Y-185541000D02*
X116250000Y-189441000D01*
X118250000Y-185541000D02*
X118250000Y-189441000D01*
X116250000Y-185541000D02*
X118250000Y-185541000D01*
%TO.C,D55*%
X338850000Y-159360000D02*
X338850000Y-163260000D01*
X340850000Y-159360000D02*
X340850000Y-163260000D01*
X338850000Y-159360000D02*
X340850000Y-159360000D01*
%TO.C,D54*%
X312656000Y-159360000D02*
X312656000Y-163260000D01*
X314656000Y-159360000D02*
X314656000Y-163260000D01*
X312656000Y-159360000D02*
X314656000Y-159360000D01*
%TO.C,D53*%
X286463000Y-159360000D02*
X286463000Y-163260000D01*
X288463000Y-159360000D02*
X288463000Y-163260000D01*
X286463000Y-159360000D02*
X288463000Y-159360000D01*
%TO.C,D52*%
X267413000Y-159360000D02*
X267413000Y-163260000D01*
X269413000Y-159360000D02*
X269413000Y-163260000D01*
X267413000Y-159360000D02*
X269413000Y-159360000D01*
%TO.C,D51*%
X248363000Y-159360000D02*
X248363000Y-163260000D01*
X250363000Y-159360000D02*
X250363000Y-163260000D01*
X248363000Y-159360000D02*
X250363000Y-159360000D01*
%TO.C,D50*%
X229313000Y-159360000D02*
X229313000Y-163260000D01*
X231313000Y-159360000D02*
X231313000Y-163260000D01*
X229313000Y-159360000D02*
X231313000Y-159360000D01*
%TO.C,D49*%
X210263000Y-159360000D02*
X210263000Y-163260000D01*
X212263000Y-159360000D02*
X212263000Y-163260000D01*
X210263000Y-159360000D02*
X212263000Y-159360000D01*
%TO.C,D48*%
X201975000Y-168873000D02*
X201975000Y-172773000D01*
X203975000Y-168873000D02*
X203975000Y-172773000D01*
X201975000Y-168873000D02*
X203975000Y-168873000D01*
%TO.C,D47*%
X172163000Y-159360000D02*
X172163000Y-163260000D01*
X174163000Y-159360000D02*
X174163000Y-163260000D01*
X172163000Y-159360000D02*
X174163000Y-159360000D01*
%TO.C,D46*%
X153113000Y-159360000D02*
X153113000Y-163260000D01*
X155113000Y-159360000D02*
X155113000Y-163260000D01*
X153113000Y-159360000D02*
X155113000Y-159360000D01*
%TO.C,D45*%
X134063000Y-159360000D02*
X134063000Y-163260000D01*
X136063000Y-159360000D02*
X136063000Y-163260000D01*
X134063000Y-159360000D02*
X136063000Y-159360000D01*
%TO.C,D44*%
X115013000Y-159360000D02*
X115013000Y-163260000D01*
X117013000Y-159360000D02*
X117013000Y-163260000D01*
X115013000Y-159360000D02*
X117013000Y-159360000D01*
%TO.C,D43*%
X84056200Y-159360000D02*
X84056200Y-163260000D01*
X86056200Y-159360000D02*
X86056200Y-163260000D01*
X84056200Y-159360000D02*
X86056200Y-159360000D01*
%TO.C,D42*%
X326944000Y-140310000D02*
X326944000Y-144210000D01*
X328944000Y-140310000D02*
X328944000Y-144210000D01*
X326944000Y-140310000D02*
X328944000Y-140310000D01*
%TO.C,D41*%
X295987000Y-140310000D02*
X295987000Y-144210000D01*
X297987000Y-140310000D02*
X297987000Y-144210000D01*
X295987000Y-140310000D02*
X297987000Y-140310000D01*
%TO.C,D40*%
X276937000Y-140310000D02*
X276937000Y-144210000D01*
X278937000Y-140310000D02*
X278937000Y-144210000D01*
X276937000Y-140310000D02*
X278937000Y-140310000D01*
%TO.C,D39*%
X257887000Y-140310000D02*
X257887000Y-144210000D01*
X259887000Y-140310000D02*
X259887000Y-144210000D01*
X257887000Y-140310000D02*
X259887000Y-140310000D01*
%TO.C,D38*%
X238837000Y-140310000D02*
X238837000Y-144210000D01*
X240837000Y-140310000D02*
X240837000Y-144210000D01*
X238837000Y-140310000D02*
X240837000Y-140310000D01*
%TO.C,D37*%
X219787000Y-140310000D02*
X219787000Y-144210000D01*
X221787000Y-140310000D02*
X221787000Y-144210000D01*
X219787000Y-140310000D02*
X221787000Y-140310000D01*
%TO.C,D36*%
X200737000Y-140310000D02*
X200737000Y-144210000D01*
X202737000Y-140310000D02*
X202737000Y-144210000D01*
X200737000Y-140310000D02*
X202737000Y-140310000D01*
%TO.C,D35*%
X192450000Y-149823000D02*
X192450000Y-153723000D01*
X194450000Y-149823000D02*
X194450000Y-153723000D01*
X192450000Y-149823000D02*
X194450000Y-149823000D01*
%TO.C,D34*%
X162637000Y-140310000D02*
X162637000Y-144210000D01*
X164637000Y-140310000D02*
X164637000Y-144210000D01*
X162637000Y-140310000D02*
X164637000Y-140310000D01*
%TO.C,D33*%
X143587000Y-140310000D02*
X143587000Y-144210000D01*
X145587000Y-140310000D02*
X145587000Y-144210000D01*
X143587000Y-140310000D02*
X145587000Y-140310000D01*
%TO.C,D32*%
X124537000Y-140310000D02*
X124537000Y-144210000D01*
X126537000Y-140310000D02*
X126537000Y-144210000D01*
X124537000Y-140310000D02*
X126537000Y-140310000D01*
%TO.C,D31*%
X105487000Y-140310000D02*
X105487000Y-144210000D01*
X107487000Y-140310000D02*
X107487000Y-144210000D01*
X105487000Y-140310000D02*
X107487000Y-140310000D01*
%TO.C,D30*%
X79293800Y-140310000D02*
X79293800Y-144210000D01*
X81293800Y-140310000D02*
X81293800Y-144210000D01*
X79293800Y-140310000D02*
X81293800Y-140310000D01*
%TO.C,D29*%
X334087000Y-121260000D02*
X334087000Y-125160000D01*
X336087000Y-121260000D02*
X336087000Y-125160000D01*
X334087000Y-121260000D02*
X336087000Y-121260000D01*
%TO.C,D28*%
X310275000Y-121260000D02*
X310275000Y-125160000D01*
X312275000Y-121260000D02*
X312275000Y-125160000D01*
X310275000Y-121260000D02*
X312275000Y-121260000D01*
%TO.C,D27*%
X291225000Y-121260000D02*
X291225000Y-125160000D01*
X293225000Y-121260000D02*
X293225000Y-125160000D01*
X291225000Y-121260000D02*
X293225000Y-121260000D01*
%TO.C,D26*%
X272175000Y-121260000D02*
X272175000Y-125160000D01*
X274175000Y-121260000D02*
X274175000Y-125160000D01*
X272175000Y-121260000D02*
X274175000Y-121260000D01*
%TO.C,D25*%
X253125000Y-121260000D02*
X253125000Y-125160000D01*
X255125000Y-121260000D02*
X255125000Y-125160000D01*
X253125000Y-121260000D02*
X255125000Y-121260000D01*
%TO.C,D24*%
X234075000Y-121260000D02*
X234075000Y-125160000D01*
X236075000Y-121260000D02*
X236075000Y-125160000D01*
X234075000Y-121260000D02*
X236075000Y-121260000D01*
%TO.C,D23*%
X215025000Y-121260000D02*
X215025000Y-125160000D01*
X217025000Y-121260000D02*
X217025000Y-125160000D01*
X215025000Y-121260000D02*
X217025000Y-121260000D01*
%TO.C,D22*%
X195975000Y-121260000D02*
X195975000Y-125160000D01*
X197975000Y-121260000D02*
X197975000Y-125160000D01*
X195975000Y-121260000D02*
X197975000Y-121260000D01*
%TO.C,D21*%
X176925000Y-121260000D02*
X176925000Y-125160000D01*
X178925000Y-121260000D02*
X178925000Y-125160000D01*
X176925000Y-121260000D02*
X178925000Y-121260000D01*
%TO.C,D20*%
X157875000Y-121260000D02*
X157875000Y-125160000D01*
X159875000Y-121260000D02*
X159875000Y-125160000D01*
X157875000Y-121260000D02*
X159875000Y-121260000D01*
%TO.C,D19*%
X138825000Y-121260000D02*
X138825000Y-125160000D01*
X140825000Y-121260000D02*
X140825000Y-125160000D01*
X138825000Y-121260000D02*
X140825000Y-121260000D01*
%TO.C,D18*%
X119775000Y-121260000D02*
X119775000Y-125160000D01*
X121775000Y-121260000D02*
X121775000Y-125160000D01*
X119775000Y-121260000D02*
X121775000Y-121260000D01*
%TO.C,D17*%
X100725000Y-121260000D02*
X100725000Y-125160000D01*
X102725000Y-121260000D02*
X102725000Y-125160000D01*
X100725000Y-121260000D02*
X102725000Y-121260000D01*
%TO.C,D16*%
X76912500Y-121260000D02*
X76912500Y-125160000D01*
X78912500Y-121260000D02*
X78912500Y-125160000D01*
X76912500Y-121260000D02*
X78912500Y-121260000D01*
%TO.C,D15*%
X338850000Y-102210000D02*
X338850000Y-106110000D01*
X340850000Y-102210000D02*
X340850000Y-106110000D01*
X338850000Y-102210000D02*
X340850000Y-102210000D01*
%TO.C,D14*%
X319800000Y-102210000D02*
X319800000Y-106110000D01*
X321800000Y-102210000D02*
X321800000Y-106110000D01*
X319800000Y-102210000D02*
X321800000Y-102210000D01*
%TO.C,D13*%
X311513000Y-111722000D02*
X311513000Y-115622000D01*
X313513000Y-111722000D02*
X313513000Y-115622000D01*
X311513000Y-111722000D02*
X313513000Y-111722000D01*
%TO.C,D12*%
X281700000Y-102210000D02*
X281700000Y-106110000D01*
X283700000Y-102210000D02*
X283700000Y-106110000D01*
X281700000Y-102210000D02*
X283700000Y-102210000D01*
%TO.C,D11*%
X262650000Y-102210000D02*
X262650000Y-106110000D01*
X264650000Y-102210000D02*
X264650000Y-106110000D01*
X262650000Y-102210000D02*
X264650000Y-102210000D01*
%TO.C,D10*%
X243600000Y-102210000D02*
X243600000Y-106110000D01*
X245600000Y-102210000D02*
X245600000Y-106110000D01*
X243600000Y-102210000D02*
X245600000Y-102210000D01*
%TO.C,D9*%
X224550000Y-102210000D02*
X224550000Y-106110000D01*
X226550000Y-102210000D02*
X226550000Y-106110000D01*
X224550000Y-102210000D02*
X226550000Y-102210000D01*
%TO.C,D8*%
X216263000Y-111722000D02*
X216263000Y-115622000D01*
X218263000Y-111722000D02*
X218263000Y-115622000D01*
X216263000Y-111722000D02*
X218263000Y-111722000D01*
%TO.C,D7*%
X186497000Y-102197000D02*
X186497000Y-106097000D01*
X188497000Y-102197000D02*
X188497000Y-106097000D01*
X186497000Y-102197000D02*
X188497000Y-102197000D01*
%TO.C,D6*%
X167400000Y-102210000D02*
X167400000Y-106110000D01*
X169400000Y-102210000D02*
X169400000Y-106110000D01*
X167400000Y-102210000D02*
X169400000Y-102210000D01*
%TO.C,D5*%
X148350000Y-102210000D02*
X148350000Y-106110000D01*
X150350000Y-102210000D02*
X150350000Y-106110000D01*
X148350000Y-102210000D02*
X150350000Y-102210000D01*
%TO.C,D4*%
X129300000Y-102210000D02*
X129300000Y-106110000D01*
X131300000Y-102210000D02*
X131300000Y-106110000D01*
X129300000Y-102210000D02*
X131300000Y-102210000D01*
%TO.C,D3*%
X121012000Y-111722000D02*
X121012000Y-115622000D01*
X123012000Y-111722000D02*
X123012000Y-115622000D01*
X121012000Y-111722000D02*
X123012000Y-111722000D01*
%TO.C,D2*%
X103200000Y-102210000D02*
X103200000Y-106110000D01*
X105200000Y-102210000D02*
X105200000Y-106110000D01*
X103200000Y-102210000D02*
X105200000Y-102210000D01*
%TO.C,D1*%
X72175000Y-121245000D02*
X72175000Y-125145000D01*
X74175000Y-121245000D02*
X74175000Y-125145000D01*
X72175000Y-121245000D02*
X74175000Y-121245000D01*
%TO.C,D0*%
X91433000Y-178568000D02*
X91433000Y-180568000D01*
X91433000Y-180568000D02*
X87533000Y-180568000D01*
X91433000Y-178568000D02*
X87533000Y-178568000D01*
%TO.C,C6*%
X161459267Y-185660000D02*
X161166733Y-185660000D01*
X161459267Y-186680000D02*
X161166733Y-186680000D01*
%TO.C,C4*%
X183772733Y-186574000D02*
X184065267Y-186574000D01*
X183772733Y-185554000D02*
X184065267Y-185554000D01*
%TO.C,C3*%
X183772733Y-190299000D02*
X184065267Y-190299000D01*
X183772733Y-189279000D02*
X184065267Y-189279000D01*
%TO.C,J1*%
D10*
X90458333Y-105652380D02*
X90458333Y-106366666D01*
X90505952Y-106509523D01*
X90601190Y-106604761D01*
X90744047Y-106652380D01*
X90839285Y-106652380D01*
X89458333Y-106652380D02*
X90029761Y-106652380D01*
X89744047Y-106652380D02*
X89744047Y-105652380D01*
X89839285Y-105795238D01*
X89934523Y-105890476D01*
X90029761Y-105938095D01*
%TO.C,U1*%
X173504904Y-183526380D02*
X173504904Y-184335904D01*
X173457285Y-184431142D01*
X173409666Y-184478761D01*
X173314428Y-184526380D01*
X173123952Y-184526380D01*
X173028714Y-184478761D01*
X172981095Y-184431142D01*
X172933476Y-184335904D01*
X172933476Y-183526380D01*
X171933476Y-184526380D02*
X172504904Y-184526380D01*
X172219190Y-184526380D02*
X172219190Y-183526380D01*
X172314428Y-183669238D01*
X172409666Y-183764476D01*
X172504904Y-183812095D01*
%TO.C,C5*%
X185742666Y-181425142D02*
X185790285Y-181472761D01*
X185933142Y-181520380D01*
X186028380Y-181520380D01*
X186171238Y-181472761D01*
X186266476Y-181377523D01*
X186314095Y-181282285D01*
X186361714Y-181091809D01*
X186361714Y-180948952D01*
X186314095Y-180758476D01*
X186266476Y-180663238D01*
X186171238Y-180568000D01*
X186028380Y-180520380D01*
X185933142Y-180520380D01*
X185790285Y-180568000D01*
X185742666Y-180615619D01*
X184837904Y-180520380D02*
X185314095Y-180520380D01*
X185361714Y-180996571D01*
X185314095Y-180948952D01*
X185218857Y-180901333D01*
X184980761Y-180901333D01*
X184885523Y-180948952D01*
X184837904Y-180996571D01*
X184790285Y-181091809D01*
X184790285Y-181329904D01*
X184837904Y-181425142D01*
X184885523Y-181472761D01*
X184980761Y-181520380D01*
X185218857Y-181520380D01*
X185314095Y-181472761D01*
X185361714Y-181425142D01*
X183488285Y-180520380D02*
X183393047Y-180520380D01*
X183297809Y-180568000D01*
X183250190Y-180615619D01*
X183202571Y-180710857D01*
X183154952Y-180901333D01*
X183154952Y-181139428D01*
X183202571Y-181329904D01*
X183250190Y-181425142D01*
X183297809Y-181472761D01*
X183393047Y-181520380D01*
X183488285Y-181520380D01*
X183583523Y-181472761D01*
X183631142Y-181425142D01*
X183678761Y-181329904D01*
X183726380Y-181139428D01*
X183726380Y-180901333D01*
X183678761Y-180710857D01*
X183631142Y-180615619D01*
X183583523Y-180568000D01*
X183488285Y-180520380D01*
X182726380Y-181425142D02*
X182678761Y-181472761D01*
X182726380Y-181520380D01*
X182774000Y-181472761D01*
X182726380Y-181425142D01*
X182726380Y-181520380D01*
X181726380Y-181520380D02*
X182297809Y-181520380D01*
X182012095Y-181520380D02*
X182012095Y-180520380D01*
X182107333Y-180663238D01*
X182202571Y-180758476D01*
X182297809Y-180806095D01*
X180869238Y-180853714D02*
X180869238Y-181520380D01*
X181297809Y-180853714D02*
X181297809Y-181377523D01*
X181250190Y-181472761D01*
X181154952Y-181520380D01*
X181012095Y-181520380D01*
X180916857Y-181472761D01*
X180869238Y-181425142D01*
%TO.C,R2*%
X162916666Y-189225380D02*
X163250000Y-188749190D01*
X163488095Y-189225380D02*
X163488095Y-188225380D01*
X163107142Y-188225380D01*
X163011904Y-188273000D01*
X162964285Y-188320619D01*
X162916666Y-188415857D01*
X162916666Y-188558714D01*
X162964285Y-188653952D01*
X163011904Y-188701571D01*
X163107142Y-188749190D01*
X163488095Y-188749190D01*
X162535714Y-188320619D02*
X162488095Y-188273000D01*
X162392857Y-188225380D01*
X162154761Y-188225380D01*
X162059523Y-188273000D01*
X162011904Y-188320619D01*
X161964285Y-188415857D01*
X161964285Y-188511095D01*
X162011904Y-188653952D01*
X162583333Y-189225380D01*
X161964285Y-189225380D01*
X160487738Y-189225380D02*
X161059166Y-189225380D01*
X160773452Y-189225380D02*
X160773452Y-188225380D01*
X160868690Y-188368238D01*
X160963928Y-188463476D01*
X161059166Y-188511095D01*
X159868690Y-188225380D02*
X159773452Y-188225380D01*
X159678214Y-188273000D01*
X159630595Y-188320619D01*
X159582976Y-188415857D01*
X159535357Y-188606333D01*
X159535357Y-188844428D01*
X159582976Y-189034904D01*
X159630595Y-189130142D01*
X159678214Y-189177761D01*
X159773452Y-189225380D01*
X159868690Y-189225380D01*
X159963928Y-189177761D01*
X160011547Y-189130142D01*
X160059166Y-189034904D01*
X160106785Y-188844428D01*
X160106785Y-188606333D01*
X160059166Y-188415857D01*
X160011547Y-188320619D01*
X159963928Y-188273000D01*
X159868690Y-188225380D01*
X159106785Y-189225380D02*
X159106785Y-188225380D01*
X159011547Y-188844428D02*
X158725833Y-189225380D01*
X158725833Y-188558714D02*
X159106785Y-188939666D01*
%TO.C,X1*%
X190570523Y-180732380D02*
X189903857Y-181732380D01*
X189903857Y-180732380D02*
X190570523Y-181732380D01*
X188999095Y-181732380D02*
X189570523Y-181732380D01*
X189284809Y-181732380D02*
X189284809Y-180732380D01*
X189380047Y-180875238D01*
X189475285Y-180970476D01*
X189570523Y-181018095D01*
%TO.C,C8*%
X162755666Y-177512142D02*
X162803285Y-177559761D01*
X162946142Y-177607380D01*
X163041380Y-177607380D01*
X163184238Y-177559761D01*
X163279476Y-177464523D01*
X163327095Y-177369285D01*
X163374714Y-177178809D01*
X163374714Y-177035952D01*
X163327095Y-176845476D01*
X163279476Y-176750238D01*
X163184238Y-176655000D01*
X163041380Y-176607380D01*
X162946142Y-176607380D01*
X162803285Y-176655000D01*
X162755666Y-176702619D01*
X162184238Y-177035952D02*
X162279476Y-176988333D01*
X162327095Y-176940714D01*
X162374714Y-176845476D01*
X162374714Y-176797857D01*
X162327095Y-176702619D01*
X162279476Y-176655000D01*
X162184238Y-176607380D01*
X161993761Y-176607380D01*
X161898523Y-176655000D01*
X161850904Y-176702619D01*
X161803285Y-176797857D01*
X161803285Y-176845476D01*
X161850904Y-176940714D01*
X161898523Y-176988333D01*
X161993761Y-177035952D01*
X162184238Y-177035952D01*
X162279476Y-177083571D01*
X162327095Y-177131190D01*
X162374714Y-177226428D01*
X162374714Y-177416904D01*
X162327095Y-177512142D01*
X162279476Y-177559761D01*
X162184238Y-177607380D01*
X161993761Y-177607380D01*
X161898523Y-177559761D01*
X161850904Y-177512142D01*
X161803285Y-177416904D01*
X161803285Y-177226428D01*
X161850904Y-177131190D01*
X161898523Y-177083571D01*
X161993761Y-177035952D01*
X160215666Y-177607380D02*
X160787095Y-177607380D01*
X160501380Y-177607380D02*
X160501380Y-176607380D01*
X160596619Y-176750238D01*
X160691857Y-176845476D01*
X160787095Y-176893095D01*
X159358523Y-176940714D02*
X159358523Y-177607380D01*
X159787095Y-176940714D02*
X159787095Y-177464523D01*
X159739476Y-177559761D01*
X159644238Y-177607380D01*
X159501380Y-177607380D01*
X159406142Y-177559761D01*
X159358523Y-177512142D01*
%TO.C,C7*%
X163257666Y-181385142D02*
X163305285Y-181432761D01*
X163448142Y-181480380D01*
X163543380Y-181480380D01*
X163686238Y-181432761D01*
X163781476Y-181337523D01*
X163829095Y-181242285D01*
X163876714Y-181051809D01*
X163876714Y-180908952D01*
X163829095Y-180718476D01*
X163781476Y-180623238D01*
X163686238Y-180528000D01*
X163543380Y-180480380D01*
X163448142Y-180480380D01*
X163305285Y-180528000D01*
X163257666Y-180575619D01*
X162924333Y-180480380D02*
X162257666Y-180480380D01*
X162686238Y-181480380D01*
X161273190Y-180813714D02*
X161273190Y-181480380D01*
X161511285Y-180432761D02*
X161749380Y-181147047D01*
X161130333Y-181147047D01*
X160749380Y-181385142D02*
X160701761Y-181432761D01*
X160749380Y-181480380D01*
X160797000Y-181432761D01*
X160749380Y-181385142D01*
X160749380Y-181480380D01*
X160368428Y-180480380D02*
X159701761Y-180480380D01*
X160130333Y-181480380D01*
X158892238Y-180813714D02*
X158892238Y-181480380D01*
X159320809Y-180813714D02*
X159320809Y-181337523D01*
X159273190Y-181432761D01*
X159177952Y-181480380D01*
X159035095Y-181480380D01*
X158939857Y-181432761D01*
X158892238Y-181385142D01*
%TO.C,C2*%
X191578666Y-186717142D02*
X191626285Y-186764761D01*
X191769142Y-186812380D01*
X191864380Y-186812380D01*
X192007238Y-186764761D01*
X192102476Y-186669523D01*
X192150095Y-186574285D01*
X192197714Y-186383809D01*
X192197714Y-186240952D01*
X192150095Y-186050476D01*
X192102476Y-185955238D01*
X192007238Y-185860000D01*
X191864380Y-185812380D01*
X191769142Y-185812380D01*
X191626285Y-185860000D01*
X191578666Y-185907619D01*
X191197714Y-185907619D02*
X191150095Y-185860000D01*
X191054857Y-185812380D01*
X190816761Y-185812380D01*
X190721523Y-185860000D01*
X190673904Y-185907619D01*
X190626285Y-186002857D01*
X190626285Y-186098095D01*
X190673904Y-186240952D01*
X191245333Y-186812380D01*
X190626285Y-186812380D01*
X189324285Y-185907619D02*
X189276666Y-185860000D01*
X189181428Y-185812380D01*
X188943333Y-185812380D01*
X188848095Y-185860000D01*
X188800476Y-185907619D01*
X188752857Y-186002857D01*
X188752857Y-186098095D01*
X188800476Y-186240952D01*
X189371904Y-186812380D01*
X188752857Y-186812380D01*
X188371904Y-185907619D02*
X188324285Y-185860000D01*
X188229047Y-185812380D01*
X187990952Y-185812380D01*
X187895714Y-185860000D01*
X187848095Y-185907619D01*
X187800476Y-186002857D01*
X187800476Y-186098095D01*
X187848095Y-186240952D01*
X188419523Y-186812380D01*
X187800476Y-186812380D01*
X187371904Y-186145714D02*
X187371904Y-187145714D01*
X187371904Y-186193333D02*
X187276666Y-186145714D01*
X187086190Y-186145714D01*
X186990952Y-186193333D01*
X186943333Y-186240952D01*
X186895714Y-186336190D01*
X186895714Y-186621904D01*
X186943333Y-186717142D01*
X186990952Y-186764761D01*
X187086190Y-186812380D01*
X187276666Y-186812380D01*
X187371904Y-186764761D01*
%TO.C,C1*%
X191578666Y-178716142D02*
X191626285Y-178763761D01*
X191769142Y-178811380D01*
X191864380Y-178811380D01*
X192007238Y-178763761D01*
X192102476Y-178668523D01*
X192150095Y-178573285D01*
X192197714Y-178382809D01*
X192197714Y-178239952D01*
X192150095Y-178049476D01*
X192102476Y-177954238D01*
X192007238Y-177859000D01*
X191864380Y-177811380D01*
X191769142Y-177811380D01*
X191626285Y-177859000D01*
X191578666Y-177906619D01*
X190626285Y-178811380D02*
X191197714Y-178811380D01*
X190912000Y-178811380D02*
X190912000Y-177811380D01*
X191007238Y-177954238D01*
X191102476Y-178049476D01*
X191197714Y-178097095D01*
X189324285Y-177906619D02*
X189276666Y-177859000D01*
X189181428Y-177811380D01*
X188943333Y-177811380D01*
X188848095Y-177859000D01*
X188800476Y-177906619D01*
X188752857Y-178001857D01*
X188752857Y-178097095D01*
X188800476Y-178239952D01*
X189371904Y-178811380D01*
X188752857Y-178811380D01*
X188371904Y-177906619D02*
X188324285Y-177859000D01*
X188229047Y-177811380D01*
X187990952Y-177811380D01*
X187895714Y-177859000D01*
X187848095Y-177906619D01*
X187800476Y-178001857D01*
X187800476Y-178097095D01*
X187848095Y-178239952D01*
X188419523Y-178811380D01*
X187800476Y-178811380D01*
X187371904Y-178144714D02*
X187371904Y-179144714D01*
X187371904Y-178192333D02*
X187276666Y-178144714D01*
X187086190Y-178144714D01*
X186990952Y-178192333D01*
X186943333Y-178239952D01*
X186895714Y-178335190D01*
X186895714Y-178620904D01*
X186943333Y-178716142D01*
X186990952Y-178763761D01*
X187086190Y-178811380D01*
X187276666Y-178811380D01*
X187371904Y-178763761D01*
%TO.C,RSW1*%
X103652380Y-146985714D02*
X103176190Y-146652380D01*
X103652380Y-146414285D02*
X102652380Y-146414285D01*
X102652380Y-146795238D01*
X102700000Y-146890476D01*
X102747619Y-146938095D01*
X102842857Y-146985714D01*
X102985714Y-146985714D01*
X103080952Y-146938095D01*
X103128571Y-146890476D01*
X103176190Y-146795238D01*
X103176190Y-146414285D01*
X103604761Y-147366666D02*
X103652380Y-147509523D01*
X103652380Y-147747619D01*
X103604761Y-147842857D01*
X103557142Y-147890476D01*
X103461904Y-147938095D01*
X103366666Y-147938095D01*
X103271428Y-147890476D01*
X103223809Y-147842857D01*
X103176190Y-147747619D01*
X103128571Y-147557142D01*
X103080952Y-147461904D01*
X103033333Y-147414285D01*
X102938095Y-147366666D01*
X102842857Y-147366666D01*
X102747619Y-147414285D01*
X102700000Y-147461904D01*
X102652380Y-147557142D01*
X102652380Y-147795238D01*
X102700000Y-147938095D01*
X102652380Y-148271428D02*
X103652380Y-148509523D01*
X102938095Y-148700000D01*
X103652380Y-148890476D01*
X102652380Y-149128571D01*
X103652380Y-150033333D02*
X103652380Y-149461904D01*
X103652380Y-149747619D02*
X102652380Y-149747619D01*
X102795238Y-149652380D01*
X102890476Y-149557142D01*
X102938095Y-149461904D01*
%TO.C,R4*%
X104462666Y-167320380D02*
X104796000Y-166844190D01*
X105034095Y-167320380D02*
X105034095Y-166320380D01*
X104653142Y-166320380D01*
X104557904Y-166368000D01*
X104510285Y-166415619D01*
X104462666Y-166510857D01*
X104462666Y-166653714D01*
X104510285Y-166748952D01*
X104557904Y-166796571D01*
X104653142Y-166844190D01*
X105034095Y-166844190D01*
X103605523Y-166653714D02*
X103605523Y-167320380D01*
X103843619Y-166272761D02*
X104081714Y-166987047D01*
X103462666Y-166987047D01*
X103025904Y-166415619D02*
X102978285Y-166368000D01*
X102883047Y-166320380D01*
X102644952Y-166320380D01*
X102549714Y-166368000D01*
X102502095Y-166415619D01*
X102454476Y-166510857D01*
X102454476Y-166606095D01*
X102502095Y-166748952D01*
X103073523Y-167320380D01*
X102454476Y-167320380D01*
X102073523Y-166415619D02*
X102025904Y-166368000D01*
X101930666Y-166320380D01*
X101692571Y-166320380D01*
X101597333Y-166368000D01*
X101549714Y-166415619D01*
X101502095Y-166510857D01*
X101502095Y-166606095D01*
X101549714Y-166748952D01*
X102121142Y-167320380D01*
X101502095Y-167320380D01*
%TO.C,R3*%
X104462666Y-164018380D02*
X104796000Y-163542190D01*
X105034095Y-164018380D02*
X105034095Y-163018380D01*
X104653142Y-163018380D01*
X104557904Y-163066000D01*
X104510285Y-163113619D01*
X104462666Y-163208857D01*
X104462666Y-163351714D01*
X104510285Y-163446952D01*
X104557904Y-163494571D01*
X104653142Y-163542190D01*
X105034095Y-163542190D01*
X104129333Y-163018380D02*
X103510285Y-163018380D01*
X103843619Y-163399333D01*
X103700761Y-163399333D01*
X103605523Y-163446952D01*
X103557904Y-163494571D01*
X103510285Y-163589809D01*
X103510285Y-163827904D01*
X103557904Y-163923142D01*
X103605523Y-163970761D01*
X103700761Y-164018380D01*
X103986476Y-164018380D01*
X104081714Y-163970761D01*
X104129333Y-163923142D01*
X103025904Y-163113619D02*
X102978285Y-163066000D01*
X102883047Y-163018380D01*
X102644952Y-163018380D01*
X102549714Y-163066000D01*
X102502095Y-163113619D01*
X102454476Y-163208857D01*
X102454476Y-163304095D01*
X102502095Y-163446952D01*
X103073523Y-164018380D01*
X102454476Y-164018380D01*
X102073523Y-163113619D02*
X102025904Y-163066000D01*
X101930666Y-163018380D01*
X101692571Y-163018380D01*
X101597333Y-163066000D01*
X101549714Y-163113619D01*
X101502095Y-163208857D01*
X101502095Y-163304095D01*
X101549714Y-163446952D01*
X102121142Y-164018380D01*
X101502095Y-164018380D01*
%TO.C,R1*%
X185736666Y-177795380D02*
X186070000Y-177319190D01*
X186308095Y-177795380D02*
X186308095Y-176795380D01*
X185927142Y-176795380D01*
X185831904Y-176843000D01*
X185784285Y-176890619D01*
X185736666Y-176985857D01*
X185736666Y-177128714D01*
X185784285Y-177223952D01*
X185831904Y-177271571D01*
X185927142Y-177319190D01*
X186308095Y-177319190D01*
X184784285Y-177795380D02*
X185355714Y-177795380D01*
X185070000Y-177795380D02*
X185070000Y-176795380D01*
X185165238Y-176938238D01*
X185260476Y-177033476D01*
X185355714Y-177081095D01*
X182863238Y-177795380D02*
X183434666Y-177795380D01*
X183148952Y-177795380D02*
X183148952Y-176795380D01*
X183244190Y-176938238D01*
X183339428Y-177033476D01*
X183434666Y-177081095D01*
X182244190Y-176795380D02*
X182148952Y-176795380D01*
X182053714Y-176843000D01*
X182006095Y-176890619D01*
X181958476Y-176985857D01*
X181910857Y-177176333D01*
X181910857Y-177414428D01*
X181958476Y-177604904D01*
X182006095Y-177700142D01*
X182053714Y-177747761D01*
X182148952Y-177795380D01*
X182244190Y-177795380D01*
X182339428Y-177747761D01*
X182387047Y-177700142D01*
X182434666Y-177604904D01*
X182482285Y-177414428D01*
X182482285Y-177176333D01*
X182434666Y-176985857D01*
X182387047Y-176890619D01*
X182339428Y-176843000D01*
X182244190Y-176795380D01*
X181482285Y-177795380D02*
X181482285Y-176795380D01*
X181387047Y-177414428D02*
X181101333Y-177795380D01*
X181101333Y-177128714D02*
X181482285Y-177509666D01*
%TO.C,J2*%
X226430190Y-180274480D02*
X226430190Y-179274480D01*
X226001619Y-180226861D02*
X225858761Y-180274480D01*
X225620666Y-180274480D01*
X225525428Y-180226861D01*
X225477809Y-180179242D01*
X225430190Y-180084004D01*
X225430190Y-179988766D01*
X225477809Y-179893528D01*
X225525428Y-179845909D01*
X225620666Y-179798290D01*
X225811142Y-179750671D01*
X225906380Y-179703052D01*
X225954000Y-179655433D01*
X226001619Y-179560195D01*
X226001619Y-179464957D01*
X225954000Y-179369719D01*
X225906380Y-179322100D01*
X225811142Y-179274480D01*
X225573047Y-179274480D01*
X225430190Y-179322100D01*
X225001619Y-180274480D02*
X225001619Y-179274480D01*
X224620666Y-179274480D01*
X224525428Y-179322100D01*
X224477809Y-179369719D01*
X224430190Y-179464957D01*
X224430190Y-179607814D01*
X224477809Y-179703052D01*
X224525428Y-179750671D01*
X224620666Y-179798290D01*
X225001619Y-179798290D01*
%TO.C,F1*%
X83166333Y-177845571D02*
X83499666Y-177845571D01*
X83499666Y-178369380D02*
X83499666Y-177369380D01*
X83023476Y-177369380D01*
X82118714Y-178369380D02*
X82690142Y-178369380D01*
X82404428Y-178369380D02*
X82404428Y-177369380D01*
X82499666Y-177512238D01*
X82594904Y-177607476D01*
X82690142Y-177655095D01*
%TO.C,D0*%
X89858095Y-178369380D02*
X89858095Y-177369380D01*
X89620000Y-177369380D01*
X89477142Y-177417000D01*
X89381904Y-177512238D01*
X89334285Y-177607476D01*
X89286666Y-177797952D01*
X89286666Y-177940809D01*
X89334285Y-178131285D01*
X89381904Y-178226523D01*
X89477142Y-178321761D01*
X89620000Y-178369380D01*
X89858095Y-178369380D01*
X88667619Y-177369380D02*
X88572380Y-177369380D01*
X88477142Y-177417000D01*
X88429523Y-177464619D01*
X88381904Y-177559857D01*
X88334285Y-177750333D01*
X88334285Y-177988428D01*
X88381904Y-178178904D01*
X88429523Y-178274142D01*
X88477142Y-178321761D01*
X88572380Y-178369380D01*
X88667619Y-178369380D01*
X88762857Y-178321761D01*
X88810476Y-178274142D01*
X88858095Y-178178904D01*
X88905714Y-177988428D01*
X88905714Y-177750333D01*
X88858095Y-177559857D01*
X88810476Y-177464619D01*
X88762857Y-177417000D01*
X88667619Y-177369380D01*
%TO.C,C6*%
X163130666Y-185320642D02*
X163178285Y-185368261D01*
X163321142Y-185415880D01*
X163416380Y-185415880D01*
X163559238Y-185368261D01*
X163654476Y-185273023D01*
X163702095Y-185177785D01*
X163749714Y-184987309D01*
X163749714Y-184844452D01*
X163702095Y-184653976D01*
X163654476Y-184558738D01*
X163559238Y-184463500D01*
X163416380Y-184415880D01*
X163321142Y-184415880D01*
X163178285Y-184463500D01*
X163130666Y-184511119D01*
X162273523Y-184415880D02*
X162464000Y-184415880D01*
X162559238Y-184463500D01*
X162606857Y-184511119D01*
X162702095Y-184653976D01*
X162749714Y-184844452D01*
X162749714Y-185225404D01*
X162702095Y-185320642D01*
X162654476Y-185368261D01*
X162559238Y-185415880D01*
X162368761Y-185415880D01*
X162273523Y-185368261D01*
X162225904Y-185320642D01*
X162178285Y-185225404D01*
X162178285Y-184987309D01*
X162225904Y-184892071D01*
X162273523Y-184844452D01*
X162368761Y-184796833D01*
X162559238Y-184796833D01*
X162654476Y-184844452D01*
X162702095Y-184892071D01*
X162749714Y-184987309D01*
X161130285Y-184415880D02*
X161035047Y-184415880D01*
X160939809Y-184463500D01*
X160892190Y-184511119D01*
X160844571Y-184606357D01*
X160796952Y-184796833D01*
X160796952Y-185034928D01*
X160844571Y-185225404D01*
X160892190Y-185320642D01*
X160939809Y-185368261D01*
X161035047Y-185415880D01*
X161130285Y-185415880D01*
X161225523Y-185368261D01*
X161273142Y-185320642D01*
X161320761Y-185225404D01*
X161368380Y-185034928D01*
X161368380Y-184796833D01*
X161320761Y-184606357D01*
X161273142Y-184511119D01*
X161225523Y-184463500D01*
X161130285Y-184415880D01*
X160368380Y-185320642D02*
X160320761Y-185368261D01*
X160368380Y-185415880D01*
X160416000Y-185368261D01*
X160368380Y-185320642D01*
X160368380Y-185415880D01*
X159368380Y-185415880D02*
X159939809Y-185415880D01*
X159654095Y-185415880D02*
X159654095Y-184415880D01*
X159749333Y-184558738D01*
X159844571Y-184653976D01*
X159939809Y-184701595D01*
X158511238Y-184749214D02*
X158511238Y-185415880D01*
X158939809Y-184749214D02*
X158939809Y-185273023D01*
X158892190Y-185368261D01*
X158796952Y-185415880D01*
X158654095Y-185415880D01*
X158558857Y-185368261D01*
X158511238Y-185320642D01*
%TO.C,C4*%
X185736666Y-185151142D02*
X185784285Y-185198761D01*
X185927142Y-185246380D01*
X186022380Y-185246380D01*
X186165238Y-185198761D01*
X186260476Y-185103523D01*
X186308095Y-185008285D01*
X186355714Y-184817809D01*
X186355714Y-184674952D01*
X186308095Y-184484476D01*
X186260476Y-184389238D01*
X186165238Y-184294000D01*
X186022380Y-184246380D01*
X185927142Y-184246380D01*
X185784285Y-184294000D01*
X185736666Y-184341619D01*
X184879523Y-184579714D02*
X184879523Y-185246380D01*
X185117619Y-184198761D02*
X185355714Y-184913047D01*
X184736666Y-184913047D01*
X183736285Y-184246380D02*
X183641047Y-184246380D01*
X183545809Y-184294000D01*
X183498190Y-184341619D01*
X183450571Y-184436857D01*
X183402952Y-184627333D01*
X183402952Y-184865428D01*
X183450571Y-185055904D01*
X183498190Y-185151142D01*
X183545809Y-185198761D01*
X183641047Y-185246380D01*
X183736285Y-185246380D01*
X183831523Y-185198761D01*
X183879142Y-185151142D01*
X183926761Y-185055904D01*
X183974380Y-184865428D01*
X183974380Y-184627333D01*
X183926761Y-184436857D01*
X183879142Y-184341619D01*
X183831523Y-184294000D01*
X183736285Y-184246380D01*
X182974380Y-185151142D02*
X182926761Y-185198761D01*
X182974380Y-185246380D01*
X183022000Y-185198761D01*
X182974380Y-185151142D01*
X182974380Y-185246380D01*
X181974380Y-185246380D02*
X182545809Y-185246380D01*
X182260095Y-185246380D02*
X182260095Y-184246380D01*
X182355333Y-184389238D01*
X182450571Y-184484476D01*
X182545809Y-184532095D01*
X181117238Y-184579714D02*
X181117238Y-185246380D01*
X181545809Y-184579714D02*
X181545809Y-185103523D01*
X181498190Y-185198761D01*
X181402952Y-185246380D01*
X181260095Y-185246380D01*
X181164857Y-185198761D01*
X181117238Y-185151142D01*
%TO.C,C3*%
X185736666Y-188876142D02*
X185784285Y-188923761D01*
X185927142Y-188971380D01*
X186022380Y-188971380D01*
X186165238Y-188923761D01*
X186260476Y-188828523D01*
X186308095Y-188733285D01*
X186355714Y-188542809D01*
X186355714Y-188399952D01*
X186308095Y-188209476D01*
X186260476Y-188114238D01*
X186165238Y-188019000D01*
X186022380Y-187971380D01*
X185927142Y-187971380D01*
X185784285Y-188019000D01*
X185736666Y-188066619D01*
X185403333Y-187971380D02*
X184784285Y-187971380D01*
X185117619Y-188352333D01*
X184974761Y-188352333D01*
X184879523Y-188399952D01*
X184831904Y-188447571D01*
X184784285Y-188542809D01*
X184784285Y-188780904D01*
X184831904Y-188876142D01*
X184879523Y-188923761D01*
X184974761Y-188971380D01*
X185260476Y-188971380D01*
X185355714Y-188923761D01*
X185403333Y-188876142D01*
X183736285Y-187971380D02*
X183641047Y-187971380D01*
X183545809Y-188019000D01*
X183498190Y-188066619D01*
X183450571Y-188161857D01*
X183402952Y-188352333D01*
X183402952Y-188590428D01*
X183450571Y-188780904D01*
X183498190Y-188876142D01*
X183545809Y-188923761D01*
X183641047Y-188971380D01*
X183736285Y-188971380D01*
X183831523Y-188923761D01*
X183879142Y-188876142D01*
X183926761Y-188780904D01*
X183974380Y-188590428D01*
X183974380Y-188352333D01*
X183926761Y-188161857D01*
X183879142Y-188066619D01*
X183831523Y-188019000D01*
X183736285Y-187971380D01*
X182974380Y-188876142D02*
X182926761Y-188923761D01*
X182974380Y-188971380D01*
X183022000Y-188923761D01*
X182974380Y-188876142D01*
X182974380Y-188971380D01*
X181974380Y-188971380D02*
X182545809Y-188971380D01*
X182260095Y-188971380D02*
X182260095Y-187971380D01*
X182355333Y-188114238D01*
X182450571Y-188209476D01*
X182545809Y-188257095D01*
X181117238Y-188304714D02*
X181117238Y-188971380D01*
X181545809Y-188304714D02*
X181545809Y-188828523D01*
X181498190Y-188923761D01*
X181402952Y-188971380D01*
X181260095Y-188971380D01*
X181164857Y-188923761D01*
X181117238Y-188876142D01*
%TD*%
M02*
