%TF.GenerationSoftware,KiCad,Pcbnew,(5.1.9)-1*%
%TF.CreationDate,2021-04-22T03:27:36+09:00*%
%TF.ProjectId,yuiop60hh4,7975696f-7036-4306-9868-342e6b696361,4*%
%TF.SameCoordinates,Original*%
%TF.FileFunction,Soldermask,Top*%
%TF.FilePolarity,Negative*%
%FSLAX46Y46*%
G04 Gerber Fmt 4.6, Leading zero omitted, Abs format (unit mm)*
G04 Created by KiCad (PCBNEW (5.1.9)-1) date 2021-04-22 03:27:36*
%MOMM*%
%LPD*%
G01*
G04 APERTURE LIST*
%ADD10O,1.350000X1.700000*%
%ADD11O,1.100000X1.500000*%
%ADD12C,1.900000*%
%ADD13C,4.100000*%
%ADD14C,3.000000*%
%ADD15C,4.000000*%
%ADD16O,7.000000X2.500000*%
%ADD17C,5.000000*%
%ADD18C,6.000000*%
%ADD19C,3.048000*%
%ADD20C,3.987800*%
%ADD21R,1.700000X1.700000*%
%ADD22O,1.700000X1.700000*%
G04 APERTURE END LIST*
D10*
%TO.C,J1*%
X90905000Y-101720000D03*
X85445000Y-101720000D03*
D11*
X90595000Y-104720000D03*
X85755000Y-104720000D03*
%TD*%
D12*
%TO.C,KSW60*%
X293145000Y-185410000D03*
X303305000Y-185410000D03*
D13*
X298225000Y-185410000D03*
D14*
X300765000Y-180330000D03*
X294415000Y-182870000D03*
%TD*%
D12*
%TO.C,KSW59*%
X269333000Y-185410000D03*
X279493000Y-185410000D03*
D13*
X274413000Y-185410000D03*
D14*
X276953000Y-180330000D03*
X270603000Y-182870000D03*
%TD*%
D12*
%TO.C,KSW58*%
X197895000Y-185410000D03*
X208055000Y-185410000D03*
D13*
X202975000Y-185410000D03*
D14*
X205515000Y-180330000D03*
X199165000Y-182870000D03*
%TD*%
D12*
%TO.C,KSW57*%
X126457000Y-185410000D03*
X136617000Y-185410000D03*
D13*
X131537000Y-185410000D03*
D14*
X134077000Y-180330000D03*
X127727000Y-182870000D03*
%TD*%
D12*
%TO.C,KSW56*%
X102645000Y-185410000D03*
X112805000Y-185410000D03*
D13*
X107725000Y-185410000D03*
D14*
X110265000Y-180330000D03*
X103915000Y-182870000D03*
%TD*%
D12*
%TO.C,KSW55*%
X350930000Y-166360000D03*
X340770000Y-166360000D03*
D13*
X345850000Y-166360000D03*
D14*
X343310000Y-171440000D03*
X349660000Y-168900000D03*
%TD*%
D12*
%TO.C,KSW54*%
X324736000Y-166360000D03*
X314576000Y-166360000D03*
D13*
X319656000Y-166360000D03*
D14*
X317116000Y-171440000D03*
X323466000Y-168900000D03*
%TD*%
D12*
%TO.C,KSW53*%
X298543000Y-166360000D03*
X288383000Y-166360000D03*
D13*
X293463000Y-166360000D03*
D14*
X290923000Y-171440000D03*
X297273000Y-168900000D03*
%TD*%
D12*
%TO.C,KSW52*%
X279493000Y-166360000D03*
X269333000Y-166360000D03*
D13*
X274413000Y-166360000D03*
D14*
X271873000Y-171440000D03*
X278223000Y-168900000D03*
%TD*%
D12*
%TO.C,KSW51*%
X260443000Y-166360000D03*
X250283000Y-166360000D03*
D13*
X255363000Y-166360000D03*
D14*
X252823000Y-171440000D03*
X259173000Y-168900000D03*
%TD*%
D12*
%TO.C,KSW50*%
X241393000Y-166360000D03*
X231233000Y-166360000D03*
D13*
X236313000Y-166360000D03*
D14*
X233773000Y-171440000D03*
X240123000Y-168900000D03*
%TD*%
D12*
%TO.C,KSW49*%
X222343000Y-166360000D03*
X212183000Y-166360000D03*
D13*
X217263000Y-166360000D03*
D14*
X214723000Y-171440000D03*
X221073000Y-168900000D03*
%TD*%
D12*
%TO.C,KSW48*%
X193133000Y-166360000D03*
X203293000Y-166360000D03*
D13*
X198213000Y-166360000D03*
D14*
X200753000Y-161280000D03*
X194403000Y-163820000D03*
%TD*%
D12*
%TO.C,KSW47*%
X184243000Y-166360000D03*
X174083000Y-166360000D03*
D13*
X179163000Y-166360000D03*
D14*
X176623000Y-171440000D03*
X182973000Y-168900000D03*
%TD*%
D12*
%TO.C,KSW46*%
X165193000Y-166360000D03*
X155033000Y-166360000D03*
D13*
X160113000Y-166360000D03*
D14*
X157573000Y-171440000D03*
X163923000Y-168900000D03*
%TD*%
D12*
%TO.C,KSW45*%
X146143000Y-166360000D03*
X135983000Y-166360000D03*
D13*
X141063000Y-166360000D03*
D14*
X138523000Y-171440000D03*
X144873000Y-168900000D03*
%TD*%
D12*
%TO.C,KSW44*%
X127093000Y-166360000D03*
X116933000Y-166360000D03*
D13*
X122013000Y-166360000D03*
D14*
X119473000Y-171440000D03*
X125823000Y-168900000D03*
%TD*%
D12*
%TO.C,KSW43*%
X96136200Y-166360000D03*
X85976200Y-166360000D03*
D13*
X91056200Y-166360000D03*
D14*
X88516200Y-171440000D03*
X94866200Y-168900000D03*
%TD*%
D12*
%TO.C,KSW42*%
X339024000Y-147310000D03*
X328864000Y-147310000D03*
D13*
X333944000Y-147310000D03*
D14*
X331404000Y-152390000D03*
X337754000Y-149850000D03*
%TD*%
D12*
%TO.C,KSW41*%
X308067000Y-147310000D03*
X297907000Y-147310000D03*
D13*
X302987000Y-147310000D03*
D14*
X300447000Y-152390000D03*
X306797000Y-149850000D03*
%TD*%
D12*
%TO.C,KSW40*%
X289017000Y-147310000D03*
X278857000Y-147310000D03*
D13*
X283937000Y-147310000D03*
D14*
X281397000Y-152390000D03*
X287747000Y-149850000D03*
%TD*%
D12*
%TO.C,KSW39*%
X269967000Y-147310000D03*
X259807000Y-147310000D03*
D13*
X264887000Y-147310000D03*
D14*
X262347000Y-152390000D03*
X268697000Y-149850000D03*
%TD*%
D12*
%TO.C,KSW38*%
X250917000Y-147310000D03*
X240757000Y-147310000D03*
D13*
X245837000Y-147310000D03*
D14*
X243297000Y-152390000D03*
X249647000Y-149850000D03*
%TD*%
D12*
%TO.C,KSW37*%
X231867000Y-147310000D03*
X221707000Y-147310000D03*
D13*
X226787000Y-147310000D03*
D14*
X224247000Y-152390000D03*
X230597000Y-149850000D03*
%TD*%
D12*
%TO.C,KSW36*%
X212817000Y-147310000D03*
X202657000Y-147310000D03*
D13*
X207737000Y-147310000D03*
D14*
X205197000Y-152390000D03*
X211547000Y-149850000D03*
%TD*%
D12*
%TO.C,KSW35*%
X183607000Y-147310000D03*
X193767000Y-147310000D03*
D13*
X188687000Y-147310000D03*
D14*
X191227000Y-142230000D03*
X184877000Y-144770000D03*
%TD*%
D12*
%TO.C,KSW34*%
X174717000Y-147310000D03*
X164557000Y-147310000D03*
D13*
X169637000Y-147310000D03*
D14*
X167097000Y-152390000D03*
X173447000Y-149850000D03*
%TD*%
D12*
%TO.C,KSW33*%
X155667000Y-147310000D03*
X145507000Y-147310000D03*
D13*
X150587000Y-147310000D03*
D14*
X148047000Y-152390000D03*
X154397000Y-149850000D03*
%TD*%
D12*
%TO.C,KSW32*%
X136617000Y-147310000D03*
X126457000Y-147310000D03*
D13*
X131537000Y-147310000D03*
D14*
X128997000Y-152390000D03*
X135347000Y-149850000D03*
%TD*%
D12*
%TO.C,KSW31*%
X117567000Y-147310000D03*
X107407000Y-147310000D03*
D13*
X112487000Y-147310000D03*
D14*
X109947000Y-152390000D03*
X116297000Y-149850000D03*
%TD*%
D12*
%TO.C,KSW30*%
X91373800Y-147310000D03*
X81213800Y-147310000D03*
D13*
X86293800Y-147310000D03*
D14*
X83753800Y-152390000D03*
X90103800Y-149850000D03*
%TD*%
D12*
%TO.C,KSW29*%
X346167000Y-128260000D03*
X336007000Y-128260000D03*
D13*
X341087000Y-128260000D03*
D14*
X338547000Y-133340000D03*
X344897000Y-130800000D03*
%TD*%
D12*
%TO.C,KSW28*%
X322355000Y-128260000D03*
X312195000Y-128260000D03*
D13*
X317275000Y-128260000D03*
D14*
X314735000Y-133340000D03*
X321085000Y-130800000D03*
%TD*%
D12*
%TO.C,KSW27*%
X303305000Y-128260000D03*
X293145000Y-128260000D03*
D13*
X298225000Y-128260000D03*
D14*
X295685000Y-133340000D03*
X302035000Y-130800000D03*
%TD*%
D12*
%TO.C,KSW26*%
X284255000Y-128260000D03*
X274095000Y-128260000D03*
D13*
X279175000Y-128260000D03*
D14*
X276635000Y-133340000D03*
X282985000Y-130800000D03*
%TD*%
D12*
%TO.C,KSW25*%
X265205000Y-128260000D03*
X255045000Y-128260000D03*
D13*
X260125000Y-128260000D03*
D14*
X257585000Y-133340000D03*
X263935000Y-130800000D03*
%TD*%
D12*
%TO.C,KSW24*%
X246155000Y-128260000D03*
X235995000Y-128260000D03*
D13*
X241075000Y-128260000D03*
D14*
X238535000Y-133340000D03*
X244885000Y-130800000D03*
%TD*%
D12*
%TO.C,KSW23*%
X227105000Y-128260000D03*
X216945000Y-128260000D03*
D13*
X222025000Y-128260000D03*
D14*
X219485000Y-133340000D03*
X225835000Y-130800000D03*
%TD*%
D12*
%TO.C,KSW22*%
X208055000Y-128260000D03*
X197895000Y-128260000D03*
D13*
X202975000Y-128260000D03*
D14*
X200435000Y-133340000D03*
X206785000Y-130800000D03*
%TD*%
D12*
%TO.C,KSW21*%
X189005000Y-128260000D03*
X178845000Y-128260000D03*
D13*
X183925000Y-128260000D03*
D14*
X181385000Y-133340000D03*
X187735000Y-130800000D03*
%TD*%
D12*
%TO.C,KSW20*%
X169955000Y-128260000D03*
X159795000Y-128260000D03*
D13*
X164875000Y-128260000D03*
D14*
X162335000Y-133340000D03*
X168685000Y-130800000D03*
%TD*%
D12*
%TO.C,KSW19*%
X150905000Y-128260000D03*
X140745000Y-128260000D03*
D13*
X145825000Y-128260000D03*
D14*
X143285000Y-133340000D03*
X149635000Y-130800000D03*
%TD*%
D12*
%TO.C,KSW18*%
X131855000Y-128260000D03*
X121695000Y-128260000D03*
D13*
X126775000Y-128260000D03*
D14*
X124235000Y-133340000D03*
X130585000Y-130800000D03*
%TD*%
D12*
%TO.C,KSW17*%
X112805000Y-128260000D03*
X102645000Y-128260000D03*
D13*
X107725000Y-128260000D03*
D14*
X105185000Y-133340000D03*
X111535000Y-130800000D03*
%TD*%
D12*
%TO.C,KSW16*%
X88992500Y-128260000D03*
X78832500Y-128260000D03*
D13*
X83912500Y-128260000D03*
D14*
X81372500Y-133340000D03*
X87722500Y-130800000D03*
%TD*%
D12*
%TO.C,KSW15*%
X350930000Y-109210000D03*
X340770000Y-109210000D03*
D13*
X345850000Y-109210000D03*
D14*
X343310000Y-114290000D03*
X349660000Y-111750000D03*
%TD*%
D12*
%TO.C,KSW14*%
X331880000Y-109210000D03*
X321720000Y-109210000D03*
D13*
X326800000Y-109210000D03*
D14*
X324260000Y-114290000D03*
X330610000Y-111750000D03*
%TD*%
D12*
%TO.C,KSW13*%
X302670000Y-109210000D03*
X312830000Y-109210000D03*
D13*
X307750000Y-109210000D03*
D14*
X310290000Y-104130000D03*
X303940000Y-106670000D03*
%TD*%
D12*
%TO.C,KSW12*%
X293780000Y-109210000D03*
X283620000Y-109210000D03*
D13*
X288700000Y-109210000D03*
D14*
X286160000Y-114290000D03*
X292510000Y-111750000D03*
%TD*%
D12*
%TO.C,KSW11*%
X274730000Y-109210000D03*
X264570000Y-109210000D03*
D13*
X269650000Y-109210000D03*
D14*
X267110000Y-114290000D03*
X273460000Y-111750000D03*
%TD*%
D12*
%TO.C,KSW10*%
X255680000Y-109210000D03*
X245520000Y-109210000D03*
D13*
X250600000Y-109210000D03*
D14*
X248060000Y-114290000D03*
X254410000Y-111750000D03*
%TD*%
D12*
%TO.C,KSW9*%
X236630000Y-109210000D03*
X226470000Y-109210000D03*
D13*
X231550000Y-109210000D03*
D14*
X229010000Y-114290000D03*
X235360000Y-111750000D03*
%TD*%
D12*
%TO.C,KSW8*%
X207420000Y-109210000D03*
X217580000Y-109210000D03*
D13*
X212500000Y-109210000D03*
D14*
X215040000Y-104130000D03*
X208690000Y-106670000D03*
%TD*%
D12*
%TO.C,KSW7*%
X198530000Y-109210000D03*
X188370000Y-109210000D03*
D13*
X193450000Y-109210000D03*
D14*
X190910000Y-114290000D03*
X197260000Y-111750000D03*
%TD*%
D12*
%TO.C,KSW6*%
X179480000Y-109210000D03*
X169320000Y-109210000D03*
D13*
X174400000Y-109210000D03*
D14*
X171860000Y-114290000D03*
X178210000Y-111750000D03*
%TD*%
D12*
%TO.C,KSW5*%
X160430000Y-109210000D03*
X150270000Y-109210000D03*
D13*
X155350000Y-109210000D03*
D14*
X152810000Y-114290000D03*
X159160000Y-111750000D03*
%TD*%
D12*
%TO.C,KSW4*%
X141380000Y-109210000D03*
X131220000Y-109210000D03*
D13*
X136300000Y-109210000D03*
D14*
X133760000Y-114290000D03*
X140110000Y-111750000D03*
%TD*%
D12*
%TO.C,KSW3*%
X112170000Y-109210000D03*
X122330000Y-109210000D03*
D13*
X117250000Y-109210000D03*
D14*
X119790000Y-104130000D03*
X113440000Y-106670000D03*
%TD*%
D12*
%TO.C,KSW2*%
X103280000Y-109210000D03*
X93120000Y-109210000D03*
D13*
X98200000Y-109210000D03*
D14*
X95660000Y-114290000D03*
X102010000Y-111750000D03*
%TD*%
D12*
%TO.C,KSW1*%
X84230000Y-109210000D03*
X74070000Y-109210000D03*
D13*
X79150000Y-109210000D03*
D14*
X76610000Y-114290000D03*
X82960000Y-111750000D03*
%TD*%
D15*
%TO.C,HOLE12*%
X207738000Y-170300000D03*
%TD*%
%TO.C,HOLE11*%
X222025000Y-113400000D03*
%TD*%
%TO.C,HOLE10*%
X332650000Y-170300000D03*
%TD*%
%TO.C,HOLE9*%
X317275000Y-113400000D03*
%TD*%
%TO.C,HOLE8*%
X110000000Y-170300000D03*
%TD*%
%TO.C,HOLE7*%
X126775000Y-113400000D03*
%TD*%
D16*
%TO.C,HOLE6*%
X353540000Y-156500000D03*
%TD*%
%TO.C,HOLE5*%
X71460000Y-156500000D03*
%TD*%
D17*
%TO.C,HOLE4*%
X260500000Y-185200000D03*
%TD*%
D15*
%TO.C,HOLE3*%
X198200000Y-147000000D03*
%TD*%
D18*
%TO.C,HOLE2*%
X330050000Y-127910000D03*
%TD*%
%TO.C,HOLE1*%
X95200000Y-127900000D03*
%TD*%
D19*
%TO.C,STB2*%
X155412000Y-192395000D03*
D20*
X155412000Y-177155000D03*
X250538000Y-177155000D03*
D19*
X250538000Y-192395000D03*
%TD*%
%TO.C,STB3*%
X322006000Y-154295000D03*
D20*
X322006000Y-139055000D03*
X345882000Y-139055000D03*
D19*
X345882000Y-154295000D03*
%TD*%
%TO.C,STB1*%
X79117700Y-173345000D03*
D20*
X79117700Y-158105000D03*
X102993700Y-158105000D03*
D19*
X102993700Y-173345000D03*
%TD*%
D21*
%TO.C,J2*%
X226701000Y-182140000D03*
D22*
X224161000Y-182140000D03*
X226701000Y-184680000D03*
X224161000Y-184680000D03*
X226701000Y-187220000D03*
X224161000Y-187220000D03*
%TD*%
M02*
