%TF.GenerationSoftware,KiCad,Pcbnew,(5.1.9)-1*%
%TF.CreationDate,2021-02-13T13:30:33+09:00*%
%TF.ProjectId,yuiop22rs,7975696f-7032-4327-9273-2e6b69636164,1*%
%TF.SameCoordinates,Original*%
%TF.FileFunction,Soldermask,Top*%
%TF.FilePolarity,Negative*%
%FSLAX46Y46*%
G04 Gerber Fmt 4.6, Leading zero omitted, Abs format (unit mm)*
G04 Created by KiCad (PCBNEW (5.1.9)-1) date 2021-02-13 13:30:33*
%MOMM*%
%LPD*%
G01*
G04 APERTURE LIST*
%ADD10C,1.200000*%
%ADD11C,4.100000*%
%ADD12C,1.900000*%
G04 APERTURE END LIST*
D10*
%TO.C,J1*%
X103750000Y-51500000D03*
X103750000Y-58500000D03*
%TD*%
D11*
%TO.C,SW1*%
X116675000Y-59525000D03*
D12*
X111595000Y-59525000D03*
X121755000Y-59525000D03*
%TD*%
%TO.C,SW2*%
X140805000Y-59525000D03*
X130645000Y-59525000D03*
D11*
X135725000Y-59525000D03*
%TD*%
%TO.C,SW3*%
X59525000Y-78575000D03*
D12*
X54445000Y-78575000D03*
X64605000Y-78575000D03*
%TD*%
%TO.C,SW4*%
X83655000Y-78575000D03*
X73495000Y-78575000D03*
D11*
X78575000Y-78575000D03*
%TD*%
D12*
%TO.C,SW5*%
X102705000Y-78575000D03*
X92545000Y-78575000D03*
D11*
X97625000Y-78575000D03*
%TD*%
%TO.C,SW6*%
X116675000Y-78575000D03*
D12*
X111595000Y-78575000D03*
X121755000Y-78575000D03*
%TD*%
%TO.C,SW7*%
X140805000Y-78575000D03*
X130645000Y-78575000D03*
D11*
X135725000Y-78575000D03*
%TD*%
%TO.C,SW8*%
X59525000Y-97625000D03*
D12*
X54445000Y-97625000D03*
X64605000Y-97625000D03*
%TD*%
%TO.C,SW9*%
X83655000Y-97625000D03*
X73495000Y-97625000D03*
D11*
X78575000Y-97625000D03*
%TD*%
D12*
%TO.C,SW10*%
X102705000Y-97625000D03*
X92545000Y-97625000D03*
D11*
X97625000Y-97625000D03*
%TD*%
%TO.C,SW11*%
X116675000Y-97625000D03*
D12*
X111595000Y-97625000D03*
X121755000Y-97625000D03*
%TD*%
D11*
%TO.C,SW12*%
X135725000Y-97625000D03*
D12*
X130645000Y-97625000D03*
X140805000Y-97625000D03*
%TD*%
%TO.C,SW13*%
X64605000Y-116675000D03*
X54445000Y-116675000D03*
D11*
X59525000Y-116675000D03*
%TD*%
D12*
%TO.C,SW14*%
X83655000Y-116675000D03*
X73495000Y-116675000D03*
D11*
X78575000Y-116675000D03*
%TD*%
%TO.C,SW15*%
X97625000Y-116675000D03*
D12*
X92545000Y-116675000D03*
X102705000Y-116675000D03*
%TD*%
D11*
%TO.C,SW16*%
X116675000Y-116675000D03*
D12*
X111595000Y-116675000D03*
X121755000Y-116675000D03*
%TD*%
%TO.C,SW17*%
X140805000Y-116675000D03*
X130645000Y-116675000D03*
D11*
X135725000Y-116675000D03*
%TD*%
%TO.C,SW18*%
X59525000Y-135725000D03*
D12*
X54445000Y-135725000D03*
X64605000Y-135725000D03*
%TD*%
%TO.C,SW19*%
X83655000Y-135725000D03*
X73495000Y-135725000D03*
D11*
X78575000Y-135725000D03*
%TD*%
%TO.C,SW20*%
X97625000Y-135725000D03*
D12*
X92545000Y-135725000D03*
X102705000Y-135725000D03*
%TD*%
%TO.C,SW21*%
X121755000Y-135725000D03*
X111595000Y-135725000D03*
D11*
X116675000Y-135725000D03*
%TD*%
%TO.C,SW22*%
X135725000Y-135725000D03*
D12*
X130645000Y-135725000D03*
X140805000Y-135725000D03*
%TD*%
M02*
