M48
; DRILL file {KiCad (5.1.9)-1} date 02/13/21 13:30:36
; FORMAT={-:-/ absolute / metric / decimal}
; #@! TF.CreationDate,2021-02-13T13:30:36+09:00
; #@! TF.GenerationSoftware,Kicad,Pcbnew,(5.1.9)-1
FMAT,2
METRIC
T1C0.400
T2C0.813
T3C1.000
T4C1.200
T5C1.300
T6C1.200
T7C1.900
T8C4.100
%
G90
G05
T1
X67.313Y-54.255
X83.46Y-56.452
T2
X54.022Y-51.889
X54.022Y-67.109
X56.562Y-51.889
X56.562Y-67.109
X59.102Y-51.889
X59.102Y-67.109
X61.642Y-51.889
X61.642Y-67.109
X64.182Y-51.889
X64.182Y-67.109
X66.722Y-51.889
X66.722Y-67.109
X69.262Y-51.889
X69.262Y-67.109
X71.802Y-51.889
X71.802Y-67.109
X74.342Y-51.889
X74.342Y-67.109
X76.882Y-51.889
X76.882Y-67.109
X79.422Y-51.889
X79.422Y-67.109
X81.962Y-51.889
X81.962Y-67.109
X87.0Y-55.69
X87.0Y-58.23
X87.0Y-60.77
X87.0Y-63.31
T3
X90.75Y-56.75
X90.75Y-59.29
X90.75Y-61.83
X98.37Y-56.75
X98.37Y-59.29
X98.37Y-61.83
T4
X56.985Y-83.655
X56.985Y-102.705
X56.985Y-121.755
X56.985Y-140.805
X63.335Y-81.115
X63.335Y-100.165
X63.335Y-119.215
X63.335Y-138.265
X76.035Y-83.655
X76.035Y-102.705
X76.035Y-121.755
X76.035Y-140.805
X82.385Y-81.115
X82.385Y-100.165
X82.385Y-119.215
X82.385Y-138.265
X95.085Y-83.655
X95.085Y-102.705
X95.085Y-121.755
X95.085Y-140.805
X101.435Y-81.115
X101.435Y-100.165
X101.435Y-119.215
X101.435Y-138.265
X114.135Y-64.605
X114.135Y-83.655
X114.135Y-102.705
X114.135Y-121.755
X114.135Y-140.805
X120.485Y-62.065
X120.485Y-81.115
X120.485Y-100.165
X120.485Y-119.215
X120.485Y-138.265
X133.185Y-64.605
X133.185Y-83.655
X133.185Y-102.705
X133.185Y-121.755
X133.185Y-140.805
X139.535Y-62.065
X139.535Y-81.115
X139.535Y-100.165
X139.535Y-119.215
X139.535Y-138.265
T5
X85.0Y-51.75
X91.5Y-51.75
T6
X103.75Y-51.5
X103.75Y-58.5
T7
X54.445Y-78.575
X54.445Y-97.625
X54.445Y-116.675
X54.445Y-135.725
X64.605Y-78.575
X64.605Y-97.625
X64.605Y-116.675
X64.605Y-135.725
X73.495Y-78.575
X73.495Y-97.625
X73.495Y-116.675
X73.495Y-135.725
X83.655Y-78.575
X83.655Y-97.625
X83.655Y-116.675
X83.655Y-135.725
X92.545Y-78.575
X92.545Y-97.625
X92.545Y-116.675
X92.545Y-135.725
X102.705Y-78.575
X102.705Y-97.625
X102.705Y-116.675
X102.705Y-135.725
X111.595Y-59.525
X111.595Y-78.575
X111.595Y-97.625
X111.595Y-116.675
X111.595Y-135.725
X121.755Y-59.525
X121.755Y-78.575
X121.755Y-97.625
X121.755Y-116.675
X121.755Y-135.725
X130.645Y-59.525
X130.645Y-78.575
X130.645Y-97.625
X130.645Y-116.675
X130.645Y-135.725
X140.805Y-59.525
X140.805Y-78.575
X140.805Y-97.625
X140.805Y-116.675
X140.805Y-135.725
T8
X59.525Y-78.575
X59.525Y-97.625
X59.525Y-116.675
X59.525Y-135.725
X78.575Y-78.575
X78.575Y-97.625
X78.575Y-116.675
X78.575Y-135.725
X97.625Y-78.575
X97.625Y-97.625
X97.625Y-116.675
X97.625Y-135.725
X116.675Y-59.525
X116.675Y-78.575
X116.675Y-97.625
X116.675Y-116.675
X116.675Y-135.725
X135.725Y-59.525
X135.725Y-78.575
X135.725Y-97.625
X135.725Y-116.675
X135.725Y-135.725
T3
G00X101.65Y-61.55
M15
G01X101.65Y-62.05
M16
G05
G00X105.85Y-53.05
M15
G01X105.85Y-53.55
M16
G05
G00X105.85Y-56.05
M15
G01X105.85Y-56.55
M16
G05
G00X105.85Y-60.05
M15
G01X105.85Y-60.55
M16
G05
T0
M30
