%TF.GenerationSoftware,KiCad,Pcbnew,(5.1.9)-1*%
%TF.CreationDate,2021-02-13T13:30:33+09:00*%
%TF.ProjectId,yuiop22rs,7975696f-7032-4327-9273-2e6b69636164,1*%
%TF.SameCoordinates,Original*%
%TF.FileFunction,Legend,Bot*%
%TF.FilePolarity,Positive*%
%FSLAX46Y46*%
G04 Gerber Fmt 4.6, Leading zero omitted, Abs format (unit mm)*
G04 Created by KiCad (PCBNEW (5.1.9)-1) date 2021-02-13 13:30:33*
%MOMM*%
%LPD*%
G01*
G04 APERTURE LIST*
%ADD10C,0.150000*%
G04 APERTURE END LIST*
D10*
%TO.C,D1*%
X122925000Y-67225000D02*
X122925000Y-61825000D01*
X124175000Y-64025000D02*
X123175000Y-64025000D01*
X123175000Y-64025000D02*
X123675000Y-64925000D01*
X124425000Y-61825000D02*
X124425000Y-67225000D01*
X123675000Y-64925000D02*
X124175000Y-64025000D01*
X124425000Y-61825000D02*
X122925000Y-61825000D01*
X124175000Y-65025000D02*
X123175000Y-65025000D01*
X124425000Y-67225000D02*
X122925000Y-67225000D01*
%TO.C,D2*%
X143475000Y-67225000D02*
X141975000Y-67225000D01*
X143225000Y-65025000D02*
X142225000Y-65025000D01*
X143475000Y-61825000D02*
X141975000Y-61825000D01*
X142725000Y-64925000D02*
X143225000Y-64025000D01*
X143475000Y-61825000D02*
X143475000Y-67225000D01*
X142225000Y-64025000D02*
X142725000Y-64925000D01*
X143225000Y-64025000D02*
X142225000Y-64025000D01*
X141975000Y-67225000D02*
X141975000Y-61825000D01*
%TO.C,D3*%
X67275000Y-86275000D02*
X65775000Y-86275000D01*
X67025000Y-84075000D02*
X66025000Y-84075000D01*
X67275000Y-80875000D02*
X65775000Y-80875000D01*
X66525000Y-83975000D02*
X67025000Y-83075000D01*
X67275000Y-80875000D02*
X67275000Y-86275000D01*
X66025000Y-83075000D02*
X66525000Y-83975000D01*
X67025000Y-83075000D02*
X66025000Y-83075000D01*
X65775000Y-86275000D02*
X65775000Y-80875000D01*
%TO.C,D4*%
X84825000Y-86275000D02*
X84825000Y-80875000D01*
X86075000Y-83075000D02*
X85075000Y-83075000D01*
X85075000Y-83075000D02*
X85575000Y-83975000D01*
X86325000Y-80875000D02*
X86325000Y-86275000D01*
X85575000Y-83975000D02*
X86075000Y-83075000D01*
X86325000Y-80875000D02*
X84825000Y-80875000D01*
X86075000Y-84075000D02*
X85075000Y-84075000D01*
X86325000Y-86275000D02*
X84825000Y-86275000D01*
%TO.C,D5*%
X105375000Y-86275000D02*
X103875000Y-86275000D01*
X105125000Y-84075000D02*
X104125000Y-84075000D01*
X105375000Y-80875000D02*
X103875000Y-80875000D01*
X104625000Y-83975000D02*
X105125000Y-83075000D01*
X105375000Y-80875000D02*
X105375000Y-86275000D01*
X104125000Y-83075000D02*
X104625000Y-83975000D01*
X105125000Y-83075000D02*
X104125000Y-83075000D01*
X103875000Y-86275000D02*
X103875000Y-80875000D01*
%TO.C,D6*%
X122925000Y-86275000D02*
X122925000Y-80875000D01*
X124175000Y-83075000D02*
X123175000Y-83075000D01*
X123175000Y-83075000D02*
X123675000Y-83975000D01*
X124425000Y-80875000D02*
X124425000Y-86275000D01*
X123675000Y-83975000D02*
X124175000Y-83075000D01*
X124425000Y-80875000D02*
X122925000Y-80875000D01*
X124175000Y-84075000D02*
X123175000Y-84075000D01*
X124425000Y-86275000D02*
X122925000Y-86275000D01*
%TO.C,D7*%
X143475000Y-86275000D02*
X141975000Y-86275000D01*
X143225000Y-84075000D02*
X142225000Y-84075000D01*
X143475000Y-80875000D02*
X141975000Y-80875000D01*
X142725000Y-83975000D02*
X143225000Y-83075000D01*
X143475000Y-80875000D02*
X143475000Y-86275000D01*
X142225000Y-83075000D02*
X142725000Y-83975000D01*
X143225000Y-83075000D02*
X142225000Y-83075000D01*
X141975000Y-86275000D02*
X141975000Y-80875000D01*
%TO.C,D8*%
X65775000Y-105325000D02*
X65775000Y-99925000D01*
X67025000Y-102125000D02*
X66025000Y-102125000D01*
X66025000Y-102125000D02*
X66525000Y-103025000D01*
X67275000Y-99925000D02*
X67275000Y-105325000D01*
X66525000Y-103025000D02*
X67025000Y-102125000D01*
X67275000Y-99925000D02*
X65775000Y-99925000D01*
X67025000Y-103125000D02*
X66025000Y-103125000D01*
X67275000Y-105325000D02*
X65775000Y-105325000D01*
%TO.C,D9*%
X86325000Y-105325000D02*
X84825000Y-105325000D01*
X86075000Y-103125000D02*
X85075000Y-103125000D01*
X86325000Y-99925000D02*
X84825000Y-99925000D01*
X85575000Y-103025000D02*
X86075000Y-102125000D01*
X86325000Y-99925000D02*
X86325000Y-105325000D01*
X85075000Y-102125000D02*
X85575000Y-103025000D01*
X86075000Y-102125000D02*
X85075000Y-102125000D01*
X84825000Y-105325000D02*
X84825000Y-99925000D01*
%TO.C,D10*%
X103875000Y-105325000D02*
X103875000Y-99925000D01*
X105125000Y-102125000D02*
X104125000Y-102125000D01*
X104125000Y-102125000D02*
X104625000Y-103025000D01*
X105375000Y-99925000D02*
X105375000Y-105325000D01*
X104625000Y-103025000D02*
X105125000Y-102125000D01*
X105375000Y-99925000D02*
X103875000Y-99925000D01*
X105125000Y-103125000D02*
X104125000Y-103125000D01*
X105375000Y-105325000D02*
X103875000Y-105325000D01*
%TO.C,D11*%
X124425000Y-105325000D02*
X122925000Y-105325000D01*
X124175000Y-103125000D02*
X123175000Y-103125000D01*
X124425000Y-99925000D02*
X122925000Y-99925000D01*
X123675000Y-103025000D02*
X124175000Y-102125000D01*
X124425000Y-99925000D02*
X124425000Y-105325000D01*
X123175000Y-102125000D02*
X123675000Y-103025000D01*
X124175000Y-102125000D02*
X123175000Y-102125000D01*
X122925000Y-105325000D02*
X122925000Y-99925000D01*
%TO.C,D12*%
X141975000Y-105325000D02*
X141975000Y-99925000D01*
X143225000Y-102125000D02*
X142225000Y-102125000D01*
X142225000Y-102125000D02*
X142725000Y-103025000D01*
X143475000Y-99925000D02*
X143475000Y-105325000D01*
X142725000Y-103025000D02*
X143225000Y-102125000D01*
X143475000Y-99925000D02*
X141975000Y-99925000D01*
X143225000Y-103125000D02*
X142225000Y-103125000D01*
X143475000Y-105325000D02*
X141975000Y-105325000D01*
%TO.C,D13*%
X65775000Y-124375000D02*
X65775000Y-118975000D01*
X67025000Y-121175000D02*
X66025000Y-121175000D01*
X66025000Y-121175000D02*
X66525000Y-122075000D01*
X67275000Y-118975000D02*
X67275000Y-124375000D01*
X66525000Y-122075000D02*
X67025000Y-121175000D01*
X67275000Y-118975000D02*
X65775000Y-118975000D01*
X67025000Y-122175000D02*
X66025000Y-122175000D01*
X67275000Y-124375000D02*
X65775000Y-124375000D01*
%TO.C,D14*%
X86325000Y-124375000D02*
X84825000Y-124375000D01*
X86075000Y-122175000D02*
X85075000Y-122175000D01*
X86325000Y-118975000D02*
X84825000Y-118975000D01*
X85575000Y-122075000D02*
X86075000Y-121175000D01*
X86325000Y-118975000D02*
X86325000Y-124375000D01*
X85075000Y-121175000D02*
X85575000Y-122075000D01*
X86075000Y-121175000D02*
X85075000Y-121175000D01*
X84825000Y-124375000D02*
X84825000Y-118975000D01*
%TO.C,D15*%
X103875000Y-124375000D02*
X103875000Y-118975000D01*
X105125000Y-121175000D02*
X104125000Y-121175000D01*
X104125000Y-121175000D02*
X104625000Y-122075000D01*
X105375000Y-118975000D02*
X105375000Y-124375000D01*
X104625000Y-122075000D02*
X105125000Y-121175000D01*
X105375000Y-118975000D02*
X103875000Y-118975000D01*
X105125000Y-122175000D02*
X104125000Y-122175000D01*
X105375000Y-124375000D02*
X103875000Y-124375000D01*
%TO.C,D16*%
X124425000Y-124375000D02*
X122925000Y-124375000D01*
X124175000Y-122175000D02*
X123175000Y-122175000D01*
X124425000Y-118975000D02*
X122925000Y-118975000D01*
X123675000Y-122075000D02*
X124175000Y-121175000D01*
X124425000Y-118975000D02*
X124425000Y-124375000D01*
X123175000Y-121175000D02*
X123675000Y-122075000D01*
X124175000Y-121175000D02*
X123175000Y-121175000D01*
X122925000Y-124375000D02*
X122925000Y-118975000D01*
%TO.C,D17*%
X143475000Y-124375000D02*
X141975000Y-124375000D01*
X143225000Y-122175000D02*
X142225000Y-122175000D01*
X143475000Y-118975000D02*
X141975000Y-118975000D01*
X142725000Y-122075000D02*
X143225000Y-121175000D01*
X143475000Y-118975000D02*
X143475000Y-124375000D01*
X142225000Y-121175000D02*
X142725000Y-122075000D01*
X143225000Y-121175000D02*
X142225000Y-121175000D01*
X141975000Y-124375000D02*
X141975000Y-118975000D01*
%TO.C,D18*%
X65775000Y-143425000D02*
X65775000Y-138025000D01*
X67025000Y-140225000D02*
X66025000Y-140225000D01*
X66025000Y-140225000D02*
X66525000Y-141125000D01*
X67275000Y-138025000D02*
X67275000Y-143425000D01*
X66525000Y-141125000D02*
X67025000Y-140225000D01*
X67275000Y-138025000D02*
X65775000Y-138025000D01*
X67025000Y-141225000D02*
X66025000Y-141225000D01*
X67275000Y-143425000D02*
X65775000Y-143425000D01*
%TO.C,D19*%
X86325000Y-143425000D02*
X84825000Y-143425000D01*
X86075000Y-141225000D02*
X85075000Y-141225000D01*
X86325000Y-138025000D02*
X84825000Y-138025000D01*
X85575000Y-141125000D02*
X86075000Y-140225000D01*
X86325000Y-138025000D02*
X86325000Y-143425000D01*
X85075000Y-140225000D02*
X85575000Y-141125000D01*
X86075000Y-140225000D02*
X85075000Y-140225000D01*
X84825000Y-143425000D02*
X84825000Y-138025000D01*
%TO.C,D20*%
X103875000Y-143425000D02*
X103875000Y-138025000D01*
X105125000Y-140225000D02*
X104125000Y-140225000D01*
X104125000Y-140225000D02*
X104625000Y-141125000D01*
X105375000Y-138025000D02*
X105375000Y-143425000D01*
X104625000Y-141125000D02*
X105125000Y-140225000D01*
X105375000Y-138025000D02*
X103875000Y-138025000D01*
X105125000Y-141225000D02*
X104125000Y-141225000D01*
X105375000Y-143425000D02*
X103875000Y-143425000D01*
%TO.C,D21*%
X122925000Y-143425000D02*
X122925000Y-138025000D01*
X124175000Y-140225000D02*
X123175000Y-140225000D01*
X123175000Y-140225000D02*
X123675000Y-141125000D01*
X124425000Y-138025000D02*
X124425000Y-143425000D01*
X123675000Y-141125000D02*
X124175000Y-140225000D01*
X124425000Y-138025000D02*
X122925000Y-138025000D01*
X124175000Y-141225000D02*
X123175000Y-141225000D01*
X124425000Y-143425000D02*
X122925000Y-143425000D01*
%TO.C,D22*%
X129500000Y-143425000D02*
X128000000Y-143425000D01*
X129250000Y-141225000D02*
X128250000Y-141225000D01*
X129500000Y-138025000D02*
X128000000Y-138025000D01*
X128750000Y-141125000D02*
X129250000Y-140225000D01*
X129500000Y-138025000D02*
X129500000Y-143425000D01*
X128250000Y-140225000D02*
X128750000Y-141125000D01*
X129250000Y-140225000D02*
X128250000Y-140225000D01*
X128000000Y-143425000D02*
X128000000Y-138025000D01*
%TO.C,D23*%
X59750000Y-62200000D02*
X59750000Y-56800000D01*
X61000000Y-59000000D02*
X60000000Y-59000000D01*
X60000000Y-59000000D02*
X60500000Y-59900000D01*
X61250000Y-56800000D02*
X61250000Y-62200000D01*
X60500000Y-59900000D02*
X61000000Y-59000000D01*
X61250000Y-56800000D02*
X59750000Y-56800000D01*
X61000000Y-60000000D02*
X60000000Y-60000000D01*
X61250000Y-62200000D02*
X59750000Y-62200000D01*
%TO.C,D24*%
X66250000Y-62200000D02*
X64750000Y-62200000D01*
X66000000Y-60000000D02*
X65000000Y-60000000D01*
X66250000Y-56800000D02*
X64750000Y-56800000D01*
X65500000Y-59900000D02*
X66000000Y-59000000D01*
X66250000Y-56800000D02*
X66250000Y-62200000D01*
X65000000Y-59000000D02*
X65500000Y-59900000D01*
X66000000Y-59000000D02*
X65000000Y-59000000D01*
X64750000Y-62200000D02*
X64750000Y-56800000D01*
%TO.C,D25*%
X69750000Y-62200000D02*
X69750000Y-56800000D01*
X71000000Y-59000000D02*
X70000000Y-59000000D01*
X70000000Y-59000000D02*
X70500000Y-59900000D01*
X71250000Y-56800000D02*
X71250000Y-62200000D01*
X70500000Y-59900000D02*
X71000000Y-59000000D01*
X71250000Y-56800000D02*
X69750000Y-56800000D01*
X71000000Y-60000000D02*
X70000000Y-60000000D01*
X71250000Y-62200000D02*
X69750000Y-62200000D01*
%TO.C,D26*%
X76250000Y-62200000D02*
X74750000Y-62200000D01*
X76000000Y-60000000D02*
X75000000Y-60000000D01*
X76250000Y-56800000D02*
X74750000Y-56800000D01*
X75500000Y-59900000D02*
X76000000Y-59000000D01*
X76250000Y-56800000D02*
X76250000Y-62200000D01*
X75000000Y-59000000D02*
X75500000Y-59900000D01*
X76000000Y-59000000D02*
X75000000Y-59000000D01*
X74750000Y-62200000D02*
X74750000Y-56800000D01*
%TD*%
M02*
