%TF.GenerationSoftware,KiCad,Pcbnew,(5.1.9)-1*%
%TF.CreationDate,2021-02-13T13:30:33+09:00*%
%TF.ProjectId,yuiop22rs,7975696f-7032-4327-9273-2e6b69636164,1*%
%TF.SameCoordinates,Original*%
%TF.FileFunction,Soldermask,Bot*%
%TF.FilePolarity,Negative*%
%FSLAX46Y46*%
G04 Gerber Fmt 4.6, Leading zero omitted, Abs format (unit mm)*
G04 Created by KiCad (PCBNEW (5.1.9)-1) date 2021-02-13 13:30:33*
%MOMM*%
%LPD*%
G01*
G04 APERTURE LIST*
%ADD10R,1.000000X1.400000*%
%ADD11C,1.200000*%
%ADD12O,1.700000X2.500000*%
%ADD13C,1.397000*%
%ADD14C,2.400000*%
%ADD15C,4.100000*%
%ADD16C,1.900000*%
%ADD17R,2.100000X1.900000*%
%ADD18O,2.100000X1.900000*%
%ADD19C,2.000000*%
%ADD20C,1.524000*%
G04 APERTURE END LIST*
D10*
%TO.C,D1*%
X123675000Y-66300000D03*
X123675000Y-62750000D03*
%TD*%
%TO.C,D2*%
X142725000Y-62750000D03*
X142725000Y-66300000D03*
%TD*%
%TO.C,D3*%
X66525000Y-81800000D03*
X66525000Y-85350000D03*
%TD*%
%TO.C,D4*%
X85575000Y-85350000D03*
X85575000Y-81800000D03*
%TD*%
%TO.C,D5*%
X104625000Y-81800000D03*
X104625000Y-85350000D03*
%TD*%
%TO.C,D6*%
X123675000Y-85350000D03*
X123675000Y-81800000D03*
%TD*%
%TO.C,D7*%
X142725000Y-81800000D03*
X142725000Y-85350000D03*
%TD*%
%TO.C,D8*%
X66525000Y-104400000D03*
X66525000Y-100850000D03*
%TD*%
%TO.C,D9*%
X85575000Y-100850000D03*
X85575000Y-104400000D03*
%TD*%
%TO.C,D10*%
X104625000Y-104400000D03*
X104625000Y-100850000D03*
%TD*%
%TO.C,D11*%
X123675000Y-100850000D03*
X123675000Y-104400000D03*
%TD*%
%TO.C,D12*%
X142725000Y-104400000D03*
X142725000Y-100850000D03*
%TD*%
%TO.C,D13*%
X66525000Y-123450000D03*
X66525000Y-119900000D03*
%TD*%
%TO.C,D14*%
X85575000Y-119900000D03*
X85575000Y-123450000D03*
%TD*%
%TO.C,D15*%
X104625000Y-123450000D03*
X104625000Y-119900000D03*
%TD*%
%TO.C,D16*%
X123675000Y-119900000D03*
X123675000Y-123450000D03*
%TD*%
%TO.C,D17*%
X142725000Y-119900000D03*
X142725000Y-123450000D03*
%TD*%
%TO.C,D18*%
X66525000Y-142500000D03*
X66525000Y-138950000D03*
%TD*%
%TO.C,D19*%
X85575000Y-138950000D03*
X85575000Y-142500000D03*
%TD*%
%TO.C,D20*%
X104625000Y-142500000D03*
X104625000Y-138950000D03*
%TD*%
%TO.C,D21*%
X123675000Y-142500000D03*
X123675000Y-138950000D03*
%TD*%
%TO.C,D22*%
X128750000Y-138950000D03*
X128750000Y-142500000D03*
%TD*%
%TO.C,D23*%
X60500000Y-61275000D03*
X60500000Y-57725000D03*
%TD*%
%TO.C,D24*%
X65500000Y-57725000D03*
X65500000Y-61275000D03*
%TD*%
%TO.C,D25*%
X70500000Y-61275000D03*
X70500000Y-57725000D03*
%TD*%
%TO.C,D26*%
X75500000Y-57725000D03*
X75500000Y-61275000D03*
%TD*%
D11*
%TO.C,J1*%
X103750000Y-51500000D03*
X103750000Y-58500000D03*
D12*
X105850000Y-53300000D03*
X105850000Y-56300000D03*
X105850000Y-60300000D03*
X101650000Y-61800000D03*
%TD*%
D13*
%TO.C,OL1*%
X87000000Y-60770000D03*
X87000000Y-63310000D03*
X87000000Y-55690000D03*
X87000000Y-58230000D03*
%TD*%
D14*
%TO.C,SW1*%
X114135000Y-64605000D03*
X120485000Y-62065000D03*
D15*
X116675000Y-59525000D03*
D16*
X111595000Y-59525000D03*
X121755000Y-59525000D03*
%TD*%
%TO.C,SW2*%
X140805000Y-59525000D03*
X130645000Y-59525000D03*
D15*
X135725000Y-59525000D03*
D14*
X139535000Y-62065000D03*
X133185000Y-64605000D03*
%TD*%
%TO.C,SW3*%
X56985000Y-83655000D03*
X63335000Y-81115000D03*
D15*
X59525000Y-78575000D03*
D16*
X54445000Y-78575000D03*
X64605000Y-78575000D03*
%TD*%
%TO.C,SW4*%
X83655000Y-78575000D03*
X73495000Y-78575000D03*
D15*
X78575000Y-78575000D03*
D14*
X82385000Y-81115000D03*
X76035000Y-83655000D03*
%TD*%
D16*
%TO.C,SW5*%
X102705000Y-78575000D03*
X92545000Y-78575000D03*
D15*
X97625000Y-78575000D03*
D14*
X101435000Y-81115000D03*
X95085000Y-83655000D03*
%TD*%
%TO.C,SW6*%
X114135000Y-83655000D03*
X120485000Y-81115000D03*
D15*
X116675000Y-78575000D03*
D16*
X111595000Y-78575000D03*
X121755000Y-78575000D03*
%TD*%
%TO.C,SW7*%
X140805000Y-78575000D03*
X130645000Y-78575000D03*
D15*
X135725000Y-78575000D03*
D14*
X139535000Y-81115000D03*
X133185000Y-83655000D03*
%TD*%
%TO.C,SW8*%
X56985000Y-102705000D03*
X63335000Y-100165000D03*
D15*
X59525000Y-97625000D03*
D16*
X54445000Y-97625000D03*
X64605000Y-97625000D03*
%TD*%
%TO.C,SW9*%
X83655000Y-97625000D03*
X73495000Y-97625000D03*
D15*
X78575000Y-97625000D03*
D14*
X82385000Y-100165000D03*
X76035000Y-102705000D03*
%TD*%
D16*
%TO.C,SW10*%
X102705000Y-97625000D03*
X92545000Y-97625000D03*
D15*
X97625000Y-97625000D03*
D14*
X101435000Y-100165000D03*
X95085000Y-102705000D03*
%TD*%
%TO.C,SW11*%
X114135000Y-102705000D03*
X120485000Y-100165000D03*
D15*
X116675000Y-97625000D03*
D16*
X111595000Y-97625000D03*
X121755000Y-97625000D03*
%TD*%
D14*
%TO.C,SW12*%
X133185000Y-102705000D03*
X139535000Y-100165000D03*
D15*
X135725000Y-97625000D03*
D16*
X130645000Y-97625000D03*
X140805000Y-97625000D03*
%TD*%
%TO.C,SW13*%
X64605000Y-116675000D03*
X54445000Y-116675000D03*
D15*
X59525000Y-116675000D03*
D14*
X63335000Y-119215000D03*
X56985000Y-121755000D03*
%TD*%
D16*
%TO.C,SW14*%
X83655000Y-116675000D03*
X73495000Y-116675000D03*
D15*
X78575000Y-116675000D03*
D14*
X82385000Y-119215000D03*
X76035000Y-121755000D03*
%TD*%
%TO.C,SW15*%
X95085000Y-121755000D03*
X101435000Y-119215000D03*
D15*
X97625000Y-116675000D03*
D16*
X92545000Y-116675000D03*
X102705000Y-116675000D03*
%TD*%
D14*
%TO.C,SW16*%
X114135000Y-121755000D03*
X120485000Y-119215000D03*
D15*
X116675000Y-116675000D03*
D16*
X111595000Y-116675000D03*
X121755000Y-116675000D03*
%TD*%
%TO.C,SW17*%
X140805000Y-116675000D03*
X130645000Y-116675000D03*
D15*
X135725000Y-116675000D03*
D14*
X139535000Y-119215000D03*
X133185000Y-121755000D03*
%TD*%
%TO.C,SW18*%
X56985000Y-140805000D03*
X63335000Y-138265000D03*
D15*
X59525000Y-135725000D03*
D16*
X54445000Y-135725000D03*
X64605000Y-135725000D03*
%TD*%
%TO.C,SW19*%
X83655000Y-135725000D03*
X73495000Y-135725000D03*
D15*
X78575000Y-135725000D03*
D14*
X82385000Y-138265000D03*
X76035000Y-140805000D03*
%TD*%
%TO.C,SW20*%
X95085000Y-140805000D03*
X101435000Y-138265000D03*
D15*
X97625000Y-135725000D03*
D16*
X92545000Y-135725000D03*
X102705000Y-135725000D03*
%TD*%
%TO.C,SW21*%
X121755000Y-135725000D03*
X111595000Y-135725000D03*
D15*
X116675000Y-135725000D03*
D14*
X120485000Y-138265000D03*
X114135000Y-140805000D03*
%TD*%
%TO.C,SW22*%
X133185000Y-140805000D03*
X139535000Y-138265000D03*
D15*
X135725000Y-135725000D03*
D16*
X130645000Y-135725000D03*
X140805000Y-135725000D03*
%TD*%
D17*
%TO.C,SW_ROT1*%
X90750000Y-56750000D03*
D18*
X98370000Y-56750000D03*
X90750000Y-59290000D03*
X98370000Y-59290000D03*
X90750000Y-61830000D03*
X98370000Y-61830000D03*
%TD*%
D19*
%TO.C,SW_RST1*%
X85000000Y-51750000D03*
X91500000Y-51750000D03*
%TD*%
D20*
%TO.C,U1*%
X54022000Y-51888600D03*
X56562000Y-51888600D03*
X59102000Y-51888600D03*
X61642000Y-51888600D03*
X64182000Y-51888600D03*
X66722000Y-51888600D03*
X69262000Y-51888600D03*
X71802000Y-51888600D03*
X74342000Y-51888600D03*
X76882000Y-51888600D03*
X79422000Y-51888600D03*
X81962000Y-51888600D03*
X81962000Y-67108600D03*
X79422000Y-67108600D03*
X76882000Y-67108600D03*
X74342000Y-67108600D03*
X71802000Y-67108600D03*
X69262000Y-67108600D03*
X66722000Y-67108600D03*
X64182000Y-67108600D03*
X61642000Y-67108600D03*
X59102000Y-67108600D03*
X56562000Y-67108600D03*
X54022000Y-67108600D03*
%TD*%
M02*
